999
dxfrw 0.6.3
  0
SECTION
  2
HEADER
  9
$ACADVER
  1
AC1021
  9
$DWGCODEPAGE
  3
ANSI_1252
  9
$INSBASE
 10
0
 20
0
 30
0
  9
$EXTMIN
 10
-0.8472228814125704
 20
-162.3098988042875
 30
0
  9
$EXTMAX
 10
446.1466817578173
 20
191.8051729448682
 30
0
  9
$LIMMIN
 10
0
 20
0
  9
$LIMMAX
 10
420
 20
297
  9
$ORTHOMODE
 70
    0
  9
$REGENMODE
 70
    1
  9
$FILLMODE
 70
    1
  9
$QTEXTMODE
 70
    0
  9
$MIRRTEXT
 70
    0
  9
$LTSCALE
 40
1
  9
$ATTMODE
 70
    0
  9
$TEXTSIZE
 40
2.5
  9
$TRACEWID
 40
15.68
  9
$TEXTSTYLE
  7
STANDARD
  9
$CLAYER
  8
Profiles
  9
$CELTYPE
  6
BYLAYER
  9
$CECOLOR
 62
  256
  9
$CELTSCALE
 40
1
  9
$DISPSILH
 70
    0
  9
$DIMSCALE
 40
2.5
  9
$DIMASZ
 40
2.5
  9
$DIMEXO
 40
0.625
  9
$DIMDLI
 40
3.75
  9
$DIMRND
 40
0
  9
$DIMDLE
 40
0
  9
$DIMEXE
 40
1.25
  9
$DIMTP
 40
0
  9
$DIMTM
 40
0
  9
$DIMTXT
 40
2.5
  9
$DIMCEN
 40
2.5
  9
$DIMTSZ
 40
0
  9
$DIMTOL
 70
    0
  9
$DIMLIM
 70
    0
  9
$DIMTIH
 70
    0
  9
$DIMTOH
 70
    0
  9
$DIMSE1
 70
    0
  9
$DIMSE2
 70
    0
  9
$DIMTAD
 70
    1
  9
$DIMZIN
 70
    8
  9
$DIMBLK
  1

  9
$DIMASO
 70
    1
  9
$DIMSHO
 70
    1
  9
$DIMPOST
  1

  9
$DIMAPOST
  1

  9
$DIMALT
 70
    0
  9
$DIMALTD
 70
    3
  9
$DIMALTF
 40
0.03937
  9
$DIMLFAC
 40
1
  9
$DIMTOFL
 70
    1
  9
$DIMTVP
 40
0
  9
$DIMTIX
 70
    0
  9
$DIMSOXD
 70
    0
  9
$DIMSAH
 70
    0
  9
$DIMBLK1
  1

  9
$DIMBLK2
  1

  9
$DIMSTYLE
  2
STANDARD
  9
$DIMCLRD
 70
    0
  9
$DIMCLRE
 70
    0
  9
$DIMCLRT
 70
    0
  9
$DIMTFAC
 40
1
  9
$DIMGAP
 40
0.625
  9
$DIMJUST
 70
    0
  9
$DIMSD1
 70
    0
  9
$DIMSD2
 70
    0
  9
$DIMTOLJ
 70
    0
  9
$DIMTZIN
 70
    8
  9
$DIMALTZ
 70
    0
  9
$DIMALTTZ
 70
    0
  9
$DIMUPT
 70
    0
  9
$DIMDEC
 70
    2
  9
$DIMTDEC
 70
    2
  9
$DIMALTU
 70
    2
  9
$DIMALTTD
 70
    3
  9
$DIMTXSTY
  7
STANDARD
  9
$DIMAUNIT
 70
    0
  9
$DIMADEC
 70
    0
  9
$DIMALTRND
 40
0
  9
$DIMAZIN
 70
    0
  9
$DIMDSEP
 70
   44
  9
$DIMATFIT
 70
    3
  9
$DIMFRAC
 70
    0
  9
$DIMLDRBLK
  1
STANDARD
  9
$DIMLUNIT
 70
    2
  9
$DIMLWD
 70
   -2
  9
$DIMLWE
 70
   -2
  9
$DIMTMOVE
 70
    0
  9
$DIMFXL
 40
1
  9
$DIMFXLON
 70
    0
  9
$DIMJOGANG
 40
0.7854
  9
$DIMTFILL
 70
    0
  9
$DIMTFILLCLR
 70
    0
  9
$DIMARCSYM
 70
    0
  9
$DIMLTYPE
  6

  9
$DIMLTEX1
  6

  9
$DIMLTEX2
  6

  9
$LUNITS
 70
    2
  9
$LUPREC
 70
    4
  9
$SKETCHINC
 40
1
  9
$FILLETRAD
 40
0
  9
$AUNITS
 70
    0
  9
$AUPREC
 70
    2
  9
$MENU
  1
.
  9
$ELEVATION
 40
0
  9
$PELEVATION
 40
0
  9
$THICKNESS
 40
0
  9
$LIMCHECK
 70
    0
  9
$CHAMFERA
 40
0
  9
$CHAMFERB
 40
0
  9
$CHAMFERC
 40
0
  9
$CHAMFERD
 40
0
  9
$SKPOLY
 70
    0
  9
$USRTIMER
 70
    1
  9
$ANGBASE
 50
0
  9
$ANGDIR
 70
    0
  9
$PDMODE
 70
   34
  9
$PDSIZE
 40
0
  9
$PLINEWID
 40
0
  9
$SPLFRAME
 70
    0
  9
$SPLINETYPE
 70
    2
  9
$SPLINESEGS
 70
    8
  9
$HANDSEED
  5
20000
  9
$SURFTAB1
 70
    6
  9
$SURFTAB2
 70
    6
  9
$SURFTYPE
 70
    6
  9
$SURFU
 70
    6
  9
$SURFV
 70
    6
  9
$UCSBASE
  2

  9
$UCSNAME
  2

  9
$UCSORG
 10
0
 20
0
 30
0
  9
$UCSXDIR
 10
1
 20
0
 30
0
  9
$UCSYDIR
 10
0
 20
1
 30
0
  9
$UCSORTHOREF
  2

  9
$UCSORTHOVIEW
 70
    0
  9
$UCSORGTOP
 10
0
 20
0
 30
0
  9
$UCSORGBOTTOM
 10
0
 20
0
 30
0
  9
$UCSORGLEFT
 10
0
 20
0
 30
0
  9
$UCSORGRIGHT
 10
0
 20
0
 30
0
  9
$UCSORGFRONT
 10
0
 20
0
 30
0
  9
$UCSORGBACK
 10
0
 20
0
 30
0
  9
$PUCSBASE
  2

  9
$PUCSNAME
  2

  9
$PUCSORG
 10
0
 20
0
 30
0
  9
$PUCSXDIR
 10
1
 20
0
 30
0
  9
$PUCSYDIR
 10
0
 20
1
 30
0
  9
$PUCSORTHOREF
  2

  9
$PUCSORTHOVIEW
 70
    0
  9
$PUCSORGTOP
 10
0
 20
0
 30
0
  9
$PUCSORGBOTTOM
 10
0
 20
0
 30
0
  9
$PUCSORGLEFT
 10
0
 20
0
 30
0
  9
$PUCSORGRIGHT
 10
0
 20
0
 30
0
  9
$PUCSORGFRONT
 10
0
 20
0
 30
0
  9
$PUCSORGBACK
 10
0
 20
0
 30
0
  9
$USERI1
 70
    0
  9
$USERI2
 70
    0
  9
$USERI3
 70
    0
  9
$USERI4
 70
    0
  9
$USERI5
 70
    0
  9
$USERR1
 40
0
  9
$USERR2
 40
0
  9
$USERR3
 40
0
  9
$USERR4
 40
0
  9
$USERR5
 40
0
  9
$WORLDVIEW
 70
    1
  9
$SHADEDGE
 70
    3
  9
$SHADEDIF
 70
   70
  9
$TILEMODE
 70
    1
  9
$MAXACTVP
 70
   64
  9
$PINSBASE
 10
0
 20
0
 30
0
  9
$PLIMCHECK
 70
    0
  9
$PEXTMIN
 10
0
 20
0
 30
0
  9
$PEXTMAX
 10
0
 20
0
 30
0
  9
$GRIDMODE
 70
    1
  9
$SNAPSTYLE
 70
    0
  9
$PLIMMIN
 10
0
 20
0
  9
$PLIMMAX
 10
297
 20
210
  9
$UNITMODE
 70
    0
  9
$VISRETAIN
 70
    1
  9
$PLINEGEN
 70
    0
  9
$PSLTSCALE
 70
    1
  9
$TREEDEPTH
 70
 3020
  9
$CMLSTYLE
  2
Standard
  9
$CMLJUST
 70
    0
  9
$CMLSCALE
 40
20
  9
$PROXYGRAPHICS
 70
    1
  9
$MEASUREMENT
 70
    1
  9
$CELWEIGHT
370
   -1
  9
$ENDCAPS
280
    0
  9
$JOINSTYLE
280
    0
  9
$LWDISPLAY
290
    0
  9
$INSUNITS
 70
    4
  9
$HYPERLINKBASE
  1

  9
$STYLESHEET
  1

  9
$XEDIT
290
    1
  9
$CEPSNTYPE
380
    0
  9
$PSTYLEMODE
290
    1
  9
$EXTNAMES
290
    1
  9
$PSVPSCALE
 40
0
  9
$OLESTARTUP
290
    0
  9
$SORTENTS
280
  127
  9
$INDEXCTL
280
    0
  9
$HIDETEXT
280
    1
  9
$XCLIPFRAME
290
    0
  9
$HALOGAP
280
    0
  9
$OBSCOLOR
 70
  257
  9
$OBSLTYPE
280
    0
  9
$INTERSECTIONDISPLAY
280
    0
  9
$INTERSECTIONCOLOR
 70
  257
  9
$DIMASSOC
280
    1
  9
$PROJECTNAME
  1

  9
$CAMERADISPLAY
290
    0
  9
$LENSLENGTH
 40
50
  9
$CAMERAHEIGHT
 40
0
  9
$STEPSPERSEC
 40
2
  9
$STEPSIZE
 40
50
  9
$3DDWFPREC
 40
2
  9
$PSOLWIDTH
 40
5
  9
$PSOLHEIGHT
 40
80
  9
$LOFTANG1
 40
1.570796326794897
  9
$LOFTANG2
 40
1.570796326794897
  9
$LOFTMAG1
 40
0
  9
$LOFTMAG2
 40
0
  9
$LOFTPARAM
 70
    7
  9
$LOFTNORMALS
280
    1
  9
$LATITUDE
 40
1
  9
$LONGITUDE
 40
1
  9
$NORTHDIRECTION
 40
0
  9
$TIMEZONE
 70
-8000
  9
$LIGHTGLYPHDISPLAY
280
    1
  9
$TILEMODELIGHTSYNCH
280
    1
  9
$SOLIDHIST
280
    1
  9
$SHOWHIST
280
    1
  9
$DWFFRAME
280
    2
  9
$DGNFRAME
280
    0
  9
$REALWORLDSCALE
290
    1
  9
$INTERFERECOLOR
 62
    1
  9
$CSHADOW
280
    0
  9
$SHADOWPLANELOCATION
 40
0
  0
ENDSEC
  0
SECTION
  2
CLASSES
  0
ENDSEC
  0
SECTION
  2
TABLES
  0
TABLE
  2
VPORT
  5
8
330
0
100
AcDbSymbolTable
 70
    1
  0
VPORT
  5
31
330
2
100
AcDbSymbolTableRecord
100
AcDbViewportTableRecord
  2
*ACTIVE
 70
    0
 10
0
 20
0
 11
1
 21
1
 12
251.9344771036206
 22
116.4801661922597
 13
0
 23
0
 14
10
 24
10
 15
10
 25
10
 16
0
 26
0
 36
1
 17
0
 27
0
 37
0
 40
406.3629327340827
 41
1.496757457846952
 42
50
 43
0
 44
0
 50
0
 51
0
 71
    0
 72
  100
 73
    1
 74
    3
 75
    0
 76
    1
 77
    0
 78
    0
281
    0
 65
    1
110
0
120
0
130
0
111
1
121
0
131
0
112
0
122
1
132
0
 79
    0
146
0
348
10020
 60
    7
 61
    5
292
1
282
    1
141
0
142
0
 63
  250
421
3358443
  0
ENDTAB
  0
TABLE
  2
LTYPE
  5
5
330
0
100
AcDbSymbolTable
 70
    4
  0
LTYPE
  5
14
330
5
100
AcDbSymbolTableRecord
100
AcDbLinetypeTableRecord
  2
ByBlock
 70
    0
  3

 72
   65
 73
    0
 40
0
  0
LTYPE
  5
15
330
5
100
AcDbSymbolTableRecord
100
AcDbLinetypeTableRecord
  2
ByLayer
 70
    0
  3

 72
   65
 73
    0
 40
0
  0
LTYPE
  5
16
330
5
100
AcDbSymbolTableRecord
100
AcDbLinetypeTableRecord
  2
Continuous
 70
    0
  3
Solid line
 72
   65
 73
    0
 40
0
  0
LTYPE
  5
32
330
5
100
AcDbSymbolTableRecord
100
AcDbLinetypeTableRecord
  2
DOT
 70
    0
  3
Dot . . . . . . . . . . . . . . . . . . . . . .
 72
   65
 73
    2
 40
6.35
 49
0
 74
    0
 49
-6.35
 74
    0
  0
LTYPE
  5
33
330
5
100
AcDbSymbolTableRecord
100
AcDbLinetypeTableRecord
  2
DOTTINY
 70
    0
  3
Dot (.15x) .....................................
 72
   65
 73
    2
 40
0.9525
 49
0
 74
    0
 49
-0.9525
 74
    0
  0
LTYPE
  5
34
330
5
100
AcDbSymbolTableRecord
100
AcDbLinetypeTableRecord
  2
DOT2
 70
    0
  3
Dot (.5x) .....................................
 72
   65
 73
    2
 40
3.175
 49
0
 74
    0
 49
-3.175
 74
    0
  0
LTYPE
  5
35
330
5
100
AcDbSymbolTableRecord
100
AcDbLinetypeTableRecord
  2
DOTX2
 70
    0
  3
Dot (2x) .  .  .  .  .  .  .  .  .  .  .  .  .
 72
   65
 73
    2
 40
12.7
 49
0
 74
    0
 49
-12.7
 74
    0
  0
LTYPE
  5
36
330
5
100
AcDbSymbolTableRecord
100
AcDbLinetypeTableRecord
  2
DASHED
 70
    0
  3
Dashed _ _ _ _ _ _ _ _ _ _ _ _ _ _ _ _ _
 72
   65
 73
    2
 40
19.05
 49
12.7
 74
    0
 49
-6.35
 74
    0
  0
LTYPE
  5
37
330
5
100
AcDbSymbolTableRecord
100
AcDbLinetypeTableRecord
  2
DASHEDTINY
 70
    0
  3
Dashed (.15x) _ _ _ _ _ _ _ _ _ _ _ _ _ _ _ _ _
 72
   65
 73
    2
 40
2.8575
 49
1.905
 74
    0
 49
-0.9525
 74
    0
  0
LTYPE
  5
38
330
5
100
AcDbSymbolTableRecord
100
AcDbLinetypeTableRecord
  2
DASHED2
 70
    0
  3
Dashed (.5x) _ _ _ _ _ _ _ _ _ _ _ _ _ _ _ _ _
 72
   65
 73
    2
 40
9.524999999999999
 49
6.35
 74
    0
 49
-3.175
 74
    0
  0
LTYPE
  5
39
330
5
100
AcDbSymbolTableRecord
100
AcDbLinetypeTableRecord
  2
DASHEDX2
 70
    0
  3
Dashed (2x) ____  ____  ____  ____  ____  ___
 72
   65
 73
    2
 40
38.09999999999999
 49
25.4
 74
    0
 49
-12.7
 74
    0
  0
LTYPE
  5
3A
330
5
100
AcDbSymbolTableRecord
100
AcDbLinetypeTableRecord
  2
DASHDOT
 70
    0
  3
Dash dot __ . __ . __ . __ . __ . __ . __ . __
 72
   65
 73
    4
 40
25.4
 49
12.7
 74
    0
 49
-6.35
 74
    0
 49
0
 74
    0
 49
-6.35
 74
    0
  0
LTYPE
  5
3B
330
5
100
AcDbSymbolTableRecord
100
AcDbLinetypeTableRecord
  2
DASHDOTTINY
 70
    0
  3
Dash dot (.15x) _._._._._._._._._._._._._._._.
 72
   65
 73
    4
 40
3.81
 49
1.905
 74
    0
 49
-0.9525
 74
    0
 49
0
 74
    0
 49
-0.9525
 74
    0
  0
LTYPE
  5
3C
330
5
100
AcDbSymbolTableRecord
100
AcDbLinetypeTableRecord
  2
DASHDOT2
 70
    0
  3
Dash dot (.5x) _._._._._._._._._._._._._._._.
 72
   65
 73
    4
 40
12.7
 49
6.35
 74
    0
 49
-3.175
 74
    0
 49
0
 74
    0
 49
-3.175
 74
    0
  0
LTYPE
  5
3D
330
5
100
AcDbSymbolTableRecord
100
AcDbLinetypeTableRecord
  2
DASHDOTX2
 70
    0
  3
Dash dot (2x) ____  .  ____  .  ____  .  ___
 72
   65
 73
    4
 40
50.8
 49
25.4
 74
    0
 49
-12.7
 74
    0
 49
0
 74
    0
 49
-12.7
 74
    0
  0
LTYPE
  5
3E
330
5
100
AcDbSymbolTableRecord
100
AcDbLinetypeTableRecord
  2
DIVIDE
 70
    0
  3
Divide ____ . . ____ . . ____ . . ____ . . ____
 72
   65
 73
    6
 40
31.75
 49
12.7
 74
    0
 49
-6.35
 74
    0
 49
0
 74
    0
 49
-6.35
 74
    0
 49
0
 74
    0
 49
-6.35
 74
    0
  0
LTYPE
  5
3F
330
5
100
AcDbSymbolTableRecord
100
AcDbLinetypeTableRecord
  2
DIVIDETINY
 70
    0
  3
Divide (.15x) __..__..__..__..__..__..__..__.._
 72
   65
 73
    6
 40
4.7625
 49
1.905
 74
    0
 49
-0.9525
 74
    0
 49
0
 74
    0
 49
-0.9525
 74
    0
 49
0
 74
    0
 49
-0.9525
 74
    0
  0
LTYPE
  5
40
330
5
100
AcDbSymbolTableRecord
100
AcDbLinetypeTableRecord
  2
DIVIDE2
 70
    0
  3
Divide (.5x) __..__..__..__..__..__..__..__.._
 72
   65
 73
    6
 40
15.875
 49
6.35
 74
    0
 49
-3.175
 74
    0
 49
0
 74
    0
 49
-3.175
 74
    0
 49
0
 74
    0
 49
-3.175
 74
    0
  0
LTYPE
  5
41
330
5
100
AcDbSymbolTableRecord
100
AcDbLinetypeTableRecord
  2
DIVIDEX2
 70
    0
  3
Divide (2x) ________  .  .  ________  .  .  _
 72
   65
 73
    6
 40
63.5
 49
25.4
 74
    0
 49
-12.7
 74
    0
 49
0
 74
    0
 49
-12.7
 74
    0
 49
0
 74
    0
 49
-12.7
 74
    0
  0
LTYPE
  5
42
330
5
100
AcDbSymbolTableRecord
100
AcDbLinetypeTableRecord
  2
BORDER
 70
    0
  3
Border __ __ . __ __ . __ __ . __ __ . __ __ .
 72
   65
 73
    6
 40
44.45
 49
12.7
 74
    0
 49
-6.35
 74
    0
 49
12.7
 74
    0
 49
-6.35
 74
    0
 49
0
 74
    0
 49
-6.35
 74
    0
  0
LTYPE
  5
43
330
5
100
AcDbSymbolTableRecord
100
AcDbLinetypeTableRecord
  2
BORDERTINY
 70
    0
  3
Border (.15x) __.__.__.__.__.__.__.__.__.__.__.
 72
   65
 73
    6
 40
6.6675
 49
1.905
 74
    0
 49
-0.9525
 74
    0
 49
1.905
 74
    0
 49
-0.9525
 74
    0
 49
0
 74
    0
 49
-0.9525
 74
    0
  0
LTYPE
  5
44
330
5
100
AcDbSymbolTableRecord
100
AcDbLinetypeTableRecord
  2
BORDER2
 70
    0
  3
Border (.5x) __.__.__.__.__.__.__.__.__.__.__.
 72
   65
 73
    6
 40
22.225
 49
6.35
 74
    0
 49
-3.175
 74
    0
 49
6.35
 74
    0
 49
-3.175
 74
    0
 49
0
 74
    0
 49
-3.175
 74
    0
  0
LTYPE
  5
45
330
5
100
AcDbSymbolTableRecord
100
AcDbLinetypeTableRecord
  2
BORDERX2
 70
    0
  3
Border (2x) ____  ____  .  ____  ____  .  ___
 72
   65
 73
    6
 40
88.89999999999999
 49
25.4
 74
    0
 49
-12.7
 74
    0
 49
25.4
 74
    0
 49
-12.7
 74
    0
 49
0
 74
    0
 49
-12.7
 74
    0
  0
LTYPE
  5
46
330
5
100
AcDbSymbolTableRecord
100
AcDbLinetypeTableRecord
  2
CENTER
 70
    0
  3
Center ____ _ ____ _ ____ _ ____ _ ____ _ ____
 72
   65
 73
    4
 40
50.8
 49
31.75
 74
    0
 49
-6.35
 74
    0
 49
6.35
 74
    0
 49
-6.35
 74
    0
  0
LTYPE
  5
47
330
5
100
AcDbSymbolTableRecord
100
AcDbLinetypeTableRecord
  2
CENTERTINY
 70
    0
  3
Center (.15x) ___ _ ___ _ ___ _ ___ _ ___ _ ___
 72
   65
 73
    4
 40
7.619999999999999
 49
4.7625
 74
    0
 49
-0.9525
 74
    0
 49
0.9525
 74
    0
 49
-0.9525
 74
    0
  0
LTYPE
  5
48
330
5
100
AcDbSymbolTableRecord
100
AcDbLinetypeTableRecord
  2
CENTER2
 70
    0
  3
Center (.5x) ___ _ ___ _ ___ _ ___ _ ___ _ ___
 72
   65
 73
    4
 40
28.575
 49
19.05
 74
    0
 49
-3.175
 74
    0
 49
3.175
 74
    0
 49
-3.175
 74
    0
  0
LTYPE
  5
49
330
5
100
AcDbSymbolTableRecord
100
AcDbLinetypeTableRecord
  2
CENTERX2
 70
    0
  3
Center (2x) ________  __  ________  __  _____
 72
   65
 73
    4
 40
101.6
 49
63.5
 74
    0
 49
-12.7
 74
    0
 49
12.7
 74
    0
 49
-12.7
 74
    0
  0
ENDTAB
  0
TABLE
  2
LAYER
  5
2
330
0
100
AcDbSymbolTable
 70
    1
  0
LAYER
  5
10
330
2
100
AcDbSymbolTableRecord
100
AcDbLayerTableRecord
  2
0
 70
    0
 62
    7
  6
CONTINUOUS
370
    0
390
F
  0
LAYER
  5
4A
330
2
100
AcDbSymbolTableRecord
100
AcDbLayerTableRecord
  2
12mm recess
 70
    0
 62
    4
  6
CONTINUOUS
370
    0
390
F
  0
LAYER
  5
4B
330
2
100
AcDbSymbolTableRecord
100
AcDbLayerTableRecord
  2
Profiles
 70
    0
 62
    7
  6
CONTINUOUS
370
    0
390
F
  0
ENDTAB
  0
TABLE
  2
STYLE
  5
3
330
0
100
AcDbSymbolTable
 70
    3
  0
STYLE
  5
4C
330
2
100
AcDbSymbolTableRecord
100
AcDbTextStyleTableRecord
  2
Standard
 70
    0
 40
0
 41
1
 50
0
 71
    0
 42
1
  3
txt
  4

  0
ENDTAB
  0
TABLE
  2
VIEW
  5
6
330
0
100
AcDbSymbolTable
 70
    0
  0
ENDTAB
  0
TABLE
  2
UCS
  5
7
330
0
100
AcDbSymbolTable
 70
    0
  0
ENDTAB
  0
TABLE
  2
APPID
  5
9
330
0
100
AcDbSymbolTable
 70
    1
  0
APPID
  5
12
330
9
100
AcDbSymbolTableRecord
100
AcDbRegAppTableRecord
  2
ACAD
 70
    0
  0
APPID
  5
4D
330
9
100
AcDbSymbolTableRecord
100
AcDbRegAppTableRecord
  2
LibreCad
 70
    0
  0
ENDTAB
  0
TABLE
  2
DIMSTYLE
  5
A
330
0
100
AcDbSymbolTable
 70
    1
100
AcDbDimStyleTable
 71
    1
  0
DIMSTYLE
105
4E
330
A
100
AcDbSymbolTableRecord
100
AcDbDimStyleTableRecord
  2
Standard
 70
    0
 40
2.5
 41
2.5
 42
0.625
 43
0.38
 44
1.25
 45
0
 46
0
 47
0
 48
0
 49
1
140
2.5
141
0.09
142
0
143
25.4
144
1
145
0
146
1
147
0.625
148
0
 71
    0
 72
    0
 73
    0
 74
    1
 75
    0
 76
    0
 77
    0
 78
    8
 79
    0
170
    0
171
    2
172
    0
173
    0
174
    0
175
    0
176
    0
177
    0
178
    0
179
    0
271
    2
272
    4
273
    2
274
    2
275
    0
276
    0
277
    2
278
   44
279
    0
280
    0
281
    0
282
    0
283
    1
284
    0
285
    0
286
    0
288
    0
289
    3
340
STANDARD
341

371
   -2
372
   -2
  0
ENDTAB
  0
TABLE
  2
BLOCK_RECORD
  5
1
330
0
100
AcDbSymbolTable
 70
    2
  0
BLOCK_RECORD
  5
1F
330
1
100
AcDbSymbolTableRecord
100
AcDbBlockTableRecord
  2
*Model_Space
 70
    0
280
    1
281
    0
  0
BLOCK_RECORD
  5
1E
330
1
100
AcDbSymbolTableRecord
100
AcDbBlockTableRecord
  2
*Paper_Space
 70
    0
280
    1
281
    0
  0
ENDTAB
  0
ENDSEC
  0
SECTION
  2
BLOCKS
  0
BLOCK
  5
20
330
1F
100
AcDbEntity
  8
0
100
AcDbBlockBegin
  2
*Model_Space
 70
    0
 10
0
 20
0
 30
0
  3
*Model_Space
  1

  0
ENDBLK
  5
21
330
1F
100
AcDbEntity
  8
0
100
AcDbBlockEnd
  0
BLOCK
  5
1C
330
1B
100
AcDbEntity
  8
0
100
AcDbBlockBegin
  2
*Paper_Space
 70
    0
 10
0
 20
0
 30
0
  3
*Paper_Space
  1

  0
ENDBLK
  5
1D
330
1F
100
AcDbEntity
  8
0
100
AcDbBlockEnd
  0
ENDSEC
  0
SECTION
  2
ENTITIES
  0
LWPOLYLINE
  5
4F
100
AcDbEntity
  8
12mm recess
  6
ByLayer
 62
  256
370
   -1
100
AcDbPolyline
 90
    8
 70
    1
 43
0
 10
48.83899173707936
 20
38.07215901086042
 10
39.83899173707936
 20
38.07215901086042
 42
0.414213562373094
 10
36.83899173707937
 20
35.0721590108604
 10
36.83899173707938
 20
26.07215901086042
 42
0.4142135623730916
 10
39.83899173707935
 20
23.0721590108604
 10
48.83899173707935
 20
23.0721590108604
 42
0.4142135623730945
 10
51.83899173707935
 20
26.0721590108604
 10
51.83899173707935
 20
35.07215901086039
 42
0.4142135623730955
  0
LWPOLYLINE
  5
50
100
AcDbEntity
  8
12mm recess
  6
ByLayer
 62
  256
370
   -1
100
AcDbPolyline
 90
    8
 70
    1
 43
0
 10
132.1144046709121
 20
38.07215901086042
 10
123.1144046709121
 20
38.07215901086042
 42
0.414213562373094
 10
120.1144046709121
 20
35.0721590108604
 10
120.1144046709121
 20
26.07215901086042
 42
0.4142135623730916
 10
123.1144046709121
 20
23.0721590108604
 10
132.1144046709121
 20
23.0721590108604
 42
0.4142135623730945
 10
135.1144046709121
 20
26.0721590108604
 10
135.1144046709121
 20
35.07215901086039
 42
0.4142135623730955
  0
LWPOLYLINE
  5
51
100
AcDbEntity
  8
12mm recess
  6
ByLayer
 62
  256
370
   -1
100
AcDbPolyline
 90
    8
 70
    1
 43
0
 10
215.3898176047449
 20
38.07215901086042
 10
206.3898176047449
 20
38.07215901086042
 42
0.414213562373094
 10
203.3898176047449
 20
35.0721590108604
 10
203.3898176047449
 20
26.07215901086042
 42
0.4142135623730916
 10
206.3898176047448
 20
23.0721590108604
 10
215.3898176047448
 20
23.0721590108604
 42
0.4142135623730945
 10
218.3898176047448
 20
26.0721590108604
 10
218.3898176047448
 20
35.07215901086039
 42
0.4142135623730955
  0
LWPOLYLINE
  5
52
100
AcDbEntity
  8
12mm recess
  6
ByLayer
 62
  256
370
   -1
100
AcDbPolyline
 90
    8
 70
    1
 43
0
 10
164.9994726979755
 20
69.44421576855972
 10
173.9994726979755
 20
69.44421576855972
 42
0.414213562373094
 10
176.9994726979755
 20
72.44421576855972
 10
176.9994726979754
 20
81.44421576855972
 42
0.4142135623730916
 10
173.9994726979755
 20
84.44421576855972
 10
164.9994726979755
 20
84.44421576855972
 42
0.4142135623730945
 10
161.9994726979755
 20
81.44421576855973
 10
161.9994726979755
 20
72.44421576855974
 42
0.4142135623730955
  0
LWPOLYLINE
  5
53
100
AcDbEntity
  8
12mm recess
  6
ByLayer
 62
  256
370
   -1
100
AcDbPolyline
 90
    8
 70
    1
 43
0
 10
81.72405976414271
 20
69.44421576855972
 10
90.72405976414271
 20
69.44421576855972
 42
0.414213562373094
 10
93.72405976414271
 20
72.44421576855973
 10
93.72405976414271
 20
81.44421576855972
 42
0.4142135623730916
 10
90.72405976414277
 20
84.44421576855973
 10
81.72405976414277
 20
84.44421576855972
 42
0.4142135623730945
 10
78.72405976414277
 20
81.44421576855974
 10
78.72405976414277
 20
72.44421576855976
 42
0.4142135623730955
  0
ARC
  5
54
100
AcDbEntity
  8
Profiles
  6
ByLayer
 62
  256
370
   -1
100
AcDbCircle
 10
34.93834740646328
 20
172.3051729448682
 40
19.5
100
AcDbArc
 50
292.6198649480405
 51
247.3801350519596
  0
LINE
  5
55
100
AcDbEntity
  8
Profiles
  6
ByLayer
 62
  256
370
   -1
100
AcDbLine
 10
27.43834740646329
 20
109.3051729448682
 11
42.43834740646328
 21
109.3051729448682
  0
LINE
  5
56
100
AcDbEntity
  8
Profiles
  6
ByLayer
 62
  256
370
   -1
100
AcDbLine
 10
42.43834740646328
 20
109.3051729448682
 11
42.43834740646328
 21
154.3051729448682
  0
LINE
  5
57
100
AcDbEntity
  8
Profiles
  6
ByLayer
 62
  256
370
   -1
100
AcDbLine
 10
27.43834740646329
 20
154.3051729448682
 11
27.43834740646329
 21
109.3051729448682
  0
ARC
  5
58
100
AcDbEntity
  8
Profiles
  6
ByLayer
 62
  256
370
   -1
100
AcDbCircle
 10
83.78861704119851
 20
172.3051729448682
 40
19.5
100
AcDbArc
 50
292.6198649480405
 51
247.3801350519596
  0
LINE
  5
59
100
AcDbEntity
  8
Profiles
  6
ByLayer
 62
  256
370
   -1
100
AcDbLine
 10
76.28861704119851
 20
109.3051729448682
 11
91.28861704119851
 21
109.3051729448682
  0
LINE
  5
5A
100
AcDbEntity
  8
Profiles
  6
ByLayer
 62
  256
370
   -1
100
AcDbLine
 10
91.28861704119851
 20
109.3051729448682
 11
91.28861704119851
 21
154.3051729448682
  0
LINE
  5
5B
100
AcDbEntity
  8
Profiles
  6
ByLayer
 62
  256
370
   -1
100
AcDbLine
 10
76.28861704119851
 20
154.3051729448682
 11
76.28861704119851
 21
109.3051729448682
  0
CIRCLE
  5
5C
100
AcDbEntity
  8
Profiles
  6
ByLayer
 62
  256
370
   -1
100
AcDbCircle
 10
83.78861704119851
 20
172.3051729448682
 40
7.5
  0
LINE
  5
5D
100
AcDbEntity
  8
Profiles
  6
ByLayer
 62
  256
370
   -1
100
AcDbLine
 10
125.6050232911985
 20
109.3051729448682
 11
140.6050232911985
 21
109.3051729448682
  0
LINE
  5
5E
100
AcDbEntity
  8
Profiles
  6
ByLayer
 62
  256
370
   -1
100
AcDbLine
 10
140.6050232911985
 20
109.3051729448682
 11
140.6050232911985
 21
154.3051729448682
  0
LINE
  5
5F
100
AcDbEntity
  8
Profiles
  6
ByLayer
 62
  256
370
   -1
100
AcDbLine
 10
125.6050232911985
 20
154.3051729448682
 11
125.6050232911985
 21
109.3051729448682
  0
LINE
  5
60
100
AcDbEntity
  8
Profiles
  6
ByLayer
 62
  256
370
   -1
100
AcDbLine
 10
150.6050232911985
 20
154.3051729448682
 11
150.6050232911985
 21
189.3051729448682
  0
LINE
  5
61
100
AcDbEntity
  8
Profiles
  6
ByLayer
 62
  256
370
   -1
100
AcDbLine
 10
150.6050232911985
 20
189.3051729448682
 11
115.6050232911985
 21
189.3051729448682
  0
LINE
  5
62
100
AcDbEntity
  8
Profiles
  6
ByLayer
 62
  256
370
   -1
100
AcDbLine
 10
115.6050232911985
 20
189.3051729448682
 11
115.6050232911985
 21
154.3051729448682
  0
LINE
  5
63
100
AcDbEntity
  8
Profiles
  6
ByLayer
 62
  256
370
   -1
100
AcDbLine
 10
140.6050232911985
 20
154.3051729448682
 11
150.6050232911985
 21
154.3051729448682
  0
LINE
  5
64
100
AcDbEntity
  8
Profiles
  6
ByLayer
 62
  256
370
   -1
100
AcDbLine
 10
115.6050232911985
 20
154.3051729448682
 11
125.6050232911985
 21
154.3051729448682
  0
LINE
  5
65
100
AcDbEntity
  8
Profiles
  6
ByLayer
 62
  256
370
   -1
100
AcDbLine
 10
186.1518982911985
 20
109.3051729448682
 11
201.1518982911985
 21
109.3051729448682
  0
LINE
  5
66
100
AcDbEntity
  8
Profiles
  6
ByLayer
 62
  256
370
   -1
100
AcDbLine
 10
201.1518982911985
 20
109.3051729448682
 11
201.1518982911985
 21
154.3051729448682
  0
LINE
  5
67
100
AcDbEntity
  8
Profiles
  6
ByLayer
 62
  256
370
   -1
100
AcDbLine
 10
186.1518982911985
 20
154.3051729448682
 11
186.1518982911985
 21
109.3051729448682
  0
LINE
  5
68
100
AcDbEntity
  8
Profiles
  6
ByLayer
 62
  256
370
   -1
100
AcDbLine
 10
168.2589769224409
 20
154.3051729448682
 11
193.6518982911985
 21
189.3051729448682
  0
LINE
  5
69
100
AcDbEntity
  8
Profiles
  6
ByLayer
 62
  256
370
   -1
100
AcDbLine
 10
186.1518982911985
 20
154.3051729448682
 11
168.2589769224409
 21
154.3051729448682
  0
LINE
  5
6A
100
AcDbEntity
  8
Profiles
  6
ByLayer
 62
  256
370
   -1
100
AcDbLine
 10
219.0448196599562
 20
154.3051729448682
 11
193.6518982911986
 21
189.3051729448682
  0
LINE
  5
6B
100
AcDbEntity
  8
Profiles
  6
ByLayer
 62
  256
370
   -1
100
AcDbLine
 10
201.1518982911986
 20
154.3051729448682
 11
219.0448196599562
 21
154.3051729448682
  0
LINE
  5
6C
100
AcDbEntity
  8
Profiles
  6
ByLayer
 62
  256
370
   -1
100
AcDbLine
 10
246.2104920411985
 20
109.3051729448682
 11
261.2104920411985
 21
109.3051729448682
  0
ELLIPSE
  5
6D
100
AcDbEntity
  8
Profiles
  6
ByLayer
 62
  256
370
   -1
100
AcDbEllipse
 10
253.7503328617379
 20
164.663711712206
 30
0
 11
20.33781330944976
 21
0.1680811017309907
 31
0
 40
0.5073077448435996
 41
2.246304116836786
 42
4.328404804901361
  0
LINE
  5
6E
100
AcDbEntity
  8
Profiles
  6
ByLayer
 62
  256
370
   -1
100
AcDbLine
 10
246.2104920411985
 20
155.0345435446494
 11
246.2104920411985
 21
109.3051729448682
  0
ELLIPSE
  5
6F
100
AcDbEntity
  8
Profiles
  6
ByLayer
 62
  256
370
   -1
100
AcDbEllipse
 10
253.6706512206593
 20
164.663711712206
 30
0
 11
-20.33781330944976
 21
0.1680811017309907
 31
0
 40
0.5073077448435996
 41
1.954780502278224
 42
4.0368811903428
  0
ELLIPSE
  5
70
100
AcDbEntity
  8
Profiles
  6
ByLayer
 62
  256
370
   -1
100
AcDbEllipse
 10
253.6706512206593
 20
180.5568967884375
 30
0
 11
-20.33781330944976
 21
-0.1680811017309907
 31
0
 40
0.5073077448435996
 41
2.246304116836787
 42
4.706237441883898
  0
ELLIPSE
  5
71
100
AcDbEntity
  8
Profiles
  6
ByLayer
 62
  256
370
   -1
100
AcDbEllipse
 10
253.7503328617379
 20
180.5568967884375
 30
0
 11
20.33781330944976
 21
-0.1680811017309907
 31
0
 40
0.5073077448435996
 41
1.576947865228822
 42
4.0368811903428
  0
LINE
  5
72
100
AcDbEntity
  8
Profiles
  6
ByLayer
 62
  256
370
   -1
100
AcDbLine
 10
261.2104920411985
 20
109.3051729448682
 11
261.2104920412038
 21
155.0345435446427
  0
LINE
  5
73
100
AcDbEntity
  8
Profiles
  6
ByLayer
 62
  256
370
   -1
100
AcDbLine
 10
76.14283931437268
 20
8.383887888034295
 11
12.53514415978593
 21
8.383887888034309
  0
LINE
  5
74
100
AcDbEntity
  8
Profiles
  6
ByLayer
 62
  256
370
   -1
100
AcDbLine
 10
47.37008065032489
 20
68.71976776808265
 11
79.17392822761822
 21
13.63388788803431
  0
LINE
  5
75
100
AcDbEntity
  8
Profiles
  6
ByLayer
 62
  256
370
   -1
100
AcDbLine
 10
9.504055246540398
 20
13.63388788803431
 11
41.30790282383386
 21
68.71976776808268
  0
ARC
  5
76
100
AcDbEntity
  8
Profiles
  6
ByLayer
 62
  256
370
   -1
100
AcDbCircle
 10
12.53514415978594
 20
11.88388788803429
 40
3.5
100
AcDbArc
 50
149.9999999999999
 51
270
  0
ARC
  5
77
100
AcDbEntity
  8
Profiles
  6
ByLayer
 62
  256
370
   -1
100
AcDbCircle
 10
76.14283931437268
 20
11.88388788803431
 40
3.5
100
AcDbArc
 50
270
 51
30.00000000000007
  0
ARC
  5
78
100
AcDbEntity
  8
Profiles
  6
ByLayer
 62
  256
370
   -1
100
AcDbCircle
 10
44.3389917370794
 20
66.96976776808265
 40
3.5
100
AcDbArc
 50
29.99999999999996
 51
149.9999999999997
  0
LINE
  5
79
100
AcDbEntity
  8
Profiles
  6
ByLayer
 62
  256
370
   -1
100
AcDbLine
 10
159.4182522482054
 20
8.383887888034295
 11
95.81055709361868
 21
8.383887888034309
  0
LINE
  5
7A
100
AcDbEntity
  8
Profiles
  6
ByLayer
 62
  256
370
   -1
100
AcDbLine
 10
130.6454935841577
 20
68.71976776808265
 11
162.449341161451
 21
13.63388788803431
  0
LINE
  5
7B
100
AcDbEntity
  8
Profiles
  6
ByLayer
 62
  256
370
   -1
100
AcDbLine
 10
92.77946818037314
 20
13.63388788803431
 11
124.5833157576666
 21
68.71976776808268
  0
ARC
  5
7C
100
AcDbEntity
  8
Profiles
  6
ByLayer
 62
  256
370
   -1
100
AcDbCircle
 10
95.81055709361868
 20
11.88388788803429
 40
3.5
100
AcDbArc
 50
149.9999999999999
 51
270
  0
ARC
  5
7D
100
AcDbEntity
  8
Profiles
  6
ByLayer
 62
  256
370
   -1
100
AcDbCircle
 10
159.4182522482054
 20
11.88388788803431
 40
3.5
100
AcDbArc
 50
270
 51
30.00000000000007
  0
ARC
  5
7E
100
AcDbEntity
  8
Profiles
  6
ByLayer
 62
  256
370
   -1
100
AcDbCircle
 10
127.6144046709122
 20
66.96976776808265
 40
3.5
100
AcDbArc
 50
29.99999999999996
 51
149.9999999999997
  0
LINE
  5
7F
100
AcDbEntity
  8
Profiles
  6
ByLayer
 62
  256
370
   -1
100
AcDbLine
 10
242.6936651820382
 20
8.383887888034295
 11
179.0859700274514
 21
8.383887888034309
  0
LINE
  5
80
100
AcDbEntity
  8
Profiles
  6
ByLayer
 62
  256
370
   -1
100
AcDbLine
 10
213.9209065179904
 20
68.71976776808265
 11
245.7247540952837
 21
13.63388788803431
  0
LINE
  5
81
100
AcDbEntity
  8
Profiles
  6
ByLayer
 62
  256
370
   -1
100
AcDbLine
 10
176.0548811142059
 20
13.63388788803431
 11
207.8587286914994
 21
68.71976776808268
  0
ARC
  5
82
100
AcDbEntity
  8
Profiles
  6
ByLayer
 62
  256
370
   -1
100
AcDbCircle
 10
179.0859700274515
 20
11.88388788803429
 40
3.5
100
AcDbArc
 50
149.9999999999999
 51
270
  0
ARC
  5
83
100
AcDbEntity
  8
Profiles
  6
ByLayer
 62
  256
370
   -1
100
AcDbCircle
 10
242.6936651820382
 20
11.88388788803431
 40
3.5
100
AcDbArc
 50
270
 51
30.00000000000007
  0
ARC
  5
84
100
AcDbEntity
  8
Profiles
  6
ByLayer
 62
  256
370
   -1
100
AcDbCircle
 10
210.8898176047449
 20
66.96976776808265
 40
3.5
100
AcDbArc
 50
29.99999999999996
 51
149.9999999999997
  0
LINE
  5
85
100
AcDbEntity
  8
Profiles
  6
ByLayer
 62
  256
370
   -1
100
AcDbLine
 10
137.6956251206822
 20
99.13248689138584
 11
201.3033202752689
 21
99.13248689138581
  0
LINE
  5
86
100
AcDbEntity
  8
Profiles
  6
ByLayer
 62
  256
370
   -1
100
AcDbLine
 10
166.46838378473
 20
38.79660701133749
 11
134.6645362074367
 21
93.88248689138582
  0
LINE
  5
87
100
AcDbEntity
  8
Profiles
  6
ByLayer
 62
  256
370
   -1
100
AcDbLine
 10
204.3344091885145
 20
93.88248689138581
 11
172.530561611221
 21
38.79660701133746
  0
ARC
  5
88
100
AcDbEntity
  8
Profiles
  6
ByLayer
 62
  256
370
   -1
100
AcDbCircle
 10
201.3033202752689
 20
95.63248689138582
 40
3.5
100
AcDbArc
 50
329.9999999999999
 51
90
  0
ARC
  5
89
100
AcDbEntity
  8
Profiles
  6
ByLayer
 62
  256
370
   -1
100
AcDbCircle
 10
137.6956251206822
 20
95.63248689138582
 40
3.5
100
AcDbArc
 50
90
 51
210.0000000000001
  0
ARC
  5
8A
100
AcDbEntity
  8
Profiles
  6
ByLayer
 62
  256
370
   -1
100
AcDbCircle
 10
169.4994726979754
 20
40.54660701133749
 40
3.5
100
AcDbArc
 50
210
 51
329.9999999999997
  0
LINE
  5
8B
100
AcDbEntity
  8
Profiles
  6
ByLayer
 62
  256
370
   -1
100
AcDbLine
 10
54.42021218684945
 20
99.13248689138585
 11
118.0279073414362
 21
99.13248689138582
  0
LINE
  5
8C
100
AcDbEntity
  8
Profiles
  6
ByLayer
 62
  256
370
   -1
100
AcDbLine
 10
83.19297085089718
 20
38.79660701133749
 11
51.38912327360387
 21
93.88248689138584
  0
LINE
  5
8D
100
AcDbEntity
  8
Profiles
  6
ByLayer
 62
  256
370
   -1
100
AcDbLine
 10
121.0589962546817
 20
93.88248689138582
 11
89.25514867738823
 21
38.79660701133749
  0
ARC
  5
8E
100
AcDbEntity
  8
Profiles
  6
ByLayer
 62
  256
370
   -1
100
AcDbCircle
 10
118.0279073414362
 20
95.63248689138584
 40
3.5
100
AcDbArc
 50
329.9999999999999
 51
90
  0
ARC
  5
8F
100
AcDbEntity
  8
Profiles
  6
ByLayer
 62
  256
370
   -1
100
AcDbCircle
 10
54.42021218684945
 20
95.63248689138584
 40
3.5
100
AcDbArc
 50
90
 51
210.0000000000001
  0
ARC
  5
90
100
AcDbEntity
  8
Profiles
  6
ByLayer
 62
  256
370
   -1
100
AcDbCircle
 10
86.22405976414271
 20
40.54660701133749
 40
3.5
100
AcDbArc
 50
210
 51
329.9999999999997
  0
MTEXT
  5
91
100
AcDbEntity
  8
Profiles
  6
ByLayer
 62
  256
370
   -1
100
AcDbMText
 10
22.66356174781524
 20
-17.39296599250937
 30
0
 40
10
 41
208.8888888888919
 71
    1
 72
    1
  1
Process:\P-Cut from 15mm birch plywwod\P
  7

210
0
220
0
230
1
 50
0
 73
    2
 44
1
  0
ENDSEC
  0
SECTION
  2
OBJECTS
  0
DICTIONARY
  5
C
330
0
100
AcDbDictionary
281
    1
  3
ACAD_GROUP
350
D
  0
DICTIONARY
  5
D
330
C
100
AcDbDictionary
281
    1
  0
ENDSEC
  0
EOF
