<?xml version="1.0" encoding="UTF-8" standalone="no"?>
<!-- Created with Inkscape (http://www.inkscape.org/) -->

<svg
   xmlns:dc="http://purl.org/dc/elements/1.1/"
   xmlns:cc="http://creativecommons.org/ns#"
   xmlns:rdf="http://www.w3.org/1999/02/22-rdf-syntax-ns#"
   xmlns:svg="http://www.w3.org/2000/svg"
   xmlns="http://www.w3.org/2000/svg"
   xmlns:sodipodi="http://sodipodi.sourceforge.net/DTD/sodipodi-0.dtd"
   xmlns:inkscape="http://www.inkscape.org/namespaces/inkscape"
   width="744.09448819"
   height="1052.3622047"
   id="svg2"
   version="1.1"
   inkscape:version="0.48.4 r9939"
   sodipodi:docname="New document 1">
  <defs
     id="defs4" />
  <sodipodi:namedview
     id="base"
     pagecolor="#ffffff"
     bordercolor="#666666"
     borderopacity="1.0"
     inkscape:pageopacity="0.0"
     inkscape:pageshadow="2"
     inkscape:zoom="2.0635096"
     inkscape:cx="307.54935"
     inkscape:cy="541.19183"
     inkscape:document-units="px"
     inkscape:current-layer="layer1"
     showgrid="true"
     inkscape:window-width="729"
     inkscape:window-height="363"
     inkscape:window-x="112"
     inkscape:window-y="251"
     inkscape:window-maximized="0">
    <inkscape:grid
       type="xygrid"
       id="grid2985" />
  </sodipodi:namedview>
  <metadata
     id="metadata7">
    <rdf:RDF>
      <cc:Work
         rdf:about="">
        <dc:format>image/svg+xml</dc:format>
        <dc:type
           rdf:resource="http://purl.org/dc/dcmitype/StillImage" />
        <dc:title></dc:title>
      </cc:Work>
    </rdf:RDF>
  </metadata>
  <g
     inkscape:label="Layer 1"
     inkscape:groupmode="layer"
     id="layer1">
    <rect
       style="fill:none;stroke:none;stroke-opacity:1"
       id="rect2987"
       width="255"
       height="255"
       x="220"
       y="382.36218"
       inkscape:export-filename="/home/dave/code/viruscraft/web/client/htdocs/textures/host-circle4.png"
       inkscape:export-xdpi="90.352943"
       inkscape:export-ydpi="90.352943" />
    <path
       sodipodi:type="arc"
       style="fill:#ffffff;fill-opacity:1;stroke:#000000;stroke-width:5;stroke-linejoin:round;stroke-miterlimit:4;stroke-opacity:1;stroke-dasharray:none"
       id="path3904"
       sodipodi:cx="337.5"
       sodipodi:cy="524.86218"
       sodipodi:rx="57.192226"
       sodipodi:ry="56.200054"
       d="m 394.69223,524.86218 a 57.192226,56.200054 0 1 1 -3e-5,-0.0505"
       transform="translate(-195.29834,-44.584237)"
       sodipodi:start="0"
       sodipodi:end="6.282286"
       sodipodi:open="true"
       inkscape:export-xdpi="90.352943"
       inkscape:export-ydpi="90.352943" />
    <rect
       style="fill:#ffffff;fill-opacity:1;stroke:#000000;stroke-width:5;stroke-linejoin:round;stroke-miterlimit:4;stroke-opacity:1;stroke-dasharray:none"
       id="rect3906"
       width="10"
       height="10"
       x="208.06155"
       y="370.42374" />
    <rect
       style="fill:none;stroke:#000000;stroke-opacity:1;stroke-width:0.3;stroke-miterlimit:4;stroke-dasharray:none"
       id="rect3908"
       width="260"
       height="260"
       x="220"
       y="382.36218"
       inkscape:export-filename="/home/dave/code/viruscraft/web/client/htdocs/textures/host-guitar4.png"
       inkscape:export-xdpi="88.51963"
       inkscape:export-ydpi="88.51963" />
    <rect
       style="fill:#ffffff;fill-opacity:1;stroke:#000000;stroke-width:5;stroke-linejoin:round;stroke-miterlimit:4;stroke-opacity:1;stroke-dasharray:none"
       id="rect3910"
       width="105"
       height="100"
       x="59.963543"
       y="557.01526" />
    <path
       style="fill:#ffffff;fill-opacity:1;stroke:#000000;stroke-width:5;stroke-linejoin:round;stroke-miterlimit:4;stroke-opacity:1;stroke-dasharray:none"
       d="m 136.77199,481.8229 c -31.58639,0 -57.187503,25.14907 -57.187503,56.1875 0,31.03843 25.601113,56.21875 57.187503,56.21875 31.58639,0 57.1875,-25.18032 57.1875,-56.21875 l 0,-0.0312 C 193.9311,506.96047 168.3383,481.8229 136.77199,481.8229 z m -0.0625,33.3125 c 12.41851,0 22.48883,10.05025 22.5,22.46875 l 0,0.0312 c 0,12.42641 -10.07359,22.5 -22.5,22.5 -12.42641,0 -22.5,-10.07359 -22.5,-22.5 0,-12.42641 10.07359,-22.5 22.5,-22.5 z"
       id="path3904-3"
       inkscape:connector-curvature="0" />
    <path
       style="fill:#ffffff;fill-opacity:1;stroke:#000000;stroke-width:5;stroke-linecap:butt;stroke-linejoin:miter;stroke-miterlimit:4;stroke-opacity:1;stroke-dasharray:none"
       d="m 60.448144,469.30062 104.999996,0 0,35 -35,0 0,65 -34.999996,0 0,-65 -35,0 z"
       id="path3912"
       inkscape:connector-curvature="0"
       sodipodi:nodetypes="ccccccccc" />
    <path
       style="fill:#ffffff;fill-opacity:1;stroke:#000000;stroke-width:5;stroke-linecap:butt;stroke-linejoin:miter;stroke-miterlimit:4;stroke-opacity:1;stroke-dasharray:none"
       d="m 113.84042,365.92454 -64.999999,105 134.999999,0 z"
       id="path3955"
       inkscape:connector-curvature="0" />
    <path
       sodipodi:type="arc"
       style="fill:#ffffff;fill-opacity:1;stroke:#000000;stroke-width:5;stroke-linejoin:round;stroke-miterlimit:4;stroke-opacity:1;stroke-dasharray:none"
       id="path3904-7"
       sodipodi:cx="337.5"
       sodipodi:cy="524.86218"
       sodipodi:rx="57.192226"
       sodipodi:ry="56.200054"
       d="m 394.69223,524.86218 a 57.192226,56.200054 0 1 1 -3e-5,-0.0505"
       transform="translate(-253.36665,-5.1309369)"
       sodipodi:start="0"
       sodipodi:end="6.282286"
       sodipodi:open="true"
       inkscape:export-xdpi="90.352943"
       inkscape:export-ydpi="90.352943" />
    <path
       style="fill:#ffffff;fill-opacity:1;stroke:#000000;stroke-width:5;stroke-linecap:butt;stroke-linejoin:miter;stroke-miterlimit:4;stroke-opacity:1;stroke-dasharray:none"
       d="m 93.509701,679.1535 0,-100 69.999999,0 0,35 -35,0 0,65 z"
       id="path3957"
       inkscape:connector-curvature="0" />
    <path
       style="fill:#ffffff;fill-opacity:1;stroke:#000000;stroke-width:5;stroke-linejoin:round;stroke-miterlimit:4;stroke-opacity:1;stroke-dasharray:none"
       d="M 346.46875 455.78125 C 317.51182 455.78125 294.03125 469.86138 294.03125 487.25 C 294.03125 496.76289 301.08205 505.28934 312.1875 511.0625 C 300.80945 516.83793 293.5625 525.44676 293.5625 535.09375 C 293.5625 552.48237 317.04307 566.59375 346 566.59375 C 374.95693 566.59375 398.4375 552.48237 398.4375 535.09375 C 398.42328 525.59574 391.39792 517.07949 380.3125 511.3125 C 391.6763 505.53711 398.90625 496.89001 398.90625 487.25 L 398.90625 487.21875 C 398.88023 469.8412 375.40727 455.78125 346.46875 455.78125 z "
       id="path3904-7-3" />
  </g>
</svg>
