M48
INCH,TZ
T1C0.028
T2C0.031
T3C0.039
%
G90
G05
T1
X6.41Y-4.02
X6.41Y-4.32
T2
X6.17Y-4.59
X6.17Y-4.8853
X6.43Y-4.61
X6.43Y-4.9053
X6.63Y-4.04
X6.63Y-4.14
X6.63Y-4.24
X6.63Y-4.34
X6.63Y-4.44
X6.63Y-4.54
X6.63Y-4.64
X6.63Y-4.74
X6.63Y-4.84
X6.63Y-4.94
X6.63Y-5.04
X6.63Y-5.14
X6.63Y-5.24
X6.63Y-5.34
X6.93Y-4.04
X6.93Y-4.14
X6.93Y-4.24
X6.93Y-4.34
X6.93Y-4.44
X6.93Y-4.54
X6.93Y-4.64
X6.93Y-4.74
X6.93Y-4.84
X6.93Y-4.94
X6.93Y-5.04
X6.93Y-5.14
X6.93Y-5.24
X6.93Y-5.34
X7.25Y-4.67
X7.25Y-4.9653
X7.49Y-4.8104
X7.49Y-4.96
T3
X6.18Y-4.04
X6.18Y-4.14
X6.18Y-4.24
X6.18Y-4.34
X7.14Y-4.02
X7.14Y-4.12
X7.14Y-4.22
X7.14Y-4.32
X7.14Y-4.42
X7.16Y-5.18
X7.16Y-5.28
X7.26Y-5.18
X7.26Y-5.28
X7.34Y-4.02
X7.34Y-4.12
X7.34Y-4.22
X7.34Y-4.32
X7.34Y-4.42
X7.36Y-5.18
X7.36Y-5.28
T0
M30
