G04 #@! TF.FileFunction,Copper,L2,Bot,Signal*
%FSLAX46Y46*%
G04 Gerber Fmt 4.6, Leading zero omitted, Abs format (unit mm)*
G04 Created by KiCad (PCBNEW 4.0.7-e2-6376~58~ubuntu14.04.1) date Tue Mar 27 12:53:26 2018*
%MOMM*%
%LPD*%
G01*
G04 APERTURE LIST*
%ADD10C,0.100000*%
%ADD11C,1.600000*%
%ADD12O,1.600000X1.600000*%
%ADD13R,1.700000X1.700000*%
%ADD14O,1.700000X1.700000*%
%ADD15C,1.400000*%
%ADD16O,1.400000X1.400000*%
%ADD17R,1.600000X1.600000*%
%ADD18C,1.500000*%
%ADD19C,0.250000*%
%ADD20C,0.254000*%
G04 APERTURE END LIST*
D10*
D11*
X163322000Y-117094000D03*
D12*
X163322000Y-124594000D03*
D11*
X156718000Y-124086000D03*
D12*
X156718000Y-116586000D03*
D11*
X184150000Y-126118000D03*
D12*
X184150000Y-118618000D03*
D13*
X181864000Y-134112000D03*
D14*
X181864000Y-131572000D03*
X184404000Y-134112000D03*
X184404000Y-131572000D03*
X186944000Y-134112000D03*
X186944000Y-131572000D03*
D13*
X156972000Y-102616000D03*
D14*
X156972000Y-105156000D03*
X156972000Y-107696000D03*
X156972000Y-110236000D03*
D13*
X181356000Y-102108000D03*
D14*
X181356000Y-104648000D03*
X181356000Y-107188000D03*
X181356000Y-109728000D03*
X181356000Y-112268000D03*
D13*
X186436000Y-112268000D03*
D14*
X186436000Y-109728000D03*
X186436000Y-107188000D03*
X186436000Y-104648000D03*
X186436000Y-102108000D03*
D15*
X162814000Y-109728000D03*
D16*
X162814000Y-102108000D03*
D17*
X168402000Y-102616000D03*
D12*
X176022000Y-135636000D03*
X168402000Y-105156000D03*
X176022000Y-133096000D03*
X168402000Y-107696000D03*
X176022000Y-130556000D03*
X168402000Y-110236000D03*
X176022000Y-128016000D03*
X168402000Y-112776000D03*
X176022000Y-125476000D03*
X168402000Y-115316000D03*
X176022000Y-122936000D03*
X168402000Y-117856000D03*
X176022000Y-120396000D03*
X168402000Y-120396000D03*
X176022000Y-117856000D03*
X168402000Y-122936000D03*
X176022000Y-115316000D03*
X168402000Y-125476000D03*
X176022000Y-112776000D03*
X168402000Y-128016000D03*
X176022000Y-110236000D03*
X168402000Y-130556000D03*
X176022000Y-107696000D03*
X168402000Y-133096000D03*
X176022000Y-105156000D03*
X168402000Y-135636000D03*
X176022000Y-102616000D03*
D18*
X190246000Y-122184000D03*
X190246000Y-125984000D03*
D19*
X162814000Y-109728000D02*
X166570406Y-113484406D01*
X166570406Y-113484406D02*
X166570406Y-113845594D01*
X166570406Y-113845594D02*
X163322000Y-117094000D01*
X172681207Y-126276793D02*
X175222001Y-123735999D01*
X169504796Y-126276793D02*
X172681207Y-126276793D01*
X175222001Y-123735999D02*
X176022000Y-122936000D01*
X169152070Y-126629519D02*
X169504796Y-126276793D01*
X154073566Y-123106568D02*
X158417008Y-127450010D01*
X154073566Y-115814572D02*
X154073566Y-123106568D01*
X163322000Y-117094000D02*
X159181618Y-112953618D01*
X159181618Y-112953618D02*
X156934520Y-112953618D01*
X156934520Y-112953618D02*
X154073566Y-115814572D01*
X167302988Y-127450010D02*
X168123479Y-126629519D01*
X168123479Y-126629519D02*
X169152070Y-126629519D01*
X158417008Y-127450010D02*
X167302988Y-127450010D01*
X186094001Y-130722001D02*
X186944000Y-131572000D01*
X179744067Y-123735999D02*
X186094001Y-130085933D01*
X186094001Y-130085933D02*
X186094001Y-130722001D01*
X176022000Y-122936000D02*
X176821999Y-123735999D01*
X176821999Y-123735999D02*
X179744067Y-123735999D01*
X163322000Y-117094000D02*
X167640000Y-117094000D01*
X167640000Y-117094000D02*
X168402000Y-117856000D01*
X162814000Y-109728000D02*
X159004000Y-109728000D01*
X159004000Y-109728000D02*
X156972000Y-107696000D01*
X156972000Y-116332000D02*
X156718000Y-116586000D01*
X168402000Y-125476000D02*
X167276999Y-124350999D01*
X167276999Y-124350999D02*
X167276999Y-122395999D01*
X167276999Y-122395999D02*
X167861999Y-121810999D01*
X167861999Y-121810999D02*
X169650913Y-121810999D01*
X169650913Y-121810999D02*
X169937819Y-121524093D01*
X169937819Y-121524093D02*
X174896999Y-121524093D01*
X174896999Y-121524093D02*
X174896999Y-119855999D01*
X174896999Y-119855999D02*
X175481999Y-119270999D01*
X175481999Y-119270999D02*
X176562001Y-119270999D01*
X176562001Y-119270999D02*
X177147001Y-119855999D01*
X177147001Y-119855999D02*
X177147001Y-121759589D01*
X177147001Y-121759589D02*
X177440595Y-122053182D01*
X177440595Y-122053182D02*
X182487176Y-122053182D01*
X182487176Y-122053182D02*
X182617994Y-122184000D01*
X182617994Y-122184000D02*
X189185340Y-122184000D01*
X189185340Y-122184000D02*
X190246000Y-122184000D01*
X156718000Y-124086000D02*
X156718000Y-124237557D01*
X156718000Y-124237557D02*
X159311823Y-126831380D01*
X159311823Y-126831380D02*
X167046620Y-126831380D01*
X167046620Y-126831380D02*
X168402000Y-125476000D01*
X169533370Y-122936000D02*
X168402000Y-122936000D01*
X176562001Y-121810999D02*
X175481999Y-121810999D01*
X175481999Y-121810999D02*
X174356998Y-122936000D01*
X177906453Y-123155451D02*
X176562001Y-121810999D01*
X184150000Y-126118000D02*
X181187451Y-123155451D01*
X181187451Y-123155451D02*
X177906453Y-123155451D01*
X174356998Y-122936000D02*
X169533370Y-122936000D01*
X190246000Y-125984000D02*
X184284000Y-125984000D01*
X184284000Y-125984000D02*
X184150000Y-126118000D01*
X181864000Y-134112000D02*
X181864000Y-133858000D01*
X181864000Y-133858000D02*
X176022000Y-128016000D01*
X181864000Y-131572000D02*
X176022000Y-125730000D01*
X176022000Y-125730000D02*
X176022000Y-125476000D01*
X162814000Y-102108000D02*
X167894000Y-102108000D01*
X167894000Y-102108000D02*
X168402000Y-102616000D01*
X177597012Y-132131012D02*
X176821999Y-131355999D01*
X177597012Y-132890194D02*
X177597012Y-132131012D01*
X176821999Y-131355999D02*
X176022000Y-130556000D01*
X186944000Y-134112000D02*
X184019127Y-137036873D01*
X184019127Y-137036873D02*
X181743689Y-137036873D01*
X181743689Y-137036873D02*
X177597012Y-132890194D01*
X156972000Y-102616000D02*
X158072000Y-102616000D01*
X158072000Y-102616000D02*
X159605001Y-101082999D01*
X159605001Y-101082999D02*
X174488999Y-101082999D01*
X174488999Y-101082999D02*
X175222001Y-101816001D01*
X175222001Y-101816001D02*
X176022000Y-102616000D01*
X175440818Y-105737182D02*
X176022000Y-105156000D01*
X169598818Y-105737182D02*
X175440818Y-105737182D01*
X169054999Y-106281001D02*
X169598818Y-105737182D01*
X158097001Y-106281001D02*
X169054999Y-106281001D01*
X156972000Y-105156000D02*
X158097001Y-106281001D01*
X168402000Y-105156000D02*
X174356998Y-105156000D01*
X174356998Y-105156000D02*
X175771997Y-103741001D01*
X175771997Y-103741001D02*
X178622999Y-103741001D01*
X178622999Y-103741001D02*
X180256000Y-102108000D01*
X180256000Y-102108000D02*
X181356000Y-102108000D01*
X168402000Y-107696000D02*
X169816999Y-106281001D01*
X180506001Y-105497999D02*
X181356000Y-104648000D01*
X169816999Y-106281001D02*
X179722999Y-106281001D01*
X179722999Y-106281001D02*
X180506001Y-105497999D01*
X168402000Y-110236000D02*
X171816998Y-110236000D01*
X171816998Y-110236000D02*
X173231997Y-108821001D01*
X173231997Y-108821001D02*
X179722999Y-108821001D01*
X179722999Y-108821001D02*
X180506001Y-108037999D01*
X180506001Y-108037999D02*
X181356000Y-107188000D01*
X168402000Y-112776000D02*
X169816999Y-111361001D01*
X169816999Y-111361001D02*
X179722999Y-111361001D01*
X179722999Y-111361001D02*
X180506001Y-110577999D01*
X180506001Y-110577999D02*
X181356000Y-109728000D01*
X181356000Y-112268000D02*
X179722999Y-113901001D01*
X179722999Y-113901001D02*
X169816999Y-113901001D01*
X169816999Y-113901001D02*
X169201999Y-114516001D01*
X169201999Y-114516001D02*
X168402000Y-115316000D01*
X186436000Y-113368000D02*
X186436000Y-112268000D01*
X175481999Y-131681001D02*
X176510591Y-131681001D01*
X191321001Y-118253001D02*
X186436000Y-113368000D01*
X177765987Y-134510999D02*
X180741872Y-137486884D01*
X168402000Y-128016000D02*
X169691196Y-126726804D01*
X169691196Y-126726804D02*
X172831296Y-126726804D01*
X180741872Y-137486884D02*
X185308118Y-137486884D01*
X172831296Y-126726804D02*
X174896999Y-128792507D01*
X174896999Y-128792507D02*
X174896999Y-131096001D01*
X174896999Y-131096001D02*
X175481999Y-131681001D01*
X176510591Y-131681001D02*
X177147002Y-132317412D01*
X185308118Y-137486884D02*
X191321001Y-131474001D01*
X177147002Y-132317412D02*
X177147003Y-133076595D01*
X177147003Y-133076595D02*
X177765987Y-133695580D01*
X177765987Y-133695580D02*
X177765987Y-134510999D01*
X191321001Y-131474001D02*
X191321001Y-118253001D01*
X186436000Y-109728000D02*
X180848000Y-115316000D01*
X180848000Y-115316000D02*
X176022000Y-115316000D01*
X186436000Y-107188000D02*
X182720999Y-110903001D01*
X182720999Y-110903001D02*
X180817409Y-110903001D01*
X178944410Y-112776000D02*
X177153370Y-112776000D01*
X180817409Y-110903001D02*
X178944410Y-112776000D01*
X177153370Y-112776000D02*
X176022000Y-112776000D01*
X186436000Y-104648000D02*
X185635002Y-104648000D01*
X185635002Y-104648000D02*
X181730003Y-108552999D01*
X181730003Y-108552999D02*
X180627411Y-108552999D01*
X180627411Y-108552999D02*
X178944410Y-110236000D01*
X178944410Y-110236000D02*
X177153370Y-110236000D01*
X177153370Y-110236000D02*
X176022000Y-110236000D01*
D20*
G36*
X192913791Y-139573000D02*
X152527000Y-139573000D01*
X152527000Y-115814572D01*
X153313566Y-115814572D01*
X153313566Y-123106568D01*
X153371418Y-123397407D01*
X153536165Y-123643969D01*
X157879607Y-127987411D01*
X158126169Y-128152158D01*
X158417008Y-128210010D01*
X166977478Y-128210010D01*
X167048120Y-128565151D01*
X167359189Y-129030698D01*
X167741275Y-129286000D01*
X167359189Y-129541302D01*
X167048120Y-130006849D01*
X166938887Y-130556000D01*
X167048120Y-131105151D01*
X167359189Y-131570698D01*
X167741275Y-131826000D01*
X167359189Y-132081302D01*
X167048120Y-132546849D01*
X166938887Y-133096000D01*
X167048120Y-133645151D01*
X167359189Y-134110698D01*
X167741275Y-134366000D01*
X167359189Y-134621302D01*
X167048120Y-135086849D01*
X166938887Y-135636000D01*
X167048120Y-136185151D01*
X167359189Y-136650698D01*
X167824736Y-136961767D01*
X168373887Y-137071000D01*
X168430113Y-137071000D01*
X168979264Y-136961767D01*
X169444811Y-136650698D01*
X169755880Y-136185151D01*
X169865113Y-135636000D01*
X169755880Y-135086849D01*
X169444811Y-134621302D01*
X169062725Y-134366000D01*
X169444811Y-134110698D01*
X169755880Y-133645151D01*
X169865113Y-133096000D01*
X169755880Y-132546849D01*
X169444811Y-132081302D01*
X169062725Y-131826000D01*
X169444811Y-131570698D01*
X169755880Y-131105151D01*
X169865113Y-130556000D01*
X169755880Y-130006849D01*
X169444811Y-129541302D01*
X169062725Y-129286000D01*
X169444811Y-129030698D01*
X169755880Y-128565151D01*
X169865113Y-128016000D01*
X169800688Y-127692114D01*
X170005998Y-127486804D01*
X172516494Y-127486804D01*
X174136999Y-129107309D01*
X174136999Y-131096001D01*
X174194851Y-131386840D01*
X174359598Y-131633402D01*
X174910419Y-132184223D01*
X174668120Y-132546849D01*
X174558887Y-133096000D01*
X174668120Y-133645151D01*
X174979189Y-134110698D01*
X175361275Y-134366000D01*
X174979189Y-134621302D01*
X174668120Y-135086849D01*
X174558887Y-135636000D01*
X174668120Y-136185151D01*
X174979189Y-136650698D01*
X175444736Y-136961767D01*
X175993887Y-137071000D01*
X176050113Y-137071000D01*
X176599264Y-136961767D01*
X177064811Y-136650698D01*
X177375880Y-136185151D01*
X177485113Y-135636000D01*
X177402907Y-135222721D01*
X180204471Y-138024285D01*
X180451033Y-138189032D01*
X180741872Y-138246884D01*
X185308118Y-138246884D01*
X185598957Y-138189032D01*
X185845519Y-138024285D01*
X191858402Y-132011402D01*
X192023149Y-131764840D01*
X192081001Y-131474001D01*
X192081001Y-118253001D01*
X192023149Y-117962162D01*
X191858402Y-117715600D01*
X187729805Y-113587003D01*
X187737441Y-113582090D01*
X187882431Y-113369890D01*
X187933440Y-113118000D01*
X187933440Y-111418000D01*
X187889162Y-111182683D01*
X187750090Y-110966559D01*
X187537890Y-110821569D01*
X187470459Y-110807914D01*
X187515147Y-110778054D01*
X187837054Y-110296285D01*
X187950093Y-109728000D01*
X187837054Y-109159715D01*
X187515147Y-108677946D01*
X187185974Y-108458000D01*
X187515147Y-108238054D01*
X187837054Y-107756285D01*
X187950093Y-107188000D01*
X187837054Y-106619715D01*
X187515147Y-106137946D01*
X187185974Y-105918000D01*
X187515147Y-105698054D01*
X187837054Y-105216285D01*
X187950093Y-104648000D01*
X187837054Y-104079715D01*
X187515147Y-103597946D01*
X187174447Y-103370298D01*
X187317358Y-103303183D01*
X187707645Y-102874924D01*
X187877476Y-102464890D01*
X187756155Y-102235000D01*
X186563000Y-102235000D01*
X186563000Y-102255000D01*
X186309000Y-102255000D01*
X186309000Y-102235000D01*
X185115845Y-102235000D01*
X184994524Y-102464890D01*
X185164355Y-102874924D01*
X185554642Y-103303183D01*
X185697553Y-103370298D01*
X185356853Y-103597946D01*
X185034946Y-104079715D01*
X185011720Y-104196480D01*
X182689535Y-106518665D01*
X182435147Y-106137946D01*
X182105974Y-105918000D01*
X182435147Y-105698054D01*
X182757054Y-105216285D01*
X182870093Y-104648000D01*
X182757054Y-104079715D01*
X182435147Y-103597946D01*
X182393548Y-103570150D01*
X182441317Y-103561162D01*
X182657441Y-103422090D01*
X182802431Y-103209890D01*
X182853440Y-102958000D01*
X182853440Y-101751110D01*
X184994524Y-101751110D01*
X185115845Y-101981000D01*
X186309000Y-101981000D01*
X186309000Y-100787181D01*
X186563000Y-100787181D01*
X186563000Y-101981000D01*
X187756155Y-101981000D01*
X187877476Y-101751110D01*
X187707645Y-101341076D01*
X187317358Y-100912817D01*
X186792892Y-100666514D01*
X186563000Y-100787181D01*
X186309000Y-100787181D01*
X186079108Y-100666514D01*
X185554642Y-100912817D01*
X185164355Y-101341076D01*
X184994524Y-101751110D01*
X182853440Y-101751110D01*
X182853440Y-101258000D01*
X182809162Y-101022683D01*
X182670090Y-100806559D01*
X182457890Y-100661569D01*
X182206000Y-100610560D01*
X180506000Y-100610560D01*
X180270683Y-100654838D01*
X180054559Y-100793910D01*
X179909569Y-101006110D01*
X179858560Y-101258000D01*
X179858560Y-101477080D01*
X179718599Y-101570599D01*
X178308197Y-102981001D01*
X177412510Y-102981001D01*
X177485113Y-102616000D01*
X177375880Y-102066849D01*
X177064811Y-101601302D01*
X176599264Y-101290233D01*
X176050113Y-101181000D01*
X175993887Y-101181000D01*
X175716898Y-101236096D01*
X175026400Y-100545598D01*
X174779838Y-100380851D01*
X174488999Y-100322999D01*
X159605001Y-100322999D01*
X159314162Y-100380851D01*
X159067600Y-100545598D01*
X158291003Y-101322195D01*
X158286090Y-101314559D01*
X158073890Y-101169569D01*
X157822000Y-101118560D01*
X156122000Y-101118560D01*
X155886683Y-101162838D01*
X155670559Y-101301910D01*
X155525569Y-101514110D01*
X155474560Y-101766000D01*
X155474560Y-103466000D01*
X155518838Y-103701317D01*
X155657910Y-103917441D01*
X155870110Y-104062431D01*
X155937541Y-104076086D01*
X155892853Y-104105946D01*
X155570946Y-104587715D01*
X155457907Y-105156000D01*
X155570946Y-105724285D01*
X155892853Y-106206054D01*
X156222026Y-106426000D01*
X155892853Y-106645946D01*
X155570946Y-107127715D01*
X155457907Y-107696000D01*
X155570946Y-108264285D01*
X155892853Y-108746054D01*
X156233553Y-108973702D01*
X156090642Y-109040817D01*
X155700355Y-109469076D01*
X155530524Y-109879110D01*
X155651845Y-110109000D01*
X156845000Y-110109000D01*
X156845000Y-110089000D01*
X157099000Y-110089000D01*
X157099000Y-110109000D01*
X157119000Y-110109000D01*
X157119000Y-110363000D01*
X157099000Y-110363000D01*
X157099000Y-111556819D01*
X157328892Y-111677486D01*
X157853358Y-111431183D01*
X158243645Y-111002924D01*
X158413476Y-110592890D01*
X158292156Y-110363002D01*
X158457000Y-110363002D01*
X158457000Y-110255802D01*
X158466599Y-110265401D01*
X158713161Y-110430148D01*
X159004000Y-110488000D01*
X161686345Y-110488000D01*
X162056796Y-110859098D01*
X162547287Y-111062768D01*
X163074426Y-111063228D01*
X165676198Y-113665000D01*
X163660454Y-115680744D01*
X163608691Y-115659250D01*
X163037813Y-115658752D01*
X162983851Y-115681049D01*
X159719019Y-112416217D01*
X159472457Y-112251470D01*
X159181618Y-112193618D01*
X156934520Y-112193618D01*
X156643681Y-112251470D01*
X156397119Y-112416217D01*
X153536165Y-115277171D01*
X153371418Y-115523733D01*
X153313566Y-115814572D01*
X152527000Y-115814572D01*
X152527000Y-110592890D01*
X155530524Y-110592890D01*
X155700355Y-111002924D01*
X156090642Y-111431183D01*
X156615108Y-111677486D01*
X156845000Y-111556819D01*
X156845000Y-110363000D01*
X155651845Y-110363000D01*
X155530524Y-110592890D01*
X152527000Y-110592890D01*
X152527000Y-99187000D01*
X193166203Y-99187000D01*
X192913791Y-139573000D01*
X192913791Y-139573000D01*
G37*
X192913791Y-139573000D02*
X152527000Y-139573000D01*
X152527000Y-115814572D01*
X153313566Y-115814572D01*
X153313566Y-123106568D01*
X153371418Y-123397407D01*
X153536165Y-123643969D01*
X157879607Y-127987411D01*
X158126169Y-128152158D01*
X158417008Y-128210010D01*
X166977478Y-128210010D01*
X167048120Y-128565151D01*
X167359189Y-129030698D01*
X167741275Y-129286000D01*
X167359189Y-129541302D01*
X167048120Y-130006849D01*
X166938887Y-130556000D01*
X167048120Y-131105151D01*
X167359189Y-131570698D01*
X167741275Y-131826000D01*
X167359189Y-132081302D01*
X167048120Y-132546849D01*
X166938887Y-133096000D01*
X167048120Y-133645151D01*
X167359189Y-134110698D01*
X167741275Y-134366000D01*
X167359189Y-134621302D01*
X167048120Y-135086849D01*
X166938887Y-135636000D01*
X167048120Y-136185151D01*
X167359189Y-136650698D01*
X167824736Y-136961767D01*
X168373887Y-137071000D01*
X168430113Y-137071000D01*
X168979264Y-136961767D01*
X169444811Y-136650698D01*
X169755880Y-136185151D01*
X169865113Y-135636000D01*
X169755880Y-135086849D01*
X169444811Y-134621302D01*
X169062725Y-134366000D01*
X169444811Y-134110698D01*
X169755880Y-133645151D01*
X169865113Y-133096000D01*
X169755880Y-132546849D01*
X169444811Y-132081302D01*
X169062725Y-131826000D01*
X169444811Y-131570698D01*
X169755880Y-131105151D01*
X169865113Y-130556000D01*
X169755880Y-130006849D01*
X169444811Y-129541302D01*
X169062725Y-129286000D01*
X169444811Y-129030698D01*
X169755880Y-128565151D01*
X169865113Y-128016000D01*
X169800688Y-127692114D01*
X170005998Y-127486804D01*
X172516494Y-127486804D01*
X174136999Y-129107309D01*
X174136999Y-131096001D01*
X174194851Y-131386840D01*
X174359598Y-131633402D01*
X174910419Y-132184223D01*
X174668120Y-132546849D01*
X174558887Y-133096000D01*
X174668120Y-133645151D01*
X174979189Y-134110698D01*
X175361275Y-134366000D01*
X174979189Y-134621302D01*
X174668120Y-135086849D01*
X174558887Y-135636000D01*
X174668120Y-136185151D01*
X174979189Y-136650698D01*
X175444736Y-136961767D01*
X175993887Y-137071000D01*
X176050113Y-137071000D01*
X176599264Y-136961767D01*
X177064811Y-136650698D01*
X177375880Y-136185151D01*
X177485113Y-135636000D01*
X177402907Y-135222721D01*
X180204471Y-138024285D01*
X180451033Y-138189032D01*
X180741872Y-138246884D01*
X185308118Y-138246884D01*
X185598957Y-138189032D01*
X185845519Y-138024285D01*
X191858402Y-132011402D01*
X192023149Y-131764840D01*
X192081001Y-131474001D01*
X192081001Y-118253001D01*
X192023149Y-117962162D01*
X191858402Y-117715600D01*
X187729805Y-113587003D01*
X187737441Y-113582090D01*
X187882431Y-113369890D01*
X187933440Y-113118000D01*
X187933440Y-111418000D01*
X187889162Y-111182683D01*
X187750090Y-110966559D01*
X187537890Y-110821569D01*
X187470459Y-110807914D01*
X187515147Y-110778054D01*
X187837054Y-110296285D01*
X187950093Y-109728000D01*
X187837054Y-109159715D01*
X187515147Y-108677946D01*
X187185974Y-108458000D01*
X187515147Y-108238054D01*
X187837054Y-107756285D01*
X187950093Y-107188000D01*
X187837054Y-106619715D01*
X187515147Y-106137946D01*
X187185974Y-105918000D01*
X187515147Y-105698054D01*
X187837054Y-105216285D01*
X187950093Y-104648000D01*
X187837054Y-104079715D01*
X187515147Y-103597946D01*
X187174447Y-103370298D01*
X187317358Y-103303183D01*
X187707645Y-102874924D01*
X187877476Y-102464890D01*
X187756155Y-102235000D01*
X186563000Y-102235000D01*
X186563000Y-102255000D01*
X186309000Y-102255000D01*
X186309000Y-102235000D01*
X185115845Y-102235000D01*
X184994524Y-102464890D01*
X185164355Y-102874924D01*
X185554642Y-103303183D01*
X185697553Y-103370298D01*
X185356853Y-103597946D01*
X185034946Y-104079715D01*
X185011720Y-104196480D01*
X182689535Y-106518665D01*
X182435147Y-106137946D01*
X182105974Y-105918000D01*
X182435147Y-105698054D01*
X182757054Y-105216285D01*
X182870093Y-104648000D01*
X182757054Y-104079715D01*
X182435147Y-103597946D01*
X182393548Y-103570150D01*
X182441317Y-103561162D01*
X182657441Y-103422090D01*
X182802431Y-103209890D01*
X182853440Y-102958000D01*
X182853440Y-101751110D01*
X184994524Y-101751110D01*
X185115845Y-101981000D01*
X186309000Y-101981000D01*
X186309000Y-100787181D01*
X186563000Y-100787181D01*
X186563000Y-101981000D01*
X187756155Y-101981000D01*
X187877476Y-101751110D01*
X187707645Y-101341076D01*
X187317358Y-100912817D01*
X186792892Y-100666514D01*
X186563000Y-100787181D01*
X186309000Y-100787181D01*
X186079108Y-100666514D01*
X185554642Y-100912817D01*
X185164355Y-101341076D01*
X184994524Y-101751110D01*
X182853440Y-101751110D01*
X182853440Y-101258000D01*
X182809162Y-101022683D01*
X182670090Y-100806559D01*
X182457890Y-100661569D01*
X182206000Y-100610560D01*
X180506000Y-100610560D01*
X180270683Y-100654838D01*
X180054559Y-100793910D01*
X179909569Y-101006110D01*
X179858560Y-101258000D01*
X179858560Y-101477080D01*
X179718599Y-101570599D01*
X178308197Y-102981001D01*
X177412510Y-102981001D01*
X177485113Y-102616000D01*
X177375880Y-102066849D01*
X177064811Y-101601302D01*
X176599264Y-101290233D01*
X176050113Y-101181000D01*
X175993887Y-101181000D01*
X175716898Y-101236096D01*
X175026400Y-100545598D01*
X174779838Y-100380851D01*
X174488999Y-100322999D01*
X159605001Y-100322999D01*
X159314162Y-100380851D01*
X159067600Y-100545598D01*
X158291003Y-101322195D01*
X158286090Y-101314559D01*
X158073890Y-101169569D01*
X157822000Y-101118560D01*
X156122000Y-101118560D01*
X155886683Y-101162838D01*
X155670559Y-101301910D01*
X155525569Y-101514110D01*
X155474560Y-101766000D01*
X155474560Y-103466000D01*
X155518838Y-103701317D01*
X155657910Y-103917441D01*
X155870110Y-104062431D01*
X155937541Y-104076086D01*
X155892853Y-104105946D01*
X155570946Y-104587715D01*
X155457907Y-105156000D01*
X155570946Y-105724285D01*
X155892853Y-106206054D01*
X156222026Y-106426000D01*
X155892853Y-106645946D01*
X155570946Y-107127715D01*
X155457907Y-107696000D01*
X155570946Y-108264285D01*
X155892853Y-108746054D01*
X156233553Y-108973702D01*
X156090642Y-109040817D01*
X155700355Y-109469076D01*
X155530524Y-109879110D01*
X155651845Y-110109000D01*
X156845000Y-110109000D01*
X156845000Y-110089000D01*
X157099000Y-110089000D01*
X157099000Y-110109000D01*
X157119000Y-110109000D01*
X157119000Y-110363000D01*
X157099000Y-110363000D01*
X157099000Y-111556819D01*
X157328892Y-111677486D01*
X157853358Y-111431183D01*
X158243645Y-111002924D01*
X158413476Y-110592890D01*
X158292156Y-110363002D01*
X158457000Y-110363002D01*
X158457000Y-110255802D01*
X158466599Y-110265401D01*
X158713161Y-110430148D01*
X159004000Y-110488000D01*
X161686345Y-110488000D01*
X162056796Y-110859098D01*
X162547287Y-111062768D01*
X163074426Y-111063228D01*
X165676198Y-113665000D01*
X163660454Y-115680744D01*
X163608691Y-115659250D01*
X163037813Y-115658752D01*
X162983851Y-115681049D01*
X159719019Y-112416217D01*
X159472457Y-112251470D01*
X159181618Y-112193618D01*
X156934520Y-112193618D01*
X156643681Y-112251470D01*
X156397119Y-112416217D01*
X153536165Y-115277171D01*
X153371418Y-115523733D01*
X153313566Y-115814572D01*
X152527000Y-115814572D01*
X152527000Y-110592890D01*
X155530524Y-110592890D01*
X155700355Y-111002924D01*
X156090642Y-111431183D01*
X156615108Y-111677486D01*
X156845000Y-111556819D01*
X156845000Y-110363000D01*
X155651845Y-110363000D01*
X155530524Y-110592890D01*
X152527000Y-110592890D01*
X152527000Y-99187000D01*
X193166203Y-99187000D01*
X192913791Y-139573000D01*
G36*
X185334001Y-130400735D02*
X185334001Y-130448973D01*
X185170924Y-130300355D01*
X184760890Y-130130524D01*
X184531000Y-130251845D01*
X184531000Y-131445000D01*
X184551000Y-131445000D01*
X184551000Y-131699000D01*
X184531000Y-131699000D01*
X184531000Y-131719000D01*
X184277000Y-131719000D01*
X184277000Y-131699000D01*
X184257000Y-131699000D01*
X184257000Y-131445000D01*
X184277000Y-131445000D01*
X184277000Y-130251845D01*
X184047110Y-130130524D01*
X183637076Y-130300355D01*
X183208817Y-130690642D01*
X183141702Y-130833553D01*
X182914054Y-130492853D01*
X182432285Y-130170946D01*
X181864000Y-130057907D01*
X181497592Y-130130790D01*
X177378547Y-126011745D01*
X177485113Y-125476000D01*
X177375880Y-124926849D01*
X177087995Y-124495999D01*
X179429265Y-124495999D01*
X185334001Y-130400735D01*
X185334001Y-130400735D01*
G37*
X185334001Y-130400735D02*
X185334001Y-130448973D01*
X185170924Y-130300355D01*
X184760890Y-130130524D01*
X184531000Y-130251845D01*
X184531000Y-131445000D01*
X184551000Y-131445000D01*
X184551000Y-131699000D01*
X184531000Y-131699000D01*
X184531000Y-131719000D01*
X184277000Y-131719000D01*
X184277000Y-131699000D01*
X184257000Y-131699000D01*
X184257000Y-131445000D01*
X184277000Y-131445000D01*
X184277000Y-130251845D01*
X184047110Y-130130524D01*
X183637076Y-130300355D01*
X183208817Y-130690642D01*
X183141702Y-130833553D01*
X182914054Y-130492853D01*
X182432285Y-130170946D01*
X181864000Y-130057907D01*
X181497592Y-130130790D01*
X177378547Y-126011745D01*
X177485113Y-125476000D01*
X177375880Y-124926849D01*
X177087995Y-124495999D01*
X179429265Y-124495999D01*
X185334001Y-130400735D01*
G36*
X184938560Y-113118000D02*
X184982838Y-113353317D01*
X185121910Y-113569441D01*
X185334110Y-113714431D01*
X185586000Y-113765440D01*
X185805080Y-113765440D01*
X185898599Y-113905401D01*
X190561001Y-118567803D01*
X190561001Y-120815144D01*
X190522702Y-120799241D01*
X189971715Y-120798760D01*
X189462485Y-121009169D01*
X189072539Y-121398436D01*
X189061924Y-121424000D01*
X182887217Y-121424000D01*
X182778015Y-121351034D01*
X182487176Y-121293182D01*
X177907001Y-121293182D01*
X177907001Y-119855999D01*
X177849149Y-119565160D01*
X177684402Y-119318598D01*
X177332845Y-118967041D01*
X182758086Y-118967041D01*
X182997611Y-119473134D01*
X183412577Y-119849041D01*
X183800961Y-120009904D01*
X184023000Y-119887915D01*
X184023000Y-118745000D01*
X184277000Y-118745000D01*
X184277000Y-119887915D01*
X184499039Y-120009904D01*
X184887423Y-119849041D01*
X185302389Y-119473134D01*
X185541914Y-118967041D01*
X185420629Y-118745000D01*
X184277000Y-118745000D01*
X184023000Y-118745000D01*
X182879371Y-118745000D01*
X182758086Y-118967041D01*
X177332845Y-118967041D01*
X177113389Y-118747585D01*
X177253041Y-118593423D01*
X177387429Y-118268959D01*
X182758086Y-118268959D01*
X182879371Y-118491000D01*
X184023000Y-118491000D01*
X184023000Y-117348085D01*
X184277000Y-117348085D01*
X184277000Y-118491000D01*
X185420629Y-118491000D01*
X185541914Y-118268959D01*
X185302389Y-117762866D01*
X184887423Y-117386959D01*
X184499039Y-117226096D01*
X184277000Y-117348085D01*
X184023000Y-117348085D01*
X183800961Y-117226096D01*
X183412577Y-117386959D01*
X182997611Y-117762866D01*
X182758086Y-118268959D01*
X177387429Y-118268959D01*
X177413904Y-118205039D01*
X177291915Y-117983000D01*
X176149000Y-117983000D01*
X176149000Y-118003000D01*
X175895000Y-118003000D01*
X175895000Y-117983000D01*
X174752085Y-117983000D01*
X174630096Y-118205039D01*
X174790959Y-118593423D01*
X174930611Y-118747585D01*
X174359598Y-119318598D01*
X174194851Y-119565160D01*
X174136999Y-119855999D01*
X174136999Y-120764093D01*
X169937819Y-120764093D01*
X169772382Y-120797001D01*
X169793904Y-120745039D01*
X169671915Y-120523000D01*
X168529000Y-120523000D01*
X168529000Y-120543000D01*
X168275000Y-120543000D01*
X168275000Y-120523000D01*
X167132085Y-120523000D01*
X167010096Y-120745039D01*
X167170959Y-121133423D01*
X167310611Y-121287585D01*
X166739598Y-121858598D01*
X166574851Y-122105160D01*
X166516999Y-122395999D01*
X166516999Y-124350999D01*
X166574851Y-124641838D01*
X166739598Y-124888400D01*
X167003312Y-125152114D01*
X166938887Y-125476000D01*
X167003312Y-125799886D01*
X166731818Y-126071380D01*
X159626625Y-126071380D01*
X158498286Y-124943041D01*
X161930086Y-124943041D01*
X162169611Y-125449134D01*
X162584577Y-125825041D01*
X162972961Y-125985904D01*
X163195000Y-125863915D01*
X163195000Y-124721000D01*
X163449000Y-124721000D01*
X163449000Y-125863915D01*
X163671039Y-125985904D01*
X164059423Y-125825041D01*
X164474389Y-125449134D01*
X164713914Y-124943041D01*
X164592629Y-124721000D01*
X163449000Y-124721000D01*
X163195000Y-124721000D01*
X162051371Y-124721000D01*
X161930086Y-124943041D01*
X158498286Y-124943041D01*
X158086789Y-124531544D01*
X158152750Y-124372691D01*
X158152861Y-124244959D01*
X161930086Y-124244959D01*
X162051371Y-124467000D01*
X163195000Y-124467000D01*
X163195000Y-123324085D01*
X163449000Y-123324085D01*
X163449000Y-124467000D01*
X164592629Y-124467000D01*
X164713914Y-124244959D01*
X164474389Y-123738866D01*
X164059423Y-123362959D01*
X163671039Y-123202096D01*
X163449000Y-123324085D01*
X163195000Y-123324085D01*
X162972961Y-123202096D01*
X162584577Y-123362959D01*
X162169611Y-123738866D01*
X161930086Y-124244959D01*
X158152861Y-124244959D01*
X158153248Y-123801813D01*
X157935243Y-123274200D01*
X157531923Y-122870176D01*
X157004691Y-122651250D01*
X156433813Y-122650752D01*
X155906200Y-122868757D01*
X155502176Y-123272077D01*
X155446928Y-123405128D01*
X154833566Y-122791766D01*
X154833566Y-116935041D01*
X155326086Y-116935041D01*
X155565611Y-117441134D01*
X155980577Y-117817041D01*
X156368961Y-117977904D01*
X156591000Y-117855915D01*
X156591000Y-116713000D01*
X156845000Y-116713000D01*
X156845000Y-117855915D01*
X157067039Y-117977904D01*
X157455423Y-117817041D01*
X157870389Y-117441134D01*
X158109914Y-116935041D01*
X157988629Y-116713000D01*
X156845000Y-116713000D01*
X156591000Y-116713000D01*
X155447371Y-116713000D01*
X155326086Y-116935041D01*
X154833566Y-116935041D01*
X154833566Y-116236959D01*
X155326086Y-116236959D01*
X155447371Y-116459000D01*
X156591000Y-116459000D01*
X156591000Y-115316085D01*
X156845000Y-115316085D01*
X156845000Y-116459000D01*
X157988629Y-116459000D01*
X158109914Y-116236959D01*
X157870389Y-115730866D01*
X157455423Y-115354959D01*
X157067039Y-115194096D01*
X156845000Y-115316085D01*
X156591000Y-115316085D01*
X156368961Y-115194096D01*
X155980577Y-115354959D01*
X155565611Y-115730866D01*
X155326086Y-116236959D01*
X154833566Y-116236959D01*
X154833566Y-116129374D01*
X157249322Y-113713618D01*
X158866816Y-113713618D01*
X161908744Y-116755546D01*
X161887250Y-116807309D01*
X161886752Y-117378187D01*
X162104757Y-117905800D01*
X162508077Y-118309824D01*
X163035309Y-118528750D01*
X163606187Y-118529248D01*
X164133800Y-118311243D01*
X164537824Y-117907923D01*
X164560215Y-117854000D01*
X166939285Y-117854000D01*
X166938887Y-117856000D01*
X167048120Y-118405151D01*
X167359189Y-118870698D01*
X167763703Y-119140986D01*
X167546866Y-119243611D01*
X167170959Y-119658577D01*
X167010096Y-120046961D01*
X167132085Y-120269000D01*
X168275000Y-120269000D01*
X168275000Y-120249000D01*
X168529000Y-120249000D01*
X168529000Y-120269000D01*
X169671915Y-120269000D01*
X169793904Y-120046961D01*
X169633041Y-119658577D01*
X169257134Y-119243611D01*
X169040297Y-119140986D01*
X169444811Y-118870698D01*
X169755880Y-118405151D01*
X169865113Y-117856000D01*
X169755880Y-117306849D01*
X169444811Y-116841302D01*
X169062725Y-116586000D01*
X169444811Y-116330698D01*
X169755880Y-115865151D01*
X169865113Y-115316000D01*
X169800688Y-114992114D01*
X170131801Y-114661001D01*
X174738845Y-114661001D01*
X174668120Y-114766849D01*
X174558887Y-115316000D01*
X174668120Y-115865151D01*
X174979189Y-116330698D01*
X175383703Y-116600986D01*
X175166866Y-116703611D01*
X174790959Y-117118577D01*
X174630096Y-117506961D01*
X174752085Y-117729000D01*
X175895000Y-117729000D01*
X175895000Y-117709000D01*
X176149000Y-117709000D01*
X176149000Y-117729000D01*
X177291915Y-117729000D01*
X177413904Y-117506961D01*
X177253041Y-117118577D01*
X176877134Y-116703611D01*
X176660297Y-116600986D01*
X177064811Y-116330698D01*
X177234995Y-116076000D01*
X180848000Y-116076000D01*
X181138839Y-116018148D01*
X181385401Y-115853401D01*
X184938560Y-112300242D01*
X184938560Y-113118000D01*
X184938560Y-113118000D01*
G37*
X184938560Y-113118000D02*
X184982838Y-113353317D01*
X185121910Y-113569441D01*
X185334110Y-113714431D01*
X185586000Y-113765440D01*
X185805080Y-113765440D01*
X185898599Y-113905401D01*
X190561001Y-118567803D01*
X190561001Y-120815144D01*
X190522702Y-120799241D01*
X189971715Y-120798760D01*
X189462485Y-121009169D01*
X189072539Y-121398436D01*
X189061924Y-121424000D01*
X182887217Y-121424000D01*
X182778015Y-121351034D01*
X182487176Y-121293182D01*
X177907001Y-121293182D01*
X177907001Y-119855999D01*
X177849149Y-119565160D01*
X177684402Y-119318598D01*
X177332845Y-118967041D01*
X182758086Y-118967041D01*
X182997611Y-119473134D01*
X183412577Y-119849041D01*
X183800961Y-120009904D01*
X184023000Y-119887915D01*
X184023000Y-118745000D01*
X184277000Y-118745000D01*
X184277000Y-119887915D01*
X184499039Y-120009904D01*
X184887423Y-119849041D01*
X185302389Y-119473134D01*
X185541914Y-118967041D01*
X185420629Y-118745000D01*
X184277000Y-118745000D01*
X184023000Y-118745000D01*
X182879371Y-118745000D01*
X182758086Y-118967041D01*
X177332845Y-118967041D01*
X177113389Y-118747585D01*
X177253041Y-118593423D01*
X177387429Y-118268959D01*
X182758086Y-118268959D01*
X182879371Y-118491000D01*
X184023000Y-118491000D01*
X184023000Y-117348085D01*
X184277000Y-117348085D01*
X184277000Y-118491000D01*
X185420629Y-118491000D01*
X185541914Y-118268959D01*
X185302389Y-117762866D01*
X184887423Y-117386959D01*
X184499039Y-117226096D01*
X184277000Y-117348085D01*
X184023000Y-117348085D01*
X183800961Y-117226096D01*
X183412577Y-117386959D01*
X182997611Y-117762866D01*
X182758086Y-118268959D01*
X177387429Y-118268959D01*
X177413904Y-118205039D01*
X177291915Y-117983000D01*
X176149000Y-117983000D01*
X176149000Y-118003000D01*
X175895000Y-118003000D01*
X175895000Y-117983000D01*
X174752085Y-117983000D01*
X174630096Y-118205039D01*
X174790959Y-118593423D01*
X174930611Y-118747585D01*
X174359598Y-119318598D01*
X174194851Y-119565160D01*
X174136999Y-119855999D01*
X174136999Y-120764093D01*
X169937819Y-120764093D01*
X169772382Y-120797001D01*
X169793904Y-120745039D01*
X169671915Y-120523000D01*
X168529000Y-120523000D01*
X168529000Y-120543000D01*
X168275000Y-120543000D01*
X168275000Y-120523000D01*
X167132085Y-120523000D01*
X167010096Y-120745039D01*
X167170959Y-121133423D01*
X167310611Y-121287585D01*
X166739598Y-121858598D01*
X166574851Y-122105160D01*
X166516999Y-122395999D01*
X166516999Y-124350999D01*
X166574851Y-124641838D01*
X166739598Y-124888400D01*
X167003312Y-125152114D01*
X166938887Y-125476000D01*
X167003312Y-125799886D01*
X166731818Y-126071380D01*
X159626625Y-126071380D01*
X158498286Y-124943041D01*
X161930086Y-124943041D01*
X162169611Y-125449134D01*
X162584577Y-125825041D01*
X162972961Y-125985904D01*
X163195000Y-125863915D01*
X163195000Y-124721000D01*
X163449000Y-124721000D01*
X163449000Y-125863915D01*
X163671039Y-125985904D01*
X164059423Y-125825041D01*
X164474389Y-125449134D01*
X164713914Y-124943041D01*
X164592629Y-124721000D01*
X163449000Y-124721000D01*
X163195000Y-124721000D01*
X162051371Y-124721000D01*
X161930086Y-124943041D01*
X158498286Y-124943041D01*
X158086789Y-124531544D01*
X158152750Y-124372691D01*
X158152861Y-124244959D01*
X161930086Y-124244959D01*
X162051371Y-124467000D01*
X163195000Y-124467000D01*
X163195000Y-123324085D01*
X163449000Y-123324085D01*
X163449000Y-124467000D01*
X164592629Y-124467000D01*
X164713914Y-124244959D01*
X164474389Y-123738866D01*
X164059423Y-123362959D01*
X163671039Y-123202096D01*
X163449000Y-123324085D01*
X163195000Y-123324085D01*
X162972961Y-123202096D01*
X162584577Y-123362959D01*
X162169611Y-123738866D01*
X161930086Y-124244959D01*
X158152861Y-124244959D01*
X158153248Y-123801813D01*
X157935243Y-123274200D01*
X157531923Y-122870176D01*
X157004691Y-122651250D01*
X156433813Y-122650752D01*
X155906200Y-122868757D01*
X155502176Y-123272077D01*
X155446928Y-123405128D01*
X154833566Y-122791766D01*
X154833566Y-116935041D01*
X155326086Y-116935041D01*
X155565611Y-117441134D01*
X155980577Y-117817041D01*
X156368961Y-117977904D01*
X156591000Y-117855915D01*
X156591000Y-116713000D01*
X156845000Y-116713000D01*
X156845000Y-117855915D01*
X157067039Y-117977904D01*
X157455423Y-117817041D01*
X157870389Y-117441134D01*
X158109914Y-116935041D01*
X157988629Y-116713000D01*
X156845000Y-116713000D01*
X156591000Y-116713000D01*
X155447371Y-116713000D01*
X155326086Y-116935041D01*
X154833566Y-116935041D01*
X154833566Y-116236959D01*
X155326086Y-116236959D01*
X155447371Y-116459000D01*
X156591000Y-116459000D01*
X156591000Y-115316085D01*
X156845000Y-115316085D01*
X156845000Y-116459000D01*
X157988629Y-116459000D01*
X158109914Y-116236959D01*
X157870389Y-115730866D01*
X157455423Y-115354959D01*
X157067039Y-115194096D01*
X156845000Y-115316085D01*
X156591000Y-115316085D01*
X156368961Y-115194096D01*
X155980577Y-115354959D01*
X155565611Y-115730866D01*
X155326086Y-116236959D01*
X154833566Y-116236959D01*
X154833566Y-116129374D01*
X157249322Y-113713618D01*
X158866816Y-113713618D01*
X161908744Y-116755546D01*
X161887250Y-116807309D01*
X161886752Y-117378187D01*
X162104757Y-117905800D01*
X162508077Y-118309824D01*
X163035309Y-118528750D01*
X163606187Y-118529248D01*
X164133800Y-118311243D01*
X164537824Y-117907923D01*
X164560215Y-117854000D01*
X166939285Y-117854000D01*
X166938887Y-117856000D01*
X167048120Y-118405151D01*
X167359189Y-118870698D01*
X167763703Y-119140986D01*
X167546866Y-119243611D01*
X167170959Y-119658577D01*
X167010096Y-120046961D01*
X167132085Y-120269000D01*
X168275000Y-120269000D01*
X168275000Y-120249000D01*
X168529000Y-120249000D01*
X168529000Y-120269000D01*
X169671915Y-120269000D01*
X169793904Y-120046961D01*
X169633041Y-119658577D01*
X169257134Y-119243611D01*
X169040297Y-119140986D01*
X169444811Y-118870698D01*
X169755880Y-118405151D01*
X169865113Y-117856000D01*
X169755880Y-117306849D01*
X169444811Y-116841302D01*
X169062725Y-116586000D01*
X169444811Y-116330698D01*
X169755880Y-115865151D01*
X169865113Y-115316000D01*
X169800688Y-114992114D01*
X170131801Y-114661001D01*
X174738845Y-114661001D01*
X174668120Y-114766849D01*
X174558887Y-115316000D01*
X174668120Y-115865151D01*
X174979189Y-116330698D01*
X175383703Y-116600986D01*
X175166866Y-116703611D01*
X174790959Y-117118577D01*
X174630096Y-117506961D01*
X174752085Y-117729000D01*
X175895000Y-117729000D01*
X175895000Y-117709000D01*
X176149000Y-117709000D01*
X176149000Y-117729000D01*
X177291915Y-117729000D01*
X177413904Y-117506961D01*
X177253041Y-117118577D01*
X176877134Y-116703611D01*
X176660297Y-116600986D01*
X177064811Y-116330698D01*
X177234995Y-116076000D01*
X180848000Y-116076000D01*
X181138839Y-116018148D01*
X181385401Y-115853401D01*
X184938560Y-112300242D01*
X184938560Y-113118000D01*
M02*
