G04 #@! TF.FileFunction,Legend,Top*
%FSLAX46Y46*%
G04 Gerber Fmt 4.6, Leading zero omitted, Abs format (unit mm)*
G04 Created by KiCad (PCBNEW 4.0.7-e2-6376~58~ubuntu14.04.1) date Sat Jul 14 10:26:38 2018*
%MOMM*%
%LPD*%
G01*
G04 APERTURE LIST*
%ADD10C,0.100000*%
G04 APERTURE END LIST*
D10*
X56537273Y-99434239D02*
X56529728Y-99596212D01*
X56514292Y-99269336D02*
X56537273Y-99434239D01*
X56460753Y-99101524D02*
X56514292Y-99269336D01*
X56376741Y-98930832D02*
X56460753Y-99101524D01*
X54712274Y-99415948D02*
X54712274Y-99415948D01*
X54993299Y-99253698D02*
X54712274Y-99415948D01*
X54916067Y-99044208D02*
X54993299Y-99253698D01*
X54865891Y-98636781D02*
X54723197Y-98684767D01*
X54790230Y-98397412D02*
X54865891Y-98636781D01*
X54762291Y-98406222D02*
X54790230Y-98397412D01*
X53794141Y-99926495D02*
X53794141Y-99926495D01*
X54383896Y-98566802D02*
X54471488Y-98505955D01*
X54316653Y-98636515D02*
X54383896Y-98566802D01*
X54269645Y-98715154D02*
X54316653Y-98636515D01*
X54712274Y-99415948D02*
X55312158Y-101064778D01*
X57535320Y-98928869D02*
X57558015Y-98863897D01*
X57506655Y-98995660D02*
X57535320Y-98928869D01*
X57473829Y-99050442D02*
X57506655Y-98995660D01*
X57436872Y-99093210D02*
X57473829Y-99050442D01*
X57395781Y-99124140D02*
X57436872Y-99093210D01*
X57340333Y-99148000D02*
X57395781Y-99124140D01*
X54478825Y-101625966D02*
X54534274Y-101760092D01*
X55903039Y-100141395D02*
X55796238Y-100116230D01*
X56011181Y-100140982D02*
X55903039Y-100141395D01*
X56120608Y-100115016D02*
X56011181Y-100140982D01*
X56231436Y-100063495D02*
X56120608Y-100115016D01*
X57967363Y-97328129D02*
X57967363Y-97328129D01*
X57728730Y-97465904D02*
X57967363Y-97328129D01*
X53397072Y-100155743D02*
X53794141Y-99926495D01*
X54385661Y-99350438D02*
X54311123Y-99146136D01*
X54106567Y-99511573D02*
X54385661Y-99350438D01*
X54186371Y-99719578D02*
X54106567Y-99511573D01*
X55008723Y-101702736D02*
X54834480Y-101769319D01*
X55160324Y-101626674D02*
X55008723Y-101702736D01*
X55288627Y-101525222D02*
X55160324Y-101626674D01*
X59289640Y-96854599D02*
X59226831Y-96844432D01*
X59348745Y-96897713D02*
X59289640Y-96854599D01*
X59404220Y-96973938D02*
X59348745Y-96897713D01*
X59443259Y-97057516D02*
X59404220Y-96973938D01*
X59804022Y-97955255D02*
X59443259Y-97057516D01*
X60042699Y-97817455D02*
X59804022Y-97955255D01*
X59686791Y-96931566D02*
X60042699Y-97817455D01*
X59628838Y-96812108D02*
X59686791Y-96931566D01*
X59493264Y-95821647D02*
X59412321Y-95620790D01*
X59857021Y-95611633D02*
X59493264Y-95821647D01*
X60801763Y-97952613D02*
X59857021Y-95611633D01*
X60440353Y-98161273D02*
X60801763Y-97952613D01*
X60525757Y-98366057D02*
X60440353Y-98161273D01*
X57671790Y-98991402D02*
X57576904Y-99216714D01*
X57674430Y-98997833D02*
X57671790Y-98991402D01*
X57735607Y-99149455D02*
X57674430Y-98997833D01*
X57974240Y-99011681D02*
X57735607Y-99149455D01*
X57424950Y-97647202D02*
X57974240Y-99011681D01*
X55590397Y-98654884D02*
X55697048Y-98605767D01*
X57578711Y-98760103D02*
X57260517Y-97967975D01*
X54238075Y-101764963D02*
X54478825Y-101625966D01*
X54649593Y-98439961D02*
X54762291Y-98406222D01*
X54543517Y-98473572D02*
X54649593Y-98439961D01*
X54471488Y-98505955D02*
X54543517Y-98473572D01*
X54462607Y-99560094D02*
X54186371Y-99719578D01*
X55038442Y-101129528D02*
X54462607Y-99560094D01*
X55073218Y-101246521D02*
X55038442Y-101129528D01*
X55911040Y-98581893D02*
X56018355Y-98607069D01*
X55803895Y-98581411D02*
X55911040Y-98581893D01*
X56300513Y-98817479D02*
X56376741Y-98930832D01*
X56215372Y-98725750D02*
X56300513Y-98817479D01*
X56121292Y-98655579D02*
X56215372Y-98725750D01*
X56018355Y-98607069D02*
X56121292Y-98655579D01*
X59522694Y-96675681D02*
X59628838Y-96812108D01*
X59397200Y-96599919D02*
X59522694Y-96675681D01*
X59262032Y-96585420D02*
X59397200Y-96599919D01*
X59127227Y-96632431D02*
X59262032Y-96585420D01*
X59017198Y-96719835D02*
X59127227Y-96632431D01*
X58929309Y-96842227D02*
X59017198Y-96719835D01*
X58863455Y-96999667D02*
X58929309Y-96842227D01*
X58819757Y-97192097D02*
X58863455Y-96999667D01*
X58279358Y-98835521D02*
X57728730Y-97465904D01*
X58518078Y-98697696D02*
X58279358Y-98835521D01*
X58169253Y-97830152D02*
X58518078Y-98697696D01*
X58167917Y-97803419D02*
X58169253Y-97830152D01*
X58176262Y-97753752D02*
X58167917Y-97803419D01*
X58194273Y-97681207D02*
X58176262Y-97753752D01*
X58221937Y-97585664D02*
X58194273Y-97681207D01*
X58294249Y-97411553D02*
X58221937Y-97585664D01*
X58381800Y-97316896D02*
X58294249Y-97411553D01*
X54137863Y-101988960D02*
X53397072Y-100155743D01*
X55475548Y-98739597D02*
X55590397Y-98654884D01*
X55386811Y-98846082D02*
X55475548Y-98739597D01*
X55324256Y-98974412D02*
X55386811Y-98846082D01*
X55287814Y-99124513D02*
X55324256Y-98974412D01*
X55697048Y-98605767D02*
X55803895Y-98581411D01*
X60525757Y-98366057D02*
X60525757Y-98366057D01*
X61118145Y-98024042D02*
X60525757Y-98366057D01*
X60009125Y-95276225D02*
X61118145Y-98024042D01*
X59412321Y-95620790D02*
X60009125Y-95276225D01*
X56189595Y-99186543D02*
X56125655Y-99060277D01*
X56233972Y-99309648D02*
X56189595Y-99186543D01*
X56258752Y-99429586D02*
X56233972Y-99309648D01*
X56263939Y-99546311D02*
X56258752Y-99429586D01*
X56250402Y-99652425D02*
X56263939Y-99546311D01*
X55590397Y-98654884D02*
X55590397Y-98654884D01*
X57282665Y-99157057D02*
X57340333Y-99148000D01*
X57222766Y-99151168D02*
X57282665Y-99157057D01*
X57160603Y-99130420D02*
X57222766Y-99151168D01*
X57043521Y-99049927D02*
X57160603Y-99130420D01*
X56945648Y-98921185D02*
X57043521Y-99049927D01*
X56860338Y-98688785D02*
X56945648Y-98921185D01*
X58713295Y-97086361D02*
X58819757Y-97192097D01*
X58602280Y-97031038D02*
X58713295Y-97086361D01*
X58486688Y-97026125D02*
X58602280Y-97031038D01*
X58366545Y-97071611D02*
X58486688Y-97026125D01*
X58265028Y-97150220D02*
X58366545Y-97071611D01*
X58180639Y-97258953D02*
X58265028Y-97150220D01*
X58113381Y-97397758D02*
X58180639Y-97258953D01*
X58063340Y-97566727D02*
X58113381Y-97397758D01*
X58931987Y-97335147D02*
X58928084Y-97369305D01*
X58941883Y-97287287D02*
X58931987Y-97335147D01*
X58957764Y-97225614D02*
X58941883Y-97287287D01*
X58994131Y-97107403D02*
X58957764Y-97225614D01*
X59027570Y-97026321D02*
X58994131Y-97107403D01*
X59059919Y-96969932D02*
X59027570Y-97026321D01*
X59092814Y-96925686D02*
X59059919Y-96969932D01*
X59160444Y-96867345D02*
X59092814Y-96925686D01*
X59226831Y-96844432D02*
X59160444Y-96867345D01*
X53849589Y-100060619D02*
X53605973Y-100201272D01*
X55077602Y-101328876D02*
X55073218Y-101246521D01*
X55048964Y-101389512D02*
X55077602Y-101328876D01*
X54985547Y-101440911D02*
X55048964Y-101389512D01*
X57049210Y-99383680D02*
X56864798Y-99275211D01*
X57150186Y-99410455D02*
X57049210Y-99383680D01*
X57247142Y-99415308D02*
X57150186Y-99410455D01*
X57340067Y-99398180D02*
X57247142Y-99415308D01*
X57428850Y-99359137D02*
X57340067Y-99398180D01*
X57576904Y-99216714D02*
X57428850Y-99359137D01*
X57578711Y-98760103D02*
X57578711Y-98760103D01*
X57579702Y-98779519D02*
X57578711Y-98760103D01*
X57572823Y-98814124D02*
X57579702Y-98779519D01*
X57558015Y-98863897D02*
X57572823Y-98814124D01*
X54242955Y-98802606D02*
X54269645Y-98715154D01*
X54252403Y-98951568D02*
X54242955Y-98802606D01*
X54311123Y-99146136D02*
X54252403Y-98951568D01*
X56219375Y-99740625D02*
X56250402Y-99652425D01*
X56170705Y-99810827D02*
X56219375Y-99740625D01*
X56104492Y-99863142D02*
X56170705Y-99810827D01*
X56055578Y-99883681D02*
X56104492Y-99863142D01*
X56003895Y-99890403D02*
X56055578Y-99883681D01*
X55550542Y-99172233D02*
X55584060Y-99415067D01*
X55560860Y-99061082D02*
X55550542Y-99172233D01*
X55589273Y-98969576D02*
X55560860Y-99061082D01*
X55635819Y-98897715D02*
X55589273Y-98969576D01*
X55700417Y-98845444D02*
X55635819Y-98897715D01*
X54534274Y-101760092D02*
X54137863Y-101988960D01*
X58454277Y-97290847D02*
X58381800Y-97316896D01*
X58521733Y-97299266D02*
X58454277Y-97290847D01*
X58584114Y-97342233D02*
X58521733Y-97299266D01*
X58641374Y-97419690D02*
X58584114Y-97342233D01*
X58692792Y-97530889D02*
X58641374Y-97419690D01*
X59041686Y-98395390D02*
X58692792Y-97530889D01*
X59280415Y-98257560D02*
X59041686Y-98395390D01*
X58930180Y-97389757D02*
X59280415Y-98257560D01*
X58928084Y-97369305D02*
X58930180Y-97389757D01*
X55279157Y-99285938D02*
X55287814Y-99124513D01*
X55300169Y-99448213D02*
X55279157Y-99285938D01*
X55350730Y-99611406D02*
X55300169Y-99448213D01*
X55431015Y-99775544D02*
X55350730Y-99611406D01*
X55511217Y-99896198D02*
X55431015Y-99775544D01*
X55598770Y-99993185D02*
X55511217Y-99896198D01*
X55693718Y-100066480D02*
X55598770Y-99993185D01*
X55796238Y-100116230D02*
X55693718Y-100066480D01*
X57424950Y-97647202D02*
X57424950Y-97647202D01*
X57267009Y-97699719D02*
X57424950Y-97647202D01*
X57104487Y-97780723D02*
X57267009Y-97699719D01*
X56921384Y-97905860D02*
X57104487Y-97780723D01*
X56777547Y-98047147D02*
X56921384Y-97905860D01*
X56673044Y-98204661D02*
X56777547Y-98047147D01*
X53605973Y-100201272D02*
X54238075Y-101764963D01*
X54635795Y-99206023D02*
X54916067Y-99044208D01*
X54577485Y-99045987D02*
X54635795Y-99206023D01*
X54555220Y-98978763D02*
X54577485Y-99045987D01*
X55805851Y-98815841D02*
X55752276Y-98823285D01*
X55861271Y-98822930D02*
X55805851Y-98815841D01*
X55918547Y-98844676D02*
X55861271Y-98822930D01*
X56028336Y-98927636D02*
X55918547Y-98844676D01*
X56125655Y-99060277D02*
X56028336Y-98927636D01*
X56860555Y-98434822D02*
X56860338Y-98688785D01*
X56896961Y-98308979D02*
X56860555Y-98434822D01*
X56963169Y-98195895D02*
X56896961Y-98308979D01*
X57059092Y-98095538D02*
X56963169Y-98195895D01*
X57184867Y-98007945D02*
X57059092Y-98095538D01*
X57260517Y-97967975D02*
X57184867Y-98007945D01*
X56344894Y-99979510D02*
X56231436Y-100063495D01*
X56432442Y-99873647D02*
X56344894Y-99979510D01*
X56494044Y-99745866D02*
X56432442Y-99873647D01*
X56529728Y-99596212D02*
X56494044Y-99745866D01*
X55700417Y-98845444D02*
X55700417Y-98845444D01*
X55752276Y-98823285D02*
X55700417Y-98845444D01*
X57967363Y-97328129D02*
X58063340Y-97566727D01*
X54893524Y-101483892D02*
X54985547Y-101440911D01*
X54760637Y-101530419D02*
X54893524Y-101483892D01*
X54834480Y-101769319D02*
X54760637Y-101530419D01*
X53794141Y-99926495D02*
X53849589Y-100060619D01*
X55354894Y-101404959D02*
X55288627Y-101525222D01*
X55361629Y-101255165D02*
X55354894Y-101404959D01*
X55312158Y-101064778D02*
X55361629Y-101255165D01*
X54540863Y-98921778D02*
X54555220Y-98978763D01*
X54534385Y-98874976D02*
X54540863Y-98921778D01*
X54535803Y-98838374D02*
X54534385Y-98874976D01*
X55949464Y-99883365D02*
X56003895Y-99890403D01*
X55892230Y-99862473D02*
X55949464Y-99883365D01*
X55782937Y-99784052D02*
X55892230Y-99862473D01*
X55690046Y-99659940D02*
X55782937Y-99784052D01*
X55584060Y-99415067D02*
X55690046Y-99659940D01*
X56607784Y-98378328D02*
X56673044Y-98204661D01*
X56580698Y-98559793D02*
X56607784Y-98378328D01*
X56590989Y-98740739D02*
X56580698Y-98559793D01*
X56638650Y-98921149D02*
X56590989Y-98740739D01*
X56723705Y-99101009D02*
X56638650Y-98921149D01*
X56864798Y-99275211D02*
X56723705Y-99101009D01*
X54565536Y-98778553D02*
X54535803Y-98838374D01*
X54633446Y-98725175D02*
X54565536Y-98778553D01*
X54723197Y-98684767D02*
X54633446Y-98725175D01*
M02*
