G04 #@! TF.FileFunction,Other,Fab,Bot*
%FSLAX46Y46*%
G04 Gerber Fmt 4.6, Leading zero omitted, Abs format (unit mm)*
G04 Created by KiCad (PCBNEW 4.0.7-e2-6376~58~ubuntu14.04.1) date Sat Jul 14 10:26:38 2018*
%MOMM*%
%LPD*%
G01*
G04 APERTURE LIST*
%ADD10C,0.100000*%
%ADD11C,0.150000*%
G04 APERTURE END LIST*
D10*
X78095000Y-94880000D02*
X75555000Y-94880000D01*
X75555000Y-110120000D02*
X77145000Y-110120000D01*
X78095000Y-94880000D02*
X78095000Y-109170000D01*
X78095000Y-109170000D02*
X77145000Y-110120000D01*
X75555000Y-110120000D02*
X75555000Y-94880000D01*
X75555000Y-106630000D02*
X74285000Y-106630000D01*
X74285000Y-106630000D02*
X74285000Y-105990000D01*
X74285000Y-105990000D02*
X75555000Y-105990000D01*
X75555000Y-101550000D02*
X74285000Y-101550000D01*
X74285000Y-101550000D02*
X74285000Y-100910000D01*
X74285000Y-100910000D02*
X75555000Y-100910000D01*
X75555000Y-96470000D02*
X74285000Y-96470000D01*
X74285000Y-96470000D02*
X74285000Y-95830000D01*
X74285000Y-95830000D02*
X75555000Y-95830000D01*
X78095000Y-109170000D02*
X79365000Y-109170000D01*
X79365000Y-109170000D02*
X79365000Y-108530000D01*
X79365000Y-108530000D02*
X78095000Y-108530000D01*
X78095000Y-104090000D02*
X79365000Y-104090000D01*
X79365000Y-104090000D02*
X79365000Y-103450000D01*
X79365000Y-103450000D02*
X78095000Y-103450000D01*
X78095000Y-99010000D02*
X79365000Y-99010000D01*
X79365000Y-99010000D02*
X79365000Y-98370000D01*
X79365000Y-98370000D02*
X78095000Y-98370000D01*
D11*
X106238095Y-110357143D02*
X106285714Y-110404762D01*
X106428571Y-110452381D01*
X106523809Y-110452381D01*
X106666667Y-110404762D01*
X106761905Y-110309524D01*
X106809524Y-110214286D01*
X106857143Y-110023810D01*
X106857143Y-109880952D01*
X106809524Y-109690476D01*
X106761905Y-109595238D01*
X106666667Y-109500000D01*
X106523809Y-109452381D01*
X106428571Y-109452381D01*
X106285714Y-109500000D01*
X106238095Y-109547619D01*
X105666667Y-110452381D02*
X105761905Y-110404762D01*
X105809524Y-110357143D01*
X105857143Y-110261905D01*
X105857143Y-109976190D01*
X105809524Y-109880952D01*
X105761905Y-109833333D01*
X105666667Y-109785714D01*
X105523809Y-109785714D01*
X105428571Y-109833333D01*
X105380952Y-109880952D01*
X105333333Y-109976190D01*
X105333333Y-110261905D01*
X105380952Y-110357143D01*
X105428571Y-110404762D01*
X105523809Y-110452381D01*
X105666667Y-110452381D01*
X104904762Y-109785714D02*
X104904762Y-110452381D01*
X104904762Y-109880952D02*
X104857143Y-109833333D01*
X104761905Y-109785714D01*
X104619047Y-109785714D01*
X104523809Y-109833333D01*
X104476190Y-109928571D01*
X104476190Y-110452381D01*
X104000000Y-109785714D02*
X104000000Y-110452381D01*
X104000000Y-109880952D02*
X103952381Y-109833333D01*
X103857143Y-109785714D01*
X103714285Y-109785714D01*
X103619047Y-109833333D01*
X103571428Y-109928571D01*
X103571428Y-110452381D01*
X103333333Y-110547619D02*
X102571428Y-110547619D01*
X102142857Y-109452381D02*
X102047618Y-109452381D01*
X101952380Y-109500000D01*
X101904761Y-109547619D01*
X101857142Y-109642857D01*
X101809523Y-109833333D01*
X101809523Y-110071429D01*
X101857142Y-110261905D01*
X101904761Y-110357143D01*
X101952380Y-110404762D01*
X102047618Y-110452381D01*
X102142857Y-110452381D01*
X102238095Y-110404762D01*
X102285714Y-110357143D01*
X102333333Y-110261905D01*
X102380952Y-110071429D01*
X102380952Y-109833333D01*
X102333333Y-109642857D01*
X102285714Y-109547619D01*
X102238095Y-109500000D01*
X102142857Y-109452381D01*
X100857142Y-110452381D02*
X101428571Y-110452381D01*
X101142857Y-110452381D02*
X101142857Y-109452381D01*
X101238095Y-109595238D01*
X101333333Y-109690476D01*
X101428571Y-109738095D01*
X100523809Y-110452381D02*
X99999999Y-109785714D01*
X100523809Y-109785714D02*
X99999999Y-110452381D01*
X99428571Y-109452381D02*
X99333332Y-109452381D01*
X99238094Y-109500000D01*
X99190475Y-109547619D01*
X99142856Y-109642857D01*
X99095237Y-109833333D01*
X99095237Y-110071429D01*
X99142856Y-110261905D01*
X99190475Y-110357143D01*
X99238094Y-110404762D01*
X99333332Y-110452381D01*
X99428571Y-110452381D01*
X99523809Y-110404762D01*
X99571428Y-110357143D01*
X99619047Y-110261905D01*
X99666666Y-110071429D01*
X99666666Y-109833333D01*
X99619047Y-109642857D01*
X99571428Y-109547619D01*
X99523809Y-109500000D01*
X99428571Y-109452381D01*
X98238094Y-109785714D02*
X98238094Y-110452381D01*
X98476190Y-109404762D02*
X98714285Y-110119048D01*
X98095237Y-110119048D01*
X106238095Y-119357143D02*
X106285714Y-119404762D01*
X106428571Y-119452381D01*
X106523809Y-119452381D01*
X106666667Y-119404762D01*
X106761905Y-119309524D01*
X106809524Y-119214286D01*
X106857143Y-119023810D01*
X106857143Y-118880952D01*
X106809524Y-118690476D01*
X106761905Y-118595238D01*
X106666667Y-118500000D01*
X106523809Y-118452381D01*
X106428571Y-118452381D01*
X106285714Y-118500000D01*
X106238095Y-118547619D01*
X105666667Y-119452381D02*
X105761905Y-119404762D01*
X105809524Y-119357143D01*
X105857143Y-119261905D01*
X105857143Y-118976190D01*
X105809524Y-118880952D01*
X105761905Y-118833333D01*
X105666667Y-118785714D01*
X105523809Y-118785714D01*
X105428571Y-118833333D01*
X105380952Y-118880952D01*
X105333333Y-118976190D01*
X105333333Y-119261905D01*
X105380952Y-119357143D01*
X105428571Y-119404762D01*
X105523809Y-119452381D01*
X105666667Y-119452381D01*
X104904762Y-118785714D02*
X104904762Y-119452381D01*
X104904762Y-118880952D02*
X104857143Y-118833333D01*
X104761905Y-118785714D01*
X104619047Y-118785714D01*
X104523809Y-118833333D01*
X104476190Y-118928571D01*
X104476190Y-119452381D01*
X104000000Y-118785714D02*
X104000000Y-119452381D01*
X104000000Y-118880952D02*
X103952381Y-118833333D01*
X103857143Y-118785714D01*
X103714285Y-118785714D01*
X103619047Y-118833333D01*
X103571428Y-118928571D01*
X103571428Y-119452381D01*
X103333333Y-119547619D02*
X102571428Y-119547619D01*
X102142857Y-118452381D02*
X102047618Y-118452381D01*
X101952380Y-118500000D01*
X101904761Y-118547619D01*
X101857142Y-118642857D01*
X101809523Y-118833333D01*
X101809523Y-119071429D01*
X101857142Y-119261905D01*
X101904761Y-119357143D01*
X101952380Y-119404762D01*
X102047618Y-119452381D01*
X102142857Y-119452381D01*
X102238095Y-119404762D01*
X102285714Y-119357143D01*
X102333333Y-119261905D01*
X102380952Y-119071429D01*
X102380952Y-118833333D01*
X102333333Y-118642857D01*
X102285714Y-118547619D01*
X102238095Y-118500000D01*
X102142857Y-118452381D01*
X100857142Y-119452381D02*
X101428571Y-119452381D01*
X101142857Y-119452381D02*
X101142857Y-118452381D01*
X101238095Y-118595238D01*
X101333333Y-118690476D01*
X101428571Y-118738095D01*
X100523809Y-119452381D02*
X99999999Y-118785714D01*
X100523809Y-118785714D02*
X99999999Y-119452381D01*
X99428571Y-118452381D02*
X99333332Y-118452381D01*
X99238094Y-118500000D01*
X99190475Y-118547619D01*
X99142856Y-118642857D01*
X99095237Y-118833333D01*
X99095237Y-119071429D01*
X99142856Y-119261905D01*
X99190475Y-119357143D01*
X99238094Y-119404762D01*
X99333332Y-119452381D01*
X99428571Y-119452381D01*
X99523809Y-119404762D01*
X99571428Y-119357143D01*
X99619047Y-119261905D01*
X99666666Y-119071429D01*
X99666666Y-118833333D01*
X99619047Y-118642857D01*
X99571428Y-118547619D01*
X99523809Y-118500000D01*
X99428571Y-118452381D01*
X98238094Y-118785714D02*
X98238094Y-119452381D01*
X98476190Y-118404762D02*
X98714285Y-119119048D01*
X98095237Y-119119048D01*
X106238095Y-101357143D02*
X106285714Y-101404762D01*
X106428571Y-101452381D01*
X106523809Y-101452381D01*
X106666667Y-101404762D01*
X106761905Y-101309524D01*
X106809524Y-101214286D01*
X106857143Y-101023810D01*
X106857143Y-100880952D01*
X106809524Y-100690476D01*
X106761905Y-100595238D01*
X106666667Y-100500000D01*
X106523809Y-100452381D01*
X106428571Y-100452381D01*
X106285714Y-100500000D01*
X106238095Y-100547619D01*
X105666667Y-101452381D02*
X105761905Y-101404762D01*
X105809524Y-101357143D01*
X105857143Y-101261905D01*
X105857143Y-100976190D01*
X105809524Y-100880952D01*
X105761905Y-100833333D01*
X105666667Y-100785714D01*
X105523809Y-100785714D01*
X105428571Y-100833333D01*
X105380952Y-100880952D01*
X105333333Y-100976190D01*
X105333333Y-101261905D01*
X105380952Y-101357143D01*
X105428571Y-101404762D01*
X105523809Y-101452381D01*
X105666667Y-101452381D01*
X104904762Y-100785714D02*
X104904762Y-101452381D01*
X104904762Y-100880952D02*
X104857143Y-100833333D01*
X104761905Y-100785714D01*
X104619047Y-100785714D01*
X104523809Y-100833333D01*
X104476190Y-100928571D01*
X104476190Y-101452381D01*
X104000000Y-100785714D02*
X104000000Y-101452381D01*
X104000000Y-100880952D02*
X103952381Y-100833333D01*
X103857143Y-100785714D01*
X103714285Y-100785714D01*
X103619047Y-100833333D01*
X103571428Y-100928571D01*
X103571428Y-101452381D01*
X103333333Y-101547619D02*
X102571428Y-101547619D01*
X102142857Y-100452381D02*
X102047618Y-100452381D01*
X101952380Y-100500000D01*
X101904761Y-100547619D01*
X101857142Y-100642857D01*
X101809523Y-100833333D01*
X101809523Y-101071429D01*
X101857142Y-101261905D01*
X101904761Y-101357143D01*
X101952380Y-101404762D01*
X102047618Y-101452381D01*
X102142857Y-101452381D01*
X102238095Y-101404762D01*
X102285714Y-101357143D01*
X102333333Y-101261905D01*
X102380952Y-101071429D01*
X102380952Y-100833333D01*
X102333333Y-100642857D01*
X102285714Y-100547619D01*
X102238095Y-100500000D01*
X102142857Y-100452381D01*
X100857142Y-101452381D02*
X101428571Y-101452381D01*
X101142857Y-101452381D02*
X101142857Y-100452381D01*
X101238095Y-100595238D01*
X101333333Y-100690476D01*
X101428571Y-100738095D01*
X100523809Y-101452381D02*
X99999999Y-100785714D01*
X100523809Y-100785714D02*
X99999999Y-101452381D01*
X99428571Y-100452381D02*
X99333332Y-100452381D01*
X99238094Y-100500000D01*
X99190475Y-100547619D01*
X99142856Y-100642857D01*
X99095237Y-100833333D01*
X99095237Y-101071429D01*
X99142856Y-101261905D01*
X99190475Y-101357143D01*
X99238094Y-101404762D01*
X99333332Y-101452381D01*
X99428571Y-101452381D01*
X99523809Y-101404762D01*
X99571428Y-101357143D01*
X99619047Y-101261905D01*
X99666666Y-101071429D01*
X99666666Y-100833333D01*
X99619047Y-100642857D01*
X99571428Y-100547619D01*
X99523809Y-100500000D01*
X99428571Y-100452381D01*
X98238094Y-100785714D02*
X98238094Y-101452381D01*
X98476190Y-100404762D02*
X98714285Y-101119048D01*
X98095237Y-101119048D01*
X80563095Y-94177143D02*
X80610714Y-94224762D01*
X80753571Y-94272381D01*
X80848809Y-94272381D01*
X80991667Y-94224762D01*
X81086905Y-94129524D01*
X81134524Y-94034286D01*
X81182143Y-93843810D01*
X81182143Y-93700952D01*
X81134524Y-93510476D01*
X81086905Y-93415238D01*
X80991667Y-93320000D01*
X80848809Y-93272381D01*
X80753571Y-93272381D01*
X80610714Y-93320000D01*
X80563095Y-93367619D01*
X79991667Y-94272381D02*
X80086905Y-94224762D01*
X80134524Y-94177143D01*
X80182143Y-94081905D01*
X80182143Y-93796190D01*
X80134524Y-93700952D01*
X80086905Y-93653333D01*
X79991667Y-93605714D01*
X79848809Y-93605714D01*
X79753571Y-93653333D01*
X79705952Y-93700952D01*
X79658333Y-93796190D01*
X79658333Y-94081905D01*
X79705952Y-94177143D01*
X79753571Y-94224762D01*
X79848809Y-94272381D01*
X79991667Y-94272381D01*
X79229762Y-93605714D02*
X79229762Y-94272381D01*
X79229762Y-93700952D02*
X79182143Y-93653333D01*
X79086905Y-93605714D01*
X78944047Y-93605714D01*
X78848809Y-93653333D01*
X78801190Y-93748571D01*
X78801190Y-94272381D01*
X78325000Y-93605714D02*
X78325000Y-94272381D01*
X78325000Y-93700952D02*
X78277381Y-93653333D01*
X78182143Y-93605714D01*
X78039285Y-93605714D01*
X77944047Y-93653333D01*
X77896428Y-93748571D01*
X77896428Y-94272381D01*
X77658333Y-94367619D02*
X76896428Y-94367619D01*
X76467857Y-93272381D02*
X76372618Y-93272381D01*
X76277380Y-93320000D01*
X76229761Y-93367619D01*
X76182142Y-93462857D01*
X76134523Y-93653333D01*
X76134523Y-93891429D01*
X76182142Y-94081905D01*
X76229761Y-94177143D01*
X76277380Y-94224762D01*
X76372618Y-94272381D01*
X76467857Y-94272381D01*
X76563095Y-94224762D01*
X76610714Y-94177143D01*
X76658333Y-94081905D01*
X76705952Y-93891429D01*
X76705952Y-93653333D01*
X76658333Y-93462857D01*
X76610714Y-93367619D01*
X76563095Y-93320000D01*
X76467857Y-93272381D01*
X75182142Y-94272381D02*
X75753571Y-94272381D01*
X75467857Y-94272381D02*
X75467857Y-93272381D01*
X75563095Y-93415238D01*
X75658333Y-93510476D01*
X75753571Y-93558095D01*
X74848809Y-94272381D02*
X74324999Y-93605714D01*
X74848809Y-93605714D02*
X74324999Y-94272381D01*
X73753571Y-93272381D02*
X73658332Y-93272381D01*
X73563094Y-93320000D01*
X73515475Y-93367619D01*
X73467856Y-93462857D01*
X73420237Y-93653333D01*
X73420237Y-93891429D01*
X73467856Y-94081905D01*
X73515475Y-94177143D01*
X73563094Y-94224762D01*
X73658332Y-94272381D01*
X73753571Y-94272381D01*
X73848809Y-94224762D01*
X73896428Y-94177143D01*
X73944047Y-94081905D01*
X73991666Y-93891429D01*
X73991666Y-93653333D01*
X73944047Y-93462857D01*
X73896428Y-93367619D01*
X73848809Y-93320000D01*
X73753571Y-93272381D01*
X72563094Y-93272381D02*
X72753571Y-93272381D01*
X72848809Y-93320000D01*
X72896428Y-93367619D01*
X72991666Y-93510476D01*
X73039285Y-93700952D01*
X73039285Y-94081905D01*
X72991666Y-94177143D01*
X72944047Y-94224762D01*
X72848809Y-94272381D01*
X72658332Y-94272381D01*
X72563094Y-94224762D01*
X72515475Y-94177143D01*
X72467856Y-94081905D01*
X72467856Y-93843810D01*
X72515475Y-93748571D01*
X72563094Y-93700952D01*
X72658332Y-93653333D01*
X72848809Y-93653333D01*
X72944047Y-93700952D01*
X72991666Y-93748571D01*
X73039285Y-93843810D01*
X76277381Y-102166667D02*
X76991667Y-102166667D01*
X77134524Y-102119047D01*
X77229762Y-102023809D01*
X77277381Y-101880952D01*
X77277381Y-101785714D01*
X77277381Y-103166667D02*
X77277381Y-102595238D01*
X77277381Y-102880952D02*
X76277381Y-102880952D01*
X76420238Y-102785714D01*
X76515476Y-102690476D01*
X76563095Y-102595238D01*
M02*
