<?xml version="1.0" encoding="UTF-8" standalone="no"?>
<svg
   xmlns:dc="http://purl.org/dc/elements/1.1/"
   xmlns:cc="http://creativecommons.org/ns#"
   xmlns:rdf="http://www.w3.org/1999/02/22-rdf-syntax-ns#"
   xmlns:svg="http://www.w3.org/2000/svg"
   xmlns="http://www.w3.org/2000/svg"
   xmlns:sodipodi="http://sodipodi.sourceforge.net/DTD/sodipodi-0.dtd"
   xmlns:inkscape="http://www.inkscape.org/namespaces/inkscape"
   width="297mm"
   height="210mm"
   viewBox="-10 -16 296.99999 210"
   version="1.1"
   id="svg11023"
   sodipodi:docname="connector-cut.svg"
   inkscape:version="0.92.3 (2405546, 2018-03-11)">
  <metadata
     id="metadata11029">
    <rdf:RDF>
      <cc:Work
         rdf:about="">
        <dc:format>image/svg+xml</dc:format>
        <dc:type
           rdf:resource="http://purl.org/dc/dcmitype/StillImage" />
        <dc:title>OpenSCAD Model</dc:title>
      </cc:Work>
    </rdf:RDF>
  </metadata>
  <defs
     id="defs11027" />
  <sodipodi:namedview
     pagecolor="#ffffff"
     bordercolor="#666666"
     borderopacity="1"
     objecttolerance="10"
     gridtolerance="10"
     guidetolerance="10"
     inkscape:pageopacity="0"
     inkscape:pageshadow="2"
     inkscape:window-width="1366"
     inkscape:window-height="713"
     id="namedview11025"
     showgrid="true"
     inkscape:measure-start="-30.117,49.3918"
     inkscape:measure-end="49.9942,-8.43275"
     units="mm"
     inkscape:document-units="mm"
     inkscape:zoom="0.5869673"
     inkscape:cx="693.6753"
     inkscape:cy="345.56725"
     inkscape:window-x="0"
     inkscape:window-y="27"
     inkscape:window-maximized="1"
     inkscape:current-layer="svg11023"
     inkscape:snap-bbox="true"
     inkscape:snap-bbox-midpoints="true"
     inkscape:object-nodes="false"
     inkscape:snap-nodes="false"
     scale-x="1">
    <inkscape:grid
       type="xygrid"
       id="grid13804" />
  </sodipodi:namedview>
  <title
     id="title11019">OpenSCAD Model</title>
  <rect
     style="opacity:1;fill:none;fill-opacity:1;stroke:#000000;stroke-width:0.26458332;stroke-miterlimit:4;stroke-dasharray:none;stroke-opacity:1"
     id="rect13806-3-3"
     width="85.000015"
     height="54.999996"
     x="-7.2114563"
     y="-13.079162" />
  <path
     style="fill:none;fill-opacity:1;stroke:#000000;stroke-width:0.5"
     d="m 68.471,11.905981 0.469,-0.0443 0.465,-0.0737 0.46,-0.10278 0.453,-0.13144 0.443,-0.15961 0.432,-0.18712 0.42,-0.2139 0.406,-0.23984 0.389,-0.26483 0.37301,-0.28879 0.353,-0.3115897 0.333,-0.33316 0.312,-0.3534097 0.289,-0.3722797 0.264,-0.3897 0.24,-0.4055497 0.214,-0.4197997 0.187,-0.4324097 0.16,-0.4432997 0.131,-0.4524597 0.103,-0.45982 0.074,-0.4653597 0.044,-0.4690697 0.015,-0.4709197 v -14.126902 l -0.688,-0.3503003 -0.922,-0.3992 -0.946,-0.3405 -0.96501,-0.2804 -0.981,-0.219305 -0.748,-0.1185 v 4.8351038 h -4.5 v -4.8351038 l -0.748,0.1185 -0.981,0.219305 -0.965,0.2804 -0.946,0.3405 -0.922,0.3992 -0.896,0.4563003 -0.865,0.5117 -0.832,0.5648996 -0.201,0.1562998 3.419,3.4188382 -3.182,3.1819882 -3.41901,-3.4188482 -0.156,0.20146 -0.565,0.8313294 -0.512,0.8651897 -0.456,0.8955994 -0.399,0.9224694 -0.341,0.94571929 -0.28,0.96522967 -0.22,0.98093934 -0.118,0.7480894 h 4.835 v 4.4999776 h -4.835 l 0.118,0.7481094 0.22,0.9809397 0.28,0.9652194 0.341,0.9457194 0.399,0.92248 0.35,0.68755 H 68 Z"
     id="path408"
     inkscape:connector-curvature="0" />
  <path
     style="fill:none;fill-opacity:1;stroke:#000000;stroke-width:0.5"
     d="m 67.859,6.6663431 -0.141,-0.0133 -0.14,-0.0221 -0.138,-0.0308 -0.135,-0.0394 -0.133,-0.0479 -0.13,-0.0561 -0.126,-0.0642 -0.122,-0.072 -0.117,-0.0794 -0.111,-0.0866 -0.106,-0.0935 -0.1,-0.1 -0.094,-0.10603 -0.086,-0.1116797 -0.08,-0.11691 -0.072,-0.12166 -0.064,-0.12595 -0.056,-0.12971 -0.048,-0.1329997 -0.039,-0.13574 -0.031,-0.13794 -0.022,-0.1395997 -0.014,-0.14073 -0.004,-0.14127 0.004,-0.14127 0.014,-0.1407297 0.022,-0.1396 0.031,-0.13794 0.039,-0.13574 0.048,-0.1329997 0.056,-0.12971 0.064,-0.12595 0.072,-0.12166 0.08,-0.1169097 0.086,-0.11168 0.094,-0.10603 0.1,-0.1 0.106,-0.0935 0.111,-0.0866 0.117,-0.0794 0.122,-0.072 0.126,-0.0642 0.13,-0.0561 0.133,-0.0479 0.135,-0.0394 0.138,-0.0308 0.14,-0.0221 0.141,-0.0133 0.141,-0.004 0.141,0.004 0.141,0.0133 0.14,0.0221 0.138,0.0308 0.135,0.0394 0.133,0.0479 0.13,0.0561 0.126,0.0642 0.122,0.072 0.117,0.0794 0.111,0.0866 0.106,0.0935 0.1,0.1 0.094,0.10603 0.086,0.11168 0.08,0.1169097 0.072,0.12166 0.064,0.12595 0.056,0.12971 0.048,0.1329997 0.039,0.13574 0.031,0.13794 0.022,0.1396 0.014,0.1407297 0.004,0.14127 -0.004,0.14127 -0.014,0.14073 -0.022,0.1395997 -0.031,0.13794 -0.039,0.13574 -0.048,0.1329997 -0.056,0.12971 -0.064,0.12595 -0.072,0.12166 -0.08,0.11691 -0.086,0.1116797 -0.094,0.10603 -0.1,0.1 -0.106,0.0935 -0.111,0.0866 -0.117,0.0794 -0.122,0.072 -0.126,0.0642 -0.13,0.0561 -0.133,0.0479 -0.135,0.0394 -0.138,0.0308 -0.14,0.0221 -0.141,0.0133 -0.141,0.004 z"
     id="path406"
     inkscape:connector-curvature="0" />
  <path
     style="fill:none;fill-opacity:1;stroke:#000000;stroke-width:0.5"
     d="m 8.17629,13.865441 0.77911,-0.0984 0.7714,-0.1472 0.7606,-0.1953 0.7468,-0.2426 0.7301,-0.2891 0.7106,-0.3343 0.6881,-0.3783 0.663,-0.4208 0.0756,-0.0549 -3.7429,-3.7428788 3.182,-3.1819682 3.7429,3.7428579 0.0549,-0.0756 L 17.7593,7.7839325 18.1376,7.0957928 18.4719,6.3852531 18.761,5.6551437 19.0036,4.908304 19.1989,4.1477046 19.3461,3.3763549 19.4445,2.5972752 19.4938,1.8135658 V 1.0282861 L 19.4445,0.24457676 19.3461,-0.53450291 19.1989,-1.3058522 19.0036,-2.066462 18.761,-2.8133013 18.4719,-3.543421 l -0.3343,-0.7105398 -0.3783,-0.6881393 -0.4208,-0.6630097 -0.0549,-0.0756 -3.7429,3.7428579 -3.182,-3.1819782 3.7429,-3.7428779 -0.0756,-0.0549 -0.663,-0.4207997 -0.6881,-0.3783 -0.7106,-0.3343003 -0.7301,-0.2891 -0.7468,-0.2426 -0.7606,-0.1953 -0.7714,-0.1472 -0.77911,-0.0984 -0.7837,-0.0493 h -0.7853 l -0.7837,0.0493 -0.779,0.0984 -0.7714,0.1472 -0.7606,0.1953 -0.7468,0.2426 -0.7302,0.2891 -0.7105,0.3343003 -0.6881,0.3783 -0.663,0.4207997 -0.0756,0.0549 3.7428,3.7428779 -3.1819,3.1819782 -3.7429,-3.7428579 -0.0549,0.0756 -0.4208,0.6630097 -0.3783,0.6881393 -0.3343,0.7105398 -0.2891,0.7301197 -0.2427,0.7468393 -0.1953,0.7606098 -0.1471,0.77134929 -0.0984,0.77907967 -0.0493,0.78370934 v 0.7852797 l 0.0493,0.7837094 0.0984,0.7790797 0.1471,0.7713497 0.1953,0.7605994 0.2427,0.7468397 0.2891,0.7301094 0.3343,0.7105397 0.3783,0.6881397 0.4208,0.6630194 0.0549,0.0756 3.7429,-3.7428579 3.1819,3.1819682 -3.7428,3.7428788 0.0756,0.0549 0.663,0.4208 0.6881,0.3783 0.7105,0.3343 0.7302,0.2891 0.7468,0.2426 0.7606,0.1953 0.7714,0.1472 0.779,0.0984 0.7837,0.0493 h 0.7853 z"
     id="path404"
     inkscape:connector-curvature="0" />
  <path
     style="fill:none;fill-opacity:1;stroke:#000000;stroke-width:0.5"
     d="m 6.92929,3.6698146 -0.141,-0.009 -0.1403,-0.0177 -0.1388,-0.0265 -0.1369,-0.0352 -0.1345,-0.0437 -0.1314,-0.052 -0.1279,-0.0602 -0.1239,-0.0681 -0.1193,-0.0757 -0.1143,-0.0831 -0.109,-0.0901 -0.103,-0.0967 -0.0967,-0.10304 -0.0901,-0.10892 -0.0831,-0.11435 -0.0758,-0.1193397 -0.0681,-0.12387 -0.0602,-0.1279 -0.052,-0.13141 -0.0437,-0.1344397 -0.0351,-0.1369 -0.0265,-0.13884 -0.0177,-0.14025 -0.009,-0.1410697 v -0.14132 l 0.009,-0.14107 0.0177,-0.14024 0.0265,-0.13883967 0.0351,-0.13691 0.0437,-0.13444 0.052,-0.13141 0.0602,-0.12789967 0.0681,-0.12387 0.0758,-0.11934 0.0831,-0.11435 0.0901,-0.10891967 0.0967,-0.10304 0.103,-0.0967 0.109,-0.0901 0.1143,-0.0831 0.1193,-0.0757 0.1239,-0.0681 0.1279,-0.0602 0.1314,-0.052 0.1345,-0.0437 0.1369,-0.0352 0.1388,-0.0265 0.1403,-0.0177 0.141,-0.009 h 0.1414 l 0.141,0.009 0.1403,0.0177 0.1388,0.0265 0.1369,0.0352 0.1345,0.0437 0.1314,0.052 0.1279,0.0602 0.1238,0.0681 0.1194,0.0757 0.1143,0.0831 0.10891,0.0901 0.1031,0.0967 0.0967,0.10304 0.0901,0.10891967 0.0831,0.11435 0.0757,0.11934 0.0681,0.12387 0.0602,0.12789967 0.0521,0.13141 0.0436,0.13444 0.0352,0.13691 0.0265,0.13883967 0.0177,0.14024 0.009,0.14107 v 0.14132 l -0.009,0.1410697 -0.0177,0.14025 -0.0265,0.13884 -0.0352,0.1369 -0.0436,0.1344397 -0.0521,0.13141 -0.0602,0.1279 -0.0681,0.12387 -0.0757,0.1193397 -0.0831,0.11435 -0.0901,0.10892 -0.0967,0.10304 -0.1031,0.0967 -0.10891,0.0901 -0.1143,0.0831 -0.1194,0.0757 -0.1238,0.0681 -0.1279,0.0602 -0.1314,0.052 -0.1345,0.0437 -0.1369,0.0352 -0.1388,0.0265 -0.1403,0.0177 -0.141,0.009 z"
     id="path402"
     inkscape:connector-curvature="0" />
  <path
     style="fill:none;fill-opacity:1;stroke:#000000;stroke-width:0.5"
     d="m 7.25119,5.4129387 0.2501,-0.0237 0.2482,-0.0393 0.2453,-0.0548 0.2413,-0.0701 0.2364,-0.0851 0.2306,-0.0998 0.2239,-0.11407 0.21631,-0.12792 0.2078,-0.1412497 0.1986,-0.154 0.1885,-0.16619 0.1777,-0.1776897 0.1661,-0.18849 0.0386,-0.0497 H 19.5 v -4.9999969 h -9.3794 l -0.0386,-0.0497 -0.1661,-0.18849 -0.1777,-0.17769 -0.1885,-0.1661897 -0.1986,-0.154 -0.2078,-0.14126 -0.21631,-0.12792 -0.2239,-0.1140697 -0.2306,-0.0998 -0.2364,-0.0851 -0.2413,-0.0701 -0.2453,-0.0548 -0.2482,-0.0393 -0.2501,-0.0237 -0.2512,-0.008 -0.2512,0.008 -0.2501,0.0237 -0.2482,0.0393 -0.2453,0.0548 -0.2413,0.0701 -0.2364,0.0851 -0.2306,0.0998 -0.2239,0.1140697 -0.2163,0.12792 -0.2078,0.14126 -0.1986,0.154 -0.1885,0.1661897 -0.1777,0.17769 -0.1661,0.18849 -0.0386,0.0497 h -9.3794 v 4.9999972 h 9.3794 l 0.0386,0.0497 0.1661,0.18849 0.1777,0.1776897 0.1885,0.16619 0.1986,0.154 0.2078,0.1412497 0.2163,0.12792 0.2239,0.11407 0.2306,0.0998 0.2364,0.0851 0.2413,0.0701 0.2453,0.0548 0.2482,0.0393 0.2501,0.0237 0.2512,0.008 z"
     id="path366"
     inkscape:connector-curvature="0" />
  <path
     style="fill:none;fill-opacity:1;stroke:#000000;stroke-width:0.5"
     d="m 68.471,39.905981 0.469,-0.0443 0.465,-0.0737 0.46,-0.10278 0.453,-0.13144 0.443,-0.15961 0.432,-0.18712 0.42,-0.2139 0.406,-0.23984 0.389,-0.26483 0.37301,-0.28879 0.353,-0.31159 0.333,-0.33316 0.312,-0.35341 0.289,-0.37228 0.264,-0.3897 0.24,-0.40555 0.214,-0.4198 0.187,-0.43241 0.16,-0.4433 0.131,-0.45246 0.103,-0.45982 0.074,-0.46536 0.044,-0.46907 0.015,-0.47092 v -14.12691 l -0.688,-0.3503 -0.922,-0.3992 -0.946,-0.3405 -0.96501,-0.2804 -0.981,-0.21931 -0.748,-0.1185 v 4.83511 h -4.5 v -4.83511 l -0.748,0.1185 -0.981,0.21931 -0.965,0.2804 -0.946,0.3405 -0.922,0.3992 -0.896,0.4563 -0.865,0.5117 -0.832,0.5649 -0.201,0.1563 3.419,3.41884 -3.182,3.18199 -3.41901,-3.41885 -0.156,0.20146 -0.565,0.83133 -0.512,0.86519 -0.456,0.8956 -0.399,0.92247 -0.341,0.94572 -0.28,0.96523 -0.22,0.98094 -0.118,0.74809 h 4.835 v 4.49998 h -4.835 l 0.118,0.74811 0.22,0.98094 0.28,0.96522 0.341,0.94572 0.399,0.92248 0.35,0.68755 H 68 Z"
     id="path408-6"
     inkscape:connector-curvature="0" />
  <path
     style="fill:none;fill-opacity:1;stroke:#000000;stroke-width:0.5"
     d="m 67.859,34.666341 -0.141,-0.0133 -0.14,-0.0221 -0.138,-0.0308 -0.135,-0.0394 -0.133,-0.0479 -0.13,-0.0561 -0.126,-0.0642 -0.122,-0.072 -0.117,-0.0794 -0.111,-0.0866 -0.106,-0.0935 -0.1,-0.1 -0.094,-0.10603 -0.086,-0.11168 -0.08,-0.11691 -0.072,-0.12166 -0.064,-0.12595 -0.056,-0.12971 -0.048,-0.133 -0.039,-0.13574 -0.031,-0.13794 -0.022,-0.1396 -0.014,-0.14073 -0.004,-0.14127 0.004,-0.14127 0.014,-0.14073 0.022,-0.1396 0.031,-0.13794 0.039,-0.13574 0.048,-0.133 0.056,-0.12971 0.064,-0.12595 0.072,-0.12166 0.08,-0.11691 0.086,-0.11168 0.094,-0.10603 0.1,-0.1 0.106,-0.0935 0.111,-0.0866 0.117,-0.0794 0.122,-0.072 0.126,-0.0642 0.13,-0.0561 0.133,-0.0479 0.135,-0.0394 0.138,-0.0308 0.14,-0.0221 0.141,-0.0133 0.141,-0.004 0.141,0.004 0.141,0.0133 0.14,0.0221 0.138,0.0308 0.135,0.0394 0.133,0.0479 0.13,0.0561 0.126,0.0642 0.122,0.072 0.117,0.0794 0.111,0.0866 0.106,0.0935 0.1,0.1 0.094,0.10603 0.086,0.11168 0.08,0.11691 0.072,0.12166 0.064,0.12595 0.056,0.12971 0.048,0.133 0.039,0.13574 0.031,0.13794 0.022,0.1396 0.014,0.14073 0.004,0.14127 -0.004,0.14127 -0.014,0.14073 -0.022,0.1396 -0.031,0.13794 -0.039,0.13574 -0.048,0.133 -0.056,0.12971 -0.064,0.12595 -0.072,0.12166 -0.08,0.11691 -0.086,0.11168 -0.094,0.10603 -0.1,0.1 -0.106,0.0935 -0.111,0.0866 -0.117,0.0794 -0.122,0.072 -0.126,0.0642 -0.13,0.0561 -0.133,0.0479 -0.135,0.0394 -0.138,0.0308 -0.14,0.0221 -0.141,0.0133 -0.141,0.004 z"
     id="path406-7"
     inkscape:connector-curvature="0" />
  <path
     style="fill:none;fill-opacity:1;stroke:#000000;stroke-width:0.5"
     d="m 40.471,39.905981 0.469,-0.0443 0.465,-0.0737 0.46,-0.10278 0.453,-0.13144 0.443,-0.15961 0.432,-0.18712 0.42,-0.2139 0.406,-0.23984 0.389,-0.26483 0.37301,-0.28879 0.353,-0.31159 0.333,-0.33316 0.312,-0.35341 0.289,-0.37228 0.264,-0.3897 0.24,-0.40555 0.214,-0.4198 0.187,-0.43241 0.16,-0.4433 0.131,-0.45246 0.103,-0.45982 0.074,-0.46536 0.044,-0.46907 0.015,-0.47092 v -14.12691 l -0.688,-0.3503 -0.922,-0.3992 -0.946,-0.3405 -0.96501,-0.2804 -0.981,-0.21931 -0.748,-0.1185 v 4.83511 h -4.5 v -4.83511 l -0.748,0.1185 -0.981,0.21931 -0.965,0.2804 -0.946,0.3405 -0.922,0.3992 -0.896,0.4563 -0.865,0.5117 -0.832,0.5649 -0.201,0.1563 3.419,3.41884 -3.182,3.18199 -3.41901,-3.41885 -0.156,0.20146 -0.565,0.83133 -0.512,0.86519 -0.456,0.8956 -0.399,0.92247 -0.341,0.94572 -0.28,0.96523 -0.22,0.98094 -0.118,0.74809 h 4.835 v 4.49998 h -4.835 l 0.118,0.74811 0.22,0.98094 0.28,0.96522 0.341,0.94572 0.399,0.92248 0.35,0.68755 H 40 Z"
     id="path408-5"
     inkscape:connector-curvature="0" />
  <path
     style="fill:none;fill-opacity:1;stroke:#000000;stroke-width:0.5"
     d="m 39.859,34.666341 -0.141,-0.0133 -0.14,-0.0221 -0.138,-0.0308 -0.135,-0.0394 -0.133,-0.0479 -0.13,-0.0561 -0.126,-0.0642 -0.122,-0.072 -0.117,-0.0794 -0.111,-0.0866 -0.106,-0.0935 -0.1,-0.1 -0.094,-0.10603 -0.086,-0.11168 -0.08,-0.11691 -0.072,-0.12166 -0.064,-0.12595 -0.056,-0.12971 -0.048,-0.133 -0.039,-0.13574 -0.031,-0.13794 -0.022,-0.1396 -0.014,-0.14073 -0.004,-0.14127 0.004,-0.14127 0.014,-0.14073 0.022,-0.1396 0.031,-0.13794 0.039,-0.13574 0.048,-0.133 0.056,-0.12971 0.064,-0.12595 0.072,-0.12166 0.08,-0.11691 0.086,-0.11168 0.094,-0.10603 0.1,-0.1 0.106,-0.0935 0.111,-0.0866 0.117,-0.0794 0.122,-0.072 0.126,-0.0642 0.13,-0.0561 0.133,-0.0479 0.135,-0.0394 0.138,-0.0308 0.14,-0.0221 0.141,-0.0133 0.141,-0.004 0.141,0.004 0.141,0.0133 0.14,0.0221 0.138,0.0308 0.135,0.0394 0.133,0.0479 0.13,0.0561 0.126,0.0642 0.122,0.072 0.117,0.0794 0.111,0.0866 0.106,0.0935 0.1,0.1 0.094,0.10603 0.086,0.11168 0.08,0.11691 0.072,0.12166 0.064,0.12595 0.056,0.12971 0.048,0.133 0.039,0.13574 0.031,0.13794 0.022,0.1396 0.014,0.14073 0.004,0.14127 -0.004,0.14127 -0.014,0.14073 -0.022,0.1396 -0.031,0.13794 -0.039,0.13574 -0.048,0.133 -0.056,0.12971 -0.064,0.12595 -0.072,0.12166 -0.08,0.11691 -0.086,0.11168 -0.094,0.10603 -0.1,0.1 -0.106,0.0935 -0.111,0.0866 -0.117,0.0794 -0.122,0.072 -0.126,0.0642 -0.13,0.0561 -0.133,0.0479 -0.135,0.0394 -0.138,0.0308 -0.14,0.0221 -0.141,0.0133 -0.141,0.004 z"
     id="path406-3"
     inkscape:connector-curvature="0" />
  <path
     style="fill:none;fill-opacity:1;stroke:#000000;stroke-width:0.5"
     d="m 40.471,11.905981 0.469,-0.0443 0.465,-0.0737 0.46,-0.10278 0.453,-0.13144 0.443,-0.15961 0.432,-0.18712 0.42,-0.2139 0.406,-0.23984 0.389,-0.26483 0.37301,-0.28879 0.353,-0.3115897 0.333,-0.33316 0.312,-0.3534097 0.289,-0.3722797 0.264,-0.3897 0.24,-0.4055497 0.214,-0.4197997 0.187,-0.4324097 0.16,-0.4432997 0.131,-0.4524597 0.103,-0.45982 0.074,-0.4653597 0.044,-0.4690697 0.015,-0.4709197 v -14.126904 l -0.688,-0.3503003 -0.922,-0.3992 -0.946,-0.3405 -0.96501,-0.2804 -0.981,-0.219305 -0.748,-0.1185 v 4.8351058 h -4.5 v -4.8351058 l -0.748,0.1185 -0.981,0.219305 -0.965,0.2804 -0.946,0.3405 -0.922,0.3992 -0.896,0.4563003 -0.865,0.5117 -0.832,0.5649016 -0.201,0.1562998 3.419,3.4188382 -3.182,3.1819882 -3.41901,-3.4188482 -0.156,0.20146 -0.565,0.8313294 -0.512,0.8651897 -0.456,0.8955994 -0.399,0.9224694 -0.341,0.94571929 -0.28,0.96522967 -0.22,0.98093934 -0.118,0.7480894 h 4.835 v 4.4999776 h -4.835 l 0.118,0.7481094 0.22,0.9809397 0.28,0.9652194 0.341,0.9457194 0.399,0.92248 0.35,0.68755 H 40 Z"
     id="path408-56"
     inkscape:connector-curvature="0" />
  <path
     style="fill:none;fill-opacity:1;stroke:#000000;stroke-width:0.5"
     d="m 39.859,6.6663431 -0.141,-0.0133 -0.14,-0.0221 -0.138,-0.0308 -0.135,-0.0394 -0.133,-0.0479 -0.13,-0.0561 -0.126,-0.0642 -0.122,-0.072 -0.117,-0.0794 -0.111,-0.0866 -0.106,-0.0935 -0.1,-0.1 -0.094,-0.10603 -0.086,-0.1116797 -0.08,-0.11691 -0.072,-0.12166 -0.064,-0.12595 -0.056,-0.12971 -0.048,-0.1329997 -0.039,-0.13574 -0.031,-0.13794 -0.022,-0.1395997 -0.014,-0.14073 -0.004,-0.14127 0.004,-0.14127 0.014,-0.1407297 0.022,-0.1396 0.031,-0.13794 0.039,-0.13574 0.048,-0.1329997 0.056,-0.12971 0.064,-0.12595 0.072,-0.12166 0.08,-0.1169097 0.086,-0.11168 0.094,-0.10603 0.1,-0.1 0.106,-0.0935 0.111,-0.0866 0.117,-0.0794 0.122,-0.072 0.126,-0.0642 0.13,-0.0561 0.133,-0.0479 0.135,-0.0394 0.138,-0.0308 0.14,-0.0221 0.141,-0.0133 0.141,-0.004 0.141,0.004 0.141,0.0133 0.14,0.0221 0.138,0.0308 0.135,0.0394 0.133,0.0479 0.13,0.0561 0.126,0.0642 0.122,0.072 0.117,0.0794 0.111,0.0866 0.106,0.0935 0.1,0.1 0.094,0.10603 0.086,0.11168 0.08,0.1169097 0.072,0.12166 0.064,0.12595 0.056,0.12971 0.048,0.1329997 0.039,0.13574 0.031,0.13794 0.022,0.1396 0.014,0.1407297 0.004,0.14127 -0.004,0.14127 -0.014,0.14073 -0.022,0.1395997 -0.031,0.13794 -0.039,0.13574 -0.048,0.1329997 -0.056,0.12971 -0.064,0.12595 -0.072,0.12166 -0.08,0.11691 -0.086,0.1116797 -0.094,0.10603 -0.1,0.1 -0.106,0.0935 -0.111,0.0866 -0.117,0.0794 -0.122,0.072 -0.126,0.0642 -0.13,0.0561 -0.133,0.0479 -0.135,0.0394 -0.138,0.0308 -0.14,0.0221 -0.141,0.0133 -0.141,0.004 z"
     id="path406-2"
     inkscape:connector-curvature="0" />
  <path
     style="fill:none;fill-opacity:1;stroke:#000000;stroke-width:0.5"
     d="m 8.1763,40.865441 0.77911,-0.0984 0.7714,-0.1472 0.7606,-0.1953 0.7468,-0.2426 0.7301,-0.2891 0.7106,-0.3343 0.6881,-0.3783 0.663,-0.4208 0.0756,-0.0549 -3.7429,-3.74288 3.182,-3.18197 3.7429,3.74286 0.0549,-0.0756 0.4208,-0.66302 0.3783,-0.68814 0.3343,-0.71054 0.2891,-0.73011 0.2426,-0.74684 0.1953,-0.7606 0.1472,-0.77135 0.0984,-0.77908 0.0493,-0.78371 v -0.78528 l -0.0493,-0.78371 -0.0984,-0.77908 -0.1472,-0.77135 -0.1953,-0.76061 -0.2426,-0.74684 -0.2891,-0.73012 -0.3343,-0.71054 -0.3783,-0.68814 -0.4208,-0.66301 -0.0549,-0.0756 -3.7429,3.74286 -3.182,-3.18198 3.7429,-3.74288 -0.0756,-0.0549 -0.663,-0.4208 -0.6881,-0.3783 -0.7106,-0.3343 -0.7301,-0.2891 -0.7468,-0.2426 -0.7606,-0.1953 -0.7714,-0.1472 -0.77911,-0.0984 -0.7837,-0.0493 H 6.6073 l -0.7837,0.0493 -0.779,0.0984 -0.7714,0.1472 -0.7606,0.1953 -0.7468,0.2426 -0.7302,0.2891 -0.7105,0.3343 -0.6881,0.3783 -0.663,0.4208 -0.0756,0.0549 3.7428,3.74288 -3.1819,3.18198 -3.7429,-3.74286 -0.0549,0.0756 -0.4208,0.66301 -0.3783,0.68814 -0.3343,0.71054 -0.2891,0.73012 -0.2427,0.74684 -0.1953,0.76061 -0.1471,0.77135 -0.0984,0.77908 -0.0493,0.78371 v 0.78528 l 0.0493,0.78371 0.0984,0.77908 0.1471,0.77135 0.1953,0.7606 0.2427,0.74684 0.2891,0.73011 0.3343,0.71054 0.3783,0.68814 0.4208,0.66302 0.0549,0.0756 3.7429,-3.74286 3.1819,3.18197 -3.7428,3.74288 0.0756,0.0549 0.663,0.4208 0.6881,0.3783 0.7105,0.3343 0.7302,0.2891 0.7468,0.2426 0.7606,0.1953 0.7714,0.1472 0.779,0.0984 0.7837,0.0493 h 0.7853 z"
     id="path404-2"
     inkscape:connector-curvature="0" />
  <path
     style="fill:none;fill-opacity:1;stroke:#000000;stroke-width:0.5"
     d="m 6.9293,30.669811 -0.141,-0.009 -0.1403,-0.0177 -0.1388,-0.0265 -0.1369,-0.0352 -0.1345,-0.0437 -0.1314,-0.052 -0.1279,-0.0602 -0.1239,-0.0681 -0.1193,-0.0757 -0.1143,-0.0831 -0.109,-0.0901 -0.103,-0.0967 -0.0967,-0.10304 -0.0901,-0.10892 -0.0831,-0.11435 -0.0758,-0.11934 -0.0681,-0.12387 -0.0602,-0.1279 -0.052,-0.13141 -0.0437,-0.13444 -0.0351,-0.1369 -0.0265,-0.13884 -0.0177,-0.14025 -0.009,-0.14107 v -0.14132 l 0.009,-0.14107 0.0177,-0.14024 0.0265,-0.13884 0.0351,-0.13691 0.0437,-0.13444 0.052,-0.13141 0.0602,-0.1279 0.0681,-0.12387 0.0758,-0.11934 0.0831,-0.11435 0.0901,-0.10892 0.0967,-0.10304 0.103,-0.0967 0.109,-0.0901 0.1143,-0.0831 0.1193,-0.0757 0.1239,-0.0681 0.1279,-0.0602 0.1314,-0.052 0.1345,-0.0437 0.1369,-0.0352 0.1388,-0.0265 0.1403,-0.0177 0.141,-0.009 h 0.1414 l 0.141,0.009 0.1403,0.0177 0.1388,0.0265 0.1369,0.0352 0.1345,0.0437 0.1314,0.052 0.1279,0.0602 0.1238,0.0681 0.1194,0.0757 0.1143,0.0831 0.10891,0.0901 0.1031,0.0967 0.0967,0.10304 0.0901,0.10892 0.0831,0.11435 0.0757,0.11934 0.0681,0.12387 0.0602,0.1279 0.0521,0.13141 0.0436,0.13444 0.0352,0.13691 0.0265,0.13884 0.0177,0.14024 0.009,0.14107 v 0.14132 l -0.009,0.14107 -0.0177,0.14025 -0.0265,0.13884 -0.0352,0.1369 -0.0436,0.13444 -0.0521,0.13141 -0.0602,0.1279 -0.0681,0.12387 -0.0757,0.11934 -0.0831,0.11435 -0.0901,0.10892 -0.0967,0.10304 -0.1031,0.0967 -0.10891,0.0901 -0.1143,0.0831 -0.1194,0.0757 -0.1238,0.0681 -0.1279,0.0602 -0.1314,0.052 -0.1345,0.0437 -0.1369,0.0352 -0.1388,0.0265 -0.1403,0.0177 -0.141,0.009 z"
     id="path402-7"
     inkscape:connector-curvature="0" />
  <path
     style="fill:none;fill-opacity:1;stroke:#000000;stroke-width:0.5"
     d="m 7.2512,32.412941 0.2501,-0.0237 0.2482,-0.0393 0.2453,-0.0548 0.2413,-0.0701 0.2364,-0.0851 0.2306,-0.0998 0.2239,-0.11407 0.21631,-0.12792 0.2078,-0.14125 0.1986,-0.154 0.1885,-0.16619 0.1777,-0.17769 0.1661,-0.18849 0.0386,-0.0497 h 9.3794 v -5 h -9.3794 l -0.0386,-0.0497 -0.1661,-0.18849 -0.1777,-0.17769 -0.1885,-0.16619 -0.1986,-0.154 -0.2078,-0.14126 -0.21631,-0.12792 -0.2239,-0.11407 -0.2306,-0.0998 -0.2364,-0.0851 -0.2413,-0.0701 -0.2453,-0.0548 -0.2482,-0.0393 -0.2501,-0.0237 -0.2512,-0.008 -0.2512,0.008 -0.2501,0.0237 -0.2482,0.0393 -0.2453,0.0548 -0.2413,0.0701 -0.2364,0.0851 -0.2306,0.0998 -0.2239,0.11407 -0.2163,0.12792 -0.2078,0.14126 -0.1986,0.154 -0.1885,0.16619 -0.1777,0.17769 -0.1661,0.18849 -0.0386,0.0497 H -5.5 v 5 h 9.3794 l 0.0386,0.0497 0.1661,0.18849 0.1777,0.17769 0.1885,0.16619 0.1986,0.154 0.2078,0.14125 0.2163,0.12792 0.2239,0.11407 0.2306,0.0998 0.2364,0.0851 0.2413,0.0701 0.2453,0.0548 0.2482,0.0393 0.2501,0.0237 0.2512,0.008 z"
     id="path366-0"
     inkscape:connector-curvature="0" />
</svg>
