<?xml version="1.0" encoding="UTF-8" standalone="no"?>
<svg
   xmlns:dc="http://purl.org/dc/elements/1.1/"
   xmlns:cc="http://creativecommons.org/ns#"
   xmlns:rdf="http://www.w3.org/1999/02/22-rdf-syntax-ns#"
   xmlns:svg="http://www.w3.org/2000/svg"
   xmlns="http://www.w3.org/2000/svg"
   xmlns:sodipodi="http://sodipodi.sourceforge.net/DTD/sodipodi-0.dtd"
   xmlns:inkscape="http://www.inkscape.org/namespaces/inkscape"
   width="297mm"
   height="210mm"
   viewBox="-10 -16 297 209.99999"
   version="1.1"
   id="svg11023"
   sodipodi:docname="ends-cut.svg"
   inkscape:version="0.92.3 (2405546, 2018-03-11)">
  <metadata
     id="metadata11029">
    <rdf:RDF>
      <cc:Work
         rdf:about="">
        <dc:format>image/svg+xml</dc:format>
        <dc:type
           rdf:resource="http://purl.org/dc/dcmitype/StillImage" />
        <dc:title>OpenSCAD Model</dc:title>
      </cc:Work>
    </rdf:RDF>
  </metadata>
  <defs
     id="defs11027" />
  <sodipodi:namedview
     pagecolor="#ffffff"
     bordercolor="#666666"
     borderopacity="1"
     objecttolerance="10"
     gridtolerance="10"
     guidetolerance="10"
     inkscape:pageopacity="0"
     inkscape:pageshadow="2"
     inkscape:window-width="1366"
     inkscape:window-height="713"
     id="namedview11025"
     showgrid="true"
     inkscape:measure-start="-30.117,49.3918"
     inkscape:measure-end="49.9942,-8.43275"
     units="mm"
     inkscape:document-units="mm"
     inkscape:zoom="0.83009709"
     inkscape:cx="552.67174"
     inkscape:cy="573.15987"
     inkscape:window-x="0"
     inkscape:window-y="27"
     inkscape:window-maximized="1"
     inkscape:current-layer="svg11023"
     inkscape:snap-bbox="true"
     inkscape:snap-bbox-midpoints="true"
     inkscape:object-nodes="false"
     inkscape:snap-nodes="false">
    <inkscape:grid
       type="xygrid"
       id="grid13804" />
  </sodipodi:namedview>
  <title
     id="title11019">OpenSCAD Model</title>
  <path
     style="fill:none;stroke:#000000;stroke-width:0.5"
     d="m 10.6279,8.9802101 0.62543,-0.0591 0.62048,-0.0983 0.61308,-0.13704 0.60327,-0.17526 0.59108,-0.2128 0.57654,-0.2495 0.55976,-0.2852 0.54072,-0.31979 0.51958,-0.35311 0.4964,-0.38504 0.47122,-0.41545 0.44421,-0.44421 0.41545,-0.47122 0.38504,-0.4964 0.35311,-0.51958 0.31979,-0.54072 0.2852,-0.55976 0.2495,-0.57654 0.2128,-0.59108 0.17526,-0.60327 0.13704,-0.61307999 0.0983,-0.62048 0.0591,-0.62543 0.0197,-0.62790001 -0.0197,-0.6279 -0.0591,-0.62543 -0.0983,-0.62048 -0.13704,-0.61308 -0.17526,-0.60327 -0.2128,-0.59108 -0.2495,-0.57654 -0.2852,-0.55976 -0.31979,-0.54072 -0.35311,-0.51958 -0.38504,-0.4964 -0.41545,-0.47122 -0.44421,-0.44421 -0.47122,-0.41545 -0.4964,-0.38504 -0.51958,-0.35311 -0.54072,-0.31979 -0.55976,-0.2852001 -0.57654,-0.2495 -0.59108,-0.2128 -0.60327,-0.17526 -0.23689,-0.053 v 4.7387701 H 7.75 V -10.73887 l -0.23689,0.053 -0.60327,0.17526 -0.59108,0.2128 -0.57654,0.2495 -0.55976,0.2852001 -0.54072,0.31979 -0.51958,0.35311 -0.4964,0.38504 -0.47122,0.41545 -0.44421,0.44421 -0.41545,0.47122 -0.38504,0.4964 -0.35311,0.51958 -0.31979,0.54072 -0.2852,0.55976 -0.2495,0.57654 -0.2128,0.59108 -0.17526,0.60327 -0.13704,0.61308 -0.09828,0.62048 -0.05912,0.62543 -0.01974,0.6279 0.01974,0.62790001 0.05912,0.62543 0.09828,0.62048 0.13704,0.61307999 0.17526,0.60327 0.2128,0.59108 0.2495,0.57654 0.2852,0.55976 0.31979,0.54072 0.35311,0.51958 0.38504,0.4964 0.41545,0.47122 0.44421,0.44421 0.47122,0.41545 0.4964,0.38504 0.51958,0.35311 0.54072,0.31979 0.55976,0.2852 0.57654,0.2495 0.59108,0.2128 0.60327,0.17526 0.61308,0.13704 0.62048,0.0983 0.62543,0.0591 0.6279,0.0197 z"
     id="path13816"
     inkscape:connector-curvature="0" />
  <path
     style="fill:none;stroke:#000000;stroke-width:0.5"
     d="m 9.81163,1.9940301 -0.18762,-0.0178 -0.18614,-0.0295 -0.18393,-0.0411 -0.18099,-0.0526 -0.17732,-0.0638 -0.17296,-0.0748 -0.16792,-0.0856 -0.16222,-0.0959 -0.15588,-0.10592 -0.14891,-0.11551 -0.14137,-0.12464 -0.13327,-0.13327 -0.12464,-0.14136999 -0.11551,-0.14891 -0.10592,-0.15588 -0.0959,-0.16222 -0.0856,-0.16792 -0.0748,-0.17296 -0.0638,-0.17732 -0.0526,-0.18099 -0.0411,-0.18393 -0.0295,-0.18614 -0.0177,-0.18762 -0.006,-0.18838001 0.006,-0.18837 0.0177,-0.18762 0.0295,-0.18614 0.0411,-0.18393 0.0526,-0.18099 0.0638,-0.17732 0.0748,-0.17296 0.0856,-0.16792 0.0959,-0.16222 0.10592,-0.15588 0.11551,-0.14891 0.12464,-0.14137 0.13327,-0.13327 0.14137,-0.12464 0.14891,-0.11551 0.15588,-0.10592 0.16222,-0.0959 0.16792,-0.0856 0.17296,-0.0748 0.17732,-0.0638 0.18099,-0.0526 0.18393,-0.0411 0.18614,-0.0295 0.18762,-0.0177 0.18837,-0.006 0.18837,0.006 0.18762,0.0177 0.18614,0.0295 0.18393,0.0411 0.18099,0.0526 0.17732,0.0638 0.17296,0.0748 0.16792,0.0856 0.16222,0.0959 0.15588,0.10592 0.14891,0.11551 0.14137,0.12464 0.13327,0.13327 0.12464,0.14137 0.11551,0.14891 0.10592,0.15588 0.0959,0.16222 0.0856,0.16792 0.0748,0.17296 0.0638,0.17732 0.0526,0.18099 0.0411,0.18393 0.0295,0.18614 0.0177,0.18762 0.006,0.18837 -0.006,0.18837001 -0.0177,0.18762 -0.0295,0.18614 -0.0411,0.18393 -0.0526,0.18099 -0.0638,0.17732 -0.0748,0.17296 -0.0856,0.16792 -0.0959,0.16222 -0.10592,0.15588 -0.11551,0.14891 -0.12464,0.14136999 -0.13327,0.13327 -0.14137,0.12464 -0.14891,0.11551 -0.15588,0.10592 -0.16222,0.0959 -0.16792,0.0856 -0.17296,0.0748 -0.17732,0.0638 -0.18099,0.0526 -0.18393,0.0411 -0.18614,0.0295 -0.18762,0.0178 -0.18837,0.006 z"
     id="path13814"
     inkscape:connector-curvature="0" />
  <path
     style="fill:none;stroke:#000000;stroke-width:0.5"
     d="m 30.6279,18.880674 0.62543,-0.0591 0.62048,-0.0983 0.61308,-0.13704 0.60327,-0.17526 0.59108,-0.2128 0.57654,-0.2495 0.55976,-0.2852 0.54072,-0.31979 0.51958,-0.35311 0.4964,-0.38504 0.47122,-0.41545 0.44421,-0.44421 0.41545,-0.47122 0.38504,-0.4964 0.35311,-0.51958 0.31979,-0.54072 0.2852,-0.55976 0.2495,-0.57654 0.2128,-0.59108 0.17526,-0.60327 0.13704,-0.61308 0.0983,-0.62048 0.0591,-0.6254299 0.0197,-0.6279 -0.0197,-0.6279 -0.0591,-0.62543 -0.0983,-0.62048 -0.13704,-0.61308 -0.17526,-0.60327 -0.2128,-0.59108 -0.2495,-0.57654 -0.2852,-0.55976 -0.31979,-0.54072 -0.35311,-0.51958 -0.38504,-0.4964 -0.41545,-0.47122 -0.44421,-0.44421 -0.47122,-0.41545 -0.4964,-0.38503999 -0.51958,-0.35311 -0.54072,-0.31979 -0.55976,-0.2852 -0.57654,-0.2495 -0.59108,-0.2128 -0.60327,-0.17526 -0.23689,-0.053 V 3.9003641 h -4.5 v -4.73876999 l -0.23689,0.053 -0.60327,0.17526 -0.59108,0.2128 -0.57654,0.2495 -0.55976,0.2852 -0.54072,0.31979 -0.51958,0.35311 -0.4964,0.38503999 -0.47122,0.41545 -0.44421,0.44421 -0.41545,0.47122 -0.38504,0.4964 -0.35311,0.51958 -0.31979,0.54072 -0.2852,0.55976 -0.2495,0.57654 -0.2128,0.59108 -0.17526,0.60327 -0.13704,0.61308 -0.0983,0.62048 -0.0591,0.62543 -0.0197,0.6279 0.0197,0.6279 0.0591,0.6254299 0.0983,0.62048 0.13704,0.61308 0.17526,0.60327 0.2128,0.59108 0.2495,0.57654 0.2852,0.55976 0.31979,0.54072 0.35311,0.51958 0.38504,0.4964 0.41545,0.47122 0.44421,0.44421 0.47122,0.41545 0.4964,0.38504 0.51958,0.35311 0.54072,0.31979 0.55976,0.2852 0.57654,0.2495 0.59108,0.2128 0.60327,0.17526 0.61308,0.13704 0.62048,0.0983 0.62543,0.0591 0.6279,0.0197 z"
     id="path13816-6"
     inkscape:connector-curvature="0" />
  <path
     style="fill:none;stroke:#000000;stroke-width:0.5"
     d="m 29.81163,11.894494 -0.18762,-0.0178 -0.18614,-0.0295 -0.18393,-0.0411 -0.18099,-0.0526 -0.17732,-0.0638 -0.17296,-0.0748 -0.16792,-0.0856 -0.16222,-0.0959 -0.15588,-0.10592 -0.14891,-0.11551 -0.14137,-0.12464 -0.13327,-0.13327 -0.12464,-0.14137 -0.11551,-0.14891 -0.10592,-0.15588 -0.0959,-0.16222 -0.0856,-0.16792 -0.0748,-0.17296 -0.0638,-0.1773199 -0.0526,-0.18099 -0.0411,-0.18393 -0.0295,-0.18614 -0.0177,-0.18762 -0.006,-0.18838 0.006,-0.18837 0.0177,-0.18762 0.0295,-0.18614 0.0411,-0.18393 0.0526,-0.18099 0.0638,-0.17732 0.0748,-0.17296 0.0856,-0.16792 0.0959,-0.16222 0.10592,-0.15588 0.11551,-0.14891 0.12464,-0.14137 0.13327,-0.13327 0.14137,-0.12464 0.14891,-0.11551 0.15588,-0.10592 0.16222,-0.0959 0.16792,-0.0856 0.17296,-0.0748 0.17732,-0.0638 0.18099,-0.0526 0.18393,-0.0411 0.18614,-0.0295 0.18762,-0.0177 0.18837,-0.006 0.18837,0.006 0.18762,0.0177 0.18614,0.0295 0.18393,0.0411 0.18099,0.0526 0.17732,0.0638 0.17296,0.0748 0.16792,0.0856 0.16222,0.0959 0.15588,0.10592 0.14891,0.11551 0.14137,0.12464 0.13327,0.13327 0.12464,0.14137 0.11551,0.14891 0.10592,0.15588 0.0959,0.16222 0.0856,0.16792 0.0748,0.17296 0.0638,0.17732 0.0526,0.18099 0.0411,0.18393 0.0295,0.18614 0.0177,0.18762 0.006,0.18837 -0.006,0.18837 -0.0177,0.18762 -0.0295,0.18614 -0.0411,0.18393 -0.0526,0.18099 -0.0638,0.1773199 -0.0748,0.17296 -0.0856,0.16792 -0.0959,0.16222 -0.10592,0.15588 -0.11551,0.14891 -0.12464,0.14137 -0.13327,0.13327 -0.14137,0.12464 -0.14891,0.11551 -0.15588,0.10592 -0.16222,0.0959 -0.16792,0.0856 -0.17296,0.0748 -0.17732,0.0638 -0.18099,0.0526 -0.18393,0.0411 -0.18614,0.0295 -0.18762,0.0178 -0.18837,0.006 z"
     id="path13814-7"
     inkscape:connector-curvature="0" />
  <path
     style="fill:none;stroke:#000000;stroke-width:0.5"
     d="m 10.6279,30.980209 0.6254,-0.0591 0.6205,-0.0983 0.6131,-0.13704 0.6033,-0.17526 0.591,-0.2128 0.5766,-0.2495 0.5597,-0.285199 0.5408,-0.319791 0.5195,-0.35311 0.4964,-0.38504 0.4713,-0.41545 0.4442,-0.44421 0.4154,-0.47122 0.3851,-0.4964 0.3531,-0.51958 0.3198,-0.54072 0.2852,-0.55976 0.2495,-0.57654 0.2128,-0.59108 0.1752,-0.60327 0.1371,-0.61308 0.0982,-0.62048 0.0592,-0.62543 0.0197,-0.6279 -0.0197,-0.6279 -0.0592,-0.62543 -0.0982,-0.62048 -0.1371,-0.61308 -0.1752,-0.60327 -0.2128,-0.59108 -0.2495,-0.57654 -0.2852,-0.55976 -0.3198,-0.54072 -0.3531,-0.51958 -0.3851,-0.4964 -0.4154,-0.47122 -0.4442,-0.44421 -0.4713,-0.41545 -0.4964,-0.38504 -0.5195,-0.35311 -0.5408,-0.31979 -0.5597,-0.2852 -0.5766,-0.2495 -0.591,-0.2128 -0.6033,-0.17526 -0.2369,-0.053 v 4.73877 h -4.5 v -4.73877 l -0.2369,0.053 -0.6033,0.17526 -0.591,0.2128 -0.5766,0.2495 -0.5597,0.2852 -0.5408,0.31979 -0.5195,0.35311 -0.4964,0.38504 -0.4713,0.41545 -0.4442,0.44421 -0.4154,0.47122 -0.3851,0.4964 -0.3531,0.51958 -0.3198,0.54072 -0.2852,0.55976 -0.2495,0.57654 -0.2128,0.59108 -0.1752,0.60327 -0.1371,0.61308 -0.0982,0.62048 -0.0592,0.62543 -0.0197,0.6279 0.0197,0.6279 0.0592,0.62543 0.0982,0.62048 0.1371,0.61308 0.1752,0.60327 0.2128,0.59108 0.2495,0.57654 0.2852,0.55976 0.3198,0.54072 0.3531,0.51958 0.3851,0.4964 0.4154,0.47122 0.4442,0.44421 0.4713,0.41545 0.4964,0.38504 0.5195,0.35311 0.5408,0.319791 0.5597,0.285199 0.5766,0.2495 0.591,0.2128 0.6033,0.17526 0.6131,0.13704 0.6205,0.0983 0.6254,0.0591 0.6279,0.0197 z"
     id="path13812-5"
     inkscape:connector-curvature="0" />
  <path
     style="fill:none;stroke:#000000;stroke-width:0.5"
     d="m 9.8587,23.245509 -0.1407,-0.0133 -0.1396,-0.0221 -0.1379,-0.0308 -0.1358,-0.0394 -0.133,-0.0479 -0.1297,-0.0561 -0.1259,-0.0642 -0.1217,-0.0719 -0.1169,-0.0795 -0.1117,-0.0866 -0.106,-0.0935 -0.1,-0.0999 -0.0934,-0.10603 -0.0867,-0.11168 -0.0794,-0.11691 -0.072,-0.12166 -0.0642,-0.12595 -0.0561,-0.12971 -0.0479,-0.133 -0.0394,-0.13574 -0.0308,-0.13794 -0.0222,-0.1396 -0.0133,-0.14073 -0.004,-0.14127 0.004,-0.14127 0.0133,-0.14073 0.0222,-0.1396 0.0308,-0.13794 0.0394,-0.13574 0.0479,-0.133 0.0561,-0.12971 0.0642,-0.12595 0.072,-0.12166 0.0794,-0.11691 0.0867,-0.11168 0.0934,-0.10603 0.1,-0.1 0.106,-0.0935 0.1117,-0.0866 0.1169,-0.0795 0.1217,-0.0719 0.1259,-0.0642 0.1297,-0.0561 0.133,-0.0479 0.1358,-0.0395 0.1379,-0.0308 0.1396,-0.0221 0.1407,-0.0133 0.1413,-0.004 0.1413,0.004 0.1407,0.0133 0.1396,0.0221 0.1379,0.0308 0.1358,0.0395 0.133,0.0479 0.1297,0.0561 0.1259,0.0642 0.1217,0.0719 0.1169,0.0795 0.1117,0.0866 0.106,0.0935 0.1,0.1 0.0934,0.10603 0.0867,0.11168 0.0794,0.11691 0.072,0.12166 0.0642,0.12595 0.0561,0.12971 0.0479,0.133 0.0394,0.13574 0.0308,0.13794 0.0222,0.1396 0.0133,0.14073 0.004,0.14127 -0.004,0.14127 -0.0133,0.14073 -0.0222,0.1396 -0.0308,0.13794 -0.0394,0.13574 -0.0479,0.133 -0.0561,0.12971 -0.0642,0.12595 -0.072,0.12166 -0.0794,0.11691 -0.0867,0.11168 -0.0934,0.10603 -0.1,0.0999 -0.106,0.0935 -0.1117,0.0866 -0.1169,0.0795 -0.1217,0.0719 -0.1259,0.0642 -0.1297,0.0561 -0.133,0.0479 -0.1358,0.0394 -0.1379,0.0308 -0.1396,0.0221 -0.1407,0.0133 -0.1413,0.004 z"
     id="path13810-3"
     inkscape:connector-curvature="0" />
  <path
     style="fill:none;stroke:#000000;stroke-width:0.5"
     d="m 30.6279,40.880684 0.6254,-0.0591 0.6205,-0.0983 0.6131,-0.13704 0.6033,-0.17526 0.591,-0.2128 0.5766,-0.2495 0.5597,-0.285199 0.5408,-0.319791 0.5195,-0.35311 0.4964,-0.38504 0.4713,-0.41545 0.4442,-0.44421 0.4154,-0.47122 0.3851,-0.4964 0.3531,-0.51958 0.3198,-0.54072 0.2852,-0.55976 0.2495,-0.57654 0.2128,-0.59108 0.1752,-0.60327 0.1371,-0.61308 0.0982,-0.62048 0.0592,-0.62543 0.0197,-0.6279 -0.0197,-0.6279 -0.0592,-0.62543 -0.0982,-0.62048 -0.1371,-0.61308 -0.1752,-0.60327 -0.2128,-0.59108 -0.2495,-0.57654 -0.2852,-0.55976 -0.3198,-0.54072 -0.3531,-0.51958 -0.3851,-0.4964 -0.4154,-0.47122 -0.4442,-0.44421 -0.4713,-0.41545 -0.4964,-0.38504 -0.5195,-0.35311 -0.5408,-0.31979 -0.5597,-0.2852 -0.5766,-0.2495 -0.591,-0.2128 -0.6033,-0.17526 -0.2369,-0.053 v 4.73877 h -4.5 v -4.73877 l -0.2369,0.053 -0.6033,0.17526 -0.591,0.2128 -0.5766,0.2495 -0.5597,0.2852 -0.5408,0.31979 -0.5195,0.35311 -0.4964,0.38504 -0.4713,0.41545 -0.4442,0.44421 -0.4154,0.47122 -0.3851,0.4964 -0.3531,0.51958 -0.3198,0.54072 -0.2852,0.55976 -0.2495,0.57654 -0.2128,0.59108 -0.1752,0.60327 -0.1371,0.61308 -0.0982,0.62048 -0.0592,0.62543 -0.0197,0.6279 0.0197,0.6279 0.0592,0.62543 0.0982,0.62048 0.1371,0.61308 0.1752,0.60327 0.2128,0.59108 0.2495,0.57654 0.2852,0.55976 0.3198,0.54072 0.3531,0.51958 0.3851,0.4964 0.4154,0.47122 0.4442,0.44421 0.4713,0.41545 0.4964,0.38504 0.5195,0.35311 0.5408,0.319791 0.5597,0.285199 0.5766,0.2495 0.591,0.2128 0.6033,0.17526 0.6131,0.13704 0.6205,0.0983 0.6254,0.0591 0.6279,0.0197 z"
     id="path13812-56"
     inkscape:connector-curvature="0" />
  <path
     style="fill:none;stroke:#000000;stroke-width:0.5"
     d="m 29.8587,33.145984 -0.1407,-0.0133 -0.1396,-0.0221 -0.1379,-0.0308 -0.1358,-0.0394 -0.133,-0.0479 -0.1297,-0.0561 -0.1259,-0.0642 -0.1217,-0.0719 -0.1169,-0.0795 -0.1117,-0.0866 -0.106,-0.0935 -0.1,-0.0999 -0.0934,-0.10603 -0.0867,-0.11168 -0.0794,-0.11691 -0.072,-0.12166 -0.0642,-0.12595 -0.0561,-0.12971 -0.0479,-0.133 -0.0394,-0.13574 -0.0308,-0.13794 -0.0222,-0.1396 -0.0133,-0.14073 -0.004,-0.14127 0.004,-0.14127 0.0133,-0.14073 0.0222,-0.1396 0.0308,-0.13794 0.0394,-0.13574 0.0479,-0.133 0.0561,-0.12971 0.0642,-0.12595 0.072,-0.12166 0.0794,-0.11691 0.0867,-0.11168 0.0934,-0.10603 0.1,-0.1 0.106,-0.0935 0.1117,-0.0866 0.1169,-0.0795 0.1217,-0.0719 0.1259,-0.0642 0.1297,-0.0561 0.133,-0.0479 0.1358,-0.0395 0.1379,-0.0308 0.1396,-0.0221 0.1407,-0.0133 0.1413,-0.004 0.1413,0.004 0.1407,0.0133 0.1396,0.0221 0.1379,0.0308 0.1358,0.0395 0.133,0.0479 0.1297,0.0561 0.1259,0.0642 0.1217,0.0719 0.1169,0.0795 0.1117,0.0866 0.106,0.0935 0.1,0.1 0.0934,0.10603 0.0867,0.11168 0.0794,0.11691 0.072,0.12166 0.0642,0.12595 0.0561,0.12971 0.0479,0.133 0.0394,0.13574 0.0308,0.13794 0.0222,0.1396 0.0133,0.14073 0.004,0.14127 -0.004,0.14127 -0.0133,0.14073 -0.0222,0.1396 -0.0308,0.13794 -0.0394,0.13574 -0.0479,0.133 -0.0561,0.12971 -0.0642,0.12595 -0.072,0.12166 -0.0794,0.11691 -0.0867,0.11168 -0.0934,0.10603 -0.1,0.0999 -0.106,0.0935 -0.1117,0.0866 -0.1169,0.0795 -0.1217,0.0719 -0.1259,0.0642 -0.1297,0.0561 -0.133,0.0479 -0.1358,0.0394 -0.1379,0.0308 -0.1396,0.0221 -0.1407,0.0133 -0.1413,0.004 z"
     id="path13810-2"
     inkscape:connector-curvature="0" />
  <path
     style="fill:none;stroke:#000000;stroke-width:0.5"
     d="m 51.6279,8.9801991 0.62543,-0.0591 0.62048,-0.0983 0.61308,-0.13704 0.60327,-0.17526 0.59108,-0.2128 0.57654,-0.2495 0.55976,-0.2852 0.54072,-0.31979 0.51958,-0.35311 0.4964,-0.38504 0.47122,-0.41545 0.44421,-0.44421 0.41545,-0.47122 0.38504,-0.4964 0.35311,-0.51958 0.31979,-0.54072 0.2852,-0.55976 0.2495,-0.57654 0.2128,-0.59108 0.17526,-0.60327 0.13704,-0.61307999 0.0983,-0.62048 0.0591,-0.62543 0.0197,-0.62790001 -0.0197,-0.6279 -0.0591,-0.62543 -0.0983,-0.62048 -0.13704,-0.61308 -0.17526,-0.60327 -0.2128,-0.59108 -0.2495,-0.57654 -0.2852,-0.55976 -0.31979,-0.54072 -0.35311,-0.51958 -0.38504,-0.4964 -0.41545,-0.47122 -0.44421,-0.44421 -0.47122,-0.41545 -0.4964,-0.38504 -0.51958,-0.35311 -0.54072,-0.31979 -0.55976,-0.2852001 -0.57654,-0.2495 -0.59108,-0.2128 -0.60327,-0.17526 -0.23689,-0.053 v 4.7387701 h -4.5 v -4.7387701 l -0.23689,0.053 -0.60327,0.17526 -0.59108,0.2128 -0.57654,0.2495 -0.55976,0.2852001 -0.54072,0.31979 -0.51958,0.35311 -0.4964,0.38504 -0.47122,0.41545 -0.44421,0.44421 -0.41545,0.47122 -0.38504,0.4964 -0.35311,0.51958 -0.31979,0.54072 -0.2852,0.55976 -0.2495,0.57654 -0.2128,0.59108 -0.17526,0.60327 -0.13704,0.61308 -0.0983,0.62048 -0.0591,0.62543 -0.0197,0.6279 0.0197,0.62790001 0.0591,0.62543 0.0983,0.62048 0.13704,0.61307999 0.17526,0.60327 0.2128,0.59108 0.2495,0.57654 0.2852,0.55976 0.31979,0.54072 0.35311,0.51958 0.38504,0.4964 0.41545,0.47122 0.44421,0.44421 0.47122,0.41545 0.4964,0.38504 0.51958,0.35311 0.54072,0.31979 0.55976,0.2852 0.57654,0.2495 0.59108,0.2128 0.60327,0.17526 0.61308,0.13704 0.62048,0.0983 0.62543,0.0591 0.6279,0.0197 z"
     id="path13816-9"
     inkscape:connector-curvature="0" />
  <path
     style="fill:none;stroke:#000000;stroke-width:0.5"
     d="m 50.81163,1.9940191 -0.18762,-0.0178 -0.18614,-0.0295 -0.18393,-0.0411 -0.18099,-0.0526 -0.17732,-0.0638 -0.17296,-0.0748 -0.16792,-0.0856 -0.16222,-0.0959 -0.15588,-0.10592 -0.14891,-0.11551 -0.14137,-0.12464 -0.13327,-0.13327 -0.12464,-0.14136999 -0.11551,-0.14891 -0.10592,-0.15588 -0.0959,-0.16222 -0.0856,-0.16792 -0.0748,-0.17296 -0.0638,-0.17732 -0.0526,-0.18099 -0.0411,-0.18393 -0.0295,-0.18614 -0.0177,-0.18762 -0.006,-0.18838001 0.006,-0.18837 0.0177,-0.18762 0.0295,-0.18614 0.0411,-0.18393 0.0526,-0.18099 0.0638,-0.17732 0.0748,-0.17296 0.0856,-0.16792 0.0959,-0.16222 0.10592,-0.15588 0.11551,-0.14891 0.12464,-0.14137 0.13327,-0.13327 0.14137,-0.12464 0.14891,-0.11551 0.15588,-0.10592 0.16222,-0.0959 0.16792,-0.0856 0.17296,-0.0748 0.17732,-0.0638 0.18099,-0.0526 0.18393,-0.0411 0.18614,-0.0295 0.18762,-0.0177 0.18837,-0.006 0.18837,0.006 0.18762,0.0177 0.18614,0.0295 0.18393,0.0411 0.18099,0.0526 0.17732,0.0638 0.17296,0.0748 0.16792,0.0856 0.16222,0.0959 0.15588,0.10592 0.14891,0.11551 0.14137,0.12464 0.13327,0.13327 0.12464,0.14137 0.11551,0.14891 0.10592,0.15588 0.0959,0.16222 0.0856,0.16792 0.0748,0.17296 0.0638,0.17732 0.0526,0.18099 0.0411,0.18393 0.0295,0.18614 0.0177,0.18762 0.006,0.18837 -0.006,0.18837001 -0.0177,0.18762 -0.0295,0.18614 -0.0411,0.18393 -0.0526,0.18099 -0.0638,0.17732 -0.0748,0.17296 -0.0856,0.16792 -0.0959,0.16222 -0.10592,0.15588 -0.11551,0.14891 -0.12464,0.14136999 -0.13327,0.13327 -0.14137,0.12464 -0.14891,0.11551 -0.15588,0.10592 -0.16222,0.0959 -0.16792,0.0856 -0.17296,0.0748 -0.17732,0.0638 -0.18099,0.0526 -0.18393,0.0411 -0.18614,0.0295 -0.18762,0.0178 -0.18837,0.006 z"
     id="path13814-1"
     inkscape:connector-curvature="0" />
  <path
     style="fill:none;stroke:#000000;stroke-width:0.5"
     d="m 71.6279,18.880669 0.62543,-0.0591 0.62048,-0.0983 0.61308,-0.137041 0.60327,-0.17526 0.59108,-0.212799 0.57654,-0.249502 0.55976,-0.2852 0.54072,-0.319788 0.51958,-0.35311 0.4964,-0.385041 0.47122,-0.415451 0.44421,-0.444209 0.41545,-0.47122 0.38504,-0.4964 0.35311,-0.51958 0.31979,-0.54072 0.2852,-0.55976 0.2495,-0.57654 0.2128,-0.59108 0.17526,-0.60327 0.13704,-0.61308 0.0983,-0.62048 0.0591,-0.6254299 0.0197,-0.6279 -0.0197,-0.6279 -0.0591,-0.62543 -0.0983,-0.62048 -0.13704,-0.61308 -0.17526,-0.60327 -0.2128,-0.59108 -0.2495,-0.57654 -0.2852,-0.55976 -0.31979,-0.54072 -0.35311,-0.51958 -0.38504,-0.4964 -0.41545,-0.47122 -0.44421,-0.44421 -0.47122,-0.41545 -0.4964,-0.38503999 -0.51958,-0.35311 -0.54072,-0.31979 -0.55976,-0.2852 -0.57654,-0.2495 -0.59108,-0.2128 -0.60327,-0.17526 -0.23689,-0.053 V 3.9003581 h -4.5 v -4.73876799 l -0.23689,0.053 -0.60327,0.17526 -0.59108,0.2128 -0.57654,0.2495 -0.55976,0.2852 -0.54072,0.31979 -0.51958,0.35311 -0.4964,0.38503999 -0.47122,0.41545 -0.44421,0.44421 -0.41545,0.47122 -0.38504,0.4964 -0.35311,0.51958 -0.31979,0.54072 -0.2852,0.55976 -0.2495,0.57654 -0.2128,0.59108 -0.17526,0.60327 -0.13704,0.61308 -0.0983,0.62048 -0.0591,0.62543 -0.0197,0.6279 0.0197,0.6279 0.0591,0.6254299 0.0983,0.62048 0.13704,0.61308 0.17526,0.60327 0.2128,0.59108 0.2495,0.57654 0.2852,0.55976 0.31979,0.54072 0.35311,0.51958 0.38504,0.4964 0.41545,0.47122 0.44421,0.444209 0.47122,0.415451 0.4964,0.385041 0.51958,0.35311 0.54072,0.319789 0.55976,0.285199 0.57654,0.249502 0.59108,0.212799 0.60327,0.17526 0.61308,0.137041 0.62048,0.0983 0.62543,0.0591 0.6279,0.01971 z"
     id="path13816-6-2"
     inkscape:connector-curvature="0" />
  <path
     style="fill:none;stroke:#000000;stroke-width:0.5"
     d="m 70.81163,11.89449 -0.18762,-0.0178 -0.18614,-0.0295 -0.18393,-0.0411 -0.18099,-0.0526 -0.17732,-0.0638 -0.17296,-0.0748 -0.16792,-0.0856 -0.16222,-0.0959 -0.15588,-0.10592 -0.14891,-0.11551 -0.14137,-0.12464 -0.13327,-0.13327 -0.12464,-0.14137 -0.11551,-0.14891 -0.10592,-0.15588 -0.0959,-0.16222 -0.0856,-0.16792 -0.0748,-0.17296 -0.0638,-0.1773199 -0.0526,-0.18099 -0.0411,-0.18393 -0.0295,-0.18614 -0.0177,-0.18762 -0.006,-0.18838 0.006,-0.18837 0.0177,-0.18762 0.0295,-0.18614 0.0411,-0.18393 0.0526,-0.18099 0.0638,-0.17732 0.0748,-0.17296 0.0856,-0.16792 0.0959,-0.16222 0.10592,-0.15588 0.11551,-0.14891 0.12464,-0.14137 0.13327,-0.13327 0.14137,-0.12464 0.14891,-0.11551 0.15588,-0.10592 0.16222,-0.0959 0.16792,-0.0856 0.17296,-0.0748 0.17732,-0.0638 0.18099,-0.0526 0.18393,-0.0411 0.18614,-0.0295 0.18762,-0.0177 0.18837,-0.006 0.18837,0.006 0.18762,0.0177 0.18614,0.0295 0.18393,0.0411 0.18099,0.0526 0.17732,0.0638 0.17296,0.0748 0.16792,0.0856 0.16222,0.0959 0.15588,0.10592 0.14891,0.11551 0.14137,0.12464 0.13327,0.13327 0.12464,0.14137 0.11551,0.14891 0.10592,0.15588 0.0959,0.16222 0.0856,0.16792 0.0748,0.17296 0.0638,0.17732 0.0526,0.18099 0.0411,0.18393 0.0295,0.18614 0.0177,0.18762 0.006,0.18837 -0.006,0.18837 -0.0177,0.18762 -0.0295,0.18614 -0.0411,0.18393 -0.0526,0.18099 -0.0638,0.1773199 -0.0748,0.17296 -0.0856,0.16792 -0.0959,0.16222 -0.10592,0.15588 -0.11551,0.14891 -0.12464,0.14137 -0.13327,0.13327 -0.14137,0.12464 -0.14891,0.11551 -0.15588,0.10592 -0.16222,0.0959 -0.16792,0.0856 -0.17296,0.0748 -0.17732,0.0638 -0.18099,0.0526 -0.18393,0.0411 -0.18614,0.0295 -0.18762,0.0178 L 71,11.90048 Z"
     id="path13814-7-7"
     inkscape:connector-curvature="0" />
  <path
     style="fill:none;stroke:#000000;stroke-width:0.5"
     d="m 51.6279,30.980199 0.6254,-0.0591 0.6205,-0.0983 0.6131,-0.137041 0.6033,-0.17526 0.591,-0.212799 0.5766,-0.2495 0.5597,-0.285199 0.5408,-0.319792 0.5195,-0.35311 0.4964,-0.38504 0.4713,-0.415449 0.4442,-0.444211 0.4154,-0.471221 0.3851,-0.496398 0.3531,-0.519581 0.3198,-0.540721 0.2852,-0.55976 0.2495,-0.576538 0.2128,-0.591082 0.1752,-0.603268 0.1371,-0.613082 0.0982,-0.62048 0.0592,-0.62543 0.0197,-0.627898 -0.0197,-0.627901 -0.0592,-0.62543 -0.0982,-0.62048 -0.1371,-0.613079 -0.1752,-0.603272 -0.2128,-0.591079 -0.2495,-0.57654 -0.2852,-0.55976 -0.3198,-0.54072 -0.3531,-0.51958 -0.3851,-0.4964 -0.4154,-0.47122 -0.4442,-0.44421 -0.4713,-0.41545 -0.4964,-0.38504 -0.5195,-0.35311 -0.5408,-0.31979 -0.5597,-0.2852 -0.5766,-0.2495 -0.591,-0.2128 -0.6033,-0.17526 -0.2369,-0.053 v 4.73877 h -4.5 v -4.73877 l -0.2369,0.053 -0.6033,0.17526 -0.591,0.2128 -0.5766,0.2495 -0.5597,0.2852 -0.5408,0.31979 -0.5195,0.35311 -0.4964,0.38504 -0.4713,0.41545 -0.4442,0.44421 -0.4154,0.47122 -0.3851,0.4964 -0.3531,0.51958 -0.3198,0.54072 -0.2852,0.55976 -0.2495,0.57654 -0.2128,0.591079 -0.1752,0.603272 -0.1371,0.613079 -0.0982,0.62048 -0.0592,0.62543 -0.0197,0.627901 0.0197,0.627898 0.0592,0.62543 0.0982,0.62048 0.1371,0.613082 0.1752,0.603268 0.2128,0.591082 0.2495,0.576538 0.2852,0.55976 0.3198,0.540721 0.3531,0.519581 0.3851,0.496398 0.4154,0.471221 0.4442,0.444211 0.4713,0.415449 0.4964,0.38504 0.5195,0.35311 0.5408,0.319792 0.5597,0.285199 0.5766,0.2495 0.591,0.212799 0.6033,0.17526 0.6131,0.137041 0.6205,0.0983 0.6254,0.0591 0.6279,0.01971 z"
     id="path13812-5-0"
     inkscape:connector-curvature="0" />
  <path
     style="fill:none;stroke:#000000;stroke-width:0.5"
     d="m 50.8587,23.245497 -0.1407,-0.01331 -0.1396,-0.02209 -0.1379,-0.0308 -0.1358,-0.0394 -0.133,-0.0479 -0.1297,-0.0561 -0.1259,-0.0642 -0.1217,-0.0719 -0.1169,-0.0795 -0.1117,-0.0866 -0.106,-0.0935 -0.1,-0.0999 -0.0934,-0.106029 -0.0867,-0.11168 -0.0794,-0.116912 -0.072,-0.121658 -0.0642,-0.12595 -0.0561,-0.129711 -0.0479,-0.132999 -0.0394,-0.135741 -0.0308,-0.137938 -0.0222,-0.139602 -0.0133,-0.14073 -0.004,-0.141269 0.004,-0.141271 0.0133,-0.140729 0.0222,-0.1396 0.0308,-0.13794 0.0394,-0.13574 0.0479,-0.133 0.0561,-0.12971 0.0642,-0.125949 0.072,-0.121661 0.0794,-0.116911 0.0867,-0.111678 0.0934,-0.106032 0.1,-0.1 0.106,-0.0935 0.1117,-0.0866 0.1169,-0.0795 0.1217,-0.0719 0.1259,-0.0642 0.1297,-0.0561 0.133,-0.0479 0.1358,-0.0395 0.1379,-0.0308 0.1396,-0.02209 0.1407,-0.01331 0.1413,-0.004 0.1413,0.004 0.1407,0.01331 0.1396,0.02209 0.1379,0.0308 0.1358,0.0395 0.133,0.0479 0.1297,0.0561 0.1259,0.0642 0.1217,0.0719 0.1169,0.0795 0.1117,0.0866 0.106,0.0935 0.1,0.1 0.0934,0.106032 0.0867,0.111678 0.0794,0.116911 0.072,0.121661 0.0642,0.125949 0.0561,0.12971 0.0479,0.133 0.0394,0.13574 0.0308,0.13794 0.0222,0.1396 0.0133,0.140729 0.004,0.141271 -0.004,0.141269 -0.0133,0.14073 -0.0222,0.139602 -0.0308,0.137938 -0.0394,0.135741 -0.0479,0.132999 -0.0561,0.129711 -0.0642,0.12595 -0.072,0.121658 -0.0794,0.116912 -0.0867,0.11168 -0.0934,0.106029 -0.1,0.0999 -0.106,0.0935 -0.1117,0.0866 -0.1169,0.0795 -0.1217,0.0719 -0.1259,0.0642 -0.1297,0.0561 -0.133,0.0479 -0.1358,0.0394 -0.1379,0.0308 -0.1396,0.02209 -0.1407,0.01331 -0.1413,0.004 z"
     id="path13810-3-9"
     inkscape:connector-curvature="0" />
  <path
     style="fill:none;stroke:#000000;stroke-width:0.5"
     d="m 71.6279,40.88068 0.6254,-0.0591 0.6205,-0.0983 0.6131,-0.137039 0.6033,-0.17526 0.591,-0.212801 0.5766,-0.2495 0.5597,-0.2852 0.5408,-0.319791 0.5195,-0.353108 0.4964,-0.38504 0.4713,-0.415451 0.4442,-0.444209 0.4154,-0.47122 0.3851,-0.496401 0.3531,-0.519581 0.3198,-0.540718 0.2852,-0.559761 0.2495,-0.57654 0.2128,-0.591079 0.1752,-0.603271 0.1371,-0.61308 0.0982,-0.620479 0.0592,-0.62543 L 81,30.90042 l -0.0197,-0.627899 -0.0592,-0.62543 -0.0982,-0.62048 -0.1371,-0.613082 -0.1752,-0.603268 -0.2128,-0.591082 -0.2495,-0.576538 -0.2852,-0.55976 -0.3198,-0.540721 -0.3531,-0.519581 -0.3851,-0.496398 -0.4154,-0.47122 -0.4442,-0.444212 -0.4713,-0.415449 -0.4964,-0.38504 -0.5195,-0.35311 -0.5408,-0.319789 -0.5597,-0.285202 -0.5766,-0.249499 -0.591,-0.212799 -0.6033,-0.17526 -0.2369,-0.053 v 4.738772 h -4.5 v -4.738772 l -0.2369,0.053 -0.6033,0.17526 -0.591,0.212799 -0.5766,0.249499 -0.5597,0.285202 -0.5408,0.319789 -0.5195,0.35311 -0.4964,0.38504 -0.4713,0.415449 -0.4442,0.444212 -0.4154,0.47122 -0.3851,0.496398 -0.3531,0.519581 -0.3198,0.540721 -0.2852,0.55976 -0.2495,0.576538 -0.2128,0.591082 -0.1752,0.603268 -0.1371,0.613082 -0.0982,0.62048 -0.0592,0.62543 L 61,30.90042 l 0.0197,0.627901 0.0592,0.62543 0.0982,0.620479 0.1371,0.61308 0.1752,0.603271 0.2128,0.591079 0.2495,0.57654 0.2852,0.559761 0.3198,0.540718 0.3531,0.519581 0.3851,0.496401 0.4154,0.47122 0.4442,0.444209 0.4713,0.415451 0.4964,0.38504 0.5195,0.353108 0.5408,0.319791 0.5597,0.2852 0.5766,0.2495 0.591,0.212801 0.6033,0.17526 0.6131,0.137039 0.6205,0.0983 0.6254,0.0591 L 71,40.90039 Z"
     id="path13812-56-3"
     inkscape:connector-curvature="0" />
  <path
     style="fill:none;stroke:#000000;stroke-width:0.5"
     d="m 70.8587,33.145981 -0.1407,-0.01331 -0.1396,-0.02209 -0.1379,-0.0308 -0.1358,-0.0394 -0.133,-0.0479 -0.1297,-0.0561 -0.1259,-0.0642 -0.1217,-0.0719 -0.1169,-0.0795 -0.1117,-0.0866 -0.106,-0.0935 -0.1,-0.0999 L 69.2664,32.33475 69.1797,32.223069 69.1003,32.10616 69.0283,31.9845 68.9641,31.85855 68.908,31.728841 68.8601,31.59584 68.8207,31.460101 68.7899,31.32216 l -0.0222,-0.139599 -0.0133,-0.14073 -0.004,-0.141271 0.004,-0.141269 0.0133,-0.140732 0.0222,-0.1396 0.0308,-0.13794 0.0394,-0.135739 0.0479,-0.133001 0.0561,-0.129709 0.0642,-0.12595 0.072,-0.121661 0.0794,-0.116908 0.0867,-0.111681 0.0934,-0.106029 0.1,-0.100002 0.106,-0.0935 0.1117,-0.0866 0.1169,-0.0795 0.1217,-0.0719 0.1259,-0.0642 0.1297,-0.0561 0.133,-0.0479 0.1358,-0.0395 0.1379,-0.0308 0.1396,-0.02209 0.1407,-0.01331 0.1413,-0.004 0.1413,0.004 0.1407,0.01331 0.1396,0.02209 0.1379,0.0308 0.1358,0.0395 0.133,0.0479 0.1297,0.0561 0.1259,0.0642 0.1217,0.0719 0.1169,0.0795 0.1117,0.0866 0.106,0.0935 0.1,0.100002 0.0934,0.106029 0.0867,0.111681 0.0794,0.116908 0.072,0.121661 0.0642,0.12595 0.0561,0.129709 0.0479,0.133001 0.0394,0.135739 0.0308,0.13794 0.0222,0.1396 0.0133,0.140732 0.004,0.141269 -0.004,0.141271 -0.0133,0.14073 -0.0222,0.139599 -0.0308,0.137941 -0.0394,0.135739 -0.0479,0.133001 -0.0561,0.129709 -0.0642,0.12595 -0.072,0.12166 -0.0794,0.116909 -0.0867,0.111681 -0.0934,0.106031 -0.1,0.0999 -0.106,0.0935 -0.1117,0.0866 -0.1169,0.0795 -0.1217,0.0719 -0.1259,0.0642 -0.1297,0.0561 -0.133,0.0479 -0.1358,0.0394 -0.1379,0.0308 -0.1396,0.02209 -0.1407,0.01331 -0.1413,0.004 z"
     id="path13810-2-6"
     inkscape:connector-curvature="0" />
</svg>
