<?xml version="1.0" standalone="no"?>
<!DOCTYPE svg PUBLIC "-//W3C//DTD SVG 1.1//EN" "http://www.w3.org/Graphics/SVG/1.1/DTD/svg11.dtd">
<svg width="138" height="29" viewBox="-10 -16 138 29" xmlns="http://www.w3.org/2000/svg" version="1.1">
<title>OpenSCAD Model</title>
<path d="
M 120.471,7.4852 L 120.94,7.44086 L 121.405,7.36714 L 121.865,7.26436 L 122.318,7.13292 L 122.761,6.97331
 L 123.193,6.78619 L 123.613,6.5723 L 124.019,6.33246 L 124.408,6.06763 L 124.781,5.77884 L 125.134,5.46725
 L 125.467,5.13409 L 125.779,4.78067 L 126.068,4.40839 L 126.332,4.01869 L 126.572,3.61314 L 126.786,3.19334
 L 126.973,2.76093 L 127.133,2.31763 L 127.264,1.86517 L 127.367,1.40535 L 127.441,0.939987 L 127.485,0.470917
 L 127.5,-0 L 127.5,-14.1269 L 126.812,-14.4772 L 125.89,-14.8764 L 124.944,-15.2169 L 123.979,-15.4973
 L 122.998,-15.7166 L 122.25,-15.8351 L 122.25,-11 L 117.75,-11 L 117.75,-15.8351 L 117.002,-15.7166
 L 116.021,-15.4973 L 115.056,-15.2169 L 114.11,-14.8764 L 113.188,-14.4772 L 112.292,-14.0209 L 111.427,-13.5092
 L 110.595,-12.9443 L 110.394,-12.788 L 113.813,-9.36916 L 110.631,-6.18718 L 107.212,-9.60602 L 107.056,-9.40456
 L 106.491,-8.57323 L 105.979,-7.70805 L 105.523,-6.81245 L 105.124,-5.88998 L 104.783,-4.94426 L 104.503,-3.97903
 L 104.283,-2.99809 L 104.165,-2.25 L 109,-2.25 L 109,2.24998 L 104.165,2.24998 L 104.283,2.99809
 L 104.503,3.97903 L 104.783,4.94426 L 105.124,5.88998 L 105.523,6.81245 L 105.873,7.5 L 120,7.5
 z
M 119.859,2.24556 L 119.718,2.23225 L 119.578,2.21014 L 119.44,2.17931 L 119.305,2.13986 L 119.172,2.092
 L 119.042,2.03586 L 118.916,1.97168 L 118.794,1.89973 L 118.677,1.82028 L 118.566,1.73364 L 118.46,1.64017
 L 118.36,1.54022 L 118.266,1.43419 L 118.18,1.32251 L 118.1,1.2056 L 118.028,1.08394 L 117.964,0.957993
 L 117.908,0.828278 L 117.86,0.695282 L 117.821,0.55954 L 117.79,0.4216 L 117.768,0.281998 L 117.754,0.141266
 L 117.75,-0 L 117.754,-0.141266 L 117.768,-0.281998 L 117.79,-0.4216 L 117.821,-0.55954 L 117.86,-0.695282
 L 117.908,-0.828278 L 117.964,-0.957993 L 118.028,-1.08394 L 118.1,-1.2056 L 118.18,-1.32251 L 118.266,-1.43419
 L 118.36,-1.54022 L 118.46,-1.64017 L 118.566,-1.73364 L 118.677,-1.82028 L 118.794,-1.89973 L 118.916,-1.97168
 L 119.042,-2.03586 L 119.172,-2.092 L 119.305,-2.13986 L 119.44,-2.17931 L 119.578,-2.21014 L 119.718,-2.23225
 L 119.859,-2.24556 L 120,-2.25 L 120.141,-2.24556 L 120.282,-2.23225 L 120.422,-2.21014 L 120.56,-2.17931
 L 120.695,-2.13986 L 120.828,-2.092 L 120.958,-2.03586 L 121.084,-1.97168 L 121.206,-1.89973 L 121.323,-1.82028
 L 121.434,-1.73364 L 121.54,-1.64017 L 121.64,-1.54022 L 121.734,-1.43419 L 121.82,-1.32251 L 121.9,-1.2056
 L 121.972,-1.08394 L 122.036,-0.957993 L 122.092,-0.828278 L 122.14,-0.695282 L 122.179,-0.55954 L 122.21,-0.4216
 L 122.232,-0.281998 L 122.246,-0.141266 L 122.25,-0 L 122.246,0.141266 L 122.232,0.281998 L 122.21,0.4216
 L 122.179,0.55954 L 122.14,0.695282 L 122.092,0.828278 L 122.036,0.957993 L 121.972,1.08394 L 121.9,1.2056
 L 121.82,1.32251 L 121.734,1.43419 L 121.64,1.54022 L 121.54,1.64017 L 121.434,1.73364 L 121.323,1.82028
 L 121.206,1.89973 L 121.084,1.97168 L 120.958,2.03586 L 120.828,2.092 L 120.695,2.13986 L 120.56,2.17931
 L 120.422,2.21014 L 120.282,2.23225 L 120.141,2.24556 L 120,2.25 z
M 61.1763,12.4445 L 61.9554,12.3461 L 62.7268,12.1989 L 63.4874,12.0036 L 64.2342,11.761 L 64.9643,11.4719
 L 65.6749,11.1376 L 66.363,10.7593 L 67.026,10.3385 L 67.1016,10.2836 L 63.3587,6.54073 L 66.5407,3.35875
 L 70.2836,7.10161 L 70.3385,7.02603 L 70.7593,6.36302 L 71.1376,5.67488 L 71.4719,4.96434 L 71.761,4.23422
 L 72.0036,3.48738 L 72.1989,2.72678 L 72.3461,1.95543 L 72.4445,1.17635 L 72.4938,0.392639 L 72.4938,-0.392639
 L 72.4445,-1.17635 L 72.3461,-1.95543 L 72.1989,-2.72678 L 72.0036,-3.48738 L 71.761,-4.23422 L 71.4719,-4.96434
 L 71.1376,-5.67488 L 70.7593,-6.36302 L 70.3385,-7.02603 L 70.2836,-7.10161 L 66.5407,-3.35875 L 63.3587,-6.54073
 L 67.1016,-10.2836 L 67.026,-10.3385 L 66.363,-10.7593 L 65.6749,-11.1376 L 64.9643,-11.4719 L 64.2342,-11.761
 L 63.4874,-12.0036 L 62.7268,-12.1989 L 61.9554,-12.3461 L 61.1763,-12.4445 L 60.3926,-12.4938 L 59.6073,-12.4938
 L 58.8236,-12.4445 L 58.0446,-12.3461 L 57.2732,-12.1989 L 56.5126,-12.0036 L 55.7658,-11.761 L 55.0356,-11.4719
 L 54.3251,-11.1376 L 53.637,-10.7593 L 52.974,-10.3385 L 52.8984,-10.2836 L 56.6412,-6.54073 L 53.4593,-3.35875
 L 49.7164,-7.10161 L 49.6615,-7.02603 L 49.2407,-6.36302 L 48.8624,-5.67488 L 48.5281,-4.96434 L 48.239,-4.23422
 L 47.9963,-3.48738 L 47.801,-2.72678 L 47.6539,-1.95543 L 47.5555,-1.17635 L 47.5062,-0.392639 L 47.5062,0.392639
 L 47.5555,1.17635 L 47.6539,1.95543 L 47.801,2.72678 L 47.9963,3.48738 L 48.239,4.23422 L 48.5281,4.96434
 L 48.8624,5.67488 L 49.2407,6.36302 L 49.6615,7.02603 L 49.7164,7.10161 L 53.4593,3.35875 L 56.6412,6.54073
 L 52.8984,10.2836 L 52.974,10.3385 L 53.637,10.7593 L 54.3251,11.1376 L 55.0356,11.4719 L 55.7658,11.761
 L 56.5126,12.0036 L 57.2732,12.1989 L 58.0446,12.3461 L 58.8236,12.4445 L 59.6073,12.4938 L 60.3926,12.4938
 z
M 59.9293,2.24887 L 59.7883,2.23999 L 59.648,2.22227 L 59.5092,2.1958 L 59.3723,2.16064 L 59.2378,2.11696
 L 59.1064,2.06494 L 58.9785,2.00475 L 58.8546,1.93665 L 58.7353,1.86092 L 58.621,1.77783 L 58.512,1.68773
 L 58.409,1.59099 L 58.3123,1.48795 L 58.2222,1.37903 L 58.1391,1.26468 L 58.0633,1.14534 L 57.9952,1.02147
 L 57.935,0.89357 L 57.883,0.762161 L 57.8393,0.627716 L 57.8042,0.490814 L 57.7777,0.351974 L 57.76,0.211731
 L 57.7511,0.0706635 L 57.7511,-0.0706635 L 57.76,-0.211731 L 57.7777,-0.351974 L 57.8042,-0.490814 L 57.8393,-0.627716
 L 57.883,-0.762161 L 57.935,-0.89357 L 57.9952,-1.02147 L 58.0633,-1.14534 L 58.1391,-1.26468 L 58.2222,-1.37903
 L 58.3123,-1.48795 L 58.409,-1.59099 L 58.512,-1.68773 L 58.621,-1.77783 L 58.7353,-1.86092 L 58.8546,-1.93665
 L 58.9785,-2.00475 L 59.1064,-2.06494 L 59.2378,-2.11696 L 59.3723,-2.16064 L 59.5092,-2.1958 L 59.648,-2.22227
 L 59.7883,-2.23999 L 59.9293,-2.24887 L 60.0707,-2.24887 L 60.2117,-2.23999 L 60.352,-2.22227 L 60.4908,-2.1958
 L 60.6277,-2.16064 L 60.7622,-2.11696 L 60.8936,-2.06494 L 61.0215,-2.00475 L 61.1453,-1.93665 L 61.2647,-1.86092
 L 61.379,-1.77783 L 61.4879,-1.68773 L 61.591,-1.59099 L 61.6877,-1.48795 L 61.7778,-1.37903 L 61.8609,-1.26468
 L 61.9366,-1.14534 L 62.0047,-1.02147 L 62.0649,-0.89357 L 62.117,-0.762161 L 62.1606,-0.627716 L 62.1958,-0.490814
 L 62.2223,-0.351974 L 62.24,-0.211731 L 62.2489,-0.0706635 L 62.2489,0.0706635 L 62.24,0.211731 L 62.2223,0.351974
 L 62.1958,0.490814 L 62.1606,0.627716 L 62.117,0.762161 L 62.0649,0.89357 L 62.0047,1.02147 L 61.9366,1.14534
 L 61.8609,1.26468 L 61.7778,1.37903 L 61.6877,1.48795 L 61.591,1.59099 L 61.4879,1.68773 L 61.379,1.77783
 L 61.2647,1.86092 L 61.1453,1.93665 L 61.0215,2.00475 L 60.8936,2.06494 L 60.7622,2.11696 L 60.6277,2.16064
 L 60.4908,2.1958 L 60.352,2.22227 L 60.2117,2.23999 L 60.0707,2.24887 z
M 0.627899,9.98026 L 1.25333,9.92114 L 1.87381,9.82286 L 2.48689,9.68582 L 3.09016,9.51056 L 3.68124,9.29776
 L 4.25778,9.04826 L 4.81754,8.76306 L 5.35826,8.44327 L 5.87784,8.09016 L 6.37424,7.70512 L 6.84546,7.28967
 L 7.28967,6.84546 L 7.70512,6.37424 L 8.09016,5.87784 L 8.44327,5.35826 L 8.76306,4.81754 L 9.04826,4.25778
 L 9.29776,3.68124 L 9.51056,3.09016 L 9.68582,2.48689 L 9.82286,1.87381 L 9.92114,1.25333 L 9.98026,0.627899
 L 10,-0 L 9.98026,-0.627899 L 9.92114,-1.25333 L 9.82286,-1.87381 L 9.68582,-2.48689 L 9.51056,-3.09016
 L 9.29776,-3.68124 L 9.04826,-4.25778 L 8.76306,-4.81754 L 8.44327,-5.35826 L 8.09016,-5.87784 L 7.70512,-6.37424
 L 7.28967,-6.84546 L 6.84546,-7.28967 L 6.37424,-7.70512 L 5.87784,-8.09016 L 5.35826,-8.44327 L 4.81754,-8.76306
 L 4.25778,-9.04826 L 3.68124,-9.29776 L 3.09016,-9.51056 L 2.48689,-9.68582 L 2.25,-9.73877 L 2.25,-5
 L -2.25,-5 L -2.25,-9.73877 L -2.48689,-9.68582 L -3.09016,-9.51056 L -3.68124,-9.29776 L -4.25778,-9.04826
 L -4.81754,-8.76306 L -5.35826,-8.44327 L -5.87784,-8.09016 L -6.37424,-7.70512 L -6.84546,-7.28967 L -7.28967,-6.84546
 L -7.70512,-6.37424 L -8.09016,-5.87784 L -8.44327,-5.35826 L -8.76306,-4.81754 L -9.04826,-4.25778 L -9.29776,-3.68124
 L -9.51056,-3.09016 L -9.68582,-2.48689 L -9.82286,-1.87381 L -9.92114,-1.25333 L -9.98026,-0.627899 L -10,-0
 L -9.98026,0.627899 L -9.92114,1.25333 L -9.82286,1.87381 L -9.68582,2.48689 L -9.51056,3.09016 L -9.29776,3.68124
 L -9.04826,4.25778 L -8.76306,4.81754 L -8.44327,5.35826 L -8.09016,5.87784 L -7.70512,6.37424 L -7.28967,6.84546
 L -6.84546,7.28967 L -6.37424,7.70512 L -5.87784,8.09016 L -5.35826,8.44327 L -4.81754,8.76306 L -4.25778,9.04826
 L -3.68124,9.29776 L -3.09016,9.51056 L -2.48689,9.68582 L -1.87381,9.82286 L -1.25333,9.92114 L -0.627899,9.98026
 L 0,10 z
M -0.18837,2.99408 L -0.375992,2.97633 L -0.562134,2.94685 L -0.746063,2.90575 L -0.927048,2.85316 L -1.10437,2.78932
 L -1.27733,2.71448 L -1.44525,2.62891 L -1.60747,2.53297 L -1.76335,2.42705 L -1.91226,2.31154 L -2.05363,2.1869
 L -2.1869,2.05363 L -2.31154,1.91226 L -2.42705,1.76335 L -2.53297,1.60747 L -2.62891,1.44525 L -2.71448,1.27733
 L -2.78932,1.10437 L -2.85316,0.927048 L -2.90575,0.746063 L -2.94685,0.562134 L -2.97633,0.375992 L -2.99408,0.18837
 L -3,-0 L -2.99408,-0.18837 L -2.97633,-0.375992 L -2.94685,-0.562134 L -2.90575,-0.746063 L -2.85316,-0.927048
 L -2.78932,-1.10437 L -2.71448,-1.27733 L -2.62891,-1.44525 L -2.53297,-1.60747 L -2.42705,-1.76335 L -2.31154,-1.91226
 L -2.1869,-2.05363 L -2.05363,-2.1869 L -1.91226,-2.31154 L -1.76335,-2.42705 L -1.60747,-2.53297 L -1.44525,-2.62891
 L -1.27733,-2.71448 L -1.10437,-2.78932 L -0.927048,-2.85316 L -0.746063,-2.90575 L -0.562134,-2.94685 L -0.375992,-2.97633
 L -0.18837,-2.99408 L 0,-3 L 0.18837,-2.99408 L 0.375992,-2.97633 L 0.562134,-2.94685 L 0.746063,-2.90575
 L 0.927048,-2.85316 L 1.10437,-2.78932 L 1.27733,-2.71448 L 1.44525,-2.62891 L 1.60747,-2.53297 L 1.76335,-2.42705
 L 1.91226,-2.31154 L 2.05363,-2.1869 L 2.1869,-2.05363 L 2.31154,-1.91226 L 2.42705,-1.76335 L 2.53297,-1.60747
 L 2.62891,-1.44525 L 2.71448,-1.27733 L 2.78932,-1.10437 L 2.85316,-0.927048 L 2.90575,-0.746063 L 2.94685,-0.562134
 L 2.97633,-0.375992 L 2.99408,-0.18837 L 3,-0 L 2.99408,0.18837 L 2.97633,0.375992 L 2.94685,0.562134
 L 2.90575,0.746063 L 2.85316,0.927048 L 2.78932,1.10437 L 2.71448,1.27733 L 2.62891,1.44525 L 2.53297,1.60747
 L 2.42705,1.76335 L 2.31154,1.91226 L 2.1869,2.05363 L 2.05363,2.1869 L 1.91226,2.31154 L 1.76335,2.42705
 L 1.60747,2.53297 L 1.44525,2.62891 L 1.27733,2.71448 L 1.10437,2.78932 L 0.927048,2.85316 L 0.746063,2.90575
 L 0.562134,2.94685 L 0.375992,2.97633 L 0.18837,2.99408 L 0,3 z
M 30.6279,9.98026 L 31.2533,9.92114 L 31.8738,9.82286 L 32.4869,9.68582 L 33.0902,9.51056 L 33.6812,9.29776
 L 34.2578,9.04826 L 34.8175,8.76306 L 35.3583,8.44327 L 35.8778,8.09016 L 36.3742,7.70512 L 36.8455,7.28967
 L 37.2897,6.84546 L 37.7051,6.37424 L 38.0902,5.87784 L 38.4433,5.35826 L 38.7631,4.81754 L 39.0483,4.25778
 L 39.2978,3.68124 L 39.5106,3.09016 L 39.6858,2.48689 L 39.8229,1.87381 L 39.9211,1.25333 L 39.9803,0.627899
 L 40,-0 L 39.9803,-0.627899 L 39.9211,-1.25333 L 39.8229,-1.87381 L 39.6858,-2.48689 L 39.5106,-3.09016
 L 39.2978,-3.68124 L 39.0483,-4.25778 L 38.7631,-4.81754 L 38.4433,-5.35826 L 38.0902,-5.87784 L 37.7051,-6.37424
 L 37.2897,-6.84546 L 36.8455,-7.28967 L 36.3742,-7.70512 L 35.8778,-8.09016 L 35.3583,-8.44327 L 34.8175,-8.76306
 L 34.2578,-9.04826 L 33.6812,-9.29776 L 33.0902,-9.51056 L 32.4869,-9.68582 L 32.25,-9.73877 L 32.25,-5
 L 27.75,-5 L 27.75,-9.73877 L 27.5131,-9.68582 L 26.9098,-9.51056 L 26.3188,-9.29776 L 25.7422,-9.04826
 L 25.1825,-8.76306 L 24.6417,-8.44327 L 24.1222,-8.09016 L 23.6258,-7.70512 L 23.1545,-7.28967 L 22.7103,-6.84546
 L 22.2949,-6.37424 L 21.9098,-5.87784 L 21.5567,-5.35826 L 21.2369,-4.81754 L 20.9517,-4.25778 L 20.7022,-3.68124
 L 20.4894,-3.09016 L 20.3142,-2.48689 L 20.1771,-1.87381 L 20.0789,-1.25333 L 20.0197,-0.627899 L 20,-0
 L 20.0197,0.627899 L 20.0789,1.25333 L 20.1771,1.87381 L 20.3142,2.48689 L 20.4894,3.09016 L 20.7022,3.68124
 L 20.9517,4.25778 L 21.2369,4.81754 L 21.5567,5.35826 L 21.9098,5.87784 L 22.2949,6.37424 L 22.7103,6.84546
 L 23.1545,7.28967 L 23.6258,7.70512 L 24.1222,8.09016 L 24.6417,8.44327 L 25.1825,8.76306 L 25.7422,9.04826
 L 26.3188,9.29776 L 26.9098,9.51056 L 27.5131,9.68582 L 28.1262,9.82286 L 28.7467,9.92114 L 29.3721,9.98026
 L 30,10 z
M 29.8587,2.24556 L 29.718,2.23225 L 29.5784,2.21014 L 29.4405,2.17931 L 29.3047,2.13986 L 29.1717,2.092
 L 29.042,2.03586 L 28.9161,1.97168 L 28.7944,1.89973 L 28.6775,1.82028 L 28.5658,1.73364 L 28.4598,1.64017
 L 28.3598,1.54022 L 28.2664,1.43419 L 28.1797,1.32251 L 28.1003,1.2056 L 28.0283,1.08394 L 27.9641,0.957993
 L 27.908,0.828278 L 27.8601,0.695282 L 27.8207,0.55954 L 27.7899,0.4216 L 27.7677,0.281998 L 27.7544,0.141266
 L 27.75,-0 L 27.7544,-0.141266 L 27.7677,-0.281998 L 27.7899,-0.4216 L 27.8207,-0.55954 L 27.8601,-0.695282
 L 27.908,-0.828278 L 27.9641,-0.957993 L 28.0283,-1.08394 L 28.1003,-1.2056 L 28.1797,-1.32251 L 28.2664,-1.43419
 L 28.3598,-1.54022 L 28.4598,-1.64017 L 28.5658,-1.73364 L 28.6775,-1.82028 L 28.7944,-1.89973 L 28.9161,-1.97168
 L 29.042,-2.03586 L 29.1717,-2.092 L 29.3047,-2.13986 L 29.4405,-2.17931 L 29.5784,-2.21014 L 29.718,-2.23225
 L 29.8587,-2.24556 L 30,-2.25 L 30.1413,-2.24556 L 30.282,-2.23225 L 30.4216,-2.21014 L 30.5595,-2.17931
 L 30.6953,-2.13986 L 30.8283,-2.092 L 30.958,-2.03586 L 31.0839,-1.97168 L 31.2056,-1.89973 L 31.3225,-1.82028
 L 31.4342,-1.73364 L 31.5402,-1.64017 L 31.6402,-1.54022 L 31.7336,-1.43419 L 31.8203,-1.32251 L 31.8997,-1.2056
 L 31.9717,-1.08394 L 32.0359,-0.957993 L 32.092,-0.828278 L 32.1399,-0.695282 L 32.1793,-0.55954 L 32.2101,-0.4216
 L 32.2323,-0.281998 L 32.2456,-0.141266 L 32.25,-0 L 32.2456,0.141266 L 32.2323,0.281998 L 32.2101,0.4216
 L 32.1793,0.55954 L 32.1399,0.695282 L 32.092,0.828278 L 32.0359,0.957993 L 31.9717,1.08394 L 31.8997,1.2056
 L 31.8203,1.32251 L 31.7336,1.43419 L 31.6402,1.54022 L 31.5402,1.64017 L 31.4342,1.73364 L 31.3225,1.82028
 L 31.2056,1.89973 L 31.0839,1.97168 L 30.958,2.03586 L 30.8283,2.092 L 30.6953,2.13986 L 30.5595,2.17931
 L 30.4216,2.21014 L 30.282,2.23225 L 30.1413,2.24556 L 30,2.25 z
M 90.2512,3.9921 L 90.5013,3.96844 L 90.7495,3.92914 L 90.9948,3.87433 L 91.2361,3.80421 L 91.4725,3.7191
 L 91.7031,3.61929 L 91.927,3.50522 L 92.1433,3.3773 L 92.3511,3.23605 L 92.5497,3.08205 L 92.7382,2.91586
 L 92.9159,2.73817 L 93.082,2.54968 L 93.1206,2.5 L 102.5,2.5 L 102.5,-2.5 L 93.1206,-2.5
 L 93.082,-2.54968 L 92.9159,-2.73817 L 92.7382,-2.91586 L 92.5497,-3.08205 L 92.3511,-3.23605 L 92.1433,-3.3773
 L 91.927,-3.50522 L 91.7031,-3.61929 L 91.4725,-3.7191 L 91.2361,-3.80421 L 90.9948,-3.87433 L 90.7495,-3.92914
 L 90.5013,-3.96844 L 90.2512,-3.9921 L 90,-4 L 89.7488,-3.9921 L 89.4987,-3.96844 L 89.2505,-3.92914
 L 89.0052,-3.87433 L 88.7639,-3.80421 L 88.5275,-3.7191 L 88.2969,-3.61929 L 88.073,-3.50522 L 87.8567,-3.3773
 L 87.6489,-3.23605 L 87.4503,-3.08205 L 87.2618,-2.91586 L 87.0841,-2.73817 L 86.918,-2.54968 L 86.8794,-2.5
 L 77.5,-2.5 L 77.5,2.5 L 86.8794,2.5 L 86.918,2.54968 L 87.0841,2.73817 L 87.2618,2.91586
 L 87.4503,3.08205 L 87.6489,3.23605 L 87.8567,3.3773 L 88.073,3.50522 L 88.2969,3.61929 L 88.5275,3.7191
 L 88.7639,3.80421 L 89.0052,3.87433 L 89.2505,3.92914 L 89.4987,3.96844 L 89.7488,3.9921 L 90,4
 z
" stroke="black" fill="lightgray" stroke-width="0.5"/></svg>
