<?xml version="1.0" standalone="no"?>
<!DOCTYPE svg PUBLIC "-//W3C//DTD SVG 1.1//EN" "http://www.w3.org/Graphics/SVG/1.1/DTD/svg11.dtd">
<svg width="200mm" height="31mm" viewBox="-10 -16 200 31" xmlns="http://www.w3.org/2000/svg" version="1.1">
<title>OpenSCAD Model</title>
<path d="
M 120.471,7.4852 L 120.94,7.44086 L 121.405,7.36714 L 121.865,7.26436 L 122.318,7.13292 L 122.761,6.97331
 L 123.193,6.78619 L 123.613,6.5723 L 124.019,6.33246 L 124.408,6.06763 L 124.781,5.77884 L 125.134,5.46725
 L 125.467,5.13409 L 125.779,4.78067 L 126.068,4.40839 L 126.332,4.01869 L 126.572,3.61314 L 126.786,3.19334
 L 126.973,2.76093 L 127.133,2.31763 L 127.264,1.86517 L 127.367,1.40535 L 127.441,0.939987 L 127.485,0.470917
 L 127.5,-0 L 127.5,-14.1269 L 126.812,-14.4772 L 125.89,-14.8764 L 124.944,-15.2169 L 123.979,-15.4973
 L 122.998,-15.7166 L 122.75,-15.7559 L 122.75,-11 L 117.25,-11 L 117.25,-15.7559 L 117.002,-15.7166
 L 116.021,-15.4973 L 115.056,-15.2169 L 114.11,-14.8764 L 113.188,-14.4772 L 112.292,-14.0209 L 111.427,-13.5092
 L 110.803,-13.0856 L 114.166,-9.72272 L 110.277,-5.83362 L 106.914,-9.19653 L 106.491,-8.57323 L 105.979,-7.70805
 L 105.523,-6.81245 L 105.124,-5.88998 L 104.783,-4.94426 L 104.503,-3.97903 L 104.283,-2.99809 L 104.244,-2.75
 L 109,-2.75 L 109,2.75 L 104.244,2.75 L 104.283,2.99809 L 104.503,3.97903 L 104.783,4.94426
 L 105.124,5.88998 L 105.523,6.81245 L 105.873,7.5 L 120,7.5 z
M 119.827,2.74457 L 119.655,2.7283 L 119.485,2.70128 L 119.316,2.66359 L 119.15,2.6154 L 118.988,2.55688
 L 118.829,2.48827 L 118.675,2.40984 L 118.526,2.3219 L 118.384,2.22479 L 118.247,2.1189 L 118.118,2.00465
 L 117.995,1.88249 L 117.881,1.75291 L 117.775,1.61641 L 117.678,1.47351 L 117.59,1.32481 L 117.512,1.17088
 L 117.443,1.01233 L 117.385,0.849792 L 117.336,0.683884 L 117.299,0.515289 L 117.272,0.344666 L 117.255,0.172668
 L 117.25,-0 L 117.255,-0.172668 L 117.272,-0.344666 L 117.299,-0.515289 L 117.336,-0.683884 L 117.385,-0.849792
 L 117.443,-1.01233 L 117.512,-1.17088 L 117.59,-1.32481 L 117.678,-1.47351 L 117.775,-1.61641 L 117.881,-1.75291
 L 117.995,-1.88249 L 118.118,-2.00465 L 118.247,-2.1189 L 118.384,-2.22479 L 118.526,-2.3219 L 118.675,-2.40984
 L 118.829,-2.48827 L 118.988,-2.55688 L 119.15,-2.6154 L 119.316,-2.66359 L 119.485,-2.70128 L 119.655,-2.7283
 L 119.827,-2.74457 L 120,-2.75 L 120.173,-2.74457 L 120.345,-2.7283 L 120.515,-2.70128 L 120.684,-2.66359
 L 120.85,-2.6154 L 121.012,-2.55688 L 121.171,-2.48827 L 121.325,-2.40984 L 121.474,-2.3219 L 121.616,-2.22479
 L 121.753,-2.1189 L 121.882,-2.00465 L 122.005,-1.88249 L 122.119,-1.75291 L 122.225,-1.61641 L 122.322,-1.47351
 L 122.41,-1.32481 L 122.488,-1.17088 L 122.557,-1.01233 L 122.615,-0.849792 L 122.664,-0.683884 L 122.701,-0.515289
 L 122.728,-0.344666 L 122.745,-0.172668 L 122.75,-0 L 122.745,0.172668 L 122.728,0.344666 L 122.701,0.515289
 L 122.664,0.683884 L 122.615,0.849792 L 122.557,1.01233 L 122.488,1.17088 L 122.41,1.32481 L 122.322,1.47351
 L 122.225,1.61641 L 122.119,1.75291 L 122.005,1.88249 L 121.882,2.00465 L 121.753,2.1189 L 121.616,2.22479
 L 121.474,2.3219 L 121.325,2.40984 L 121.171,2.48827 L 121.012,2.55688 L 120.85,2.6154 L 120.684,2.66359
 L 120.515,2.70128 L 120.345,2.7283 L 120.173,2.74457 L 120,2.75 z
M 183.09,14.5106 L 183.681,14.2978 L 184.258,14.0483 L 184.818,13.7631 L 185.358,13.4433 L 185.878,13.0902
 L 186.374,12.7051 L 186.845,12.2897 L 187.29,11.8455 L 187.705,11.3742 L 188.09,10.8778 L 188.443,10.3583
 L 188.763,9.81754 L 189.048,9.25778 L 189.298,8.68124 L 189.511,8.09016 L 189.686,7.48689 L 189.823,6.87381
 L 189.921,6.25333 L 189.98,5.6279 L 190,5 L 190,-5 L 189.98,-5.6279 L 189.921,-6.25333
 L 189.823,-6.87381 L 189.686,-7.48689 L 189.511,-8.09016 L 189.298,-8.68124 L 189.048,-9.25778 L 188.763,-9.81754
 L 188.443,-10.3583 L 188.09,-10.8778 L 187.705,-11.3742 L 187.29,-11.8455 L 186.845,-12.2897 L 186.374,-12.7051
 L 185.878,-13.0902 L 185.358,-13.4433 L 184.818,-13.7631 L 184.258,-14.0483 L 183.681,-14.2978 L 183.09,-14.5106
 L 182.75,-14.6094 L 182.75,-10 L 177.25,-10 L 177.25,-14.6094 L 176.91,-14.5106 L 176.319,-14.2978
 L 175.742,-14.0483 L 175.182,-13.7631 L 174.642,-13.4433 L 174.122,-13.0902 L 173.626,-12.7051 L 173.155,-12.2897
 L 172.71,-11.8455 L 172.295,-11.3742 L 171.91,-10.8778 L 171.557,-10.3583 L 171.237,-9.81754 L 170.952,-9.25778
 L 170.702,-8.68124 L 170.489,-8.09016 L 170.314,-7.48689 L 170.177,-6.87381 L 170.079,-6.25333 L 170.02,-5.6279
 L 170,-5 L 170,5 L 170.02,5.6279 L 170.079,6.25333 L 170.177,6.87381 L 170.314,7.48689
 L 170.489,8.09016 L 170.702,8.68124 L 170.952,9.25778 L 171.237,9.81754 L 171.557,10.3583 L 171.91,10.8778
 L 172.295,11.3742 L 172.71,11.8455 L 173.155,12.2897 L 173.626,12.7051 L 174.122,13.0902 L 174.642,13.4433
 L 175.182,13.7631 L 175.742,14.0483 L 176.319,14.2978 L 176.91,14.5106 L 177.25,14.6094 L 177.25,10
 L 182.75,10 L 182.75,14.6094 z
M 179.78,3.49309 L 179.561,3.4724 L 179.344,3.438 L 179.13,3.39003 L 178.918,3.32869 L 178.712,3.25421
 L 178.51,3.16689 L 178.314,3.06706 L 178.125,2.95514 L 177.943,2.83156 L 177.769,2.69679 L 177.604,2.55138
 L 177.449,2.3959 L 177.303,2.23097 L 177.168,2.05724 L 177.045,1.87538 L 176.933,1.68613 L 176.833,1.49022
 L 176.746,1.28842 L 176.671,1.08156 L 176.61,0.870407 L 176.562,0.655823 L 176.528,0.43866 L 176.507,0.219757
 L 176.5,-0 L 176.507,-0.219757 L 176.528,-0.43866 L 176.562,-0.655823 L 176.61,-0.870407 L 176.671,-1.08156
 L 176.746,-1.28842 L 176.833,-1.49022 L 176.933,-1.68613 L 177.045,-1.87538 L 177.168,-2.05724 L 177.303,-2.23097
 L 177.449,-2.3959 L 177.604,-2.55138 L 177.769,-2.69679 L 177.943,-2.83156 L 178.125,-2.95514 L 178.314,-3.06706
 L 178.51,-3.16689 L 178.712,-3.25421 L 178.918,-3.32869 L 179.13,-3.39003 L 179.344,-3.438 L 179.561,-3.4724
 L 179.78,-3.49309 L 180,-3.5 L 180.22,-3.49309 L 180.439,-3.4724 L 180.656,-3.438 L 180.87,-3.39003
 L 181.082,-3.32869 L 181.288,-3.25421 L 181.49,-3.16689 L 181.686,-3.06706 L 181.875,-2.95514 L 182.057,-2.83156
 L 182.231,-2.69679 L 182.396,-2.55138 L 182.551,-2.3959 L 182.697,-2.23097 L 182.832,-2.05724 L 182.955,-1.87538
 L 183.067,-1.68613 L 183.167,-1.49022 L 183.254,-1.28842 L 183.329,-1.08156 L 183.39,-0.870407 L 183.438,-0.655823
 L 183.472,-0.43866 L 183.493,-0.219757 L 183.5,-0 L 183.493,0.219757 L 183.472,0.43866 L 183.438,0.655823
 L 183.39,0.870407 L 183.329,1.08156 L 183.254,1.28842 L 183.167,1.49022 L 183.067,1.68613 L 182.955,1.87538
 L 182.832,2.05724 L 182.697,2.23097 L 182.551,2.3959 L 182.396,2.55138 L 182.231,2.69679 L 182.057,2.83156
 L 181.875,2.95514 L 181.686,3.06706 L 181.49,3.16689 L 181.288,3.25421 L 181.082,3.32869 L 180.87,3.39003
 L 180.656,3.438 L 180.439,3.4724 L 180.22,3.49309 L 180,3.5 z
M 153.09,14.5106 L 153.681,14.2978 L 154.258,14.0483 L 154.818,13.7631 L 155.358,13.4433 L 155.878,13.0902
 L 156.374,12.7051 L 156.845,12.2897 L 157.29,11.8455 L 157.705,11.3742 L 158.09,10.8778 L 158.443,10.3583
 L 158.763,9.81754 L 159.048,9.25778 L 159.298,8.68124 L 159.511,8.09016 L 159.686,7.48689 L 159.823,6.87381
 L 159.921,6.25333 L 159.98,5.6279 L 160,5 L 160,-5 L 159.98,-5.6279 L 159.921,-6.25333
 L 159.823,-6.87381 L 159.686,-7.48689 L 159.511,-8.09016 L 159.298,-8.68124 L 159.048,-9.25778 L 158.763,-9.81754
 L 158.443,-10.3583 L 158.09,-10.8778 L 157.705,-11.3742 L 157.29,-11.8455 L 156.845,-12.2897 L 156.374,-12.7051
 L 155.878,-13.0902 L 155.358,-13.4433 L 154.818,-13.7631 L 154.258,-14.0483 L 153.681,-14.2978 L 153.09,-14.5106
 L 152.75,-14.6094 L 152.75,-10 L 147.25,-10 L 147.25,-14.6094 L 146.91,-14.5106 L 146.319,-14.2978
 L 145.742,-14.0483 L 145.182,-13.7631 L 144.642,-13.4433 L 144.122,-13.0902 L 143.626,-12.7051 L 143.155,-12.2897
 L 142.71,-11.8455 L 142.295,-11.3742 L 141.91,-10.8778 L 141.557,-10.3583 L 141.237,-9.81754 L 140.952,-9.25778
 L 140.702,-8.68124 L 140.489,-8.09016 L 140.314,-7.48689 L 140.177,-6.87381 L 140.079,-6.25333 L 140.02,-5.6279
 L 140,-5 L 140,5 L 140.02,5.6279 L 140.079,6.25333 L 140.177,6.87381 L 140.314,7.48689
 L 140.489,8.09016 L 140.702,8.68124 L 140.952,9.25778 L 141.237,9.81754 L 141.557,10.3583 L 141.91,10.8778
 L 142.295,11.3742 L 142.71,11.8455 L 143.155,12.2897 L 143.626,12.7051 L 144.122,13.0902 L 144.642,13.4433
 L 145.182,13.7631 L 145.742,14.0483 L 146.319,14.2978 L 146.91,14.5106 L 147.25,14.6094 L 147.25,10
 L 152.75,10 L 152.75,14.6094 z
M 149.827,2.74457 L 149.655,2.7283 L 149.485,2.70128 L 149.316,2.66359 L 149.15,2.6154 L 148.988,2.55688
 L 148.829,2.48827 L 148.675,2.40984 L 148.526,2.3219 L 148.384,2.22479 L 148.247,2.1189 L 148.118,2.00465
 L 147.995,1.88249 L 147.881,1.75291 L 147.775,1.61641 L 147.678,1.47351 L 147.59,1.32481 L 147.512,1.17088
 L 147.443,1.01233 L 147.385,0.849792 L 147.336,0.683884 L 147.299,0.515289 L 147.272,0.344666 L 147.255,0.172668
 L 147.25,-0 L 147.255,-0.172668 L 147.272,-0.344666 L 147.299,-0.515289 L 147.336,-0.683884 L 147.385,-0.849792
 L 147.443,-1.01233 L 147.512,-1.17088 L 147.59,-1.32481 L 147.678,-1.47351 L 147.775,-1.61641 L 147.881,-1.75291
 L 147.995,-1.88249 L 148.118,-2.00465 L 148.247,-2.1189 L 148.384,-2.22479 L 148.526,-2.3219 L 148.675,-2.40984
 L 148.829,-2.48827 L 148.988,-2.55688 L 149.15,-2.6154 L 149.316,-2.66359 L 149.485,-2.70128 L 149.655,-2.7283
 L 149.827,-2.74457 L 150,-2.75 L 150.173,-2.74457 L 150.345,-2.7283 L 150.515,-2.70128 L 150.684,-2.66359
 L 150.85,-2.6154 L 151.012,-2.55688 L 151.171,-2.48827 L 151.325,-2.40984 L 151.474,-2.3219 L 151.616,-2.22479
 L 151.753,-2.1189 L 151.882,-2.00465 L 152.005,-1.88249 L 152.119,-1.75291 L 152.225,-1.61641 L 152.322,-1.47351
 L 152.41,-1.32481 L 152.488,-1.17088 L 152.557,-1.01233 L 152.615,-0.849792 L 152.664,-0.683884 L 152.701,-0.515289
 L 152.728,-0.344666 L 152.745,-0.172668 L 152.75,-0 L 152.745,0.172668 L 152.728,0.344666 L 152.701,0.515289
 L 152.664,0.683884 L 152.615,0.849792 L 152.557,1.01233 L 152.488,1.17088 L 152.41,1.32481 L 152.322,1.47351
 L 152.225,1.61641 L 152.119,1.75291 L 152.005,1.88249 L 151.882,2.00465 L 151.753,2.1189 L 151.616,2.22479
 L 151.474,2.3219 L 151.325,2.40984 L 151.171,2.48827 L 151.012,2.55688 L 150.85,2.6154 L 150.684,2.66359
 L 150.515,2.70128 L 150.345,2.7283 L 150.173,2.74457 L 150,2.75 z
M 61.1763,12.4445 L 61.9554,12.3461 L 62.7268,12.1989 L 63.4874,12.0036 L 64.2342,11.761 L 64.9643,11.4719
 L 65.6749,11.1376 L 66.363,10.7593 L 66.6733,10.5624 L 63.0052,6.89429 L 66.8943,3.0052 L 70.5624,6.67326
 L 70.7593,6.36302 L 71.1376,5.67488 L 71.4719,4.96434 L 71.761,4.23422 L 72.0036,3.48738 L 72.1989,2.72678
 L 72.3461,1.95543 L 72.4445,1.17635 L 72.4938,0.392639 L 72.4938,-0.392639 L 72.4445,-1.17635 L 72.3461,-1.95543
 L 72.1989,-2.72678 L 72.0036,-3.48738 L 71.761,-4.23422 L 71.4719,-4.96434 L 71.1376,-5.67488 L 70.7593,-6.36302
 L 70.5624,-6.67326 L 66.8943,-3.0052 L 63.0052,-6.89429 L 66.6733,-10.5624 L 66.363,-10.7593 L 65.6749,-11.1376
 L 64.9643,-11.4719 L 64.2342,-11.761 L 63.4874,-12.0036 L 62.7268,-12.1989 L 61.9554,-12.3461 L 61.1763,-12.4445
 L 60.3926,-12.4938 L 59.6073,-12.4938 L 58.8236,-12.4445 L 58.0446,-12.3461 L 57.2732,-12.1989 L 56.5126,-12.0036
 L 55.7658,-11.761 L 55.0356,-11.4719 L 54.3251,-11.1376 L 53.637,-10.7593 L 53.3267,-10.5624 L 56.9948,-6.89429
 L 53.1057,-3.0052 L 49.4376,-6.67326 L 49.2407,-6.36302 L 48.8624,-5.67488 L 48.5281,-4.96434 L 48.239,-4.23422
 L 47.9963,-3.48738 L 47.801,-2.72678 L 47.6539,-1.95543 L 47.5555,-1.17635 L 47.5062,-0.392639 L 47.5062,0.392639
 L 47.5555,1.17635 L 47.6539,1.95543 L 47.801,2.72678 L 47.9963,3.48738 L 48.239,4.23422 L 48.5281,4.96434
 L 48.8624,5.67488 L 49.2407,6.36302 L 49.4376,6.67326 L 53.1057,3.0052 L 56.9948,6.89429 L 53.3267,10.5624
 L 53.637,10.7593 L 54.3251,11.1376 L 55.0356,11.4719 L 55.7658,11.761 L 56.5126,12.0036 L 57.2732,12.1989
 L 58.0446,12.3461 L 58.8236,12.4445 L 59.6073,12.4938 L 60.3926,12.4938 z
M 59.9136,2.74863 L 59.7412,2.73778 L 59.5698,2.71613 L 59.4001,2.68375 L 59.2328,2.64079 L 59.0685,2.5874
 L 58.9078,2.5238 L 58.7515,2.45026 L 58.6001,2.36702 L 58.4543,2.27444 L 58.3145,2.17291 L 58.1814,2.06279
 L 58.0555,1.94453 L 57.9372,1.8186 L 57.8271,1.68547 L 57.7255,1.54572 L 57.633,1.39986 L 57.5497,1.24847
 L 57.4762,1.09216 L 57.4126,0.931519 L 57.3592,0.767212 L 57.3162,0.599899 L 57.2839,0.430191 L 57.2622,0.258774
 L 57.2514,0.08638 L 57.2514,-0.08638 L 57.2622,-0.258774 L 57.2839,-0.430191 L 57.3162,-0.599899 L 57.3592,-0.767212
 L 57.4126,-0.931519 L 57.4762,-1.09216 L 57.5497,-1.24847 L 57.633,-1.39986 L 57.7255,-1.54572 L 57.8271,-1.68547
 L 57.9372,-1.8186 L 58.0555,-1.94453 L 58.1814,-2.06279 L 58.3145,-2.17291 L 58.4543,-2.27444 L 58.6001,-2.36702
 L 58.7515,-2.45026 L 58.9078,-2.5238 L 59.0685,-2.5874 L 59.2328,-2.64079 L 59.4001,-2.68375 L 59.5698,-2.71613
 L 59.7412,-2.73778 L 59.9136,-2.74863 L 60.0864,-2.74863 L 60.2588,-2.73778 L 60.4302,-2.71613 L 60.5999,-2.68375
 L 60.7672,-2.64079 L 60.9315,-2.5874 L 61.0922,-2.5238 L 61.2485,-2.45026 L 61.3999,-2.36702 L 61.5457,-2.27444
 L 61.6855,-2.17291 L 61.8186,-2.06279 L 61.9445,-1.94453 L 62.0628,-1.8186 L 62.1729,-1.68547 L 62.2744,-1.54572
 L 62.367,-1.39986 L 62.4503,-1.24847 L 62.5238,-1.09216 L 62.5874,-0.931519 L 62.6408,-0.767212 L 62.6837,-0.599899
 L 62.7161,-0.430191 L 62.7378,-0.258774 L 62.7486,-0.08638 L 62.7486,0.08638 L 62.7378,0.258774 L 62.7161,0.430191
 L 62.6837,0.599899 L 62.6408,0.767212 L 62.5874,0.931519 L 62.5238,1.09216 L 62.4503,1.24847 L 62.367,1.39986
 L 62.2744,1.54572 L 62.1729,1.68547 L 62.0628,1.8186 L 61.9445,1.94453 L 61.8186,2.06279 L 61.6855,2.17291
 L 61.5457,2.27444 L 61.3999,2.36702 L 61.2485,2.45026 L 61.0922,2.5238 L 60.9315,2.5874 L 60.7672,2.64079
 L 60.5999,2.68375 L 60.4302,2.71613 L 60.2588,2.73778 L 60.0864,2.74863 z
M 0.627899,9.98026 L 1.25333,9.92114 L 1.87381,9.82286 L 2.48689,9.68582 L 3.09016,9.51056 L 3.68124,9.29776
 L 4.25778,9.04826 L 4.81754,8.76306 L 5.35826,8.44327 L 5.87784,8.09016 L 6.37424,7.70512 L 6.84546,7.28967
 L 7.28967,6.84546 L 7.70512,6.37424 L 8.09016,5.87784 L 8.44327,5.35826 L 8.76306,4.81754 L 9.04826,4.25778
 L 9.29776,3.68124 L 9.51056,3.09016 L 9.68582,2.48689 L 9.82286,1.87381 L 9.92114,1.25333 L 9.98026,0.627899
 L 10,-0 L 9.98026,-0.627899 L 9.92114,-1.25333 L 9.82286,-1.87381 L 9.68582,-2.48689 L 9.51056,-3.09016
 L 9.29776,-3.68124 L 9.04826,-4.25778 L 8.76306,-4.81754 L 8.44327,-5.35826 L 8.09016,-5.87784 L 7.70512,-6.37424
 L 7.28967,-6.84546 L 6.84546,-7.28967 L 6.37424,-7.70512 L 5.87784,-8.09016 L 5.35826,-8.44327 L 4.81754,-8.76306
 L 4.25778,-9.04826 L 3.68124,-9.29776 L 3.09016,-9.51056 L 2.75,-9.60939 L 2.75,-5 L -2.75,-5
 L -2.75,-9.60939 L -3.09016,-9.51056 L -3.68124,-9.29776 L -4.25778,-9.04826 L -4.81754,-8.76306 L -5.35826,-8.44327
 L -5.87784,-8.09016 L -6.37424,-7.70512 L -6.84546,-7.28967 L -7.28967,-6.84546 L -7.70512,-6.37424 L -8.09016,-5.87784
 L -8.44327,-5.35826 L -8.76306,-4.81754 L -9.04826,-4.25778 L -9.29776,-3.68124 L -9.51056,-3.09016 L -9.68582,-2.48689
 L -9.82286,-1.87381 L -9.92114,-1.25333 L -9.98026,-0.627899 L -10,-0 L -9.98026,0.627899 L -9.92114,1.25333
 L -9.82286,1.87381 L -9.68582,2.48689 L -9.51056,3.09016 L -9.29776,3.68124 L -9.04826,4.25778 L -8.76306,4.81754
 L -8.44327,5.35826 L -8.09016,5.87784 L -7.70512,6.37424 L -7.28967,6.84546 L -6.84546,7.28967 L -6.37424,7.70512
 L -5.87784,8.09016 L -5.35826,8.44327 L -4.81754,8.76306 L -4.25778,9.04826 L -3.68124,9.29776 L -3.09016,9.51056
 L -2.48689,9.68582 L -1.87381,9.82286 L -1.25333,9.92114 L -0.627899,9.98026 L 0,10 z
M -0.219757,3.49309 L -0.43866,3.4724 L -0.655823,3.438 L -0.870407,3.39003 L -1.08156,3.32869 L -1.28842,3.25421
 L -1.49022,3.16689 L -1.68613,3.06706 L -1.87538,2.95514 L -2.05724,2.83156 L -2.23097,2.69679 L -2.3959,2.55138
 L -2.55138,2.3959 L -2.69679,2.23097 L -2.83156,2.05724 L -2.95514,1.87538 L -3.06706,1.68613 L -3.16689,1.49022
 L -3.25421,1.28842 L -3.32869,1.08156 L -3.39003,0.870407 L -3.438,0.655823 L -3.4724,0.43866 L -3.49309,0.219757
 L -3.5,-0 L -3.49309,-0.219757 L -3.4724,-0.43866 L -3.438,-0.655823 L -3.39003,-0.870407 L -3.32869,-1.08156
 L -3.25421,-1.28842 L -3.16689,-1.49022 L -3.06706,-1.68613 L -2.95514,-1.87538 L -2.83156,-2.05724 L -2.69679,-2.23097
 L -2.55138,-2.3959 L -2.3959,-2.55138 L -2.23097,-2.69679 L -2.05724,-2.83156 L -1.87538,-2.95514 L -1.68613,-3.06706
 L -1.49022,-3.16689 L -1.28842,-3.25421 L -1.08156,-3.32869 L -0.870407,-3.39003 L -0.655823,-3.438 L -0.43866,-3.4724
 L -0.219757,-3.49309 L 0,-3.5 L 0.219757,-3.49309 L 0.43866,-3.4724 L 0.655823,-3.438 L 0.870407,-3.39003
 L 1.08156,-3.32869 L 1.28842,-3.25421 L 1.49022,-3.16689 L 1.68613,-3.06706 L 1.87538,-2.95514 L 2.05724,-2.83156
 L 2.23097,-2.69679 L 2.3959,-2.55138 L 2.55138,-2.3959 L 2.69679,-2.23097 L 2.83156,-2.05724 L 2.95514,-1.87538
 L 3.06706,-1.68613 L 3.16689,-1.49022 L 3.25421,-1.28842 L 3.32869,-1.08156 L 3.39003,-0.870407 L 3.438,-0.655823
 L 3.4724,-0.43866 L 3.49309,-0.219757 L 3.5,-0 L 3.49309,0.219757 L 3.4724,0.43866 L 3.438,0.655823
 L 3.39003,0.870407 L 3.32869,1.08156 L 3.25421,1.28842 L 3.16689,1.49022 L 3.06706,1.68613 L 2.95514,1.87538
 L 2.83156,2.05724 L 2.69679,2.23097 L 2.55138,2.3959 L 2.3959,2.55138 L 2.23097,2.69679 L 2.05724,2.83156
 L 1.87538,2.95514 L 1.68613,3.06706 L 1.49022,3.16689 L 1.28842,3.25421 L 1.08156,3.32869 L 0.870407,3.39003
 L 0.655823,3.438 L 0.43866,3.4724 L 0.219757,3.49309 L 0,3.5 z
M 30.6279,9.98026 L 31.2533,9.92114 L 31.8738,9.82286 L 32.4869,9.68582 L 33.0902,9.51056 L 33.6812,9.29776
 L 34.2578,9.04826 L 34.8175,8.76306 L 35.3583,8.44327 L 35.8778,8.09016 L 36.3742,7.70512 L 36.8455,7.28967
 L 37.2897,6.84546 L 37.7051,6.37424 L 38.0902,5.87784 L 38.4433,5.35826 L 38.7631,4.81754 L 39.0483,4.25778
 L 39.2978,3.68124 L 39.5106,3.09016 L 39.6858,2.48689 L 39.8229,1.87381 L 39.9211,1.25333 L 39.9803,0.627899
 L 40,-0 L 39.9803,-0.627899 L 39.9211,-1.25333 L 39.8229,-1.87381 L 39.6858,-2.48689 L 39.5106,-3.09016
 L 39.2978,-3.68124 L 39.0483,-4.25778 L 38.7631,-4.81754 L 38.4433,-5.35826 L 38.0902,-5.87784 L 37.7051,-6.37424
 L 37.2897,-6.84546 L 36.8455,-7.28967 L 36.3742,-7.70512 L 35.8778,-8.09016 L 35.3583,-8.44327 L 34.8175,-8.76306
 L 34.2578,-9.04826 L 33.6812,-9.29776 L 33.0902,-9.51056 L 32.75,-9.60939 L 32.75,-5 L 27.25,-5
 L 27.25,-9.60939 L 26.9098,-9.51056 L 26.3188,-9.29776 L 25.7422,-9.04826 L 25.1825,-8.76306 L 24.6417,-8.44327
 L 24.1222,-8.09016 L 23.6258,-7.70512 L 23.1545,-7.28967 L 22.7103,-6.84546 L 22.2949,-6.37424 L 21.9098,-5.87784
 L 21.5567,-5.35826 L 21.2369,-4.81754 L 20.9517,-4.25778 L 20.7022,-3.68124 L 20.4894,-3.09016 L 20.3142,-2.48689
 L 20.1771,-1.87381 L 20.0789,-1.25333 L 20.0197,-0.627899 L 20,-0 L 20.0197,0.627899 L 20.0789,1.25333
 L 20.1771,1.87381 L 20.3142,2.48689 L 20.4894,3.09016 L 20.7022,3.68124 L 20.9517,4.25778 L 21.2369,4.81754
 L 21.5567,5.35826 L 21.9098,5.87784 L 22.2949,6.37424 L 22.7103,6.84546 L 23.1545,7.28967 L 23.6258,7.70512
 L 24.1222,8.09016 L 24.6417,8.44327 L 25.1825,8.76306 L 25.7422,9.04826 L 26.3188,9.29776 L 26.9098,9.51056
 L 27.5131,9.68582 L 28.1262,9.82286 L 28.7467,9.92114 L 29.3721,9.98026 L 30,10 z
M 29.8273,2.74457 L 29.6553,2.7283 L 29.4847,2.70128 L 29.3161,2.66359 L 29.1502,2.6154 L 28.9877,2.55688
 L 28.8291,2.48827 L 28.6752,2.40984 L 28.5265,2.3219 L 28.3836,2.22479 L 28.2471,2.1189 L 28.1175,2.00465
 L 27.9953,1.88249 L 27.8811,1.75291 L 27.7752,1.61641 L 27.6781,1.47351 L 27.5902,1.32481 L 27.5117,1.17088
 L 27.4431,1.01233 L 27.3846,0.849792 L 27.3364,0.683884 L 27.2987,0.515289 L 27.2717,0.344666 L 27.2554,0.172668
 L 27.25,-0 L 27.2554,-0.172668 L 27.2717,-0.344666 L 27.2987,-0.515289 L 27.3364,-0.683884 L 27.3846,-0.849792
 L 27.4431,-1.01233 L 27.5117,-1.17088 L 27.5902,-1.32481 L 27.6781,-1.47351 L 27.7752,-1.61641 L 27.8811,-1.75291
 L 27.9953,-1.88249 L 28.1175,-2.00465 L 28.2471,-2.1189 L 28.3836,-2.22479 L 28.5265,-2.3219 L 28.6752,-2.40984
 L 28.8291,-2.48827 L 28.9877,-2.55688 L 29.1502,-2.6154 L 29.3161,-2.66359 L 29.4847,-2.70128 L 29.6553,-2.7283
 L 29.8273,-2.74457 L 30,-2.75 L 30.1727,-2.74457 L 30.3447,-2.7283 L 30.5153,-2.70128 L 30.6839,-2.66359
 L 30.8498,-2.6154 L 31.0123,-2.55688 L 31.1709,-2.48827 L 31.3248,-2.40984 L 31.4735,-2.3219 L 31.6164,-2.22479
 L 31.7529,-2.1189 L 31.8825,-2.00465 L 32.0047,-1.88249 L 32.1189,-1.75291 L 32.2248,-1.61641 L 32.3219,-1.47351
 L 32.4098,-1.32481 L 32.4883,-1.17088 L 32.5569,-1.01233 L 32.6154,-0.849792 L 32.6636,-0.683884 L 32.7013,-0.515289
 L 32.7283,-0.344666 L 32.7446,-0.172668 L 32.75,-0 L 32.7446,0.172668 L 32.7283,0.344666 L 32.7013,0.515289
 L 32.6636,0.683884 L 32.6154,0.849792 L 32.5569,1.01233 L 32.4883,1.17088 L 32.4098,1.32481 L 32.3219,1.47351
 L 32.2248,1.61641 L 32.1189,1.75291 L 32.0047,1.88249 L 31.8825,2.00465 L 31.7529,2.1189 L 31.6164,2.22479
 L 31.4735,2.3219 L 31.3248,2.40984 L 31.1709,2.48827 L 31.0123,2.55688 L 30.8498,2.6154 L 30.6839,2.66359
 L 30.5153,2.70128 L 30.3447,2.7283 L 30.1727,2.74457 L 30,2.75 z
M 90.2512,3.9921 L 90.5013,3.96844 L 90.7495,3.92914 L 90.9948,3.87433 L 91.2361,3.80421 L 91.4725,3.7191
 L 91.7031,3.61929 L 91.927,3.50522 L 92.1433,3.3773 L 92.3511,3.23605 L 92.5497,3.08205 L 92.7382,2.91586
 L 92.9159,2.73817 L 93.082,2.54968 L 93.1206,2.5 L 102.5,2.5 L 102.5,-2.5 L 93.1206,-2.5
 L 93.082,-2.54968 L 92.9159,-2.73817 L 92.7382,-2.91586 L 92.5497,-3.08205 L 92.3511,-3.23605 L 92.1433,-3.3773
 L 91.927,-3.50522 L 91.7031,-3.61929 L 91.4725,-3.7191 L 91.2361,-3.80421 L 90.9948,-3.87433 L 90.7495,-3.92914
 L 90.5013,-3.96844 L 90.2512,-3.9921 L 90,-4 L 89.7488,-3.9921 L 89.4987,-3.96844 L 89.2505,-3.92914
 L 89.0052,-3.87433 L 88.7639,-3.80421 L 88.5275,-3.7191 L 88.2969,-3.61929 L 88.073,-3.50522 L 87.8567,-3.3773
 L 87.6489,-3.23605 L 87.4503,-3.08205 L 87.2618,-2.91586 L 87.0841,-2.73817 L 86.918,-2.54968 L 86.8794,-2.5
 L 77.5,-2.5 L 77.5,2.5 L 86.8794,2.5 L 86.918,2.54968 L 87.0841,2.73817 L 87.2618,2.91586
 L 87.4503,3.08205 L 87.6489,3.23605 L 87.8567,3.3773 L 88.073,3.50522 L 88.2969,3.61929 L 88.5275,3.7191
 L 88.7639,3.80421 L 89.0052,3.87433 L 89.2505,3.92914 L 89.4987,3.96844 L 89.7488,3.9921 L 90,4
 z
" stroke="black" fill="lightgray" stroke-width="0.5"/>
</svg>
