<?xml version="1.0" encoding="UTF-8" standalone="no"?>
<svg
   xmlns:dc="http://purl.org/dc/elements/1.1/"
   xmlns:cc="http://creativecommons.org/ns#"
   xmlns:rdf="http://www.w3.org/1999/02/22-rdf-syntax-ns#"
   xmlns:svg="http://www.w3.org/2000/svg"
   xmlns="http://www.w3.org/2000/svg"
   xmlns:sodipodi="http://sodipodi.sourceforge.net/DTD/sodipodi-0.dtd"
   xmlns:inkscape="http://www.inkscape.org/namespaces/inkscape"
   width="297mm"
   height="210mm"
   viewBox="-10 -16 297 209.99999"
   version="1.1"
   id="svg11023"
   sodipodi:docname="simplified-master.svg"
   inkscape:version="0.92.3 (2405546, 2018-03-11)">
  <metadata
     id="metadata11029">
    <rdf:RDF>
      <cc:Work
         rdf:about="">
        <dc:format>image/svg+xml</dc:format>
        <dc:type
           rdf:resource="http://purl.org/dc/dcmitype/StillImage" />
        <dc:title>OpenSCAD Model</dc:title>
      </cc:Work>
    </rdf:RDF>
  </metadata>
  <defs
     id="defs11027" />
  <sodipodi:namedview
     pagecolor="#ffffff"
     bordercolor="#666666"
     borderopacity="1"
     objecttolerance="10"
     gridtolerance="10"
     guidetolerance="10"
     inkscape:pageopacity="0"
     inkscape:pageshadow="2"
     inkscape:window-width="1366"
     inkscape:window-height="713"
     id="namedview11025"
     showgrid="true"
     inkscape:measure-start="-30.117,49.3918"
     inkscape:measure-end="49.9942,-8.43275"
     units="mm"
     inkscape:document-units="mm"
     inkscape:zoom="1.1739346"
     inkscape:cx="545.33616"
     inkscape:cy="561.11308"
     inkscape:window-x="0"
     inkscape:window-y="27"
     inkscape:window-maximized="1"
     inkscape:current-layer="svg11023"
     inkscape:snap-bbox="true"
     inkscape:snap-bbox-midpoints="true"
     inkscape:object-nodes="false"
     inkscape:snap-nodes="false">
    <inkscape:grid
       type="xygrid"
       id="grid13804" />
  </sodipodi:namedview>
  <title
     id="title11019">OpenSCAD Model</title>
  <path
     style="fill:none;stroke:#000000;stroke-width:0.5"
     d="m 62.841729,96.849412 0.4691,-0.0443 0.4653,-0.0737 0.4599,-0.10278 0.4524,-0.13144 0.4433,-0.15961 0.4324,-0.18712 0.4198,-0.21389 0.4056,-0.23984 0.3897,-0.26483 0.3723,-0.28879 0.3534,-0.31159 0.3332,-0.33316 0.3115,-0.35342 0.2888,-0.37228 0.2649,-0.3897 0.2398,-0.40555 0.2139,-0.4198 0.1871,-0.43241 0.1596,-0.4433 0.1315,-0.45246 0.1027,-0.45982 0.0738,-0.46536 0.0443,-0.46907 0.0148,-0.47092 v -14.1269 l -0.6875,-0.3503 -0.9225,-0.3992 -0.9457,-0.3405 -0.9653,-0.2804 -0.9809,-0.2193 -0.7481,-0.1185 v 4.8351 h -4.5 v -4.8351 l -0.7481,0.1185 -0.9809,0.2193 -0.9653,0.2804 -0.9457,0.3405 -0.9225,0.3992 -0.8956,0.4563 -0.8651,0.5117 -0.8314,0.5649 -0.2014,0.1563 3.4188,3.41884 -3.182,3.18198 -3.4188,-3.41884 -0.1563,0.20146 -0.5649,0.83133 -0.5117,0.86518 -0.4563,0.8956 -0.3992,0.92247 -0.3405,0.94572 -0.2804,0.96523 -0.2193,0.98094 -0.1185,0.74809 h 4.8351 v 4.49998 h -4.8351 l 0.1185,0.74811 0.2193,0.98094 0.2804,0.96523 0.3405,0.94572 0.3992,0.92247 0.3503,0.68755 h 14.1269 z"
     id="path13824"
     inkscape:connector-curvature="0" />
  <path
     style="fill:none;stroke:#000000;stroke-width:0.5"
     d="m 62.229529,91.609772 -0.1407,-0.0133 -0.1396,-0.0221 -0.1379,-0.0308 -0.1358,-0.0394 -0.133,-0.0479 -0.1297,-0.0561 -0.1259,-0.0642 -0.1217,-0.0719 -0.1169,-0.0795 -0.1117,-0.0866 -0.106,-0.0935 -0.1,-0.0999 -0.0934,-0.10603 -0.0867,-0.11168 -0.0794,-0.11691 -0.072,-0.12166 -0.0642,-0.12595 -0.0561,-0.12971 -0.0479,-0.133 -0.0394,-0.13574 -0.0308,-0.13794 -0.0222,-0.1396 -0.0133,-0.14073 -0.0044,-0.14127 0.0044,-0.14127 0.0133,-0.14073 0.0222,-0.1396 0.0308,-0.13794 0.0394,-0.13574 0.0479,-0.133 0.0561,-0.12971 0.0642,-0.12595 0.072,-0.12166 0.0794,-0.11691 0.0867,-0.11168 0.0934,-0.10603 0.1,-0.1 0.106,-0.0935 0.1117,-0.0866 0.1169,-0.0795 0.1217,-0.0719 0.1259,-0.0642 0.1297,-0.0561 0.133,-0.0479 0.1358,-0.0395 0.1379,-0.0308 0.1396,-0.0221 0.1407,-0.0133 0.1413,-0.004 0.1413,0.004 0.1407,0.0133 0.1396,0.0221 0.1379,0.0308 0.1358,0.0395 0.133,0.0479 0.1297,0.0561 0.1259,0.0642 0.1217,0.0719 0.1169,0.0795 0.1117,0.0866 0.106,0.0935 0.1,0.1 0.0934,0.10603 0.0867,0.11168 0.0794,0.11691 0.072,0.12166 0.0642,0.12595 0.0561,0.12971 0.0479,0.133 0.0394,0.13574 0.0308,0.13794 0.0222,0.1396 0.0133,0.14073 0.0044,0.14127 -0.0044,0.14127 -0.0133,0.14073 -0.0222,0.1396 -0.0308,0.13794 -0.0394,0.13574 -0.0479,0.133 -0.0561,0.12971 -0.0642,0.12595 -0.072,0.12166 -0.0794,0.11691 -0.0867,0.11168 -0.0934,0.10603 -0.1,0.0999 -0.106,0.0935 -0.1117,0.0866 -0.1169,0.0795 -0.1217,0.0719 -0.1259,0.0642 -0.1297,0.0561 -0.133,0.0479 -0.1358,0.0394 -0.1379,0.0308 -0.1396,0.0221 -0.1407,0.0133 -0.1413,0.004 z"
     id="path13822"
     inkscape:connector-curvature="0" />
  <path
     style="fill:none;stroke:#000000;stroke-width:0.5"
     d="m 9.1762997,70.44462 0.7790996,-0.0984 0.7713997,-0.1472 0.7606,-0.1953 0.7468,-0.2426 0.7301,-0.2891 0.7106,-0.3343 0.6881,-0.3783 0.663,-0.4208 0.0756,-0.0549 -3.7429,-3.74287 3.182,-3.18198 3.7429,3.74286 0.0549,-0.0756 0.4208,-0.66301 0.3783,-0.68814 0.3343,-0.71054 0.2891,-0.73012 0.2426,-0.74684 0.1953,-0.7606 0.1472,-0.77135 0.0984,-0.77908 0.0493,-0.78371 v -0.78528 l -0.0493,-0.78371 -0.0984,-0.77908 -0.1472,-0.77135 -0.1953,-0.7606 -0.2426,-0.74684 -0.2891,-0.73012 -0.3343,-0.71054 -0.3783,-0.68814 -0.4208,-0.66301 -0.0549,-0.0756 -3.7429,3.74286 -3.182,-3.18198 3.7429,-3.74287 -0.0756,-0.0549 -0.663,-0.4208 -0.6881,-0.3783 -0.7106,-0.3343 -0.7301,-0.2891 -0.7468,-0.2426 -0.7606,-0.1953 -0.7713997,-0.1472 -0.7790996,-0.0984 -0.7836994,-0.0493 H 7.6074006 l -0.7837003,0.0493 -0.7791,0.0984 -0.7714,0.1472 -0.7606,0.1953 -0.7468,0.2426 -0.7301,0.2891 -0.7106,0.3343 -0.6881,0.3783 -0.66299997,0.4208 -0.0756,0.0549 3.74289997,3.74287 -3.182,3.18198 -3.7428999,-3.74286 -0.0549,0.0756 -0.4208001,0.66301 -0.3783,0.68814 -0.3343,0.71054 -0.2891,0.73012 -0.2426,0.74684 -0.1953,0.7606 -0.1472,0.77135 -0.0984,0.77908 -0.0493,0.78371 v 0.78528 l 0.0493,0.78371 0.0984,0.77908 0.1472,0.77135 0.1953,0.7606 0.2426,0.74684 0.2891,0.73012 0.3343,0.71054 0.3783,0.68814 0.4208001,0.66301 0.0549,0.0756 3.7428999,-3.74286 3.182,3.18198 -3.74289997,3.74287 0.0756,0.0549 0.66299997,0.4208 0.6881,0.3783 0.7106,0.3343 0.7301,0.2891 0.7468,0.2426 0.7606,0.1953 0.7714,0.1472 0.7791,0.0984 0.7837003,0.0493 h 0.7851997 z"
     id="path13820"
     inkscape:connector-curvature="0" />
  <path
     style="fill:none;stroke:#000000;stroke-width:0.5"
     d="m 7.9293006,60.24899 -0.141,-0.009 -0.1403,-0.0177 -0.1388007,-0.0265 -0.1369,-0.0352 -0.1345,-0.0437 -0.1314,-0.052 -0.1278996,-0.0602 -0.1238,-0.0681 -0.1194,-0.0757 -0.1143,-0.0831 -0.1089,-0.0901 -0.1031,-0.0967 -0.0967,-0.10304 -0.0901,-0.10892 -0.0831,-0.11435 -0.0757,-0.11934 -0.0681,-0.12387 -0.0602,-0.1279 -0.0521,-0.13141 -0.0436,-0.13444 -0.0352,-0.13691 -0.0265,-0.13884 -0.0177,-0.14024 -0.0089,-0.14107 v -0.14132 l 0.0089,-0.14107 0.0177,-0.14024 0.0265,-0.13884 0.0352,-0.13691 0.0436,-0.13444 0.0521,-0.13141 0.0602,-0.1279 0.0681,-0.12387 0.0757,-0.11934 0.0831,-0.11435 0.0901,-0.10892 0.0967,-0.10304 0.1031,-0.0967 0.1089,-0.0901 0.1143,-0.0831 0.1194,-0.0757 0.1238,-0.0681 0.1278996,-0.0602 0.1314,-0.052 0.1345,-0.0437 0.1369,-0.0352 0.1388007,-0.0265 0.1403,-0.0177 0.141,-0.009 h 0.1413997 l 0.141,0.009 0.1403,0.0177 0.1388,0.0265 0.1368997,0.0352 0.1345,0.0437 0.1314,0.052 0.1279,0.0602 0.1237997,0.0681 0.1194,0.0757 0.1143,0.0831 0.1089,0.0901 0.1031,0.0967 0.0967,0.10304 0.0901,0.10892 0.0831,0.11435 0.0757,0.11934 0.0681,0.12387 0.0602,0.1279 0.0521,0.13141 0.0436,0.13444 0.0352,0.13691 0.0265,0.13884 0.0177,0.14024 0.0089,0.14107 v 0.14132 l -0.0089,0.14107 -0.0177,0.14024 -0.0265,0.13884 -0.0352,0.13691 -0.0436,0.13444 -0.0521,0.13141 -0.0602,0.1279 -0.0681,0.12387 -0.0757,0.11934 -0.0831,0.11435 -0.0901,0.10892 -0.0967,0.10304 -0.1031,0.0967 -0.1089,0.0901 -0.1143,0.0831 -0.1194,0.0757 -0.1237997,0.0681 -0.1279,0.0602 -0.1314,0.052 -0.1345,0.0437 -0.1368997,0.0352 -0.1388,0.0265 -0.1403,0.0177 -0.141,0.009 z"
     id="path13818"
     inkscape:connector-curvature="0" />
  <path
     style="fill:none;stroke:#000000;stroke-width:0.5"
     d="m 105.6279,33.880685 0.62543,-0.0591 0.62048,-0.0983 0.61308,-0.13704 0.60327,-0.17526 0.59108,-0.2128 0.57654,-0.2495 0.55976,-0.2852 0.54072,-0.31979 0.51958,-0.35311 0.4964,-0.38504 0.47122,-0.41545 0.44421,-0.44421 0.41545,-0.47122 0.38504,-0.4964 0.35311,-0.51958 0.31979,-0.54072 0.2852,-0.55976 0.2495,-0.57654 0.2128,-0.59108 0.17526,-0.60327 0.13704,-0.61308 0.0983,-0.62048 0.0591,-0.62543 0.0197,-0.6279 -0.0197,-0.6279 -0.0591,-0.62543 -0.0983,-0.62048 -0.13704,-0.61308 -0.17526,-0.60327 -0.2128,-0.59108 -0.2495,-0.57654 -0.2852,-0.55976 -0.31979,-0.54072 -0.35311,-0.51958 -0.38504,-0.4964 -0.41545,-0.47122 -0.44421,-0.44421 -0.47122,-0.41545 -0.4964,-0.38504 -0.51958,-0.35311 -0.54072,-0.31979 -0.55976,-0.2852 -0.57654,-0.2495 -0.59108,-0.2128 -0.60327,-0.17526 -0.23689,-0.053 v 4.73877 h -4.5 v -4.73877 l -0.23689,0.053 -0.60327,0.17526 -0.59108,0.2128 -0.57654,0.2495 -0.55976,0.2852 -0.54072,0.31979 -0.51958,0.35311 -0.4964,0.38504 -0.47122,0.41545 -0.44421,0.44421 -0.41545,0.47122 -0.38504,0.4964 -0.35311,0.51958 -0.31979,0.54072 -0.2852,0.55976 -0.2495,0.57654 -0.2128,0.59108 -0.17526,0.60327 -0.13704,0.61308 -0.09828,0.62048 -0.05912,0.62543 -0.01974,0.6279 0.01974,0.6279 0.05912,0.62543 0.09828,0.62048 0.13704,0.61308 0.17526,0.60327 0.2128,0.59108 0.2495,0.57654 0.2852,0.55976 0.31979,0.54072 0.35311,0.51958 0.38504,0.4964 0.41545,0.47122 0.44421,0.44421 0.47122,0.41545 0.4964,0.38504 0.51958,0.35311 0.54072,0.31979 0.55976,0.2852 0.57654,0.2495 0.59108,0.2128 0.60327,0.17526 0.61308,0.13704 0.62048,0.0983 0.62543,0.0591 0.6279,0.0197 z"
     id="path13816"
     inkscape:connector-curvature="0" />
  <path
     style="fill:none;stroke:#000000;stroke-width:0.5"
     d="m 104.81163,26.894505 -0.18762,-0.0178 -0.18614,-0.0295 -0.18393,-0.0411 -0.18099,-0.0526 -0.17732,-0.0638 -0.17296,-0.0748 -0.16792,-0.0856 -0.16222,-0.0959 -0.15588,-0.10592 -0.14891,-0.11551 -0.14137,-0.12464 -0.13327,-0.13327 -0.12464,-0.14137 -0.11551,-0.14891 -0.10592,-0.15588 -0.0959,-0.16222 -0.0856,-0.16792 -0.0748,-0.17296 -0.0638,-0.17732 -0.0526,-0.18099 -0.0411,-0.18393 -0.0295,-0.18614 -0.0177,-0.18762 -0.006,-0.18838 0.006,-0.18837 0.0177,-0.18762 0.0295,-0.18614 0.0411,-0.18393 0.0526,-0.18099 0.0638,-0.17732 0.0748,-0.17296 0.0856,-0.16792 0.0959,-0.16222 0.10592,-0.15588 0.11551,-0.14891 0.12464,-0.14137 0.13327,-0.13327 0.14137,-0.12464 0.14891,-0.11551 0.15588,-0.10592 0.16222,-0.0959 0.16792,-0.0856 0.17296,-0.0748 0.17732,-0.0638 0.18099,-0.0526 0.18393,-0.0411 0.18614,-0.0295 0.18762,-0.0177 0.18837,-0.006 0.18837,0.006 0.18762,0.0177 0.18614,0.0295 0.18393,0.0411 0.18099,0.0526 0.17732,0.0638 0.17296,0.0748 0.16792,0.0856 0.16222,0.0959 0.15588,0.10592 0.14891,0.11551 0.14137,0.12464 0.13327,0.13327 0.12464,0.14137 0.11551,0.14891 0.10592,0.15588 0.0959,0.16222 0.0856,0.16792 0.0748,0.17296 0.0638,0.17732 0.0526,0.18099 0.0411,0.18393 0.0295,0.18614 0.0177,0.18762 0.006,0.18837 -0.006,0.18837 -0.0177,0.18762 -0.0295,0.18614 -0.0411,0.18393 -0.0526,0.18099 -0.0638,0.17732 -0.0748,0.17296 -0.0856,0.16792 -0.0959,0.16222 -0.10592,0.15588 -0.11551,0.14891 -0.12464,0.14137 -0.13327,0.13327 -0.14137,0.12464 -0.14891,0.11551 -0.15588,0.10592 -0.16222,0.0959 -0.16792,0.0856 -0.17296,0.0748 -0.17732,0.0638 -0.18099,0.0526 -0.18393,0.0411 -0.18614,0.0295 -0.18762,0.0178 -0.18837,0.006 z"
     id="path13814"
     inkscape:connector-curvature="0" />
  <path
     style="fill:none;stroke:#000000;stroke-width:0.5"
     d="m 35.7692,21.225745 0.6254,-0.0591 0.6205,-0.0983 0.6131,-0.13704 0.6033,-0.17526 0.591,-0.2128 0.5766,-0.2495 0.5597,-0.2852 0.5408,-0.31979 0.5195,-0.35311 0.4964,-0.38504 0.4713,-0.41545 0.4442,-0.44421 0.4154,-0.47122 0.3851,-0.4964 0.3531,-0.51958 0.3198,-0.54072 0.2852,-0.55976 0.2495,-0.57654 0.2128,-0.59108 0.1752,-0.60327 0.1371,-0.61308 0.0982,-0.62048 0.0592,-0.62543 0.0197,-0.6279 -0.0197,-0.6279 -0.0592,-0.6254302 -0.0982,-0.62048 -0.1371,-0.61308 -0.1752,-0.60327 -0.2128,-0.59108 -0.2495,-0.57654 -0.2852,-0.55976 -0.3198,-0.54072 -0.3531,-0.51958 -0.3851,-0.4964 -0.4154,-0.47122 -0.4442,-0.44421 -0.4713,-0.41545 -0.4964,-0.38504 -0.5195,-0.35311 -0.5408,-0.31979 -0.5597,-0.2852 -0.5766,-0.2495 -0.591,-0.2128 -0.6033,-0.17526 -0.2369,-0.053 v 4.73877 h -4.5 v -4.73877 l -0.2369,0.053 -0.6033,0.17526 -0.591,0.2128 -0.5766,0.2495 -0.5597,0.2852 -0.5408,0.31979 -0.5195,0.35311 -0.4964,0.38504 -0.4713,0.41545 -0.4442,0.44421 -0.4154,0.47122 -0.3851,0.4964 -0.3531,0.51958 -0.3198,0.54072 -0.2852,0.55976 -0.2495,0.57654 -0.2128,0.59108 -0.1752,0.60327 -0.1371,0.61308 -0.0982,0.62048 -0.0592,0.6254302 -0.0197,0.6279 0.0197,0.6279 0.0592,0.62543 0.0982,0.62048 0.1371,0.61308 0.1752,0.60327 0.2128,0.59108 0.2495,0.57654 0.2852,0.55976 0.3198,0.54072 0.3531,0.51958 0.3851,0.4964 0.4154,0.47122 0.4442,0.44421 0.4713,0.41545 0.4964,0.38504 0.5195,0.35311 0.5408,0.31979 0.5597,0.2852 0.5766,0.2495 0.591,0.2128 0.6033,0.17526 0.6131,0.13704 0.6205,0.0983 0.6254,0.0591 0.6279,0.0197 z"
     id="path13812"
     inkscape:connector-curvature="0" />
  <path
     style="fill:none;stroke:#000000;stroke-width:0.5"
     d="m 35,13.491045 -0.1407,-0.0133 -0.1396,-0.0221 -0.1379,-0.0308 -0.1358,-0.0394 -0.133,-0.0479 -0.1297,-0.0561 -0.1259,-0.0642 -0.1217,-0.0719 -0.1169,-0.0795 -0.1117,-0.0866 -0.106,-0.0935 -0.1,-0.0999 -0.0934,-0.10603 -0.0867,-0.11168 -0.0794,-0.11691 -0.072,-0.12166 -0.0642,-0.12595 -0.0561,-0.12971 -0.0479,-0.133 -0.0394,-0.13574 -0.0308,-0.13794 -0.0222,-0.1396 -0.0133,-0.14073 -0.0044,-0.14127 0.0044,-0.14127 0.0133,-0.14073 0.0222,-0.1396 0.0308,-0.13794 0.0394,-0.13574 0.0479,-0.133 0.0561,-0.12971 0.0642,-0.12595 0.072,-0.12166 0.0794,-0.1169102 0.0867,-0.11168 0.0934,-0.10603 0.1,-0.1 0.106,-0.0935 0.1117,-0.0866 0.1169,-0.0795 0.1217,-0.0719 0.1259,-0.0642 0.1297,-0.0561 0.133,-0.0479 0.1358,-0.0395 0.1379,-0.0308 0.1396,-0.0221 0.1407,-0.0133 0.1413,-0.004 0.1413,0.004 0.1407,0.0133 0.1396,0.0221 0.1379,0.0308 0.1358,0.0395 0.133,0.0479 0.1297,0.0561 0.1259,0.0642 0.1217,0.0719 0.1169,0.0795 0.1117,0.0866 0.106,0.0935 0.1,0.1 0.0934,0.10603 0.0867,0.11168 0.0794,0.1169102 0.072,0.12166 0.0642,0.12595 0.0561,0.12971 0.0479,0.133 0.0394,0.13574 0.0308,0.13794 0.0222,0.1396 0.0133,0.14073 0.0044,0.14127 -0.0044,0.14127 -0.0133,0.14073 -0.0222,0.1396 -0.0308,0.13794 -0.0394,0.13574 -0.0479,0.133 -0.0561,0.12971 -0.0642,0.12595 -0.072,0.12166 -0.0794,0.11691 -0.0867,0.11168 -0.0934,0.10603 -0.1,0.0999 -0.106,0.0935 -0.1117,0.0866 -0.1169,0.0795 -0.1217,0.0719 -0.1259,0.0642 -0.1297,0.0561 -0.133,0.0479 -0.1358,0.0394 -0.1379,0.0308 -0.1396,0.0221 -0.1407,0.0133 -0.1413,0.004 z"
     id="path13810"
     inkscape:connector-curvature="0" />
  <path
     style="fill:none;stroke:#000000;stroke-width:0.5"
     d="M 20.499999,55.5 H -4.4999995 v 5 H 20.499999 Z"
     id="path11021"
     inkscape:connector-curvature="0" />
  <rect
     style="opacity:1;fill:none;fill-opacity:1;stroke:#000000;stroke-width:0.26458333;stroke-miterlimit:4;stroke-dasharray:none;stroke-opacity:1"
     id="rect13806"
     width="85"
     height="54.999996"
     x="-5"
     y="44.000004" />
  <path
     style="fill:none;stroke:#000000;stroke-width:0.5"
     d="m 37.438062,97.149499 0.4691,-0.0443 0.4653,-0.0737 0.4599,-0.102779 0.4524,-0.131441 0.4433,-0.15961 0.4324,-0.18712 0.4198,-0.213889 0.4056,-0.23984 0.3897,-0.26483 0.3723,-0.28879 0.3534,-0.31159 0.3332,-0.333161 0.3115,-0.353419 0.2888,-0.372281 0.2649,-0.3897 0.2398,-0.40555 0.2139,-0.4198 0.1871,-0.432409 0.1596,-0.443301 0.1315,-0.45246 0.1027,-0.459819 0.0738,-0.465361 0.0443,-0.46907 0.0148,-0.47092 v -14.1269 l -0.6875,-0.3503 -0.9225,-0.3992 -0.9457,-0.3405 -0.9653,-0.2804 -0.9809,-0.2193 -0.7481,-0.1185 v 4.8351 h -4.5 v -4.8351 l -0.7481,0.1185 -0.9809,0.2193 -0.965299,0.2804 -0.9457,0.3405 -0.9225,0.3992 -0.8956,0.4563 -0.8651,0.5117 -0.8314,0.5649 -0.2014,0.1563 3.4188,3.41884 -3.182,3.18198 -3.4188,-3.41884 -0.1563,0.20146 -0.5649,0.83133 -0.5117,0.86518 -0.4563,0.8956 -0.3992,0.92247 -0.3405,0.94572 -0.2804,0.96523 -0.2193,0.98094 -0.1185,0.74809 h 4.8351 v 4.49998 h -4.8351 l 0.1185,0.74811 0.2193,0.98094 0.2804,0.96523 0.3405,0.94572 0.3992,0.92247 0.3503,0.68755 h 14.126899 z"
     id="path13824-8"
     inkscape:connector-curvature="0" />
  <path
     style="fill:none;stroke:#000000;stroke-width:0.5"
     d="m 36.825862,91.909859 -0.1407,-0.0133 -0.1396,-0.0221 -0.1379,-0.0308 -0.1358,-0.0394 -0.133,-0.0479 -0.1297,-0.0561 -0.1259,-0.0642 -0.1217,-0.0719 -0.1169,-0.0795 -0.1117,-0.0866 -0.106,-0.0935 -0.1,-0.0999 -0.0934,-0.10603 -0.0867,-0.11168 -0.0794,-0.11691 -0.072,-0.12166 -0.0642,-0.12595 -0.0561,-0.12971 -0.0479,-0.133 -0.0394,-0.13574 -0.0308,-0.13794 -0.0222,-0.1396 -0.0133,-0.14073 -0.004,-0.14127 0.004,-0.14127 0.0133,-0.14073 0.0222,-0.1396 0.0308,-0.13794 0.0394,-0.13574 0.0479,-0.133 0.0561,-0.12971 0.0642,-0.12595 0.072,-0.12166 0.0794,-0.11691 0.0867,-0.11168 0.0934,-0.10603 0.1,-0.1 0.106,-0.0935 0.1117,-0.0866 0.1169,-0.0795 0.1217,-0.0719 0.1259,-0.0642 0.1297,-0.0561 0.133,-0.0479 0.1358,-0.0395 0.1379,-0.0308 0.1396,-0.0221 0.1407,-0.0133 0.1413,-0.004 0.1413,0.004 0.1407,0.0133 0.1396,0.0221 0.1379,0.0308 0.1358,0.0395 0.133,0.0479 0.1297,0.0561 0.1259,0.0642 0.1217,0.0719 0.1169,0.0795 0.1117,0.0866 0.106,0.0935 0.1,0.1 0.0934,0.10603 0.0867,0.11168 0.0794,0.11691 0.072,0.12166 0.0642,0.12595 0.0561,0.12971 0.0479,0.133 0.0394,0.13574 0.0308,0.13794 0.0222,0.1396 0.0133,0.14073 0.004,0.14127 -0.004,0.14127 -0.0133,0.14073 -0.0222,0.1396 -0.0308,0.13794 -0.0394,0.13574 -0.0479,0.133 -0.0561,0.12971 -0.0642,0.12595 -0.072,0.12166 -0.0794,0.11691 -0.0867,0.11168 -0.0934,0.10603 -0.1,0.0999 -0.106,0.0935 -0.1117,0.0866 -0.1169,0.0795 -0.1217,0.0719 -0.1259,0.0642 -0.1297,0.0561 -0.133,0.0479 -0.1358,0.0394 -0.1379,0.0308 -0.1396,0.0221 -0.1407,0.0133 -0.1413,0.004 z"
     id="path13822-2"
     inkscape:connector-curvature="0" />
  <path
     style="fill:none;stroke:#000000;stroke-width:0.5"
     d="m 12.438064,97.149499 0.4691,-0.0443 0.4653,-0.0737 0.4599,-0.102779 0.4524,-0.131441 0.4433,-0.15961 0.4324,-0.18712 0.4198,-0.213889 0.4056,-0.23984 0.3897,-0.26483 0.3723,-0.28879 0.3534,-0.31159 0.3332,-0.333161 0.3115,-0.353419 0.2888,-0.372281 0.2649,-0.3897 0.2398,-0.40555 0.2139,-0.4198 0.1871,-0.432409 0.1596,-0.443301 0.1315,-0.45246 0.1027,-0.459819 0.0738,-0.465361 0.0443,-0.46907 0.0148,-0.47092 v -14.1269 l -0.687501,-0.3503 -0.9225,-0.3992 -0.9457,-0.3405 -0.9653,-0.2804 -0.9809,-0.2193 -0.7481,-0.1185 v 4.8351 H 9.7171633 v -4.8351 l -0.7480997,0.1185 -0.9808994,0.2193 -0.9652994,0.2804 -0.9456994,0.3405 -0.9224994,0.3992 -0.8955997,0.4563 -0.8651,0.5117 -0.8314,0.5649 -0.2014,0.1563 3.4187991,3.41884 -3.1819991,3.18198 -3.41879988,-3.41884 -0.1563,0.20146 -0.56490002,0.83133 -0.5116999,0.86518 -0.4563,0.8956 -0.3992,0.92247 -0.3405,0.94572 -0.2804,0.96523 -0.2193001,0.98094 -0.1184999,0.74809 h 4.83509983 v 4.49998 H -3.8679335 l 0.1184999,0.74811 0.2193001,0.98094 0.2804,0.96523 0.3405,0.94572 0.3992,0.92247 0.3502999,0.68755 H 11.967164 Z"
     id="path13824-3"
     inkscape:connector-curvature="0" />
  <path
     style="fill:none;stroke:#000000;stroke-width:0.5"
     d="m 11.825864,91.909859 -0.1407,-0.0133 -0.1396,-0.0221 -0.1379,-0.0308 -0.1358,-0.0394 -0.133,-0.0479 -0.1297,-0.0561 -0.1259,-0.0642 -0.1217,-0.0719 -0.1169,-0.0795 -0.1117,-0.0866 -0.106,-0.0935 -0.1,-0.0999 -0.0934,-0.10603 -0.0867,-0.11168 -0.0794,-0.11691 -0.072,-0.12166 -0.0642,-0.12595 -0.0561,-0.12971 -0.0479,-0.133 -0.0394,-0.13574 -0.0308,-0.13794 -0.0222,-0.1396 -0.0133,-0.14073 -0.0044,-0.14127 0.0044,-0.14127 0.0133,-0.14073 0.0222,-0.1396 0.0308,-0.13794 0.0394,-0.13574 0.0479,-0.133 0.0561,-0.12971 0.0642,-0.12595 0.072,-0.12166 0.0794,-0.11691 0.0867,-0.11168 0.0934,-0.10603 0.1,-0.1 0.106,-0.0935 0.1117,-0.0866 0.1169,-0.0795 0.1217,-0.0719 0.1259,-0.0642 0.1297,-0.0561 0.133,-0.0479 0.1358,-0.0395 0.1379,-0.0308 0.1396,-0.0221 0.1407,-0.0133 0.1413,-0.004 0.1413,0.004 0.1407,0.0133 0.1396,0.0221 0.1379,0.0308 0.1358,0.0395 0.133,0.0479 0.1297,0.0561 0.1259,0.0642 0.1217,0.0719 0.1169,0.0795 0.1117,0.0866 0.106,0.0935 0.1,0.1 0.0934,0.10603 0.0867,0.11168 0.0794,0.11691 0.072,0.12166 0.0642,0.12595 0.0561,0.12971 0.0479,0.133 0.0394,0.13574 0.0308,0.13794 0.0222,0.1396 0.0133,0.14073 0.0044,0.14127 -0.0044,0.14127 -0.0133,0.14073 -0.0222,0.1396 -0.0308,0.13794 -0.0394,0.13574 -0.0479,0.133 -0.0561,0.12971 -0.0642,0.12595 -0.072,0.12166 -0.0794,0.11691 -0.0867,0.11168 -0.0934,0.10603 -0.1,0.0999 -0.106,0.0935 -0.1117,0.0866 -0.1169,0.0795 -0.1217,0.0719 -0.1259,0.0642 -0.1297,0.0561 -0.133,0.0479 -0.1358,0.0394 -0.1379,0.0308 -0.1396,0.0221 -0.1407,0.0133 -0.1413,0.004 z"
     id="path13822-9"
     inkscape:connector-curvature="0" />
  <rect
     style="opacity:1;fill:none;fill-opacity:1;stroke:#000000;stroke-width:0.26458332;stroke-miterlimit:4;stroke-dasharray:none;stroke-opacity:1"
     id="rect13806-3"
     width="85.000008"
     height="54.999996"
     x="92.499992"
     y="11.500002" />
  <path
     style="fill:none;stroke:#000000;stroke-width:0.5"
     d="m 124.6279,43.880685 0.62543,-0.0591 0.62048,-0.0983 0.61308,-0.13704 0.60327,-0.17526 0.59108,-0.2128 0.57654,-0.2495 0.55976,-0.2852 0.54072,-0.31979 0.51958,-0.35311 0.4964,-0.38504 0.47122,-0.41545 0.44421,-0.44421 0.41545,-0.47122 0.38504,-0.4964 0.35311,-0.51958 0.31979,-0.54072 0.2852,-0.55976 0.2495,-0.57654 0.2128,-0.59108 0.17526,-0.60327 0.13704,-0.61308 0.0983,-0.62048 0.0591,-0.62543 0.0197,-0.6279 -0.0197,-0.6279 -0.0591,-0.62543 -0.0983,-0.62048 -0.13704,-0.61308 -0.17526,-0.60327 -0.2128,-0.59108 -0.2495,-0.57654 -0.2852,-0.55976 -0.31979,-0.54072 -0.35311,-0.51958 -0.38504,-0.4964 -0.41545,-0.47122 -0.44421,-0.44421 -0.47122,-0.41545 -0.4964,-0.38504 -0.51958,-0.35311 -0.54072,-0.31979 -0.55976,-0.2852 -0.57654,-0.2495 -0.59108,-0.2128 -0.60327,-0.17526 -0.23689,-0.053 v 4.73877 h -4.5 v -4.73877 l -0.23689,0.053 -0.60327,0.17526 -0.59108,0.2128 -0.57654,0.2495 -0.55976,0.2852 -0.54072,0.31979 -0.51958,0.35311 -0.4964,0.38504 -0.47122,0.41545 -0.44421,0.44421 -0.41545,0.47122 -0.38504,0.4964 -0.35311,0.51958 -0.31979,0.54072 -0.2852,0.55976 -0.2495,0.57654 -0.2128,0.59108 -0.17526,0.60327 -0.13704,0.61308 -0.0983,0.62048 -0.0591,0.62543 -0.0197,0.6279 0.0197,0.6279 0.0591,0.62543 0.0983,0.62048 0.13704,0.61308 0.17526,0.60327 0.2128,0.59108 0.2495,0.57654 0.2852,0.55976 0.31979,0.54072 0.35311,0.51958 0.38504,0.4964 0.41545,0.47122 0.44421,0.44421 0.47122,0.41545 0.4964,0.38504 0.51958,0.35311 0.54072,0.31979 0.55976,0.2852 0.57654,0.2495 0.59108,0.2128 0.60327,0.17526 0.61308,0.13704 0.62048,0.0983 0.62543,0.0591 0.6279,0.0197 z"
     id="path13816-6"
     inkscape:connector-curvature="0" />
  <path
     style="fill:none;stroke:#000000;stroke-width:0.5"
     d="m 123.81163,36.894505 -0.18762,-0.0178 -0.18614,-0.0295 -0.18393,-0.0411 -0.18099,-0.0526 -0.17732,-0.0638 -0.17296,-0.0748 -0.16792,-0.0856 -0.16222,-0.0959 -0.15588,-0.10592 -0.14891,-0.11551 -0.14137,-0.12464 -0.13327,-0.13327 -0.12464,-0.14137 -0.11551,-0.14891 -0.10592,-0.15588 -0.0959,-0.16222 -0.0856,-0.16792 -0.0748,-0.17296 -0.0638,-0.17732 -0.0526,-0.18099 -0.0411,-0.18393 -0.0295,-0.18614 -0.0177,-0.18762 -0.006,-0.18838 0.006,-0.18837 0.0177,-0.18762 0.0295,-0.18614 0.0411,-0.18393 0.0526,-0.18099 0.0638,-0.17732 0.0748,-0.17296 0.0856,-0.16792 0.0959,-0.16222 0.10592,-0.15588 0.11551,-0.14891 0.12464,-0.14137 0.13327,-0.13327 0.14137,-0.12464 0.14891,-0.11551 0.15588,-0.10592 0.16222,-0.0959 0.16792,-0.0856 0.17296,-0.0748 0.17732,-0.0638 0.18099,-0.0526 0.18393,-0.0411 0.18614,-0.0295 0.18762,-0.0177 0.18837,-0.006 0.18837,0.006 0.18762,0.0177 0.18614,0.0295 0.18393,0.0411 0.18099,0.0526 0.17732,0.0638 0.17296,0.0748 0.16792,0.0856 0.16222,0.0959 0.15588,0.10592 0.14891,0.11551 0.14137,0.12464 0.13327,0.13327 0.12464,0.14137 0.11551,0.14891 0.10592,0.15588 0.0959,0.16222 0.0856,0.16792 0.0748,0.17296 0.0638,0.17732 0.0526,0.18099 0.0411,0.18393 0.0295,0.18614 0.0177,0.18762 0.006,0.18837 -0.006,0.18837 -0.0177,0.18762 -0.0295,0.18614 -0.0411,0.18393 -0.0526,0.18099 -0.0638,0.17732 -0.0748,0.17296 -0.0856,0.16792 -0.0959,0.16222 -0.10592,0.15588 -0.11551,0.14891 -0.12464,0.14137 -0.13327,0.13327 -0.14137,0.12464 -0.14891,0.11551 -0.15588,0.10592 -0.16222,0.0959 -0.16792,0.0856 -0.17296,0.0748 -0.17732,0.0638 -0.18099,0.0526 -0.18393,0.0411 -0.18614,0.0295 -0.18762,0.0178 -0.18837,0.006 z"
     id="path13814-7"
     inkscape:connector-curvature="0" />
  <path
     style="fill:none;stroke:#000000;stroke-width:0.5"
     d="m 105.6279,54.880684 0.6254,-0.0591 0.6205,-0.0983 0.6131,-0.13704 0.6033,-0.17526 0.591,-0.2128 0.5766,-0.2495 0.5597,-0.285199 0.5408,-0.319791 0.5195,-0.35311 0.4964,-0.38504 0.4713,-0.41545 0.4442,-0.44421 0.4154,-0.47122 0.3851,-0.4964 0.3531,-0.51958 0.3198,-0.54072 0.2852,-0.55976 0.2495,-0.57654 0.2128,-0.59108 0.1752,-0.60327 0.1371,-0.61308 0.0982,-0.62048 0.0592,-0.62543 0.0197,-0.6279 -0.0197,-0.6279 -0.0592,-0.62543 -0.0982,-0.62048 -0.1371,-0.61308 -0.1752,-0.60327 -0.2128,-0.59108 -0.2495,-0.57654 -0.2852,-0.55976 -0.3198,-0.54072 -0.3531,-0.51958 -0.3851,-0.4964 -0.4154,-0.47122 -0.4442,-0.44421 -0.4713,-0.41545 -0.4964,-0.38504 -0.5195,-0.35311 -0.5408,-0.31979 -0.5597,-0.2852 -0.5766,-0.2495 -0.591,-0.2128 -0.6033,-0.17526 -0.2369,-0.053 v 4.73877 h -4.5 v -4.73877 l -0.2369,0.053 -0.6033,0.17526 -0.591,0.2128 -0.5766,0.2495 -0.5597,0.2852 -0.5408,0.31979 -0.5195,0.35311 -0.4964,0.38504 -0.4713,0.41545 -0.4442,0.44421 -0.4154,0.47122 -0.3851,0.4964 -0.3531,0.51958 -0.3198,0.54072 -0.2852,0.55976 -0.2495,0.57654 -0.2128,0.59108 -0.1752,0.60327 -0.1371,0.61308 -0.0982,0.62048 -0.0592,0.62543 -0.0197,0.6279 0.0197,0.6279 0.0592,0.62543 0.0982,0.62048 0.1371,0.61308 0.1752,0.60327 0.2128,0.59108 0.2495,0.57654 0.2852,0.55976 0.3198,0.54072 0.3531,0.51958 0.3851,0.4964 0.4154,0.47122 0.4442,0.44421 0.4713,0.41545 0.4964,0.38504 0.5195,0.35311 0.5408,0.319791 0.5597,0.285199 0.5766,0.2495 0.591,0.2128 0.6033,0.17526 0.6131,0.13704 0.6205,0.0983 0.6254,0.0591 0.6279,0.0197 z"
     id="path13812-5"
     inkscape:connector-curvature="0" />
  <path
     style="fill:none;stroke:#000000;stroke-width:0.5"
     d="m 104.8587,47.145984 -0.1407,-0.0133 -0.1396,-0.0221 -0.1379,-0.0308 -0.1358,-0.0394 -0.133,-0.0479 -0.1297,-0.0561 -0.1259,-0.0642 -0.1217,-0.0719 -0.1169,-0.0795 -0.1117,-0.0866 -0.106,-0.0935 -0.1,-0.0999 -0.0934,-0.10603 -0.0867,-0.11168 -0.0794,-0.11691 -0.072,-0.12166 -0.0642,-0.12595 -0.0561,-0.12971 -0.0479,-0.133 -0.0394,-0.13574 -0.0308,-0.13794 -0.0222,-0.1396 -0.0133,-0.14073 -0.004,-0.14127 0.004,-0.14127 0.0133,-0.14073 0.0222,-0.1396 0.0308,-0.13794 0.0394,-0.13574 0.0479,-0.133 0.0561,-0.12971 0.0642,-0.12595 0.072,-0.12166 0.0794,-0.11691 0.0867,-0.11168 0.0934,-0.10603 0.1,-0.1 0.106,-0.0935 0.1117,-0.0866 0.1169,-0.0795 0.1217,-0.0719 0.1259,-0.0642 0.1297,-0.0561 0.133,-0.0479 0.1358,-0.0395 0.1379,-0.0308 0.1396,-0.0221 0.1407,-0.0133 0.1413,-0.004 0.1413,0.004 0.1407,0.0133 0.1396,0.0221 0.1379,0.0308 0.1358,0.0395 0.133,0.0479 0.1297,0.0561 0.1259,0.0642 0.1217,0.0719 0.1169,0.0795 0.1117,0.0866 0.106,0.0935 0.1,0.1 0.0934,0.10603 0.0867,0.11168 0.0794,0.11691 0.072,0.12166 0.0642,0.12595 0.0561,0.12971 0.0479,0.133 0.0394,0.13574 0.0308,0.13794 0.0222,0.1396 0.0133,0.14073 0.004,0.14127 -0.004,0.14127 -0.0133,0.14073 -0.0222,0.1396 -0.0308,0.13794 -0.0394,0.13574 -0.0479,0.133 -0.0561,0.12971 -0.0642,0.12595 -0.072,0.12166 -0.0794,0.11691 -0.0867,0.11168 -0.0934,0.10603 -0.1,0.0999 -0.106,0.0935 -0.1117,0.0866 -0.1169,0.0795 -0.1217,0.0719 -0.1259,0.0642 -0.1297,0.0561 -0.133,0.0479 -0.1358,0.0394 -0.1379,0.0308 -0.1396,0.0221 -0.1407,0.0133 -0.1413,0.004 z"
     id="path13810-3"
     inkscape:connector-curvature="0" />
  <path
     style="fill:none;stroke:#000000;stroke-width:0.5"
     d="m 124.6279,64.880695 0.6254,-0.0591 0.6205,-0.0983 0.6131,-0.13704 0.6033,-0.17526 0.591,-0.2128 0.5766,-0.2495 0.5597,-0.285199 0.5408,-0.319791 0.5195,-0.35311 0.4964,-0.38504 0.4713,-0.41545 0.4442,-0.44421 0.4154,-0.47122 0.3851,-0.4964 0.3531,-0.51958 0.3198,-0.54072 0.2852,-0.55976 0.2495,-0.57654 0.2128,-0.59108 0.1752,-0.60327 0.1371,-0.61308 0.0982,-0.62048 0.0592,-0.62543 0.0197,-0.6279 -0.0197,-0.6279 -0.0592,-0.62543 -0.0982,-0.62048 -0.1371,-0.61308 -0.1752,-0.60327 -0.2128,-0.59108 -0.2495,-0.57654 -0.2852,-0.55976 -0.3198,-0.54072 -0.3531,-0.51958 -0.3851,-0.4964 -0.4154,-0.47122 -0.4442,-0.44421 -0.4713,-0.41545 -0.4964,-0.38504 -0.5195,-0.35311 -0.5408,-0.31979 -0.5597,-0.2852 -0.5766,-0.2495 -0.591,-0.2128 -0.6033,-0.17526 -0.2369,-0.053 v 4.73877 h -4.5 v -4.73877 l -0.2369,0.053 -0.6033,0.17526 -0.591,0.2128 -0.5766,0.2495 -0.5597,0.2852 -0.5408,0.31979 -0.5195,0.35311 -0.4964,0.38504 -0.4713,0.41545 -0.4442,0.44421 -0.4154,0.47122 -0.3851,0.4964 -0.3531,0.51958 -0.3198,0.54072 -0.2852,0.55976 -0.2495,0.57654 -0.2128,0.59108 -0.1752,0.60327 -0.1371,0.61308 -0.0982,0.62048 -0.0592,0.62543 -0.0197,0.6279 0.0197,0.6279 0.0592,0.62543 0.0982,0.62048 0.1371,0.61308 0.1752,0.60327 0.2128,0.59108 0.2495,0.57654 0.2852,0.55976 0.3198,0.54072 0.3531,0.51958 0.3851,0.4964 0.4154,0.47122 0.4442,0.44421 0.4713,0.41545 0.4964,0.38504 0.5195,0.35311 0.5408,0.319791 0.5597,0.285199 0.5766,0.2495 0.591,0.2128 0.6033,0.17526 0.6131,0.13704 0.6205,0.0983 0.6254,0.0591 0.6279,0.0197 z"
     id="path13812-56"
     inkscape:connector-curvature="0" />
  <path
     style="fill:none;stroke:#000000;stroke-width:0.5"
     d="m 123.8587,57.145995 -0.1407,-0.0133 -0.1396,-0.0221 -0.1379,-0.0308 -0.1358,-0.0394 -0.133,-0.0479 -0.1297,-0.0561 -0.1259,-0.0642 -0.1217,-0.0719 -0.1169,-0.0795 -0.1117,-0.0866 -0.106,-0.0935 -0.1,-0.0999 -0.0934,-0.10603 -0.0867,-0.11168 -0.0794,-0.11691 -0.072,-0.12166 -0.0642,-0.12595 -0.0561,-0.12971 -0.0479,-0.133 -0.0394,-0.13574 -0.0308,-0.13794 -0.0222,-0.1396 -0.0133,-0.14073 -0.004,-0.14127 0.004,-0.14127 0.0133,-0.14073 0.0222,-0.1396 0.0308,-0.13794 0.0394,-0.13574 0.0479,-0.133 0.0561,-0.12971 0.0642,-0.12595 0.072,-0.12166 0.0794,-0.11691 0.0867,-0.11168 0.0934,-0.10603 0.1,-0.1 0.106,-0.0935 0.1117,-0.0866 0.1169,-0.0795 0.1217,-0.0719 0.1259,-0.0642 0.1297,-0.0561 0.133,-0.0479 0.1358,-0.0395 0.1379,-0.0308 0.1396,-0.0221 0.1407,-0.0133 0.1413,-0.004 0.1413,0.004 0.1407,0.0133 0.1396,0.0221 0.1379,0.0308 0.1358,0.0395 0.133,0.0479 0.1297,0.0561 0.1259,0.0642 0.1217,0.0719 0.1169,0.0795 0.1117,0.0866 0.106,0.0935 0.1,0.1 0.0934,0.10603 0.0867,0.11168 0.0794,0.11691 0.072,0.12166 0.0642,0.12595 0.0561,0.12971 0.0479,0.133 0.0394,0.13574 0.0308,0.13794 0.0222,0.1396 0.0133,0.14073 0.004,0.14127 -0.004,0.14127 -0.0133,0.14073 -0.0222,0.1396 -0.0308,0.13794 -0.0394,0.13574 -0.0479,0.133 -0.0561,0.12971 -0.0642,0.12595 -0.072,0.12166 -0.0794,0.11691 -0.0867,0.11168 -0.0934,0.10603 -0.1,0.0999 -0.106,0.0935 -0.1117,0.0866 -0.1169,0.0795 -0.1217,0.0719 -0.1259,0.0642 -0.1297,0.0561 -0.133,0.0479 -0.1358,0.0394 -0.1379,0.0308 -0.1396,0.0221 -0.1407,0.0133 -0.1413,0.004 z"
     id="path13810-2"
     inkscape:connector-curvature="0" />
  <path
     style="fill:none;stroke:#000000;stroke-width:0.5"
     d="m 143.6279,33.98021 0.62543,-0.0591 0.62048,-0.0983 0.61308,-0.13704 0.60327,-0.17526 0.59108,-0.2128 0.57654,-0.2495 0.55976,-0.2852 0.54072,-0.31979 0.51958,-0.35311 0.4964,-0.38504 0.47122,-0.41545 0.44421,-0.44421 0.41545,-0.47122 0.38504,-0.4964 0.35311,-0.51958 0.31979,-0.54072 0.2852,-0.55976 0.2495,-0.57654 0.2128,-0.59108 0.17526,-0.60327 0.13704,-0.61308 0.0983,-0.62048 0.0591,-0.62543 0.0197,-0.6279 -0.0197,-0.6279 -0.0591,-0.62543 -0.0983,-0.62048 -0.13704,-0.61308 -0.17526,-0.60327 -0.2128,-0.59108 -0.2495,-0.57654 -0.2852,-0.55976 -0.31979,-0.54072 -0.35311,-0.51958 -0.38504,-0.4964 -0.41545,-0.47122 -0.44421,-0.44421 -0.47122,-0.41545 -0.4964,-0.38504 -0.51958,-0.35311 -0.54072,-0.31979 -0.55976,-0.2852 -0.57654,-0.2495 -0.59108,-0.2128 -0.60327,-0.17526 -0.23689,-0.053 v 4.73877 h -4.5 v -4.73877 l -0.23689,0.053 -0.60327,0.17526 -0.59108,0.2128 -0.57654,0.2495 -0.55976,0.2852 -0.54072,0.31979 -0.51958,0.35311 -0.4964,0.38504 -0.47122,0.41545 -0.44421,0.44421 -0.41545,0.47122 -0.38504,0.4964 -0.35311,0.51958 -0.31979,0.54072 -0.2852,0.55976 -0.2495,0.57654 -0.2128,0.59108 -0.17526,0.60327 -0.13704,0.61308 -0.0983,0.62048 -0.0591,0.62543 -0.0197,0.6279 0.0197,0.6279 0.0591,0.62543 0.0983,0.62048 0.13704,0.61308 0.17526,0.60327 0.2128,0.59108 0.2495,0.57654 0.2852,0.55976 0.31979,0.54072 0.35311,0.51958 0.38504,0.4964 0.41545,0.47122 0.44421,0.44421 0.47122,0.41545 0.4964,0.38504 0.51958,0.35311 0.54072,0.31979 0.55976,0.2852 0.57654,0.2495 0.59108,0.2128 0.60327,0.17526 0.61308,0.13704 0.62048,0.0983 0.62543,0.0591 0.6279,0.0197 z"
     id="path13816-9"
     inkscape:connector-curvature="0" />
  <path
     style="fill:none;stroke:#000000;stroke-width:0.5"
     d="m 142.81163,26.99403 -0.18762,-0.0178 -0.18614,-0.0295 -0.18393,-0.0411 -0.18099,-0.0526 -0.17732,-0.0638 -0.17296,-0.0748 -0.16792,-0.0856 -0.16222,-0.0959 -0.15588,-0.10592 -0.14891,-0.11551 -0.14137,-0.12464 -0.13327,-0.13327 -0.12464,-0.14137 -0.11551,-0.14891 -0.10592,-0.15588 -0.0959,-0.16222 -0.0856,-0.16792 -0.0748,-0.17296 -0.0638,-0.17732 -0.0526,-0.18099 -0.0411,-0.18393 -0.0295,-0.18614 -0.0177,-0.18762 -0.006,-0.18838 0.006,-0.18837 0.0177,-0.18762 0.0295,-0.18614 0.0411,-0.18393 0.0526,-0.18099 0.0638,-0.17732 0.0748,-0.17296 0.0856,-0.16792 0.0959,-0.16222 0.10592,-0.15588 0.11551,-0.14891 0.12464,-0.14137 0.13327,-0.13327 0.14137,-0.12464 0.14891,-0.11551 0.15588,-0.10592 0.16222,-0.0959 0.16792,-0.0856 0.17296,-0.0748 0.17732,-0.0638 0.18099,-0.0526 0.18393,-0.0411 0.18614,-0.0295 0.18762,-0.0177 0.18837,-0.006 0.18837,0.006 0.18762,0.0177 0.18614,0.0295 0.18393,0.0411 0.18099,0.0526 0.17732,0.0638 0.17296,0.0748 0.16792,0.0856 0.16222,0.0959 0.15588,0.10592 0.14891,0.11551 0.14137,0.12464 0.13327,0.13327 0.12464,0.14137 0.11551,0.14891 0.10592,0.15588 0.0959,0.16222 0.0856,0.16792 0.0748,0.17296 0.0638,0.17732 0.0526,0.18099 0.0411,0.18393 0.0295,0.18614 0.0177,0.18762 0.006,0.18837 -0.006,0.18837 -0.0177,0.18762 -0.0295,0.18614 -0.0411,0.18393 -0.0526,0.18099 -0.0638,0.17732 -0.0748,0.17296 -0.0856,0.16792 -0.0959,0.16222 -0.10592,0.15588 -0.11551,0.14891 -0.12464,0.14137 -0.13327,0.13327 -0.14137,0.12464 -0.14891,0.11551 -0.15588,0.10592 -0.16222,0.0959 -0.16792,0.0856 -0.17296,0.0748 -0.17732,0.0638 -0.18099,0.0526 -0.18393,0.0411 -0.18614,0.0295 -0.18762,0.0178 -0.18837,0.006 z"
     id="path13814-1"
     inkscape:connector-curvature="0" />
  <path
     style="fill:none;stroke:#000000;stroke-width:0.5"
     d="m 162.6279,43.980209 0.62543,-0.0591 0.62048,-0.0983 0.61308,-0.137041 0.60327,-0.17526 0.59108,-0.212799 0.57654,-0.249502 0.55976,-0.2852 0.54072,-0.319788 0.51958,-0.35311 0.4964,-0.385041 0.47122,-0.415451 0.44421,-0.444209 0.41545,-0.47122 0.38504,-0.4964 0.35311,-0.51958 0.31979,-0.54072 0.2852,-0.55976 0.2495,-0.57654 0.2128,-0.59108 0.17526,-0.60327 0.13704,-0.61308 0.0983,-0.62048 0.0591,-0.62543 0.0197,-0.6279 -0.0197,-0.6279 -0.0591,-0.62543 -0.0983,-0.62048 -0.13704,-0.61308 -0.17526,-0.60327 -0.2128,-0.59108 -0.2495,-0.57654 -0.2852,-0.55976 -0.31979,-0.54072 -0.35311,-0.51958 -0.38504,-0.4964 -0.41545,-0.47122 -0.44421,-0.44421 -0.47122,-0.41545 -0.4964,-0.38504 -0.51958,-0.35311 -0.54072,-0.31979 -0.55976,-0.2852 -0.57654,-0.2495 -0.59108,-0.2128 -0.60327,-0.17526 -0.23689,-0.053 v 4.73877 h -4.5 V 24.26113 l -0.23689,0.053 -0.60327,0.17526 -0.59108,0.2128 -0.57654,0.2495 -0.55976,0.2852 -0.54072,0.31979 -0.51958,0.35311 -0.4964,0.38504 -0.47122,0.41545 -0.44421,0.44421 -0.41545,0.47122 -0.38504,0.4964 -0.35311,0.51958 -0.31979,0.54072 -0.2852,0.55976 -0.2495,0.57654 -0.2128,0.59108 -0.17526,0.60327 -0.13704,0.61308 -0.0983,0.62048 -0.0591,0.62543 -0.0197,0.6279 0.0197,0.6279 0.0591,0.62543 0.0983,0.62048 0.13704,0.61308 0.17526,0.60327 0.2128,0.59108 0.2495,0.57654 0.2852,0.55976 0.31979,0.54072 0.35311,0.51958 0.38504,0.4964 0.41545,0.47122 0.44421,0.444209 0.47122,0.415451 0.4964,0.385041 0.51958,0.35311 0.54072,0.319789 0.55976,0.285199 0.57654,0.249502 0.59108,0.212799 0.60327,0.17526 0.61308,0.137041 0.62048,0.0983 0.62543,0.0591 0.6279,0.01971 z"
     id="path13816-6-2"
     inkscape:connector-curvature="0" />
  <path
     style="fill:none;stroke:#000000;stroke-width:0.5"
     d="m 161.81163,36.99403 -0.18762,-0.0178 -0.18614,-0.0295 -0.18393,-0.0411 -0.18099,-0.0526 -0.17732,-0.0638 -0.17296,-0.0748 -0.16792,-0.0856 -0.16222,-0.0959 -0.15588,-0.10592 -0.14891,-0.11551 -0.14137,-0.12464 -0.13327,-0.13327 -0.12464,-0.14137 -0.11551,-0.14891 -0.10592,-0.15588 -0.0959,-0.16222 -0.0856,-0.16792 -0.0748,-0.17296 -0.0638,-0.17732 -0.0526,-0.18099 -0.0411,-0.18393 -0.0295,-0.18614 -0.0177,-0.18762 -0.006,-0.18838 0.006,-0.18837 0.0177,-0.18762 0.0295,-0.18614 0.0411,-0.18393 0.0526,-0.18099 0.0638,-0.17732 0.0748,-0.17296 0.0856,-0.16792 0.0959,-0.16222 0.10592,-0.15588 0.11551,-0.14891 0.12464,-0.14137 0.13327,-0.13327 0.14137,-0.12464 0.14891,-0.11551 0.15588,-0.10592 0.16222,-0.0959 0.16792,-0.0856 0.17296,-0.0748 0.17732,-0.0638 0.18099,-0.0526 0.18393,-0.0411 0.18614,-0.0295 0.18762,-0.0177 0.18837,-0.006 0.18837,0.006 0.18762,0.0177 0.18614,0.0295 0.18393,0.0411 0.18099,0.0526 0.17732,0.0638 0.17296,0.0748 0.16792,0.0856 0.16222,0.0959 0.15588,0.10592 0.14891,0.11551 0.14137,0.12464 0.13327,0.13327 0.12464,0.14137 0.11551,0.14891 0.10592,0.15588 0.0959,0.16222 0.0856,0.16792 0.0748,0.17296 0.0638,0.17732 0.0526,0.18099 0.0411,0.18393 0.0295,0.18614 0.0177,0.18762 0.006,0.18837 -0.006,0.18837 -0.0177,0.18762 -0.0295,0.18614 -0.0411,0.18393 -0.0526,0.18099 -0.0638,0.17732 -0.0748,0.17296 -0.0856,0.16792 -0.0959,0.16222 -0.10592,0.15588 -0.11551,0.14891 -0.12464,0.14137 -0.13327,0.13327 -0.14137,0.12464 -0.14891,0.11551 -0.15588,0.10592 -0.16222,0.0959 -0.16792,0.0856 -0.17296,0.0748 -0.17732,0.0638 -0.18099,0.0526 -0.18393,0.0411 -0.18614,0.0295 -0.18762,0.0178 -0.18837,0.006 z"
     id="path13814-7-7"
     inkscape:connector-curvature="0" />
  <path
     style="fill:none;stroke:#000000;stroke-width:0.5"
     d="m 143.6279,54.98021 0.6254,-0.0591 0.6205,-0.0983 0.6131,-0.137041 0.6033,-0.17526 0.591,-0.212799 0.5766,-0.2495 0.5597,-0.285199 0.5408,-0.319792 0.5195,-0.35311 0.4964,-0.38504 0.4713,-0.415449 0.4442,-0.444211 0.4154,-0.471221 0.3851,-0.496398 0.3531,-0.519581 0.3198,-0.540721 0.2852,-0.55976 0.2495,-0.576538 0.2128,-0.591082 0.1752,-0.603268 0.1371,-0.613082 0.0982,-0.62048 0.0592,-0.62543 0.0197,-0.627898 -0.0197,-0.627901 -0.0592,-0.62543 -0.0982,-0.62048 -0.1371,-0.613079 -0.1752,-0.603272 -0.2128,-0.591079 -0.2495,-0.57654 -0.2852,-0.55976 -0.3198,-0.54072 -0.3531,-0.51958 -0.3851,-0.4964 -0.4154,-0.47122 -0.4442,-0.44421 -0.4713,-0.41545 -0.4964,-0.38504 -0.5195,-0.35311 -0.5408,-0.31979 -0.5597,-0.2852 -0.5766,-0.2495 -0.591,-0.2128 -0.6033,-0.17526 -0.2369,-0.053 v 4.73877 h -4.5 v -4.73877 l -0.2369,0.053 -0.6033,0.17526 -0.591,0.2128 -0.5766,0.2495 -0.5597,0.2852 -0.5408,0.31979 -0.5195,0.35311 -0.4964,0.38504 -0.4713,0.41545 -0.4442,0.44421 -0.4154,0.47122 -0.3851,0.4964 -0.3531,0.51958 -0.3198,0.54072 -0.2852,0.55976 -0.2495,0.57654 -0.2128,0.591079 -0.1752,0.603272 -0.1371,0.613079 -0.0982,0.62048 -0.0592,0.62543 -0.0197,0.627901 0.0197,0.627898 0.0592,0.62543 0.0982,0.62048 0.1371,0.613082 0.1752,0.603268 0.2128,0.591082 0.2495,0.576538 0.2852,0.55976 0.3198,0.540721 0.3531,0.519581 0.3851,0.496398 0.4154,0.471221 0.4442,0.444211 0.4713,0.415449 0.4964,0.38504 0.5195,0.35311 0.5408,0.319792 0.5597,0.285199 0.5766,0.2495 0.591,0.212799 0.6033,0.17526 0.6131,0.137041 0.6205,0.0983 0.6254,0.0591 0.6279,0.01971 z"
     id="path13812-5-0"
     inkscape:connector-curvature="0" />
  <path
     style="fill:none;stroke:#000000;stroke-width:0.5"
     d="m 142.8587,47.245508 -0.1407,-0.01331 -0.1396,-0.02209 -0.1379,-0.0308 -0.1358,-0.0394 -0.133,-0.0479 -0.1297,-0.0561 -0.1259,-0.0642 -0.1217,-0.0719 -0.1169,-0.0795 -0.1117,-0.0866 -0.106,-0.0935 -0.1,-0.0999 -0.0934,-0.106029 -0.0867,-0.11168 -0.0794,-0.116912 -0.072,-0.121658 -0.0642,-0.12595 -0.0561,-0.129711 -0.0479,-0.132999 -0.0394,-0.135741 -0.0308,-0.137938 -0.0222,-0.139602 -0.0133,-0.14073 -0.004,-0.141269 0.004,-0.141271 0.0133,-0.140729 0.0222,-0.1396 0.0308,-0.13794 0.0394,-0.13574 0.0479,-0.133 0.0561,-0.12971 0.0642,-0.125949 0.072,-0.121661 0.0794,-0.116911 0.0867,-0.111678 0.0934,-0.106032 0.1,-0.1 0.106,-0.0935 0.1117,-0.0866 0.1169,-0.0795 0.1217,-0.0719 0.1259,-0.0642 0.1297,-0.0561 0.133,-0.0479 0.1358,-0.0395 0.1379,-0.0308 0.1396,-0.02209 0.1407,-0.01331 0.1413,-0.004 0.1413,0.004 0.1407,0.01331 0.1396,0.02209 0.1379,0.0308 0.1358,0.0395 0.133,0.0479 0.1297,0.0561 0.1259,0.0642 0.1217,0.0719 0.1169,0.0795 0.1117,0.0866 0.106,0.0935 0.1,0.1 0.0934,0.106032 0.0867,0.111678 0.0794,0.116911 0.072,0.121661 0.0642,0.125949 0.0561,0.12971 0.0479,0.133 0.0394,0.13574 0.0308,0.13794 0.0222,0.1396 0.0133,0.140729 0.004,0.141271 -0.004,0.141269 -0.0133,0.14073 -0.0222,0.139602 -0.0308,0.137938 -0.0394,0.135741 -0.0479,0.132999 -0.0561,0.129711 -0.0642,0.12595 -0.072,0.121658 -0.0794,0.116912 -0.0867,0.11168 -0.0934,0.106029 -0.1,0.0999 -0.106,0.0935 -0.1117,0.0866 -0.1169,0.0795 -0.1217,0.0719 -0.1259,0.0642 -0.1297,0.0561 -0.133,0.0479 -0.1358,0.0394 -0.1379,0.0308 -0.1396,0.02209 -0.1407,0.01331 -0.1413,0.004 z"
     id="path13810-3-9"
     inkscape:connector-curvature="0" />
  <path
     style="fill:none;stroke:#000000;stroke-width:0.5"
     d="m 162.6279,64.98022 0.6254,-0.0591 0.6205,-0.0983 0.6131,-0.137039 0.6033,-0.17526 0.591,-0.212801 0.5766,-0.2495 0.5597,-0.2852 0.5408,-0.319791 0.5195,-0.353108 0.4964,-0.38504 0.4713,-0.415451 0.4442,-0.444209 0.4154,-0.47122 0.3851,-0.496401 0.3531,-0.519581 0.3198,-0.540718 0.2852,-0.559761 0.2495,-0.57654 0.2128,-0.591079 0.1752,-0.603271 0.1371,-0.61308 0.0982,-0.620479 0.0592,-0.62543 0.0197,-0.627901 -0.0197,-0.627899 -0.0592,-0.62543 -0.0982,-0.62048 -0.1371,-0.613082 -0.1752,-0.603268 -0.2128,-0.591082 -0.2495,-0.576538 -0.2852,-0.55976 -0.3198,-0.540721 -0.3531,-0.519581 -0.3851,-0.496398 -0.4154,-0.47122 -0.4442,-0.444212 -0.4713,-0.415449 -0.4964,-0.38504 -0.5195,-0.35311 -0.5408,-0.319789 -0.5597,-0.285202 -0.5766,-0.249499 -0.591,-0.212799 -0.6033,-0.17526 -0.2369,-0.053 v 4.738772 h -4.5 v -4.738772 l -0.2369,0.053 -0.6033,0.17526 -0.591,0.212799 -0.5766,0.249499 -0.5597,0.285202 -0.5408,0.319789 -0.5195,0.35311 -0.4964,0.38504 -0.4713,0.415449 -0.4442,0.444212 -0.4154,0.47122 -0.3851,0.496398 -0.3531,0.519581 -0.3198,0.540721 -0.2852,0.55976 -0.2495,0.576538 -0.2128,0.591082 -0.1752,0.603268 -0.1371,0.613082 -0.0982,0.62048 -0.0592,0.62543 -0.0197,0.627899 0.0197,0.627901 0.0592,0.62543 0.0982,0.620479 0.1371,0.61308 0.1752,0.603271 0.2128,0.591079 0.2495,0.57654 0.2852,0.559761 0.3198,0.540718 0.3531,0.519581 0.3851,0.496401 0.4154,0.47122 0.4442,0.444209 0.4713,0.415451 0.4964,0.38504 0.5195,0.353108 0.5408,0.319791 0.5597,0.2852 0.5766,0.2495 0.591,0.212801 0.6033,0.17526 0.6131,0.137039 0.6205,0.0983 0.6254,0.0591 0.6279,0.01971 z"
     id="path13812-56-3"
     inkscape:connector-curvature="0" />
  <path
     style="fill:none;stroke:#000000;stroke-width:0.5"
     d="m 161.8587,57.245521 -0.1407,-0.01331 -0.1396,-0.02209 -0.1379,-0.0308 -0.1358,-0.0394 -0.133,-0.0479 -0.1297,-0.0561 -0.1259,-0.0642 -0.1217,-0.0719 -0.1169,-0.0795 -0.1117,-0.0866 -0.106,-0.0935 -0.1,-0.0999 -0.0934,-0.106031 -0.0867,-0.111681 -0.0794,-0.116909 -0.072,-0.12166 -0.0642,-0.12595 -0.0561,-0.129709 -0.0479,-0.133001 -0.0394,-0.135739 -0.0308,-0.137941 -0.0222,-0.139599 -0.0133,-0.14073 -0.004,-0.141271 0.004,-0.141269 0.0133,-0.140732 0.0222,-0.1396 0.0308,-0.13794 0.0394,-0.135739 0.0479,-0.133001 0.0561,-0.129709 0.0642,-0.12595 0.072,-0.121661 0.0794,-0.116908 0.0867,-0.111681 0.0934,-0.106029 0.1,-0.100002 0.106,-0.0935 0.1117,-0.0866 0.1169,-0.0795 0.1217,-0.0719 0.1259,-0.0642 0.1297,-0.0561 0.133,-0.0479 0.1358,-0.0395 0.1379,-0.0308 0.1396,-0.02209 0.1407,-0.01331 0.1413,-0.004 0.1413,0.004 0.1407,0.01331 0.1396,0.02209 0.1379,0.0308 0.1358,0.0395 0.133,0.0479 0.1297,0.0561 0.1259,0.0642 0.1217,0.0719 0.1169,0.0795 0.1117,0.0866 0.106,0.0935 0.1,0.100002 0.0934,0.106029 0.0867,0.111681 0.0794,0.116908 0.072,0.121661 0.0642,0.12595 0.0561,0.129709 0.0479,0.133001 0.0394,0.135739 0.0308,0.13794 0.0222,0.1396 0.0133,0.140732 0.004,0.141269 -0.004,0.141271 -0.0133,0.14073 -0.0222,0.139599 -0.0308,0.137941 -0.0394,0.135739 -0.0479,0.133001 -0.0561,0.129709 -0.0642,0.12595 -0.072,0.12166 -0.0794,0.116909 -0.0867,0.111681 -0.0934,0.106031 -0.1,0.0999 -0.106,0.0935 -0.1117,0.0866 -0.1169,0.0795 -0.1217,0.0719 -0.1259,0.0642 -0.1297,0.0561 -0.133,0.0479 -0.1358,0.0394 -0.1379,0.0308 -0.1396,0.02209 -0.1407,0.01331 -0.1413,0.004 z"
     id="path13810-2-6"
     inkscape:connector-curvature="0" />
</svg>
