<?xml version="1.0" encoding="UTF-8" standalone="no"?>
<svg
   xmlns:dc="http://purl.org/dc/elements/1.1/"
   xmlns:cc="http://creativecommons.org/ns#"
   xmlns:rdf="http://www.w3.org/1999/02/22-rdf-syntax-ns#"
   xmlns:svg="http://www.w3.org/2000/svg"
   xmlns="http://www.w3.org/2000/svg"
   xmlns:sodipodi="http://sodipodi.sourceforge.net/DTD/sodipodi-0.dtd"
   xmlns:inkscape="http://www.inkscape.org/namespaces/inkscape"
   width="297mm"
   height="210mm"
   viewBox="-10 -16 296.99999 210"
   version="1.1"
   id="svg11023"
   sodipodi:docname="master.svg"
   inkscape:version="0.92.3 (2405546, 2018-03-11)">
  <metadata
     id="metadata11029">
    <rdf:RDF>
      <cc:Work
         rdf:about="">
        <dc:format>image/svg+xml</dc:format>
        <dc:type
           rdf:resource="http://purl.org/dc/dcmitype/StillImage" />
        <dc:title>OpenSCAD Model</dc:title>
      </cc:Work>
    </rdf:RDF>
  </metadata>
  <defs
     id="defs11027" />
  <sodipodi:namedview
     pagecolor="#ffffff"
     bordercolor="#666666"
     borderopacity="1"
     objecttolerance="10"
     gridtolerance="10"
     guidetolerance="10"
     inkscape:pageopacity="0"
     inkscape:pageshadow="2"
     inkscape:window-width="1366"
     inkscape:window-height="713"
     id="namedview11025"
     showgrid="true"
     inkscape:measure-start="-30.117,49.3918"
     inkscape:measure-end="49.9942,-8.43275"
     units="mm"
     inkscape:document-units="mm"
     inkscape:zoom="0.5869673"
     inkscape:cx="693.6753"
     inkscape:cy="345.56725"
     inkscape:window-x="0"
     inkscape:window-y="27"
     inkscape:window-maximized="1"
     inkscape:current-layer="svg11023"
     inkscape:snap-bbox="true"
     inkscape:snap-bbox-midpoints="true"
     inkscape:object-nodes="false"
     inkscape:snap-nodes="false"
     scale-x="1">
    <inkscape:grid
       type="xygrid"
       id="grid13804" />
  </sodipodi:namedview>
  <title
     id="title11019">OpenSCAD Model</title>
  <path
     style="fill:none;stroke:#000000;stroke-width:0.5"
     d="m 105.6279,33.880685 0.62543,-0.0591 0.62048,-0.0983 0.61308,-0.13704 0.60327,-0.17526 0.59108,-0.2128 0.57654,-0.2495 0.55976,-0.2852 0.54072,-0.31979 0.51958,-0.35311 0.4964,-0.38504 0.47122,-0.41545 0.44421,-0.44421 0.41545,-0.47122 0.38504,-0.4964 0.35311,-0.51958 0.31979,-0.54072 0.2852,-0.55976 0.2495,-0.57654 0.2128,-0.59108 0.17526,-0.60327 0.13704,-0.61308 0.0983,-0.62048 0.0591,-0.62543 0.0197,-0.6279 -0.0197,-0.6279 -0.0591,-0.62543 -0.0983,-0.62048 -0.13704,-0.61308 -0.17526,-0.60327 -0.2128,-0.59108 -0.2495,-0.57654 -0.2852,-0.55976 -0.31979,-0.54072 -0.35311,-0.51958 -0.38504,-0.4964 -0.41545,-0.47122 -0.44421,-0.44421 -0.47122,-0.41545 -0.4964,-0.38504 -0.51958,-0.35311 -0.54072,-0.31979 -0.55976,-0.2852 -0.57654,-0.2495 -0.59108,-0.2128 -0.60327,-0.17526 -0.23689,-0.053 v 4.73877 h -4.5 v -4.73877 l -0.23689,0.053 -0.60327,0.17526 -0.59108,0.2128 -0.57654,0.2495 -0.55976,0.2852 -0.54072,0.31979 -0.51958,0.35311 -0.4964,0.38504 -0.47122,0.41545 -0.44421,0.44421 -0.41545,0.47122 -0.38504,0.4964 -0.35311,0.51958 -0.31979,0.54072 -0.2852,0.55976 -0.2495,0.57654 -0.2128,0.59108 -0.17526,0.60327 -0.13704,0.61308 -0.09828,0.62048 -0.05912,0.62543 -0.01974,0.6279 0.01974,0.6279 0.05912,0.62543 0.09828,0.62048 0.13704,0.61308 0.17526,0.60327 0.2128,0.59108 0.2495,0.57654 0.2852,0.55976 0.31979,0.54072 0.35311,0.51958 0.38504,0.4964 0.41545,0.47122 0.44421,0.44421 0.47122,0.41545 0.4964,0.38504 0.51958,0.35311 0.54072,0.31979 0.55976,0.2852 0.57654,0.2495 0.59108,0.2128 0.60327,0.17526 0.61308,0.13704 0.62048,0.0983 0.62543,0.0591 0.6279,0.0197 z"
     id="path13816"
     inkscape:connector-curvature="0" />
  <path
     style="fill:none;stroke:#000000;stroke-width:0.5"
     d="m 104.81163,26.894505 -0.18762,-0.0178 -0.18614,-0.0295 -0.18393,-0.0411 -0.18099,-0.0526 -0.17732,-0.0638 -0.17296,-0.0748 -0.16792,-0.0856 -0.16222,-0.0959 -0.15588,-0.10592 -0.14891,-0.11551 -0.14137,-0.12464 -0.13327,-0.13327 -0.12464,-0.14137 -0.11551,-0.14891 -0.10592,-0.15588 -0.0959,-0.16222 -0.0856,-0.16792 -0.0748,-0.17296 -0.0638,-0.17732 -0.0526,-0.18099 -0.0411,-0.18393 -0.0295,-0.18614 -0.0177,-0.18762 -0.006,-0.18838 0.006,-0.18837 0.0177,-0.18762 0.0295,-0.18614 0.0411,-0.18393 0.0526,-0.18099 0.0638,-0.17732 0.0748,-0.17296 0.0856,-0.16792 0.0959,-0.16222 0.10592,-0.15588 0.11551,-0.14891 0.12464,-0.14137 0.13327,-0.13327 0.14137,-0.12464 0.14891,-0.11551 0.15588,-0.10592 0.16222,-0.0959 0.16792,-0.0856 0.17296,-0.0748 0.17732,-0.0638 0.18099,-0.0526 0.18393,-0.0411 0.18614,-0.0295 0.18762,-0.0177 0.18837,-0.006 0.18837,0.006 0.18762,0.0177 0.18614,0.0295 0.18393,0.0411 0.18099,0.0526 0.17732,0.0638 0.17296,0.0748 0.16792,0.0856 0.16222,0.0959 0.15588,0.10592 0.14891,0.11551 0.14137,0.12464 0.13327,0.13327 0.12464,0.14137 0.11551,0.14891 0.10592,0.15588 0.0959,0.16222 0.0856,0.16792 0.0748,0.17296 0.0638,0.17732 0.0526,0.18099 0.0411,0.18393 0.0295,0.18614 0.0177,0.18762 0.006,0.18837 -0.006,0.18837 -0.0177,0.18762 -0.0295,0.18614 -0.0411,0.18393 -0.0526,0.18099 -0.0638,0.17732 -0.0748,0.17296 -0.0856,0.16792 -0.0959,0.16222 -0.10592,0.15588 -0.11551,0.14891 -0.12464,0.14137 -0.13327,0.13327 -0.14137,0.12464 -0.14891,0.11551 -0.15588,0.10592 -0.16222,0.0959 -0.16792,0.0856 -0.17296,0.0748 -0.17732,0.0638 -0.18099,0.0526 -0.18393,0.0411 -0.18614,0.0295 -0.18762,0.0178 -0.18837,0.006 z"
     id="path13814"
     inkscape:connector-curvature="0" />
  <rect
     style="opacity:1;fill:none;fill-opacity:1;stroke:#000000;stroke-width:0.26458332;stroke-miterlimit:4;stroke-dasharray:none;stroke-opacity:1"
     id="rect13806-3"
     width="85.000008"
     height="54.999996"
     x="92.499992"
     y="11.500002" />
  <path
     style="fill:none;stroke:#000000;stroke-width:0.5"
     d="m 124.6279,43.880685 0.62543,-0.0591 0.62048,-0.0983 0.61308,-0.13704 0.60327,-0.17526 0.59108,-0.2128 0.57654,-0.2495 0.55976,-0.2852 0.54072,-0.31979 0.51958,-0.35311 0.4964,-0.38504 0.47122,-0.41545 0.44421,-0.44421 0.41545,-0.47122 0.38504,-0.4964 0.35311,-0.51958 0.31979,-0.54072 0.2852,-0.55976 0.2495,-0.57654 0.2128,-0.59108 0.17526,-0.60327 0.13704,-0.61308 0.0983,-0.62048 0.0591,-0.62543 0.0197,-0.6279 -0.0197,-0.6279 -0.0591,-0.62543 -0.0983,-0.62048 -0.13704,-0.61308 -0.17526,-0.60327 -0.2128,-0.59108 -0.2495,-0.57654 -0.2852,-0.55976 -0.31979,-0.54072 -0.35311,-0.51958 -0.38504,-0.4964 -0.41545,-0.47122 -0.44421,-0.44421 -0.47122,-0.41545 -0.4964,-0.38504 -0.51958,-0.35311 -0.54072,-0.31979 -0.55976,-0.2852 -0.57654,-0.2495 -0.59108,-0.2128 -0.60327,-0.17526 -0.23689,-0.053 v 4.73877 h -4.5 v -4.73877 l -0.23689,0.053 -0.60327,0.17526 -0.59108,0.2128 -0.57654,0.2495 -0.55976,0.2852 -0.54072,0.31979 -0.51958,0.35311 -0.4964,0.38504 -0.47122,0.41545 -0.44421,0.44421 -0.41545,0.47122 -0.38504,0.4964 -0.35311,0.51958 -0.31979,0.54072 -0.2852,0.55976 -0.2495,0.57654 -0.2128,0.59108 -0.17526,0.60327 -0.13704,0.61308 -0.0983,0.62048 -0.0591,0.62543 -0.0197,0.6279 0.0197,0.6279 0.0591,0.62543 0.0983,0.62048 0.13704,0.61308 0.17526,0.60327 0.2128,0.59108 0.2495,0.57654 0.2852,0.55976 0.31979,0.54072 0.35311,0.51958 0.38504,0.4964 0.41545,0.47122 0.44421,0.44421 0.47122,0.41545 0.4964,0.38504 0.51958,0.35311 0.54072,0.31979 0.55976,0.2852 0.57654,0.2495 0.59108,0.2128 0.60327,0.17526 0.61308,0.13704 0.62048,0.0983 0.62543,0.0591 0.6279,0.0197 z"
     id="path13816-6"
     inkscape:connector-curvature="0" />
  <path
     style="fill:none;stroke:#000000;stroke-width:0.5"
     d="m 123.81163,36.894505 -0.18762,-0.0178 -0.18614,-0.0295 -0.18393,-0.0411 -0.18099,-0.0526 -0.17732,-0.0638 -0.17296,-0.0748 -0.16792,-0.0856 -0.16222,-0.0959 -0.15588,-0.10592 -0.14891,-0.11551 -0.14137,-0.12464 -0.13327,-0.13327 -0.12464,-0.14137 -0.11551,-0.14891 -0.10592,-0.15588 -0.0959,-0.16222 -0.0856,-0.16792 -0.0748,-0.17296 -0.0638,-0.17732 -0.0526,-0.18099 -0.0411,-0.18393 -0.0295,-0.18614 -0.0177,-0.18762 -0.006,-0.18838 0.006,-0.18837 0.0177,-0.18762 0.0295,-0.18614 0.0411,-0.18393 0.0526,-0.18099 0.0638,-0.17732 0.0748,-0.17296 0.0856,-0.16792 0.0959,-0.16222 0.10592,-0.15588 0.11551,-0.14891 0.12464,-0.14137 0.13327,-0.13327 0.14137,-0.12464 0.14891,-0.11551 0.15588,-0.10592 0.16222,-0.0959 0.16792,-0.0856 0.17296,-0.0748 0.17732,-0.0638 0.18099,-0.0526 0.18393,-0.0411 0.18614,-0.0295 0.18762,-0.0177 0.18837,-0.006 0.18837,0.006 0.18762,0.0177 0.18614,0.0295 0.18393,0.0411 0.18099,0.0526 0.17732,0.0638 0.17296,0.0748 0.16792,0.0856 0.16222,0.0959 0.15588,0.10592 0.14891,0.11551 0.14137,0.12464 0.13327,0.13327 0.12464,0.14137 0.11551,0.14891 0.10592,0.15588 0.0959,0.16222 0.0856,0.16792 0.0748,0.17296 0.0638,0.17732 0.0526,0.18099 0.0411,0.18393 0.0295,0.18614 0.0177,0.18762 0.006,0.18837 -0.006,0.18837 -0.0177,0.18762 -0.0295,0.18614 -0.0411,0.18393 -0.0526,0.18099 -0.0638,0.17732 -0.0748,0.17296 -0.0856,0.16792 -0.0959,0.16222 -0.10592,0.15588 -0.11551,0.14891 -0.12464,0.14137 -0.13327,0.13327 -0.14137,0.12464 -0.14891,0.11551 -0.15588,0.10592 -0.16222,0.0959 -0.16792,0.0856 -0.17296,0.0748 -0.17732,0.0638 -0.18099,0.0526 -0.18393,0.0411 -0.18614,0.0295 -0.18762,0.0178 -0.18837,0.006 z"
     id="path13814-7"
     inkscape:connector-curvature="0" />
  <path
     style="fill:none;stroke:#000000;stroke-width:0.5"
     d="m 105.6279,54.880684 0.6254,-0.0591 0.6205,-0.0983 0.6131,-0.13704 0.6033,-0.17526 0.591,-0.2128 0.5766,-0.2495 0.5597,-0.285199 0.5408,-0.319791 0.5195,-0.35311 0.4964,-0.38504 0.4713,-0.41545 0.4442,-0.44421 0.4154,-0.47122 0.3851,-0.4964 0.3531,-0.51958 0.3198,-0.54072 0.2852,-0.55976 0.2495,-0.57654 0.2128,-0.59108 0.1752,-0.60327 0.1371,-0.61308 0.0982,-0.62048 0.0592,-0.62543 0.0197,-0.6279 -0.0197,-0.6279 -0.0592,-0.62543 -0.0982,-0.62048 -0.1371,-0.61308 -0.1752,-0.60327 -0.2128,-0.59108 -0.2495,-0.57654 -0.2852,-0.55976 -0.3198,-0.54072 -0.3531,-0.51958 -0.3851,-0.4964 -0.4154,-0.47122 -0.4442,-0.44421 -0.4713,-0.41545 -0.4964,-0.38504 -0.5195,-0.35311 -0.5408,-0.31979 -0.5597,-0.2852 -0.5766,-0.2495 -0.591,-0.2128 -0.6033,-0.17526 -0.2369,-0.053 v 4.73877 h -4.5 v -4.73877 l -0.2369,0.053 -0.6033,0.17526 -0.591,0.2128 -0.5766,0.2495 -0.5597,0.2852 -0.5408,0.31979 -0.5195,0.35311 -0.4964,0.38504 -0.4713,0.41545 -0.4442,0.44421 -0.4154,0.47122 -0.3851,0.4964 -0.3531,0.51958 -0.3198,0.54072 -0.2852,0.55976 -0.2495,0.57654 -0.2128,0.59108 -0.1752,0.60327 -0.1371,0.61308 -0.0982,0.62048 -0.0592,0.62543 -0.0197,0.6279 0.0197,0.6279 0.0592,0.62543 0.0982,0.62048 0.1371,0.61308 0.1752,0.60327 0.2128,0.59108 0.2495,0.57654 0.2852,0.55976 0.3198,0.54072 0.3531,0.51958 0.3851,0.4964 0.4154,0.47122 0.4442,0.44421 0.4713,0.41545 0.4964,0.38504 0.5195,0.35311 0.5408,0.319791 0.5597,0.285199 0.5766,0.2495 0.591,0.2128 0.6033,0.17526 0.6131,0.13704 0.6205,0.0983 0.6254,0.0591 0.6279,0.0197 z"
     id="path13812-5"
     inkscape:connector-curvature="0" />
  <path
     style="fill:none;stroke:#000000;stroke-width:0.5"
     d="m 104.8587,47.145984 -0.1407,-0.0133 -0.1396,-0.0221 -0.1379,-0.0308 -0.1358,-0.0394 -0.133,-0.0479 -0.1297,-0.0561 -0.1259,-0.0642 -0.1217,-0.0719 -0.1169,-0.0795 -0.1117,-0.0866 -0.106,-0.0935 -0.1,-0.0999 -0.0934,-0.10603 -0.0867,-0.11168 -0.0794,-0.11691 -0.072,-0.12166 -0.0642,-0.12595 -0.0561,-0.12971 -0.0479,-0.133 -0.0394,-0.13574 -0.0308,-0.13794 -0.0222,-0.1396 -0.0133,-0.14073 -0.004,-0.14127 0.004,-0.14127 0.0133,-0.14073 0.0222,-0.1396 0.0308,-0.13794 0.0394,-0.13574 0.0479,-0.133 0.0561,-0.12971 0.0642,-0.12595 0.072,-0.12166 0.0794,-0.11691 0.0867,-0.11168 0.0934,-0.10603 0.1,-0.1 0.106,-0.0935 0.1117,-0.0866 0.1169,-0.0795 0.1217,-0.0719 0.1259,-0.0642 0.1297,-0.0561 0.133,-0.0479 0.1358,-0.0395 0.1379,-0.0308 0.1396,-0.0221 0.1407,-0.0133 0.1413,-0.004 0.1413,0.004 0.1407,0.0133 0.1396,0.0221 0.1379,0.0308 0.1358,0.0395 0.133,0.0479 0.1297,0.0561 0.1259,0.0642 0.1217,0.0719 0.1169,0.0795 0.1117,0.0866 0.106,0.0935 0.1,0.1 0.0934,0.10603 0.0867,0.11168 0.0794,0.11691 0.072,0.12166 0.0642,0.12595 0.0561,0.12971 0.0479,0.133 0.0394,0.13574 0.0308,0.13794 0.0222,0.1396 0.0133,0.14073 0.004,0.14127 -0.004,0.14127 -0.0133,0.14073 -0.0222,0.1396 -0.0308,0.13794 -0.0394,0.13574 -0.0479,0.133 -0.0561,0.12971 -0.0642,0.12595 -0.072,0.12166 -0.0794,0.11691 -0.0867,0.11168 -0.0934,0.10603 -0.1,0.0999 -0.106,0.0935 -0.1117,0.0866 -0.1169,0.0795 -0.1217,0.0719 -0.1259,0.0642 -0.1297,0.0561 -0.133,0.0479 -0.1358,0.0394 -0.1379,0.0308 -0.1396,0.0221 -0.1407,0.0133 -0.1413,0.004 z"
     id="path13810-3"
     inkscape:connector-curvature="0" />
  <path
     style="fill:none;stroke:#000000;stroke-width:0.5"
     d="m 124.6279,64.880695 0.6254,-0.0591 0.6205,-0.0983 0.6131,-0.13704 0.6033,-0.17526 0.591,-0.2128 0.5766,-0.2495 0.5597,-0.285199 0.5408,-0.319791 0.5195,-0.35311 0.4964,-0.38504 0.4713,-0.41545 0.4442,-0.44421 0.4154,-0.47122 0.3851,-0.4964 0.3531,-0.51958 0.3198,-0.54072 0.2852,-0.55976 0.2495,-0.57654 0.2128,-0.59108 0.1752,-0.60327 0.1371,-0.61308 0.0982,-0.62048 0.0592,-0.62543 0.0197,-0.6279 -0.0197,-0.6279 -0.0592,-0.62543 -0.0982,-0.62048 -0.1371,-0.61308 -0.1752,-0.60327 -0.2128,-0.59108 -0.2495,-0.57654 -0.2852,-0.55976 -0.3198,-0.54072 -0.3531,-0.51958 -0.3851,-0.4964 -0.4154,-0.47122 -0.4442,-0.44421 -0.4713,-0.41545 -0.4964,-0.38504 -0.5195,-0.35311 -0.5408,-0.31979 -0.5597,-0.2852 -0.5766,-0.2495 -0.591,-0.2128 -0.6033,-0.17526 -0.2369,-0.053 v 4.73877 h -4.5 v -4.73877 l -0.2369,0.053 -0.6033,0.17526 -0.591,0.2128 -0.5766,0.2495 -0.5597,0.2852 -0.5408,0.31979 -0.5195,0.35311 -0.4964,0.38504 -0.4713,0.41545 -0.4442,0.44421 -0.4154,0.47122 -0.3851,0.4964 -0.3531,0.51958 -0.3198,0.54072 -0.2852,0.55976 -0.2495,0.57654 -0.2128,0.59108 -0.1752,0.60327 -0.1371,0.61308 -0.0982,0.62048 -0.0592,0.62543 -0.0197,0.6279 0.0197,0.6279 0.0592,0.62543 0.0982,0.62048 0.1371,0.61308 0.1752,0.60327 0.2128,0.59108 0.2495,0.57654 0.2852,0.55976 0.3198,0.54072 0.3531,0.51958 0.3851,0.4964 0.4154,0.47122 0.4442,0.44421 0.4713,0.41545 0.4964,0.38504 0.5195,0.35311 0.5408,0.319791 0.5597,0.285199 0.5766,0.2495 0.591,0.2128 0.6033,0.17526 0.6131,0.13704 0.6205,0.0983 0.6254,0.0591 0.6279,0.0197 z"
     id="path13812-56"
     inkscape:connector-curvature="0" />
  <path
     style="fill:none;stroke:#000000;stroke-width:0.5"
     d="m 123.8587,57.145995 -0.1407,-0.0133 -0.1396,-0.0221 -0.1379,-0.0308 -0.1358,-0.0394 -0.133,-0.0479 -0.1297,-0.0561 -0.1259,-0.0642 -0.1217,-0.0719 -0.1169,-0.0795 -0.1117,-0.0866 -0.106,-0.0935 -0.1,-0.0999 -0.0934,-0.10603 -0.0867,-0.11168 -0.0794,-0.11691 -0.072,-0.12166 -0.0642,-0.12595 -0.0561,-0.12971 -0.0479,-0.133 -0.0394,-0.13574 -0.0308,-0.13794 -0.0222,-0.1396 -0.0133,-0.14073 -0.004,-0.14127 0.004,-0.14127 0.0133,-0.14073 0.0222,-0.1396 0.0308,-0.13794 0.0394,-0.13574 0.0479,-0.133 0.0561,-0.12971 0.0642,-0.12595 0.072,-0.12166 0.0794,-0.11691 0.0867,-0.11168 0.0934,-0.10603 0.1,-0.1 0.106,-0.0935 0.1117,-0.0866 0.1169,-0.0795 0.1217,-0.0719 0.1259,-0.0642 0.1297,-0.0561 0.133,-0.0479 0.1358,-0.0395 0.1379,-0.0308 0.1396,-0.0221 0.1407,-0.0133 0.1413,-0.004 0.1413,0.004 0.1407,0.0133 0.1396,0.0221 0.1379,0.0308 0.1358,0.0395 0.133,0.0479 0.1297,0.0561 0.1259,0.0642 0.1217,0.0719 0.1169,0.0795 0.1117,0.0866 0.106,0.0935 0.1,0.1 0.0934,0.10603 0.0867,0.11168 0.0794,0.11691 0.072,0.12166 0.0642,0.12595 0.0561,0.12971 0.0479,0.133 0.0394,0.13574 0.0308,0.13794 0.0222,0.1396 0.0133,0.14073 0.004,0.14127 -0.004,0.14127 -0.0133,0.14073 -0.0222,0.1396 -0.0308,0.13794 -0.0394,0.13574 -0.0479,0.133 -0.0561,0.12971 -0.0642,0.12595 -0.072,0.12166 -0.0794,0.11691 -0.0867,0.11168 -0.0934,0.10603 -0.1,0.0999 -0.106,0.0935 -0.1117,0.0866 -0.1169,0.0795 -0.1217,0.0719 -0.1259,0.0642 -0.1297,0.0561 -0.133,0.0479 -0.1358,0.0394 -0.1379,0.0308 -0.1396,0.0221 -0.1407,0.0133 -0.1413,0.004 z"
     id="path13810-2"
     inkscape:connector-curvature="0" />
  <path
     style="fill:none;stroke:#000000;stroke-width:0.5"
     d="m 143.6279,33.98021 0.62543,-0.0591 0.62048,-0.0983 0.61308,-0.13704 0.60327,-0.17526 0.59108,-0.2128 0.57654,-0.2495 0.55976,-0.2852 0.54072,-0.31979 0.51958,-0.35311 0.4964,-0.38504 0.47122,-0.41545 0.44421,-0.44421 0.41545,-0.47122 0.38504,-0.4964 0.35311,-0.51958 0.31979,-0.54072 0.2852,-0.55976 0.2495,-0.57654 0.2128,-0.59108 0.17526,-0.60327 0.13704,-0.61308 0.0983,-0.62048 0.0591,-0.62543 0.0197,-0.6279 -0.0197,-0.6279 -0.0591,-0.62543 -0.0983,-0.62048 -0.13704,-0.61308 -0.17526,-0.60327 -0.2128,-0.59108 -0.2495,-0.57654 -0.2852,-0.55976 -0.31979,-0.54072 -0.35311,-0.51958 -0.38504,-0.4964 -0.41545,-0.47122 -0.44421,-0.44421 -0.47122,-0.41545 -0.4964,-0.38504 -0.51958,-0.35311 -0.54072,-0.31979 -0.55976,-0.2852 -0.57654,-0.2495 -0.59108,-0.2128 -0.60327,-0.17526 -0.23689,-0.053 v 4.73877 h -4.5 v -4.73877 l -0.23689,0.053 -0.60327,0.17526 -0.59108,0.2128 -0.57654,0.2495 -0.55976,0.2852 -0.54072,0.31979 -0.51958,0.35311 -0.4964,0.38504 -0.47122,0.41545 -0.44421,0.44421 -0.41545,0.47122 -0.38504,0.4964 -0.35311,0.51958 -0.31979,0.54072 -0.2852,0.55976 -0.2495,0.57654 -0.2128,0.59108 -0.17526,0.60327 -0.13704,0.61308 -0.0983,0.62048 -0.0591,0.62543 -0.0197,0.6279 0.0197,0.6279 0.0591,0.62543 0.0983,0.62048 0.13704,0.61308 0.17526,0.60327 0.2128,0.59108 0.2495,0.57654 0.2852,0.55976 0.31979,0.54072 0.35311,0.51958 0.38504,0.4964 0.41545,0.47122 0.44421,0.44421 0.47122,0.41545 0.4964,0.38504 0.51958,0.35311 0.54072,0.31979 0.55976,0.2852 0.57654,0.2495 0.59108,0.2128 0.60327,0.17526 0.61308,0.13704 0.62048,0.0983 0.62543,0.0591 0.6279,0.0197 z"
     id="path13816-9"
     inkscape:connector-curvature="0" />
  <path
     style="fill:none;stroke:#000000;stroke-width:0.5"
     d="m 142.81163,26.99403 -0.18762,-0.0178 -0.18614,-0.0295 -0.18393,-0.0411 -0.18099,-0.0526 -0.17732,-0.0638 -0.17296,-0.0748 -0.16792,-0.0856 -0.16222,-0.0959 -0.15588,-0.10592 -0.14891,-0.11551 -0.14137,-0.12464 -0.13327,-0.13327 -0.12464,-0.14137 -0.11551,-0.14891 -0.10592,-0.15588 -0.0959,-0.16222 -0.0856,-0.16792 -0.0748,-0.17296 -0.0638,-0.17732 -0.0526,-0.18099 -0.0411,-0.18393 -0.0295,-0.18614 -0.0177,-0.18762 -0.006,-0.18838 0.006,-0.18837 0.0177,-0.18762 0.0295,-0.18614 0.0411,-0.18393 0.0526,-0.18099 0.0638,-0.17732 0.0748,-0.17296 0.0856,-0.16792 0.0959,-0.16222 0.10592,-0.15588 0.11551,-0.14891 0.12464,-0.14137 0.13327,-0.13327 0.14137,-0.12464 0.14891,-0.11551 0.15588,-0.10592 0.16222,-0.0959 0.16792,-0.0856 0.17296,-0.0748 0.17732,-0.0638 0.18099,-0.0526 0.18393,-0.0411 0.18614,-0.0295 0.18762,-0.0177 0.18837,-0.006 0.18837,0.006 0.18762,0.0177 0.18614,0.0295 0.18393,0.0411 0.18099,0.0526 0.17732,0.0638 0.17296,0.0748 0.16792,0.0856 0.16222,0.0959 0.15588,0.10592 0.14891,0.11551 0.14137,0.12464 0.13327,0.13327 0.12464,0.14137 0.11551,0.14891 0.10592,0.15588 0.0959,0.16222 0.0856,0.16792 0.0748,0.17296 0.0638,0.17732 0.0526,0.18099 0.0411,0.18393 0.0295,0.18614 0.0177,0.18762 0.006,0.18837 -0.006,0.18837 -0.0177,0.18762 -0.0295,0.18614 -0.0411,0.18393 -0.0526,0.18099 -0.0638,0.17732 -0.0748,0.17296 -0.0856,0.16792 -0.0959,0.16222 -0.10592,0.15588 -0.11551,0.14891 -0.12464,0.14137 -0.13327,0.13327 -0.14137,0.12464 -0.14891,0.11551 -0.15588,0.10592 -0.16222,0.0959 -0.16792,0.0856 -0.17296,0.0748 -0.17732,0.0638 -0.18099,0.0526 -0.18393,0.0411 -0.18614,0.0295 -0.18762,0.0178 -0.18837,0.006 z"
     id="path13814-1"
     inkscape:connector-curvature="0" />
  <path
     style="fill:none;stroke:#000000;stroke-width:0.5"
     d="m 162.6279,43.980209 0.62543,-0.0591 0.62048,-0.0983 0.61308,-0.137041 0.60327,-0.17526 0.59108,-0.212799 0.57654,-0.249502 0.55976,-0.2852 0.54072,-0.319788 0.51958,-0.35311 0.4964,-0.385041 0.47122,-0.415451 0.44421,-0.444209 0.41545,-0.47122 0.38504,-0.4964 0.35311,-0.51958 0.31979,-0.54072 0.2852,-0.55976 0.2495,-0.57654 0.2128,-0.59108 0.17526,-0.60327 0.13704,-0.61308 0.0983,-0.62048 0.0591,-0.62543 0.0197,-0.6279 -0.0197,-0.6279 -0.0591,-0.62543 -0.0983,-0.62048 -0.13704,-0.61308 -0.17526,-0.60327 -0.2128,-0.59108 -0.2495,-0.57654 -0.2852,-0.55976 -0.31979,-0.54072 -0.35311,-0.51958 -0.38504,-0.4964 -0.41545,-0.47122 -0.44421,-0.44421 -0.47122,-0.41545 -0.4964,-0.38504 -0.51958,-0.35311 -0.54072,-0.31979 -0.55976,-0.2852 -0.57654,-0.2495 -0.59108,-0.2128 -0.60327,-0.17526 -0.23689,-0.053 v 4.73877 h -4.5 V 24.26113 l -0.23689,0.053 -0.60327,0.17526 -0.59108,0.2128 -0.57654,0.2495 -0.55976,0.2852 -0.54072,0.31979 -0.51958,0.35311 -0.4964,0.38504 -0.47122,0.41545 -0.44421,0.44421 -0.41545,0.47122 -0.38504,0.4964 -0.35311,0.51958 -0.31979,0.54072 -0.2852,0.55976 -0.2495,0.57654 -0.2128,0.59108 -0.17526,0.60327 -0.13704,0.61308 -0.0983,0.62048 -0.0591,0.62543 -0.0197,0.6279 0.0197,0.6279 0.0591,0.62543 0.0983,0.62048 0.13704,0.61308 0.17526,0.60327 0.2128,0.59108 0.2495,0.57654 0.2852,0.55976 0.31979,0.54072 0.35311,0.51958 0.38504,0.4964 0.41545,0.47122 0.44421,0.444209 0.47122,0.415451 0.4964,0.385041 0.51958,0.35311 0.54072,0.319789 0.55976,0.285199 0.57654,0.249502 0.59108,0.212799 0.60327,0.17526 0.61308,0.137041 0.62048,0.0983 0.62543,0.0591 0.6279,0.01971 z"
     id="path13816-6-2"
     inkscape:connector-curvature="0" />
  <path
     style="fill:none;stroke:#000000;stroke-width:0.5"
     d="m 161.81163,36.99403 -0.18762,-0.0178 -0.18614,-0.0295 -0.18393,-0.0411 -0.18099,-0.0526 -0.17732,-0.0638 -0.17296,-0.0748 -0.16792,-0.0856 -0.16222,-0.0959 -0.15588,-0.10592 -0.14891,-0.11551 -0.14137,-0.12464 -0.13327,-0.13327 -0.12464,-0.14137 -0.11551,-0.14891 -0.10592,-0.15588 -0.0959,-0.16222 -0.0856,-0.16792 -0.0748,-0.17296 -0.0638,-0.17732 -0.0526,-0.18099 -0.0411,-0.18393 -0.0295,-0.18614 -0.0177,-0.18762 -0.006,-0.18838 0.006,-0.18837 0.0177,-0.18762 0.0295,-0.18614 0.0411,-0.18393 0.0526,-0.18099 0.0638,-0.17732 0.0748,-0.17296 0.0856,-0.16792 0.0959,-0.16222 0.10592,-0.15588 0.11551,-0.14891 0.12464,-0.14137 0.13327,-0.13327 0.14137,-0.12464 0.14891,-0.11551 0.15588,-0.10592 0.16222,-0.0959 0.16792,-0.0856 0.17296,-0.0748 0.17732,-0.0638 0.18099,-0.0526 0.18393,-0.0411 0.18614,-0.0295 0.18762,-0.0177 0.18837,-0.006 0.18837,0.006 0.18762,0.0177 0.18614,0.0295 0.18393,0.0411 0.18099,0.0526 0.17732,0.0638 0.17296,0.0748 0.16792,0.0856 0.16222,0.0959 0.15588,0.10592 0.14891,0.11551 0.14137,0.12464 0.13327,0.13327 0.12464,0.14137 0.11551,0.14891 0.10592,0.15588 0.0959,0.16222 0.0856,0.16792 0.0748,0.17296 0.0638,0.17732 0.0526,0.18099 0.0411,0.18393 0.0295,0.18614 0.0177,0.18762 0.006,0.18837 -0.006,0.18837 -0.0177,0.18762 -0.0295,0.18614 -0.0411,0.18393 -0.0526,0.18099 -0.0638,0.17732 -0.0748,0.17296 -0.0856,0.16792 -0.0959,0.16222 -0.10592,0.15588 -0.11551,0.14891 -0.12464,0.14137 -0.13327,0.13327 -0.14137,0.12464 -0.14891,0.11551 -0.15588,0.10592 -0.16222,0.0959 -0.16792,0.0856 -0.17296,0.0748 -0.17732,0.0638 -0.18099,0.0526 -0.18393,0.0411 -0.18614,0.0295 -0.18762,0.0178 -0.18837,0.006 z"
     id="path13814-7-7"
     inkscape:connector-curvature="0" />
  <path
     style="fill:none;stroke:#000000;stroke-width:0.5"
     d="m 143.6279,54.98021 0.6254,-0.0591 0.6205,-0.0983 0.6131,-0.137041 0.6033,-0.17526 0.591,-0.212799 0.5766,-0.2495 0.5597,-0.285199 0.5408,-0.319792 0.5195,-0.35311 0.4964,-0.38504 0.4713,-0.415449 0.4442,-0.444211 0.4154,-0.471221 0.3851,-0.496398 0.3531,-0.519581 0.3198,-0.540721 0.2852,-0.55976 0.2495,-0.576538 0.2128,-0.591082 0.1752,-0.603268 0.1371,-0.613082 0.0982,-0.62048 0.0592,-0.62543 0.0197,-0.627898 -0.0197,-0.627901 -0.0592,-0.62543 -0.0982,-0.62048 -0.1371,-0.613079 -0.1752,-0.603272 -0.2128,-0.591079 -0.2495,-0.57654 -0.2852,-0.55976 -0.3198,-0.54072 -0.3531,-0.51958 -0.3851,-0.4964 -0.4154,-0.47122 -0.4442,-0.44421 -0.4713,-0.41545 -0.4964,-0.38504 -0.5195,-0.35311 -0.5408,-0.31979 -0.5597,-0.2852 -0.5766,-0.2495 -0.591,-0.2128 -0.6033,-0.17526 -0.2369,-0.053 v 4.73877 h -4.5 v -4.73877 l -0.2369,0.053 -0.6033,0.17526 -0.591,0.2128 -0.5766,0.2495 -0.5597,0.2852 -0.5408,0.31979 -0.5195,0.35311 -0.4964,0.38504 -0.4713,0.41545 -0.4442,0.44421 -0.4154,0.47122 -0.3851,0.4964 -0.3531,0.51958 -0.3198,0.54072 -0.2852,0.55976 -0.2495,0.57654 -0.2128,0.591079 -0.1752,0.603272 -0.1371,0.613079 -0.0982,0.62048 -0.0592,0.62543 -0.0197,0.627901 0.0197,0.627898 0.0592,0.62543 0.0982,0.62048 0.1371,0.613082 0.1752,0.603268 0.2128,0.591082 0.2495,0.576538 0.2852,0.55976 0.3198,0.540721 0.3531,0.519581 0.3851,0.496398 0.4154,0.471221 0.4442,0.444211 0.4713,0.415449 0.4964,0.38504 0.5195,0.35311 0.5408,0.319792 0.5597,0.285199 0.5766,0.2495 0.591,0.212799 0.6033,0.17526 0.6131,0.137041 0.6205,0.0983 0.6254,0.0591 0.6279,0.01971 z"
     id="path13812-5-0"
     inkscape:connector-curvature="0" />
  <path
     style="fill:none;stroke:#000000;stroke-width:0.5"
     d="m 142.8587,47.245508 -0.1407,-0.01331 -0.1396,-0.02209 -0.1379,-0.0308 -0.1358,-0.0394 -0.133,-0.0479 -0.1297,-0.0561 -0.1259,-0.0642 -0.1217,-0.0719 -0.1169,-0.0795 -0.1117,-0.0866 -0.106,-0.0935 -0.1,-0.0999 -0.0934,-0.106029 -0.0867,-0.11168 -0.0794,-0.116912 -0.072,-0.121658 -0.0642,-0.12595 -0.0561,-0.129711 -0.0479,-0.132999 -0.0394,-0.135741 -0.0308,-0.137938 -0.0222,-0.139602 -0.0133,-0.14073 -0.004,-0.141269 0.004,-0.141271 0.0133,-0.140729 0.0222,-0.1396 0.0308,-0.13794 0.0394,-0.13574 0.0479,-0.133 0.0561,-0.12971 0.0642,-0.125949 0.072,-0.121661 0.0794,-0.116911 0.0867,-0.111678 0.0934,-0.106032 0.1,-0.1 0.106,-0.0935 0.1117,-0.0866 0.1169,-0.0795 0.1217,-0.0719 0.1259,-0.0642 0.1297,-0.0561 0.133,-0.0479 0.1358,-0.0395 0.1379,-0.0308 0.1396,-0.02209 0.1407,-0.01331 0.1413,-0.004 0.1413,0.004 0.1407,0.01331 0.1396,0.02209 0.1379,0.0308 0.1358,0.0395 0.133,0.0479 0.1297,0.0561 0.1259,0.0642 0.1217,0.0719 0.1169,0.0795 0.1117,0.0866 0.106,0.0935 0.1,0.1 0.0934,0.106032 0.0867,0.111678 0.0794,0.116911 0.072,0.121661 0.0642,0.125949 0.0561,0.12971 0.0479,0.133 0.0394,0.13574 0.0308,0.13794 0.0222,0.1396 0.0133,0.140729 0.004,0.141271 -0.004,0.141269 -0.0133,0.14073 -0.0222,0.139602 -0.0308,0.137938 -0.0394,0.135741 -0.0479,0.132999 -0.0561,0.129711 -0.0642,0.12595 -0.072,0.121658 -0.0794,0.116912 -0.0867,0.11168 -0.0934,0.106029 -0.1,0.0999 -0.106,0.0935 -0.1117,0.0866 -0.1169,0.0795 -0.1217,0.0719 -0.1259,0.0642 -0.1297,0.0561 -0.133,0.0479 -0.1358,0.0394 -0.1379,0.0308 -0.1396,0.02209 -0.1407,0.01331 -0.1413,0.004 z"
     id="path13810-3-9"
     inkscape:connector-curvature="0" />
  <path
     style="fill:none;stroke:#000000;stroke-width:0.5"
     d="m 162.6279,64.98022 0.6254,-0.0591 0.6205,-0.0983 0.6131,-0.137039 0.6033,-0.17526 0.591,-0.212801 0.5766,-0.2495 0.5597,-0.2852 0.5408,-0.319791 0.5195,-0.353108 0.4964,-0.38504 0.4713,-0.415451 0.4442,-0.444209 0.4154,-0.47122 0.3851,-0.496401 0.3531,-0.519581 0.3198,-0.540718 0.2852,-0.559761 0.2495,-0.57654 0.2128,-0.591079 0.1752,-0.603271 0.1371,-0.61308 0.0982,-0.620479 0.0592,-0.62543 0.0197,-0.627901 -0.0197,-0.627899 -0.0592,-0.62543 -0.0982,-0.62048 -0.1371,-0.613082 -0.1752,-0.603268 -0.2128,-0.591082 -0.2495,-0.576538 -0.2852,-0.55976 -0.3198,-0.540721 -0.3531,-0.519581 -0.3851,-0.496398 -0.4154,-0.47122 -0.4442,-0.444212 -0.4713,-0.415449 -0.4964,-0.38504 -0.5195,-0.35311 -0.5408,-0.319789 -0.5597,-0.285202 -0.5766,-0.249499 -0.591,-0.212799 -0.6033,-0.17526 -0.2369,-0.053 v 4.738772 h -4.5 v -4.738772 l -0.2369,0.053 -0.6033,0.17526 -0.591,0.212799 -0.5766,0.249499 -0.5597,0.285202 -0.5408,0.319789 -0.5195,0.35311 -0.4964,0.38504 -0.4713,0.415449 -0.4442,0.444212 -0.4154,0.47122 -0.3851,0.496398 -0.3531,0.519581 -0.3198,0.540721 -0.2852,0.55976 -0.2495,0.576538 -0.2128,0.591082 -0.1752,0.603268 -0.1371,0.613082 -0.0982,0.62048 -0.0592,0.62543 -0.0197,0.627899 0.0197,0.627901 0.0592,0.62543 0.0982,0.620479 0.1371,0.61308 0.1752,0.603271 0.2128,0.591079 0.2495,0.57654 0.2852,0.559761 0.3198,0.540718 0.3531,0.519581 0.3851,0.496401 0.4154,0.47122 0.4442,0.444209 0.4713,0.415451 0.4964,0.38504 0.5195,0.353108 0.5408,0.319791 0.5597,0.2852 0.5766,0.2495 0.591,0.212801 0.6033,0.17526 0.6131,0.137039 0.6205,0.0983 0.6254,0.0591 0.6279,0.01971 z"
     id="path13812-56-3"
     inkscape:connector-curvature="0" />
  <path
     style="fill:none;stroke:#000000;stroke-width:0.5"
     d="m 161.8587,57.245521 -0.1407,-0.01331 -0.1396,-0.02209 -0.1379,-0.0308 -0.1358,-0.0394 -0.133,-0.0479 -0.1297,-0.0561 -0.1259,-0.0642 -0.1217,-0.0719 -0.1169,-0.0795 -0.1117,-0.0866 -0.106,-0.0935 -0.1,-0.0999 -0.0934,-0.106031 -0.0867,-0.111681 -0.0794,-0.116909 -0.072,-0.12166 -0.0642,-0.12595 -0.0561,-0.129709 -0.0479,-0.133001 -0.0394,-0.135739 -0.0308,-0.137941 -0.0222,-0.139599 -0.0133,-0.14073 -0.004,-0.141271 0.004,-0.141269 0.0133,-0.140732 0.0222,-0.1396 0.0308,-0.13794 0.0394,-0.135739 0.0479,-0.133001 0.0561,-0.129709 0.0642,-0.12595 0.072,-0.121661 0.0794,-0.116908 0.0867,-0.111681 0.0934,-0.106029 0.1,-0.100002 0.106,-0.0935 0.1117,-0.0866 0.1169,-0.0795 0.1217,-0.0719 0.1259,-0.0642 0.1297,-0.0561 0.133,-0.0479 0.1358,-0.0395 0.1379,-0.0308 0.1396,-0.02209 0.1407,-0.01331 0.1413,-0.004 0.1413,0.004 0.1407,0.01331 0.1396,0.02209 0.1379,0.0308 0.1358,0.0395 0.133,0.0479 0.1297,0.0561 0.1259,0.0642 0.1217,0.0719 0.1169,0.0795 0.1117,0.0866 0.106,0.0935 0.1,0.100002 0.0934,0.106029 0.0867,0.111681 0.0794,0.116908 0.072,0.121661 0.0642,0.12595 0.0561,0.129709 0.0479,0.133001 0.0394,0.135739 0.0308,0.13794 0.0222,0.1396 0.0133,0.140732 0.004,0.141269 -0.004,0.141271 -0.0133,0.14073 -0.0222,0.139599 -0.0308,0.137941 -0.0394,0.135739 -0.0479,0.133001 -0.0561,0.129709 -0.0642,0.12595 -0.072,0.12166 -0.0794,0.116909 -0.0867,0.111681 -0.0934,0.106031 -0.1,0.0999 -0.106,0.0935 -0.1117,0.0866 -0.1169,0.0795 -0.1217,0.0719 -0.1259,0.0642 -0.1297,0.0561 -0.133,0.0479 -0.1358,0.0394 -0.1379,0.0308 -0.1396,0.02209 -0.1407,0.01331 -0.1413,0.004 z"
     id="path13810-2-6"
     inkscape:connector-curvature="0" />
  <rect
     style="opacity:1;fill:none;fill-opacity:1;stroke:#000000;stroke-width:0.26458332;stroke-miterlimit:4;stroke-dasharray:none;stroke-opacity:1"
     id="rect13806-3-3"
     width="85.000015"
     height="54.999996"
     x="-7.2114563"
     y="6.5" />
  <path
     style="fill:none;fill-opacity:1;stroke:#000000;stroke-width:0.5"
     d="m 68.471,31.48516 0.469,-0.0443 0.465,-0.0737 0.46,-0.10278 0.453,-0.13144 0.443,-0.15961 0.432,-0.18712 0.42,-0.2139 0.406,-0.23984 0.389,-0.26483 0.37301,-0.28879 0.353,-0.31159 0.333,-0.33316 0.312,-0.35341 0.289,-0.37228 0.264,-0.3897 0.24,-0.40555 0.214,-0.4198 0.187,-0.43241 0.16,-0.4433 0.131,-0.45246 0.103,-0.45982 0.074,-0.46536 0.044,-0.46907 0.015,-0.47092 V 9.87311 l -0.688,-0.3503 -0.922,-0.3992 -0.946,-0.3405 L 71.979,8.50271 70.998,8.283405 70.25,8.164905 v 4.835105 h -4.5 V 8.164905 l -0.748,0.1185 -0.981,0.219305 -0.965,0.2804 -0.946,0.3405 -0.922,0.3992 -0.896,0.4563 -0.865,0.5117 -0.832,0.5649 -0.201,0.1563 3.419,3.41884 -3.182,3.18199 -3.41901,-3.41885 -0.156,0.20146 -0.565,0.83133 -0.512,0.86519 -0.456,0.8956 -0.399,0.92247 -0.341,0.94572 -0.28,0.96523 -0.22,0.98094 -0.118,0.74809 h 4.835 V 26.25 h -4.835 l 0.118,0.74811 0.22,0.98094 0.28,0.96522 0.341,0.94572 0.399,0.92248 0.35,0.68755 H 68 Z"
     id="path408"
     inkscape:connector-curvature="0" />
  <path
     style="fill:none;fill-opacity:1;stroke:#000000;stroke-width:0.5"
     d="m 67.859,26.24552 -0.141,-0.0133 -0.14,-0.0221 -0.138,-0.0308 -0.135,-0.0394 -0.133,-0.0479 -0.13,-0.0561 -0.126,-0.0642 -0.122,-0.072 -0.117,-0.0794 -0.111,-0.0866 -0.106,-0.0935 -0.1,-0.1 L 66.266,25.43419 66.18,25.32251 66.1,25.2056 66.028,25.08394 65.964,24.95799 65.908,24.82828 65.86,24.69528 65.821,24.55954 65.79,24.4216 65.768,24.282 65.754,24.14127 65.75,24 l 0.004,-0.14127 0.014,-0.14073 0.022,-0.1396 0.031,-0.13794 0.039,-0.13574 0.048,-0.133 0.056,-0.12971 0.064,-0.12595 0.072,-0.12166 0.08,-0.11691 0.086,-0.11168 0.094,-0.10603 0.1,-0.1 0.106,-0.0935 0.111,-0.0866 0.117,-0.0794 0.122,-0.072 0.126,-0.0642 0.13,-0.0561 0.133,-0.0479 0.135,-0.0394 0.138,-0.0308 0.14,-0.0221 0.141,-0.0133 0.141,-0.004 0.141,0.004 0.141,0.0133 0.14,0.0221 0.138,0.0308 0.135,0.0394 0.133,0.0479 0.13,0.0561 0.126,0.0642 0.122,0.072 0.117,0.0794 0.111,0.0866 0.106,0.0935 0.1,0.1 0.094,0.10603 0.086,0.11168 0.08,0.11691 0.072,0.12166 0.064,0.12595 0.056,0.12971 0.048,0.133 0.039,0.13574 0.031,0.13794 0.022,0.1396 0.014,0.14073 L 70.25,24 l -0.004,0.14127 -0.014,0.14073 -0.022,0.1396 -0.031,0.13794 -0.039,0.13574 -0.048,0.133 -0.056,0.12971 -0.064,0.12595 -0.072,0.12166 -0.08,0.11691 -0.086,0.11168 -0.094,0.10603 -0.1,0.1 -0.106,0.0935 -0.111,0.0866 -0.117,0.0794 -0.122,0.072 -0.126,0.0642 -0.13,0.0561 -0.133,0.0479 -0.135,0.0394 -0.138,0.0308 -0.14,0.0221 -0.141,0.0133 -0.141,0.004 z"
     id="path406"
     inkscape:connector-curvature="0" />
  <path
     style="fill:none;fill-opacity:1;stroke:#000000;stroke-width:0.5"
     d="m 8.17629,33.44462 0.77911,-0.0984 0.7714,-0.1472 0.7606,-0.1953 0.7468,-0.2426 0.7301,-0.2891 0.7106,-0.3343 0.6881,-0.3783 0.663,-0.4208 0.0756,-0.0549 -3.7429,-3.74288 3.182,-3.18197 3.7429,3.74286 0.0549,-0.0756 0.4208,-0.66302 0.3783,-0.68814 0.3343,-0.71054 0.2891,-0.73011 0.2426,-0.74684 0.1953,-0.7606 0.1472,-0.77135 0.0984,-0.77908 0.0493,-0.78371 v -0.78528 l -0.0493,-0.78371 -0.0984,-0.77908 -0.1472,-0.77135 -0.1953,-0.76061 -0.2426,-0.74684 -0.2891,-0.73012 -0.3343,-0.71054 -0.3783,-0.68814 -0.4208,-0.66301 -0.0549,-0.0756 -3.7429,3.74286 -3.182,-3.18198 3.7429,-3.74288 -0.0756,-0.0549 -0.663,-0.4208 L 12.6749,9.86246 11.9643,9.52816 11.2342,9.23906 10.4874,8.99646 9.7268,8.80116 8.9554,8.65396 8.17629,8.55556 7.39259,8.50626 h -0.7853 l -0.7837,0.0493 -0.779,0.0984 -0.7714,0.1472 -0.7606,0.1953 -0.7468,0.2426 -0.7302,0.2891 -0.7105,0.3343 -0.6881,0.3783 -0.663,0.4208 -0.0756,0.0549 3.7428,3.74288 -3.1819,3.18198 -3.7429,-3.74286 -0.0549,0.0756 -0.4208,0.66301 -0.3783,0.68814 -0.3343,0.71054 -0.2891,0.73012 -0.2427,0.74684 -0.1953,0.76061 -0.1471,0.77135 -0.0984,0.77908 -0.0493,0.78371 v 0.78528 l 0.0493,0.78371 0.0984,0.77908 0.1471,0.77135 0.1953,0.7606 0.2427,0.74684 0.2891,0.73011 0.3343,0.71054 0.3783,0.68814 0.4208,0.66302 0.0549,0.0756 3.7429,-3.74286 3.1819,3.18197 -3.7428,3.74288 0.0756,0.0549 0.663,0.4208 0.6881,0.3783 0.7105,0.3343 0.7302,0.2891 0.7468,0.2426 0.7606,0.1953 0.7714,0.1472 0.779,0.0984 0.7837,0.0493 h 0.7853 z"
     id="path404"
     inkscape:connector-curvature="0" />
  <path
     style="fill:none;fill-opacity:1;stroke:#000000;stroke-width:0.5"
     d="m 6.92929,23.24899 -0.141,-0.009 -0.1403,-0.0177 -0.1388,-0.0265 -0.1369,-0.0352 -0.1345,-0.0437 -0.1314,-0.052 -0.1279,-0.0602 -0.1239,-0.0681 -0.1193,-0.0757 -0.1143,-0.0831 -0.109,-0.0901 -0.103,-0.0967 -0.0967,-0.10304 -0.0901,-0.10892 -0.0831,-0.11435 -0.0758,-0.11934 -0.0681,-0.12387 -0.0602,-0.1279 -0.052,-0.13141 -0.0437,-0.13444 -0.0351,-0.1369 -0.0265,-0.13884 -0.0177,-0.14025 -0.009,-0.14107 v -0.14132 l 0.009,-0.14107 0.0177,-0.14024 0.0265,-0.13884 0.0351,-0.13691 0.0437,-0.13444 0.052,-0.13141 0.0602,-0.1279 0.0681,-0.12387 0.0758,-0.11934 0.0831,-0.11435 0.0901,-0.10892 0.0967,-0.10304 0.103,-0.0967 0.109,-0.0901 0.1143,-0.0831 0.1193,-0.0757 0.1239,-0.0681 0.1279,-0.0602 0.1314,-0.052 0.1345,-0.0437 0.1369,-0.0352 0.1388,-0.0265 0.1403,-0.0177 0.141,-0.009 h 0.1414 l 0.141,0.009 0.1403,0.0177 0.1388,0.0265 0.1369,0.0352 0.1345,0.0437 0.1314,0.052 0.1279,0.0602 0.1238,0.0681 0.1194,0.0757 0.1143,0.0831 0.10891,0.0901 0.1031,0.0967 0.0967,0.10304 0.0901,0.10892 0.0831,0.11435 0.0757,0.11934 0.0681,0.12387 0.0602,0.1279 0.0521,0.13141 0.0436,0.13444 0.0352,0.13691 0.0265,0.13884 0.0177,0.14024 0.009,0.14107 v 0.14132 l -0.009,0.14107 -0.0177,0.14025 -0.0265,0.13884 -0.0352,0.1369 -0.0436,0.13444 -0.0521,0.13141 -0.0602,0.1279 -0.0681,0.12387 -0.0757,0.11934 -0.0831,0.11435 -0.0901,0.10892 -0.0967,0.10304 -0.1031,0.0967 -0.10891,0.0901 -0.1143,0.0831 -0.1194,0.0757 -0.1238,0.0681 -0.1279,0.0602 -0.1314,0.052 -0.1345,0.0437 -0.1369,0.0352 -0.1388,0.0265 -0.1403,0.0177 -0.141,0.009 z"
     id="path402"
     inkscape:connector-curvature="0" />
  <path
     style="fill:none;fill-opacity:1;stroke:#000000;stroke-width:0.5"
     d="m 7.25119,24.992115 0.2501,-0.0237 0.2482,-0.0393 0.2453,-0.0548 0.2413,-0.0701 0.2364,-0.0851 0.2306,-0.0998 0.2239,-0.11407 0.21631,-0.12792 0.2078,-0.14125 0.1986,-0.154 0.1885,-0.16619 0.1777,-0.17769 0.1661,-0.18849 0.0386,-0.0497 H 19.5 v -5 h -9.3794 l -0.0386,-0.0497 -0.1661,-0.18849 -0.1777,-0.17769 -0.1885,-0.16619 -0.1986,-0.154 -0.2078,-0.14126 -0.21631,-0.12792 -0.2239,-0.11407 -0.2306,-0.0998 -0.2364,-0.0851 -0.2413,-0.0701 -0.2453,-0.0548 -0.2482,-0.0393 -0.2501,-0.0237 -0.2512,-0.008 -0.2512,0.008 -0.2501,0.0237 -0.2482,0.0393 -0.2453,0.0548 -0.2413,0.0701 -0.2364,0.0851 -0.2306,0.0998 -0.2239,0.11407 -0.2163,0.12792 -0.2078,0.14126 -0.1986,0.154 -0.1885,0.16619 -0.1777,0.17769 -0.1661,0.18849 -0.0386,0.0497 h -9.3794 v 5 h 9.3794 l 0.0386,0.0497 0.1661,0.18849 0.1777,0.17769 0.1885,0.16619 0.1986,0.154 0.2078,0.14125 0.2163,0.12792 0.2239,0.11407 0.2306,0.0998 0.2364,0.0851 0.2413,0.0701 0.2453,0.0548 0.2482,0.0393 0.2501,0.0237 0.2512,0.008 z"
     id="path366"
     inkscape:connector-curvature="0" />
  <path
     style="fill:none;fill-opacity:1;stroke:#000000;stroke-width:0.5"
     d="m 68.471,59.48516 0.469,-0.0443 0.465,-0.0737 0.46,-0.10278 0.453,-0.13144 0.443,-0.15961 0.432,-0.18712 0.42,-0.2139 0.406,-0.23984 0.389,-0.26483 0.37301,-0.28879 0.353,-0.31159 0.333,-0.33316 0.312,-0.35341 0.289,-0.37228 0.264,-0.3897 0.24,-0.40555 0.214,-0.4198 0.187,-0.43241 0.16,-0.4433 0.131,-0.45246 0.103,-0.45982 0.074,-0.46536 0.044,-0.46907 0.015,-0.47092 V 37.87311 l -0.688,-0.3503 -0.922,-0.3992 -0.946,-0.3405 L 71.979,36.50271 70.998,36.2834 70.25,36.1649 v 4.83511 h -4.5 V 36.1649 l -0.748,0.1185 -0.981,0.21931 -0.965,0.2804 -0.946,0.3405 -0.922,0.3992 -0.896,0.4563 -0.865,0.5117 -0.832,0.5649 -0.201,0.1563 3.419,3.41884 -3.182,3.18199 -3.41901,-3.41885 -0.156,0.20146 -0.565,0.83133 -0.512,0.86519 -0.456,0.8956 -0.399,0.92247 -0.341,0.94572 -0.28,0.96523 -0.22,0.98094 -0.118,0.74809 h 4.835 V 54.25 h -4.835 l 0.118,0.74811 0.22,0.98094 0.28,0.96522 0.341,0.94572 0.399,0.92248 0.35,0.68755 H 68 Z"
     id="path408-6"
     inkscape:connector-curvature="0" />
  <path
     style="fill:none;fill-opacity:1;stroke:#000000;stroke-width:0.5"
     d="m 67.859,54.24552 -0.141,-0.0133 -0.14,-0.0221 -0.138,-0.0308 -0.135,-0.0394 -0.133,-0.0479 -0.13,-0.0561 -0.126,-0.0642 -0.122,-0.072 -0.117,-0.0794 -0.111,-0.0866 -0.106,-0.0935 -0.1,-0.1 L 66.266,53.43419 66.18,53.32251 66.1,53.2056 66.028,53.08394 65.964,52.95799 65.908,52.82828 65.86,52.69528 65.821,52.55954 65.79,52.4216 65.768,52.282 65.754,52.14127 65.75,52 l 0.004,-0.14127 0.014,-0.14073 0.022,-0.1396 0.031,-0.13794 0.039,-0.13574 0.048,-0.133 0.056,-0.12971 0.064,-0.12595 0.072,-0.12166 0.08,-0.11691 0.086,-0.11168 0.094,-0.10603 0.1,-0.1 0.106,-0.0935 0.111,-0.0866 0.117,-0.0794 0.122,-0.072 0.126,-0.0642 0.13,-0.0561 0.133,-0.0479 0.135,-0.0394 0.138,-0.0308 0.14,-0.0221 0.141,-0.0133 0.141,-0.004 0.141,0.004 0.141,0.0133 0.14,0.0221 0.138,0.0308 0.135,0.0394 0.133,0.0479 0.13,0.0561 0.126,0.0642 0.122,0.072 0.117,0.0794 0.111,0.0866 0.106,0.0935 0.1,0.1 0.094,0.10603 0.086,0.11168 0.08,0.11691 0.072,0.12166 0.064,0.12595 0.056,0.12971 0.048,0.133 0.039,0.13574 0.031,0.13794 0.022,0.1396 0.014,0.14073 L 70.25,52 l -0.004,0.14127 -0.014,0.14073 -0.022,0.1396 -0.031,0.13794 -0.039,0.13574 -0.048,0.133 -0.056,0.12971 -0.064,0.12595 -0.072,0.12166 -0.08,0.11691 -0.086,0.11168 -0.094,0.10603 -0.1,0.1 -0.106,0.0935 -0.111,0.0866 -0.117,0.0794 -0.122,0.072 -0.126,0.0642 -0.13,0.0561 -0.133,0.0479 -0.135,0.0394 -0.138,0.0308 -0.14,0.0221 -0.141,0.0133 -0.141,0.004 z"
     id="path406-7"
     inkscape:connector-curvature="0" />
  <path
     style="fill:none;fill-opacity:1;stroke:#000000;stroke-width:0.5"
     d="m 40.471,59.48516 0.469,-0.0443 0.465,-0.0737 0.46,-0.10278 0.453,-0.13144 0.443,-0.15961 0.432,-0.18712 0.42,-0.2139 0.406,-0.23984 0.389,-0.26483 0.37301,-0.28879 0.353,-0.31159 0.333,-0.33316 0.312,-0.35341 0.289,-0.37228 0.264,-0.3897 0.24,-0.40555 0.214,-0.4198 0.187,-0.43241 0.16,-0.4433 0.131,-0.45246 0.103,-0.45982 0.074,-0.46536 0.044,-0.46907 0.015,-0.47092 V 37.87311 l -0.688,-0.3503 -0.922,-0.3992 -0.946,-0.3405 L 43.979,36.50271 42.998,36.2834 42.25,36.1649 v 4.83511 h -4.5 V 36.1649 l -0.748,0.1185 -0.981,0.21931 -0.965,0.2804 -0.946,0.3405 -0.922,0.3992 -0.896,0.4563 -0.865,0.5117 -0.832,0.5649 -0.201,0.1563 3.419,3.41884 -3.182,3.18199 -3.41901,-3.41885 -0.156,0.20146 -0.565,0.83133 -0.512,0.86519 -0.456,0.8956 -0.399,0.92247 -0.341,0.94572 -0.28,0.96523 -0.22,0.98094 -0.118,0.74809 h 4.835 V 54.25 h -4.835 l 0.118,0.74811 0.22,0.98094 0.28,0.96522 0.341,0.94572 0.399,0.92248 0.35,0.68755 H 40 Z"
     id="path408-5"
     inkscape:connector-curvature="0" />
  <path
     style="fill:none;fill-opacity:1;stroke:#000000;stroke-width:0.5"
     d="m 39.859,54.24552 -0.141,-0.0133 -0.14,-0.0221 -0.138,-0.0308 -0.135,-0.0394 -0.133,-0.0479 -0.13,-0.0561 -0.126,-0.0642 -0.122,-0.072 -0.117,-0.0794 -0.111,-0.0866 -0.106,-0.0935 -0.1,-0.1 L 38.266,53.43419 38.18,53.32251 38.1,53.2056 38.028,53.08394 37.964,52.95799 37.908,52.82828 37.86,52.69528 37.821,52.55954 37.79,52.4216 37.768,52.282 37.754,52.14127 37.75,52 l 0.004,-0.14127 0.014,-0.14073 0.022,-0.1396 0.031,-0.13794 0.039,-0.13574 0.048,-0.133 0.056,-0.12971 0.064,-0.12595 0.072,-0.12166 0.08,-0.11691 0.086,-0.11168 0.094,-0.10603 0.1,-0.1 0.106,-0.0935 0.111,-0.0866 0.117,-0.0794 0.122,-0.072 0.126,-0.0642 0.13,-0.0561 0.133,-0.0479 0.135,-0.0394 0.138,-0.0308 0.14,-0.0221 0.141,-0.0133 0.141,-0.004 0.141,0.004 0.141,0.0133 0.14,0.0221 0.138,0.0308 0.135,0.0394 0.133,0.0479 0.13,0.0561 0.126,0.0642 0.122,0.072 0.117,0.0794 0.111,0.0866 0.106,0.0935 0.1,0.1 0.094,0.10603 0.086,0.11168 0.08,0.11691 0.072,0.12166 0.064,0.12595 0.056,0.12971 0.048,0.133 0.039,0.13574 0.031,0.13794 0.022,0.1396 0.014,0.14073 L 42.25,52 l -0.004,0.14127 -0.014,0.14073 -0.022,0.1396 -0.031,0.13794 -0.039,0.13574 -0.048,0.133 -0.056,0.12971 -0.064,0.12595 -0.072,0.12166 -0.08,0.11691 -0.086,0.11168 -0.094,0.10603 -0.1,0.1 -0.106,0.0935 -0.111,0.0866 -0.117,0.0794 -0.122,0.072 -0.126,0.0642 -0.13,0.0561 -0.133,0.0479 -0.135,0.0394 -0.138,0.0308 -0.14,0.0221 -0.141,0.0133 -0.141,0.004 z"
     id="path406-3"
     inkscape:connector-curvature="0" />
  <path
     style="fill:none;fill-opacity:1;stroke:#000000;stroke-width:0.5"
     d="m 40.471,31.48516 0.469,-0.0443 0.465,-0.0737 0.46,-0.10278 0.453,-0.13144 0.443,-0.15961 0.432,-0.18712 0.42,-0.2139 0.406,-0.23984 0.389,-0.26483 0.37301,-0.28879 0.353,-0.31159 0.333,-0.33316 0.312,-0.35341 0.289,-0.37228 0.264,-0.3897 0.24,-0.40555 0.214,-0.4198 0.187,-0.43241 0.16,-0.4433 0.131,-0.45246 0.103,-0.45982 0.074,-0.46536 0.044,-0.46907 0.015,-0.47092 V 9.873108 l -0.688,-0.3503 -0.922,-0.3992 -0.946,-0.3405 -0.96501,-0.2804 -0.981,-0.219305 -0.748,-0.1185 v 4.835107 h -4.5 V 8.164903 l -0.748,0.1185 -0.981,0.219305 -0.965,0.2804 -0.946,0.3405 -0.922,0.3992 -0.896,0.4563 -0.865,0.5117 -0.832,0.564902 -0.201,0.1563 3.419,3.41884 -3.182,3.18199 -3.41901,-3.41885 -0.156,0.20146 -0.565,0.83133 -0.512,0.86519 -0.456,0.8956 -0.399,0.92247 -0.341,0.94572 -0.28,0.96523 -0.22,0.98094 -0.118,0.74809 h 4.835 V 26.25 h -4.835 l 0.118,0.74811 0.22,0.98094 0.28,0.96522 0.341,0.94572 0.399,0.92248 0.35,0.68755 H 40 Z"
     id="path408-56"
     inkscape:connector-curvature="0" />
  <path
     style="fill:none;fill-opacity:1;stroke:#000000;stroke-width:0.5"
     d="m 39.859,26.24552 -0.141,-0.0133 -0.14,-0.0221 -0.138,-0.0308 -0.135,-0.0394 -0.133,-0.0479 -0.13,-0.0561 -0.126,-0.0642 -0.122,-0.072 -0.117,-0.0794 -0.111,-0.0866 -0.106,-0.0935 -0.1,-0.1 L 38.266,25.43419 38.18,25.32251 38.1,25.2056 38.028,25.08394 37.964,24.95799 37.908,24.82828 37.86,24.69528 37.821,24.55954 37.79,24.4216 37.768,24.282 37.754,24.14127 37.75,24 l 0.004,-0.14127 0.014,-0.14073 0.022,-0.1396 0.031,-0.13794 0.039,-0.13574 0.048,-0.133 0.056,-0.12971 0.064,-0.12595 0.072,-0.12166 0.08,-0.11691 0.086,-0.11168 0.094,-0.10603 0.1,-0.1 0.106,-0.0935 0.111,-0.0866 0.117,-0.0794 0.122,-0.072 0.126,-0.0642 0.13,-0.0561 0.133,-0.0479 0.135,-0.0394 0.138,-0.0308 0.14,-0.0221 0.141,-0.0133 0.141,-0.004 0.141,0.004 0.141,0.0133 0.14,0.0221 0.138,0.0308 0.135,0.0394 0.133,0.0479 0.13,0.0561 0.126,0.0642 0.122,0.072 0.117,0.0794 0.111,0.0866 0.106,0.0935 0.1,0.1 0.094,0.10603 0.086,0.11168 0.08,0.11691 0.072,0.12166 0.064,0.12595 0.056,0.12971 0.048,0.133 0.039,0.13574 0.031,0.13794 0.022,0.1396 0.014,0.14073 L 42.25,24 l -0.004,0.14127 -0.014,0.14073 -0.022,0.1396 -0.031,0.13794 -0.039,0.13574 -0.048,0.133 -0.056,0.12971 -0.064,0.12595 -0.072,0.12166 -0.08,0.11691 -0.086,0.11168 -0.094,0.10603 -0.1,0.1 -0.106,0.0935 -0.111,0.0866 -0.117,0.0794 -0.122,0.072 -0.126,0.0642 -0.13,0.0561 -0.133,0.0479 -0.135,0.0394 -0.138,0.0308 -0.14,0.0221 -0.141,0.0133 -0.141,0.004 z"
     id="path406-2"
     inkscape:connector-curvature="0" />
  <path
     style="fill:none;fill-opacity:1;stroke:#000000;stroke-width:0.5"
     d="m 8.1763,60.44462 0.77911,-0.0984 0.7714,-0.1472 0.7606,-0.1953 0.7468,-0.2426 0.7301,-0.2891 0.7106,-0.3343 0.6881,-0.3783 0.663,-0.4208 0.0756,-0.0549 -3.7429,-3.74288 3.182,-3.18197 3.7429,3.74286 0.0549,-0.0756 0.4208,-0.66302 0.3783,-0.68814 0.3343,-0.71054 0.2891,-0.73011 0.2426,-0.74684 0.1953,-0.7606 0.1472,-0.77135 0.0984,-0.77908 0.0493,-0.78371 v -0.78528 l -0.0493,-0.78371 -0.0984,-0.77908 -0.1472,-0.77135 -0.1953,-0.76061 -0.2426,-0.74684 -0.2891,-0.73012 -0.3343,-0.71054 -0.3783,-0.68814 -0.4208,-0.66301 -0.0549,-0.0756 -3.7429,3.74286 -3.182,-3.18198 3.7429,-3.74288 -0.0756,-0.0549 -0.663,-0.4208 -0.6881,-0.3783 -0.7106,-0.3343 -0.7301,-0.2891 -0.7468,-0.2426 -0.7606,-0.1953 -0.7714,-0.1472 -0.77911,-0.0984 -0.7837,-0.0493 H 6.6073 l -0.7837,0.0493 -0.779,0.0984 -0.7714,0.1472 -0.7606,0.1953 -0.7468,0.2426 -0.7302,0.2891 -0.7105,0.3343 -0.6881,0.3783 -0.663,0.4208 -0.0756,0.0549 3.7428,3.74288 -3.1819,3.18198 -3.7429,-3.74286 -0.0549,0.0756 -0.4208,0.66301 -0.3783,0.68814 -0.3343,0.71054 -0.2891,0.73012 -0.2427,0.74684 -0.1953,0.76061 -0.1471,0.77135 -0.0984,0.77908 -0.0493,0.78371 v 0.78528 l 0.0493,0.78371 0.0984,0.77908 0.1471,0.77135 0.1953,0.7606 0.2427,0.74684 0.2891,0.73011 0.3343,0.71054 0.3783,0.68814 0.4208,0.66302 0.0549,0.0756 3.7429,-3.74286 3.1819,3.18197 -3.7428,3.74288 0.0756,0.0549 0.663,0.4208 0.6881,0.3783 0.7105,0.3343 0.7302,0.2891 0.7468,0.2426 0.7606,0.1953 0.7714,0.1472 0.779,0.0984 0.7837,0.0493 h 0.7853 z"
     id="path404-2"
     inkscape:connector-curvature="0" />
  <path
     style="fill:none;fill-opacity:1;stroke:#000000;stroke-width:0.5"
     d="M 6.9293,50.24899 6.7883,50.23999 6.648,50.22229 6.5092,50.19579 6.3723,50.16059 6.2378,50.11689 6.1064,50.06489 5.9785,50.00469 5.8546,49.93659 5.7353,49.86089 5.621,49.77779 5.512,49.68769 5.409,49.59099 5.3123,49.48795 5.2222,49.37903 5.1391,49.26468 5.0633,49.14534 4.9952,49.02147 4.935,48.89357 4.883,48.76216 4.8393,48.62772 4.8042,48.49082 4.7777,48.35198 4.76,48.21173 4.751,48.07066 v -0.14132 l 0.009,-0.14107 0.0177,-0.14024 0.0265,-0.13884 0.0351,-0.13691 0.0437,-0.13444 0.052,-0.13141 0.0602,-0.1279 0.0681,-0.12387 0.0758,-0.11934 0.0831,-0.11435 0.0901,-0.10892 0.0967,-0.10304 0.103,-0.0967 0.109,-0.0901 0.1143,-0.0831 0.1193,-0.0757 0.1239,-0.0681 0.1279,-0.0602 0.1314,-0.052 0.1345,-0.0437 0.1369,-0.0352 0.1388,-0.0265 0.1403,-0.0177 0.141,-0.009 h 0.1414 l 0.141,0.009 0.1403,0.0177 0.1388,0.0265 0.1369,0.0352 0.1345,0.0437 0.1314,0.052 0.1279,0.0602 0.1238,0.0681 0.1194,0.0757 0.1143,0.0831 0.10891,0.0901 0.1031,0.0967 0.0967,0.10304 0.0901,0.10892 0.0831,0.11435 0.0757,0.11934 0.0681,0.12387 0.0602,0.1279 0.0521,0.13141 0.0436,0.13444 0.0352,0.13691 0.0265,0.13884 0.0177,0.14024 0.009,0.14107 v 0.14132 l -0.009,0.14107 -0.0177,0.14025 -0.0265,0.13884 -0.0352,0.1369 -0.0436,0.13444 -0.0521,0.13141 -0.0602,0.1279 -0.0681,0.12387 -0.0757,0.11934 -0.0831,0.11435 -0.0901,0.10892 -0.0967,0.10304 -0.1031,0.0967 -0.10891,0.0901 -0.1143,0.0831 -0.1194,0.0757 -0.1238,0.0681 -0.1279,0.0602 -0.1314,0.052 -0.1345,0.0437 -0.1369,0.0352 -0.1388,0.0265 -0.1403,0.0177 -0.141,0.009 z"
     id="path402-7"
     inkscape:connector-curvature="0" />
  <path
     style="fill:none;fill-opacity:1;stroke:#000000;stroke-width:0.5"
     d="m 7.2512,51.99212 0.2501,-0.0237 0.2482,-0.0393 0.2453,-0.0548 0.2413,-0.0701 0.2364,-0.0851 0.2306,-0.0998 0.2239,-0.11407 0.21631,-0.12792 0.2078,-0.14125 0.1986,-0.154 0.1885,-0.16619 0.1777,-0.17769 0.1661,-0.18849 0.0386,-0.0497 h 9.3794 v -5 h -9.3794 l -0.0386,-0.0497 -0.1661,-0.18849 -0.1777,-0.17769 -0.1885,-0.16619 -0.1986,-0.154 L 9.14331,44.62268 8.927,44.49476 8.7031,44.38069 8.4725,44.28089 8.2361,44.19579 7.9948,44.12569 7.7495,44.07089 7.5013,44.03159 7.2512,44.00789 7,43.99989 l -0.2512,0.008 -0.2501,0.0237 -0.2482,0.0393 -0.2453,0.0548 -0.2413,0.0701 -0.2364,0.0851 -0.2306,0.0998 -0.2239,0.11407 -0.2163,0.12792 -0.2078,0.14126 -0.1986,0.154 -0.1885,0.16619 -0.1777,0.17769 -0.1661,0.18849 -0.0386,0.0497 H -5.5 v 5 h 9.3794 l 0.0386,0.0497 0.1661,0.18849 0.1777,0.17769 0.1885,0.16619 0.1986,0.154 0.2078,0.14125 0.2163,0.12792 0.2239,0.11407 0.2306,0.0998 0.2364,0.0851 0.2413,0.0701 0.2453,0.0548 0.2482,0.0393 0.2501,0.0237 0.2512,0.008 z"
     id="path366-0"
     inkscape:connector-curvature="0" />
</svg>
