<?xml version="1.0" encoding="UTF-8" standalone="no"?>
<svg
   xmlns:dc="http://purl.org/dc/elements/1.1/"
   xmlns:cc="http://creativecommons.org/ns#"
   xmlns:rdf="http://www.w3.org/1999/02/22-rdf-syntax-ns#"
   xmlns:svg="http://www.w3.org/2000/svg"
   xmlns="http://www.w3.org/2000/svg"
   xmlns:sodipodi="http://sodipodi.sourceforge.net/DTD/sodipodi-0.dtd"
   xmlns:inkscape="http://www.inkscape.org/namespaces/inkscape"
   width="297mm"
   height="210mm"
   viewBox="-10 -16 296.99999 210"
   version="1.1"
   id="svg11023"
   sodipodi:docname="middle-cut.svg"
   inkscape:version="0.92.3 (2405546, 2018-03-11)">
  <metadata
     id="metadata11029">
    <rdf:RDF>
      <cc:Work
         rdf:about="">
        <dc:format>image/svg+xml</dc:format>
        <dc:type
           rdf:resource="http://purl.org/dc/dcmitype/StillImage" />
        <dc:title>OpenSCAD Model</dc:title>
      </cc:Work>
    </rdf:RDF>
  </metadata>
  <defs
     id="defs11027" />
  <sodipodi:namedview
     pagecolor="#ffffff"
     bordercolor="#666666"
     borderopacity="1"
     objecttolerance="10"
     gridtolerance="10"
     guidetolerance="10"
     inkscape:pageopacity="0"
     inkscape:pageshadow="2"
     inkscape:window-width="1366"
     inkscape:window-height="713"
     id="namedview11025"
     showgrid="true"
     inkscape:measure-start="45.1754,377.667"
     inkscape:measure-end="221.058,377.064"
     units="mm"
     inkscape:document-units="mm"
     inkscape:zoom="1.6601943"
     inkscape:cx="189.30964"
     inkscape:cy="679.02436"
     inkscape:window-x="0"
     inkscape:window-y="27"
     inkscape:window-maximized="1"
     inkscape:current-layer="svg11023"
     inkscape:snap-bbox="true"
     inkscape:snap-bbox-midpoints="false"
     inkscape:object-nodes="true"
     inkscape:snap-nodes="true"
     scale-x="1"
     inkscape:snap-global="true"
     inkscape:bbox-paths="true"
     inkscape:snap-others="true"
     inkscape:object-paths="true"
     inkscape:snap-intersection-paths="true"
     inkscape:snap-smooth-nodes="true"
     inkscape:snap-midpoints="true"
     inkscape:bbox-nodes="true">
    <inkscape:grid
       type="xygrid"
       id="grid13804" />
  </sodipodi:namedview>
  <title
     id="title11019">OpenSCAD Model</title>
  <rect
     style="opacity:1;fill:none;fill-opacity:1;stroke:#000000;stroke-width:0.26458332;stroke-miterlimit:4;stroke-dasharray:none;stroke-opacity:1"
     id="rect13806-3-35"
     width="85.000015"
     height="54.999996"
     x="-3.3362336"
     y="-13.905798" />
  <path
     inkscape:connector-curvature="0"
     style="fill:none;stroke:#000000;stroke-width:0.5"
     d="m -2.3150094,21.735768 0.1752,0.60299 0.2128,0.591 0.2495,0.577009 0.2852,0.560001 0.3198,0.539999 0.35309997,0.520001 0.38510001,0.495999 0.41539,0.471 0.44421,0.445 0.4713,0.414991 0.49640002,0.385009 0.5195,0.352991 0.54076,0.32 0.55976,0.28501 0.57654,0.249999 0.59108,0.213 0.60327,0.175001 0.61308,0.136999 0.62048,0.098 0.62543,0.059 0.6279,0.02 H 17.370791 l 0.6279,-0.02 0.62543,-0.059 0.62048,-0.098 0.61308,-0.136999 0.60327,-0.175001 0.59108,-0.213 0.57654,-0.249999 0.55976,-0.28501 0.54076,-0.32 0.5195,-0.352991 0.4964,-0.385009 0.4713,-0.414991 0.4442,-0.445 0.4154,-0.471 0.3851,-0.495999 0.3531,-0.520001 0.3198,-0.539999 0.2852,-0.560001 0.2495,-0.577009 0.2128,-0.591 0.1752,-0.60299 0.053,-0.237001 h -4.7388 v -4.499999 h 4.7388 l -0.053,-0.237 -0.1752,-0.60301 -0.2128,-0.590991 -0.2495,-0.577009 -0.2852,-0.559991 -0.3198,-0.540009 -0.3531,-0.519991 -0.3851,-0.49601 -0.4154,-0.470989 -0.4442,-0.445 -0.4713,-0.41501 -0.4964,-0.385 -0.5195,-0.35299 -0.54076,-0.320011 -0.55976,-0.284989 -0.57654,-0.25 -0.59108,-0.2129998 -0.60327,-0.175 -0.61308,-0.13701 -0.62048,-0.098 -0.62543,-0.059 -0.6279,-0.02 H 7.3707906 l -0.6279,0.02 -0.62543,0.059 -0.62048,0.098 -0.61308,0.13701 -0.60327,0.175 -0.59108,0.2129998 -0.57654,0.25 -0.55976,0.284989 -0.54076,0.320011 -0.5195,0.35299 -0.49640002,0.385 -0.4713,0.41501 -0.44421,0.445 -0.41539,0.470989 -0.38510001,0.49601 -0.35309997,0.519991 -0.3198,0.540009 -0.2852,0.559991 -0.2495,0.577009 -0.2128,0.590991 -0.1752,0.60301 -0.053,0.237 h 4.7388 v 4.499999 h -4.7388 z"
     id="path128-3-6-3" />
  <path
     inkscape:connector-curvature="0"
     style="fill:none;stroke:#000000;stroke-width:0.5"
     d="m 9.3767106,19.060767 0.0178,-0.188 0.0295,-0.185999 0.0411,-0.184 0.0526,-0.181001 0.0638,-0.177009 0.0748,-0.17299 0.0856,-0.168 0.0959,-0.162001 0.10592,-0.155999 0.1155104,-0.149 0.12464,-0.14201 0.13327,-0.13299 0.14137,-0.12501 0.14891,-0.114991 0.15588,-0.106 0.16222,-0.096 0.16792,-0.085 0.17296,-0.075 0.17733,-0.064 0.18098,-0.053 0.18393,-0.041 0.18614,-0.029 0.18762,-0.01799 0.18837,-0.006 0.18837,0.006 0.18763,0.01799 0.18614,0.029 0.18393,0.041 0.18098,0.053 0.17732,0.064 0.17296,0.075 0.16792,0.085 0.16222,0.096 0.15588,0.106 0.14891,0.114991 0.14137,0.12501 0.13327,0.13299 0.12464,0.14201 0.11551,0.149 0.10592,0.155999 0.0959,0.162001 0.0856,0.168 0.0748,0.17299 0.0638,0.177009 0.0526,0.181001 0.0411,0.184 0.0295,0.185999 0.0177,0.188 0.006,0.187991 -0.006,0.188 -0.0177,0.18801 -0.0295,0.186 -0.0411,0.183999 -0.0526,0.180991 -0.0638,0.177009 -0.0748,0.173 -0.0856,0.168 -0.0959,0.161991 -0.10592,0.156009 -0.11551,0.149 -0.12464,0.141992 -0.13327,0.133008 -0.14137,0.125 -0.14891,0.115001 -0.15588,0.106 -0.16222,0.096 -0.16792,0.085 -0.17296,0.075 -0.17732,0.064 -0.18098,0.053 -0.18393,0.041 -0.18614,0.029 -0.18763,0.01799 -0.18837,0.006 -0.18837,-0.006 -0.18762,-0.01799 -0.18614,-0.029 -0.18393,-0.041 -0.18098,-0.053 -0.17733,-0.064 -0.17296,-0.075 -0.16792,-0.085 -0.16222,-0.096 -0.15588,-0.106 -0.14891,-0.115001 -0.14137,-0.125 -0.13327,-0.133008 -0.12464,-0.141992 -0.1155104,-0.149 -0.10592,-0.156009 -0.0959,-0.161991 -0.0856,-0.168 -0.0748,-0.173 -0.0638,-0.177009 -0.0526,-0.180991 -0.0411,-0.183999 -0.0295,-0.186 -0.0178,-0.18801 -0.006,-0.188 z"
     id="path126-6-2-6" />
  <path
     inkscape:connector-curvature="0"
     style="fill:none;stroke:#000000;stroke-width:0.5"
     d="m -2.1861394,-1.0128898 0.1752,0.60300001 0.2128,0.591001 0.2495,0.57699 0.2852,0.56000999 0.31979997,0.539989 0.3531,0.52001 0.38510001,0.49599 0.4154,0.47101 0.4442,0.445001 0.47130002,0.414989 0.4964,0.385 0.5195,0.35301 0.54076,0.32 0.55976,0.285001 0.57654,0.24999 0.59108,0.213 0.60327,0.17501 0.61308,0.13699 0.62048,0.098 0.62543,0.059 0.6279,0.02 H 17.499661 l 0.6279,-0.02 0.62543,-0.059 0.62048,-0.098 0.61308,-0.13699 0.60327,-0.17501 0.59108,-0.213 0.57654,-0.24999 0.55976,-0.285001 0.54076,-0.32 0.5195,-0.35301 0.4964,-0.385 0.4713,-0.414989 0.4442,-0.445001 0.4154,-0.47101 0.3851,-0.49599 0.3531,-0.52001 0.3198,-0.539989 0.2852,-0.56000999 0.2495,-0.57699 0.2128,-0.591001 0.1752,-0.60300001 0.053,-0.23701 h -4.7388 v -4.49999 h 4.7388 l -0.053,-0.237 -0.1752,-0.60301 -0.2128,-0.591 -0.2495,-0.57699 -0.2852,-0.5600097 -0.3198,-0.5399897 -0.3531,-0.5200103 -0.3851,-0.49599 -0.4154,-0.4709995 -0.4442,-0.445 -0.4713,-0.41501 -0.4964,-0.38499 -0.5195,-0.35301 -0.54076,-0.32 -0.55976,-0.28499 -0.57654,-0.25 -0.59108,-0.213 -0.60327,-0.175 -0.61308,-0.137 -0.62048,-0.098 -0.62543,-0.059 -0.6279,-0.02 H 7.4996606 l -0.6279,0.02 -0.62543,0.059 -0.62048,0.098 -0.61308,0.137 -0.60327,0.175 -0.59108,0.213 -0.57654,0.25 -0.55976,0.28499 -0.54076,0.32 -0.5195,0.35301 -0.4964,0.38499 -0.47130002,0.41501 -0.4442,0.445 -0.4154,0.4709995 -0.38510001,0.49599 -0.3531,0.5200103 -0.31979997,0.5399897 -0.2852,0.5600097 -0.2495,0.57699 -0.2128,0.591 -0.1752,0.60301 -0.053,0.237 h 4.7388 v 4.49999 h -4.73881 z"
     id="path124-7-9-06" />
  <path
     inkscape:connector-curvature="0"
     style="fill:none;stroke:#000000;stroke-width:0.5"
     d="m 10.254101,-3.6408988 0.0133,-0.140991 0.0221,-0.14001 0.0308,-0.13799 0.0394,-0.13501 0.0479,-0.13299 0.0561,-0.13 0.0642,-0.126 0.0719,-0.12201 0.0795,-0.11699 0.0866,-0.111009 0.0935,-0.106 0.0999,-0.100001 0.10603,-0.094 0.11168,-0.086 0.11691,-0.08 0.12166,-0.072 0.12595,-0.064 0.12972,-0.056 0.13299,-0.048 0.13574,-0.039 0.13794,-0.031 0.1396,-0.022 0.14074,-0.014 0.14126,-0.004 0.14127,0.004 0.14073,0.014 0.1396,0.022 0.13794,0.031 0.13575,0.039 0.13299,0.048 0.12972,0.056 0.12594,0.064 0.12166,0.072 0.11691,0.08 0.11168,0.086 0.10603,0.094 0.1,0.100001 0.0935,0.106 0.0866,0.111009 0.0795,0.11699 0.0719,0.12201 0.0642,0.126 0.0561,0.13 0.0479,0.13299 0.0395,0.13501 0.0308,0.13799 0.0221,0.14001 0.0133,0.140991 0.004,0.140999 -0.004,0.14101 -0.0133,0.14099 -0.0221,0.140011 -0.0308,0.137999 -0.0395,0.135001 -0.0479,0.132989 -0.0561,0.130001 -0.0642,0.125999 -0.0719,0.12201 -0.0795,0.117 -0.0866,0.111 -0.0935,0.106 -0.1,0.1 -0.10603,0.094 -0.11168,0.086 -0.11691,0.08 -0.12166,0.072 -0.12594,0.064 -0.12972,0.056 -0.13299,0.048 -0.13575,0.039 -0.13794,0.031 -0.1396,0.022 -0.14073,0.014 -0.14127,0.004 -0.14126,-0.004 -0.14074,-0.014 -0.1396,-0.022 -0.13794,-0.031 -0.13574,-0.039 -0.13299,-0.048 -0.12972,-0.056 -0.12595,-0.064 -0.12166,-0.072 -0.11691,-0.08 -0.11168,-0.086 -0.10603,-0.094 -0.0999,-0.1 -0.0935,-0.106 -0.0866,-0.111 -0.0795,-0.117 -0.0719,-0.12201 -0.0642,-0.125999 -0.0561,-0.130001 -0.0479,-0.132989 -0.0394,-0.135001 -0.0308,-0.137999 -0.0221,-0.140011 -0.0133,-0.14099 -0.004,-0.14101 z"
     id="path122-5-1-2" />
  <path
     inkscape:connector-curvature="0"
     style="fill:none;stroke:#000000;stroke-width:0.5"
     d="m 31.02325,21.638732 0.1752,0.602991 0.2128,0.591 0.2495,0.577008 0.2852,0.560002 0.3198,0.539998 0.3531,0.520002 0.3851,0.495998 0.41539,0.471001 0.44421,0.445 0.4713,0.414991 0.4964,0.385009 0.5195,0.352991 0.54076,0.32 0.55976,0.285009 0.57654,0.25 0.59108,0.213 0.60327,0.175001 0.61308,0.136998 0.62048,0.098 0.62543,0.059 0.6279,0.02 h 10.000001 l 0.6279,-0.02 0.62543,-0.059 0.62048,-0.098 0.61308,-0.136998 0.60327,-0.175001 0.59108,-0.213 0.57654,-0.25 0.55976,-0.285009 0.54076,-0.32 0.5195,-0.352991 0.4964,-0.385009 0.4713,-0.414991 0.444201,-0.445 0.415398,-0.471001 0.385101,-0.495998 0.3531,-0.520002 0.319799,-0.539998 0.2852,-0.560002 0.249502,-0.577008 0.212799,-0.591 0.175199,-0.602991 0.053,-0.237 h -4.738801 v -4.499999 h 4.738801 l -0.053,-0.237001 -0.175199,-0.603009 -0.212799,-0.590992 -0.249502,-0.577008 -0.2852,-0.559991 -0.319799,-0.540009 -0.3531,-0.519991 -0.385101,-0.496012 -0.415398,-0.470988 -0.444201,-0.445 -0.4713,-0.41501 -0.4964,-0.385 -0.5195,-0.35299 -0.54076,-0.320011 -0.55976,-0.284989 -0.57654,-0.25 -0.59108,-0.212999 -0.60327,-0.175001 -0.61308,-0.13701 -0.62048,-0.098 -0.62543,-0.059 -0.6279,-0.02 H 40.70905 l -0.6279,0.02 -0.62543,0.059 -0.62048,0.098 -0.61308,0.13701 -0.60327,0.175001 -0.59108,0.212999 -0.57654,0.25 -0.55976,0.284989 -0.54076,0.320011 -0.5195,0.35299 -0.4964,0.385 -0.4713,0.41501 -0.44421,0.445 -0.41539,0.470988 -0.3851,0.496012 -0.3531,0.519991 -0.3198,0.540009 -0.2852,0.559991 -0.2495,0.577008 -0.2128,0.590992 -0.1752,0.603009 -0.053,0.237001 h 4.7388 v 4.499999 h -4.7388 z"
     id="path128-3-6-3-1" />
  <path
     inkscape:connector-curvature="0"
     style="fill:none;stroke:#000000;stroke-width:0.5"
     d="m 42.71497,18.963731 0.0178,-0.187999 0.0295,-0.186 0.0411,-0.183999 0.0526,-0.181001 0.0638,-0.177009 0.0748,-0.17299 0.0856,-0.168 0.0959,-0.162002 0.10592,-0.155998 0.115509,-0.149 0.124641,-0.14201 0.133269,-0.13299 0.141371,-0.12501 0.14891,-0.114991 0.15588,-0.106 0.16222,-0.096 0.16792,-0.085 0.17296,-0.075 0.17733,-0.064 0.18098,-0.053 0.18393,-0.041 0.18614,-0.029 0.18762,-0.01799 0.18837,-0.006 0.18837,0.006 0.18763,0.01799 0.18614,0.029 0.18393,0.041 0.18098,0.053 0.17732,0.064 0.17296,0.075 0.16792,0.085 0.16222,0.096 0.15588,0.106 0.14891,0.114991 0.14137,0.12501 0.13327,0.13299 0.12464,0.14201 0.11551,0.149 0.10592,0.155998 0.0959,0.162002 0.0856,0.168 0.0748,0.17299 0.0638,0.177009 0.0526,0.181001 0.0411,0.183999 0.0295,0.186 0.0177,0.187999 0.006,0.187992 -0.006,0.188 -0.0177,0.18801 -0.0295,0.186 -0.0411,0.183999 -0.0526,0.180991 -0.0638,0.177008 -0.0748,0.173001 -0.0856,0.168 -0.0959,0.161991 -0.10592,0.156009 -0.11551,0.149 -0.12464,0.141991 -0.13327,0.133009 -0.14137,0.125 -0.14891,0.115001 -0.15588,0.106 -0.16222,0.096 -0.16792,0.085 -0.17296,0.075 -0.17732,0.064 -0.18098,0.053 -0.18393,0.041 -0.18614,0.029 -0.18763,0.01799 -0.18837,0.006 -0.18837,-0.006 -0.18762,-0.01799 -0.18614,-0.029 -0.18393,-0.041 -0.18098,-0.053 -0.17733,-0.064 -0.17296,-0.075 -0.16792,-0.085 -0.16222,-0.096 -0.15588,-0.106 -0.14891,-0.115001 -0.141371,-0.125 -0.133269,-0.133009 -0.124641,-0.141991 -0.115509,-0.149 -0.10592,-0.156009 -0.0959,-0.161991 -0.0856,-0.168 -0.0748,-0.173001 -0.0638,-0.177008 -0.0526,-0.180991 -0.0411,-0.183999 -0.0295,-0.186 -0.0178,-0.18801 -0.006,-0.188 z"
     id="path126-6-2-6-8" />
  <path
     inkscape:connector-curvature="0"
     style="fill:none;stroke:#000000;stroke-width:0.5"
     d="m 31.15212,-1.109926 0.1752,0.603 0.2128,0.591001 0.2495,0.57699 0.2852,0.560011 0.3198,0.539988 0.3531,0.52001 0.3851,0.49599 0.4154,0.47101 0.4442,0.445001 0.4713,0.414989 0.4964,0.385 0.5195,0.35301 0.54076,0.32 0.55976,0.285001 0.57654,0.24999 0.59108,0.213 0.60327,0.17501 0.61308,0.13699 0.62048,0.098 0.62543,0.059 0.6279,0.02 h 10.000001 l 0.6279,-0.02 0.62543,-0.059 0.62048,-0.098 0.61308,-0.13699 0.60327,-0.17501 0.59108,-0.213 0.57654,-0.24999 0.55976,-0.285001 0.54076,-0.32 0.5195,-0.35301 0.496401,-0.385 0.471299,-0.414989 0.444199,-0.445001 0.415401,-0.47101 0.385101,-0.49599 0.3531,-0.52001 0.319799,-0.539988 0.2852,-0.560011 0.249499,-0.57699 0.212802,-0.591001 0.175199,-0.603 0.053,-0.23701 h -4.738799 v -4.49999 h 4.738799 l -0.053,-0.237 -0.175199,-0.60301 -0.212802,-0.591 -0.249499,-0.57699 -0.2852,-0.56001 -0.319799,-0.539989 -0.3531,-0.52001 -0.385101,-0.49599 -0.415401,-0.471 -0.444199,-0.445 -0.471299,-0.41501 -0.496401,-0.38499 -0.5195,-0.35301 -0.54076,-0.32 -0.55976,-0.28499 -0.57654,-0.25 -0.59108,-0.213 -0.60327,-0.175 -0.61308,-0.137 -0.62048,-0.098 -0.62543,-0.059 -0.6279,-0.02 H 40.83792 l -0.6279,0.02 -0.62543,0.059 -0.62048,0.098 -0.61308,0.137 -0.60327,0.175 -0.59108,0.213 -0.57654,0.25 -0.55976,0.28499 -0.54076,0.32 -0.5195,0.35301 -0.4964,0.38499 -0.4713,0.41501 -0.4442,0.445 -0.4154,0.471 -0.3851,0.49599 -0.3531,0.52001 -0.3198,0.539989 -0.2852,0.56001 -0.2495,0.57699 -0.2128,0.591 -0.1752,0.60301 -0.053,0.237 h 4.7388 v 4.49999 h -4.73881 z"
     id="path124-7-9-06-7" />
  <path
     inkscape:connector-curvature="0"
     style="fill:none;stroke:#000000;stroke-width:0.5"
     d="m 43.59236,-3.737935 0.0133,-0.140991 0.0221,-0.14001 0.0308,-0.13799 0.0394,-0.13501 0.0479,-0.13299 0.0561,-0.13 0.0642,-0.126 0.0719,-0.12201 0.0795,-0.11699 0.0866,-0.111009 0.0935,-0.106 0.0999,-0.100001 0.10603,-0.094 0.11168,-0.086 0.11691,-0.08 0.12166,-0.072 0.12595,-0.064 0.12972,-0.056 0.13299,-0.048 0.13574,-0.039 0.13794,-0.031 0.1396,-0.022 0.14074,-0.014 0.14126,-0.004 0.14127,0.004 0.14073,0.014 0.1396,0.022 0.13794,0.031 0.13575,0.039 0.13299,0.048 0.12972,0.056 0.12594,0.064 0.12166,0.072 0.11691,0.08 0.11168,0.086 0.10603,0.094 0.1,0.100001 0.0935,0.106 0.0866,0.111009 0.0795,0.11699 0.0719,0.12201 0.0642,0.126 0.0561,0.13 0.0479,0.13299 0.0395,0.13501 0.0308,0.13799 0.0221,0.14001 0.0133,0.140991 0.004,0.140999 -0.004,0.14101 -0.0133,0.14099 -0.0221,0.140011 -0.0308,0.137999 -0.0395,0.135001 -0.0479,0.132989 -0.0561,0.130001 -0.0642,0.125999 -0.0719,0.12201 -0.0795,0.117 -0.0866,0.111 -0.0935,0.106 -0.1,0.1 -0.10603,0.094 -0.11168,0.086 -0.11691,0.08 -0.12166,0.072 -0.12594,0.064 -0.12972,0.056 -0.13299,0.048 -0.13575,0.039 -0.13794,0.031 -0.1396,0.022 -0.14073,0.014 -0.14127,0.004 -0.14126,-0.004 -0.14074,-0.014 -0.1396,-0.022 -0.13794,-0.031 -0.13574,-0.039 -0.13299,-0.048 -0.12972,-0.056 -0.12595,-0.064 -0.12166,-0.072 -0.11691,-0.08 -0.11168,-0.086 -0.10603,-0.094 -0.0999,-0.1 -0.0935,-0.106 -0.0866,-0.111 -0.0795,-0.117 -0.0719,-0.12201 -0.0642,-0.125999 -0.0561,-0.130001 -0.0479,-0.132989 -0.0394,-0.135001 -0.0308,-0.137999 -0.0221,-0.140011 -0.0133,-0.14099 -0.004,-0.14101 z"
     id="path122-5-1-2-9" />
</svg>
