<?xml version="1.0" encoding="UTF-8" standalone="no"?>
<svg
   xmlns:dc="http://purl.org/dc/elements/1.1/"
   xmlns:cc="http://creativecommons.org/ns#"
   xmlns:rdf="http://www.w3.org/1999/02/22-rdf-syntax-ns#"
   xmlns:svg="http://www.w3.org/2000/svg"
   xmlns="http://www.w3.org/2000/svg"
   xmlns:sodipodi="http://sodipodi.sourceforge.net/DTD/sodipodi-0.dtd"
   xmlns:inkscape="http://www.inkscape.org/namespaces/inkscape"
   width="297mm"
   height="210mm"
   viewBox="-10 -16 296.99999 210"
   version="1.1"
   id="svg11023"
   sodipodi:docname="mix-cut.svg"
   inkscape:version="0.92.3 (2405546, 2018-03-11)">
  <metadata
     id="metadata11029">
    <rdf:RDF>
      <cc:Work
         rdf:about="">
        <dc:format>image/svg+xml</dc:format>
        <dc:type
           rdf:resource="http://purl.org/dc/dcmitype/StillImage" />
        <dc:title>OpenSCAD Model</dc:title>
      </cc:Work>
    </rdf:RDF>
  </metadata>
  <defs
     id="defs11027" />
  <sodipodi:namedview
     pagecolor="#ffffff"
     bordercolor="#666666"
     borderopacity="1"
     objecttolerance="10"
     gridtolerance="10"
     guidetolerance="10"
     inkscape:pageopacity="0"
     inkscape:pageshadow="2"
     inkscape:window-width="1366"
     inkscape:window-height="713"
     id="namedview11025"
     showgrid="true"
     inkscape:measure-start="45.1754,377.667"
     inkscape:measure-end="221.058,377.064"
     units="mm"
     inkscape:document-units="mm"
     inkscape:zoom="0.41504856"
     inkscape:cx="497.70349"
     inkscape:cy="411.14231"
     inkscape:window-x="0"
     inkscape:window-y="27"
     inkscape:window-maximized="1"
     inkscape:current-layer="svg11023"
     inkscape:snap-bbox="true"
     inkscape:snap-bbox-midpoints="false"
     inkscape:object-nodes="true"
     inkscape:snap-nodes="true"
     scale-x="1"
     inkscape:snap-global="true"
     inkscape:bbox-paths="true"
     inkscape:snap-others="true"
     inkscape:object-paths="true"
     inkscape:snap-intersection-paths="true"
     inkscape:snap-smooth-nodes="true"
     inkscape:snap-midpoints="true"
     inkscape:bbox-nodes="false">
    <inkscape:grid
       type="xygrid"
       id="grid13804" />
  </sodipodi:namedview>
  <title
     id="title11019">OpenSCAD Model</title>
  <g
     id="g1612-74-0"
     style="fill:none"
     transform="rotate(180,14.060417,102.94341)">
    <path
       id="path1587-4-7"
       style="fill:none;stroke:#000000;stroke-width:0.49999997"
       d="m 7.323882,167.6856 h -17.89292 v -5 h -4.739053 v 4.60939 h -5.5 v -4.60939 h -4.760947 v 5 h -17.89292 l 25.39292,35.00001 z"
       inkscape:connector-curvature="0"
       sodipodi:nodetypes="cccccccccccc" />
  </g>
  <rect
     style="opacity:1;fill:none;fill-opacity:1;stroke:#000000;stroke-width:0.26458332;stroke-miterlimit:4;stroke-dasharray:none;stroke-opacity:1"
     id="rect13806-3-35-6-8"
     width="85.000023"
     height="54.999996"
     x="2.4446487"
     y="-9.2989721" />
  <g
     id="g1628-5-5-6"
     style="fill:none"
     transform="rotate(90,211.75161,20.306199)">
    <path
       id="path1599-0-6-8"
       d="m 199.76663,176.30788 0.591,-0.2128 0.577,-0.2495 0.56,-0.2852 0.54,-0.3198 0.52,-0.3531 0.496,-0.3851 0.471,-0.4154 0.445,-0.4442 0.415,-0.4713 0.385,-0.4964 0.353,-0.5195 0.32,-0.54076 0.285,-0.55976 0.25,-0.57654 0.213,-0.59108 0.175,-0.60327 0.137,-0.61308 0.098,-0.62048 0.059,-0.62543 0.02,-0.6279 v -10 l -0.02,-0.6279 -0.059,-0.62543 -0.098,-0.62048 -0.137,-0.61308 -0.175,-0.60327 -0.213,-0.59108 -0.25,-0.57654 -0.285,-0.55976 -0.32,-0.54076 -0.353,-0.5195 -0.385,-0.4964 -0.415,-0.4713 -0.445,-0.4442 -0.471,-0.4154 -0.496,-0.3851 -0.52,-0.3531 -0.54,-0.3198 -0.56,-0.2852 -0.577,-0.2495 -0.591,-0.2128 -0.34,-0.0988 v 4.6094 h -5.5 v -4.6094 l -0.34,0.0988 -0.591,0.2128 -0.577,0.2495 -0.56,0.2852 -0.54,0.3198 -0.52,0.3531 -0.496,0.3851 -0.471,0.4154 -0.445,0.4442 -0.415,0.4713 -0.385,0.4964 -0.353,0.5195 -0.32,0.54076 -0.285,0.55976 -0.25,0.57654 -0.213,0.59108 -0.175,0.60327 -0.137,0.61308 -0.098,0.62048 -0.059,0.62543 -0.02,0.6279 v 10 l 0.02,0.6279 0.059,0.62543 0.098,0.62048 0.137,0.61308 0.175,0.60327 0.213,0.59108 0.25,0.57654 0.285,0.55976 0.32,0.54076 0.353,0.5195 0.385,0.4964 0.415,0.4713 0.445,0.4442 0.471,0.4154 0.496,0.3851 0.52,0.3531 0.54,0.3198 0.56,0.2852 0.577,0.2495 0.591,0.2128 0.34,0.0988 v -4.6094 h 5.5 v 4.6094 z"
       style="fill:none;stroke:#000000;stroke-width:0.49999997"
       inkscape:connector-curvature="0" />
    <path
       id="path1597-3-9-8"
       d="m 196.45663,165.29037 -0.219,-0.0207 -0.217,-0.0344 -0.214,-0.048 -0.212,-0.0613 -0.206,-0.0745 -0.202,-0.0873 -0.196,-0.0998 -0.189,-0.11192 -0.182,-0.12358 -0.174,-0.13477 -0.165,-0.14541 -0.155,-0.15548 -0.146,-0.16493 -0.135,-0.17373 -0.123,-0.18186 -0.112,-0.18925 -0.1,-0.19591 -0.087,-0.2018 -0.075,-0.20686 -0.061,-0.21115 -0.048,-0.21459 -0.034,-0.21716 -0.021,-0.2189 -0.007,-0.21976 0.007,-0.21976 0.021,-0.2189 0.034,-0.21716 0.048,-0.21459 0.061,-0.21115 0.075,-0.20686 0.087,-0.2018 0.1,-0.19591 0.112,-0.18925 0.123,-0.18186 0.135,-0.17373 0.146,-0.16493 0.155,-0.15548 0.165,-0.14541 0.174,-0.13477 0.182,-0.12358 0.189,-0.11192 0.196,-0.0998 0.202,-0.0873 0.206,-0.0745 0.212,-0.0613 0.214,-0.048 0.217,-0.0344 0.219,-0.0207 0.22,-0.007 0.22,0.007 0.219,0.0207 0.217,0.0344 0.214,0.048 0.212,0.0613 0.206,0.0745 0.202,0.0873 0.196,0.0998 0.189,0.11192 0.182,0.12358 0.174,0.13477 0.165,0.14541 0.155,0.15548 0.146,0.16493 0.135,0.17373 0.123,0.18186 0.112,0.18925 0.1,0.19591 0.087,0.2018 0.075,0.20686 0.061,0.21115 0.048,0.21459 0.034,0.21716 0.021,0.2189 0.007,0.21976 -0.007,0.21976 -0.021,0.2189 -0.034,0.21716 -0.048,0.21459 -0.061,0.21115 -0.075,0.20686 -0.087,0.2018 -0.1,0.19591 -0.112,0.18925 -0.123,0.18186 -0.135,0.17373 -0.146,0.16493 -0.155,0.15548 -0.165,0.14541 -0.174,0.13477 -0.182,0.12358 -0.189,0.11192 -0.196,0.0998 -0.202,0.0873 -0.206,0.0745 -0.212,0.0613 -0.214,0.048 -0.217,0.0344 -0.219,0.0207 -0.22,0.007 z"
       style="fill:none;stroke:#000000;stroke-width:0.49999997"
       inkscape:connector-curvature="0" />
  </g>
  <g
     id="g1628-5-5-6-4"
     style="fill:none"
     transform="rotate(90,187.54534,-4.429295)">
    <path
       id="path1599-0-6-8-3"
       d="m 199.76663,176.30788 0.591,-0.2128 0.577,-0.2495 0.56,-0.2852 0.54,-0.3198 0.52,-0.3531 0.496,-0.3851 0.471,-0.4154 0.445,-0.4442 0.415,-0.4713 0.385,-0.4964 0.353,-0.5195 0.32,-0.54076 0.285,-0.55976 0.25,-0.57654 0.213,-0.59108 0.175,-0.60327 0.137,-0.61308 0.098,-0.62048 0.059,-0.62543 0.02,-0.6279 v -10 l -0.02,-0.6279 -0.059,-0.62543 -0.098,-0.62048 -0.137,-0.61308 -0.175,-0.60327 -0.213,-0.59108 -0.25,-0.57654 -0.285,-0.55976 -0.32,-0.54076 -0.353,-0.5195 -0.385,-0.4964 -0.415,-0.4713 -0.445,-0.4442 -0.471,-0.4154 -0.496,-0.3851 -0.52,-0.3531 -0.54,-0.3198 -0.56,-0.2852 -0.577,-0.2495 -0.591,-0.2128 -0.34,-0.0988 v 4.6094 h -5.5 v -4.6094 l -0.34,0.0988 -0.591,0.2128 -0.577,0.2495 -0.56,0.2852 -0.54,0.3198 -0.52,0.3531 -0.496,0.3851 -0.471,0.4154 -0.445,0.4442 -0.415,0.4713 -0.385,0.4964 -0.353,0.5195 -0.32,0.54076 -0.285,0.55976 -0.25,0.57654 -0.213,0.59108 -0.175,0.60327 -0.137,0.61308 -0.098,0.62048 -0.059,0.62543 -0.02,0.6279 v 10 l 0.02,0.6279 0.059,0.62543 0.098,0.62048 0.137,0.61308 0.175,0.60327 0.213,0.59108 0.25,0.57654 0.285,0.55976 0.32,0.54076 0.353,0.5195 0.385,0.4964 0.415,0.4713 0.445,0.4442 0.471,0.4154 0.496,0.3851 0.52,0.3531 0.54,0.3198 0.56,0.2852 0.577,0.2495 0.591,0.2128 0.34,0.0988 v -4.6094 h 5.5 v 4.6094 z"
       style="fill:none;stroke:#000000;stroke-width:0.49999997"
       inkscape:connector-curvature="0" />
    <path
       id="path1597-3-9-8-1"
       d="m 196.45663,165.29037 -0.219,-0.0207 -0.217,-0.0344 -0.214,-0.048 -0.212,-0.0613 -0.206,-0.0745 -0.202,-0.0873 -0.196,-0.0998 -0.189,-0.11192 -0.182,-0.12358 -0.174,-0.13477 -0.165,-0.14541 -0.155,-0.15548 -0.146,-0.16493 -0.135,-0.17373 -0.123,-0.18186 -0.112,-0.18925 -0.1,-0.19591 -0.087,-0.2018 -0.075,-0.20686 -0.061,-0.21115 -0.048,-0.21459 -0.034,-0.21716 -0.021,-0.2189 -0.007,-0.21976 0.007,-0.21976 0.021,-0.2189 0.034,-0.21716 0.048,-0.21459 0.061,-0.21115 0.075,-0.20686 0.087,-0.2018 0.1,-0.19591 0.112,-0.18925 0.123,-0.18186 0.135,-0.17373 0.146,-0.16493 0.155,-0.15548 0.165,-0.14541 0.174,-0.13477 0.182,-0.12358 0.189,-0.11192 0.196,-0.0998 0.202,-0.0873 0.206,-0.0745 0.212,-0.0613 0.214,-0.048 0.217,-0.0344 0.219,-0.0207 0.22,-0.007 0.22,0.007 0.219,0.0207 0.217,0.0344 0.214,0.048 0.212,0.0613 0.206,0.0745 0.202,0.0873 0.196,0.0998 0.189,0.11192 0.182,0.12358 0.174,0.13477 0.165,0.14541 0.155,0.15548 0.146,0.16493 0.135,0.17373 0.123,0.18186 0.112,0.18925 0.1,0.19591 0.087,0.2018 0.075,0.20686 0.061,0.21115 0.048,0.21459 0.034,0.21716 0.021,0.2189 0.007,0.21976 -0.007,0.21976 -0.021,0.2189 -0.034,0.21716 -0.048,0.21459 -0.061,0.21115 -0.075,0.20686 -0.087,0.2018 -0.1,0.19591 -0.112,0.18925 -0.123,0.18186 -0.135,0.17373 -0.146,0.16493 -0.155,0.15548 -0.165,0.14541 -0.174,0.13477 -0.182,0.12358 -0.189,0.11192 -0.196,0.0998 -0.202,0.0873 -0.206,0.0745 -0.212,0.0613 -0.214,0.048 -0.217,0.0344 -0.219,0.0207 -0.22,0.007 z"
       style="fill:none;stroke:#000000;stroke-width:0.49999997"
       inkscape:connector-curvature="0" />
  </g>
</svg>
