<?xml version="1.0" encoding="UTF-8" standalone="no"?>
<svg
   xmlns:dc="http://purl.org/dc/elements/1.1/"
   xmlns:cc="http://creativecommons.org/ns#"
   xmlns:rdf="http://www.w3.org/1999/02/22-rdf-syntax-ns#"
   xmlns:svg="http://www.w3.org/2000/svg"
   xmlns="http://www.w3.org/2000/svg"
   xmlns:sodipodi="http://sodipodi.sourceforge.net/DTD/sodipodi-0.dtd"
   xmlns:inkscape="http://www.inkscape.org/namespaces/inkscape"
   width="297mm"
   height="210mm"
   viewBox="-10 -16 296.99999 210"
   version="1.1"
   id="svg11023"
   sodipodi:docname="receptor-1.svg"
   inkscape:version="0.92.3 (2405546, 2018-03-11)">
  <metadata
     id="metadata11029">
    <rdf:RDF>
      <cc:Work
         rdf:about="">
        <dc:format>image/svg+xml</dc:format>
        <dc:type
           rdf:resource="http://purl.org/dc/dcmitype/StillImage" />
        <dc:title>OpenSCAD Model</dc:title>
      </cc:Work>
    </rdf:RDF>
  </metadata>
  <defs
     id="defs11027" />
  <sodipodi:namedview
     pagecolor="#ffffff"
     bordercolor="#666666"
     borderopacity="1"
     objecttolerance="10"
     gridtolerance="10"
     guidetolerance="10"
     inkscape:pageopacity="0"
     inkscape:pageshadow="2"
     inkscape:window-width="1366"
     inkscape:window-height="713"
     id="namedview11025"
     showgrid="true"
     inkscape:measure-start="45.1754,377.667"
     inkscape:measure-end="221.058,377.064"
     units="mm"
     inkscape:document-units="mm"
     inkscape:zoom="1.1739346"
     inkscape:cx="296.89885"
     inkscape:cy="677.9247"
     inkscape:window-x="0"
     inkscape:window-y="27"
     inkscape:window-maximized="1"
     inkscape:current-layer="svg11023"
     inkscape:snap-bbox="true"
     inkscape:snap-bbox-midpoints="true"
     inkscape:object-nodes="true"
     inkscape:snap-nodes="true"
     scale-x="1"
     inkscape:snap-global="false"
     inkscape:bbox-paths="true"
     inkscape:snap-others="true"
     inkscape:object-paths="true"
     inkscape:snap-intersection-paths="true"
     inkscape:snap-smooth-nodes="true"
     inkscape:snap-midpoints="true"
     inkscape:bbox-nodes="false">
    <inkscape:grid
       type="xygrid"
       id="grid13804" />
  </sodipodi:namedview>
  <title
     id="title11019">OpenSCAD Model</title>
  <path
     style="fill:none;stroke:#000000;stroke-width:0.5"
     d="M 79.366995,12.933904 C 77.543913,3.8205185 69.540765,-2.7370235 60.245784,-2.7370235 c -9.294981,0 -17.298129,6.557542 -19.121211,15.6709275 -1.823105,9.113502 3.040971,18.248141 11.617262,21.825061 l -0.0014,4.66618 5.180172,0.0159 v -4.73878 h 4.499998 v 4.73877 l 5.281781,-0.0441 0.03949,-4.63799 c 8.584194,-3.5769 13.44827,-12.711539 11.625165,-21.825041 z"
     id="path112-7-5"
     inkscape:connector-curvature="0" />
  <rect
     style="opacity:1;fill:none;fill-opacity:1;stroke:#000000;stroke-width:0.26458332;stroke-miterlimit:4;stroke-dasharray:none;stroke-opacity:1"
     id="rect13806-3-35-6"
     width="85.000023"
     height="54.999996"
     x="-3.7250488"
     y="-8.7720242" />
  <path
     id="path112-7"
     style="fill:none;stroke:#000000;stroke-width:0.5"
     d="M 17.683623,-1.2175625 C -1.4709966,-1.3160865 -9.9579322,10.847743 4.9398144,17.047397 l 0.5071212,-5.8e-5 c -12.0905005,5.031425 -9.1937272,14.740596 5.2438084,17.575776 l 0.0025,4.66436 5.180172,0.0159 v -4.73877 h 4.499998 v 4.73877 l 5.281781,-0.0441 0.03554,-4.63619 c 14.437541,-2.83517 17.33432,-12.544349 5.24382,-17.575776 v 0 c 6.69768,-2.78722 9.260385,-7.3914295 6.397732,-11.4942985 -2.862652,-4.10287 -10.53008,-6.814957 -19.141552,-6.770661 z"
     inkscape:connector-curvature="0"
     sodipodi:nodetypes="cccccccccccccscc" />
  <path
     style="fill:none;stroke:#000000;stroke-width:0.5"
     d="m 67.745784,16.757133 c 6.76e-4,-4.142617 -3.357386,-7.5012215 -7.5,-7.5012215 -4.142614,0 -7.500676,3.3586045 -7.5,7.5012215 -6.76e-4,4.142617 3.357386,7.501222 7.5,7.501222 4.142614,0 7.500676,-3.358605 7.5,-7.501222 z"
     id="path1369"
     inkscape:connector-curvature="0" />
</svg>
