G04 #@! TF.FileFunction,Paste,Top*
%FSLAX46Y46*%
G04 Gerber Fmt 4.6, Leading zero omitted, Abs format (unit mm)*
G04 Created by KiCad (PCBNEW 4.0.7-e2-6376~58~ubuntu14.04.1) date Fri Feb 16 13:10:18 2018*
%MOMM*%
%LPD*%
G01*
G04 APERTURE LIST*
%ADD10C,0.100000*%
%ADD11R,5.000000X7.000000*%
G04 APERTURE END LIST*
D10*
G36*
X69574682Y-95076795D02*
X67074682Y-90746667D01*
X73136860Y-87246667D01*
X75636860Y-91576795D01*
X69574682Y-95076795D01*
X69574682Y-95076795D01*
G37*
G36*
X72274682Y-99753333D02*
X69774682Y-95423205D01*
X75836860Y-91923205D01*
X78336860Y-96253333D01*
X72274682Y-99753333D01*
X72274682Y-99753333D01*
G37*
G36*
X77368911Y-90576795D02*
X74868911Y-86246667D01*
X80931089Y-82746667D01*
X83431089Y-87076795D01*
X77368911Y-90576795D01*
X77368911Y-90576795D01*
G37*
G36*
X80068911Y-95253333D02*
X77568911Y-90923205D01*
X83631089Y-87423205D01*
X86131089Y-91753333D01*
X80068911Y-95253333D01*
X80068911Y-95253333D01*
G37*
G36*
X85163140Y-86076795D02*
X82663140Y-81746667D01*
X88725318Y-78246667D01*
X91225318Y-82576795D01*
X85163140Y-86076795D01*
X85163140Y-86076795D01*
G37*
G36*
X87863140Y-90753333D02*
X85363140Y-86423205D01*
X91425318Y-82923205D01*
X93925318Y-87253333D01*
X87863140Y-90753333D01*
X87863140Y-90753333D01*
G37*
D11*
X106400000Y-93500000D03*
X101000000Y-93500000D03*
X106400000Y-102500000D03*
X101000000Y-102500000D03*
X106400000Y-111500000D03*
X101000000Y-111500000D03*
D10*
G36*
X91225318Y-122423205D02*
X88725318Y-126753333D01*
X82663140Y-123253333D01*
X85163140Y-118923205D01*
X91225318Y-122423205D01*
X91225318Y-122423205D01*
G37*
G36*
X93925318Y-117746667D02*
X91425318Y-122076795D01*
X85363140Y-118576795D01*
X87863140Y-114246667D01*
X93925318Y-117746667D01*
X93925318Y-117746667D01*
G37*
G36*
X83431089Y-117923205D02*
X80931089Y-122253333D01*
X74868911Y-118753333D01*
X77368911Y-114423205D01*
X83431089Y-117923205D01*
X83431089Y-117923205D01*
G37*
G36*
X86131089Y-113246667D02*
X83631089Y-117576795D01*
X77568911Y-114076795D01*
X80068911Y-109746667D01*
X86131089Y-113246667D01*
X86131089Y-113246667D01*
G37*
G36*
X75636860Y-113423205D02*
X73136860Y-117753333D01*
X67074682Y-114253333D01*
X69574682Y-109923205D01*
X75636860Y-113423205D01*
X75636860Y-113423205D01*
G37*
G36*
X78336860Y-108746667D02*
X75836860Y-113076795D01*
X69774682Y-109576795D01*
X72274682Y-105246667D01*
X78336860Y-108746667D01*
X78336860Y-108746667D01*
G37*
M02*
