G04 #@! TF.FileFunction,Soldermask,Top*
%FSLAX46Y46*%
G04 Gerber Fmt 4.6, Leading zero omitted, Abs format (unit mm)*
G04 Created by KiCad (PCBNEW 4.0.7-e2-6376~58~ubuntu14.04.1) date Fri Feb 16 13:10:18 2018*
%MOMM*%
%LPD*%
G01*
G04 APERTURE LIST*
%ADD10C,0.100000*%
%ADD11R,5.400000X7.400000*%
G04 APERTURE END LIST*
D10*
G36*
X69501477Y-95350000D02*
X66801477Y-90673462D01*
X73210065Y-86973462D01*
X75910065Y-91650000D01*
X69501477Y-95350000D01*
X69501477Y-95350000D01*
G37*
G36*
X72201477Y-100026538D02*
X69501477Y-95350000D01*
X75910065Y-91650000D01*
X78610065Y-96326538D01*
X72201477Y-100026538D01*
X72201477Y-100026538D01*
G37*
G36*
X77295706Y-90850000D02*
X74595706Y-86173462D01*
X81004294Y-82473462D01*
X83704294Y-87150000D01*
X77295706Y-90850000D01*
X77295706Y-90850000D01*
G37*
G36*
X79995706Y-95526538D02*
X77295706Y-90850000D01*
X83704294Y-87150000D01*
X86404294Y-91826538D01*
X79995706Y-95526538D01*
X79995706Y-95526538D01*
G37*
G36*
X85089935Y-86350000D02*
X82389935Y-81673462D01*
X88798523Y-77973462D01*
X91498523Y-82650000D01*
X85089935Y-86350000D01*
X85089935Y-86350000D01*
G37*
G36*
X87789935Y-91026538D02*
X85089935Y-86350000D01*
X91498523Y-82650000D01*
X94198523Y-87326538D01*
X87789935Y-91026538D01*
X87789935Y-91026538D01*
G37*
D11*
X106400000Y-93500000D03*
X101000000Y-93500000D03*
X106400000Y-102500000D03*
X101000000Y-102500000D03*
X106400000Y-111500000D03*
X101000000Y-111500000D03*
D10*
G36*
X91498523Y-122350000D02*
X88798523Y-127026538D01*
X82389935Y-123326538D01*
X85089935Y-118650000D01*
X91498523Y-122350000D01*
X91498523Y-122350000D01*
G37*
G36*
X94198523Y-117673462D02*
X91498523Y-122350000D01*
X85089935Y-118650000D01*
X87789935Y-113973462D01*
X94198523Y-117673462D01*
X94198523Y-117673462D01*
G37*
G36*
X83704294Y-117850000D02*
X81004294Y-122526538D01*
X74595706Y-118826538D01*
X77295706Y-114150000D01*
X83704294Y-117850000D01*
X83704294Y-117850000D01*
G37*
G36*
X86404294Y-113173462D02*
X83704294Y-117850000D01*
X77295706Y-114150000D01*
X79995706Y-109473462D01*
X86404294Y-113173462D01*
X86404294Y-113173462D01*
G37*
G36*
X75910065Y-113350000D02*
X73210065Y-118026538D01*
X66801477Y-114326538D01*
X69501477Y-109650000D01*
X75910065Y-113350000D01*
X75910065Y-113350000D01*
G37*
G36*
X78610065Y-108673462D02*
X75910065Y-113350000D01*
X69501477Y-109650000D01*
X72201477Y-104973462D01*
X78610065Y-108673462D01*
X78610065Y-108673462D01*
G37*
M02*
