G04 #@! TF.FileFunction,Legend,Bot*
%FSLAX46Y46*%
G04 Gerber Fmt 4.6, Leading zero omitted, Abs format (unit mm)*
G04 Created by KiCad (PCBNEW 4.0.7-e2-6376~58~ubuntu14.04.1) date Fri Feb 16 13:10:18 2018*
%MOMM*%
%LPD*%
G01*
G04 APERTURE LIST*
%ADD10C,0.100000*%
%ADD11C,0.120000*%
%ADD12C,0.150000*%
G04 APERTURE END LIST*
D10*
D11*
X75765000Y-112560000D02*
X77885000Y-112560000D01*
X75765000Y-92440000D02*
X77885000Y-92440000D01*
X77885000Y-112560000D02*
X77885000Y-110185000D01*
X75765000Y-112185000D02*
X74535000Y-112185000D01*
X75765000Y-112560000D02*
X75765000Y-112185000D01*
X77885000Y-92815000D02*
X77885000Y-92440000D01*
X77885000Y-108815000D02*
X77885000Y-106185000D01*
X77885000Y-104815000D02*
X77885000Y-102185000D01*
X77885000Y-100815000D02*
X77885000Y-98185000D01*
X77885000Y-96815000D02*
X77885000Y-94185000D01*
X75765000Y-110815000D02*
X75765000Y-108185000D01*
X75765000Y-106815000D02*
X75765000Y-104185000D01*
X75765000Y-102815000D02*
X75765000Y-100185000D01*
X75765000Y-98815000D02*
X75765000Y-96185000D01*
X75765000Y-94815000D02*
X75765000Y-92440000D01*
D12*
X77158333Y-113012381D02*
X77158333Y-113726667D01*
X77205953Y-113869524D01*
X77301191Y-113964762D01*
X77444048Y-114012381D01*
X77539286Y-114012381D01*
X76158333Y-114012381D02*
X76729762Y-114012381D01*
X76444048Y-114012381D02*
X76444048Y-113012381D01*
X76539286Y-113155238D01*
X76634524Y-113250476D01*
X76729762Y-113298095D01*
M02*
