G04 #@! TF.FileFunction,Other,Fab,Top*
%FSLAX46Y46*%
G04 Gerber Fmt 4.6, Leading zero omitted, Abs format (unit mm)*
G04 Created by KiCad (PCBNEW 4.0.7-e2-6376~58~ubuntu14.04.1) date Fri Feb 16 13:10:18 2018*
%MOMM*%
%LPD*%
G01*
G04 APERTURE LIST*
%ADD10C,0.100000*%
%ADD11C,0.150000*%
G04 APERTURE END LIST*
D10*
D11*
X80441286Y-96374494D02*
X80423857Y-96439543D01*
X80323948Y-96552211D01*
X80241470Y-96599830D01*
X80093942Y-96630020D01*
X79963844Y-96595160D01*
X79874986Y-96536491D01*
X79738508Y-96395344D01*
X79667079Y-96271625D01*
X79613081Y-96082858D01*
X79606701Y-95976570D01*
X79641561Y-95846473D01*
X79741470Y-95733805D01*
X79823948Y-95686186D01*
X79971476Y-95655996D01*
X80036524Y-95673426D01*
X80983776Y-96171259D02*
X80877488Y-96177639D01*
X80812440Y-96160209D01*
X80723581Y-96101540D01*
X80580724Y-95854103D01*
X80574344Y-95747815D01*
X80591774Y-95682767D01*
X80650443Y-95593908D01*
X80774162Y-95522479D01*
X80880450Y-95516100D01*
X80945498Y-95533529D01*
X81034357Y-95592198D01*
X81177214Y-95839635D01*
X81183594Y-95945923D01*
X81166164Y-96010972D01*
X81107495Y-96099830D01*
X80983776Y-96171259D01*
X81310272Y-95212956D02*
X81643606Y-95790306D01*
X81357891Y-95295434D02*
X81375321Y-95230386D01*
X81433990Y-95141527D01*
X81557708Y-95070098D01*
X81663996Y-95063719D01*
X81752855Y-95122388D01*
X82014760Y-95576020D01*
X82093819Y-94760575D02*
X82427152Y-95337925D01*
X82141438Y-94843053D02*
X82158868Y-94778005D01*
X82217537Y-94689146D01*
X82341255Y-94617717D01*
X82447543Y-94611338D01*
X82536402Y-94670007D01*
X82798307Y-95123639D01*
X83052122Y-95087070D02*
X83711951Y-94706118D01*
X83535485Y-93543329D02*
X83617965Y-93495709D01*
X83724253Y-93489329D01*
X83789302Y-93506759D01*
X83878160Y-93565428D01*
X84014637Y-93706576D01*
X84133685Y-93912773D01*
X84187684Y-94101539D01*
X84194064Y-94207827D01*
X84176634Y-94272876D01*
X84117965Y-94361734D01*
X84035485Y-94409354D01*
X83929197Y-94415734D01*
X83864149Y-94398304D01*
X83775290Y-94339635D01*
X83638813Y-94198487D01*
X83519765Y-93992290D01*
X83465766Y-93803524D01*
X83459387Y-93697236D01*
X83476816Y-93632187D01*
X83535485Y-93543329D01*
X85148947Y-93766496D02*
X84654075Y-94052211D01*
X84901511Y-93909354D02*
X84401511Y-93043329D01*
X84390461Y-93214665D01*
X84355601Y-93344763D01*
X84296932Y-93433621D01*
X85437622Y-93599830D02*
X85557921Y-92760574D01*
X85104289Y-93022479D02*
X85891255Y-93337925D01*
X85886126Y-92186186D02*
X85968605Y-92138566D01*
X86074893Y-92132186D01*
X86139942Y-92149616D01*
X86228800Y-92208285D01*
X86365278Y-92349433D01*
X86484326Y-92555630D01*
X86538324Y-92744396D01*
X86544704Y-92850684D01*
X86527274Y-92915733D01*
X86468605Y-93004591D01*
X86386126Y-93052211D01*
X86279838Y-93058591D01*
X86214789Y-93041161D01*
X86125931Y-92982492D01*
X85989454Y-92841344D01*
X85870406Y-92635147D01*
X85816407Y-92446381D01*
X85810027Y-92340093D01*
X85827457Y-92275044D01*
X85886126Y-92186186D01*
X86917109Y-91590947D02*
X86752151Y-91686186D01*
X86693482Y-91775044D01*
X86676053Y-91840093D01*
X86665003Y-92011429D01*
X86719001Y-92200196D01*
X86909478Y-92530111D01*
X86998336Y-92588780D01*
X87063385Y-92606210D01*
X87169673Y-92599830D01*
X87334631Y-92504591D01*
X87393300Y-92415733D01*
X87410730Y-92350684D01*
X87404350Y-92244396D01*
X87285302Y-92038200D01*
X87196444Y-91979530D01*
X87131395Y-91962100D01*
X87025107Y-91968480D01*
X86860149Y-92063719D01*
X86801480Y-92152577D01*
X86784050Y-92217626D01*
X86790430Y-92323915D01*
X98057143Y-106238095D02*
X98104762Y-106285714D01*
X98152381Y-106428571D01*
X98152381Y-106523809D01*
X98104762Y-106666667D01*
X98009524Y-106761905D01*
X97914286Y-106809524D01*
X97723810Y-106857143D01*
X97580952Y-106857143D01*
X97390476Y-106809524D01*
X97295238Y-106761905D01*
X97200000Y-106666667D01*
X97152381Y-106523809D01*
X97152381Y-106428571D01*
X97200000Y-106285714D01*
X97247619Y-106238095D01*
X98152381Y-105666667D02*
X98104762Y-105761905D01*
X98057143Y-105809524D01*
X97961905Y-105857143D01*
X97676190Y-105857143D01*
X97580952Y-105809524D01*
X97533333Y-105761905D01*
X97485714Y-105666667D01*
X97485714Y-105523809D01*
X97533333Y-105428571D01*
X97580952Y-105380952D01*
X97676190Y-105333333D01*
X97961905Y-105333333D01*
X98057143Y-105380952D01*
X98104762Y-105428571D01*
X98152381Y-105523809D01*
X98152381Y-105666667D01*
X97485714Y-104904762D02*
X98152381Y-104904762D01*
X97580952Y-104904762D02*
X97533333Y-104857143D01*
X97485714Y-104761905D01*
X97485714Y-104619047D01*
X97533333Y-104523809D01*
X97628571Y-104476190D01*
X98152381Y-104476190D01*
X97485714Y-104000000D02*
X98152381Y-104000000D01*
X97580952Y-104000000D02*
X97533333Y-103952381D01*
X97485714Y-103857143D01*
X97485714Y-103714285D01*
X97533333Y-103619047D01*
X97628571Y-103571428D01*
X98152381Y-103571428D01*
X98247619Y-103333333D02*
X98247619Y-102571428D01*
X97152381Y-102142857D02*
X97152381Y-102047618D01*
X97200000Y-101952380D01*
X97247619Y-101904761D01*
X97342857Y-101857142D01*
X97533333Y-101809523D01*
X97771429Y-101809523D01*
X97961905Y-101857142D01*
X98057143Y-101904761D01*
X98104762Y-101952380D01*
X98152381Y-102047618D01*
X98152381Y-102142857D01*
X98104762Y-102238095D01*
X98057143Y-102285714D01*
X97961905Y-102333333D01*
X97771429Y-102380952D01*
X97533333Y-102380952D01*
X97342857Y-102333333D01*
X97247619Y-102285714D01*
X97200000Y-102238095D01*
X97152381Y-102142857D01*
X98152381Y-100857142D02*
X98152381Y-101428571D01*
X98152381Y-101142857D02*
X97152381Y-101142857D01*
X97295238Y-101238095D01*
X97390476Y-101333333D01*
X97438095Y-101428571D01*
X98152381Y-100523809D02*
X97485714Y-99999999D01*
X97485714Y-100523809D02*
X98152381Y-99999999D01*
X97152381Y-99428571D02*
X97152381Y-99333332D01*
X97200000Y-99238094D01*
X97247619Y-99190475D01*
X97342857Y-99142856D01*
X97533333Y-99095237D01*
X97771429Y-99095237D01*
X97961905Y-99142856D01*
X98057143Y-99190475D01*
X98104762Y-99238094D01*
X98152381Y-99333332D01*
X98152381Y-99428571D01*
X98104762Y-99523809D01*
X98057143Y-99571428D01*
X97961905Y-99619047D01*
X97771429Y-99666666D01*
X97533333Y-99666666D01*
X97342857Y-99619047D01*
X97247619Y-99571428D01*
X97200000Y-99523809D01*
X97152381Y-99428571D01*
X97152381Y-98238094D02*
X97152381Y-98428571D01*
X97200000Y-98523809D01*
X97247619Y-98571428D01*
X97390476Y-98666666D01*
X97580952Y-98714285D01*
X97961905Y-98714285D01*
X98057143Y-98666666D01*
X98104762Y-98619047D01*
X98152381Y-98523809D01*
X98152381Y-98333332D01*
X98104762Y-98238094D01*
X98057143Y-98190475D01*
X97961905Y-98142856D01*
X97723810Y-98142856D01*
X97628571Y-98190475D01*
X97580952Y-98238094D01*
X97533333Y-98333332D01*
X97533333Y-98523809D01*
X97580952Y-98619047D01*
X97628571Y-98666666D01*
X97723810Y-98714285D01*
X80084143Y-109244095D02*
X80019095Y-109261525D01*
X79871567Y-109231336D01*
X79789089Y-109183717D01*
X79689180Y-109071049D01*
X79654320Y-108940951D01*
X79660700Y-108834663D01*
X79714698Y-108645897D01*
X79786127Y-108522178D01*
X79922605Y-108381030D01*
X80011463Y-108322361D01*
X80141561Y-108287502D01*
X80289089Y-108317692D01*
X80371567Y-108365311D01*
X80471476Y-108477978D01*
X80488905Y-108543027D01*
X80531395Y-109612288D02*
X80472726Y-109523430D01*
X80455297Y-109458381D01*
X80461676Y-109352093D01*
X80604534Y-109104656D01*
X80693392Y-109045987D01*
X80758441Y-109028558D01*
X80864729Y-109034937D01*
X80988448Y-109106366D01*
X81047117Y-109195225D01*
X81064546Y-109260273D01*
X81058167Y-109366561D01*
X80915309Y-109613998D01*
X80826451Y-109672667D01*
X80761402Y-109690097D01*
X80655114Y-109683717D01*
X80531395Y-109612288D01*
X81524558Y-109415890D02*
X81191225Y-109993240D01*
X81476939Y-109498368D02*
X81541988Y-109480939D01*
X81648276Y-109487318D01*
X81771994Y-109558747D01*
X81830663Y-109647606D01*
X81824284Y-109753894D01*
X81562379Y-110207526D01*
X82308105Y-109868271D02*
X81974771Y-110445621D01*
X82260486Y-109950749D02*
X82325535Y-109933320D01*
X82431823Y-109939699D01*
X82555541Y-110011128D01*
X82614210Y-110099987D01*
X82607831Y-110206275D01*
X82345926Y-110659907D01*
X82504503Y-110861433D02*
X83164332Y-111242386D01*
X84083104Y-110508168D02*
X84165584Y-110555787D01*
X84224253Y-110644645D01*
X84241683Y-110709694D01*
X84235303Y-110815982D01*
X84181304Y-111004749D01*
X84062256Y-111210946D01*
X83925779Y-111352093D01*
X83836921Y-111410762D01*
X83771872Y-111428192D01*
X83665584Y-111421812D01*
X83583104Y-111374193D01*
X83524435Y-111285335D01*
X83507006Y-111220286D01*
X83513385Y-111113998D01*
X83567384Y-110925231D01*
X83686432Y-110719034D01*
X83822909Y-110577887D01*
X83911768Y-110519218D01*
X83976816Y-110501788D01*
X84083104Y-110508168D01*
X84696566Y-112017050D02*
X84201694Y-111731336D01*
X84449130Y-111874193D02*
X84949130Y-111008168D01*
X84795223Y-111084266D01*
X84665125Y-111119126D01*
X84558837Y-111112746D01*
X84985241Y-112183717D02*
X85772207Y-111868271D01*
X85318575Y-111606366D02*
X85438874Y-112445622D01*
X86433745Y-111865311D02*
X86516224Y-111912930D01*
X86574893Y-112001788D01*
X86592323Y-112066837D01*
X86585943Y-112173125D01*
X86531945Y-112361892D01*
X86412897Y-112568089D01*
X86276419Y-112709236D01*
X86187561Y-112767905D01*
X86122512Y-112785335D01*
X86016224Y-112778955D01*
X85933745Y-112731336D01*
X85875076Y-112642478D01*
X85857646Y-112577429D01*
X85864026Y-112471141D01*
X85918025Y-112282374D01*
X86037073Y-112076177D01*
X86173550Y-111935030D01*
X86262408Y-111876361D01*
X86327457Y-111858931D01*
X86433745Y-111865311D01*
X87464728Y-112460549D02*
X87299770Y-112365311D01*
X87193482Y-112358931D01*
X87128434Y-112376361D01*
X86974527Y-112452459D01*
X86838049Y-112593607D01*
X86647573Y-112923522D01*
X86641193Y-113029810D01*
X86658623Y-113094859D01*
X86717292Y-113183717D01*
X86882250Y-113278955D01*
X86988538Y-113285335D01*
X87053587Y-113267905D01*
X87142445Y-113209236D01*
X87261492Y-113003040D01*
X87267873Y-112896751D01*
X87250443Y-112831702D01*
X87191774Y-112742844D01*
X87026816Y-112647606D01*
X86920528Y-112641226D01*
X86855479Y-112658656D01*
X86766620Y-112717326D01*
M02*
