G04 #@! TF.FileFunction,Other,Fab,Bot*
%FSLAX46Y46*%
G04 Gerber Fmt 4.6, Leading zero omitted, Abs format (unit mm)*
G04 Created by KiCad (PCBNEW 4.0.7-e2-6376~58~ubuntu14.04.1) date Fri Feb 16 13:10:18 2018*
%MOMM*%
%LPD*%
G01*
G04 APERTURE LIST*
%ADD10C,0.100000*%
%ADD11C,0.150000*%
G04 APERTURE END LIST*
D10*
X77825000Y-92500000D02*
X75825000Y-92500000D01*
X76575000Y-112500000D02*
X77825000Y-112500000D01*
X75825000Y-92500000D02*
X75825000Y-111750000D01*
X75825000Y-111750000D02*
X76575000Y-112500000D01*
X77825000Y-112500000D02*
X77825000Y-92500000D01*
X75825000Y-111750000D02*
X74725000Y-111750000D01*
X74725000Y-111750000D02*
X74725000Y-111250000D01*
X74725000Y-111250000D02*
X75825000Y-111250000D01*
X75825000Y-107750000D02*
X74725000Y-107750000D01*
X74725000Y-107750000D02*
X74725000Y-107250000D01*
X74725000Y-107250000D02*
X75825000Y-107250000D01*
X75825000Y-103750000D02*
X74725000Y-103750000D01*
X74725000Y-103750000D02*
X74725000Y-103250000D01*
X74725000Y-103250000D02*
X75825000Y-103250000D01*
X75825000Y-99750000D02*
X74725000Y-99750000D01*
X74725000Y-99750000D02*
X74725000Y-99250000D01*
X74725000Y-99250000D02*
X75825000Y-99250000D01*
X75825000Y-95750000D02*
X74725000Y-95750000D01*
X74725000Y-95750000D02*
X74725000Y-95250000D01*
X74725000Y-95250000D02*
X75825000Y-95250000D01*
X77825000Y-109750000D02*
X78925000Y-109750000D01*
X78925000Y-109750000D02*
X78925000Y-109250000D01*
X78925000Y-109250000D02*
X77825000Y-109250000D01*
X77825000Y-105750000D02*
X78925000Y-105750000D01*
X78925000Y-105750000D02*
X78925000Y-105250000D01*
X78925000Y-105250000D02*
X77825000Y-105250000D01*
X77825000Y-101750000D02*
X78925000Y-101750000D01*
X78925000Y-101750000D02*
X78925000Y-101250000D01*
X78925000Y-101250000D02*
X77825000Y-101250000D01*
X77825000Y-97750000D02*
X78925000Y-97750000D01*
X78925000Y-97750000D02*
X78925000Y-97250000D01*
X78925000Y-97250000D02*
X77825000Y-97250000D01*
X77825000Y-93750000D02*
X78925000Y-93750000D01*
X78925000Y-93750000D02*
X78925000Y-93250000D01*
X78925000Y-93250000D02*
X77825000Y-93250000D01*
D11*
X87848811Y-91797143D02*
X87896430Y-91844762D01*
X88039287Y-91892381D01*
X88134525Y-91892381D01*
X88277383Y-91844762D01*
X88372621Y-91749524D01*
X88420240Y-91654286D01*
X88467859Y-91463810D01*
X88467859Y-91320952D01*
X88420240Y-91130476D01*
X88372621Y-91035238D01*
X88277383Y-90940000D01*
X88134525Y-90892381D01*
X88039287Y-90892381D01*
X87896430Y-90940000D01*
X87848811Y-90987619D01*
X87277383Y-91892381D02*
X87372621Y-91844762D01*
X87420240Y-91797143D01*
X87467859Y-91701905D01*
X87467859Y-91416190D01*
X87420240Y-91320952D01*
X87372621Y-91273333D01*
X87277383Y-91225714D01*
X87134525Y-91225714D01*
X87039287Y-91273333D01*
X86991668Y-91320952D01*
X86944049Y-91416190D01*
X86944049Y-91701905D01*
X86991668Y-91797143D01*
X87039287Y-91844762D01*
X87134525Y-91892381D01*
X87277383Y-91892381D01*
X86515478Y-91225714D02*
X86515478Y-91892381D01*
X86515478Y-91320952D02*
X86467859Y-91273333D01*
X86372621Y-91225714D01*
X86229763Y-91225714D01*
X86134525Y-91273333D01*
X86086906Y-91368571D01*
X86086906Y-91892381D01*
X85610716Y-91225714D02*
X85610716Y-91892381D01*
X85610716Y-91320952D02*
X85563097Y-91273333D01*
X85467859Y-91225714D01*
X85325001Y-91225714D01*
X85229763Y-91273333D01*
X85182144Y-91368571D01*
X85182144Y-91892381D01*
X84944049Y-91987619D02*
X84182144Y-91987619D01*
X83753573Y-90892381D02*
X83658334Y-90892381D01*
X83563096Y-90940000D01*
X83515477Y-90987619D01*
X83467858Y-91082857D01*
X83420239Y-91273333D01*
X83420239Y-91511429D01*
X83467858Y-91701905D01*
X83515477Y-91797143D01*
X83563096Y-91844762D01*
X83658334Y-91892381D01*
X83753573Y-91892381D01*
X83848811Y-91844762D01*
X83896430Y-91797143D01*
X83944049Y-91701905D01*
X83991668Y-91511429D01*
X83991668Y-91273333D01*
X83944049Y-91082857D01*
X83896430Y-90987619D01*
X83848811Y-90940000D01*
X83753573Y-90892381D01*
X83039287Y-90987619D02*
X82991668Y-90940000D01*
X82896430Y-90892381D01*
X82658334Y-90892381D01*
X82563096Y-90940000D01*
X82515477Y-90987619D01*
X82467858Y-91082857D01*
X82467858Y-91178095D01*
X82515477Y-91320952D01*
X83086906Y-91892381D01*
X82467858Y-91892381D01*
X82134525Y-91892381D02*
X81610715Y-91225714D01*
X82134525Y-91225714D02*
X81610715Y-91892381D01*
X81039287Y-90892381D02*
X80944048Y-90892381D01*
X80848810Y-90940000D01*
X80801191Y-90987619D01*
X80753572Y-91082857D01*
X80705953Y-91273333D01*
X80705953Y-91511429D01*
X80753572Y-91701905D01*
X80801191Y-91797143D01*
X80848810Y-91844762D01*
X80944048Y-91892381D01*
X81039287Y-91892381D01*
X81134525Y-91844762D01*
X81182144Y-91797143D01*
X81229763Y-91701905D01*
X81277382Y-91511429D01*
X81277382Y-91273333D01*
X81229763Y-91082857D01*
X81182144Y-90987619D01*
X81134525Y-90940000D01*
X81039287Y-90892381D01*
X79801191Y-90892381D02*
X80277382Y-90892381D01*
X80325001Y-91368571D01*
X80277382Y-91320952D01*
X80182144Y-91273333D01*
X79944048Y-91273333D01*
X79848810Y-91320952D01*
X79801191Y-91368571D01*
X79753572Y-91463810D01*
X79753572Y-91701905D01*
X79801191Y-91797143D01*
X79848810Y-91844762D01*
X79944048Y-91892381D01*
X80182144Y-91892381D01*
X80277382Y-91844762D01*
X80325001Y-91797143D01*
X79563096Y-91987619D02*
X78801191Y-91987619D01*
X77991667Y-91797143D02*
X78039286Y-91844762D01*
X78182143Y-91892381D01*
X78277381Y-91892381D01*
X78420239Y-91844762D01*
X78515477Y-91749524D01*
X78563096Y-91654286D01*
X78610715Y-91463810D01*
X78610715Y-91320952D01*
X78563096Y-91130476D01*
X78515477Y-91035238D01*
X78420239Y-90940000D01*
X78277381Y-90892381D01*
X78182143Y-90892381D01*
X78039286Y-90940000D01*
X77991667Y-90987619D01*
X77420239Y-91892381D02*
X77515477Y-91844762D01*
X77563096Y-91797143D01*
X77610715Y-91701905D01*
X77610715Y-91416190D01*
X77563096Y-91320952D01*
X77515477Y-91273333D01*
X77420239Y-91225714D01*
X77277381Y-91225714D01*
X77182143Y-91273333D01*
X77134524Y-91320952D01*
X77086905Y-91416190D01*
X77086905Y-91701905D01*
X77134524Y-91797143D01*
X77182143Y-91844762D01*
X77277381Y-91892381D01*
X77420239Y-91892381D01*
X76229762Y-91225714D02*
X76229762Y-91892381D01*
X76658334Y-91225714D02*
X76658334Y-91749524D01*
X76610715Y-91844762D01*
X76515477Y-91892381D01*
X76372619Y-91892381D01*
X76277381Y-91844762D01*
X76229762Y-91797143D01*
X75753572Y-91225714D02*
X75753572Y-91892381D01*
X75753572Y-91320952D02*
X75705953Y-91273333D01*
X75610715Y-91225714D01*
X75467857Y-91225714D01*
X75372619Y-91273333D01*
X75325000Y-91368571D01*
X75325000Y-91892381D01*
X74991667Y-91225714D02*
X74610715Y-91225714D01*
X74848810Y-90892381D02*
X74848810Y-91749524D01*
X74801191Y-91844762D01*
X74705953Y-91892381D01*
X74610715Y-91892381D01*
X73896428Y-91844762D02*
X73991666Y-91892381D01*
X74182143Y-91892381D01*
X74277381Y-91844762D01*
X74325000Y-91749524D01*
X74325000Y-91368571D01*
X74277381Y-91273333D01*
X74182143Y-91225714D01*
X73991666Y-91225714D01*
X73896428Y-91273333D01*
X73848809Y-91368571D01*
X73848809Y-91463810D01*
X74325000Y-91559048D01*
X73420238Y-91892381D02*
X73420238Y-91225714D01*
X73420238Y-91416190D02*
X73372619Y-91320952D01*
X73325000Y-91273333D01*
X73229762Y-91225714D01*
X73134523Y-91225714D01*
X73039285Y-91987619D02*
X72277380Y-91987619D01*
X71467856Y-91797143D02*
X71515475Y-91844762D01*
X71658332Y-91892381D01*
X71753570Y-91892381D01*
X71896428Y-91844762D01*
X71991666Y-91749524D01*
X72039285Y-91654286D01*
X72086904Y-91463810D01*
X72086904Y-91320952D01*
X72039285Y-91130476D01*
X71991666Y-91035238D01*
X71896428Y-90940000D01*
X71753570Y-90892381D01*
X71658332Y-90892381D01*
X71515475Y-90940000D01*
X71467856Y-90987619D01*
X70896428Y-91892381D02*
X70991666Y-91844762D01*
X71039285Y-91749524D01*
X71039285Y-90892381D01*
X70372618Y-91892381D02*
X70467856Y-91844762D01*
X70515475Y-91797143D01*
X70563094Y-91701905D01*
X70563094Y-91416190D01*
X70515475Y-91320952D01*
X70467856Y-91273333D01*
X70372618Y-91225714D01*
X70229760Y-91225714D01*
X70134522Y-91273333D01*
X70086903Y-91320952D01*
X70039284Y-91416190D01*
X70039284Y-91701905D01*
X70086903Y-91797143D01*
X70134522Y-91844762D01*
X70229760Y-91892381D01*
X70372618Y-91892381D01*
X69182141Y-91844762D02*
X69277379Y-91892381D01*
X69467856Y-91892381D01*
X69563094Y-91844762D01*
X69610713Y-91797143D01*
X69658332Y-91701905D01*
X69658332Y-91416190D01*
X69610713Y-91320952D01*
X69563094Y-91273333D01*
X69467856Y-91225714D01*
X69277379Y-91225714D01*
X69182141Y-91273333D01*
X68753570Y-91892381D02*
X68753570Y-90892381D01*
X68658332Y-91511429D02*
X68372617Y-91892381D01*
X68372617Y-91225714D02*
X68753570Y-91606667D01*
X68039284Y-91225714D02*
X67848808Y-91892381D01*
X67658331Y-91416190D01*
X67467855Y-91892381D01*
X67277379Y-91225714D01*
X66896427Y-91892381D02*
X66896427Y-91225714D01*
X66896427Y-90892381D02*
X66944046Y-90940000D01*
X66896427Y-90987619D01*
X66848808Y-90940000D01*
X66896427Y-90892381D01*
X66896427Y-90987619D01*
X66467856Y-91844762D02*
X66372618Y-91892381D01*
X66182142Y-91892381D01*
X66086903Y-91844762D01*
X66039284Y-91749524D01*
X66039284Y-91701905D01*
X66086903Y-91606667D01*
X66182142Y-91559048D01*
X66324999Y-91559048D01*
X66420237Y-91511429D01*
X66467856Y-91416190D01*
X66467856Y-91368571D01*
X66420237Y-91273333D01*
X66324999Y-91225714D01*
X66182142Y-91225714D01*
X66086903Y-91273333D01*
X65229760Y-91844762D02*
X65324998Y-91892381D01*
X65515475Y-91892381D01*
X65610713Y-91844762D01*
X65658332Y-91749524D01*
X65658332Y-91368571D01*
X65610713Y-91273333D01*
X65515475Y-91225714D01*
X65324998Y-91225714D01*
X65229760Y-91273333D01*
X65182141Y-91368571D01*
X65182141Y-91463810D01*
X65658332Y-91559048D01*
X76277381Y-102166667D02*
X76991667Y-102166667D01*
X77134524Y-102119047D01*
X77229762Y-102023809D01*
X77277381Y-101880952D01*
X77277381Y-101785714D01*
X77277381Y-103166667D02*
X77277381Y-102595238D01*
X77277381Y-102880952D02*
X76277381Y-102880952D01*
X76420238Y-102785714D01*
X76515476Y-102690476D01*
X76563095Y-102595238D01*
M02*
