<?xml version="1.0" standalone="no"?>
 <!DOCTYPE svg PUBLIC "-//W3C//DTD SVG 1.1//EN" 
 "http://www.w3.org/Graphics/SVG/1.1/DTD/svg11.dtd"> 
<svg xmlns="http://www.w3.org/2000/svg" version="1.1" 
    width="7.68604cm" height="8.01878cm" viewBox="0 0 30260 31570 ">
<title>SVG Picture created as virus-brd.svg date 2018/03/21 08:00:53 </title>
  <desc>Picture generated by PCBNEW </desc>
<g style="fill:#000000; fill-opacity:1;stroke:#000000; stroke-opacity:1;
stroke-linecap:round; stroke-linejoin:round; "
 transform="translate(0 0) scale(1 1)">
</g>
<g style="fill:#000000; fill-opacity:0.0; 
stroke:#000000; stroke-width:-0.000393701; stroke-opacity:1; 
stroke-linecap:round; stroke-linejoin:round;">
</g>
<g style="fill:#840084; fill-opacity:0.0; 
stroke:#840084; stroke-width:-0.000393701; stroke-opacity:1; 
stroke-linecap:round; stroke-linejoin:round;">
</g>
<g style="fill:#840084; fill-opacity:0.0; 
stroke:#840084; stroke-width:47.2441; stroke-opacity:1; 
stroke-linecap:round; stroke-linejoin:round;">
<path d="M16482 18763
L17316 18763
" />
<path d="M16482 10842
L17316 10842
" />
<path d="M17316 18763
L17316 17828
" />
<path d="M16482 18616
L15998 18616
" />
<path d="M16482 18763
L16482 18616
" />
<path d="M17316 10990
L17316 10842
" />
<path d="M17316 17289
L17316 16253
" />
<path d="M17316 15714
L17316 14679
" />
<path d="M17316 14139
L17316 13104
" />
<path d="M17316 12564
L17316 11529
" />
<path d="M16482 18076
L16482 17041
" />
<path d="M16482 16501
L16482 15466
" />
<path d="M16482 14927
L16482 13891
" />
<path d="M16482 13352
L16482 12316
" />
<path d="M16482 11777
L16482 10842
" />
</g>
<g style="fill:#840000; fill-opacity:0.0; 
stroke:#840000; stroke-width:47.2441; stroke-opacity:1; 
stroke-linecap:round; stroke-linejoin:round;">
</g>
<g style="fill:#840000; fill-opacity:0.0; 
stroke:#840000; stroke-width:59.0551; stroke-opacity:1; 
stroke-linecap:round; stroke-linejoin:round;">
<path d="M17030 18941
L17030 19223
L17049 19279
L17087 19316
L17143 19335
L17180 19335
" />
<path d="M16637 19335
L16862 19335
" />
<path d="M16749 19335
L16749 18941
L16787 18998
L16824 19035
L16862 19054
" />
</g>
<g style="fill:#000000; fill-opacity:0.0; 
stroke:#000000; stroke-width:59.0551; stroke-opacity:1; 
stroke-linecap:round; stroke-linejoin:round;">
</g>
<g style="fill:#008400; fill-opacity:0.0; 
stroke:#008400; stroke-width:59.0551; stroke-opacity:1; 
stroke-linecap:round; stroke-linejoin:round;">
</g>
<g style="fill:#008400; fill-opacity:0.0; 
stroke:#008400; stroke-width:0; stroke-opacity:1; 
stroke-linecap:round; stroke-linejoin:round;">
</g>
<g style="fill:#008400; fill-opacity:1.0; 
stroke:#008400; stroke-width:0; stroke-opacity:1; 
stroke-linecap:round; stroke-linejoin:round;">
<polyline style="fill-rule:evenodd;"
points="15974,18513
15974,18179
16899,18179
16899,18513
15974,18513
" /> 
<polyline style="fill-rule:evenodd;"
points="15974,16938
15974,16604
16899,16604
16899,16938
15974,16938
" /> 
<polyline style="fill-rule:evenodd;"
points="15974,15364
15974,15029
16899,15029
16899,15364
15974,15364
" /> 
<polyline style="fill-rule:evenodd;"
points="15974,13789
15974,13454
16899,13454
16899,13789
15974,13789
" /> 
<polyline style="fill-rule:evenodd;"
points="15974,12214
15974,11879
16899,11879
16899,12214
15974,12214
" /> 
<polyline style="fill-rule:evenodd;"
points="16899,17726
16899,17391
17824,17391
17824,17726
16899,17726
" /> 
<polyline style="fill-rule:evenodd;"
points="16899,16151
16899,15816
17824,15816
17824,16151
16899,16151
" /> 
<polyline style="fill-rule:evenodd;"
points="16899,14576
16899,14242
17824,14242
17824,14576
16899,14576
" /> 
<polyline style="fill-rule:evenodd;"
points="16899,13001
16899,12667
17824,12667
17824,13001
16899,13001
" /> 
<polyline style="fill-rule:evenodd;"
points="16899,11427
16899,11092
17824,11092
17824,11427
16899,11427
" /> 
</g>
<g style="fill:#000000; fill-opacity:1.0; 
stroke:#000000; stroke-width:0; stroke-opacity:1; 
stroke-linecap:round; stroke-linejoin:round;">
</g>
<g style="fill:#008400; fill-opacity:1.0; 
stroke:#008400; stroke-width:0; stroke-opacity:1; 
stroke-linecap:round; stroke-linejoin:round;">
<polyline style="fill-rule:evenodd;"
points="15895,18592
15895,18100
16978,18100
16978,18592
15895,18592
" /> 
<polyline style="fill-rule:evenodd;"
points="15895,17017
15895,16525
16978,16525
16978,17017
15895,17017
" /> 
<polyline style="fill-rule:evenodd;"
points="15895,15442
15895,14950
16978,14950
16978,15442
15895,15442
" /> 
<polyline style="fill-rule:evenodd;"
points="15895,13868
15895,13375
16978,13375
16978,13868
15895,13868
" /> 
<polyline style="fill-rule:evenodd;"
points="15895,12293
15895,11801
16978,11801
16978,12293
15895,12293
" /> 
<polyline style="fill-rule:evenodd;"
points="16820,17805
16820,17312
17903,17312
17903,17805
16820,17805
" /> 
<polyline style="fill-rule:evenodd;"
points="16820,16230
16820,15738
17903,15738
17903,16230
16820,16230
" /> 
<polyline style="fill-rule:evenodd;"
points="16820,14655
16820,14163
17903,14163
17903,14655
16820,14655
" /> 
<polyline style="fill-rule:evenodd;"
points="16820,13080
16820,12588
17903,12588
17903,13080
16820,13080
" /> 
<polyline style="fill-rule:evenodd;"
points="16820,11505
16820,11013
17903,11013
17903,11505
16820,11505
" /> 
</g>
<g style="fill:#000000; fill-opacity:1.0; 
stroke:#000000; stroke-width:0; stroke-opacity:1; 
stroke-linecap:round; stroke-linejoin:round;">
</g>
<g style="fill:#008400; fill-opacity:1.0; 
stroke:#008400; stroke-width:0; stroke-opacity:1; 
stroke-linecap:round; stroke-linejoin:round;">
<polyline style="fill-rule:evenodd;"
points="15974,18513
15974,18179
16899,18179
16899,18513
15974,18513
" /> 
<polyline style="fill-rule:evenodd;"
points="15974,16938
15974,16604
16899,16604
16899,16938
15974,16938
" /> 
<polyline style="fill-rule:evenodd;"
points="15974,15364
15974,15029
16899,15029
16899,15364
15974,15364
" /> 
<polyline style="fill-rule:evenodd;"
points="15974,13789
15974,13454
16899,13454
16899,13789
15974,13789
" /> 
<polyline style="fill-rule:evenodd;"
points="15974,12214
15974,11879
16899,11879
16899,12214
15974,12214
" /> 
<polyline style="fill-rule:evenodd;"
points="16899,17726
16899,17391
17824,17391
17824,17726
16899,17726
" /> 
<polyline style="fill-rule:evenodd;"
points="16899,16151
16899,15816
17824,15816
17824,16151
16899,16151
" /> 
<polyline style="fill-rule:evenodd;"
points="16899,14576
16899,14242
17824,14242
17824,14576
16899,14576
" /> 
<polyline style="fill-rule:evenodd;"
points="16899,13001
16899,12667
17824,12667
17824,13001
16899,13001
" /> 
<polyline style="fill-rule:evenodd;"
points="16899,11427
16899,11092
17824,11092
17824,11427
16899,11427
" /> 
</g>
<g style="fill:#C2C2C2; fill-opacity:1.0; 
stroke:#C2C2C2; stroke-width:0; stroke-opacity:1; 
stroke-linecap:round; stroke-linejoin:round;">
<circle cx="18346.5" cy="16574.8" r="118.11" /> 
</g>
<g style="fill:#C2C2C2; fill-opacity:1.0; 
stroke:#C2C2C2; stroke-width:39.3701; stroke-opacity:1; 
stroke-linecap:round; stroke-linejoin:round;">
</g>
<g style="fill:#C2C2C2; fill-opacity:1.0; 
stroke:#C2C2C2; stroke-width:0; stroke-opacity:1; 
stroke-linecap:round; stroke-linejoin:round;">
<circle cx="19330.7" cy="21692.9" r="118.11" /> 
</g>
<g style="fill:#C2C2C2; fill-opacity:1.0; 
stroke:#C2C2C2; stroke-width:39.3701; stroke-opacity:1; 
stroke-linecap:round; stroke-linejoin:round;">
</g>
<g style="fill:#C2C2C2; fill-opacity:1.0; 
stroke:#C2C2C2; stroke-width:0; stroke-opacity:1; 
stroke-linecap:round; stroke-linejoin:round;">
<circle cx="16378" cy="19921.3" r="118.11" /> 
</g>
<g style="fill:#C2C2C2; fill-opacity:1.0; 
stroke:#C2C2C2; stroke-width:39.3701; stroke-opacity:1; 
stroke-linecap:round; stroke-linejoin:round;">
</g>
<g style="fill:#C2C2C2; fill-opacity:1.0; 
stroke:#C2C2C2; stroke-width:0; stroke-opacity:1; 
stroke-linecap:round; stroke-linejoin:round;">
<circle cx="13031.5" cy="17952.8" r="118.11" /> 
</g>
<g style="fill:#C2C2C2; fill-opacity:1.0; 
stroke:#C2C2C2; stroke-width:39.3701; stroke-opacity:1; 
stroke-linecap:round; stroke-linejoin:round;">
</g>
<g style="fill:#C2C2C2; fill-opacity:1.0; 
stroke:#C2C2C2; stroke-width:0; stroke-opacity:1; 
stroke-linecap:round; stroke-linejoin:round;">
<circle cx="19921.3" cy="15196.9" r="118.11" /> 
</g>
<g style="fill:#C2C2C2; fill-opacity:1.0; 
stroke:#C2C2C2; stroke-width:39.3701; stroke-opacity:1; 
stroke-linecap:round; stroke-linejoin:round;">
</g>
<g style="fill:#C2C2C2; fill-opacity:1.0; 
stroke:#C2C2C2; stroke-width:0; stroke-opacity:1; 
stroke-linecap:round; stroke-linejoin:round;">
<circle cx="22949.5" cy="15578.5" r="118.11" /> 
</g>
<g style="fill:#C2C2C2; fill-opacity:1.0; 
stroke:#C2C2C2; stroke-width:39.3701; stroke-opacity:1; 
stroke-linecap:round; stroke-linejoin:round;">
</g>
<g style="fill:#C2C2C2; fill-opacity:1.0; 
stroke:#C2C2C2; stroke-width:0; stroke-opacity:1; 
stroke-linecap:round; stroke-linejoin:round;">
<circle cx="24645.7" cy="16574.8" r="118.11" /> 
</g>
<g style="fill:#C2C2C2; fill-opacity:1.0; 
stroke:#C2C2C2; stroke-width:39.3701; stroke-opacity:1; 
stroke-linecap:round; stroke-linejoin:round;">
</g>
<g style="fill:#C2C2C2; fill-opacity:1.0; 
stroke:#C2C2C2; stroke-width:0; stroke-opacity:1; 
stroke-linecap:round; stroke-linejoin:round;">
<circle cx="13425.2" cy="11653.5" r="118.11" /> 
</g>
<g style="fill:#C2C2C2; fill-opacity:1.0; 
stroke:#C2C2C2; stroke-width:39.3701; stroke-opacity:1; 
stroke-linecap:round; stroke-linejoin:round;">
</g>
<g style="fill:#C2C2C2; fill-opacity:1.0; 
stroke:#C2C2C2; stroke-width:0; stroke-opacity:1; 
stroke-linecap:round; stroke-linejoin:round;">
<circle cx="16574.8" cy="9685.04" r="118.11" /> 
</g>
<g style="fill:#C2C2C2; fill-opacity:1.0; 
stroke:#C2C2C2; stroke-width:39.3701; stroke-opacity:1; 
stroke-linecap:round; stroke-linejoin:round;">
</g>
<g style="fill:#C2C2C2; fill-opacity:1.0; 
stroke:#C2C2C2; stroke-width:0; stroke-opacity:1; 
stroke-linecap:round; stroke-linejoin:round;">
<circle cx="19724.4" cy="8110.24" r="118.11" /> 
</g>
<g style="fill:#C2C2C2; fill-opacity:1.0; 
stroke:#C2C2C2; stroke-width:39.3701; stroke-opacity:1; 
stroke-linecap:round; stroke-linejoin:round;">
</g>
<g style="fill:#008400; fill-opacity:1.0; 
stroke:#008400; stroke-width:39.3701; stroke-opacity:1; 
stroke-linecap:round; stroke-linejoin:round;">
</g>
<g style="fill:#008400; fill-opacity:1.0; 
stroke:#008400; stroke-width:98.4252; stroke-opacity:1; 
stroke-linecap:round; stroke-linejoin:round;">
</g>
<g style="fill:#008400; fill-opacity:0.0; 
stroke:#008400; stroke-width:98.4252; stroke-opacity:1; 
stroke-linecap:round; stroke-linejoin:round;">
<path d="M16437 18346
L16437 17624
" />
<path d="M16437 17624
L17486 16574
" />
<path d="M17486 16574
L18346 16574
" />
<path d="M19330 21692
L19330 19232
" />
<path d="M19330 19232
L17657 17559
" />
<path d="M17657 17559
L17362 17559
" />
<path d="M16377 19921
L14803 18346
" />
<path d="M14803 18346
L14803 18110
" />
<path d="M14803 18110
L16141 16771
" />
<path d="M16141 16771
L16437 16771
" />
<path d="M13031 17952
L15000 15984
" />
<path d="M15000 15984
L17362 15984
" />
<path d="M19921 15196
L16437 15196
" />
<path d="M21780 14409
L22831 15460
" />
<path d="M17362 14409
L21780 14409
" />
<path d="M22831 15460
L22949 15578
" />
<path d="M21859 13622
L16998 13622
" />
<path d="M24645 16574
L24645 16407
" />
<path d="M16998 13622
L16437 13622
" />
<path d="M24645 16407
L21859 13622
" />
<path d="M13425 11653
L14606 12834
" />
<path d="M14606 12834
L17362 12834
" />
<path d="M16574 11456
L16437 11594
" />
<path d="M16437 11594
L16437 12047
" />
<path d="M16574 9685
L16574 11456
" />
<path d="M19724 8110
L19724 9192
" />
<path d="M19724 9192
L17657 11259
" />
<path d="M17657 11259
L17362 11259
" />
</g>
<g style="fill:#FFFFFF; fill-opacity:0.0; 
stroke:#FFFFFF; stroke-width:98.4252; stroke-opacity:1; 
stroke-linecap:round; stroke-linejoin:round;">
</g>
<g style="fill:#FFFFFF; fill-opacity:1.0; 
stroke:#FFFFFF; stroke-width:0; stroke-opacity:1; 
stroke-linecap:round; stroke-linejoin:round;">
<circle cx="18346.5" cy="16574.8" r="78.7402" /> 
</g>
<g style="fill:#FFFFFF; fill-opacity:1.0; 
stroke:#FFFFFF; stroke-width:39.3701; stroke-opacity:1; 
stroke-linecap:round; stroke-linejoin:round;">
</g>
<g style="fill:#FFFFFF; fill-opacity:1.0; 
stroke:#FFFFFF; stroke-width:0; stroke-opacity:1; 
stroke-linecap:round; stroke-linejoin:round;">
<circle cx="19330.7" cy="21692.9" r="78.7402" /> 
</g>
<g style="fill:#FFFFFF; fill-opacity:1.0; 
stroke:#FFFFFF; stroke-width:39.3701; stroke-opacity:1; 
stroke-linecap:round; stroke-linejoin:round;">
</g>
<g style="fill:#FFFFFF; fill-opacity:1.0; 
stroke:#FFFFFF; stroke-width:0; stroke-opacity:1; 
stroke-linecap:round; stroke-linejoin:round;">
<circle cx="16378" cy="19921.3" r="78.7402" /> 
</g>
<g style="fill:#FFFFFF; fill-opacity:1.0; 
stroke:#FFFFFF; stroke-width:39.3701; stroke-opacity:1; 
stroke-linecap:round; stroke-linejoin:round;">
</g>
<g style="fill:#FFFFFF; fill-opacity:1.0; 
stroke:#FFFFFF; stroke-width:0; stroke-opacity:1; 
stroke-linecap:round; stroke-linejoin:round;">
<circle cx="13031.5" cy="17952.8" r="78.7402" /> 
</g>
<g style="fill:#FFFFFF; fill-opacity:1.0; 
stroke:#FFFFFF; stroke-width:39.3701; stroke-opacity:1; 
stroke-linecap:round; stroke-linejoin:round;">
</g>
<g style="fill:#FFFFFF; fill-opacity:1.0; 
stroke:#FFFFFF; stroke-width:0; stroke-opacity:1; 
stroke-linecap:round; stroke-linejoin:round;">
<circle cx="19921.3" cy="15196.9" r="78.7402" /> 
</g>
<g style="fill:#FFFFFF; fill-opacity:1.0; 
stroke:#FFFFFF; stroke-width:39.3701; stroke-opacity:1; 
stroke-linecap:round; stroke-linejoin:round;">
</g>
<g style="fill:#FFFFFF; fill-opacity:1.0; 
stroke:#FFFFFF; stroke-width:0; stroke-opacity:1; 
stroke-linecap:round; stroke-linejoin:round;">
<circle cx="22949.5" cy="15578.5" r="78.7402" /> 
</g>
<g style="fill:#FFFFFF; fill-opacity:1.0; 
stroke:#FFFFFF; stroke-width:39.3701; stroke-opacity:1; 
stroke-linecap:round; stroke-linejoin:round;">
</g>
<g style="fill:#FFFFFF; fill-opacity:1.0; 
stroke:#FFFFFF; stroke-width:0; stroke-opacity:1; 
stroke-linecap:round; stroke-linejoin:round;">
<circle cx="24645.7" cy="16574.8" r="78.7402" /> 
</g>
<g style="fill:#FFFFFF; fill-opacity:1.0; 
stroke:#FFFFFF; stroke-width:39.3701; stroke-opacity:1; 
stroke-linecap:round; stroke-linejoin:round;">
</g>
<g style="fill:#FFFFFF; fill-opacity:1.0; 
stroke:#FFFFFF; stroke-width:0; stroke-opacity:1; 
stroke-linecap:round; stroke-linejoin:round;">
<circle cx="13425.2" cy="11653.5" r="78.7402" /> 
</g>
<g style="fill:#FFFFFF; fill-opacity:1.0; 
stroke:#FFFFFF; stroke-width:39.3701; stroke-opacity:1; 
stroke-linecap:round; stroke-linejoin:round;">
</g>
<g style="fill:#FFFFFF; fill-opacity:1.0; 
stroke:#FFFFFF; stroke-width:0; stroke-opacity:1; 
stroke-linecap:round; stroke-linejoin:round;">
<circle cx="16574.8" cy="9685.04" r="78.7402" /> 
</g>
<g style="fill:#FFFFFF; fill-opacity:1.0; 
stroke:#FFFFFF; stroke-width:39.3701; stroke-opacity:1; 
stroke-linecap:round; stroke-linejoin:round;">
</g>
<g style="fill:#FFFFFF; fill-opacity:1.0; 
stroke:#FFFFFF; stroke-width:0; stroke-opacity:1; 
stroke-linecap:round; stroke-linejoin:round;">
<circle cx="19724.4" cy="8110.24" r="78.7402" /> 
</g>
<g style="fill:#FFFFFF; fill-opacity:1.0; 
stroke:#FFFFFF; stroke-width:39.3701; stroke-opacity:1; 
stroke-linecap:round; stroke-linejoin:round;">
</g>
<g style="fill:#000000; fill-opacity:1.0; 
stroke:#000000; stroke-width:39.3701; stroke-opacity:1; 
stroke-linecap:round; stroke-linejoin:round;">
</g>
<g style="fill:#840000; fill-opacity:1.0; 
stroke:#840000; stroke-width:39.3701; stroke-opacity:1; 
stroke-linecap:round; stroke-linejoin:round;">
</g>
<g style="fill:#840000; fill-opacity:1.0; 
stroke:#840000; stroke-width:0; stroke-opacity:1; 
stroke-linecap:round; stroke-linejoin:round;">
<polyline style="fill-rule:evenodd;"
points="14045,11880
13060,10175
15447,8797
16431,10502
14045,11880
" /> 
<polyline style="fill-rule:evenodd;"
points="15108,13721
14123,12017
16510,10639
17494,12343
15108,13721
" /> 
<polyline style="fill-rule:evenodd;"
points="17113,10108
16129,8404
18516,7026
19500,8731
17113,10108
" /> 
<polyline style="fill-rule:evenodd;"
points="18176,11950
17192,10245
19579,8867
20563,10572
18176,11950
" /> 
<polyline style="fill-rule:evenodd;"
points="20182,8337
19198,6632
21584,5254
22569,6959
20182,8337
" /> 
<polyline style="fill-rule:evenodd;"
points="21245,10178
20261,8473
22647,7095
23632,8800
21245,10178
" /> 
<polyline style="fill-rule:evenodd;"
points="27559,9881
29527,9881
29527,12637
27559,12637
27559,9881
" /> 
<polyline style="fill-rule:evenodd;"
points="25433,9881
27401,9881
27401,12637
25433,12637
25433,9881
" /> 
<polyline style="fill-rule:evenodd;"
points="27559,13425
29527,13425
29527,16181
27559,16181
27559,13425
" /> 
<polyline style="fill-rule:evenodd;"
points="25433,13425
27401,13425
27401,16181
25433,16181
25433,13425
" /> 
<polyline style="fill-rule:evenodd;"
points="27559,16968
29527,16968
29527,19724
27559,19724
27559,16968
" /> 
<polyline style="fill-rule:evenodd;"
points="25433,16968
27401,16968
27401,19724
25433,19724
25433,16968
" /> 
<polyline style="fill-rule:evenodd;"
points="22569,22646
21584,24351
19198,22973
20182,21268
22569,22646
" /> 
<polyline style="fill-rule:evenodd;"
points="23632,20805
22647,22510
20261,21132
21245,19427
23632,20805
" /> 
<polyline style="fill-rule:evenodd;"
points="19500,20875
18516,22580
16129,21202
17113,19497
19500,20875
" /> 
<polyline style="fill-rule:evenodd;"
points="20563,19034
19579,20738
17192,19360
18176,17656
20563,19034
" /> 
<polyline style="fill-rule:evenodd;"
points="16431,19103
15447,20808
13060,19430
14045,17725
16431,19103
" /> 
<polyline style="fill-rule:evenodd;"
points="17494,17262
16510,18967
14123,17589
15108,15884
17494,17262
" /> 
</g>
<g style="fill:#C2C2C2; fill-opacity:1.0; 
stroke:#C2C2C2; stroke-width:0; stroke-opacity:1; 
stroke-linecap:round; stroke-linejoin:round;">
<circle cx="18346.5" cy="16574.8" r="118.11" /> 
</g>
<g style="fill:#C2C2C2; fill-opacity:1.0; 
stroke:#C2C2C2; stroke-width:39.3701; stroke-opacity:1; 
stroke-linecap:round; stroke-linejoin:round;">
</g>
<g style="fill:#C2C2C2; fill-opacity:1.0; 
stroke:#C2C2C2; stroke-width:0; stroke-opacity:1; 
stroke-linecap:round; stroke-linejoin:round;">
<circle cx="19330.7" cy="21692.9" r="118.11" /> 
</g>
<g style="fill:#C2C2C2; fill-opacity:1.0; 
stroke:#C2C2C2; stroke-width:39.3701; stroke-opacity:1; 
stroke-linecap:round; stroke-linejoin:round;">
</g>
<g style="fill:#C2C2C2; fill-opacity:1.0; 
stroke:#C2C2C2; stroke-width:0; stroke-opacity:1; 
stroke-linecap:round; stroke-linejoin:round;">
<circle cx="16378" cy="19921.3" r="118.11" /> 
</g>
<g style="fill:#C2C2C2; fill-opacity:1.0; 
stroke:#C2C2C2; stroke-width:39.3701; stroke-opacity:1; 
stroke-linecap:round; stroke-linejoin:round;">
</g>
<g style="fill:#C2C2C2; fill-opacity:1.0; 
stroke:#C2C2C2; stroke-width:0; stroke-opacity:1; 
stroke-linecap:round; stroke-linejoin:round;">
<circle cx="13031.5" cy="17952.8" r="118.11" /> 
</g>
<g style="fill:#C2C2C2; fill-opacity:1.0; 
stroke:#C2C2C2; stroke-width:39.3701; stroke-opacity:1; 
stroke-linecap:round; stroke-linejoin:round;">
</g>
<g style="fill:#C2C2C2; fill-opacity:1.0; 
stroke:#C2C2C2; stroke-width:0; stroke-opacity:1; 
stroke-linecap:round; stroke-linejoin:round;">
<circle cx="19921.3" cy="15196.9" r="118.11" /> 
</g>
<g style="fill:#C2C2C2; fill-opacity:1.0; 
stroke:#C2C2C2; stroke-width:39.3701; stroke-opacity:1; 
stroke-linecap:round; stroke-linejoin:round;">
</g>
<g style="fill:#C2C2C2; fill-opacity:1.0; 
stroke:#C2C2C2; stroke-width:0; stroke-opacity:1; 
stroke-linecap:round; stroke-linejoin:round;">
<circle cx="22949.5" cy="15578.5" r="118.11" /> 
</g>
<g style="fill:#C2C2C2; fill-opacity:1.0; 
stroke:#C2C2C2; stroke-width:39.3701; stroke-opacity:1; 
stroke-linecap:round; stroke-linejoin:round;">
</g>
<g style="fill:#C2C2C2; fill-opacity:1.0; 
stroke:#C2C2C2; stroke-width:0; stroke-opacity:1; 
stroke-linecap:round; stroke-linejoin:round;">
<circle cx="24645.7" cy="16574.8" r="118.11" /> 
</g>
<g style="fill:#C2C2C2; fill-opacity:1.0; 
stroke:#C2C2C2; stroke-width:39.3701; stroke-opacity:1; 
stroke-linecap:round; stroke-linejoin:round;">
</g>
<g style="fill:#C2C2C2; fill-opacity:1.0; 
stroke:#C2C2C2; stroke-width:0; stroke-opacity:1; 
stroke-linecap:round; stroke-linejoin:round;">
<circle cx="13425.2" cy="11653.5" r="118.11" /> 
</g>
<g style="fill:#C2C2C2; fill-opacity:1.0; 
stroke:#C2C2C2; stroke-width:39.3701; stroke-opacity:1; 
stroke-linecap:round; stroke-linejoin:round;">
</g>
<g style="fill:#C2C2C2; fill-opacity:1.0; 
stroke:#C2C2C2; stroke-width:0; stroke-opacity:1; 
stroke-linecap:round; stroke-linejoin:round;">
<circle cx="16574.8" cy="9685.04" r="118.11" /> 
</g>
<g style="fill:#C2C2C2; fill-opacity:1.0; 
stroke:#C2C2C2; stroke-width:39.3701; stroke-opacity:1; 
stroke-linecap:round; stroke-linejoin:round;">
</g>
<g style="fill:#C2C2C2; fill-opacity:1.0; 
stroke:#C2C2C2; stroke-width:0; stroke-opacity:1; 
stroke-linecap:round; stroke-linejoin:round;">
<circle cx="19724.4" cy="8110.24" r="118.11" /> 
</g>
<g style="fill:#C2C2C2; fill-opacity:1.0; 
stroke:#C2C2C2; stroke-width:39.3701; stroke-opacity:1; 
stroke-linecap:round; stroke-linejoin:round;">
</g>
<g style="fill:#840000; fill-opacity:1.0; 
stroke:#840000; stroke-width:39.3701; stroke-opacity:1; 
stroke-linecap:round; stroke-linejoin:round;">
</g>
<g style="fill:#840000; fill-opacity:1.0; 
stroke:#840000; stroke-width:98.4252; stroke-opacity:1; 
stroke-linecap:round; stroke-linejoin:round;">
</g>
<g style="fill:#840000; fill-opacity:0.0; 
stroke:#840000; stroke-width:98.4252; stroke-opacity:1; 
stroke-linecap:round; stroke-linejoin:round;">
<path d="M22732 9346
L22732 8926
" />
<path d="M26114 18897
L26153 18937
" />
<path d="M26153 14909
L26114 14948
" />
<path d="M20883 22810
L19766 21692
" />
<path d="M19766 21692
L19330 21692
" />
<path d="M17814 21038
L16697 19921
" />
<path d="M16697 19921
L16377 19921
" />
<path d="M18114 20749
L19290 20749
" />
<path d="M19290 20749
L19446 20905
" />
<path d="M14746 19267
L13432 17952
" />
<path d="M13432 17952
L13031 17952
" />
<path d="M14614 18768
L15790 18768
" />
<path d="M28543 11259
L28543 9783
" />
<path d="M23297 9474
L19921 12850
" />
<path d="M28543 9783
L28233 9474
" />
<path d="M28233 9474
L23297 9474
" />
<path d="M19921 12850
L19921 15196
" />
<path d="M25477 13050
L23067 15460
" />
<path d="M28543 13326
L28267 13050
" />
<path d="M28543 14803
L28543 13326
" />
<path d="M23067 15460
L22949 15578
" />
<path d="M28267 13050
L25477 13050
" />
<path d="M28543 18346
L28543 16870
" />
<path d="M28543 16870
L28248 16574
" />
<path d="M28248 16574
L24645 16574
" />
<path d="M14746 10339
L13432 11653
" />
<path d="M13432 11653
L13425 11653
" />
<path d="M17814 8567
L16697 9685
" />
<path d="M16697 9685
L16574 9685
" />
<path d="M20883 6795
L19724 7955
" />
<path d="M19724 7955
L19724 8110
" />
</g>
<g style="fill:#840000; fill-opacity:1.0; 
stroke:#840000; stroke-width:100; stroke-opacity:1; 
stroke-linecap:round; stroke-linejoin:round;">
<polyline style="fill-rule:evenodd;"
points="29516,2036
29516,9626
28791,9626
28754,9571
28445,9262
28348,9197
28233,9174
23483,9174
23800,8992
23860,8913
23886,8817
23873,8718
23823,8632
23412,7920
23327,7897
22014,8655
22575,9626
22661,9649
22750,9598
19709,12638
19644,12735
19622,12850
19622,14975
19609,14988
19553,15123
19553,15269
19609,15405
19712,15508
19847,15564
19994,15565
20129,15509
20233,15405
20289,15270
20289,15123
20233,14988
20220,14975
20220,12974
23421,9773
25207,9773
25183,9832
25183,11147
25245,11209
26367,11209
26367,11201
26467,11201
26467,11209
26475,11209
26475,11309
26467,11309
26467,11317
26367,11317
26367,11309
25245,11309
25183,11372
25183,12687
25221,12779
25274,12833
25265,12838
22894,15210
22876,15210
22741,15266
22637,15369
22581,15504
22581,15651
22637,15786
22740,15890
22875,15946
23022,15946
23157,15890
23261,15787
23317,15652
23317,15633
25183,13768
25183,14690
25245,14753
26367,14753
26367,14745
26467,14745
26467,14753
26475,14753
26475,14853
26467,14853
26467,14861
26367,14861
26367,14853
25245,14853
25183,14915
25183,16230
25201,16275
24867,16275
24854,16262
24719,16206
24572,16206
24437,16262
24333,16366
24277,16501
24277,16647
24333,16783
24436,16886
24572,16942
24718,16942
24853,16887
24866,16874
25201,16874
25183,16918
25183,18233
25245,18296
26367,18296
26367,18288
26467,18288
26467,18296
26475,18296
26475,18396
26467,18396
26467,19911
26529,19974
27451,19974
27478,19963
27559,19979
29516,19979
29516,27374
28383,28130
21841,24417
22789,22774
22817,22695
22839,22678
22889,22592
23300,21880
23277,21795
21964,21037
21960,21044
21874,20994
21878,20987
21814,20950
22014,20950
23327,21708
23412,21685
23823,20973
23873,20887
23886,20789
23860,20693
23800,20614
22661,19956
22575,19979
22014,20950
21814,20950
20565,20229
20480,20252
20069,20964
20019,21050
20015,21080
19961,21141
19810,21402
19766,21393
19552,21393
19539,21381
19509,21368
19653,21120
19658,21117
19722,21020
19733,20968
19748,20923
19770,20906
19820,20820
20231,20108
20217,20057
20592,20057
20615,20143
21928,20900
22489,19929
22466,19844
21327,19186
21228,19173
21132,19199
21053,19259
21003,19345
20592,20057
20217,20057
20208,20023
18896,19265
18892,19272
18805,19222
18809,19215
18746,19179
18946,19179
20258,19936
20344,19914
20755,19202
20804,19116
20817,19017
20792,18921
20731,18842
20067,18458
25183,18458
25183,19774
25221,19866
25291,19936
25383,19974
26304,19974
26367,19911
26367,18396
25245,18396
25183,18458
20067,18458
19592,18184
19507,18207
18946,19179
18746,19179
17497,18458
17411,18480
17000,19192
16951,19279
16947,19308
16892,19369
16742,19630
16697,19622
16599,19622
16586,19609
16463,19558
16652,19231
16680,19152
16702,19135
16751,19049
17162,18337
17149,18286
17524,18286
17547,18371
18859,19129
19420,18157
19397,18072
18258,17414
18160,17401
18063,17427
17985,17488
17935,17574
17524,18286
17149,18286
17140,18251
15827,17494
15823,17500
15737,17450
15741,17444
15677,17407
15877,17407
17190,18165
17275,18142
17686,17430
17736,17344
17749,17245
17723,17149
17662,17070
16523,16413
16438,16436
15877,17407
15677,17407
14428,16686
14343,16709
13932,17421
13882,17507
13878,17536
13824,17598
13705,17803
13643,17741
13546,17676
13432,17653
13252,17653
13240,17640
13105,17584
12958,17584
12823,17640
12719,17743
12663,17879
12663,18025
12719,18161
12822,18264
12957,18320
13104,18320
13239,18265
13252,18251
13308,18251
13396,18339
12840,19302
12838,19307
7917,16514
14455,16514
14478,16599
15791,17357
16351,16386
16329,16300
15190,15643
15091,15630
14995,15655
14916,15716
14866,15802
14455,16514
7917,16514
7587,16327
6585,15748
6585,13857
7237,13481
7929,13091
14455,13091
14866,13803
14916,13889
14995,13950
15091,13976
15190,13963
16329,13305
16351,13220
15791,12248
14478,13006
14455,13091
7929,13091
12851,10323
13396,11266
13377,11285
13352,11285
13216,11341
13113,11444
13057,11580
13057,11726
13112,11861
13216,11965
13351,12021
13498,12021
13633,11965
13737,11862
13738,11859
13824,12008
13878,12071
13882,12098
13932,12185
14343,12896
14428,12919
15677,12198
15877,12198
16438,13170
16523,13193
17662,12535
17723,12456
17749,12360
17736,12261
17686,12175
17275,11463
17190,11440
15877,12198
15677,12198
15741,12162
15737,12155
15823,12105
15827,12112
17140,11354
17149,11320
17524,11320
17935,12032
17985,12118
18063,12178
18160,12204
18258,12191
19397,11533
19420,11448
18859,10477
17547,11234
17524,11320
17149,11320
17162,11269
16751,10557
16702,10470
16678,10452
16652,10375
16455,10034
16501,10053
16647,10053
16760,10006
16892,10236
16947,10299
16951,10327
17000,10413
17411,11125
17497,11148
18746,10427
18946,10427
19507,11398
19592,11421
20731,10763
20792,10684
20817,10588
20804,10490
20755,10404
20344,9692
20258,9669
18946,10427
18746,10427
18809,10390
18805,10383
18892,10333
18896,10340
20208,9582
20217,9548
20592,9548
21003,10260
21053,10346
21132,10407
21228,10432
21327,10419
22466,9762
22489,9676
21928,8705
20615,9463
20592,9548
20217,9548
20231,9497
19820,8785
19770,8699
19747,8681
19721,8603
19648,8477
19650,8478
19797,8478
19932,8422
19935,8419
19961,8464
20016,8528
20019,8555
20069,8641
20480,9353
20565,9376
21878,8618
21874,8611
21960,8561
21964,8568
23277,7811
23300,7725
22889,7013
22839,6927
22815,6909
22789,6831
21875,5247
28581,1475
29516,2036
" /> 
</g>
<g style="fill:#FFFFFF; fill-opacity:1.0; 
stroke:#FFFFFF; stroke-width:100; stroke-opacity:1; 
stroke-linecap:round; stroke-linejoin:round;">
</g>
<g style="fill:#FFFFFF; fill-opacity:1.0; 
stroke:#FFFFFF; stroke-width:0; stroke-opacity:1; 
stroke-linecap:round; stroke-linejoin:round;">
<circle cx="18346.5" cy="16574.8" r="78.7402" /> 
</g>
<g style="fill:#FFFFFF; fill-opacity:1.0; 
stroke:#FFFFFF; stroke-width:39.3701; stroke-opacity:1; 
stroke-linecap:round; stroke-linejoin:round;">
</g>
<g style="fill:#FFFFFF; fill-opacity:1.0; 
stroke:#FFFFFF; stroke-width:0; stroke-opacity:1; 
stroke-linecap:round; stroke-linejoin:round;">
<circle cx="19330.7" cy="21692.9" r="78.7402" /> 
</g>
<g style="fill:#FFFFFF; fill-opacity:1.0; 
stroke:#FFFFFF; stroke-width:39.3701; stroke-opacity:1; 
stroke-linecap:round; stroke-linejoin:round;">
</g>
<g style="fill:#FFFFFF; fill-opacity:1.0; 
stroke:#FFFFFF; stroke-width:0; stroke-opacity:1; 
stroke-linecap:round; stroke-linejoin:round;">
<circle cx="16378" cy="19921.3" r="78.7402" /> 
</g>
<g style="fill:#FFFFFF; fill-opacity:1.0; 
stroke:#FFFFFF; stroke-width:39.3701; stroke-opacity:1; 
stroke-linecap:round; stroke-linejoin:round;">
</g>
<g style="fill:#FFFFFF; fill-opacity:1.0; 
stroke:#FFFFFF; stroke-width:0; stroke-opacity:1; 
stroke-linecap:round; stroke-linejoin:round;">
<circle cx="13031.5" cy="17952.8" r="78.7402" /> 
</g>
<g style="fill:#FFFFFF; fill-opacity:1.0; 
stroke:#FFFFFF; stroke-width:39.3701; stroke-opacity:1; 
stroke-linecap:round; stroke-linejoin:round;">
</g>
<g style="fill:#FFFFFF; fill-opacity:1.0; 
stroke:#FFFFFF; stroke-width:0; stroke-opacity:1; 
stroke-linecap:round; stroke-linejoin:round;">
<circle cx="19921.3" cy="15196.9" r="78.7402" /> 
</g>
<g style="fill:#FFFFFF; fill-opacity:1.0; 
stroke:#FFFFFF; stroke-width:39.3701; stroke-opacity:1; 
stroke-linecap:round; stroke-linejoin:round;">
</g>
<g style="fill:#FFFFFF; fill-opacity:1.0; 
stroke:#FFFFFF; stroke-width:0; stroke-opacity:1; 
stroke-linecap:round; stroke-linejoin:round;">
<circle cx="22949.5" cy="15578.5" r="78.7402" /> 
</g>
<g style="fill:#FFFFFF; fill-opacity:1.0; 
stroke:#FFFFFF; stroke-width:39.3701; stroke-opacity:1; 
stroke-linecap:round; stroke-linejoin:round;">
</g>
<g style="fill:#FFFFFF; fill-opacity:1.0; 
stroke:#FFFFFF; stroke-width:0; stroke-opacity:1; 
stroke-linecap:round; stroke-linejoin:round;">
<circle cx="24645.7" cy="16574.8" r="78.7402" /> 
</g>
<g style="fill:#FFFFFF; fill-opacity:1.0; 
stroke:#FFFFFF; stroke-width:39.3701; stroke-opacity:1; 
stroke-linecap:round; stroke-linejoin:round;">
</g>
<g style="fill:#FFFFFF; fill-opacity:1.0; 
stroke:#FFFFFF; stroke-width:0; stroke-opacity:1; 
stroke-linecap:round; stroke-linejoin:round;">
<circle cx="13425.2" cy="11653.5" r="78.7402" /> 
</g>
<g style="fill:#FFFFFF; fill-opacity:1.0; 
stroke:#FFFFFF; stroke-width:39.3701; stroke-opacity:1; 
stroke-linecap:round; stroke-linejoin:round;">
</g>
<g style="fill:#FFFFFF; fill-opacity:1.0; 
stroke:#FFFFFF; stroke-width:0; stroke-opacity:1; 
stroke-linecap:round; stroke-linejoin:round;">
<circle cx="16574.8" cy="9685.04" r="78.7402" /> 
</g>
<g style="fill:#FFFFFF; fill-opacity:1.0; 
stroke:#FFFFFF; stroke-width:39.3701; stroke-opacity:1; 
stroke-linecap:round; stroke-linejoin:round;">
</g>
<g style="fill:#FFFFFF; fill-opacity:1.0; 
stroke:#FFFFFF; stroke-width:0; stroke-opacity:1; 
stroke-linecap:round; stroke-linejoin:round;">
<circle cx="19724.4" cy="8110.24" r="78.7402" /> 
</g>
<g style="fill:#FFFFFF; fill-opacity:1.0; 
stroke:#FFFFFF; stroke-width:39.3701; stroke-opacity:1; 
stroke-linecap:round; stroke-linejoin:round;">
</g>
<g style="fill:#000000; fill-opacity:1.0; 
stroke:#000000; stroke-width:39.3701; stroke-opacity:1; 
stroke-linecap:round; stroke-linejoin:round;">
</g>
<g style="fill:#840000; fill-opacity:1.0; 
stroke:#840000; stroke-width:39.3701; stroke-opacity:1; 
stroke-linecap:round; stroke-linejoin:round;">
</g>
<g style="fill:#840000; fill-opacity:1.0; 
stroke:#840000; stroke-width:0; stroke-opacity:1; 
stroke-linecap:round; stroke-linejoin:round;">
<polyline style="fill-rule:evenodd;"
points="14016,11988
12953,10147
15476,8690
16539,10531
14016,11988
" /> 
<polyline style="fill-rule:evenodd;"
points="15079,13829
14016,11988
16539,10531
17602,12372
15079,13829
" /> 
<polyline style="fill-rule:evenodd;"
points="17084,10216
16021,8375
18544,6918
19607,8759
17084,10216
" /> 
<polyline style="fill-rule:evenodd;"
points="18147,12057
17084,10216
19607,8759
20670,10600
18147,12057
" /> 
<polyline style="fill-rule:evenodd;"
points="20153,8444
19090,6603
21613,5147
22676,6988
20153,8444
" /> 
<polyline style="fill-rule:evenodd;"
points="21216,10286
20153,8444
22676,6988
23739,8829
21216,10286
" /> 
<polyline style="fill-rule:evenodd;"
points="27480,9803
29606,9803
29606,12716
27480,12716
27480,9803
" /> 
<polyline style="fill-rule:evenodd;"
points="25354,9803
27480,9803
27480,12716
25354,12716
25354,9803
" /> 
<polyline style="fill-rule:evenodd;"
points="27480,13346
29606,13346
29606,16259
27480,16259
27480,13346
" /> 
<polyline style="fill-rule:evenodd;"
points="25354,13346
27480,13346
27480,16259
25354,16259
25354,13346
" /> 
<polyline style="fill-rule:evenodd;"
points="27480,16889
29606,16889
29606,19803
27480,19803
27480,16889
" /> 
<polyline style="fill-rule:evenodd;"
points="25354,16889
27480,16889
27480,19803
25354,19803
25354,16889
" /> 
<polyline style="fill-rule:evenodd;"
points="22676,22618
21613,24459
19090,23002
20153,21161
22676,22618
" /> 
<polyline style="fill-rule:evenodd;"
points="23739,20776
22676,22618
20153,21161
21216,19320
23739,20776
" /> 
<polyline style="fill-rule:evenodd;"
points="19607,20846
18544,22687
16021,21230
17084,19389
19607,20846
" /> 
<polyline style="fill-rule:evenodd;"
points="20670,19005
19607,20846
17084,19389
18147,17548
20670,19005
" /> 
<polyline style="fill-rule:evenodd;"
points="16539,19074
15476,20915
12953,19459
14016,17618
16539,19074
" /> 
<polyline style="fill-rule:evenodd;"
points="17602,17233
16539,19074
14016,17618
15079,15776
17602,17233
" /> 
</g>
<g style="fill:#000000; fill-opacity:1.0; 
stroke:#000000; stroke-width:0; stroke-opacity:1; 
stroke-linecap:round; stroke-linejoin:round;">
</g>
<g style="fill:#840000; fill-opacity:1.0; 
stroke:#840000; stroke-width:0; stroke-opacity:1; 
stroke-linecap:round; stroke-linejoin:round;">
<polyline style="fill-rule:evenodd;"
points="14045,11880
13060,10175
15447,8797
16431,10502
14045,11880
" /> 
<polyline style="fill-rule:evenodd;"
points="15108,13721
14123,12017
16510,10639
17494,12343
15108,13721
" /> 
<polyline style="fill-rule:evenodd;"
points="17113,10108
16129,8404
18516,7026
19500,8731
17113,10108
" /> 
<polyline style="fill-rule:evenodd;"
points="18176,11950
17192,10245
19579,8867
20563,10572
18176,11950
" /> 
<polyline style="fill-rule:evenodd;"
points="20182,8337
19198,6632
21584,5254
22569,6959
20182,8337
" /> 
<polyline style="fill-rule:evenodd;"
points="21245,10178
20261,8473
22647,7095
23632,8800
21245,10178
" /> 
<polyline style="fill-rule:evenodd;"
points="27559,9881
29527,9881
29527,12637
27559,12637
27559,9881
" /> 
<polyline style="fill-rule:evenodd;"
points="25433,9881
27401,9881
27401,12637
25433,12637
25433,9881
" /> 
<polyline style="fill-rule:evenodd;"
points="27559,13425
29527,13425
29527,16181
27559,16181
27559,13425
" /> 
<polyline style="fill-rule:evenodd;"
points="25433,13425
27401,13425
27401,16181
25433,16181
25433,13425
" /> 
<polyline style="fill-rule:evenodd;"
points="27559,16968
29527,16968
29527,19724
27559,19724
27559,16968
" /> 
<polyline style="fill-rule:evenodd;"
points="25433,16968
27401,16968
27401,19724
25433,19724
25433,16968
" /> 
<polyline style="fill-rule:evenodd;"
points="22569,22646
21584,24351
19198,22973
20182,21268
22569,22646
" /> 
<polyline style="fill-rule:evenodd;"
points="23632,20805
22647,22510
20261,21132
21245,19427
23632,20805
" /> 
<polyline style="fill-rule:evenodd;"
points="19500,20875
18516,22580
16129,21202
17113,19497
19500,20875
" /> 
<polyline style="fill-rule:evenodd;"
points="20563,19034
19579,20738
17192,19360
18176,17656
20563,19034
" /> 
<polyline style="fill-rule:evenodd;"
points="16431,19103
15447,20808
13060,19430
14045,17725
16431,19103
" /> 
<polyline style="fill-rule:evenodd;"
points="17494,17262
16510,18967
14123,17589
15108,15884
17494,17262
" /> 
</g>
<g style="fill:#000000; fill-opacity:1.0; 
stroke:#000000; stroke-width:0; stroke-opacity:1; 
stroke-linecap:round; stroke-linejoin:round;">
</g>
<g style="fill:#008484; fill-opacity:1.0; 
stroke:#008484; stroke-width:0; stroke-opacity:1; 
stroke-linecap:round; stroke-linejoin:round;">
</g>
<g style="fill:#008484; fill-opacity:1.0; 
stroke:#008484; stroke-width:78.7402; stroke-opacity:1; 
stroke-linecap:round; stroke-linejoin:round;">
</g>
<g style="fill:#008484; fill-opacity:0.0; 
stroke:#008484; stroke-width:78.7402; stroke-opacity:1; 
stroke-linecap:round; stroke-linejoin:round;">
<path d="M17559 8086
L29960 29566
" />
<path d="M29960 39
L17559 21519
" />
<path d="M4370 14803
L29173 14803
" />
<circle cx="21437" cy="14803.1" r="3174.12" /> 
</g>
<g style="fill:#C2C200; fill-opacity:0.0; 
stroke:#C2C200; stroke-width:78.7402; stroke-opacity:1; 
stroke-linecap:round; stroke-linejoin:round;">
</g>
<g style="fill:#C2C200; fill-opacity:0.0; 
stroke:#C2C200; stroke-width:59.0551; stroke-opacity:1; 
stroke-linecap:round; stroke-linejoin:round;">
<path d="M16943 7321
L17084 7564
L17096 7622
L17082 7674
L17043 7718
L17010 7737
" />
<path d="M17318 7256
L17449 7484
" />
<path d="M17161 7173
L17221 7464
L17432 7342
" />
<path d="M29626 14934
L29908 14934
L29964 14953
L30001 14990
L30020 15046
L30020 15084
" />
<path d="M29626 14784
L29626 14540
L29776 14671
L29776 14615
L29795 14578
L29814 14559
L29851 14540
L29945 14540
L29983 14559
L30001 14578
L30020 14615
L30020 14728
L30001 14765
L29983 14784
" />
<path d="M17159 21911
L17018 22155
L16974 22194
L16923 22208
L16865 22196
L16832 22177
" />
<path d="M17286 22028
L17312 22021
L17354 22023
L17435 22070
L17458 22105
L17465 22131
L17462 22173
L17444 22205
L17399 22245
L17092 22327
L17303 22449
" />
</g>
<g style="fill:#000000; fill-opacity:0.0; 
stroke:#000000; stroke-width:59.0551; stroke-opacity:1; 
stroke-linecap:round; stroke-linejoin:round;">
</g>
<g style="fill:#008400; fill-opacity:0.0; 
stroke:#008400; stroke-width:59.0551; stroke-opacity:1; 
stroke-linecap:round; stroke-linejoin:round;">
</g>
<g style="fill:#008400; fill-opacity:0.0; 
stroke:#008400; stroke-width:78.7402; stroke-opacity:1; 
stroke-linecap:round; stroke-linejoin:round;">
<path d="M29960 29566
L4389 14803
" />
<path d="M433 17755
L39 17755
" />
<path d="M29960 31535
L29960 31141
" />
<path d="M29960 30748
L29960 31535
" />
<path d="M29960 25629
L29960 30748
" />
<path d="M29960 25629
L29960 39
" />
</g>
<g style="fill:#000000; fill-opacity:0.0; 
stroke:#000000; stroke-width:78.7402; stroke-opacity:1; 
stroke-linecap:round; stroke-linejoin:round;">
</g>
<g style="fill:#C2C200; fill-opacity:0.0; 
stroke:#C2C200; stroke-width:78.7402; stroke-opacity:1; 
stroke-linecap:round; stroke-linejoin:round;">
</g>
<g style="fill:#C2C200; fill-opacity:0.0; 
stroke:#C2C200; stroke-width:59.0551; stroke-opacity:1; 
stroke-linecap:round; stroke-linejoin:round;">
<path d="M4728 14607
L4389 14803
" />
<path d="M29960 39
L4728 14607
" />
<path d="M29960 29566
L4389 14803
" />
<path d="M29960 39
L29960 29566
" />
</g> 
</svg>
