  0
SECTION
  2
HEADER
  9
$ACADVER
  1
AC1014
  9
$HANDSEED
  5
FFFF
  9
$MEASUREMENT
 70
     1
  0
ENDSEC
  0
SECTION
  2
TABLES
  0
TABLE
  2
VPORT
  5
8
330
0
100
AcDbSymbolTable
 70
     4
  0
VPORT
  5
2E
330
8
100
AcDbSymbolTableRecord
100
AcDbViewportTableRecord
  2
*ACTIVE
 70
     0
 10
0.0
 20
0.0
 11
1.0
 21
1.0
 12
210.0
 22
148.5
 13
0.0
 23
0.0
 14
10.0
 24
10.0
 15
10.0
 25
10.0
 16
0.0
 26
0.0
 36
1.0
 17
0.0
 27
0.0
 37
0.0
 40
341.0
 41
1.24
 42
50.0
 43
0.0
 44
0.0
 50
0.0
 51
0.0
 71
     0
 72
   100
 73
     1
 74
     3
 75
     0
 76
     0
 77
     0
 78
     0
  0
ENDTAB
  0
TABLE
  2
LTYPE
  5
5
330
0
100
AcDbSymbolTable
 70
     1
  0
LTYPE
  5
14
330
5
100
AcDbSymbolTableRecord
100
AcDbLinetypeTableRecord
  2
BYBLOCK
 70
     0
  3

 72
    65
 73
     0
 40
0.0
  0
LTYPE
  5
15
330
5
100
AcDbSymbolTableRecord
100
AcDbLinetypeTableRecord
  2
BYLAYER
 70
     0
  3

 72
    65
 73
     0
 40
0.0
  0
LTYPE
  5
16
330
5
100
AcDbSymbolTableRecord
100
AcDbLinetypeTableRecord
  2
CONTINUOUS
 70
     0
  3
Solid line
 72
    65
 73
     0
 40
0.0
  0
ENDTAB
  0
TABLE
  2
LAYER
  5
2
100
AcDbSymbolTable
 70
2
  0
LAYER
  5
50
100
AcDbSymbolTableRecord
100
AcDbLayerTableRecord
  2
0
 70
0
  6
CONTINUOUS
  0
LAYER
  5
51
100
AcDbSymbolTableRecord
100
AcDbLayerTableRecord
  2
Layer_1
 70
0
  6
CONTINUOUS
  0
ENDTAB
  0
TABLE
  2
STYLE
  5
3
330
0
100
AcDbSymbolTable
 70
     1
  0
STYLE
  5
11
330
3
100
AcDbSymbolTableRecord
100
AcDbTextStyleTableRecord
  2
STANDARD
 70
     0
 40
0.0
 41
1.0
 50
0.0
 71
     0
 42
2.5
  3
txt
  4

  0
ENDTAB
  0
TABLE
  2
VIEW
  5
6
330
0
100
AcDbSymbolTable
 70
     0
  0
ENDTAB
  0
TABLE
  2
UCS
  5
7
330
0
100
AcDbSymbolTable
 70
     0
  0
ENDTAB
  0
TABLE
  2
APPID
  5
9
330
0
100
AcDbSymbolTable
 70
     2
  0
APPID
  5
12
330
9
100
AcDbSymbolTableRecord
100
AcDbRegAppTableRecord
  2
ACAD
 70
     0
  0
ENDTAB
  0
TABLE
  2
DIMSTYLE
  5
A
330
0
100
AcDbSymbolTable
 70
     1
  0
DIMSTYLE
105
27
330
A
100
AcDbSymbolTableRecord
100
AcDbDimStyleTableRecord
  2
ISO-25
 70
     0
  3

  4

  5

  6

  7

 40
1.0
 41
2.5
 42
0.625
 43
3.75
 44
1.25
 45
0.0
 46
0.0
 47
0.0
 48
0.0
140
2.5
141
2.5
142
0.0
143
0.03937007874016
144
1.0
145
0.0
146
1.0
147
0.625
 71
     0
 72
     0
 73
     0
 74
     0
 75
     0
 76
     0
 77
     1
 78
     8
170
     0
171
     3
172
     1
173
     0
174
     0
175
     0
176
     0
177
     0
178
     0
270
     2
271
     2
272
     2
273
     2
274
     3
340
11
275
     0
280
     0
281
     0
282
     0
283
     0
284
     8
285
     0
286
     0
287
     3
288
     0
  0
ENDTAB
  0
TABLE
  2
BLOCK_RECORD
  5
1
330
0
100
AcDbSymbolTable
 70
     1
  0
BLOCK_RECORD
  5
1F
330
1
100
AcDbSymbolTableRecord
100
AcDbBlockTableRecord
  2
*MODEL_SPACE
  0
BLOCK_RECORD
  5
1B
330
1
100
AcDbSymbolTableRecord
100
AcDbBlockTableRecord
  2
*PAPER_SPACE
  0
ENDTAB
  0
ENDSEC
  0
SECTION
  2
BLOCKS
  0
BLOCK
  5
20
330
1F
100
AcDbEntity
  8
0
100
AcDbBlockBegin
  2
*MODEL_SPACE
 70
     0
 10
0.0
 20
0.0
 30
0.0
  3
*MODEL_SPACE
  1

  0
ENDBLK
  5
21
330
1F
100
AcDbEntity
  8
0
100
AcDbBlockEnd
  0
BLOCK
  5
1C
330
1B
100
AcDbEntity
 67
     1
  8
0
100
AcDbBlockBegin
  2
*PAPER_SPACE
  1

  0
ENDBLK
  5
1D
330
1B
100
AcDbEntity
 67
     1
  8
0
100
AcDbBlockEnd
  0
ENDSEC
  0
SECTION
  2
ENTITIES
  0
LWPOLYLINE
  5
100
100
AcDbEntity
  8
Layer_1
 62
7
100
AcDbPolyline
 90
1280
 70
1
 10
8.999145
 20
4.602050
 30
0.0
 10
9.097355
 20
4.652250
 30
0.0
 10
9.195565
 20
4.702450
 30
0.0
 10
9.293775
 20
4.752650
 30
0.0
 10
9.391985
 20
4.802850
 30
0.0
 10
9.490195
 20
4.853050
 30
0.0
 10
9.588405
 20
4.903250
 30
0.0
 10
9.686615
 20
4.953450
 30
0.0
 10
9.784825
 20
5.003650
 30
0.0
 10
9.883035
 20
5.053850
 30
0.0
 10
9.981245
 20
5.104050
 30
0.0
 10
10.079454
 20
5.154250
 30
0.0
 10
10.177664
 20
5.204450
 30
0.0
 10
10.275874
 20
5.254650
 30
0.0
 10
10.374084
 20
5.304850
 30
0.0
 10
10.472294
 20
5.355050
 30
0.0
 10
10.570504
 20
5.405250
 30
0.0
 10
10.618184
 20
5.416350
 30
0.0
 10
10.665864
 20
5.427450
 30
0.0
 10
10.713544
 20
5.438550
 30
0.0
 10
10.761224
 20
5.449750
 30
0.0
 10
10.808904
 20
5.460850
 30
0.0
 10
10.856584
 20
5.471950
 30
0.0
 10
10.904264
 20
5.483050
 30
0.0
 10
10.951944
 20
5.494250
 30
0.0
 10
10.999624
 20
5.505350
 30
0.0
 10
11.047304
 20
5.516450
 30
0.0
 10
11.094984
 20
5.527550
 30
0.0
 10
11.142664
 20
5.538750
 30
0.0
 10
11.190344
 20
5.549850
 30
0.0
 10
11.238024
 20
5.560950
 30
0.0
 10
11.285704
 20
5.572050
 30
0.0
 10
11.333384
 20
5.583250
 30
0.0
 10
11.515249
 20
5.558850
 30
0.0
 10
11.697115
 20
5.534450
 30
0.0
 10
11.878980
 20
5.510050
 30
0.0
 10
12.060845
 20
5.485650
 30
0.0
 10
12.242709
 20
5.461250
 30
0.0
 10
12.424575
 20
5.436850
 30
0.0
 10
12.606440
 20
5.412450
 30
0.0
 10
12.788305
 20
5.388050
 30
0.0
 10
12.970170
 20
5.363650
 30
0.0
 10
13.152036
 20
5.339250
 30
0.0
 10
13.333901
 20
5.314850
 30
0.0
 10
13.515765
 20
5.290450
 30
0.0
 10
13.697630
 20
5.266050
 30
0.0
 10
13.879495
 20
5.241650
 30
0.0
 10
14.061361
 20
5.217250
 30
0.0
 10
14.243225
 20
5.192850
 30
0.0
 10
14.270685
 20
5.104250
 30
0.0
 10
14.298145
 20
5.015650
 30
0.0
 10
14.325605
 20
4.927050
 30
0.0
 10
14.353065
 20
4.838450
 30
0.0
 10
14.380525
 20
4.749850
 30
0.0
 10
14.407985
 20
4.661250
 30
0.0
 10
14.435445
 20
4.572650
 30
0.0
 10
14.462905
 20
4.484050
 30
0.0
 10
14.490365
 20
4.395450
 30
0.0
 10
14.517825
 20
4.306850
 30
0.0
 10
14.545285
 20
4.218250
 30
0.0
 10
14.572745
 20
4.129650
 30
0.0
 10
14.600205
 20
4.041050
 30
0.0
 10
14.627665
 20
3.952450
 30
0.0
 10
14.655125
 20
3.863850
 30
0.0
 10
14.682585
 20
3.775250
 30
0.0
 10
14.546378
 20
3.652300
 30
0.0
 10
14.410172
 20
3.529340
 30
0.0
 10
14.273964
 20
3.406390
 30
0.0
 10
14.137758
 20
3.283430
 30
0.0
 10
14.001552
 20
3.160480
 30
0.0
 10
13.865345
 20
3.037530
 30
0.0
 10
13.729138
 20
2.914570
 30
0.0
 10
13.592932
 20
2.791620
 30
0.0
 10
13.456726
 20
2.668660
 30
0.0
 10
13.320518
 20
2.545710
 30
0.0
 10
13.184312
 20
2.422760
 30
0.0
 10
13.048106
 20
2.299800
 30
0.0
 10
12.911899
 20
2.176850
 30
0.0
 10
12.775693
 20
2.053900
 30
0.0
 10
12.639486
 20
1.930940
 30
0.0
 10
12.503280
 20
1.807990
 30
0.0
 10
12.457650
 20
1.790190
 30
0.0
 10
12.412020
 20
1.772390
 30
0.0
 10
12.366390
 20
1.754590
 30
0.0
 10
12.320760
 20
1.736790
 30
0.0
 10
12.275130
 20
1.718990
 30
0.0
 10
12.229500
 20
1.701190
 30
0.0
 10
12.183870
 20
1.683390
 30
0.0
 10
12.138240
 20
1.665590
 30
0.0
 10
12.092610
 20
1.647790
 30
0.0
 10
12.046980
 20
1.629990
 30
0.0
 10
12.001350
 20
1.612190
 30
0.0
 10
11.955720
 20
1.594390
 30
0.0
 10
11.910090
 20
1.576590
 30
0.0
 10
11.864460
 20
1.558790
 30
0.0
 10
11.818830
 20
1.540990
 30
0.0
 10
11.773200
 20
1.523190
 30
0.0
 10
11.663814
 20
1.509090
 30
0.0
 10
11.554428
 20
1.494990
 30
0.0
 10
11.445043
 20
1.480890
 30
0.0
 10
11.335657
 20
1.466790
 30
0.0
 10
11.226270
 20
1.452690
 30
0.0
 10
11.116884
 20
1.438590
 30
0.0
 10
11.007499
 20
1.424490
 30
0.0
 10
10.898113
 20
1.410390
 30
0.0
 10
10.788727
 20
1.396290
 30
0.0
 10
10.679342
 20
1.382190
 30
0.0
 10
10.569956
 20
1.368090
 30
0.0
 10
10.460570
 20
1.353990
 30
0.0
 10
10.351183
 20
1.339890
 30
0.0
 10
10.241798
 20
1.325790
 30
0.0
 10
10.132412
 20
1.311690
 30
0.0
 10
10.023026
 20
1.297590
 30
0.0
 10
10.020626
 20
1.118600
 30
0.0
 10
10.018226
 20
0.939610
 30
0.0
 10
10.015826
 20
0.760620
 30
0.0
 10
10.013426
 20
0.581640
 30
0.0
 10
10.011026
 20
0.402650
 30
0.0
 10
10.008626
 20
0.223660
 30
0.0
 10
10.006226
 20
0.044670
 30
0.0
 10
10.003826
 20
-0.134320
 30
0.0
 10
10.001426
 20
-0.313300
 30
0.0
 10
9.999026
 20
-0.492290
 30
0.0
 10
9.996626
 20
-0.671280
 30
0.0
 10
9.994226
 20
-0.850270
 30
0.0
 10
9.991826
 20
-1.029260
 30
0.0
 10
9.989426
 20
-1.208240
 30
0.0
 10
9.987026
 20
-1.387230
 30
0.0
 10
9.984626
 20
-1.566220
 30
0.0
 10
10.093583
 20
-1.583320
 30
0.0
 10
10.202541
 20
-1.600420
 30
0.0
 10
10.311500
 20
-1.617520
 30
0.0
 10
10.420458
 20
-1.634620
 30
0.0
 10
10.529417
 20
-1.651720
 30
0.0
 10
10.638375
 20
-1.668820
 30
0.0
 10
10.747333
 20
-1.685920
 30
0.0
 10
10.856292
 20
-1.703020
 30
0.0
 10
10.965250
 20
-1.720120
 30
0.0
 10
11.074207
 20
-1.737220
 30
0.0
 10
11.183167
 20
-1.754320
 30
0.0
 10
11.292126
 20
-1.771420
 30
0.0
 10
11.401085
 20
-1.788520
 30
0.0
 10
11.510045
 20
-1.805620
 30
0.0
 10
11.619004
 20
-1.822720
 30
0.0
 10
11.727963
 20
-1.839820
 30
0.0
 10
11.773093
 20
-1.858820
 30
0.0
 10
11.818223
 20
-1.877820
 30
0.0
 10
11.863353
 20
-1.896820
 30
0.0
 10
11.908483
 20
-1.915820
 30
0.0
 10
11.953613
 20
-1.934820
 30
0.0
 10
11.998743
 20
-1.953820
 30
0.0
 10
12.043873
 20
-1.972820
 30
0.0
 10
12.089003
 20
-1.991820
 30
0.0
 10
12.134133
 20
-2.010820
 30
0.0
 10
12.179263
 20
-2.029820
 30
0.0
 10
12.224393
 20
-2.048820
 30
0.0
 10
12.269523
 20
-2.067820
 30
0.0
 10
12.314653
 20
-2.086820
 30
0.0
 10
12.359783
 20
-2.105820
 30
0.0
 10
12.404913
 20
-2.124820
 30
0.0
 10
12.450043
 20
-2.143820
 30
0.0
 10
12.582835
 20
-2.270450
 30
0.0
 10
12.715627
 20
-2.397080
 30
0.0
 10
12.848419
 20
-2.523720
 30
0.0
 10
12.981210
 20
-2.650350
 30
0.0
 10
13.114002
 20
-2.776980
 30
0.0
 10
13.246794
 20
-2.903610
 30
0.0
 10
13.379586
 20
-3.030240
 30
0.0
 10
13.512377
 20
-3.156870
 30
0.0
 10
13.645169
 20
-3.283510
 30
0.0
 10
13.777961
 20
-3.410140
 30
0.0
 10
13.910752
 20
-3.536770
 30
0.0
 10
14.043544
 20
-3.663400
 30
0.0
 10
14.176336
 20
-3.790040
 30
0.0
 10
14.309128
 20
-3.916670
 30
0.0
 10
14.441919
 20
-4.043300
 30
0.0
 10
14.574711
 20
-4.169930
 30
0.0
 10
14.544841
 20
-4.257730
 30
0.0
 10
14.514971
 20
-4.345530
 30
0.0
 10
14.485101
 20
-4.433330
 30
0.0
 10
14.455231
 20
-4.521130
 30
0.0
 10
14.425361
 20
-4.608930
 30
0.0
 10
14.395491
 20
-4.696730
 30
0.0
 10
14.365621
 20
-4.784530
 30
0.0
 10
14.335751
 20
-4.872330
 30
0.0
 10
14.305881
 20
-4.960130
 30
0.0
 10
14.276011
 20
-5.047930
 30
0.0
 10
14.246141
 20
-5.135730
 30
0.0
 10
14.216271
 20
-5.223530
 30
0.0
 10
14.186401
 20
-5.311330
 30
0.0
 10
14.156531
 20
-5.399130
 30
0.0
 10
14.126661
 20
-5.486930
 30
0.0
 10
14.096851
 20
-5.574730
 30
0.0
 10
13.914386
 20
-5.594130
 30
0.0
 10
13.731923
 20
-5.613530
 30
0.0
 10
13.549459
 20
-5.632930
 30
0.0
 10
13.366995
 20
-5.652330
 30
0.0
 10
13.184531
 20
-5.671730
 30
0.0
 10
13.002067
 20
-5.691130
 30
0.0
 10
12.819603
 20
-5.710530
 30
0.0
 10
12.637139
 20
-5.729930
 30
0.0
 10
12.454675
 20
-5.749330
 30
0.0
 10
12.272212
 20
-5.768730
 30
0.0
 10
12.089747
 20
-5.788130
 30
0.0
 10
11.907283
 20
-5.807530
 30
0.0
 10
11.724819
 20
-5.826930
 30
0.0
 10
11.542355
 20
-5.846330
 30
0.0
 10
11.359891
 20
-5.865730
 30
0.0
 10
11.177428
 20
-5.885630
 30
0.0
 10
11.130078
 20
-5.873130
 30
0.0
 10
11.082728
 20
-5.860630
 30
0.0
 10
11.035378
 20
-5.848130
 30
0.0
 10
10.988028
 20
-5.835630
 30
0.0
 10
10.940678
 20
-5.823130
 30
0.0
 10
10.893328
 20
-5.810630
 30
0.0
 10
10.845978
 20
-5.798130
 30
0.0
 10
10.798618
 20
-5.785630
 30
0.0
 10
10.751268
 20
-5.773130
 30
0.0
 10
10.703918
 20
-5.760630
 30
0.0
 10
10.656568
 20
-5.748130
 30
0.0
 10
10.609218
 20
-5.735630
 30
0.0
 10
10.561868
 20
-5.723130
 30
0.0
 10
10.514518
 20
-5.710630
 30
0.0
 10
10.467168
 20
-5.698130
 30
0.0
 10
10.419818
 20
-5.685630
 30
0.0
 10
10.323018
 20
-5.632730
 30
0.0
 10
10.226218
 20
-5.579830
 30
0.0
 10
10.129418
 20
-5.526930
 30
0.0
 10
10.032618
 20
-5.474030
 30
0.0
 10
9.935818
 20
-5.421130
 30
0.0
 10
9.839018
 20
-5.368230
 30
0.0
 10
9.742218
 20
-5.315330
 30
0.0
 10
9.645418
 20
-5.262430
 30
0.0
 10
9.548618
 20
-5.209530
 30
0.0
 10
9.451818
 20
-5.156630
 30
0.0
 10
9.355018
 20
-5.103730
 30
0.0
 10
9.258218
 20
-5.050830
 30
0.0
 10
9.161418
 20
-4.997930
 30
0.0
 10
9.064618
 20
-4.945030
 30
0.0
 10
8.967818
 20
-4.892130
 30
0.0
 10
8.871018
 20
-4.839230
 30
0.0
 10
8.763832
 20
-4.982600
 30
0.0
 10
8.656647
 20
-5.125960
 30
0.0
 10
8.549461
 20
-5.269330
 30
0.0
 10
8.442275
 20
-5.412690
 30
0.0
 10
8.335090
 20
-5.556060
 30
0.0
 10
8.227904
 20
-5.699430
 30
0.0
 10
8.120718
 20
-5.842790
 30
0.0
 10
8.013533
 20
-5.986160
 30
0.0
 10
7.906347
 20
-6.129520
 30
0.0
 10
7.799161
 20
-6.272890
 30
0.0
 10
7.691976
 20
-6.416260
 30
0.0
 10
7.584790
 20
-6.559620
 30
0.0
 10
7.477604
 20
-6.702990
 30
0.0
 10
7.370418
 20
-6.846350
 30
0.0
 10
7.263233
 20
-6.989720
 30
0.0
 10
7.156047
 20
-7.133080
 30
0.0
 10
7.234137
 20
-7.210980
 30
0.0
 10
7.312227
 20
-7.288880
 30
0.0
 10
7.390317
 20
-7.366780
 30
0.0
 10
7.468407
 20
-7.444680
 30
0.0
 10
7.546497
 20
-7.522580
 30
0.0
 10
7.624587
 20
-7.600480
 30
0.0
 10
7.702677
 20
-7.678380
 30
0.0
 10
7.780767
 20
-7.756280
 30
0.0
 10
7.858857
 20
-7.834180
 30
0.0
 10
7.936947
 20
-7.912080
 30
0.0
 10
8.015037
 20
-7.989980
 30
0.0
 10
8.093127
 20
-8.067880
 30
0.0
 10
8.171217
 20
-8.145780
 30
0.0
 10
8.249307
 20
-8.223680
 30
0.0
 10
8.327397
 20
-8.301580
 30
0.0
 10
8.405487
 20
-8.379480
 30
0.0
 10
8.430827
 20
-8.421380
 30
0.0
 10
8.456167
 20
-8.463280
 30
0.0
 10
8.481507
 20
-8.505180
 30
0.0
 10
8.506847
 20
-8.547080
 30
0.0
 10
8.532187
 20
-8.588980
 30
0.0
 10
8.557527
 20
-8.630880
 30
0.0
 10
8.582867
 20
-8.672780
 30
0.0
 10
8.608207
 20
-8.714680
 30
0.0
 10
8.633547
 20
-8.756580
 30
0.0
 10
8.658887
 20
-8.798480
 30
0.0
 10
8.684227
 20
-8.840380
 30
0.0
 10
8.709567
 20
-8.882280
 30
0.0
 10
8.734907
 20
-8.924180
 30
0.0
 10
8.760247
 20
-8.966080
 30
0.0
 10
8.785587
 20
-9.007980
 30
0.0
 10
8.810927
 20
-9.049880
 30
0.0
 10
8.843927
 20
-9.230390
 30
0.0
 10
8.876927
 20
-9.410890
 30
0.0
 10
8.909927
 20
-9.591390
 30
0.0
 10
8.942927
 20
-9.771890
 30
0.0
 10
8.975927
 20
-9.952390
 30
0.0
 10
9.008927
 20
-10.132890
 30
0.0
 10
9.041927
 20
-10.313390
 30
0.0
 10
9.074927
 20
-10.493900
 30
0.0
 10
9.107927
 20
-10.674400
 30
0.0
 10
9.140927
 20
-10.854900
 30
0.0
 10
9.173927
 20
-11.035400
 30
0.0
 10
9.206927
 20
-11.215900
 30
0.0
 10
9.239927
 20
-11.396400
 30
0.0
 10
9.272927
 20
-11.576900
 30
0.0
 10
9.305927
 20
-11.757410
 30
0.0
 10
9.338927
 20
-11.937910
 30
0.0
 10
9.263137
 20
-11.991410
 30
0.0
 10
9.187347
 20
-12.044910
 30
0.0
 10
9.111557
 20
-12.098410
 30
0.0
 10
9.035767
 20
-12.151910
 30
0.0
 10
8.959977
 20
-12.205410
 30
0.0
 10
8.884187
 20
-12.258910
 30
0.0
 10
8.808397
 20
-12.312410
 30
0.0
 10
8.732607
 20
-12.365910
 30
0.0
 10
8.656817
 20
-12.419410
 30
0.0
 10
8.581027
 20
-12.472910
 30
0.0
 10
8.505237
 20
-12.526410
 30
0.0
 10
8.429447
 20
-12.579910
 30
0.0
 10
8.353657
 20
-12.633410
 30
0.0
 10
8.277867
 20
-12.686910
 30
0.0
 10
8.202077
 20
-12.740410
 30
0.0
 10
8.126277
 20
-12.793810
 30
0.0
 10
7.967250
 20
-12.702310
 30
0.0
 10
7.808223
 20
-12.610810
 30
0.0
 10
7.649196
 20
-12.519310
 30
0.0
 10
7.490169
 20
-12.427810
 30
0.0
 10
7.331142
 20
-12.336310
 30
0.0
 10
7.172115
 20
-12.244810
 30
0.0
 10
7.013088
 20
-12.153310
 30
0.0
 10
6.854061
 20
-12.061810
 30
0.0
 10
6.695034
 20
-11.970310
 30
0.0
 10
6.536007
 20
-11.878810
 30
0.0
 10
6.376980
 20
-11.787310
 30
0.0
 10
6.217953
 20
-11.695710
 30
0.0
 10
6.058926
 20
-11.604210
 30
0.0
 10
5.899899
 20
-11.512710
 30
0.0
 10
5.740872
 20
-11.421210
 30
0.0
 10
5.581845
 20
-11.329710
 30
0.0
 10
5.550855
 20
-11.291810
 30
0.0
 10
5.519865
 20
-11.253910
 30
0.0
 10
5.488875
 20
-11.216010
 30
0.0
 10
5.457885
 20
-11.178110
 30
0.0
 10
5.426895
 20
-11.140210
 30
0.0
 10
5.395905
 20
-11.102310
 30
0.0
 10
5.364915
 20
-11.064410
 30
0.0
 10
5.333925
 20
-11.026510
 30
0.0
 10
5.302935
 20
-10.988610
 30
0.0
 10
5.271945
 20
-10.950710
 30
0.0
 10
5.240955
 20
-10.912810
 30
0.0
 10
5.209965
 20
-10.874910
 30
0.0
 10
5.178975
 20
-10.837010
 30
0.0
 10
5.147985
 20
-10.799110
 30
0.0
 10
5.116995
 20
-10.761210
 30
0.0
 10
5.085995
 20
-10.723310
 30
0.0
 10
5.038745
 20
-10.623610
 30
0.0
 10
4.991505
 20
-10.523910
 30
0.0
 10
4.944255
 20
-10.424210
 30
0.0
 10
4.897005
 20
-10.324510
 30
0.0
 10
4.849765
 20
-10.224810
 30
0.0
 10
4.802515
 20
-10.125110
 30
0.0
 10
4.755265
 20
-10.025410
 30
0.0
 10
4.708025
 20
-9.925710
 30
0.0
 10
4.660775
 20
-9.826010
 30
0.0
 10
4.613535
 20
-9.726310
 30
0.0
 10
4.566285
 20
-9.626610
 30
0.0
 10
4.519045
 20
-9.526910
 30
0.0
 10
4.471795
 20
-9.427210
 30
0.0
 10
4.424555
 20
-9.327510
 30
0.0
 10
4.377315
 20
-9.227810
 30
0.0
 10
4.330065
 20
-9.128110
 30
0.0
 10
4.159081
 20
-9.181110
 30
0.0
 10
3.988097
 20
-9.234110
 30
0.0
 10
3.817113
 20
-9.287110
 30
0.0
 10
3.646129
 20
-9.340110
 30
0.0
 10
3.475145
 20
-9.393110
 30
0.0
 10
3.304161
 20
-9.446110
 30
0.0
 10
3.133177
 20
-9.499110
 30
0.0
 10
2.962193
 20
-9.552110
 30
0.0
 10
2.791209
 20
-9.605110
 30
0.0
 10
2.620225
 20
-9.658110
 30
0.0
 10
2.449240
 20
-9.711110
 30
0.0
 10
2.278256
 20
-9.764110
 30
0.0
 10
2.107272
 20
-9.817110
 30
0.0
 10
1.936288
 20
-9.870110
 30
0.0
 10
1.765304
 20
-9.923110
 30
0.0
 10
1.594320
 20
-9.976110
 30
0.0
 10
1.611710
 20
-10.085020
 30
0.0
 10
1.629100
 20
-10.193940
 30
0.0
 10
1.646490
 20
-10.302850
 30
0.0
 10
1.663880
 20
-10.411770
 30
0.0
 10
1.681270
 20
-10.520690
 30
0.0
 10
1.698660
 20
-10.629600
 30
0.0
 10
1.716050
 20
-10.738520
 30
0.0
 10
1.733440
 20
-10.847430
 30
0.0
 10
1.750830
 20
-10.956350
 30
0.0
 10
1.768220
 20
-11.065270
 30
0.0
 10
1.785610
 20
-11.174180
 30
0.0
 10
1.803000
 20
-11.283100
 30
0.0
 10
1.820390
 20
-11.392010
 30
0.0
 10
1.837780
 20
-11.500930
 30
0.0
 10
1.855170
 20
-11.609850
 30
0.0
 10
1.872560
 20
-11.718760
 30
0.0
 10
1.868460
 20
-11.767560
 30
0.0
 10
1.864360
 20
-11.816360
 30
0.0
 10
1.860260
 20
-11.865160
 30
0.0
 10
1.856160
 20
-11.913960
 30
0.0
 10
1.852060
 20
-11.962760
 30
0.0
 10
1.847960
 20
-12.011560
 30
0.0
 10
1.843860
 20
-12.060360
 30
0.0
 10
1.839760
 20
-12.109160
 30
0.0
 10
1.835660
 20
-12.157960
 30
0.0
 10
1.831560
 20
-12.206760
 30
0.0
 10
1.827460
 20
-12.255560
 30
0.0
 10
1.823360
 20
-12.304360
 30
0.0
 10
1.819260
 20
-12.353160
 30
0.0
 10
1.815160
 20
-12.401960
 30
0.0
 10
1.811060
 20
-12.450760
 30
0.0
 10
1.806960
 20
-12.499560
 30
0.0
 10
1.727560
 20
-12.664990
 30
0.0
 10
1.648160
 20
-12.830410
 30
0.0
 10
1.568760
 20
-12.995840
 30
0.0
 10
1.489360
 20
-13.161270
 30
0.0
 10
1.409960
 20
-13.326690
 30
0.0
 10
1.330560
 20
-13.492120
 30
0.0
 10
1.251160
 20
-13.657550
 30
0.0
 10
1.171760
 20
-13.822970
 30
0.0
 10
1.092360
 20
-13.988400
 30
0.0
 10
1.012960
 20
-14.153830
 30
0.0
 10
0.933560
 20
-14.319250
 30
0.0
 10
0.854160
 20
-14.484680
 30
0.0
 10
0.774760
 20
-14.650110
 30
0.0
 10
0.695360
 20
-14.815530
 30
0.0
 10
0.615960
 20
-14.980960
 30
0.0
 10
0.536560
 20
-15.146390
 30
0.0
 10
0.443800
 20
-15.145390
 30
0.0
 10
0.351040
 20
-15.144390
 30
0.0
 10
0.258280
 20
-15.143390
 30
0.0
 10
0.165520
 20
-15.142390
 30
0.0
 10
0.072760
 20
-15.141390
 30
0.0
 10
-0.020000
 20
-15.140390
 30
0.0
 10
-0.112760
 20
-15.139390
 30
0.0
 10
-0.205520
 20
-15.138390
 30
0.0
 10
-0.298280
 20
-15.137390
 30
0.0
 10
-0.391040
 20
-15.136390
 30
0.0
 10
-0.483800
 20
-15.135390
 30
0.0
 10
-0.576560
 20
-15.134390
 30
0.0
 10
-0.669320
 20
-15.133390
 30
0.0
 10
-0.762080
 20
-15.132390
 30
0.0
 10
-0.854840
 20
-15.131390
 30
0.0
 10
-0.947600
 20
-15.130390
 30
0.0
 10
-1.022450
 20
-14.962850
 30
0.0
 10
-1.097300
 20
-14.795320
 30
0.0
 10
-1.172150
 20
-14.627780
 30
0.0
 10
-1.247000
 20
-14.460250
 30
0.0
 10
-1.321850
 20
-14.292710
 30
0.0
 10
-1.396700
 20
-14.125180
 30
0.0
 10
-1.471550
 20
-13.957640
 30
0.0
 10
-1.546400
 20
-13.790110
 30
0.0
 10
-1.621250
 20
-13.622580
 30
0.0
 10
-1.696100
 20
-13.455040
 30
0.0
 10
-1.770950
 20
-13.287510
 30
0.0
 10
-1.845800
 20
-13.119970
 30
0.0
 10
-1.920650
 20
-12.952440
 30
0.0
 10
-1.995500
 20
-12.784900
 30
0.0
 10
-2.070350
 20
-12.617370
 30
0.0
 10
-2.145200
 20
-12.449830
 30
0.0
 10
-2.148000
 20
-12.400930
 30
0.0
 10
-2.150800
 20
-12.352030
 30
0.0
 10
-2.153600
 20
-12.303130
 30
0.0
 10
-2.156400
 20
-12.254230
 30
0.0
 10
-2.159200
 20
-12.205330
 30
0.0
 10
-2.162000
 20
-12.156430
 30
0.0
 10
-2.164800
 20
-12.107530
 30
0.0
 10
-2.167600
 20
-12.058630
 30
0.0
 10
-2.170400
 20
-12.009730
 30
0.0
 10
-2.173200
 20
-11.960830
 30
0.0
 10
-2.176000
 20
-11.911930
 30
0.0
 10
-2.178800
 20
-11.863030
 30
0.0
 10
-2.181600
 20
-11.814130
 30
0.0
 10
-2.184400
 20
-11.765230
 30
0.0
 10
-2.187200
 20
-11.716330
 30
0.0
 10
-2.190000
 20
-11.667430
 30
0.0
 10
-2.169640
 20
-11.559030
 30
0.0
 10
-2.149280
 20
-11.450630
 30
0.0
 10
-2.128920
 20
-11.342220
 30
0.0
 10
-2.108560
 20
-11.233820
 30
0.0
 10
-2.088200
 20
-11.125420
 30
0.0
 10
-2.067840
 20
-11.017020
 30
0.0
 10
-2.047480
 20
-10.908620
 30
0.0
 10
-2.027120
 20
-10.800220
 30
0.0
 10
-2.006760
 20
-10.691820
 30
0.0
 10
-1.986400
 20
-10.583410
 30
0.0
 10
-1.966040
 20
-10.475010
 30
0.0
 10
-1.945680
 20
-10.366610
 30
0.0
 10
-1.925320
 20
-10.258210
 30
0.0
 10
-1.904960
 20
-10.149810
 30
0.0
 10
-1.884600
 20
-10.041410
 30
0.0
 10
-1.864220
 20
-9.933090
 30
0.0
 10
-2.033691
 20
-9.875490
 30
0.0
 10
-2.203162
 20
-9.817890
 30
0.0
 10
-2.372634
 20
-9.760290
 30
0.0
 10
-2.542105
 20
-9.702690
 30
0.0
 10
-2.711576
 20
-9.645090
 30
0.0
 10
-2.881047
 20
-9.587490
 30
0.0
 10
-3.050519
 20
-9.529890
 30
0.0
 10
-3.219990
 20
-9.472290
 30
0.0
 10
-3.389461
 20
-9.414690
 30
0.0
 10
-3.558932
 20
-9.357090
 30
0.0
 10
-3.728404
 20
-9.299490
 30
0.0
 10
-3.897875
 20
-9.241890
 30
0.0
 10
-4.067346
 20
-9.184290
 30
0.0
 10
-4.236817
 20
-9.126690
 30
0.0
 10
-4.406288
 20
-9.069090
 30
0.0
 10
-4.575760
 20
-9.011490
 30
0.0
 10
-4.625710
 20
-9.109790
 30
0.0
 10
-4.675660
 20
-9.208090
 30
0.0
 10
-4.725610
 20
-9.306390
 30
0.0
 10
-4.775560
 20
-9.404690
 30
0.0
 10
-4.825510
 20
-9.502990
 30
0.0
 10
-4.875460
 20
-9.601290
 30
0.0
 10
-4.925410
 20
-9.699590
 30
0.0
 10
-4.975360
 20
-9.797890
 30
0.0
 10
-5.025310
 20
-9.896190
 30
0.0
 10
-5.075260
 20
-9.994490
 30
0.0
 10
-5.125210
 20
-10.092790
 30
0.0
 10
-5.175160
 20
-10.191090
 30
0.0
 10
-5.225110
 20
-10.289390
 30
0.0
 10
-5.275060
 20
-10.387690
 30
0.0
 10
-5.325010
 20
-10.485990
 30
0.0
 10
-5.374960
 20
-10.584290
 30
0.0
 10
-5.406980
 20
-10.621290
 30
0.0
 10
-5.439000
 20
-10.658390
 30
0.0
 10
-5.471020
 20
-10.695390
 30
0.0
 10
-5.503040
 20
-10.732490
 30
0.0
 10
-5.535060
 20
-10.769490
 30
0.0
 10
-5.567080
 20
-10.806590
 30
0.0
 10
-5.599100
 20
-10.843590
 30
0.0
 10
-5.631120
 20
-10.880690
 30
0.0
 10
-5.663140
 20
-10.917690
 30
0.0
 10
-5.695160
 20
-10.954790
 30
0.0
 10
-5.727180
 20
-10.991790
 30
0.0
 10
-5.759200
 20
-11.028890
 30
0.0
 10
-5.791220
 20
-11.065990
 30
0.0
 10
-5.823240
 20
-11.102990
 30
0.0
 10
-5.855260
 20
-11.139990
 30
0.0
 10
-5.887270
 20
-11.177090
 30
0.0
 10
-6.048739
 20
-11.264290
 30
0.0
 10
-6.210209
 20
-11.351490
 30
0.0
 10
-6.371678
 20
-11.438690
 30
0.0
 10
-6.533148
 20
-11.525890
 30
0.0
 10
-6.694617
 20
-11.613090
 30
0.0
 10
-6.856087
 20
-11.700290
 30
0.0
 10
-7.017556
 20
-11.787490
 30
0.0
 10
-7.179026
 20
-11.874690
 30
0.0
 10
-7.340495
 20
-11.961890
 30
0.0
 10
-7.501965
 20
-12.049090
 30
0.0
 10
-7.663434
 20
-12.136290
 30
0.0
 10
-7.824904
 20
-12.223490
 30
0.0
 10
-7.986373
 20
-12.310690
 30
0.0
 10
-8.147842
 20
-12.397890
 30
0.0
 10
-8.309312
 20
-12.485090
 30
0.0
 10
-8.470782
 20
-12.572290
 30
0.0
 10
-8.545083
 20
-12.516790
 30
0.0
 10
-8.619384
 20
-12.461290
 30
0.0
 10
-8.693685
 20
-12.405690
 30
0.0
 10
-8.767986
 20
-12.350190
 30
0.0
 10
-8.842287
 20
-12.294690
 30
0.0
 10
-8.916587
 20
-12.239090
 30
0.0
 10
-8.990887
 20
-12.183590
 30
0.0
 10
-9.065187
 20
-12.128090
 30
0.0
 10
-9.139487
 20
-12.072490
 30
0.0
 10
-9.213787
 20
-12.016990
 30
0.0
 10
-9.288087
 20
-11.961490
 30
0.0
 10
-9.362387
 20
-11.905990
 30
0.0
 10
-9.436687
 20
-11.850390
 30
0.0
 10
-9.510987
 20
-11.794890
 30
0.0
 10
-9.585287
 20
-11.739390
 30
0.0
 10
-9.659587
 20
-11.683790
 30
0.0
 10
-9.621667
 20
-11.504260
 30
0.0
 10
-9.583747
 20
-11.324730
 30
0.0
 10
-9.545827
 20
-11.145190
 30
0.0
 10
-9.507907
 20
-10.965660
 30
0.0
 10
-9.469987
 20
-10.786130
 30
0.0
 10
-9.432067
 20
-10.606600
 30
0.0
 10
-9.394147
 20
-10.427070
 30
0.0
 10
-9.356227
 20
-10.247540
 30
0.0
 10
-9.318307
 20
-10.068010
 30
0.0
 10
-9.280387
 20
-9.888480
 30
0.0
 10
-9.242467
 20
-9.708950
 30
0.0
 10
-9.204547
 20
-9.529420
 30
0.0
 10
-9.166627
 20
-9.349890
 30
0.0
 10
-9.128707
 20
-9.170350
 30
0.0
 10
-9.090787
 20
-8.990820
 30
0.0
 10
-9.052867
 20
-8.811290
 30
0.0
 10
-9.026387
 20
-8.770090
 30
0.0
 10
-8.999917
 20
-8.728890
 30
0.0
 10
-8.973447
 20
-8.687690
 30
0.0
 10
-8.946977
 20
-8.646490
 30
0.0
 10
-8.920507
 20
-8.605290
 30
0.0
 10
-8.894027
 20
-8.564090
 30
0.0
 10
-8.867557
 20
-8.522890
 30
0.0
 10
-8.841087
 20
-8.481690
 30
0.0
 10
-8.814613
 20
-8.440490
 30
0.0
 10
-8.788138
 20
-8.399290
 30
0.0
 10
-8.761663
 20
-8.358090
 30
0.0
 10
-8.735188
 20
-8.316890
 30
0.0
 10
-8.708713
 20
-8.275690
 30
0.0
 10
-8.682238
 20
-8.234490
 30
0.0
 10
-8.655763
 20
-8.193290
 30
0.0
 10
-8.629288
 20
-8.152090
 30
0.0
 10
-8.549100
 20
-8.076390
 30
0.0
 10
-8.468912
 20
-8.000690
 30
0.0
 10
-8.388724
 20
-7.924990
 30
0.0
 10
-8.308536
 20
-7.849290
 30
0.0
 10
-8.228348
 20
-7.773590
 30
0.0
 10
-8.148160
 20
-7.697890
 30
0.0
 10
-8.067974
 20
-7.622190
 30
0.0
 10
-7.987784
 20
-7.546490
 30
0.0
 10
-7.907594
 20
-7.470790
 30
0.0
 10
-7.827404
 20
-7.395090
 30
0.0
 10
-7.747214
 20
-7.319390
 30
0.0
 10
-7.667024
 20
-7.243690
 30
0.0
 10
-7.586834
 20
-7.167990
 30
0.0
 10
-7.506644
 20
-7.092290
 30
0.0
 10
-7.426454
 20
-7.016590
 30
0.0
 10
-7.346204
 20
-6.940890
 30
0.0
 10
-7.450747
 20
-6.795230
 30
0.0
 10
-7.553974
 20
-6.648980
 30
0.0
 10
-7.657200
 20
-6.502740
 30
0.0
 10
-7.760427
 20
-6.356500
 30
0.0
 10
-7.863653
 20
-6.210260
 30
0.0
 10
-7.966880
 20
-6.064010
 30
0.0
 10
-8.070106
 20
-5.917770
 30
0.0
 10
-8.173333
 20
-5.771530
 30
0.0
 10
-8.276560
 20
-5.625280
 30
0.0
 10
-8.379786
 20
-5.479040
 30
0.0
 10
-8.483013
 20
-5.332800
 30
0.0
 10
-8.586239
 20
-5.186560
 30
0.0
 10
-8.689466
 20
-5.040310
 30
0.0
 10
-8.792692
 20
-4.894070
 30
0.0
 10
-8.895919
 20
-4.747830
 30
0.0
 10
-8.999146
 20
-4.601580
 30
0.0
 10
-9.097356
 20
-4.651780
 30
0.0
 10
-9.195566
 20
-4.701980
 30
0.0
 10
-9.293776
 20
-4.752180
 30
0.0
 10
-9.391986
 20
-4.802380
 30
0.0
 10
-9.490196
 20
-4.852580
 30
0.0
 10
-9.588406
 20
-4.902780
 30
0.0
 10
-9.686616
 20
-4.952980
 30
0.0
 10
-9.784826
 20
-5.003180
 30
0.0
 10
-9.883036
 20
-5.053380
 30
0.0
 10
-9.981246
 20
-5.103580
 30
0.0
 10
-10.079456
 20
-5.153780
 30
0.0
 10
-10.177666
 20
-5.203980
 30
0.0
 10
-10.275876
 20
-5.254180
 30
0.0
 10
-10.374086
 20
-5.304380
 30
0.0
 10
-10.472296
 20
-5.354580
 30
0.0
 10
-10.570506
 20
-5.404780
 30
0.0
 10
-10.618186
 20
-5.415980
 30
0.0
 10
-10.665866
 20
-5.427080
 30
0.0
 10
-10.713546
 20
-5.438180
 30
0.0
 10
-10.761226
 20
-5.449280
 30
0.0
 10
-10.808906
 20
-5.460380
 30
0.0
 10
-10.856586
 20
-5.471580
 30
0.0
 10
-10.904266
 20
-5.482680
 30
0.0
 10
-10.951946
 20
-5.493780
 30
0.0
 10
-10.999626
 20
-5.504880
 30
0.0
 10
-11.047306
 20
-5.516080
 30
0.0
 10
-11.094986
 20
-5.527180
 30
0.0
 10
-11.142666
 20
-5.538280
 30
0.0
 10
-11.190346
 20
-5.549380
 30
0.0
 10
-11.238026
 20
-5.560580
 30
0.0
 10
-11.285706
 20
-5.571680
 30
0.0
 10
-11.333386
 20
-5.582780
 30
0.0
 10
-11.515250
 20
-5.558380
 30
0.0
 10
-11.697116
 20
-5.533980
 30
0.0
 10
-11.878981
 20
-5.509580
 30
0.0
 10
-12.060846
 20
-5.485180
 30
0.0
 10
-12.242711
 20
-5.460780
 30
0.0
 10
-12.424577
 20
-5.436380
 30
0.0
 10
-12.606441
 20
-5.411980
 30
0.0
 10
-12.788306
 20
-5.387580
 30
0.0
 10
-12.970171
 20
-5.363180
 30
0.0
 10
-13.152036
 20
-5.338780
 30
0.0
 10
-13.333902
 20
-5.314380
 30
0.0
 10
-13.515767
 20
-5.289980
 30
0.0
 10
-13.697631
 20
-5.265580
 30
0.0
 10
-13.879497
 20
-5.241180
 30
0.0
 10
-14.061362
 20
-5.216780
 30
0.0
 10
-14.243227
 20
-5.192380
 30
0.0
 10
-14.270687
 20
-5.103780
 30
0.0
 10
-14.298147
 20
-5.015180
 30
0.0
 10
-14.325607
 20
-4.926580
 30
0.0
 10
-14.353067
 20
-4.837980
 30
0.0
 10
-14.380527
 20
-4.749380
 30
0.0
 10
-14.407987
 20
-4.660780
 30
0.0
 10
-14.435447
 20
-4.572180
 30
0.0
 10
-14.462907
 20
-4.483580
 30
0.0
 10
-14.490367
 20
-4.394980
 30
0.0
 10
-14.517827
 20
-4.306380
 30
0.0
 10
-14.545287
 20
-4.217780
 30
0.0
 10
-14.572747
 20
-4.129180
 30
0.0
 10
-14.600207
 20
-4.040580
 30
0.0
 10
-14.627667
 20
-3.951980
 30
0.0
 10
-14.655127
 20
-3.863380
 30
0.0
 10
-14.682587
 20
-3.774780
 30
0.0
 10
-14.546380
 20
-3.651830
 30
0.0
 10
-14.410174
 20
-3.528880
 30
0.0
 10
-14.273967
 20
-3.405920
 30
0.0
 10
-14.137760
 20
-3.282970
 30
0.0
 10
-14.001554
 20
-3.160020
 30
0.0
 10
-13.865348
 20
-3.037060
 30
0.0
 10
-13.729140
 20
-2.914110
 30
0.0
 10
-13.592934
 20
-2.791150
 30
0.0
 10
-13.456728
 20
-2.668200
 30
0.0
 10
-13.320521
 20
-2.545250
 30
0.0
 10
-13.184314
 20
-2.422290
 30
0.0
 10
-13.048108
 20
-2.299340
 30
0.0
 10
-12.911902
 20
-2.176380
 30
0.0
 10
-12.775694
 20
-2.053430
 30
0.0
 10
-12.639488
 20
-1.930480
 30
0.0
 10
-12.503282
 20
-1.807520
 30
0.0
 10
-12.457652
 20
-1.789720
 30
0.0
 10
-12.412022
 20
-1.771920
 30
0.0
 10
-12.366392
 20
-1.754120
 30
0.0
 10
-12.320762
 20
-1.736320
 30
0.0
 10
-12.275132
 20
-1.718520
 30
0.0
 10
-12.229502
 20
-1.700720
 30
0.0
 10
-12.183872
 20
-1.682920
 30
0.0
 10
-12.138242
 20
-1.665120
 30
0.0
 10
-12.092612
 20
-1.647320
 30
0.0
 10
-12.046982
 20
-1.629520
 30
0.0
 10
-12.001352
 20
-1.611720
 30
0.0
 10
-11.955722
 20
-1.593920
 30
0.0
 10
-11.910092
 20
-1.576120
 30
0.0
 10
-11.864462
 20
-1.558320
 30
0.0
 10
-11.818832
 20
-1.540520
 30
0.0
 10
-11.773202
 20
-1.522720
 30
0.0
 10
-11.663815
 20
-1.508620
 30
0.0
 10
-11.554429
 20
-1.494520
 30
0.0
 10
-11.445043
 20
-1.480420
 30
0.0
 10
-11.335656
 20
-1.466320
 30
0.0
 10
-11.226271
 20
-1.452220
 30
0.0
 10
-11.116885
 20
-1.438120
 30
0.0
 10
-11.007499
 20
-1.424020
 30
0.0
 10
-10.898113
 20
-1.409920
 30
0.0
 10
-10.788727
 20
-1.395820
 30
0.0
 10
-10.679341
 20
-1.381720
 30
0.0
 10
-10.569956
 20
-1.367620
 30
0.0
 10
-10.460569
 20
-1.353520
 30
0.0
 10
-10.351183
 20
-1.339420
 30
0.0
 10
-10.241797
 20
-1.325320
 30
0.0
 10
-10.132411
 20
-1.311220
 30
0.0
 10
-10.023025
 20
-1.297120
 30
0.0
 10
-10.020525
 20
-1.118130
 30
0.0
 10
-10.018125
 20
-0.939150
 30
0.0
 10
-10.015725
 20
-0.760160
 30
0.0
 10
-10.013325
 20
-0.581170
 30
0.0
 10
-10.010925
 20
-0.402180
 30
0.0
 10
-10.008425
 20
-0.223190
 30
0.0
 10
-10.006025
 20
-0.044210
 30
0.0
 10
-10.003625
 20
0.134780
 30
0.0
 10
-10.001225
 20
0.313770
 30
0.0
 10
-9.998725
 20
0.492760
 30
0.0
 10
-9.996325
 20
0.671750
 30
0.0
 10
-9.993925
 20
0.850730
 30
0.0
 10
-9.991525
 20
1.029720
 30
0.0
 10
-9.989125
 20
1.208710
 30
0.0
 10
-9.986625
 20
1.387700
 30
0.0
 10
-9.984225
 20
1.566690
 30
0.0
 10
-10.093229
 20
1.583890
 30
0.0
 10
-10.202188
 20
1.600990
 30
0.0
 10
-10.311146
 20
1.618090
 30
0.0
 10
-10.420104
 20
1.635190
 30
0.0
 10
-10.529063
 20
1.652290
 30
0.0
 10
-10.638021
 20
1.669390
 30
0.0
 10
-10.746979
 20
1.686490
 30
0.0
 10
-10.855938
 20
1.703590
 30
0.0
 10
-10.964896
 20
1.720690
 30
0.0
 10
-11.073854
 20
1.737790
 30
0.0
 10
-11.182813
 20
1.754890
 30
0.0
 10
-11.291772
 20
1.771990
 30
0.0
 10
-11.400732
 20
1.789090
 30
0.0
 10
-11.509691
 20
1.806190
 30
0.0
 10
-11.618650
 20
1.823290
 30
0.0
 10
-11.727610
 20
1.840390
 30
0.0
 10
-11.772740
 20
1.859390
 30
0.0
 10
-11.817870
 20
1.878390
 30
0.0
 10
-11.863000
 20
1.897390
 30
0.0
 10
-11.908130
 20
1.916390
 30
0.0
 10
-11.953260
 20
1.935390
 30
0.0
 10
-11.998390
 20
1.954390
 30
0.0
 10
-12.043520
 20
1.973390
 30
0.0
 10
-12.088650
 20
1.992390
 30
0.0
 10
-12.133780
 20
2.011390
 30
0.0
 10
-12.178910
 20
2.030390
 30
0.0
 10
-12.224040
 20
2.049390
 30
0.0
 10
-12.269170
 20
2.068390
 30
0.0
 10
-12.314300
 20
2.087390
 30
0.0
 10
-12.359430
 20
2.106390
 30
0.0
 10
-12.404560
 20
2.125390
 30
0.0
 10
-12.449690
 20
2.144390
 30
0.0
 10
-12.582477
 20
2.271060
 30
0.0
 10
-12.715269
 20
2.397690
 30
0.0
 10
-12.848061
 20
2.524330
 30
0.0
 10
-12.980852
 20
2.650960
 30
0.0
 10
-13.113644
 20
2.777590
 30
0.0
 10
-13.246436
 20
2.904220
 30
0.0
 10
-13.379228
 20
3.030850
 30
0.0
 10
-13.512019
 20
3.157480
 30
0.0
 10
-13.644811
 20
3.284120
 30
0.0
 10
-13.777603
 20
3.410750
 30
0.0
 10
-13.910395
 20
3.537380
 30
0.0
 10
-14.043186
 20
3.664010
 30
0.0
 10
-14.175978
 20
3.790640
 30
0.0
 10
-14.308770
 20
3.917280
 30
0.0
 10
-14.441561
 20
4.043910
 30
0.0
 10
-14.574353
 20
4.170540
 30
0.0
 10
-14.544483
 20
4.258340
 30
0.0
 10
-14.514613
 20
4.346140
 30
0.0
 10
-14.484743
 20
4.433940
 30
0.0
 10
-14.454873
 20
4.521740
 30
0.0
 10
-14.425003
 20
4.609540
 30
0.0
 10
-14.395133
 20
4.697340
 30
0.0
 10
-14.365263
 20
4.785140
 30
0.0
 10
-14.335393
 20
4.872940
 30
0.0
 10
-14.305523
 20
4.960740
 30
0.0
 10
-14.275653
 20
5.048540
 30
0.0
 10
-14.245783
 20
5.136340
 30
0.0
 10
-14.215913
 20
5.224140
 30
0.0
 10
-14.186043
 20
5.311940
 30
0.0
 10
-14.156173
 20
5.399740
 30
0.0
 10
-14.126303
 20
5.487540
 30
0.0
 10
-14.096433
 20
5.575340
 30
0.0
 10
-13.913969
 20
5.594740
 30
0.0
 10
-13.731506
 20
5.614140
 30
0.0
 10
-13.549042
 20
5.633540
 30
0.0
 10
-13.366577
 20
5.652940
 30
0.0
 10
-13.184113
 20
5.672340
 30
0.0
 10
-13.001649
 20
5.691740
 30
0.0
 10
-12.819186
 20
5.711140
 30
0.0
 10
-12.636722
 20
5.730540
 30
0.0
 10
-12.454258
 20
5.749940
 30
0.0
 10
-12.271793
 20
5.769340
 30
0.0
 10
-12.089330
 20
5.788740
 30
0.0
 10
-11.906866
 20
5.808140
 30
0.0
 10
-11.724402
 20
5.827540
 30
0.0
 10
-11.541938
 20
5.846940
 30
0.0
 10
-11.359474
 20
5.866340
 30
0.0
 10
-11.177010
 20
5.885740
 30
0.0
 10
-11.129660
 20
5.873240
 30
0.0
 10
-11.082310
 20
5.860740
 30
0.0
 10
-11.034960
 20
5.848240
 30
0.0
 10
-10.987600
 20
5.835740
 30
0.0
 10
-10.940250
 20
5.823240
 30
0.0
 10
-10.892900
 20
5.810740
 30
0.0
 10
-10.845550
 20
5.798240
 30
0.0
 10
-10.798190
 20
5.785740
 30
0.0
 10
-10.750840
 20
5.773240
 30
0.0
 10
-10.703490
 20
5.760740
 30
0.0
 10
-10.656140
 20
5.748240
 30
0.0
 10
-10.608790
 20
5.735740
 30
0.0
 10
-10.561430
 20
5.723240
 30
0.0
 10
-10.514080
 20
5.710740
 30
0.0
 10
-10.466730
 20
5.698240
 30
0.0
 10
-10.419380
 20
5.685740
 30
0.0
 10
-10.322580
 20
5.632840
 30
0.0
 10
-10.225780
 20
5.579940
 30
0.0
 10
-10.128980
 20
5.527040
 30
0.0
 10
-10.032180
 20
5.474140
 30
0.0
 10
-9.935379
 20
5.421240
 30
0.0
 10
-9.838579
 20
5.368340
 30
0.0
 10
-9.741779
 20
5.315440
 30
0.0
 10
-9.644979
 20
5.262540
 30
0.0
 10
-9.548179
 20
5.209640
 30
0.0
 10
-9.451379
 20
5.156740
 30
0.0
 10
-9.354579
 20
5.103840
 30
0.0
 10
-9.257779
 20
5.050940
 30
0.0
 10
-9.160979
 20
4.998040
 30
0.0
 10
-9.064179
 20
4.945140
 30
0.0
 10
-8.967379
 20
4.892240
 30
0.0
 10
-8.870579
 20
4.839340
 30
0.0
 10
-8.763393
 20
4.982710
 30
0.0
 10
-8.656207
 20
5.126070
 30
0.0
 10
-8.549022
 20
5.269440
 30
0.0
 10
-8.441892
 20
5.412770
 30
0.0
 10
-8.334706
 20
5.556140
 30
0.0
 10
-8.227521
 20
5.699510
 30
0.0
 10
-8.120335
 20
5.842870
 30
0.0
 10
-8.013150
 20
5.986240
 30
0.0
 10
-7.905964
 20
6.129600
 30
0.0
 10
-7.798778
 20
6.272970
 30
0.0
 10
-7.691593
 20
6.416340
 30
0.0
 10
-7.584407
 20
6.559700
 30
0.0
 10
-7.477221
 20
6.703070
 30
0.0
 10
-7.370035
 20
6.846430
 30
0.0
 10
-7.262850
 20
6.989800
 30
0.0
 10
-7.155664
 20
7.133170
 30
0.0
 10
-7.233754
 20
7.211070
 30
0.0
 10
-7.311844
 20
7.288970
 30
0.0
 10
-7.389934
 20
7.366870
 30
0.0
 10
-7.468024
 20
7.444770
 30
0.0
 10
-7.546114
 20
7.522670
 30
0.0
 10
-7.624204
 20
7.600570
 30
0.0
 10
-7.702294
 20
7.678470
 30
0.0
 10
-7.780384
 20
7.756370
 30
0.0
 10
-7.858474
 20
7.834270
 30
0.0
 10
-7.936564
 20
7.912170
 30
0.0
 10
-8.014654
 20
7.990070
 30
0.0
 10
-8.092744
 20
8.067970
 30
0.0
 10
-8.170795
 20
8.145870
 30
0.0
 10
-8.248883
 20
8.223770
 30
0.0
 10
-8.326971
 20
8.301670
 30
0.0
 10
-8.405059
 20
8.379570
 30
0.0
 10
-8.430398
 20
8.421470
 30
0.0
 10
-8.455737
 20
8.463370
 30
0.0
 10
-8.481076
 20
8.505270
 30
0.0
 10
-8.506415
 20
8.547170
 30
0.0
 10
-8.531754
 20
8.589070
 30
0.0
 10
-8.557093
 20
8.630970
 30
0.0
 10
-8.582432
 20
8.672870
 30
0.0
 10
-8.607771
 20
8.714770
 30
0.0
 10
-8.633110
 20
8.756670
 30
0.0
 10
-8.658449
 20
8.798570
 30
0.0
 10
-8.683788
 20
8.840470
 30
0.0
 10
-8.709127
 20
8.882370
 30
0.0
 10
-8.734466
 20
8.924270
 30
0.0
 10
-8.759805
 20
8.966170
 30
0.0
 10
-8.785144
 20
9.008070
 30
0.0
 10
-8.810483
 20
9.049970
 30
0.0
 10
-8.843484
 20
9.230470
 30
0.0
 10
-8.876484
 20
9.410970
 30
0.0
 10
-8.909484
 20
9.591470
 30
0.0
 10
-8.942484
 20
9.771970
 30
0.0
 10
-8.975484
 20
9.952470
 30
0.0
 10
-9.008484
 20
10.132970
 30
0.0
 10
-9.041484
 20
10.313480
 30
0.0
 10
-9.074484
 20
10.493980
 30
0.0
 10
-9.107484
 20
10.674480
 30
0.0
 10
-9.140484
 20
10.854980
 30
0.0
 10
-9.173484
 20
11.035480
 30
0.0
 10
-9.206484
 20
11.215980
 30
0.0
 10
-9.239484
 20
11.396480
 30
0.0
 10
-9.272484
 20
11.576980
 30
0.0
 10
-9.305484
 20
11.757490
 30
0.0
 10
-9.338484
 20
11.937990
 30
0.0
 10
-9.262694
 20
11.991490
 30
0.0
 10
-9.186904
 20
12.044990
 30
0.0
 10
-9.111114
 20
12.098490
 30
0.0
 10
-9.035324
 20
12.151990
 30
0.0
 10
-8.959534
 20
12.205490
 30
0.0
 10
-8.883744
 20
12.258990
 30
0.0
 10
-8.807954
 20
12.312490
 30
0.0
 10
-8.732164
 20
12.365990
 30
0.0
 10
-8.656374
 20
12.419490
 30
0.0
 10
-8.580584
 20
12.472990
 30
0.0
 10
-8.504794
 20
12.526490
 30
0.0
 10
-8.429004
 20
12.579990
 30
0.0
 10
-8.353214
 20
12.633490
 30
0.0
 10
-8.277424
 20
12.686990
 30
0.0
 10
-8.201634
 20
12.740490
 30
0.0
 10
-8.125844
 20
12.793990
 30
0.0
 10
-7.966817
 20
12.702490
 30
0.0
 10
-7.807790
 20
12.610990
 30
0.0
 10
-7.648763
 20
12.519490
 30
0.0
 10
-7.489736
 20
12.427990
 30
0.0
 10
-7.330709
 20
12.336390
 30
0.0
 10
-7.171682
 20
12.244890
 30
0.0
 10
-7.012655
 20
12.153290
 30
0.0
 10
-6.853628
 20
12.061790
 30
0.0
 10
-6.694601
 20
11.970190
 30
0.0
 10
-6.535574
 20
11.878690
 30
0.0
 10
-6.376547
 20
11.787190
 30
0.0
 10
-6.217520
 20
11.695690
 30
0.0
 10
-6.058493
 20
11.604190
 30
0.0
 10
-5.899466
 20
11.512690
 30
0.0
 10
-5.740439
 20
11.421190
 30
0.0
 10
-5.581412
 20
11.329690
 30
0.0
 10
-5.550422
 20
11.291790
 30
0.0
 10
-5.519432
 20
11.253890
 30
0.0
 10
-5.488442
 20
11.215990
 30
0.0
 10
-5.457452
 20
11.178090
 30
0.0
 10
-5.426462
 20
11.140190
 30
0.0
 10
-5.395472
 20
11.102290
 30
0.0
 10
-5.364482
 20
11.064390
 30
0.0
 10
-5.333492
 20
11.026490
 30
0.0
 10
-5.302502
 20
10.988590
 30
0.0
 10
-5.271512
 20
10.950690
 30
0.0
 10
-5.240522
 20
10.912790
 30
0.0
 10
-5.209532
 20
10.874890
 30
0.0
 10
-5.178542
 20
10.836990
 30
0.0
 10
-5.147552
 20
10.799090
 30
0.0
 10
-5.116562
 20
10.761190
 30
0.0
 10
-5.085572
 20
10.723290
 30
0.0
 10
-5.038322
 20
10.623590
 30
0.0
 10
-4.991082
 20
10.523890
 30
0.0
 10
-4.943832
 20
10.424190
 30
0.0
 10
-4.896592
 20
10.324490
 30
0.0
 10
-4.849342
 20
10.224790
 30
0.0
 10
-4.802102
 20
10.125090
 30
0.0
 10
-4.754852
 20
10.025390
 30
0.0
 10
-4.707612
 20
9.925690
 30
0.0
 10
-4.660362
 20
9.825990
 30
0.0
 10
-4.613122
 20
9.726290
 30
0.0
 10
-4.565872
 20
9.626590
 30
0.0
 10
-4.518632
 20
9.526890
 30
0.0
 10
-4.471382
 20
9.427190
 30
0.0
 10
-4.424142
 20
9.327490
 30
0.0
 10
-4.376902
 20
9.227790
 30
0.0
 10
-4.329652
 20
9.128090
 30
0.0
 10
-4.158668
 20
9.181090
 30
0.0
 10
-3.987684
 20
9.234090
 30
0.0
 10
-3.816700
 20
9.287090
 30
0.0
 10
-3.645716
 20
9.340090
 30
0.0
 10
-3.474732
 20
9.393090
 30
0.0
 10
-3.303748
 20
9.446090
 30
0.0
 10
-3.132764
 20
9.499090
 30
0.0
 10
-2.961779
 20
9.552090
 30
0.0
 10
-2.790794
 20
9.605090
 30
0.0
 10
-2.619810
 20
9.658090
 30
0.0
 10
-2.448826
 20
9.711090
 30
0.0
 10
-2.277842
 20
9.764090
 30
0.0
 10
-2.106858
 20
9.817090
 30
0.0
 10
-1.935874
 20
9.870090
 30
0.0
 10
-1.764890
 20
9.923090
 30
0.0
 10
-1.593906
 20
9.976090
 30
0.0
 10
-1.611290
 20
10.085010
 30
0.0
 10
-1.628679
 20
10.193930
 30
0.0
 10
-1.646068
 20
10.302840
 30
0.0
 10
-1.663457
 20
10.411760
 30
0.0
 10
-1.680846
 20
10.520670
 30
0.0
 10
-1.698235
 20
10.629590
 30
0.0
 10
-1.715624
 20
10.738500
 30
0.0
 10
-1.733013
 20
10.847420
 30
0.0
 10
-1.750402
 20
10.956340
 30
0.0
 10
-1.767791
 20
11.065250
 30
0.0
 10
-1.785180
 20
11.174170
 30
0.0
 10
-1.802569
 20
11.283080
 30
0.0
 10
-1.819958
 20
11.392000
 30
0.0
 10
-1.837347
 20
11.500920
 30
0.0
 10
-1.854736
 20
11.609830
 30
0.0
 10
-1.872125
 20
11.718750
 30
0.0
 10
-1.868025
 20
11.767550
 30
0.0
 10
-1.863925
 20
11.816350
 30
0.0
 10
-1.859825
 20
11.865150
 30
0.0
 10
-1.855725
 20
11.913950
 30
0.0
 10
-1.851625
 20
11.962750
 30
0.0
 10
-1.847525
 20
12.011550
 30
0.0
 10
-1.843425
 20
12.060350
 30
0.0
 10
-1.839325
 20
12.109150
 30
0.0
 10
-1.835225
 20
12.157950
 30
0.0
 10
-1.831125
 20
12.206750
 30
0.0
 10
-1.827025
 20
12.255550
 30
0.0
 10
-1.822925
 20
12.304350
 30
0.0
 10
-1.818825
 20
12.353150
 30
0.0
 10
-1.814725
 20
12.401950
 30
0.0
 10
-1.810625
 20
12.450750
 30
0.0
 10
-1.806525
 20
12.499550
 30
0.0
 10
-1.727125
 20
12.664970
 30
0.0
 10
-1.647725
 20
12.830400
 30
0.0
 10
-1.568325
 20
12.995830
 30
0.0
 10
-1.488925
 20
13.161250
 30
0.0
 10
-1.409525
 20
13.326680
 30
0.0
 10
-1.330125
 20
13.492110
 30
0.0
 10
-1.250725
 20
13.657530
 30
0.0
 10
-1.171325
 20
13.822960
 30
0.0
 10
-1.091925
 20
13.988390
 30
0.0
 10
-1.012525
 20
14.153810
 30
0.0
 10
-0.933125
 20
14.319240
 30
0.0
 10
-0.853725
 20
14.484670
 30
0.0
 10
-0.774325
 20
14.650090
 30
0.0
 10
-0.694925
 20
14.815520
 30
0.0
 10
-0.615525
 20
14.980950
 30
0.0
 10
-0.536125
 20
15.146370
 30
0.0
 10
-0.443365
 20
15.145370
 30
0.0
 10
-0.350605
 20
15.144370
 30
0.0
 10
-0.257845
 20
15.143370
 30
0.0
 10
-0.165085
 20
15.142370
 30
0.0
 10
-0.072325
 20
15.141370
 30
0.0
 10
0.020435
 20
15.140370
 30
0.0
 10
0.113195
 20
15.139370
 30
0.0
 10
0.205955
 20
15.138370
 30
0.0
 10
0.298715
 20
15.137370
 30
0.0
 10
0.391475
 20
15.136370
 30
0.0
 10
0.484235
 20
15.135370
 30
0.0
 10
0.576995
 20
15.134370
 30
0.0
 10
0.669755
 20
15.133370
 30
0.0
 10
0.762515
 20
15.132370
 30
0.0
 10
0.855275
 20
15.131370
 30
0.0
 10
0.948035
 20
15.130370
 30
0.0
 10
1.022885
 20
14.962840
 30
0.0
 10
1.097735
 20
14.795300
 30
0.0
 10
1.172585
 20
14.627770
 30
0.0
 10
1.247435
 20
14.460230
 30
0.0
 10
1.322285
 20
14.292700
 30
0.0
 10
1.397135
 20
14.125160
 30
0.0
 10
1.471985
 20
13.957630
 30
0.0
 10
1.546835
 20
13.790090
 30
0.0
 10
1.621685
 20
13.622560
 30
0.0
 10
1.696535
 20
13.455030
 30
0.0
 10
1.771385
 20
13.287490
 30
0.0
 10
1.846235
 20
13.119960
 30
0.0
 10
1.921085
 20
12.952420
 30
0.0
 10
1.995935
 20
12.784890
 30
0.0
 10
2.070785
 20
12.617350
 30
0.0
 10
2.145635
 20
12.449820
 30
0.0
 10
2.148435
 20
12.400920
 30
0.0
 10
2.151235
 20
12.352020
 30
0.0
 10
2.154035
 20
12.303120
 30
0.0
 10
2.156835
 20
12.254220
 30
0.0
 10
2.159635
 20
12.205320
 30
0.0
 10
2.162435
 20
12.156420
 30
0.0
 10
2.165235
 20
12.107520
 30
0.0
 10
2.168035
 20
12.058620
 30
0.0
 10
2.170835
 20
12.009720
 30
0.0
 10
2.173635
 20
11.960820
 30
0.0
 10
2.176435
 20
11.911920
 30
0.0
 10
2.179235
 20
11.863020
 30
0.0
 10
2.182035
 20
11.814120
 30
0.0
 10
2.184835
 20
11.765220
 30
0.0
 10
2.187635
 20
11.716320
 30
0.0
 10
2.190435
 20
11.667420
 30
0.0
 10
2.170075
 20
11.559020
 30
0.0
 10
2.149715
 20
11.450620
 30
0.0
 10
2.129355
 20
11.342210
 30
0.0
 10
2.108995
 20
11.233810
 30
0.0
 10
2.088635
 20
11.125410
 30
0.0
 10
2.068275
 20
11.017010
 30
0.0
 10
2.047915
 20
10.908610
 30
0.0
 10
2.027555
 20
10.800210
 30
0.0
 10
2.007195
 20
10.691810
 30
0.0
 10
1.986835
 20
10.583410
 30
0.0
 10
1.966475
 20
10.475010
 30
0.0
 10
1.946115
 20
10.366610
 30
0.0
 10
1.925755
 20
10.258210
 30
0.0
 10
1.905395
 20
10.149800
 30
0.0
 10
1.885035
 20
10.041400
 30
0.0
 10
1.864675
 20
9.933000
 30
0.0
 10
2.034146
 20
9.875400
 30
0.0
 10
2.203617
 20
9.817800
 30
0.0
 10
2.373089
 20
9.760200
 30
0.0
 10
2.542560
 20
9.702600
 30
0.0
 10
2.712031
 20
9.645000
 30
0.0
 10
2.881502
 20
9.587400
 30
0.0
 10
3.050974
 20
9.529800
 30
0.0
 10
3.220445
 20
9.472200
 30
0.0
 10
3.389916
 20
9.414600
 30
0.0
 10
3.559387
 20
9.357000
 30
0.0
 10
3.728858
 20
9.299400
 30
0.0
 10
3.898330
 20
9.241800
 30
0.0
 10
4.067801
 20
9.184200
 30
0.0
 10
4.237272
 20
9.126600
 30
0.0
 10
4.406743
 20
9.069000
 30
0.0
 10
4.576215
 20
9.011400
 30
0.0
 10
4.626165
 20
9.109700
 30
0.0
 10
4.676115
 20
9.208000
 30
0.0
 10
4.726065
 20
9.306300
 30
0.0
 10
4.776015
 20
9.404600
 30
0.0
 10
4.825965
 20
9.502900
 30
0.0
 10
4.875915
 20
9.601200
 30
0.0
 10
4.925865
 20
9.699500
 30
0.0
 10
4.975815
 20
9.797800
 30
0.0
 10
5.025765
 20
9.896100
 30
0.0
 10
5.075715
 20
9.994400
 30
0.0
 10
5.125665
 20
10.092700
 30
0.0
 10
5.175615
 20
10.191000
 30
0.0
 10
5.225565
 20
10.289300
 30
0.0
 10
5.275515
 20
10.387600
 30
0.0
 10
5.325465
 20
10.485900
 30
0.0
 10
5.375415
 20
10.584200
 30
0.0
 10
5.407435
 20
10.621300
 30
0.0
 10
5.439455
 20
10.658300
 30
0.0
 10
5.471475
 20
10.695400
 30
0.0
 10
5.503495
 20
10.732400
 30
0.0
 10
5.535515
 20
10.769400
 30
0.0
 10
5.567535
 20
10.806500
 30
0.0
 10
5.599555
 20
10.843500
 30
0.0
 10
5.631575
 20
10.880600
 30
0.0
 10
5.663595
 20
10.917600
 30
0.0
 10
5.695615
 20
10.954600
 30
0.0
 10
5.727635
 20
10.991700
 30
0.0
 10
5.759655
 20
11.028700
 30
0.0
 10
5.791675
 20
11.065800
 30
0.0
 10
5.823695
 20
11.102800
 30
0.0
 10
5.855715
 20
11.139800
 30
0.0
 10
5.887725
 20
11.176900
 30
0.0
 10
6.049194
 20
11.264100
 30
0.0
 10
6.210664
 20
11.351300
 30
0.0
 10
6.372133
 20
11.438500
 30
0.0
 10
6.533603
 20
11.525700
 30
0.0
 10
6.695072
 20
11.612900
 30
0.0
 10
6.856541
 20
11.700100
 30
0.0
 10
7.018011
 20
11.787300
 30
0.0
 10
7.179481
 20
11.874500
 30
0.0
 10
7.340950
 20
11.961700
 30
0.0
 10
7.502420
 20
12.048900
 30
0.0
 10
7.663889
 20
12.136100
 30
0.0
 10
7.825359
 20
12.223300
 30
0.0
 10
7.986828
 20
12.310500
 30
0.0
 10
8.148298
 20
12.397700
 30
0.0
 10
8.309767
 20
12.484900
 30
0.0
 10
8.471237
 20
12.572100
 30
0.0
 10
8.545537
 20
12.516600
 30
0.0
 10
8.619837
 20
12.461100
 30
0.0
 10
8.694137
 20
12.405500
 30
0.0
 10
8.768437
 20
12.350000
 30
0.0
 10
8.842737
 20
12.294500
 30
0.0
 10
8.917037
 20
12.239000
 30
0.0
 10
8.991337
 20
12.183400
 30
0.0
 10
9.065637
 20
12.127900
 30
0.0
 10
9.139937
 20
12.072400
 30
0.0
 10
9.214237
 20
12.016900
 30
0.0
 10
9.288537
 20
11.961300
 30
0.0
 10
9.362837
 20
11.905800
 30
0.0
 10
9.437137
 20
11.850300
 30
0.0
 10
9.511437
 20
11.794700
 30
0.0
 10
9.585737
 20
11.739200
 30
0.0
 10
9.660037
 20
11.683700
 30
0.0
 10
9.622117
 20
11.504170
 30
0.0
 10
9.584197
 20
11.324630
 30
0.0
 10
9.546277
 20
11.145100
 30
0.0
 10
9.508357
 20
10.965570
 30
0.0
 10
9.470437
 20
10.786040
 30
0.0
 10
9.432517
 20
10.606510
 30
0.0
 10
9.394597
 20
10.426980
 30
0.0
 10
9.356677
 20
10.247450
 30
0.0
 10
9.318757
 20
10.067920
 30
0.0
 10
9.280837
 20
9.888390
 30
0.0
 10
9.242917
 20
9.708860
 30
0.0
 10
9.204997
 20
9.529330
 30
0.0
 10
9.167077
 20
9.349790
 30
0.0
 10
9.129157
 20
9.170260
 30
0.0
 10
9.091237
 20
8.990730
 30
0.0
 10
9.053317
 20
8.811200
 30
0.0
 10
9.026837
 20
8.770000
 30
0.0
 10
9.000367
 20
8.728800
 30
0.0
 10
8.973887
 20
8.687600
 30
0.0
 10
8.947417
 20
8.646400
 30
0.0
 10
8.920947
 20
8.605200
 30
0.0
 10
8.894467
 20
8.564000
 30
0.0
 10
8.867997
 20
8.522800
 30
0.0
 10
8.841527
 20
8.481600
 30
0.0
 10
8.815047
 20
8.440400
 30
0.0
 10
8.788577
 20
8.399200
 30
0.0
 10
8.762107
 20
8.358000
 30
0.0
 10
8.735637
 20
8.316800
 30
0.0
 10
8.709157
 20
8.275600
 30
0.0
 10
8.682677
 20
8.234400
 30
0.0
 10
8.656207
 20
8.193200
 30
0.0
 10
8.629727
 20
8.152000
 30
0.0
 10
8.549537
 20
8.076300
 30
0.0
 10
8.469347
 20
8.000600
 30
0.0
 10
8.389157
 20
7.924900
 30
0.0
 10
8.308967
 20
7.849200
 30
0.0
 10
8.228777
 20
7.773500
 30
0.0
 10
8.148587
 20
7.697800
 30
0.0
 10
8.068397
 20
7.622100
 30
0.0
 10
7.988207
 20
7.546400
 30
0.0
 10
7.908017
 20
7.470700
 30
0.0
 10
7.827827
 20
7.395000
 30
0.0
 10
7.747637
 20
7.319300
 30
0.0
 10
7.667447
 20
7.243600
 30
0.0
 10
7.587257
 20
7.167900
 30
0.0
 10
7.507067
 20
7.092200
 30
0.0
 10
7.426877
 20
7.016500
 30
0.0
 10
7.346687
 20
6.940800
 30
0.0
 10
7.449914
 20
6.794560
 30
0.0
 10
7.553140
 20
6.648320
 30
0.0
 10
7.656367
 20
6.502080
 30
0.0
 10
7.759594
 20
6.355830
 30
0.0
 10
7.862820
 20
6.209590
 30
0.0
 10
7.966047
 20
6.063350
 30
0.0
 10
8.069273
 20
5.917100
 30
0.0
 10
8.172500
 20
5.770860
 30
0.0
 10
8.275726
 20
5.624620
 30
0.0
 10
8.378953
 20
5.478380
 30
0.0
 10
8.482180
 20
5.332130
 30
0.0
 10
8.585406
 20
5.185890
 30
0.0
 10
8.688633
 20
5.039650
 30
0.0
 10
8.791859
 20
4.893400
 30
0.0
 10
8.895086
 20
4.747160
 30
0.0
  0
ENDSEC
  0
SECTION
  2
OBJECTS
  0
DICTIONARY
  5
C
330
0
100
AcDbDictionary
  3
ACAD_GROUP
350
D
  3
ACAD_MLINESTYLE
350
17
  0
DICTIONARY
  5
D
330
C
100
AcDbDictionary
  0
DICTIONARY
  5
1A
330
C
100
AcDbDictionary
  0
DICTIONARY
  5
17
330
C
100
AcDbDictionary
  3
STANDARD
350
18
  0
DICTIONARY
  5
19
330
C
100
AcDbDictionary
  0
ENDSEC
  0
EOF
