  0
SECTION
  2
HEADER
  9
$ACADVER
  1
AC1014
  9
$HANDSEED
  5
FFFF
  9
$MEASUREMENT
 70
     1
  0
ENDSEC
  0
SECTION
  2
TABLES
  0
TABLE
  2
VPORT
  5
8
330
0
100
AcDbSymbolTable
 70
     4
  0
VPORT
  5
2E
330
8
100
AcDbSymbolTableRecord
100
AcDbViewportTableRecord
  2
*ACTIVE
 70
     0
 10
0.0
 20
0.0
 11
1.0
 21
1.0
 12
210.0
 22
148.5
 13
0.0
 23
0.0
 14
10.0
 24
10.0
 15
10.0
 25
10.0
 16
0.0
 26
0.0
 36
1.0
 17
0.0
 27
0.0
 37
0.0
 40
341.0
 41
1.24
 42
50.0
 43
0.0
 44
0.0
 50
0.0
 51
0.0
 71
     0
 72
   100
 73
     1
 74
     3
 75
     0
 76
     0
 77
     0
 78
     0
  0
ENDTAB
  0
TABLE
  2
LTYPE
  5
5
330
0
100
AcDbSymbolTable
 70
     1
  0
LTYPE
  5
14
330
5
100
AcDbSymbolTableRecord
100
AcDbLinetypeTableRecord
  2
BYBLOCK
 70
     0
  3

 72
    65
 73
     0
 40
0.0
  0
LTYPE
  5
15
330
5
100
AcDbSymbolTableRecord
100
AcDbLinetypeTableRecord
  2
BYLAYER
 70
     0
  3

 72
    65
 73
     0
 40
0.0
  0
LTYPE
  5
16
330
5
100
AcDbSymbolTableRecord
100
AcDbLinetypeTableRecord
  2
CONTINUOUS
 70
     0
  3
Solid line
 72
    65
 73
     0
 40
0.0
  0
ENDTAB
  0
TABLE
  2
LAYER
  5
2
100
AcDbSymbolTable
 70
2
  0
LAYER
  5
50
100
AcDbSymbolTableRecord
100
AcDbLayerTableRecord
  2
0
 70
0
  6
CONTINUOUS
  0
LAYER
  5
51
100
AcDbSymbolTableRecord
100
AcDbLayerTableRecord
  2
Layer_1
 70
0
  6
CONTINUOUS
  0
ENDTAB
  0
TABLE
  2
STYLE
  5
3
330
0
100
AcDbSymbolTable
 70
     1
  0
STYLE
  5
11
330
3
100
AcDbSymbolTableRecord
100
AcDbTextStyleTableRecord
  2
STANDARD
 70
     0
 40
0.0
 41
1.0
 50
0.0
 71
     0
 42
2.5
  3
txt
  4

  0
ENDTAB
  0
TABLE
  2
VIEW
  5
6
330
0
100
AcDbSymbolTable
 70
     0
  0
ENDTAB
  0
TABLE
  2
UCS
  5
7
330
0
100
AcDbSymbolTable
 70
     0
  0
ENDTAB
  0
TABLE
  2
APPID
  5
9
330
0
100
AcDbSymbolTable
 70
     2
  0
APPID
  5
12
330
9
100
AcDbSymbolTableRecord
100
AcDbRegAppTableRecord
  2
ACAD
 70
     0
  0
ENDTAB
  0
TABLE
  2
DIMSTYLE
  5
A
330
0
100
AcDbSymbolTable
 70
     1
  0
DIMSTYLE
105
27
330
A
100
AcDbSymbolTableRecord
100
AcDbDimStyleTableRecord
  2
ISO-25
 70
     0
  3

  4

  5

  6

  7

 40
1.0
 41
2.5
 42
0.625
 43
3.75
 44
1.25
 45
0.0
 46
0.0
 47
0.0
 48
0.0
140
2.5
141
2.5
142
0.0
143
0.03937007874016
144
1.0
145
0.0
146
1.0
147
0.625
 71
     0
 72
     0
 73
     0
 74
     0
 75
     0
 76
     0
 77
     1
 78
     8
170
     0
171
     3
172
     1
173
     0
174
     0
175
     0
176
     0
177
     0
178
     0
270
     2
271
     2
272
     2
273
     2
274
     3
340
11
275
     0
280
     0
281
     0
282
     0
283
     0
284
     8
285
     0
286
     0
287
     3
288
     0
  0
ENDTAB
  0
TABLE
  2
BLOCK_RECORD
  5
1
330
0
100
AcDbSymbolTable
 70
     1
  0
BLOCK_RECORD
  5
1F
330
1
100
AcDbSymbolTableRecord
100
AcDbBlockTableRecord
  2
*MODEL_SPACE
  0
BLOCK_RECORD
  5
1B
330
1
100
AcDbSymbolTableRecord
100
AcDbBlockTableRecord
  2
*PAPER_SPACE
  0
ENDTAB
  0
ENDSEC
  0
SECTION
  2
BLOCKS
  0
BLOCK
  5
20
330
1F
100
AcDbEntity
  8
0
100
AcDbBlockBegin
  2
*MODEL_SPACE
 70
     0
 10
0.0
 20
0.0
 30
0.0
  3
*MODEL_SPACE
  1

  0
ENDBLK
  5
21
330
1F
100
AcDbEntity
  8
0
100
AcDbBlockEnd
  0
BLOCK
  5
1C
330
1B
100
AcDbEntity
 67
     1
  8
0
100
AcDbBlockBegin
  2
*PAPER_SPACE
  1

  0
ENDBLK
  5
1D
330
1B
100
AcDbEntity
 67
     1
  8
0
100
AcDbBlockEnd
  0
ENDSEC
  0
SECTION
  2
ENTITIES
  0
LWPOLYLINE
  5
100
100
AcDbEntity
  8
Layer_1
 62
7
100
AcDbPolyline
 90
368
 70
1
 10
160.421569
 20
26.103910
 30
0.0
 10
160.812959
 20
28.063440
 30
0.0
 10
161.881769
 20
29.673213
 30
0.0
 10
163.469949
 20
30.762506
 30
0.0
 10
165.419469
 20
31.160598
 30
0.0
 10
177.919479
 20
31.134018
 30
0.0
 10
190.419489
 20
31.107438
 30
0.0
 10
202.919499
 20
31.080858
 30
0.0
 10
215.419509
 20
31.054278
 30
0.0
 10
217.350849
 20
30.665574
 30
0.0
 10
218.899049
 20
29.608428
 30
0.0
 10
219.927879
 20
28.033014
 30
0.0
 10
220.301089
 20
26.089504
 30
0.0
 10
219.931159
 20
24.126417
 30
0.0
 10
218.909569
 20
22.508811
 30
0.0
 10
217.368609
 20
21.411664
 30
0.0
 10
215.440559
 20
21.009954
 30
0.0
 10
204.185809
 20
21.033440
 30
0.0
 10
192.931059
 20
21.056925
 30
0.0
 10
181.676319
 20
21.080410
 30
0.0
 10
170.421569
 20
21.103896
 30
0.0
 10
170.431569
 20
17.005158
 30
0.0
 10
170.439569
 20
13.103843
 30
0.0
 10
170.438709
 20
9.202555
 30
0.0
 10
170.422109
 20
5.103898
 30
0.0
 10
170.028009
 20
3.162302
 30
0.0
 10
168.970189
 20
1.591487
 30
0.0
 10
167.396269
 20
0.540037
 30
0.0
 10
165.453829
 20
0.156536
 30
0.0
 10
125.371619
 20
0.150436
 30
0.0
 10
85.289399
 20
0.144336
 30
0.0
 10
45.207191
 20
0.138236
 30
0.0
 10
5.124979
 20
0.132136
 30
0.0
 10
3.179755
 20
0.372111
 30
0.0
 10
1.599909
 20
1.107738
 30
0.0
 10
0.536687
 20
2.361629
 30
0.0
 10
0.141332
 20
4.156393
 30
0.0
 10
0.143232
 20
5.713347
 30
0.0
 10
0.147332
 20
7.142359
 30
0.0
 10
0.175952
 20
8.589083
 30
0.0
 10
0.251452
 20
10.199170
 30
0.0
 10
0.622514
 20
11.200057
 30
0.0
 10
0.993576
 20
12.200944
 30
0.0
 10
1.364639
 20
13.201831
 30
0.0
 10
1.735169
 20
14.202870
 30
0.0
 10
2.366169
 20
14.202870
 30
0.0
 10
2.997169
 20
14.202870
 30
0.0
 10
3.628169
 20
14.202870
 30
0.0
 10
4.259169
 20
14.202870
 30
0.0
 10
4.620419
 20
13.210620
 30
0.0
 10
4.981669
 20
12.218370
 30
0.0
 10
5.342919
 20
11.226120
 30
0.0
 10
5.704169
 20
10.233870
 30
0.0
 10
6.335169
 20
10.233870
 30
0.0
 10
6.966169
 20
10.233870
 30
0.0
 10
7.597169
 20
10.233870
 30
0.0
 10
8.228169
 20
10.233870
 30
0.0
 10
8.589169
 20
11.226120
 30
0.0
 10
8.950169
 20
12.218370
 30
0.0
 10
9.311169
 20
13.210620
 30
0.0
 10
9.672169
 20
14.202870
 30
0.0
 10
10.303169
 20
14.202870
 30
0.0
 10
10.934169
 20
14.202870
 30
0.0
 10
11.565169
 20
14.202870
 30
0.0
 10
12.196169
 20
14.202870
 30
0.0
 10
12.557419
 20
13.210620
 30
0.0
 10
12.918669
 20
12.218370
 30
0.0
 10
13.279919
 20
11.226120
 30
0.0
 10
13.641169
 20
10.233870
 30
0.0
 10
14.272169
 20
10.233870
 30
0.0
 10
14.903169
 20
10.233870
 30
0.0
 10
15.534169
 20
10.233870
 30
0.0
 10
16.165169
 20
10.233870
 30
0.0
 10
16.526419
 20
11.226120
 30
0.0
 10
16.887669
 20
12.218370
 30
0.0
 10
17.248919
 20
13.210620
 30
0.0
 10
17.610169
 20
14.202870
 30
0.0
 10
18.241169
 20
14.202870
 30
0.0
 10
18.872169
 20
14.202870
 30
0.0
 10
19.503169
 20
14.202870
 30
0.0
 10
20.134169
 20
14.202870
 30
0.0
 10
20.495419
 20
13.210620
 30
0.0
 10
20.856669
 20
12.218370
 30
0.0
 10
21.217919
 20
11.226120
 30
0.0
 10
21.579169
 20
10.233870
 30
0.0
 10
22.210169
 20
10.233870
 30
0.0
 10
22.841169
 20
10.233870
 30
0.0
 10
23.472169
 20
10.233870
 30
0.0
 10
24.103169
 20
10.233870
 30
0.0
 10
24.464169
 20
11.226120
 30
0.0
 10
24.825169
 20
12.218370
 30
0.0
 10
25.186169
 20
13.210620
 30
0.0
 10
25.547169
 20
14.202870
 30
0.0
 10
26.178169
 20
14.202870
 30
0.0
 10
26.809169
 20
14.202870
 30
0.0
 10
27.440169
 20
14.202870
 30
0.0
 10
28.071169
 20
14.202870
 30
0.0
 10
28.432419
 20
13.210620
 30
0.0
 10
28.793669
 20
12.218370
 30
0.0
 10
29.154919
 20
11.226120
 30
0.0
 10
29.516169
 20
10.233870
 30
0.0
 10
30.147169
 20
10.233870
 30
0.0
 10
30.778169
 20
10.233870
 30
0.0
 10
31.409169
 20
10.233870
 30
0.0
 10
32.040169
 20
10.233870
 30
0.0
 10
32.401419
 20
11.226120
 30
0.0
 10
32.762669
 20
12.218370
 30
0.0
 10
33.123919
 20
13.210620
 30
0.0
 10
33.485169
 20
14.202870
 30
0.0
 10
34.116169
 20
14.202870
 30
0.0
 10
34.747169
 20
14.202870
 30
0.0
 10
35.378169
 20
14.202870
 30
0.0
 10
36.009169
 20
14.202870
 30
0.0
 10
36.370419
 20
13.210620
 30
0.0
 10
36.731669
 20
12.218370
 30
0.0
 10
37.092919
 20
11.226120
 30
0.0
 10
37.454169
 20
10.233870
 30
0.0
 10
38.085169
 20
10.233870
 30
0.0
 10
38.716169
 20
10.233870
 30
0.0
 10
39.347169
 20
10.233870
 30
0.0
 10
39.978169
 20
10.233870
 30
0.0
 10
40.339169
 20
11.226120
 30
0.0
 10
40.700169
 20
12.218370
 30
0.0
 10
41.061169
 20
13.210620
 30
0.0
 10
41.422169
 20
14.202870
 30
0.0
 10
42.053169
 20
14.202870
 30
0.0
 10
42.684169
 20
14.202870
 30
0.0
 10
43.315169
 20
14.202870
 30
0.0
 10
43.946169
 20
14.202870
 30
0.0
 10
44.307419
 20
13.210620
 30
0.0
 10
44.668669
 20
12.218370
 30
0.0
 10
45.029919
 20
11.226120
 30
0.0
 10
45.391169
 20
10.233870
 30
0.0
 10
46.022169
 20
10.233870
 30
0.0
 10
46.653169
 20
10.233870
 30
0.0
 10
47.284169
 20
10.233870
 30
0.0
 10
47.915169
 20
10.233870
 30
0.0
 10
48.276419
 20
11.226120
 30
0.0
 10
48.637669
 20
12.218370
 30
0.0
 10
48.998919
 20
13.210620
 30
0.0
 10
49.360169
 20
14.202870
 30
0.0
 10
49.991169
 20
14.202870
 30
0.0
 10
50.622169
 20
14.202870
 30
0.0
 10
51.253169
 20
14.202870
 30
0.0
 10
51.884169
 20
14.202870
 30
0.0
 10
52.245419
 20
13.210620
 30
0.0
 10
52.606669
 20
12.218370
 30
0.0
 10
52.967919
 20
11.226120
 30
0.0
 10
53.329169
 20
10.233870
 30
0.0
 10
53.960169
 20
10.233870
 30
0.0
 10
54.591169
 20
10.233870
 30
0.0
 10
55.222169
 20
10.233870
 30
0.0
 10
55.853169
 20
10.233870
 30
0.0
 10
56.214169
 20
11.226120
 30
0.0
 10
56.575169
 20
12.218370
 30
0.0
 10
56.936169
 20
13.210620
 30
0.0
 10
57.297169
 20
14.202870
 30
0.0
 10
57.928169
 20
14.202870
 30
0.0
 10
58.559169
 20
14.202870
 30
0.0
 10
59.190169
 20
14.202870
 30
0.0
 10
59.821169
 20
14.202870
 30
0.0
 10
60.182419
 20
13.210620
 30
0.0
 10
60.543669
 20
12.218370
 30
0.0
 10
60.904919
 20
11.226120
 30
0.0
 10
61.266169
 20
10.233870
 30
0.0
 10
61.897169
 20
10.233870
 30
0.0
 10
62.528169
 20
10.233870
 30
0.0
 10
63.159169
 20
10.233870
 30
0.0
 10
63.790169
 20
10.233870
 30
0.0
 10
64.151419
 20
11.226120
 30
0.0
 10
64.512669
 20
12.218370
 30
0.0
 10
64.873919
 20
13.210620
 30
0.0
 10
65.235169
 20
14.202870
 30
0.0
 10
65.866169
 20
14.202870
 30
0.0
 10
66.497169
 20
14.202870
 30
0.0
 10
67.128169
 20
14.202870
 30
0.0
 10
67.759169
 20
14.202870
 30
0.0
 10
68.120419
 20
13.210620
 30
0.0
 10
68.481669
 20
12.218370
 30
0.0
 10
68.842919
 20
11.226120
 30
0.0
 10
69.204169
 20
10.233870
 30
0.0
 10
69.835169
 20
10.233870
 30
0.0
 10
70.466169
 20
10.233870
 30
0.0
 10
71.097169
 20
10.233870
 30
0.0
 10
71.728169
 20
10.233870
 30
0.0
 10
72.089169
 20
11.226120
 30
0.0
 10
72.450169
 20
12.218370
 30
0.0
 10
72.811169
 20
13.210620
 30
0.0
 10
73.172169
 20
14.202870
 30
0.0
 10
73.803169
 20
14.202870
 30
0.0
 10
74.434169
 20
14.202870
 30
0.0
 10
75.065169
 20
14.202870
 30
0.0
 10
75.696169
 20
14.202870
 30
0.0
 10
76.057419
 20
13.210620
 30
0.0
 10
76.418669
 20
12.218370
 30
0.0
 10
76.779919
 20
11.226120
 30
0.0
 10
77.141169
 20
10.233870
 30
0.0
 10
77.772169
 20
10.233870
 30
0.0
 10
78.403169
 20
10.233870
 30
0.0
 10
79.034169
 20
10.233870
 30
0.0
 10
79.665169
 20
10.233870
 30
0.0
 10
80.026419
 20
11.226120
 30
0.0
 10
80.387669
 20
12.218370
 30
0.0
 10
80.748919
 20
13.210620
 30
0.0
 10
81.110169
 20
14.202870
 30
0.0
 10
81.741169
 20
14.202870
 30
0.0
 10
82.372169
 20
14.202870
 30
0.0
 10
83.003169
 20
14.202870
 30
0.0
 10
83.634169
 20
14.202870
 30
0.0
 10
83.995419
 20
13.210620
 30
0.0
 10
84.356669
 20
12.218370
 30
0.0
 10
84.717919
 20
11.226120
 30
0.0
 10
85.079169
 20
10.233870
 30
0.0
 10
85.710169
 20
10.233870
 30
0.0
 10
86.341169
 20
10.233870
 30
0.0
 10
86.972169
 20
10.233870
 30
0.0
 10
87.603169
 20
10.233870
 30
0.0
 10
87.964169
 20
11.226120
 30
0.0
 10
88.325169
 20
12.218370
 30
0.0
 10
88.686169
 20
13.210620
 30
0.0
 10
89.047169
 20
14.202870
 30
0.0
 10
89.678169
 20
14.202870
 30
0.0
 10
90.309169
 20
14.202870
 30
0.0
 10
90.940169
 20
14.202870
 30
0.0
 10
91.571169
 20
14.202870
 30
0.0
 10
91.932419
 20
13.210620
 30
0.0
 10
92.293669
 20
12.218370
 30
0.0
 10
92.654919
 20
11.226120
 30
0.0
 10
93.016169
 20
10.233870
 30
0.0
 10
93.647169
 20
10.233870
 30
0.0
 10
94.278169
 20
10.233870
 30
0.0
 10
94.909169
 20
10.233870
 30
0.0
 10
95.540169
 20
10.233870
 30
0.0
 10
95.901419
 20
11.226120
 30
0.0
 10
96.262669
 20
12.218370
 30
0.0
 10
96.623919
 20
13.210620
 30
0.0
 10
96.985169
 20
14.202870
 30
0.0
 10
97.616169
 20
14.202870
 30
0.0
 10
98.247169
 20
14.202870
 30
0.0
 10
98.878169
 20
14.202870
 30
0.0
 10
99.509169
 20
14.202870
 30
0.0
 10
99.870419
 20
13.210620
 30
0.0
 10
100.231669
 20
12.218370
 30
0.0
 10
100.592919
 20
11.226120
 30
0.0
 10
100.954169
 20
10.233870
 30
0.0
 10
101.585169
 20
10.233870
 30
0.0
 10
102.216169
 20
10.233870
 30
0.0
 10
102.847169
 20
10.233870
 30
0.0
 10
103.478169
 20
10.233870
 30
0.0
 10
103.839169
 20
11.226120
 30
0.0
 10
104.200169
 20
12.218370
 30
0.0
 10
104.561169
 20
13.210620
 30
0.0
 10
104.922169
 20
14.202870
 30
0.0
 10
105.553169
 20
14.202870
 30
0.0
 10
106.184169
 20
14.202870
 30
0.0
 10
106.815169
 20
14.202870
 30
0.0
 10
107.446169
 20
14.202870
 30
0.0
 10
107.807419
 20
13.210620
 30
0.0
 10
108.168669
 20
12.218370
 30
0.0
 10
108.529919
 20
11.226120
 30
0.0
 10
108.891169
 20
10.233870
 30
0.0
 10
109.522169
 20
10.233870
 30
0.0
 10
110.153169
 20
10.233870
 30
0.0
 10
110.784169
 20
10.233870
 30
0.0
 10
111.415169
 20
10.233870
 30
0.0
 10
111.776419
 20
11.226120
 30
0.0
 10
112.137669
 20
12.218370
 30
0.0
 10
112.498919
 20
13.210620
 30
0.0
 10
112.860169
 20
14.202870
 30
0.0
 10
113.491169
 20
14.202870
 30
0.0
 10
114.122169
 20
14.202870
 30
0.0
 10
114.753169
 20
14.202870
 30
0.0
 10
115.384169
 20
14.202870
 30
0.0
 10
115.745419
 20
13.210620
 30
0.0
 10
116.106669
 20
12.218370
 30
0.0
 10
116.467919
 20
11.226120
 30
0.0
 10
116.829169
 20
10.233870
 30
0.0
 10
117.460169
 20
10.233870
 30
0.0
 10
118.091169
 20
10.233870
 30
0.0
 10
118.722169
 20
10.233870
 30
0.0
 10
119.353169
 20
10.233870
 30
0.0
 10
119.714169
 20
11.226120
 30
0.0
 10
120.075169
 20
12.218370
 30
0.0
 10
120.436169
 20
13.210620
 30
0.0
 10
120.797169
 20
14.202870
 30
0.0
 10
121.428169
 20
14.202870
 30
0.0
 10
122.059169
 20
14.202870
 30
0.0
 10
122.690169
 20
14.202870
 30
0.0
 10
123.321169
 20
14.202870
 30
0.0
 10
123.682419
 20
13.210620
 30
0.0
 10
124.043669
 20
12.218370
 30
0.0
 10
124.404919
 20
11.226120
 30
0.0
 10
124.766169
 20
10.233870
 30
0.0
 10
125.397169
 20
10.233870
 30
0.0
 10
126.028169
 20
10.233870
 30
0.0
 10
126.659169
 20
10.233870
 30
0.0
 10
127.290169
 20
10.233870
 30
0.0
 10
127.651419
 20
11.226120
 30
0.0
 10
128.012669
 20
12.218370
 30
0.0
 10
128.373919
 20
13.210620
 30
0.0
 10
128.735169
 20
14.202870
 30
0.0
 10
129.366169
 20
14.202870
 30
0.0
 10
129.997169
 20
14.202870
 30
0.0
 10
130.628169
 20
14.202870
 30
0.0
 10
131.259169
 20
14.202870
 30
0.0
 10
131.620419
 20
13.210620
 30
0.0
 10
131.981669
 20
12.218370
 30
0.0
 10
132.342919
 20
11.226120
 30
0.0
 10
132.704169
 20
10.233870
 30
0.0
 10
133.335169
 20
10.233870
 30
0.0
 10
133.966169
 20
10.233870
 30
0.0
 10
134.597169
 20
10.233870
 30
0.0
 10
135.228169
 20
10.233870
 30
0.0
 10
135.589169
 20
11.226120
 30
0.0
 10
135.950169
 20
12.218370
 30
0.0
 10
136.311169
 20
13.210620
 30
0.0
 10
136.672169
 20
14.202870
 30
0.0
 10
137.303169
 20
14.202870
 30
0.0
 10
137.934169
 20
14.202870
 30
0.0
 10
138.565169
 20
14.202870
 30
0.0
 10
139.196169
 20
14.202870
 30
0.0
 10
139.557419
 20
13.210620
 30
0.0
 10
139.918669
 20
12.218370
 30
0.0
 10
140.279919
 20
11.226120
 30
0.0
 10
140.641169
 20
10.233870
 30
0.0
 10
141.272169
 20
10.233870
 30
0.0
 10
141.903169
 20
10.233870
 30
0.0
 10
142.534169
 20
10.233870
 30
0.0
 10
143.165169
 20
10.233870
 30
0.0
 10
143.526419
 20
11.226120
 30
0.0
 10
143.887669
 20
12.218370
 30
0.0
 10
144.248919
 20
13.210620
 30
0.0
 10
144.610169
 20
14.202870
 30
0.0
 10
145.241169
 20
14.202870
 30
0.0
 10
145.872169
 20
14.202870
 30
0.0
 10
146.503169
 20
14.202870
 30
0.0
 10
147.134169
 20
14.202870
 30
0.0
 10
147.495419
 20
13.210620
 30
0.0
 10
147.856669
 20
12.218370
 30
0.0
 10
148.217919
 20
11.226120
 30
0.0
 10
148.579169
 20
10.233870
 30
0.0
 10
149.210169
 20
10.233870
 30
0.0
 10
149.841169
 20
10.233870
 30
0.0
 10
150.472169
 20
10.233870
 30
0.0
 10
151.103169
 20
10.233870
 30
0.0
 10
151.464169
 20
11.226120
 30
0.0
 10
151.825169
 20
12.218370
 30
0.0
 10
152.186169
 20
13.210620
 30
0.0
 10
152.547169
 20
14.202870
 30
0.0
 10
153.178169
 20
14.202870
 30
0.0
 10
153.809169
 20
14.202870
 30
0.0
 10
154.440169
 20
14.202870
 30
0.0
 10
155.071169
 20
14.202870
 30
0.0
 10
155.432419
 20
13.210620
 30
0.0
 10
155.793669
 20
12.218370
 30
0.0
 10
156.154919
 20
11.226120
 30
0.0
 10
156.516169
 20
10.233870
 30
0.0
 10
157.147169
 20
10.233870
 30
0.0
 10
157.778169
 20
10.233870
 30
0.0
 10
158.409169
 20
10.233870
 30
0.0
 10
159.040169
 20
10.233870
 30
0.0
 10
159.391419
 20
11.213750
 30
0.0
 10
159.742669
 20
12.193630
 30
0.0
 10
160.093919
 20
13.173510
 30
0.0
 10
160.445169
 20
14.153390
 30
0.0
 10
160.439169
 20
17.141020
 30
0.0
 10
160.433169
 20
20.128650
 30
0.0
 10
160.427169
 20
23.116280
 30
0.0
  0
ENDSEC
  0
SECTION
  2
OBJECTS
  0
DICTIONARY
  5
C
330
0
100
AcDbDictionary
  3
ACAD_GROUP
350
D
  3
ACAD_MLINESTYLE
350
17
  0
DICTIONARY
  5
D
330
C
100
AcDbDictionary
  0
DICTIONARY
  5
1A
330
C
100
AcDbDictionary
  0
DICTIONARY
  5
17
330
C
100
AcDbDictionary
  3
STANDARD
350
18
  0
DICTIONARY
  5
19
330
C
100
AcDbDictionary
  0
ENDSEC
  0
EOF
