<?xml version="1.0" encoding="UTF-8" standalone="no"?>
<!-- Created with Inkscape (http://www.inkscape.org/) -->

<svg
   xmlns:dc="http://purl.org/dc/elements/1.1/"
   xmlns:cc="http://creativecommons.org/ns#"
   xmlns:rdf="http://www.w3.org/1999/02/22-rdf-syntax-ns#"
   xmlns:svg="http://www.w3.org/2000/svg"
   xmlns="http://www.w3.org/2000/svg"
   xmlns:sodipodi="http://sodipodi.sourceforge.net/DTD/sodipodi-0.dtd"
   xmlns:inkscape="http://www.inkscape.org/namespaces/inkscape"
   width="210mm"
   height="297mm"
   viewBox="0 0 210 297"
   version="1.1"
   id="svg8"
   inkscape:version="0.92.3 (2405546, 2018-03-11)"
   sodipodi:docname="mech2-cut.svg">
  <sodipodi:namedview
     id="base"
     pagecolor="#ffffff"
     bordercolor="#666666"
     borderopacity="1.0"
     inkscape:pageopacity="0.0"
     inkscape:pageshadow="2"
     inkscape:zoom="0.98994949"
     inkscape:cx="299.70417"
     inkscape:cy="886.2422"
     inkscape:document-units="mm"
     inkscape:current-layer="svg8"
     showgrid="true"
     inkscape:window-width="1366"
     inkscape:window-height="713"
     inkscape:window-x="0"
     inkscape:window-y="27"
     inkscape:window-maximized="1"
     inkscape:measure-start="340.157,1077.17"
     inkscape:measure-end="566.929,1077.17"
     inkscape:snap-global="true"
     inkscape:snap-bbox="true"
     inkscape:snap-bbox-midpoints="true"
     inkscape:bbox-nodes="true">
    <inkscape:grid
       type="xygrid"
       id="grid1347" />
  </sodipodi:namedview>
  <defs
     id="defs2" />
  <metadata
     id="metadata5">
    <rdf:RDF>
      <cc:Work
         rdf:about="">
        <dc:format>image/svg+xml</dc:format>
        <dc:type
           rdf:resource="http://purl.org/dc/dcmitype/StillImage" />
        <dc:title></dc:title>
      </cc:Work>
    </rdf:RDF>
  </metadata>
  <g
     inkscape:label="Layer 1"
     inkscape:groupmode="layer"
     id="layer1" />
  <path
     style="fill:none;stroke:#000000;stroke-width:0.26458332"
     d="M 109.64743,7.0036287 V 22.003747 H 84.647402 c -2.770005,0 -5.000212,2.23021 -5.000212,5.000209 v 9.999909 l -0.963766,2.645833 h -1.682068 l -0.96325,-2.645833 h -1.682583 l -0.96325,2.645833 H 71.709171 L 70.74644,37.003865 h -1.683102 l -0.962732,2.645833 H 66.417505 L 65.454257,37.003865 H 63.77219 l -0.963766,2.645833 h -1.682067 l -0.96325,-2.645833 h -1.682584 l -0.96325,2.645833 H 55.834171 L 54.87144,37.003865 h -1.683102 l -0.962731,2.645833 H 50.542505 L 49.579257,37.003865 H 47.89719 l -0.963766,2.645833 h -1.682067 l -0.96325,-2.645833 h -1.682584 l -0.96325,2.645833 H 39.959172 L 38.99644,37.003865 h -1.683102 l -0.962731,2.645833 H 34.667505 L 33.704258,37.003865 H 32.02219 l -0.963766,2.645833 h -1.682067 l -0.96325,-2.645833 h -1.682583 l -0.96325,2.645833 H 24.084172 L 23.12144,37.003865 h -1.683102 l -0.962731,2.645833 H 18.792505 L 17.829258,37.003865 H 16.14719 l -0.963766,2.645833 h -1.682067 l -0.96325,-2.645833 H 10.855524 L 9.8922738,39.649698 H 8.209172 l -1.2624541,-2.58744 c -3.0694286,0.05833 -2.2996022,4.288483 -2.2996022,7.058483 v 2.883029 c 0,2.77 2.2302126,5.000215 5.0002122,5.00021 H 84.647402 c 2.769997,1.1e-5 5.000209,-2.23021 5.000209,-5.00021 V 42.004074 32.003652 H 109.64743 V 47.00377 l 40.00014,-19.999814 z"
     id="path1278"
     inkscape:connector-curvature="0"
     sodipodi:nodetypes="ccssccccccccccccccccccccccccccccccccccccccccccccccccccccccccssccscccccc" />
  <path
     id="path1300"
     style="fill:none;stroke:#000000;stroke-width:0.26458332"
     d="m 26.756335,19.112867 1.06349,-0.15617 0.6238,0.06064 1.75925,0.79639 v 1.0455 l -1.75925,0.79639 -0.6238,0.06064 -1.06349,-0.15617 -0.50455,1.88301 0.9991,0.3965 0.5099,0.36441 1.12536,1.56933 -0.52274,0.90542 -1.92176,-0.18993 -0.57054,-0.25938 -0.84293,-0.667 -1.37846,1.37846 0.667,0.84293 0.25938,0.57054 0.18993,1.92176 -0.90542,0.52274 -1.56933,-1.12536 -0.36441,-0.5099 -0.3965,-0.9991 -1.88301,0.50455 0.15617,1.06349 -0.06064,0.6238 -0.79639,1.75925 h -1.0455 l -0.79639,-1.75925 -0.06064,-0.6238 0.15617,-1.06349 -1.88301,-0.50455 -0.3965,0.9991 -0.36441,0.5099 -1.56933,1.12536 -0.90542,-0.52274 0.18993,-1.92176 0.25938,-0.57054 0.667,-0.84293 -1.37846,-1.37846 -0.84293,0.667 -0.57054,0.25938 -1.92176,0.18993 -0.52274,-0.90542 1.12536,-1.56933 0.5099,-0.36441 0.9991,-0.3965 -0.50455,-1.88301 -1.06349,0.15617 -0.6238,-0.06064 -1.75925,-0.79639 v -1.0455 l 1.75925,-0.79639 0.6238,-0.06064 1.06349,0.15617 0.50455,-1.88301 -0.9991,-0.3965 -0.5099,-0.36441 -1.12536,-1.56933 0.52274,-0.90542 1.92176,0.18993 0.57054,0.25938 0.84293,0.667 1.37846,-1.37846 -0.667,-0.84293 -0.25938,-0.57054 -0.18993,-1.92176 0.90542,-0.52274 1.56933,1.12536 0.36441,0.5099 0.3965,0.9991 1.88301,-0.50455 -0.15617,-1.06349 0.06064,-0.6238 0.79639,-1.75925 h 1.0455 l 0.79639,1.75925 0.06064,0.6238 -0.15617,1.06349 1.88301,0.50455 0.3965,-0.9991 0.36441,-0.5099 1.56933,-1.12536 0.90542,0.52274 -0.18993,1.92176 -0.25938,0.57054 -0.667,0.84293 1.37846,1.37846 0.84293,-0.667 0.57054,-0.25938 1.92176,-0.18993 0.52274,0.90542 -1.12536,1.56933 -0.5099,0.36441 -0.9991,0.3965 z"
     inkscape:connector-curvature="0" />
  <path
     style="fill:none;stroke:#000000;stroke-width:0.26458332"
     d="m 21.069577,20.336477 a 2.6458333,2.6458333 0 0 1 -2.645833,2.645834 2.6458333,2.6458333 0 0 1 -2.645833,-2.645834 2.6458333,2.6458333 0 0 1 2.645833,-2.645833 2.6458333,2.6458333 0 0 1 2.645833,2.645833 z"
     id="path1302" />
  <path
     style="fill:none;stroke:#000000;stroke-width:0.26458332"
     d="m 129.67256,44.249933 c -8.93906,0.09644 -16.72854,6.113341 -19.07997,14.73812 H 84.866509 c -2.770003,0 -5.000213,2.230231 -5.000213,5.000212 v 9.999906 l -0.964282,2.645833 h -1.681551 l -0.963247,-2.645833 h -1.683102 l -0.962732,2.645833 h -1.683101 l -0.96325,-2.645833 h -1.682584 l -0.96325,2.645833 h -1.683099 l -0.962734,-2.645833 h -1.682067 l -0.964282,2.645833 h -1.681552 l -0.963247,-2.645833 h -1.683102 l -0.962731,2.645833 h -1.683102 l -0.96325,-2.645833 h -1.682584 l -0.96325,2.645833 h -1.683099 l -0.962734,-2.645833 h -1.682067 l -0.964282,2.645833 h -1.681552 l -0.963247,-2.645833 h -1.683102 l -0.962731,2.645833 h -1.683102 l -0.96325,-2.645833 h -1.682583 l -0.96325,2.645833 h -1.6831 l -0.962734,-2.645833 h -1.682067 l -0.964282,2.645833 h -1.681551 l -0.963248,-2.645833 h -1.683102 l -0.962731,2.645833 h -1.683102 l -0.96325,-2.645833 h -1.682583 l -0.96325,2.645833 h -1.683099 l -0.962734,-2.645833 h -1.682068 l -0.964282,2.645833 h -1.681551 l -0.963247,-2.645833 h -1.683102 l -0.962732,2.645833 H 8.4282813 l -1.262454,-2.58744 c -3.0694312,0.0583 -2.2996022,3.070104 -2.2996022,7.058485 v 2.883027 c 0,2.77 2.2302126,5.000213 5.0002122,5.000213 H 84.866509 c 2.769999,2.9e-5 5.000212,-2.230213 5.000212,-5.000213 V 78.988383 68.987958 h 20.594089 c 2.18839,8.972893 10.23632,15.280357 19.4722,15.261085 11.02011,-0.03598 19.93466,-8.979641 19.9347,-19.999812 l -0.002,-0.260966 c -0.14365,-11.01922 -9.17397,-19.845945 -20.1936,-19.738332 z m 0.12712,12.999206 c 3.85696,-0.03768 7.01762,3.051802 7.06779,6.908623 l 5.2e-4,0.09147 c -2.2e-4,3.857003 -3.12038,6.987096 -6.97736,6.999571 -3.85683,0.01237 -6.99703,-3.097323 -7.02231,-6.954097 -0.0253,-3.857093 3.07437,-7.007827 6.93136,-7.045567 z"
     id="path1278-6"
     inkscape:connector-curvature="0"
     sodipodi:nodetypes="ccssccccccccccccccccccccccccccccccccccccccccccccccccccccccccssscsccccccccccccccc" />
  <path
     id="path1300-7"
     style="fill:none;stroke:#000000;stroke-width:0.26458332"
     d="m 55,19.55278 1.06349,-0.15617 0.6238,0.06064 1.75925,0.79639 v 1.0455 l -1.75925,0.79639 -0.6238,0.06064 L 55,22 l -0.50455,1.88301 0.9991,0.3965 0.5099,0.36441 1.12536,1.56933 -0.52274,0.90542 -1.92176,-0.18993 -0.57054,-0.25938 -0.84293,-0.667 -1.37846,1.37846 0.667,0.84293 0.25938,0.57054 0.18993,1.92176 -0.90542,0.52274 -1.56933,-1.12536 -0.36441,-0.5099 -0.3965,-0.9991 -1.88301,0.50455 0.15617,1.06349 -0.06064,0.6238 -0.79639,1.75925 h -1.0455 l -0.79639,-1.75925 -0.06064,-0.6238 0.15617,-1.06349 -1.88301,-0.50455 -0.3965,0.9991 -0.36441,0.5099 -1.56933,1.12536 -0.90542,-0.52274 0.18993,-1.92176 0.25938,-0.57054 0.667,-0.84293 -1.37846,-1.37846 -0.84293,0.667 -0.57054,0.25938 -1.92176,0.18993 -0.52274,-0.90542 1.12536,-1.56933 0.5099,-0.36441 0.9991,-0.3965 L 38.33482,22 l -1.06349,0.15617 -0.6238,-0.06064 -1.75925,-0.79639 v -1.0455 l 1.75925,-0.79639 0.6238,-0.06064 1.06349,0.15617 0.50455,-1.88301 -0.9991,-0.3965 -0.5099,-0.36441 -1.12536,-1.56933 0.52274,-0.90542 1.92176,0.18993 0.57054,0.25938 0.84293,0.667 1.37846,-1.37846 -0.667,-0.84293 -0.25938,-0.57054 -0.18993,-1.92176 0.90542,-0.52274 1.56933,1.12536 0.36441,0.5099 0.3965,0.9991 1.88301,-0.50455 -0.15617,-1.06349 0.06064,-0.6238 0.79639,-1.75925 h 1.0455 l 0.79639,1.75925 0.06064,0.6238 -0.15617,1.06349 1.88301,0.50455 0.3965,-0.9991 0.36441,-0.5099 1.56933,-1.12536 0.90542,0.52274 -0.18993,1.92176 -0.25938,0.57054 -0.667,0.84293 1.37846,1.37846 0.84293,-0.667 0.57054,-0.25938 1.92176,-0.18993 0.52274,0.90542 -1.12536,1.56933 -0.5099,0.36441 -0.9991,0.3965 z"
     inkscape:connector-curvature="0" />
  <path
     style="fill:none;stroke:#000000;stroke-width:0.26458332"
     d="m 49.313245,20.77639 a 2.6458333,2.6458333 0 0 1 -2.645833,2.645833 2.6458333,2.6458333 0 0 1 -2.645833,-2.645833 2.6458333,2.6458333 0 0 1 2.645833,-2.645833 2.6458333,2.6458333 0 0 1 2.645833,2.645833 z"
     id="path1302-0" />
</svg>
