M48
INCH,TZ
T1C0.016
T2C0.031
T3C0.039
%
G90
G05
T1
X4.4245Y-2.0006
X4.8996Y-2.2043
X5.Y-2.2047
X5.6331Y-0.6055
X5.8328Y-0.8854
X6.0466Y-0.7707
T2
X4.1661Y-0.9681
X4.1661Y-1.598
X4.1724Y-1.2831
X4.5661Y-0.9681
X4.5661Y-1.598
X4.5724Y-1.2831
X4.6006Y-0.699
X4.8835Y-0.9819
X5.1079Y-1.0949
X5.1079Y-1.1949
X5.1079Y-1.2949
X5.1079Y-1.3949
X5.1079Y-1.4949
X5.1079Y-1.5949
X5.1079Y-1.6949
X5.1079Y-1.7949
X5.1079Y-1.8949
X5.1079Y-1.9949
X5.1079Y-2.0949
X5.1079Y-2.1949
X5.2291Y-0.9823
X5.4563Y-0.7929
X5.5563Y-0.7929
X5.6291Y-0.9823
X5.6563Y-0.7929
X5.7079Y-1.0949
X5.7079Y-1.1949
X5.7079Y-1.2949
X5.7079Y-1.3949
X5.7079Y-1.4949
X5.7079Y-1.5949
X5.7079Y-1.6949
X5.7079Y-1.7949
X5.7079Y-1.8949
X5.7079Y-1.9949
X5.7079Y-2.0949
X5.7079Y-2.1949
X5.7811Y-0.6303
X6.052Y-0.8843
X6.052Y-1.2843
X6.1811Y-0.6303
T3
X4.2626Y-2.1835
X4.2642Y-2.328
X4.3236Y-1.1256
X4.3299Y-1.4406
X4.348Y-1.7555
X4.3626Y-2.1835
X4.3642Y-2.328
X4.4236Y-1.1256
X4.4299Y-1.4406
X4.448Y-1.7555
X4.4626Y-2.1835
X4.4642Y-2.328
X4.5236Y-1.1256
X4.5299Y-1.4406
X4.548Y-1.7555
X4.5626Y-2.1835
X4.5642Y-2.328
X4.6236Y-1.1256
X4.6299Y-1.4406
X4.648Y-1.7555
X4.6626Y-2.1835
X4.6642Y-2.328
X4.7236Y-1.1256
X4.7299Y-1.4406
X4.748Y-1.7555
X4.7626Y-2.1835
X4.7642Y-2.328
X4.8236Y-1.1256
X4.8299Y-1.4406
X4.848Y-1.7555
X5.1303Y-0.861
X5.2303Y-0.861
X5.8996Y-0.9902
X5.8996Y-1.0902
X5.8996Y-1.1902
X5.8996Y-1.2902
X5.8996Y-1.3902
X5.8996Y-1.4902
X6.063Y-1.5165
X6.063Y-1.6165
X6.063Y-1.7165
X6.063Y-1.8165
X6.063Y-1.9165
X6.063Y-2.0165
T0
M30
