<?xml version="1.0" standalone="no"?>
<!DOCTYPE svg PUBLIC "-//W3C//DTD SVG 1.1//EN"
"http://www.w3.org/Graphics/SVG/1.1/DTD/svg11.dtd">
<svg width="4586.74" height="3878.08" viewBox="0 0 4586.74 3878.08" version="1.1"
xmlns="http://www.w3.org/2000/svg"
xmlns:xlink="http://www.w3.org/1999/xlink">
<circle cx="4110" cy="488" r="16" style=""/>
<circle cx="3682" cy="717" r="16" style=""/>
<circle cx="3283" cy="158" r="16" style=""/>
<circle cx="2017" cy="3356" r="16" style=""/>
<circle cx="1816" cy="3355" r="16" style=""/>
<circle cx="866" cy="2947" r="16" style=""/>
<circle cx="4379" cy="207" r="30" style=""/>
<circle cx="4121" cy="715" r="30" style=""/>
<circle cx="3579" cy="207" r="30" style=""/>
<circle cx="3329" cy="532" r="30" style=""/>
<circle cx="3129" cy="532" r="30" style=""/>
<circle cx="2929" cy="532" r="30" style=""/>
<circle cx="3275" cy="911" r="30" style=""/>
<circle cx="3433" cy="1136" r="30" style=""/>
<circle cx="3433" cy="1336" r="30" style=""/>
<circle cx="3433" cy="1536" r="30" style=""/>
<circle cx="3433" cy="1736" r="30" style=""/>
<circle cx="3433" cy="1936" r="30" style=""/>
<circle cx="3433" cy="2136" r="30" style=""/>
<circle cx="3433" cy="2336" r="30" style=""/>
<circle cx="3433" cy="2536" r="30" style=""/>
<circle cx="3433" cy="2736" r="30" style=""/>
<circle cx="3433" cy="2936" r="30" style=""/>
<circle cx="3433" cy="3136" r="30" style=""/>
<circle cx="3433" cy="3336" r="30" style=""/>
<circle cx="2233" cy="3336" r="30" style=""/>
<circle cx="2233" cy="3136" r="30" style=""/>
<circle cx="2233" cy="2936" r="30" style=""/>
<circle cx="2233" cy="2736" r="30" style=""/>
<circle cx="2233" cy="2536" r="30" style=""/>
<circle cx="2233" cy="2336" r="30" style=""/>
<circle cx="2233" cy="2136" r="30" style=""/>
<circle cx="2233" cy="1936" r="30" style=""/>
<circle cx="2233" cy="1736" r="30" style=""/>
<circle cx="2233" cy="1536" r="30" style=""/>
<circle cx="2233" cy="1336" r="30" style=""/>
<circle cx="2233" cy="1136" r="30" style=""/>
<circle cx="2475" cy="911" r="30" style=""/>
<circle cx="1784" cy="910" r="30" style=""/>
<circle cx="1149" cy="883" r="30" style=""/>
<circle cx="1218" cy="345" r="30" style=""/>
<circle cx="349" cy="883" r="30" style=""/>
<circle cx="362" cy="1513" r="30" style=""/>
<circle cx="349" cy="2142" r="30" style=""/>
<circle cx="1149" cy="2142" r="30" style=""/>
<circle cx="1162" cy="1513" r="30" style=""/>
<circle cx="4121" cy="1515" r="30" style=""/>
<circle cx="4143" cy="2979" r="38" style=""/>
<circle cx="4143" cy="2779" r="38" style=""/>
<circle cx="4143" cy="2579" r="38" style=""/>
<circle cx="4143" cy="2379" r="38" style=""/>
<circle cx="4143" cy="2179" r="38" style=""/>
<circle cx="4143" cy="1979" r="38" style=""/>
<circle cx="3816" cy="1927" r="38" style=""/>
<circle cx="3816" cy="1727" r="38" style=""/>
<circle cx="3816" cy="1527" r="38" style=""/>
<circle cx="3816" cy="1327" r="38" style=""/>
<circle cx="3816" cy="1127" r="38" style=""/>
<circle cx="3816" cy="927" r="38" style=""/>
<circle cx="2477" cy="669" r="38" style=""/>
<circle cx="2278" cy="669" r="38" style=""/>
<circle cx="1664" cy="1198" r="38" style=""/>
<circle cx="1464" cy="1198" r="38" style=""/>
<circle cx="1264" cy="1198" r="38" style=""/>
<circle cx="1064" cy="1198" r="38" style=""/>
<circle cx="864" cy="1198" r="38" style=""/>
<circle cx="664" cy="1198" r="38" style=""/>
<circle cx="677" cy="1828" r="38" style=""/>
<circle cx="877" cy="1828" r="38" style=""/>
<circle cx="1077" cy="1828" r="38" style=""/>
<circle cx="1277" cy="1828" r="38" style=""/>
<circle cx="1477" cy="1828" r="38" style=""/>
<circle cx="1677" cy="1828" r="38" style=""/>
<circle cx="1713" cy="2457" r="38" style=""/>
<circle cx="1513" cy="2457" r="38" style=""/>
<circle cx="1313" cy="2457" r="38" style=""/>
<circle cx="1113" cy="2457" r="38" style=""/>
<circle cx="913" cy="2457" r="38" style=""/>
<circle cx="713" cy="2457" r="38" style=""/>
<circle cx="742" cy="3313" r="38" style=""/>
<circle cx="942" cy="3313" r="38" style=""/>
<circle cx="1142" cy="3313" r="38" style=""/>
<circle cx="1342" cy="3313" r="38" style=""/>
<circle cx="1542" cy="3313" r="38" style=""/>
<circle cx="1545" cy="3602" r="38" style=""/>
<circle cx="1345" cy="3602" r="38" style=""/>
<circle cx="1145" cy="3602" r="38" style=""/>
<circle cx="946" cy="3602" r="38" style=""/>
<circle cx="746" cy="3602" r="38" style=""/>
<circle cx="546" cy="3602" r="38" style=""/>
<circle cx="542" cy="3313" r="38" style=""/>
</svg>
