<?xml version="1.0" standalone="no"?>
<!DOCTYPE svg PUBLIC "-//W3C//DTD SVG 1.1//EN"
"http://www.w3.org/Graphics/SVG/1.1/DTD/svg11.dtd">
<svg width="4355" height="3731" viewBox="0 0 4355 3731" version="1.1"
xmlns="http://www.w3.org/2000/svg"
xmlns:xlink="http://www.w3.org/1999/xlink">
<g fill-rule="evenodd"><path d="M 3303,2703 L 3290,2702 L 3278,2698 L 3267,2692 L 3257,2684 L 3250,2674 L 3244,2662 L 3241,2650 L 3240,2637 L 3242,2624 L 3247,2612 L 3253,2602 L 3262,2592 L 3273,2585 L 3284,2580 L 3297,2578 L 3303,2577 L 3316,2579 L 3328,2582 L 3339,2589 L 3349,2597 L 3357,2607 L 3362,2618 L 3365,2631 L 3366,2643 L 3364,2656 L 3360,2668 L 3353,2679 L 3344,2688 L 3334,2695 L 3322,2700 L 3309,2703 L 3303,2703 z " style="fill-opacity:1.000000;fill:rgb(103,198,105);stroke:rgb(0,0,0);stroke-width:2"/></g>
<g fill-rule="evenodd"><path d="M 260,1998 L 266,2003 L 274,2013 L 279,2025 L 283,2037 L 283,2050 L 281,2062 L 277,2074 L 270,2085 L 261,2094 L 251,2102 L 239,2107 L 227,2109 L 220,2110 L 208,2108 L 196,2105 L 184,2098 L 175,2090 L 167,2080 L 161,2069 L 158,2056 L 158,2043 L 159,2031 L 164,2019 L 171,2008 L 179,1999 L 181,1998 L 181,1452 L 180,1450 L 174,1439 L 171,1426 L 170,1414 L 172,1401 L 176,1389 L 181,1382 L 181,836 L 175,831 L 167,820 L 161,809 L 158,797 L 158,784 L 159,771 L 164,759 L 171,749 L 179,739 L 190,732 L 202,727 L 214,724 L 220,724 L 233,725 L 245,729 L 256,735 L 266,744 L 269,748 L 744,748 L 801,691 L 801,690 L 805,681 L 811,672 L 905,578 L 914,572 L 923,568 L 933,567 L 1096,567 L 1460,203 L 1469,197 L 1478,193 L 1488,191 L 2807,191 L 2815,192 L 2823,195 L 2830,199 L 2836,204 L 2841,211 L 2845,218 L 2845,220 L 3410,220 L 3410,161 L 3404,155 L 3396,145 L 3390,134 L 3387,121 L 3387,109 L 3389,96 L 3393,84 L 3400,73 L 3408,64 L 3419,57 L 3431,52 L 3443,49 L 3450,49 L 3462,50 L 3474,54 L 3485,60 L 3495,68 L 3503,78 L 3509,90 L 3512,102 L 3512,115 L 3510,128 L 3506,139 L 3499,150 L 3491,160 L 3489,161 L 3489,220 L 3536,220 L 3543,220 L 3550,222 L 3552,223 L 3560,227 L 3564,231 L 3913,580 L 3942,580 L 3950,572 L 3961,564 L 3972,559 L 3985,557 L 3991,556 L 4004,558 L 4016,562 L 4027,568 L 4037,576 L 4045,586 L 4050,598 L 4053,610 L 4054,623 L 4052,635 L 4048,647 L 4041,658 L 4032,667 L 4022,675 L 4010,680 L 3997,682 L 3991,682 L 3978,681 L 3966,677 L 3955,671 L 3945,663 L 3942,659 L 3897,659 L 3887,657 L 3877,654 L 3869,647 L 3520,298 L 2839,298 L 2839,377 L 2860,377 L 2860,497 L 2740,497 L 2740,377 L 2761,377 L 2761,279 L 2762,270 L 1505,270 L 1138,637 L 1131,642 L 1123,646 L 1114,648 L 1106,648 L 1097,646 L 1096,645 L 950,645 L 877,718 L 877,719 L 873,728 L 867,737 L 789,815 L 780,821 L 771,825 L 761,827 L 269,827 L 261,835 L 260,836 L 260,1360 L 269,1365 L 279,1374 L 286,1384 L 292,1395 L 295,1407 L 296,1420 L 294,1433 L 290,1445 L 283,1455 L 274,1465 L 264,1472 L 260,1474 L 260,1998 z " style="fill-opacity:1.000000;fill:rgb(115,81,255);stroke:rgb(0,0,0);stroke-width:2"/></g>
<g fill-rule="evenodd"><path d="M 509,1665 L 509,1205 L 501,1196 L 497,1186 L 496,1176 L 496,1169 L 468,1169 L 468,1035 L 602,1035 L 602,1169 L 587,1169 L 587,1172 L 663,1248 L 829,1248 L 896,1180 L 896,1156 L 887,1148 L 878,1137 L 872,1125 L 869,1112 L 868,1099 L 870,1085 L 875,1073 L 882,1061 L 892,1051 L 903,1044 L 915,1038 L 928,1035 L 935,1035 L 949,1036 L 962,1041 L 973,1047 L 984,1056 L 992,1067 L 998,1079 L 1001,1092 L 1002,1105 L 1000,1119 L 995,1131 L 988,1143 L 979,1153 L 975,1156 L 975,1197 L 973,1207 L 969,1216 L 963,1224 L 873,1315 L 866,1320 L 859,1324 L 851,1326 L 845,1326 L 646,1326 L 636,1325 L 627,1321 L 619,1315 L 587,1283 L 587,1665 L 615,1665 L 615,1799 L 602,1799 L 602,1804 L 675,1877 L 841,1877 L 908,1810 L 908,1786 L 899,1778 L 891,1767 L 885,1755 L 882,1742 L 881,1728 L 883,1715 L 888,1702 L 895,1691 L 904,1681 L 915,1673 L 928,1668 L 941,1665 L 948,1665 L 961,1666 L 974,1670 L 986,1677 L 996,1686 L 1005,1696 L 1011,1709 L 1014,1722 L 1015,1735 L 1013,1749 L 1008,1761 L 1001,1773 L 991,1783 L 987,1785 L 987,1826 L 986,1837 L 982,1846 L 976,1854 L 885,1945 L 877,1951 L 868,1955 L 857,1956 L 659,1956 L 649,1955 L 639,1951 L 631,1945 L 587,1901 L 587,2295 L 651,2295 L 651,2428 L 633,2428 L 712,2507 L 877,2507 L 945,2440 L 945,2415 L 936,2408 L 927,2397 L 921,2385 L 918,2372 L 917,2358 L 919,2345 L 924,2332 L 931,2321 L 940,2311 L 952,2303 L 964,2298 L 977,2295 L 984,2295 L 997,2296 L 1010,2300 L 1022,2307 L 1032,2315 L 1041,2326 L 1047,2338 L 1050,2351 L 1051,2365 L 1049,2378 L 1044,2391 L 1037,2403 L 1028,2412 L 1023,2415 L 1023,2456 L 1022,2466 L 1018,2476 L 1012,2484 L 930,2566 L 925,2573 L 920,2578 L 913,2583 L 905,2586 L 904,2586 L 904,2724 L 902,2735 L 898,2744 L 892,2752 L 799,2845 L 800,2852 L 799,2865 L 795,2877 L 788,2889 L 779,2898 L 769,2906 L 757,2912 L 744,2914 L 730,2914 L 718,2912 L 706,2906 L 695,2898 L 686,2889 L 680,2877 L 675,2865 L 674,2852 L 675,2839 L 680,2826 L 686,2815 L 695,2805 L 706,2797 L 718,2792 L 730,2789 L 744,2789 L 825,2708 L 825,2586 L 712,2586 L 453,2845 L 453,3163 L 462,3171 L 470,3182 L 476,3194 L 479,3207 L 480,3221 L 478,3234 L 473,3247 L 466,3258 L 457,3268 L 453,3271 L 453,3450 L 455,3451 L 465,3460 L 473,3471 L 479,3483 L 483,3496 L 483,3510 L 481,3523 L 476,3536 L 469,3547 L 460,3557 L 449,3565 L 436,3570 L 423,3573 L 416,3573 L 403,3572 L 390,3568 L 378,3561 L 368,3552 L 360,3542 L 354,3529 L 350,3516 L 350,3503 L 352,3489 L 356,3477 L 364,3465 L 373,3455 L 374,3455 L 374,3271 L 365,3263 L 356,3253 L 351,3240 L 347,3227 L 346,3214 L 348,3200 L 353,3188 L 360,3176 L 370,3166 L 374,3164 L 374,2829 L 375,2818 L 379,2809 L 385,2801 L 640,2547 L 556,2463 L 550,2455 L 546,2446 L 545,2435 L 545,2428 L 517,2428 L 517,2349 L 514,2345 L 510,2336 L 509,2325 L 509,1799 L 481,1799 L 481,1665 L 509,1665 z " style="fill-opacity:1.000000;fill:rgb(74,236,41);stroke:rgb(0,0,0);stroke-width:2"/></g>
<g fill-rule="evenodd"><path d="M 2055,1880 L 2031,1880 L 1966,1945 L 1958,1951 L 1948,1955 L 1938,1956 L 1438,1956 L 1430,1955 L 1422,1953 L 1415,1949 L 1410,1945 L 1320,1854 L 1314,1846 L 1310,1837 L 1308,1826 L 1308,1786 L 1299,1778 L 1291,1767 L 1285,1755 L 1282,1742 L 1281,1728 L 1283,1715 L 1288,1702 L 1295,1691 L 1304,1681 L 1315,1673 L 1328,1668 L 1341,1665 L 1348,1665 L 1361,1666 L 1374,1670 L 1386,1677 L 1396,1686 L 1404,1696 L 1410,1709 L 1414,1722 L 1415,1735 L 1412,1749 L 1408,1761 L 1401,1773 L 1391,1783 L 1387,1785 L 1387,1810 L 1454,1877 L 1922,1877 L 1987,1813 L 1995,1806 L 2004,1802 L 2014,1801 L 2054,1801 L 2062,1793 L 2073,1785 L 2085,1780 L 2097,1778 L 2103,1777 L 2116,1779 L 2128,1783 L 2139,1789 L 2149,1797 L 2157,1807 L 2162,1819 L 2166,1831 L 2166,1844 L 2164,1856 L 2160,1868 L 2153,1879 L 2144,1888 L 2134,1895 L 2122,1901 L 2110,1903 L 2103,1903 L 2091,1902 L 2079,1898 L 2067,1892 L 2058,1884 L 2055,1880 z " style="fill-opacity:1.000000;fill:rgb(205,186,171);stroke:rgb(0,0,0);stroke-width:2"/></g>
<g fill-rule="evenodd"><path d="M 853,3271 L 853,3450 L 855,3451 L 865,3460 L 873,3471 L 879,3483 L 882,3496 L 883,3510 L 881,3523 L 876,3536 L 869,3547 L 860,3557 L 849,3565 L 836,3570 L 823,3573 L 816,3573 L 803,3572 L 790,3568 L 778,3561 L 768,3552 L 760,3542 L 754,3529 L 750,3516 L 749,3503 L 752,3489 L 756,3477 L 763,3465 L 773,3455 L 774,3455 L 774,3271 L 765,3263 L 756,3253 L 750,3240 L 747,3227 L 746,3214 L 748,3200 L 753,3188 L 760,3176 L 770,3166 L 774,3164 L 774,3121 L 775,3111 L 779,3101 L 785,3093 L 1031,2847 L 1039,2841 L 1049,2837 L 1059,2835 L 1963,2835 L 1987,2812 L 1995,2806 L 2004,2802 L 2014,2801 L 2054,2801 L 2062,2792 L 2073,2785 L 2085,2780 L 2097,2778 L 2103,2777 L 2116,2778 L 2128,2782 L 2139,2788 L 2149,2797 L 2157,2807 L 2162,2818 L 2166,2831 L 2166,2843 L 2164,2856 L 2160,2868 L 2153,2879 L 2144,2888 L 2134,2895 L 2122,2900 L 2110,2903 L 2103,2903 L 2091,2902 L 2079,2898 L 2067,2892 L 2058,2884 L 2055,2880 L 2031,2880 L 2008,2903 L 1999,2909 L 1990,2913 L 1980,2914 L 1075,2914 L 853,3137 L 853,3163 L 862,3171 L 870,3182 L 876,3194 L 879,3207 L 880,3221 L 878,3234 L 873,3247 L 866,3258 L 857,3268 L 853,3271 z " style="fill-opacity:1.000000;fill:rgb(242,251,227);stroke:rgb(0,0,0);stroke-width:2"/></g>
<g fill-rule="evenodd"><path d="M 1052,3271 L 1052,3450 L 1054,3451 L 1065,3460 L 1073,3471 L 1079,3483 L 1082,3496 L 1083,3510 L 1081,3523 L 1076,3536 L 1069,3547 L 1060,3557 L 1049,3565 L 1036,3570 L 1023,3573 L 1016,3573 L 1003,3572 L 990,3568 L 978,3561 L 968,3552 L 959,3542 L 954,3529 L 950,3516 L 949,3503 L 951,3489 L 956,3477 L 963,3465 L 973,3455 L 974,3455 L 974,3271 L 965,3263 L 956,3253 L 950,3240 L 947,3227 L 946,3214 L 948,3200 L 953,3188 L 960,3176 L 970,3166 L 976,3162 L 976,3141 L 977,3131 L 981,3121 L 988,3113 L 1089,3012 L 1097,3006 L 1106,3002 L 1116,3001 L 2054,3001 L 2062,2992 L 2073,2985 L 2085,2980 L 2097,2977 L 2103,2977 L 2116,2978 L 2128,2982 L 2139,2988 L 2149,2997 L 2157,3007 L 2162,3018 L 2166,3031 L 2166,3043 L 2164,3056 L 2160,3068 L 2153,3079 L 2144,3088 L 2134,3095 L 2122,3100 L 2110,3103 L 2103,3103 L 2091,3102 L 2079,3098 L 2067,3092 L 2058,3084 L 2055,3079 L 1133,3079 L 1055,3157 L 1055,3165 L 1062,3171 L 1070,3182 L 1076,3194 L 1079,3207 L 1080,3221 L 1078,3234 L 1073,3247 L 1066,3258 L 1057,3268 L 1052,3271 z " style="fill-opacity:1.000000;fill:rgb(70,124,194);stroke:rgb(0,0,0);stroke-width:2"/></g>
<g fill-rule="evenodd"><path d="M 823,2308 L 833,2315 L 841,2326 L 847,2338 L 850,2351 L 851,2365 L 849,2378 L 844,2391 L 837,2403 L 828,2412 L 817,2420 L 804,2425 L 791,2428 L 784,2428 L 771,2427 L 758,2423 L 746,2416 L 736,2408 L 727,2397 L 721,2385 L 718,2372 L 717,2358 L 719,2345 L 724,2332 L 731,2321 L 740,2311 L 745,2308 L 745,2283 L 746,2273 L 750,2263 L 756,2255 L 958,2053 L 957,2047 L 959,2034 L 963,2021 L 969,2010 L 978,2000 L 989,1992 L 1001,1987 L 1014,1984 L 1027,1984 L 1040,1987 L 1052,1992 L 1062,2000 L 1071,2010 L 1078,2021 L 1082,2034 L 1083,2047 L 1082,2060 L 1078,2072 L 1071,2084 L 1062,2093 L 1052,2101 L 1040,2107 L 1027,2109 L 1013,2109 L 823,2299 L 823,2308 z " style="fill-opacity:1.000000;fill:rgb(84,248,27);stroke:rgb(0,0,0);stroke-width:2"/></g>
<g fill-rule="evenodd"><path d="M 1483,3546 L 1483,3573 L 1349,3573 L 1349,3439 L 1374,3439 L 1374,3284 L 1346,3284 L 1346,3150 L 1480,3150 L 1480,3284 L 1452,3284 L 1452,3439 L 1483,3439 L 1483,3467 L 1546,3467 L 1552,3462 L 1562,3458 L 1572,3457 L 3031,3457 L 3241,3247 L 3240,3237 L 3242,3224 L 3247,3212 L 3253,3202 L 3262,3192 L 3273,3185 L 3284,3180 L 3297,3177 L 3303,3177 L 3316,3178 L 3328,3182 L 3339,3188 L 3349,3197 L 3357,3207 L 3362,3218 L 3365,3231 L 3366,3243 L 3364,3256 L 3360,3268 L 3353,3279 L 3344,3288 L 3334,3295 L 3322,3300 L 3309,3303 L 3303,3303 L 3296,3302 L 3075,3524 L 3067,3530 L 3057,3534 L 3047,3535 L 1588,3535 L 1581,3540 L 1572,3544 L 1562,3546 L 1483,3546 z " style="fill-opacity:1.000000;fill:rgb(232,231,141);stroke:rgb(0,0,0);stroke-width:2"/></g>
<g fill-rule="evenodd"><path d="M 1578,3731 L 1255,3731 L 1245,3729 L 1235,3725 L 1227,3719 L 1203,3695 L 1199,3691 L 1197,3687 L 1190,3682 L 1185,3676 L 1180,3669 L 1178,3661 L 1177,3653 L 1177,3560 L 1168,3552 L 1159,3542 L 1153,3529 L 1150,3516 L 1149,3503 L 1151,3489 L 1156,3477 L 1163,3465 L 1173,3455 L 1174,3455 L 1174,3271 L 1165,3263 L 1156,3253 L 1150,3240 L 1147,3227 L 1146,3214 L 1148,3200 L 1153,3188 L 1160,3176 L 1169,3166 L 1181,3159 L 1193,3153 L 1206,3151 L 1213,3150 L 1227,3152 L 1239,3156 L 1251,3162 L 1262,3171 L 1270,3182 L 1276,3194 L 1279,3207 L 1280,3221 L 1278,3234 L 1273,3247 L 1266,3258 L 1257,3268 L 1252,3271 L 1252,3450 L 1254,3451 L 1265,3460 L 1273,3471 L 1279,3483 L 1282,3496 L 1283,3510 L 1281,3523 L 1276,3536 L 1269,3547 L 1260,3557 L 1256,3560 L 1256,3607 L 1262,3613 L 1267,3621 L 1270,3629 L 1271,3638 L 1271,3651 L 1271,3652 L 1561,3652 L 1565,3648 L 1566,3647 L 1570,3639 L 1577,3633 L 1584,3628 L 1592,3625 L 1601,3624 L 1611,3624 L 1625,3610 L 1633,3604 L 1643,3600 L 1653,3598 L 3157,3598 L 3445,3311 L 3445,3148 L 3376,3079 L 3355,3079 L 3353,3084 L 3347,3090 L 3340,3094 L 3332,3097 L 3328,3098 L 3322,3100 L 3309,3103 L 3303,3103 L 3290,3102 L 3278,3098 L 3267,3092 L 3257,3084 L 3250,3073 L 3244,3062 L 3241,3050 L 3240,3037 L 3242,3024 L 3247,3012 L 3253,3002 L 3262,2992 L 3273,2985 L 3284,2980 L 3297,2977 L 3303,2977 L 3316,2978 L 3328,2982 L 3339,2988 L 3349,2997 L 3352,3001 L 3392,3001 L 3402,3002 L 3412,3006 L 3420,3012 L 3512,3104 L 3518,3112 L 3522,3122 L 3524,3132 L 3524,3327 L 3522,3337 L 3518,3347 L 3512,3355 L 3201,3666 L 3193,3672 L 3184,3676 L 3173,3677 L 1669,3677 L 1655,3691 L 1647,3698 L 1637,3702 L 1627,3703 L 1621,3703 L 1605,3719 L 1597,3725 L 1588,3729 L 1578,3731 z " style="fill-opacity:1.000000;fill:rgb(118,90,46);stroke:rgb(0,0,0);stroke-width:2"/></g>
<g fill-rule="evenodd"><path d="M 2082,3299 L 1937,3299 L 1930,3307 L 1919,3314 L 1907,3320 L 1894,3322 L 1881,3322 L 1868,3320 L 1856,3314 L 1846,3307 L 1839,3299 L 1735,3299 L 1729,3306 L 1718,3314 L 1706,3319 L 1694,3322 L 1680,3322 L 1668,3319 L 1655,3314 L 1645,3306 L 1636,3296 L 1629,3285 L 1625,3272 L 1624,3259 L 1625,3246 L 1629,3233 L 1636,3222 L 1645,3212 L 1655,3204 L 1668,3199 L 1680,3196 L 1694,3196 L 1706,3199 L 1718,3204 L 1729,3212 L 1737,3220 L 1839,3220 L 1846,3213 L 1856,3205 L 1868,3200 L 1881,3197 L 1894,3197 L 1907,3200 L 1919,3205 L 1930,3213 L 1937,3220 L 2044,3220 L 2047,3212 L 2054,3202 L 2062,3192 L 2073,3185 L 2085,3180 L 2097,3177 L 2103,3177 L 2116,3178 L 2128,3182 L 2139,3188 L 2149,3197 L 2157,3207 L 2162,3218 L 2166,3231 L 2166,3243 L 2164,3256 L 2160,3268 L 2153,3279 L 2144,3288 L 2134,3295 L 2122,3300 L 2110,3303 L 2103,3303 L 2091,3302 L 2082,3299 z " style="fill-opacity:1.000000;fill:rgb(99,51,159);stroke:rgb(0,0,0);stroke-width:2"/></g>
<g fill-rule="evenodd"><path d="M 1650,2351 L 1651,2365 L 1649,2378 L 1644,2391 L 1637,2403 L 1627,2412 L 1616,2420 L 1604,2425 L 1591,2428 L 1584,2428 L 1570,2427 L 1557,2423 L 1546,2416 L 1535,2408 L 1527,2397 L 1521,2385 L 1518,2372 L 1517,2358 L 1519,2345 L 1524,2332 L 1531,2321 L 1540,2311 L 1551,2303 L 1564,2298 L 1577,2295 L 1584,2295 L 1594,2296 L 1677,2212 L 1685,2206 L 1695,2202 L 1705,2201 L 2054,2201 L 2062,2193 L 2073,2185 L 2085,2180 L 2097,2178 L 2103,2177 L 2116,2179 L 2128,2182 L 2139,2189 L 2149,2197 L 2157,2207 L 2162,2218 L 2166,2231 L 2166,2244 L 2164,2256 L 2160,2268 L 2153,2279 L 2144,2288 L 2134,2295 L 2122,2300 L 2110,2303 L 2103,2303 L 2091,2302 L 2079,2298 L 2067,2292 L 2058,2284 L 2055,2280 L 1721,2280 L 1650,2351 z " style="fill-opacity:1.000000;fill:rgb(201,154,102);stroke:rgb(0,0,0);stroke-width:2"/></g>
<g fill-rule="evenodd"><path d="M 2041,2035 L 2042,2025 L 2047,2013 L 2054,2002 L 2062,1993 L 2073,1985 L 2085,1980 L 2097,1978 L 2103,1977 L 2116,1979 L 2128,1983 L 2139,1989 L 2149,1997 L 2157,2007 L 2162,2019 L 2166,2031 L 2166,2044 L 2164,2056 L 2160,2068 L 2153,2079 L 2144,2088 L 2134,2095 L 2122,2100 L 2110,2103 L 2103,2103 L 2097,2103 L 2089,2108 L 2080,2112 L 2070,2114 L 1373,2114 L 1363,2112 L 1353,2108 L 1345,2102 L 1120,1877 L 1116,1872 L 1112,1865 L 1109,1857 L 1109,1855 L 1108,1849 L 1108,1786 L 1099,1778 L 1091,1767 L 1085,1755 L 1082,1742 L 1081,1728 L 1083,1715 L 1088,1702 L 1095,1691 L 1104,1681 L 1115,1673 L 1128,1668 L 1141,1665 L 1148,1665 L 1161,1666 L 1174,1670 L 1186,1677 L 1196,1686 L 1205,1696 L 1210,1709 L 1214,1722 L 1215,1735 L 1213,1749 L 1208,1761 L 1201,1773 L 1191,1783 L 1187,1785 L 1187,1833 L 1389,2035 L 2041,2035 z " style="fill-opacity:1.000000;fill:rgb(50,13,183);stroke:rgb(0,0,0);stroke-width:2"/></g>
<g fill-rule="evenodd"><path d="M 1345,2415 L 1335,2408 L 1327,2397 L 1321,2385 L 1318,2372 L 1317,2358 L 1319,2345 L 1324,2332 L 1331,2321 L 1340,2311 L 1351,2303 L 1364,2298 L 1377,2295 L 1384,2295 L 1397,2296 L 1410,2300 L 1422,2307 L 1432,2315 L 1441,2326 L 1447,2338 L 1450,2351 L 1451,2365 L 1449,2378 L 1444,2391 L 1437,2403 L 1427,2412 L 1423,2415 L 1423,2419 L 1511,2507 L 1656,2507 L 1751,2412 L 1759,2406 L 1769,2402 L 1779,2401 L 2054,2401 L 2062,2392 L 2073,2385 L 2085,2380 L 2097,2378 L 2103,2377 L 2116,2379 L 2128,2382 L 2139,2389 L 2149,2397 L 2157,2407 L 2162,2418 L 2166,2431 L 2166,2443 L 2164,2456 L 2160,2468 L 2153,2479 L 2144,2488 L 2134,2495 L 2122,2500 L 2110,2503 L 2103,2503 L 2091,2502 L 2079,2498 L 2067,2492 L 2058,2484 L 2055,2480 L 1795,2480 L 1700,2574 L 1694,2580 L 1687,2583 L 1679,2585 L 1673,2586 L 1495,2586 L 1485,2585 L 1475,2581 L 1467,2574 L 1356,2463 L 1350,2455 L 1346,2446 L 1345,2435 L 1345,2415 z " style="fill-opacity:1.000000;fill:rgb(49,88,163);stroke:rgb(0,0,0);stroke-width:2"/></g>
<g fill-rule="evenodd"><path d="M 1145,2415 L 1135,2408 L 1127,2397 L 1121,2385 L 1118,2372 L 1117,2358 L 1119,2345 L 1124,2332 L 1131,2321 L 1140,2311 L 1151,2303 L 1164,2298 L 1177,2295 L 1184,2295 L 1197,2296 L 1210,2300 L 1222,2307 L 1232,2315 L 1241,2326 L 1247,2338 L 1250,2351 L 1251,2365 L 1249,2378 L 1244,2391 L 1237,2403 L 1228,2412 L 1223,2415 L 1223,2442 L 1446,2665 L 1722,2665 L 1774,2612 L 1782,2606 L 1791,2602 L 1802,2601 L 2054,2601 L 2062,2592 L 2073,2585 L 2085,2580 L 2097,2578 L 2103,2577 L 2116,2579 L 2128,2582 L 2139,2589 L 2149,2597 L 2157,2607 L 2162,2618 L 2166,2631 L 2166,2643 L 2164,2656 L 2160,2668 L 2153,2679 L 2144,2688 L 2134,2695 L 2122,2700 L 2110,2703 L 2103,2703 L 2091,2702 L 2079,2698 L 2067,2692 L 2058,2684 L 2055,2680 L 1818,2680 L 1766,2732 L 1759,2737 L 1754,2740 L 1752,2741 L 1744,2743 L 1738,2743 L 1430,2743 L 1420,2742 L 1410,2738 L 1402,2732 L 1156,2486 L 1150,2478 L 1146,2468 L 1145,2458 L 1145,2415 z " style="fill-opacity:1.000000;fill:rgb(90,37,93);stroke:rgb(0,0,0);stroke-width:2"/></g>
<g fill-rule="evenodd"><path d="M 1096,1156 L 1087,1148 L 1078,1137 L 1072,1125 L 1069,1112 L 1068,1099 L 1070,1085 L 1075,1073 L 1082,1061 L 1092,1051 L 1103,1044 L 1115,1038 L 1128,1035 L 1135,1035 L 1149,1036 L 1162,1041 L 1173,1047 L 1184,1056 L 1192,1067 L 1198,1079 L 1201,1092 L 1202,1105 L 1200,1119 L 1195,1131 L 1188,1143 L 1179,1153 L 1175,1156 L 1175,1203 L 1428,1456 L 1966,1456 L 2009,1413 L 2017,1406 L 2027,1403 L 2037,1401 L 2051,1401 L 2054,1397 L 2060,1391 L 2067,1387 L 2074,1384 L 2079,1383 L 2085,1380 L 2097,1378 L 2103,1378 L 2116,1379 L 2128,1383 L 2139,1389 L 2149,1397 L 2157,1407 L 2162,1419 L 2166,1431 L 2166,1444 L 2164,1456 L 2160,1468 L 2153,1479 L 2144,1488 L 2134,1496 L 2122,1501 L 2110,1503 L 2103,1504 L 2091,1502 L 2079,1498 L 2067,1492 L 2058,1484 L 2055,1480 L 2053,1480 L 2010,1523 L 2002,1530 L 1992,1534 L 1982,1535 L 1411,1535 L 1401,1534 L 1392,1530 L 1384,1523 L 1107,1247 L 1101,1239 L 1097,1230 L 1096,1219 L 1096,1156 z " style="fill-opacity:1.000000;fill:rgb(5,23,88);stroke:rgb(0,0,0);stroke-width:2"/></g>
<g fill-rule="evenodd"><path d="M 776,1050 L 784,1056 L 792,1067 L 798,1079 L 801,1092 L 802,1105 L 800,1119 L 795,1131 L 788,1143 L 779,1153 L 768,1161 L 755,1166 L 742,1169 L 735,1169 L 722,1168 L 709,1164 L 697,1157 L 687,1148 L 678,1137 L 672,1125 L 669,1112 L 668,1099 L 670,1085 L 675,1073 L 682,1061 L 692,1051 L 696,1048 L 696,1035 L 697,1025 L 701,1016 L 707,1007 L 893,822 L 897,818 L 904,814 L 906,813 L 914,811 L 920,811 L 941,811 L 958,794 L 957,787 L 959,774 L 963,762 L 969,750 L 978,740 L 989,733 L 1001,727 L 1014,725 L 1027,725 L 1040,727 L 1052,733 L 1062,740 L 1071,750 L 1078,762 L 1082,774 L 1083,787 L 1082,800 L 1078,813 L 1071,824 L 1062,834 L 1052,842 L 1040,847 L 1027,850 L 1013,850 L 985,878 L 977,884 L 967,888 L 957,889 L 937,889 L 776,1050 z " style="fill-opacity:1.000000;fill:rgb(233,94,212);stroke:rgb(0,0,0);stroke-width:2"/></g>
<g fill-rule="evenodd"><path d="M 984,1378 L 991,1370 L 1001,1362 L 1013,1357 L 1026,1354 L 1039,1354 L 1052,1357 L 1064,1362 L 1075,1370 L 1084,1380 L 1090,1391 L 1094,1404 L 1096,1417 L 1094,1430 L 1090,1443 L 1084,1454 L 1075,1464 L 1064,1471 L 1052,1477 L 1039,1480 L 1026,1480 L 1013,1477 L 1001,1471 L 991,1464 L 984,1456 L 954,1456 L 787,1623 L 787,1678 L 796,1686 L 805,1696 L 811,1709 L 814,1722 L 815,1735 L 813,1749 L 808,1761 L 801,1773 L 791,1783 L 780,1790 L 768,1796 L 755,1798 L 748,1799 L 734,1797 L 721,1793 L 710,1787 L 699,1778 L 691,1767 L 685,1755 L 682,1742 L 681,1728 L 683,1715 L 688,1702 L 695,1691 L 704,1681 L 708,1678 L 708,1607 L 710,1596 L 714,1587 L 720,1579 L 910,1389 L 918,1383 L 927,1379 L 938,1378 L 984,1378 z " style="fill-opacity:1.000000;fill:rgb(171,178,205);stroke:rgb(0,0,0);stroke-width:2"/></g>
<g fill-rule="evenodd"><path d="M 2064,978 L 2064,915 L 1909,760 L 1826,843 L 1818,849 L 1809,853 L 1798,854 L 1704,854 L 1697,861 L 1686,869 L 1674,875 L 1661,877 L 1648,877 L 1635,875 L 1623,869 L 1613,861 L 1604,852 L 1597,840 L 1593,828 L 1592,815 L 1593,802 L 1597,789 L 1604,778 L 1613,768 L 1623,760 L 1635,755 L 1648,752 L 1661,752 L 1674,755 L 1686,760 L 1697,768 L 1704,775 L 1782,775 L 2012,545 L 2020,539 L 2030,535 L 2040,534 L 2081,534 L 2081,506 L 2215,506 L 2215,640 L 2081,640 L 2081,612 L 2056,612 L 1964,704 L 2131,871 L 2135,876 L 2139,883 L 2142,891 L 2143,899 L 2143,978 L 2166,978 L 2166,1104 L 2040,1104 L 2040,978 L 2064,978 z " style="fill-opacity:1.000000;fill:rgb(198,155,180);stroke:rgb(0,0,0);stroke-width:2"/></g>
<g fill-rule="evenodd"><path d="M 1614,1721 L 1614,1735 L 1612,1749 L 1608,1761 L 1601,1773 L 1591,1783 L 1580,1790 L 1568,1796 L 1554,1798 L 1548,1799 L 1534,1797 L 1521,1793 L 1509,1787 L 1499,1778 L 1491,1767 L 1485,1755 L 1481,1742 L 1481,1728 L 1483,1715 L 1488,1702 L 1495,1691 L 1504,1681 L 1515,1673 L 1528,1668 L 1541,1665 L 1548,1665 L 1558,1666 L 1611,1613 L 1619,1606 L 1629,1602 L 1639,1601 L 2054,1601 L 2062,1593 L 2073,1585 L 2085,1580 L 2097,1578 L 2103,1577 L 2116,1579 L 2128,1583 L 2139,1589 L 2149,1597 L 2157,1607 L 2162,1619 L 2166,1631 L 2166,1644 L 2164,1656 L 2160,1668 L 2153,1679 L 2144,1688 L 2134,1696 L 2122,1701 L 2110,1703 L 2103,1703 L 2091,1702 L 2079,1698 L 2067,1692 L 2058,1684 L 2055,1680 L 1655,1680 L 1614,1721 z " style="fill-opacity:1.000000;fill:rgb(84,17,14);stroke:rgb(0,0,0);stroke-width:2"/></g>
<g fill-rule="evenodd"><path d="M 1574,1048 L 1584,1056 L 1592,1067 L 1598,1079 L 1601,1092 L 1602,1105 L 1600,1119 L 1595,1131 L 1588,1143 L 1579,1153 L 1568,1161 L 1555,1166 L 1542,1169 L 1535,1169 L 1522,1168 L 1509,1164 L 1497,1157 L 1487,1148 L 1478,1137 L 1472,1125 L 1469,1112 L 1468,1099 L 1470,1085 L 1475,1073 L 1482,1061 L 1491,1051 L 1496,1048 L 1496,1024 L 1275,803 L 1269,795 L 1265,785 L 1263,775 L 1263,669 L 1264,663 L 1266,655 L 1270,648 L 1271,646 L 1275,641 L 1556,360 L 1564,354 L 1574,350 L 1584,349 L 2437,349 L 2447,350 L 2457,354 L 2465,360 L 2722,617 L 2728,625 L 2732,635 L 2733,645 L 2733,958 L 2977,1201 L 3254,1201 L 3262,1193 L 3273,1186 L 3284,1180 L 3297,1178 L 3303,1178 L 3316,1179 L 3328,1183 L 3339,1189 L 3349,1197 L 3357,1207 L 3362,1219 L 3365,1231 L 3366,1244 L 3364,1256 L 3360,1268 L 3353,1279 L 3344,1288 L 3334,1296 L 3322,1301 L 3309,1303 L 3303,1304 L 3290,1302 L 3278,1298 L 3267,1292 L 3257,1284 L 3254,1280 L 2960,1280 L 2950,1279 L 2941,1275 L 2932,1268 L 2666,1002 L 2660,994 L 2656,984 L 2654,974 L 2654,661 L 2421,427 L 1600,427 L 1342,686 L 1342,759 L 1563,980 L 1569,988 L 1573,997 L 1574,1007 L 1574,1048 z " style="fill-opacity:1.000000;fill:rgb(130,116,65);stroke:rgb(0,0,0);stroke-width:2"/></g>
<g fill-rule="evenodd"><path d="M 1296,1156 L 1287,1148 L 1278,1137 L 1272,1125 L 1269,1112 L 1268,1099 L 1270,1085 L 1275,1073 L 1282,1061 L 1292,1051 L 1303,1044 L 1315,1038 L 1328,1035 L 1335,1035 L 1349,1036 L 1361,1041 L 1373,1047 L 1384,1056 L 1392,1067 L 1398,1079 L 1401,1092 L 1402,1105 L 1400,1119 L 1395,1131 L 1388,1143 L 1379,1153 L 1374,1156 L 1374,1180 L 1435,1241 L 1995,1241 L 2024,1213 L 2032,1206 L 2041,1203 L 2051,1201 L 2054,1201 L 2062,1193 L 2073,1186 L 2085,1180 L 2097,1178 L 2103,1178 L 2116,1179 L 2128,1183 L 2139,1189 L 2149,1197 L 2157,1207 L 2162,1219 L 2166,1231 L 2166,1244 L 2164,1256 L 2160,1268 L 2153,1279 L 2144,1288 L 2134,1296 L 2122,1301 L 2110,1303 L 2103,1304 L 2091,1302 L 2079,1298 L 2067,1292 L 2061,1287 L 2039,1309 L 2031,1315 L 2022,1319 L 2011,1320 L 1419,1320 L 1413,1320 L 1411,1319 L 1403,1317 L 1396,1313 L 1391,1309 L 1307,1224 L 1301,1216 L 1297,1207 L 1296,1197 L 1296,1156 z " style="fill-opacity:1.000000;fill:rgb(33,61,220);stroke:rgb(0,0,0);stroke-width:2"/></g>
<g fill-rule="evenodd"><path d="M 4052,1817 L 4080,1817 L 4080,1951 L 3946,1951 L 3946,1932 L 3868,2010 L 3868,2206 L 3907,2244 L 3959,2244 L 3960,2243 L 3970,2233 L 3981,2225 L 3993,2220 L 4006,2217 L 4013,2217 L 4027,2218 L 4040,2222 L 4051,2229 L 4062,2238 L 4070,2248 L 4076,2260 L 4079,2273 L 4080,2287 L 4078,2300 L 4073,2313 L 4066,2325 L 4057,2334 L 4046,2342 L 4033,2347 L 4020,2350 L 4013,2351 L 4000,2349 L 3987,2345 L 3975,2339 L 3965,2330 L 3959,2323 L 3890,2323 L 3880,2322 L 3871,2318 L 3863,2311 L 3801,2250 L 3796,2244 L 3793,2238 L 3790,2230 L 3790,2222 L 3790,1993 L 3791,1983 L 3795,1974 L 3801,1965 L 3911,1856 L 3919,1850 L 3928,1846 L 3939,1844 L 3946,1844 L 3946,1817 L 3973,1817 L 3973,1666 L 3974,1656 L 3978,1646 L 3985,1638 L 4120,1503 L 4120,1240 L 4119,1239 L 4118,1228 L 4114,1224 L 4111,1214 L 3767,871 L 3753,871 L 3753,898 L 3620,898 L 3620,880 L 3541,959 L 3541,1104 L 3629,1192 L 3633,1192 L 3634,1190 L 3643,1180 L 3654,1173 L 3666,1167 L 3680,1165 L 3686,1164 L 3700,1166 L 3713,1170 L 3725,1176 L 3735,1185 L 3743,1196 L 3749,1208 L 3753,1221 L 3753,1235 L 3751,1248 L 3747,1261 L 3739,1272 L 3730,1282 L 3719,1290 L 3706,1295 L 3693,1298 L 3686,1298 L 3673,1297 L 3660,1293 L 3648,1286 L 3638,1277 L 3633,1270 L 3613,1270 L 3602,1269 L 3593,1265 L 3585,1259 L 3474,1148 L 3467,1140 L 3463,1130 L 3462,1120 L 3462,942 L 3463,932 L 3467,923 L 3474,915 L 3585,803 L 3593,797 L 3602,793 L 3613,792 L 3620,792 L 3620,764 L 3753,764 L 3753,792 L 3783,792 L 3793,793 L 3803,797 L 3811,803 L 4118,1110 L 4118,530 L 4025,437 L 4022,439 L 4012,447 L 4000,452 L 3987,455 L 3974,455 L 3961,452 L 3949,447 L 3938,439 L 3929,429 L 3923,418 L 3919,405 L 3917,392 L 3919,379 L 3923,367 L 3929,355 L 3938,346 L 3949,338 L 3961,332 L 3974,330 L 3987,330 L 4000,332 L 4012,338 L 4022,346 L 4029,353 L 4036,353 L 4046,354 L 4056,358 L 4064,365 L 4185,486 L 4190,492 L 4194,499 L 4196,507 L 4196,513 L 4196,1219 L 4197,1220 L 4198,1230 L 4198,1519 L 4197,1530 L 4193,1539 L 4187,1547 L 4052,1682 L 4052,1817 z " style="fill-opacity:1.000000;fill:rgb(135,112,233);stroke:rgb(0,0,0);stroke-width:2"/></g>
<g fill-rule="evenodd"><path d="M 3358,1870 L 3353,1879 L 3344,1888 L 3334,1895 L 3322,1901 L 3309,1903 L 3303,1903 L 3290,1902 L 3278,1898 L 3267,1892 L 3257,1884 L 3250,1874 L 3244,1862 L 3241,1850 L 3240,1837 L 3242,1825 L 3247,1813 L 3253,1802 L 3262,1793 L 3273,1785 L 3284,1780 L 3297,1778 L 3303,1777 L 3316,1779 L 3328,1783 L 3339,1789 L 3342,1792 L 3633,1792 L 3634,1790 L 3643,1780 L 3654,1772 L 3666,1767 L 3680,1764 L 3686,1764 L 3700,1765 L 3713,1769 L 3725,1776 L 3735,1785 L 3743,1796 L 3749,1808 L 3753,1821 L 3753,1834 L 3751,1848 L 3747,1860 L 3739,1872 L 3730,1882 L 3719,1889 L 3706,1895 L 3693,1898 L 3686,1898 L 3673,1897 L 3660,1892 L 3648,1886 L 3638,1877 L 3633,1870 L 3358,1870 z " style="fill-opacity:1.000000;fill:rgb(62,161,65);stroke:rgb(0,0,0);stroke-width:2"/></g>
<g fill-rule="evenodd"><path d="M 3254,2801 L 3262,2792 L 3273,2785 L 3284,2780 L 3297,2778 L 3303,2777 L 3316,2778 L 3328,2782 L 3339,2788 L 3349,2797 L 3357,2807 L 3362,2818 L 3365,2831 L 3366,2843 L 3364,2856 L 3360,2868 L 3353,2879 L 3344,2888 L 3334,2895 L 3322,2900 L 3309,2903 L 3303,2903 L 3290,2902 L 3278,2898 L 3267,2892 L 3257,2884 L 3254,2880 L 3214,2880 L 3204,2878 L 3194,2874 L 3186,2868 L 2790,2472 L 2785,2466 L 2781,2458 L 2779,2450 L 2779,2444 L 2779,1393 L 2318,932 L 2312,924 L 2308,915 L 2306,905 L 2306,864 L 2300,859 L 2292,849 L 2287,837 L 2284,825 L 2283,812 L 2285,800 L 2289,788 L 2296,777 L 2305,768 L 2306,767 L 2306,625 L 2300,619 L 2291,608 L 2285,596 L 2282,583 L 2281,570 L 2283,556 L 2288,544 L 2295,532 L 2305,522 L 2316,515 L 2328,509 L 2341,506 L 2348,506 L 2362,507 L 2375,512 L 2386,518 L 2397,527 L 2405,538 L 2411,550 L 2414,563 L 2415,576 L 2413,590 L 2408,602 L 2401,614 L 2392,624 L 2385,628 L 2385,767 L 2392,772 L 2399,782 L 2405,794 L 2408,806 L 2409,819 L 2407,831 L 2402,843 L 2396,854 L 2387,863 L 2385,864 L 2385,888 L 2846,1349 L 2852,1357 L 2856,1367 L 2858,1377 L 2858,2428 L 3230,2801 L 3254,2801 z " style="fill-opacity:1.000000;fill:rgb(225,252,103);stroke:rgb(0,0,0);stroke-width:2"/></g>
<g fill-rule="evenodd"><path d="M 3350,2482 L 3344,2488 L 3334,2495 L 3322,2500 L 3309,2503 L 3303,2503 L 3290,2502 L 3278,2498 L 3267,2492 L 3257,2484 L 3250,2474 L 3244,2462 L 3241,2450 L 3240,2437 L 3242,2424 L 3247,2413 L 3253,2402 L 3262,2392 L 3273,2385 L 3284,2380 L 3297,2378 L 3303,2377 L 3316,2379 L 3328,2382 L 3339,2389 L 3349,2397 L 3352,2401 L 3364,2401 L 3375,2402 L 3384,2406 L 3392,2412 L 3824,2844 L 3959,2844 L 3960,2843 L 3970,2833 L 3981,2825 L 3993,2820 L 4006,2817 L 4013,2817 L 4027,2818 L 4040,2822 L 4051,2829 L 4062,2837 L 4070,2848 L 4076,2860 L 4079,2873 L 4080,2887 L 4078,2900 L 4073,2913 L 4066,2924 L 4057,2934 L 4046,2942 L 4033,2947 L 4020,2950 L 4013,2950 L 4000,2949 L 3987,2945 L 3975,2938 L 3965,2930 L 3959,2923 L 3808,2923 L 3797,2921 L 3788,2918 L 3780,2911 L 3350,2482 z " style="fill-opacity:1.000000;fill:rgb(62,1,126);stroke:rgb(0,0,0);stroke-width:2"/></g>
<g fill-rule="evenodd"><path d="M 3352,2280 L 3344,2288 L 3334,2295 L 3322,2300 L 3309,2303 L 3303,2303 L 3290,2302 L 3278,2298 L 3267,2292 L 3257,2284 L 3250,2274 L 3244,2262 L 3241,2250 L 3240,2237 L 3242,2225 L 3247,2213 L 3253,2202 L 3262,2193 L 3273,2185 L 3284,2180 L 3297,2178 L 3303,2177 L 3316,2179 L 3328,2182 L 3339,2189 L 3349,2197 L 3352,2201 L 3387,2201 L 3397,2202 L 3407,2206 L 3415,2212 L 3847,2644 L 3959,2644 L 3960,2643 L 3970,2633 L 3981,2625 L 3993,2620 L 4006,2617 L 4013,2617 L 4027,2618 L 4040,2622 L 4051,2629 L 4062,2637 L 4070,2648 L 4076,2660 L 4079,2673 L 4080,2687 L 4078,2700 L 4073,2713 L 4066,2724 L 4057,2734 L 4046,2742 L 4033,2747 L 4020,2750 L 4013,2750 L 4000,2749 L 3987,2745 L 3975,2738 L 3965,2730 L 3959,2723 L 3830,2723 L 3820,2722 L 3811,2718 L 3803,2711 L 3371,2280 L 3352,2280 z " style="fill-opacity:1.000000;fill:rgb(151,234,220);stroke:rgb(0,0,0);stroke-width:2"/></g>
<g fill-rule="evenodd"><path d="M 3352,2080 L 3344,2088 L 3334,2095 L 3322,2100 L 3309,2103 L 3303,2103 L 3290,2102 L 3278,2098 L 3267,2092 L 3257,2084 L 3250,2074 L 3244,2062 L 3241,2050 L 3240,2037 L 3242,2025 L 3247,2013 L 3253,2002 L 3262,1993 L 3273,1985 L 3284,1980 L 3297,1978 L 3303,1977 L 3316,1979 L 3328,1983 L 3339,1989 L 3349,1997 L 3352,2001 L 3410,2001 L 3416,2001 L 3424,2004 L 3431,2007 L 3438,2013 L 3869,2444 L 3959,2444 L 3960,2443 L 3970,2433 L 3981,2425 L 3993,2420 L 4006,2417 L 4013,2417 L 4027,2418 L 4040,2422 L 4051,2429 L 4062,2437 L 4070,2448 L 4076,2460 L 4079,2473 L 4080,2487 L 4078,2500 L 4073,2513 L 4066,2525 L 4057,2534 L 4046,2542 L 4033,2547 L 4020,2550 L 4013,2550 L 4000,2549 L 3987,2545 L 3975,2538 L 3965,2530 L 3959,2523 L 3853,2523 L 3843,2522 L 3833,2518 L 3825,2511 L 3394,2080 L 3352,2080 z " style="fill-opacity:1.000000;fill:rgb(107,150,143);stroke:rgb(0,0,0);stroke-width:2"/></g>
<g fill-rule="evenodd"><path d="M 4354,448 L 4354,1929 L 4353,1939 L 4349,1948 L 4342,1956 L 4187,2112 L 4179,2118 L 4170,2122 L 4160,2123 L 4067,2123 L 4066,2125 L 4057,2134 L 4046,2142 L 4033,2148 L 4020,2150 L 4013,2151 L 4000,2149 L 3987,2145 L 3975,2139 L 3965,2130 L 3956,2119 L 3950,2107 L 3947,2094 L 3946,2080 L 3948,2067 L 3953,2054 L 3960,2043 L 3970,2033 L 3981,2025 L 3993,2020 L 4006,2017 L 4013,2017 L 4027,2018 L 4040,2022 L 4051,2029 L 4062,2038 L 4067,2044 L 4143,2044 L 4275,1912 L 4275,465 L 4221,411 L 4217,406 L 4213,399 L 4211,391 L 4210,383 L 4210,161 L 4207,159 L 4198,149 L 4192,137 L 4188,125 L 4186,112 L 4188,99 L 4192,86 L 4198,75 L 4207,65 L 4218,57 L 4230,52 L 4243,49 L 4256,49 L 4269,52 L 4281,57 L 4291,65 L 4300,75 L 4307,86 L 4311,99 L 4312,112 L 4311,125 L 4307,137 L 4300,149 L 4291,159 L 4289,161 L 4289,367 L 4342,421 L 4349,429 L 4353,438 L 4354,448 z " style="fill-opacity:1.000000;fill:rgb(56,92,42);stroke:rgb(0,0,0);stroke-width:2"/></g>
<g fill-rule="evenodd"><path d="M 3204,496 L 3194,496 L 3181,494 L 3170,489 L 3160,481 L 3152,472 L 3145,461 L 3141,449 L 3140,437 L 3141,424 L 3145,413 L 3152,402 L 3160,392 L 3170,385 L 3181,380 L 3194,377 L 3206,377 L 3218,380 L 3230,385 L 3240,392 L 3248,402 L 3255,413 L 3258,424 L 3260,437 L 3259,441 L 3401,582 L 3504,582 L 3511,575 L 3521,567 L 3533,562 L 3546,559 L 3559,559 L 3572,562 L 3584,567 L 3595,575 L 3604,585 L 3610,596 L 3614,609 L 3616,622 L 3614,635 L 3610,647 L 3604,659 L 3595,668 L 3584,676 L 3572,682 L 3559,684 L 3546,684 L 3353,878 L 3353,941 L 3352,947 L 3350,955 L 3349,957 L 3346,963 L 3342,968 L 3342,992 L 3349,997 L 3357,1007 L 3362,1019 L 3365,1031 L 3366,1044 L 3364,1056 L 3360,1068 L 3353,1079 L 3344,1088 L 3334,1096 L 3322,1101 L 3309,1103 L 3303,1104 L 3290,1102 L 3278,1098 L 3267,1092 L 3257,1084 L 3250,1074 L 3244,1062 L 3241,1050 L 3240,1037 L 3242,1025 L 3247,1013 L 3253,1002 L 3262,993 L 3264,992 L 3264,952 L 3265,941 L 3269,932 L 3274,925 L 3274,861 L 3275,851 L 3279,842 L 3285,833 L 3458,661 L 3385,661 L 3375,660 L 3365,656 L 3357,650 L 3204,496 z " style="fill-opacity:1.000000;fill:rgb(236,176,59);stroke:rgb(0,0,0);stroke-width:2"/></g>
<g fill-rule="evenodd"><path d="M 3317,1379 L 3321,1378 L 3329,1378 L 3337,1379 L 3345,1382 L 3351,1386 L 3357,1392 L 3633,1392 L 3634,1390 L 3643,1380 L 3654,1373 L 3666,1367 L 3680,1365 L 3686,1364 L 3700,1366 L 3713,1370 L 3725,1376 L 3735,1385 L 3743,1396 L 3749,1408 L 3753,1421 L 3753,1434 L 3751,1448 L 3747,1461 L 3739,1472 L 3730,1482 L 3719,1490 L 3706,1495 L 3693,1498 L 3686,1498 L 3673,1497 L 3660,1493 L 3648,1486 L 3638,1477 L 3633,1470 L 3358,1470 L 3353,1479 L 3344,1488 L 3334,1496 L 3322,1501 L 3309,1503 L 3303,1504 L 3290,1502 L 3278,1498 L 3267,1492 L 3257,1484 L 3250,1474 L 3244,1462 L 3241,1450 L 3240,1437 L 3242,1425 L 3247,1413 L 3253,1402 L 3262,1393 L 3273,1385 L 3284,1380 L 3297,1378 L 3303,1378 L 3317,1379 z " style="fill-opacity:1.000000;fill:rgb(251,50,175);stroke:rgb(0,0,0);stroke-width:2"/></g>
<g fill-rule="evenodd"><path d="M 2961,482 L 2952,472 L 2945,461 L 2942,449 L 2940,437 L 2942,424 L 2945,413 L 2952,402 L 2960,392 L 2970,385 L 2982,380 L 2994,377 L 3006,377 L 3019,380 L 3030,385 L 3040,392 L 3048,402 L 3055,413 L 3059,424 L 3060,437 L 3059,449 L 3055,461 L 3048,472 L 3039,482 L 3039,654 L 3139,753 L 3152,753 L 3165,756 L 3177,761 L 3188,769 L 3197,778 L 3203,790 L 3207,802 L 3209,815 L 3207,829 L 3203,841 L 3197,853 L 3188,862 L 3177,870 L 3165,875 L 3152,878 L 3139,878 L 3126,875 L 3114,870 L 3104,862 L 3095,853 L 3088,841 L 3084,829 L 3083,815 L 3083,809 L 2972,698 L 2966,690 L 2962,680 L 2961,670 L 2961,482 z " style="fill-opacity:1.000000;fill:rgb(60,84,236);stroke:rgb(0,0,0);stroke-width:2"/></g>
<g fill-rule="evenodd"><path d="M 3627,1601 L 3634,1590 L 3643,1580 L 3654,1573 L 3666,1567 L 3680,1564 L 3686,1564 L 3700,1565 L 3713,1570 L 3725,1576 L 3735,1585 L 3743,1596 L 3749,1608 L 3753,1621 L 3753,1634 L 3751,1648 L 3747,1660 L 3739,1672 L 3730,1682 L 3719,1690 L 3706,1695 L 3693,1698 L 3686,1698 L 3673,1697 L 3660,1693 L 3648,1686 L 3641,1680 L 3352,1680 L 3344,1688 L 3334,1696 L 3322,1701 L 3309,1703 L 3303,1703 L 3290,1702 L 3278,1698 L 3267,1692 L 3257,1684 L 3250,1674 L 3244,1662 L 3241,1650 L 3240,1637 L 3242,1625 L 3247,1613 L 3253,1602 L 3262,1593 L 3273,1585 L 3284,1580 L 3297,1578 L 3303,1577 L 3316,1579 L 3329,1583 L 3332,1584 L 3340,1587 L 3347,1591 L 3353,1597 L 3355,1601 L 3627,1601 z " style="fill-opacity:1.000000;fill:rgb(24,219,92);stroke:rgb(0,0,0);stroke-width:2"/></g>
<g fill-rule="evenodd"><path d="M 3740,1071 L 3739,1072 L 3730,1082 L 3719,1090 L 3706,1095 L 3693,1098 L 3686,1098 L 3673,1097 L 3660,1093 L 3648,1086 L 3638,1077 L 3630,1067 L 3624,1054 L 3620,1041 L 3620,1028 L 3622,1014 L 3626,1002 L 3634,990 L 3643,980 L 3654,973 L 3666,967 L 3680,965 L 3686,964 L 3700,966 L 3713,970 L 3725,976 L 3735,985 L 3740,992 L 3760,992 L 3770,993 L 3780,997 L 3788,1003 L 4019,1234 L 4025,1242 L 4029,1252 L 4030,1262 L 4030,1370 L 4033,1372 L 4042,1382 L 4049,1394 L 4053,1406 L 4054,1419 L 4053,1432 L 4049,1445 L 4042,1456 L 4033,1466 L 4023,1474 L 4011,1479 L 3998,1482 L 3985,1482 L 3972,1479 L 3960,1474 L 3949,1466 L 3940,1456 L 3934,1445 L 3930,1432 L 3928,1419 L 3930,1406 L 3934,1394 L 3940,1382 L 3949,1372 L 3952,1370 L 3952,1278 L 3744,1071 L 3740,1071 z " style="fill-opacity:1.000000;fill:rgb(2,26,254);stroke:rgb(0,0,0);stroke-width:2"/></g>
<g fill-rule="evenodd"><path d="M 505,3731 L 328,3731 L 317,3729 L 308,3725 L 300,3719 L 12,3431 L 5,3423 L 1,3413 L 0,3403 L 0,700 L 1,690 L 5,681 L 12,672 L 463,221 L 471,215 L 480,211 L 490,210 L 1040,210 L 1047,202 L 1058,195 L 1070,189 L 1083,187 L 1096,187 L 1248,34 L 1256,28 L 1266,24 L 1276,23 L 3105,23 L 3111,15 L 3122,8 L 3134,2 L 3147,0 L 3160,0 L 3173,2 L 3185,8 L 3196,15 L 3204,25 L 3211,37 L 3215,49 L 3217,62 L 3215,75 L 3211,88 L 3204,99 L 3196,109 L 3185,117 L 3173,122 L 3160,125 L 3147,125 L 3134,122 L 3122,117 L 3111,109 L 3105,101 L 1292,101 L 1151,243 L 1152,249 L 1151,262 L 1147,275 L 1140,286 L 1131,296 L 1121,304 L 1109,309 L 1096,312 L 1083,312 L 1070,309 L 1058,304 L 1047,296 L 1040,289 L 507,289 L 79,717 L 79,3387 L 344,3652 L 489,3652 L 577,3564 L 577,3560 L 568,3552 L 560,3542 L 554,3529 L 550,3516 L 550,3503 L 552,3489 L 556,3477 L 563,3465 L 573,3455 L 574,3455 L 574,3271 L 565,3263 L 556,3253 L 550,3240 L 547,3227 L 546,3214 L 548,3200 L 553,3188 L 560,3176 L 570,3166 L 581,3159 L 593,3153 L 606,3151 L 613,3150 L 627,3152 L 640,3156 L 651,3162 L 662,3171 L 670,3182 L 676,3194 L 679,3207 L 680,3221 L 678,3234 L 673,3247 L 666,3258 L 657,3268 L 653,3271 L 653,3450 L 655,3451 L 665,3460 L 673,3471 L 679,3483 L 683,3496 L 683,3510 L 681,3523 L 676,3536 L 669,3547 L 660,3557 L 656,3560 L 656,3580 L 654,3590 L 650,3600 L 644,3608 L 533,3719 L 525,3725 L 515,3729 L 505,3731 z " style="fill-opacity:1.000000;fill:rgb(67,251,250);stroke:rgb(0,0,0);stroke-width:2"/></g>
</svg>
