<?xml version="1.0" standalone="no"?>
<!DOCTYPE svg PUBLIC "-//W3C//DTD SVG 1.1//EN"
"http://www.w3.org/Graphics/SVG/1.1/DTD/svg11.dtd">
<svg width="4578" height="3870" viewBox="0 0 4578 3870" version="1.1"
xmlns="http://www.w3.org/2000/svg"
xmlns:xlink="http://www.w3.org/1999/xlink">
<g fill-rule="evenodd"><path d="M 0,3869 L 0,0 L 4578,0 L 4578,3869 L 0,3869 z " style="fill-opacity:0.300000;fill:rgb(41,35,190);"/></g>
<g fill-rule="evenodd"><path d="M 7,3822 L 7,47 L 8,39 L 10,32 L 14,25 L 19,19 L 25,14 L 32,11 L 39,8 L 47,8 L 4530,8 L 4538,8 L 4545,11 L 4552,14 L 4558,19 L 4563,25 L 4567,32 L 4569,39 L 4570,47 L 4570,3822 L 4569,3830 L 4567,3837 L 4563,3844 L 4558,3850 L 4552,3855 L 4545,3858 L 4538,3861 L 4530,3861 L 47,3861 L 39,3861 L 32,3858 L 25,3855 L 19,3850 L 14,3844 L 10,3837 L 8,3830 L 7,3822 z " style="fill-opacity:0.600000;fill:rgb(41,35,190);stroke:rgb(0,0,0);stroke-width:2"/></g>
<g fill-rule="evenodd"><path d="M 47,3822 L 47,47 L 4530,47 L 4530,3822 L 47,3822 z " style="fill-opacity:1.000000;fill:rgb(41,35,190);stroke:rgb(0,0,0);stroke-width:2"/></g>
</svg>
