<?xml version="1.0" standalone="no"?>
<!DOCTYPE svg PUBLIC "-//W3C//DTD SVG 1.1//EN"
"http://www.w3.org/Graphics/SVG/1.1/DTD/svg11.dtd">
<svg width="4578" height="3870" viewBox="0 0 4578 3870" version="1.1"
xmlns="http://www.w3.org/2000/svg"
xmlns:xlink="http://www.w3.org/1999/xlink">
<g fill-rule="evenodd"><path d="M 0,3869 L 0,0 L 4578,0 L 4578,3869 L 0,3869 z " style="fill-opacity:0.300000;fill:rgb(103,198,105);"/></g>
<g fill-rule="evenodd"><path d="M 7,3822 L 7,47 L 8,38 L 11,30 L 16,22 L 22,16 L 30,12 L 38,9 L 47,8 L 4530,8 L 4539,9 L 4547,12 L 4555,16 L 4561,22 L 4566,30 L 4569,38 L 4570,47 L 4570,3822 L 4569,3831 L 4566,3839 L 4561,3847 L 4555,3853 L 4547,3857 L 4539,3860 L 4530,3861 L 47,3861 L 38,3860 L 30,3857 L 22,3853 L 16,3846 L 11,3839 L 8,3831 L 7,3822 z " style="fill-opacity:0.600000;fill:rgb(103,198,105);stroke:rgb(0,0,0);stroke-width:2"/></g>
<g fill-rule="evenodd"><path d="M 47,3822 L 47,47 L 4530,47 L 4530,3822 L 47,3822 z " style="fill-opacity:1.000000;fill:rgb(103,198,105);stroke:rgb(0,0,0);stroke-width:2"/></g>
</svg>
