<?xml version="1.0" encoding="UTF-8" standalone="no"?>
<svg
   xmlns:dc="http://purl.org/dc/elements/1.1/"
   xmlns:cc="http://creativecommons.org/ns#"
   xmlns:rdf="http://www.w3.org/1999/02/22-rdf-syntax-ns#"
   xmlns:svg="http://www.w3.org/2000/svg"
   xmlns="http://www.w3.org/2000/svg"
   xmlns:sodipodi="http://sodipodi.sourceforge.net/DTD/sodipodi-0.dtd"
   xmlns:inkscape="http://www.inkscape.org/namespaces/inkscape"
   width="165mm"
   height="114mm"
   viewBox="4 -121 165 114"
   version="1.1"
   id="svg885"
   sodipodi:docname="mech3_cut.svg"
   inkscape:version="0.92.3 (2405546, 2018-03-11)">
  <metadata
     id="metadata891">
    <rdf:RDF>
      <cc:Work
         rdf:about="">
        <dc:format>image/svg+xml</dc:format>
        <dc:type
           rdf:resource="http://purl.org/dc/dcmitype/StillImage" />
      </cc:Work>
    </rdf:RDF>
  </metadata>
  <defs
     id="defs889" />
  <sodipodi:namedview
     pagecolor="#ffffff"
     bordercolor="#666666"
     borderopacity="1"
     objecttolerance="10"
     gridtolerance="10"
     guidetolerance="10"
     inkscape:pageopacity="0"
     inkscape:pageshadow="2"
     inkscape:window-width="1366"
     inkscape:window-height="713"
     id="namedview887"
     showgrid="false"
     inkscape:zoom="0.87308046"
     inkscape:cx="174.36665"
     inkscape:cy="257.31758"
     inkscape:window-x="0"
     inkscape:window-y="27"
     inkscape:window-maximized="1"
     inkscape:current-layer="svg885" />
  <title
     id="title881">OpenSCAD Model</title>
  <path
     d="m 4.5,-112.5 v 105 h 45 v -105 z"
     id="path967"
     style="fill:none;stroke:#000000;stroke-opacity:1" />
  <path
     d="M 23,-35 H 10 v -50.8 h 10 v 0.1 h 3 v 3.2 h -3 v 44.3 h 3 z"
     id="path965"
     style="fill:none;stroke:#000000;stroke-opacity:1" />
  <path
     d="m 18.3532,-14.073 -1.0898,1.5 L 15.5,-12 l -1.7634,-0.573 -1.0898,-1.5 v -1.8541 l 1.0898,-1.5 L 15.5,-18 l 1.7634,0.5729 1.0898,1.5 z"
     id="path963"
     style="fill:none;stroke:#000000;stroke-opacity:1" />
  <path
     d="m 18.3532,-104.073 -1.0898,1.5 -1.7634,0.573 -1.7634,-0.573 -1.0898,-1.5 v -1.854 l 1.0898,-1.5 1.7634,-0.573 1.7634,0.573 1.0898,1.5 z"
     id="path961"
     style="fill:none;stroke:#000000;stroke-opacity:1" />
  <path
     d="m 29.4184,-72.9044 -1.5169,0.9748 h -1.803 l -1.5169,-0.9748 -0.749,-1.6402 0.2566,-1.7847 1.1808,-1.3627 1.73,-0.508 1.73,0.508 1.1808,1.3627 0.2566,1.7847 z"
     id="path959"
     style="fill:none;stroke:#000000;stroke-opacity:1" />
  <path
     d="m 29.4184,-42.9044 -1.5169,0.9748 h -1.803 l -1.5169,-0.9748 -0.749,-1.6402 0.2566,-1.7847 1.1808,-1.3627 1.73,-0.508 1.73,0.508 1.1808,1.3627 0.2566,1.7847 z"
     id="path957"
     style="fill:none;stroke:#000000;stroke-opacity:1" />
  <path
     d="m 29.4184,-62.9044 -1.5169,0.9748 h -1.803 l -1.5169,-0.9748 -0.749,-1.6402 0.2566,-1.7847 1.1808,-1.3627 1.73,-0.508 1.73,0.508 1.1808,1.3627 0.2566,1.7847 z"
     id="path955"
     style="fill:none;stroke:#000000;stroke-opacity:1" />
  <path
     d="m 29.4184,-52.9044 -1.5169,0.9748 h -1.803 l -1.5169,-0.9748 -0.749,-1.6402 0.2566,-1.7847 1.1808,-1.3627 1.73,-0.508 1.73,0.508 1.1808,1.3627 0.2566,1.7847 z"
     id="path953"
     style="fill:none;stroke:#000000;stroke-opacity:1" />
  <path
     d="m 29.8532,-99.0729 -1.0898,1.5 L 27,-97 l -1.7634,-0.5729 -1.0898,-1.5 v -1.8541 l 1.0898,-1.5 L 27,-103 l 1.7634,0.573 1.0898,1.5 z"
     id="path951"
     style="fill:none;stroke:#000000;stroke-opacity:1" />
  <path
     d="m 29.8532,-19.073 -1.0898,1.5 L 27,-17 l -1.7634,-0.573 -1.0898,-1.5 v -1.8541 l 1.0898,-1.5 L 27,-23 l 1.7634,0.5729 1.0898,1.5 z"
     id="path949"
     style="fill:none;stroke:#000000;stroke-opacity:1" />
  <path
     d="M 44.5,-24.8 H 31 V -28 h 3.5 V -91.8 H 31 V -95 h 13.5 v 3.2 h -5 V -28 h 5 z"
     id="path947"
     style="fill:none;stroke:#000000;stroke-opacity:1" />
  <path
     d="m 57,-112.5 v 105 h 30 v -105 z"
     id="path945"
     style="fill:none;stroke:#000000;stroke-opacity:1" />
  <path
     d="m 68.3532,-14.073 -1.0898,1.5 L 65.5,-12 l -1.7634,-0.573 -1.0898,-1.5 v -1.8541 l 1.0898,-1.5 L 65.5,-18 l 1.7634,0.5729 1.0898,1.5 z"
     id="path943"
     style="fill:none;stroke:#000000;stroke-opacity:1" />
  <path
     d="m 68.3532,-104.073 -1.0898,1.5 -1.7634,0.573 -1.7634,-0.573 -1.0898,-1.5 v -1.854 l 1.0898,-1.5 1.7634,-0.573 1.7634,0.573 1.0898,1.5 z"
     id="path941"
     style="fill:none;stroke:#000000;stroke-opacity:1" />
  <path
     d="m 79.4184,-62.9044 -1.5169,0.9748 h -1.803 l -1.5169,-0.9748 -0.749,-1.6402 0.2566,-1.7847 1.1808,-1.3627 1.73,-0.508 1.73,0.508 1.1808,1.3627 0.2566,1.7847 z"
     id="path939"
     style="fill:none;stroke:#000000;stroke-opacity:1" />
  <path
     d="m 79.4184,-52.9044 -1.5169,0.9748 h -1.803 l -1.5169,-0.9748 -0.749,-1.6402 0.2566,-1.7847 1.1808,-1.3627 1.73,-0.508 1.73,0.508 1.1808,1.3627 0.2566,1.7847 z"
     id="path937"
     style="fill:none;stroke:#000000;stroke-opacity:1" />
  <path
     d="m 79.4184,-42.9044 -1.5169,0.9748 h -1.803 l -1.5169,-0.9748 -0.749,-1.6402 0.2566,-1.7847 1.1808,-1.3627 1.73,-0.508 1.73,0.508 1.1808,1.3627 0.2566,1.7847 z"
     id="path935"
     style="fill:none;stroke:#000000;stroke-opacity:1" />
  <path
     d="m 79.4184,-72.9044 -1.5169,0.9748 h -1.803 l -1.5169,-0.9748 -0.749,-1.6402 0.2566,-1.7847 1.1808,-1.3627 1.73,-0.508 1.73,0.508 1.1808,1.3627 0.2566,1.7847 z"
     id="path933"
     style="fill:none;stroke:#000000;stroke-opacity:1" />
  <path
     d="m 79.8532,-19.073 -1.0898,1.5 L 77,-17 l -1.7634,-0.573 -1.0898,-1.5 v -1.8541 l 1.0898,-1.5 L 77,-23 l 1.7634,0.5729 1.0898,1.5 z"
     id="path931"
     style="fill:none;stroke:#000000;stroke-opacity:1" />
  <path
     d="m 79.8532,-99.0729 -1.0898,1.5 L 77,-97 l -1.7634,-0.5729 -1.0898,-1.5 v -1.8541 l 1.0898,-1.5 L 77,-103 l 1.7634,0.573 1.0898,1.5 z"
     id="path929"
     style="fill:none;stroke:#000000;stroke-opacity:1" />
  <path
     d="m 103,-77 v -6 h 5.436 l -0.484,-1.2157 -1.093,-1.6108 -1.412,-1.3383 -1.668,-1.0034 -1.844,-0.6214 L 100,-89 l -1.9347,0.2104 -1.8443,0.6214 -1.6676,1.0034 -1.4129,1.3383 -1.0921,1.6108 L 91.564,-83 H 97 v 6 h -5.4527 l 0.0919,0.3312 0.9116,1.7195 1.2599,1.4833 1.5493,1.1777 1.7663,0.8172 1.9006,0.4183 h 1.9461 l 1.901,-0.4183 1.766,-0.8172 1.549,-1.1777 1.26,-1.4833 0.912,-1.7195 0.092,-0.3312 z"
     id="path927"
     style="fill:none;stroke:#000000;stroke-opacity:1" />
  <path
     d="m 120,-110 v -11 H 98 v 27 h 32 v -16 z"
     id="path925"
     style="fill:none;stroke:#000000;stroke-opacity:1" />
  <path
     d="m 106.853,-100.073 -1.09,1.5 L 104,-98 l -1.763,-0.573 -1.09,-1.5 v -1.854 l 1.09,-1.5 1.763,-0.573 1.763,0.573 1.09,1.5 z"
     id="path923"
     style="fill:none;stroke:#000000;stroke-opacity:1" />
  <path
     d="m 118.353,-105.073 -1.09,1.5 -1.763,0.573 -1.763,-0.573 -1.09,-1.5 v -1.854 l 1.09,-1.5 1.763,-0.573 1.763,0.573 1.09,1.5 z"
     id="path921"
     style="fill:none;stroke:#000000;stroke-opacity:1" />
  <path
     d="M 116.816,-14.4729 116.023,-16.2817 115,-17.393 V -60 h -0.088 l 0.059,-0.4821 -0.679,-1.7901 -1.433,-1.2696 L 111,-64 l -1.859,0.4582 -1.433,1.2696 -0.679,1.7901 0.059,0.4821 H 107 v 42.6071 l -1.023,1.1112 -0.793,1.8088 -0.163,1.9684 0.484,1.9147 1.081,1.65347 1.558,1.21317 1.868,0.64133 h 1.976 l 1.868,-0.64133 1.558,-1.21317 1.081,-1.65347 0.484,-1.9147 z"
     id="path919"
     style="fill:none;stroke:#000000;stroke-opacity:1" />
  <path
     d="M 112.697,-11.3029 111,-10.6 109.303,-11.3029 108.6,-13 109.303,-14.6971 111,-15.4 112.697,-14.6971 113.4,-13 Z"
     id="path917"
     style="fill:none;stroke:#000000;stroke-opacity:1" />
  <path
     d="m 123,-77 v -6 h 5.436 l -0.484,-1.2157 -1.093,-1.6108 -1.412,-1.3383 -1.668,-1.0034 -1.844,-0.6214 L 120,-89 l -1.935,0.2104 -1.844,0.6214 -1.668,1.0034 -1.412,1.3383 -1.093,1.6108 L 111.564,-83 H 117 v 6 h -5.453 l 0.092,0.3312 0.912,1.7195 1.26,1.4833 1.549,1.1777 1.766,0.8172 1.901,0.4183 h 1.946 l 1.901,-0.4183 1.766,-0.8172 1.549,-1.1777 1.26,-1.4833 0.912,-1.7195 0.092,-0.3312 z"
     id="path915"
     style="fill:none;stroke:#000000;stroke-opacity:1" />
  <path
     d="M 131.816,-14.4729 131.023,-16.2817 130,-17.393 V -60 h -0.088 l 0.059,-0.4821 -0.679,-1.7901 -1.433,-1.2696 L 126,-64 l -1.859,0.4582 -1.433,1.2696 -0.679,1.7901 0.059,0.4821 H 122 v 42.6071 l -1.023,1.1112 -0.793,1.8088 -0.163,1.9684 0.484,1.9147 1.081,1.65347 1.558,1.21317 1.868,0.64133 h 1.976 l 1.868,-0.64133 1.558,-1.21317 1.081,-1.65347 0.484,-1.9147 z"
     id="path913"
     style="fill:none;stroke:#000000;stroke-opacity:1" />
  <path
     d="M 127.697,-11.3029 126,-10.6 124.303,-11.3029 123.6,-13 124.303,-14.6971 126,-15.4 127.697,-14.6971 128.4,-13 Z"
     id="path911"
     style="fill:none;stroke:#000000;stroke-opacity:1" />
  <path
     d="m 143,-77 v -6 h 5.436 l -0.484,-1.2157 -1.093,-1.6108 -1.412,-1.3383 -1.668,-1.0034 -1.844,-0.6214 L 140,-89 l -1.935,0.2104 -1.844,0.6214 -1.668,1.0034 -1.412,1.3383 -1.093,1.6108 L 131.564,-83 H 137 v 6 h -5.453 l 0.092,0.3312 0.912,1.7195 1.26,1.4833 1.549,1.1777 1.766,0.8172 1.901,0.4183 h 1.946 l 1.901,-0.4183 1.766,-0.8172 1.549,-1.1777 1.26,-1.4833 0.912,-1.7195 0.092,-0.3312 z"
     id="path909"
     style="fill:none;stroke:#000000;stroke-opacity:1" />
  <path
     d="m 157,-110 v -11 h -22 v 27 h 32 v -16 z"
     id="path907"
     style="fill:none;stroke:#000000;stroke-opacity:1" />
  <path
     d="m 143.853,-100.073 -1.09,1.5 L 141,-98 l -1.763,-0.573 -1.09,-1.5 v -1.854 l 1.09,-1.5 1.763,-0.573 1.763,0.573 1.09,1.5 z"
     id="path905"
     style="fill:none;stroke:#000000;stroke-opacity:1" />
  <path
     d="m 155.353,-105.073 -1.09,1.5 -1.763,0.573 -1.763,-0.573 -1.09,-1.5 v -1.854 l 1.09,-1.5 1.763,-0.573 1.763,0.573 1.09,1.5 z"
     id="path903"
     style="fill:none;stroke:#000000;stroke-opacity:1" />
  <path
     d="M 146.816,-14.4729 146.023,-16.2817 145,-17.393 V -60 h -0.088 l 0.059,-0.4821 -0.679,-1.7901 -1.433,-1.2696 L 141,-64 l -1.859,0.4582 -1.433,1.2696 -0.679,1.7901 0.059,0.4821 H 137 v 42.6071 l -1.023,1.1112 -0.793,1.8088 -0.163,1.9684 0.484,1.9147 1.081,1.65347 1.558,1.21317 1.868,0.64133 h 1.976 l 1.868,-0.64133 1.558,-1.21317 1.081,-1.65347 0.484,-1.9147 z"
     id="path901"
     style="fill:none;stroke:#000000;stroke-opacity:1" />
  <path
     d="M 142.697,-11.3029 141,-10.6 139.303,-11.3029 138.6,-13 139.303,-14.6971 141,-15.4 142.697,-14.6971 143.4,-13 Z"
     id="path899"
     style="fill:none;stroke:#000000;stroke-opacity:1" />
  <path
     d="M 161.816,-14.4729 161.023,-16.2817 160,-17.393 V -60 h -0.088 l 0.059,-0.4821 -0.679,-1.7901 -1.433,-1.2696 L 156,-64 l -1.859,0.4582 -1.433,1.2696 -0.679,1.7901 0.059,0.4821 H 152 v 42.6071 l -1.023,1.1112 -0.793,1.8088 -0.163,1.9684 0.484,1.9147 1.081,1.65347 1.558,1.21317 1.868,0.64133 h 1.976 l 1.868,-0.64133 1.558,-1.21317 1.081,-1.65347 0.484,-1.9147 z"
     id="path897"
     style="fill:none;stroke:#000000;stroke-opacity:1" />
  <path
     d="M 157.697,-11.3029 156,-10.6 154.303,-11.3029 153.6,-13 154.303,-14.6971 156,-15.4 157.697,-14.6971 158.4,-13 Z"
     id="path895"
     style="fill:none;stroke:#000000;stroke-opacity:1" />
  <path
     d="m 163,-77 v -6 h 5.436 l -0.484,-1.2157 -1.093,-1.6108 -1.412,-1.3383 -1.668,-1.0034 -1.844,-0.6214 L 160,-89 l -1.935,0.2104 -1.844,0.6214 -1.668,1.0034 -1.412,1.3383 -1.093,1.6108 L 151.564,-83 H 157 v 6 h -5.453 l 0.092,0.3312 0.912,1.7195 1.26,1.4833 1.549,1.1777 1.766,0.8172 1.901,0.4183 h 1.946 l 1.901,-0.4183 1.766,-0.8172 1.549,-1.1777 1.26,-1.4833 0.912,-1.7195 0.092,-0.3312 z"
     id="path883"
     style="fill:none;stroke:#000000;stroke-opacity:1" />
</svg>
