<?xml version="1.0" encoding="UTF-8" standalone="no"?>
<svg
   xmlns:dc="http://purl.org/dc/elements/1.1/"
   xmlns:cc="http://creativecommons.org/ns#"
   xmlns:rdf="http://www.w3.org/1999/02/22-rdf-syntax-ns#"
   xmlns:svg="http://www.w3.org/2000/svg"
   xmlns="http://www.w3.org/2000/svg"
   xmlns:sodipodi="http://sodipodi.sourceforge.net/DTD/sodipodi-0.dtd"
   xmlns:inkscape="http://www.inkscape.org/namespaces/inkscape"
   width="168.12732mm"
   height="130.08253mm"
   viewBox="7 -235 168.12732 130.08253"
   version="1.1"
   id="svg1981"
   sodipodi:docname="mech3b_cut2.svg"
   inkscape:version="0.92.3 (2405546, 2018-03-11)">
  <metadata
     id="metadata1987">
    <rdf:RDF>
      <cc:Work
         rdf:about="">
        <dc:format>image/svg+xml</dc:format>
        <dc:type
           rdf:resource="http://purl.org/dc/dcmitype/StillImage" />
        <dc:title>OpenSCAD Model</dc:title>
      </cc:Work>
    </rdf:RDF>
  </metadata>
  <defs
     id="defs1985" />
  <sodipodi:namedview
     pagecolor="#ffffff"
     bordercolor="#666666"
     borderopacity="1"
     objecttolerance="10"
     gridtolerance="10"
     guidetolerance="10"
     inkscape:pageopacity="0"
     inkscape:pageshadow="2"
     inkscape:window-width="1366"
     inkscape:window-height="713"
     id="namedview1983"
     showgrid="false"
     inkscape:zoom="0.65165895"
     inkscape:cx="175.10157"
     inkscape:cy="127.98161"
     inkscape:window-x="0"
     inkscape:window-y="27"
     inkscape:window-maximized="1"
     inkscape:current-layer="svg1981"
     fit-margin-top="0"
     fit-margin-left="0"
     fit-margin-right="0"
     fit-margin-bottom="0" />
  <title
     id="title1977">OpenSCAD Model</title>
  <path
     d="M 170.54248,-234.5 H 23.318289 L 96.93049,-107 Z"
     id="path2067"
     style="fill:none;fill-opacity:1;stroke:#000000;stroke-opacity:1"
     inkscape:connector-curvature="0" />
  <path
     d="m 71.93049,-196 v -13.5 h 3.2 v 3.75 h 4.8 v 6 h -4.8 v 3.75 z"
     id="path2065"
     style="fill:none;fill-opacity:1;stroke:#000000;stroke-opacity:1"
     inkscape:connector-curvature="0" />
  <path
     d="m 119.43048,-196 v -3.75 h -4.99999 v -6 h 4.99999 v -3.75 h 3.2 v 13.5 z"
     id="path2063"
     style="fill:none;fill-opacity:1;stroke:#000000;stroke-opacity:1"
     inkscape:connector-curvature="0" />
  <path
     d="m 141.74248,-200.5059 -0.188,-0.0178 -0.186,-0.0294 -0.184,-0.0411 -0.181,-0.0526 -0.177,-0.0639 -0.173,-0.0748 -0.168,-0.0856 -0.162,-0.0959 -0.156,-0.1059 -0.149,-0.1155 -0.142,-0.1247 -0.133,-0.1333 -0.125,-0.1413 -0.115,-0.1489 -0.106,-0.1559 -0.096,-0.1622 -0.085,-0.168 -0.075,-0.1729 -0.064,-0.1773 -0.053,-0.181 -0.041,-0.184 -0.029,-0.1861 -0.018,-0.1876 -0.006,-0.1884 0.006,-0.1884 0.018,-0.1876 0.029,-0.1861 0.041,-0.184 0.053,-0.1809 0.064,-0.1774 0.075,-0.1729 0.085,-0.168 0.096,-0.1622 0.106,-0.1559 0.115,-0.1489 0.125,-0.1413 0.133,-0.1333 0.142,-0.1246 0.149,-0.1155 0.156,-0.106 0.162,-0.0959 0.168,-0.0856 0.173,-0.0748 0.177,-0.0639 0.181,-0.0525 0.184,-0.0412 0.186,-0.0294 0.188,-0.0178 0.188,-0.006 0.188,0.006 0.188,0.0178 0.186,0.0294 0.184,0.0412 0.181,0.0525 0.177,0.0639 0.173,0.0748 0.168,0.0856 0.162,0.0959 0.156,0.106 0.149,0.1155 0.142,0.1246 0.133,0.1333 0.125,0.1413 0.115,0.1489 0.106,0.1559 0.096,0.1622 0.085,0.168 0.075,0.1729 0.064,0.1774 0.053,0.1809 0.041,0.184 0.029,0.1861 0.018,0.1876 0.006,0.1884 -0.006,0.1884 -0.018,0.1876 -0.029,0.1861 -0.041,0.184 -0.053,0.181 -0.064,0.1773 -0.075,0.1729 -0.085,0.168 -0.096,0.1622 -0.106,0.1559 -0.115,0.1489 -0.125,0.1413 -0.133,0.1333 -0.142,0.1247 -0.149,0.1155 -0.156,0.1059 -0.162,0.0959 -0.168,0.0856 -0.173,0.0748 -0.177,0.0639 -0.181,0.0526 -0.184,0.0411 -0.186,0.0294 -0.188,0.0178 -0.188,0.006 z"
     id="path2061"
     style="fill:none;fill-opacity:1;stroke:#000000;stroke-opacity:1"
     inkscape:connector-curvature="0" />
  <path
     d="m 51.74209,-200.5059 -0.1876,-0.0178 -0.1861,-0.0294 -0.184,-0.0411 -0.1809,-0.0526 -0.1774,-0.0639 -0.1729,-0.0748 -0.168,-0.0856 -0.1622,-0.0959 -0.1559,-0.1059 -0.1489,-0.1155 -0.1413,-0.1247 -0.1333,-0.1333 -0.1246,-0.1413 -0.1155,-0.1489 -0.106,-0.1559 -0.0959,-0.1622 -0.0856,-0.168 -0.0748,-0.1729 -0.0639,-0.1773 -0.0525,-0.181 -0.0412,-0.184 -0.0294,-0.1861 -0.0178,-0.1876 -0.0059,-0.1884 0.0059,-0.1884 0.0178,-0.1876 0.0294,-0.1861 0.0412,-0.184 0.0525,-0.1809 0.0639,-0.1774 0.0748,-0.1729 0.0856,-0.168 0.0959,-0.1622 0.106,-0.1559 0.1155,-0.1489 0.1246,-0.1413 0.1333,-0.1333 0.1413,-0.1246 0.1489,-0.1155 0.1559,-0.106 0.1622,-0.0959 0.168,-0.0856 0.1729,-0.0748 0.1774,-0.0639 0.1809,-0.0525 0.184,-0.0412 0.1861,-0.0294 0.1876,-0.0178 0.1884,-0.006 0.1884,0.006 0.1876,0.0178 0.1861,0.0294 0.184,0.0412 0.181,0.0525 0.1773,0.0639 0.1729,0.0748 0.168,0.0856 0.1622,0.0959 0.1559,0.106 0.1489,0.1155 0.1413,0.1246 0.1333,0.1333 0.1247,0.1413 0.1155,0.1489 0.1059,0.1559 0.0959,0.1622 0.0856,0.168 0.0748,0.1729 0.0639,0.1774 0.0526,0.1809 0.0411,0.184 0.0294,0.1861 0.0178,0.1876 0.0059,0.1884 -0.0059,0.1884 -0.0178,0.1876 -0.0294,0.1861 -0.0411,0.184 -0.0526,0.181 -0.0639,0.1773 -0.0748,0.1729 -0.0856,0.168 -0.0959,0.1622 -0.1059,0.1559 -0.1155,0.1489 -0.1247,0.1413 -0.1333,0.1333 -0.1413,0.1247 -0.1489,0.1155 -0.1559,0.1059 -0.1622,0.0959 -0.168,0.0856 -0.1729,0.0748 -0.1773,0.0639 -0.181,0.0526 -0.184,0.0411 -0.1861,0.0294 -0.1876,0.0178 -0.1884,0.006 z"
     id="path2059"
     style="fill:none;fill-opacity:1;stroke:#000000;stroke-opacity:1"
     inkscape:connector-curvature="0" />
  <path
     d="m 91.74209,-199.0059 -0.1876,-0.0178 -0.1861,-0.0294 -0.184,-0.0411 -0.1809,-0.0526 -0.1774,-0.0639 -0.1729,-0.0748 -0.168,-0.0856 -0.1622,-0.0959 -0.1559,-0.1059 -0.1489,-0.1155 -0.1413,-0.1247 -0.1333,-0.1333 -0.1246,-0.1413 -0.1155,-0.1489 -0.106,-0.1559 -0.0959,-0.1622 -0.0856,-0.168 -0.0748,-0.1729 -0.0639,-0.1773 -0.0525,-0.181 -0.0412,-0.184 -0.0294,-0.1861 -0.0178,-0.1876 -0.0059,-0.1884 0.0059,-0.1884 0.0178,-0.1876 0.0294,-0.1861 0.0412,-0.184 0.0525,-0.1809 0.0639,-0.1774 0.0748,-0.1729 0.0856,-0.168 0.0959,-0.1622 0.106,-0.1559 0.1155,-0.1489 0.1246,-0.1413 0.1333,-0.1333 0.1413,-0.1246 0.1489,-0.1155 0.1559,-0.106 0.1622,-0.0959 0.168,-0.0856 0.1729,-0.0748 0.1774,-0.0639 0.1809,-0.0525 0.184,-0.0412 0.1861,-0.0294 0.1876,-0.0178 0.1884,-0.006 0.1884,0.006 0.1876,0.0178 0.1861,0.0294 0.184,0.0412 0.181,0.0525 0.1773,0.0639 0.1729,0.0748 0.168,0.0856 0.1622,0.0959 0.1559,0.106 0.1489,0.1155 0.1413,0.1246 0.1333,0.1333 0.1247,0.1413 0.1155,0.1489 0.1059,0.1559 0.0959,0.1622 0.0856,0.168 0.0748,0.1729 0.0639,0.1774 0.0526,0.1809 0.0411,0.184 0.0294,0.1861 0.0178,0.1876 0.0059,0.1884 -0.0059,0.1884 -0.0178,0.1876 -0.0294,0.1861 -0.0411,0.184 -0.0526,0.181 -0.0639,0.1773 -0.0748,0.1729 -0.0856,0.168 -0.0959,0.1622 -0.1059,0.1559 -0.1155,0.1489 -0.1247,0.1413 -0.1333,0.1333 -0.1413,0.1247 -0.1489,0.1155 -0.1559,0.1059 -0.1622,0.0959 -0.168,0.0856 -0.1729,0.0748 -0.1773,0.0639 -0.181,0.0526 -0.184,0.0411 -0.1861,0.0294 -0.1876,0.0178 -0.1884,0.006 z"
     id="path2057"
     style="fill:none;fill-opacity:1;stroke:#000000;stroke-opacity:1"
     inkscape:connector-curvature="0" />
  <path
     d="m 101.74209,-199.0059 -0.1876,-0.0178 -0.1861,-0.0294 -0.184,-0.0411 -0.181,-0.0526 -0.1773,-0.0639 -0.1729,-0.0748 -0.168,-0.0856 -0.1622,-0.0959 -0.1559,-0.1059 -0.1489,-0.1155 -0.1413,-0.1247 -0.1333,-0.1333 -0.1247,-0.1413 -0.1155,-0.1489 -0.1059,-0.1559 -0.0959,-0.1622 -0.0856,-0.168 -0.0748,-0.1729 -0.0639,-0.1773 -0.0526,-0.181 -0.0411,-0.184 -0.0294,-0.1861 -0.0178,-0.1876 -0.0059,-0.1884 0.0059,-0.1884 0.0178,-0.1876 0.0294,-0.1861 0.0411,-0.184 0.0526,-0.1809 0.0639,-0.1774 0.0748,-0.1729 0.0856,-0.168 0.0959,-0.1622 0.1059,-0.1559 0.1155,-0.1489 0.1247,-0.1413 0.1333,-0.1333 0.1413,-0.1246 0.1489,-0.1155 0.1559,-0.106 0.1622,-0.0959 0.168,-0.0856 0.1729,-0.0748 0.1773,-0.0639 0.181,-0.0525 0.184,-0.0412 0.1861,-0.0294 0.1876,-0.0178 0.1884,-0.006 0.1884,0.006 0.1876,0.0178 0.1861,0.0294 0.184,0.0412 0.1809,0.0525 0.1774,0.0639 0.1729,0.0748 0.168,0.0856 0.1622,0.0959 0.1559,0.106 0.1489,0.1155 0.1413,0.1246 0.1333,0.1333 0.1246,0.1413 0.1155,0.1489 0.106,0.1559 0.0959,0.1622 0.0856,0.168 0.0748,0.1729 0.0639,0.1774 0.0525,0.1809 0.0412,0.184 0.0294,0.1861 0.0178,0.1876 0.006,0.1884 -0.006,0.1884 -0.0178,0.1876 -0.0294,0.1861 -0.0412,0.184 -0.0525,0.181 -0.0639,0.1773 -0.0748,0.1729 -0.0856,0.168 -0.0959,0.1622 -0.106,0.1559 -0.1155,0.1489 -0.1246,0.1413 -0.1333,0.1333 -0.1413,0.1247 -0.1489,0.1155 -0.1559,0.1059 -0.1622,0.0959 -0.168,0.0856 -0.1729,0.0748 -0.1774,0.0639 -0.1809,0.0526 -0.184,0.0411 -0.1861,0.0294 -0.1876,0.0178 -0.1884,0.006 z"
     id="path2055"
     style="fill:none;fill-opacity:1;stroke:#000000;stroke-opacity:1"
     inkscape:connector-curvature="0" />
  <path
     d="m 111.72349,-188.7065 -0.207,-0.0195 -0.204,-0.0325 -0.203,-0.0452 -0.199,-0.0578 -0.195,-0.0702 -0.19,-0.0824 -0.185,-0.0941 -0.178,-0.1055 -0.172,-0.1165 -0.164,-0.1271 -0.155,-0.1371 -0.147,-0.1466 -0.137,-0.1555 -0.127,-0.1638 -0.116,-0.1715 -0.106,-0.1784 -0.094,-0.1847 -0.082,-0.1903 -0.07,-0.1951 -0.058,-0.199 -0.046,-0.2024 -0.032,-0.2047 -0.02,-0.2064 -0.006,-0.2072 0.006,-0.2072 0.02,-0.2064 0.032,-0.2047 0.046,-0.2024 0.058,-0.199 0.07,-0.1951 0.082,-0.1903 0.094,-0.1847 0.106,-0.1784 0.116,-0.1715 0.127,-0.1638 0.137,-0.1555 0.147,-0.1466 0.155,-0.1371 0.164,-0.1271 0.172,-0.1165 0.178,-0.1055 0.185,-0.0941 0.19,-0.0824 0.195,-0.0702 0.199,-0.0578 0.203,-0.0452 0.204,-0.0325 0.207,-0.0195 0.207,-0.007 0.207,0.007 0.207,0.0195 0.204,0.0325 0.203,0.0452 0.199,0.0578 0.195,0.0702 0.19,0.0824 0.185,0.0941 0.178,0.1055 0.172,0.1165 0.163,0.1271 0.156,0.1371 0.147,0.1466 0.137,0.1555 0.127,0.1638 0.116,0.1715 0.106,0.1784 0.094,0.1847 0.082,0.1903 0.07,0.1951 0.058,0.199 0.046,0.2024 0.032,0.2047 0.019,0.2064 0.007,0.2072 -0.007,0.2072 -0.019,0.2064 -0.032,0.2047 -0.046,0.2024 -0.058,0.199 -0.07,0.1951 -0.082,0.1903 -0.094,0.1847 -0.106,0.1784 -0.116,0.1715 -0.127,0.1638 -0.137,0.1555 -0.147,0.1466 -0.156,0.1371 -0.163,0.1271 -0.172,0.1165 -0.178,0.1055 -0.185,0.0941 -0.19,0.0824 -0.195,0.0702 -0.199,0.0578 -0.203,0.0452 -0.204,0.0325 -0.207,0.0195 -0.207,0.006 z"
     id="path2053"
     style="fill:none;fill-opacity:1;stroke:#000000;stroke-opacity:1"
     inkscape:connector-curvature="0" />
  <path
     d="m 81.72329,-188.7065 -0.2064,-0.0195 -0.2047,-0.0325 -0.2024,-0.0452 -0.199,-0.0578 -0.1951,-0.0702 -0.1903,-0.0824 -0.1847,-0.0941 -0.1784,-0.1055 -0.1715,-0.1165 -0.1638,-0.1271 -0.1555,-0.1371 -0.1466,-0.1466 -0.1371,-0.1555 -0.1271,-0.1638 -0.1165,-0.1715 -0.1055,-0.1784 -0.0941,-0.1847 -0.0824,-0.1903 -0.0702,-0.1951 -0.0578,-0.199 -0.0452,-0.2024 -0.0325,-0.2047 -0.0195,-0.2064 -0.0065,-0.2072 0.0065,-0.2072 0.0195,-0.2064 0.0325,-0.2047 0.0452,-0.2024 0.0578,-0.199 0.0702,-0.1951 0.0824,-0.1903 0.0941,-0.1847 0.1055,-0.1784 0.1165,-0.1715 0.1271,-0.1638 0.1371,-0.1555 0.1466,-0.1466 0.1555,-0.1371 0.1638,-0.1271 0.1715,-0.1165 0.1784,-0.1055 0.1847,-0.0941 0.1903,-0.0824 0.1951,-0.0702 0.199,-0.0578 0.2024,-0.0452 0.2047,-0.0325 0.2064,-0.0195 0.2072,-0.007 0.2072,0.007 0.2064,0.0195 0.2048,0.0325 0.2023,0.0452 0.1991,0.0578 0.195,0.0702 0.1903,0.0824 0.1847,0.0941 0.1784,0.1055 0.1715,0.1165 0.1638,0.1271 0.1555,0.1371 0.1466,0.1466 0.1371,0.1555 0.1271,0.1638 0.1165,0.1715 0.1055,0.1784 0.0941,0.1847 0.0824,0.1903 0.0702,0.1951 0.0578,0.199 0.0453,0.2024 0.0324,0.2047 0.0195,0.2064 0.0065,0.2072 -0.0065,0.2072 -0.0195,0.2064 -0.0324,0.2047 -0.0453,0.2024 -0.0578,0.199 -0.0702,0.1951 -0.0824,0.1903 -0.0941,0.1847 -0.1055,0.1784 -0.1165,0.1715 -0.1271,0.1638 -0.1371,0.1555 -0.1466,0.1466 -0.1555,0.1371 -0.1638,0.1271 -0.1715,0.1165 -0.1784,0.1055 -0.1847,0.0941 -0.1903,0.0824 -0.195,0.0702 -0.1991,0.0578 -0.2023,0.0452 -0.2048,0.0325 -0.2064,0.0195 -0.2072,0.006 z"
     id="path2051"
     style="fill:none;fill-opacity:1;stroke:#000000;stroke-opacity:1"
     inkscape:connector-curvature="0" />
  <path
     d="m 91.72329,-188.7065 -0.2064,-0.0195 -0.2047,-0.0325 -0.2024,-0.0452 -0.199,-0.0578 -0.1951,-0.0702 -0.1903,-0.0824 -0.1847,-0.0941 -0.1784,-0.1055 -0.1715,-0.1165 -0.1638,-0.1271 -0.1555,-0.1371 -0.1466,-0.1466 -0.1371,-0.1555 -0.1271,-0.1638 -0.1165,-0.1715 -0.1055,-0.1784 -0.0941,-0.1847 -0.0824,-0.1903 -0.0702,-0.1951 -0.0578,-0.199 -0.0452,-0.2024 -0.0325,-0.2047 -0.0195,-0.2064 -0.0065,-0.2072 0.0065,-0.2072 0.0195,-0.2064 0.0325,-0.2047 0.0452,-0.2024 0.0578,-0.199 0.0702,-0.1951 0.0824,-0.1903 0.0941,-0.1847 0.1055,-0.1784 0.1165,-0.1715 0.1271,-0.1638 0.1371,-0.1555 0.1466,-0.1466 0.1555,-0.1371 0.1638,-0.1271 0.1715,-0.1165 0.1784,-0.1055 0.1847,-0.0941 0.1903,-0.0824 0.1951,-0.0702 0.199,-0.0578 0.2024,-0.0452 0.2047,-0.0325 0.2064,-0.0195 0.2072,-0.007 0.2072,0.007 0.2064,0.0195 0.2048,0.0325 0.2023,0.0452 0.1991,0.0578 0.195,0.0702 0.1903,0.0824 0.1847,0.0941 0.1784,0.1055 0.1715,0.1165 0.1638,0.1271 0.1555,0.1371 0.1466,0.1466 0.1371,0.1555 0.1271,0.1638 0.1165,0.1715 0.1055,0.1784 0.0941,0.1847 0.0824,0.1903 0.0702,0.1951 0.0578,0.199 0.0453,0.2024 0.0324,0.2047 0.0195,0.2064 0.0065,0.2072 -0.0065,0.2072 -0.0195,0.2064 -0.0324,0.2047 -0.0453,0.2024 -0.0578,0.199 -0.0702,0.1951 -0.0824,0.1903 -0.0941,0.1847 -0.1055,0.1784 -0.1165,0.1715 -0.1271,0.1638 -0.1371,0.1555 -0.1466,0.1466 -0.1555,0.1371 -0.1638,0.1271 -0.1715,0.1165 -0.1784,0.1055 -0.1847,0.0941 -0.1903,0.0824 -0.195,0.0702 -0.1991,0.0578 -0.2023,0.0452 -0.2048,0.0325 -0.2064,0.0195 -0.2072,0.006 z"
     id="path2049"
     style="fill:none;fill-opacity:1;stroke:#000000;stroke-opacity:1"
     inkscape:connector-curvature="0" />
  <path
     d="m 101.72329,-188.7065 -0.2064,-0.0195 -0.2048,-0.0325 -0.2023,-0.0452 -0.1991,-0.0578 -0.195,-0.0702 -0.1903,-0.0824 -0.1847,-0.0941 -0.1784,-0.1055 -0.1715,-0.1165 -0.1638,-0.1271 -0.1555,-0.1371 -0.1466,-0.1466 -0.1371,-0.1555 -0.1271,-0.1638 -0.1165,-0.1715 -0.1055,-0.1784 -0.0941,-0.1847 -0.0824,-0.1903 -0.0702,-0.1951 -0.0578,-0.199 -0.0453,-0.2024 -0.0324,-0.2047 -0.0195,-0.2064 -0.0065,-0.2072 0.0065,-0.2072 0.0195,-0.2064 0.0324,-0.2047 0.0453,-0.2024 0.0578,-0.199 0.0702,-0.1951 0.0824,-0.1903 0.0941,-0.1847 0.1055,-0.1784 0.1165,-0.1715 0.1271,-0.1638 0.1371,-0.1555 0.1466,-0.1466 0.1555,-0.1371 0.1638,-0.1271 0.1715,-0.1165 0.1784,-0.1055 0.1847,-0.0941 0.1903,-0.0824 0.195,-0.0702 0.1991,-0.0578 0.2023,-0.0452 0.2048,-0.0325 0.2064,-0.0195 0.2072,-0.007 0.2072,0.007 0.2064,0.0195 0.2047,0.0325 0.2024,0.0452 0.199,0.0578 0.1951,0.0702 0.1903,0.0824 0.1847,0.0941 0.1784,0.1055 0.1715,0.1165 0.1638,0.1271 0.1555,0.1371 0.1466,0.1466 0.1371,0.1555 0.1271,0.1638 0.1165,0.1715 0.1055,0.1784 0.0941,0.1847 0.0824,0.1903 0.0702,0.1951 0.0578,0.199 0.0452,0.2024 0.0325,0.2047 0.0195,0.2064 0.007,0.2072 -0.007,0.2072 -0.0195,0.2064 -0.0325,0.2047 -0.0452,0.2024 -0.0578,0.199 -0.0702,0.1951 -0.0824,0.1903 -0.0941,0.1847 -0.1055,0.1784 -0.1165,0.1715 -0.1271,0.1638 -0.1371,0.1555 -0.1466,0.1466 -0.1555,0.1371 -0.1638,0.1271 -0.1715,0.1165 -0.1784,0.1055 -0.1847,0.0941 -0.1903,0.0824 -0.1951,0.0702 -0.199,0.0578 -0.2024,0.0452 -0.2047,0.0325 -0.2064,0.0195 -0.2072,0.006 z"
     id="path2047"
     style="fill:none;fill-opacity:1;stroke:#000000;stroke-opacity:1"
     inkscape:connector-curvature="0" />
  <path
     d="m 136.74248,-189.0059 -0.188,-0.0178 -0.186,-0.0294 -0.184,-0.0411 -0.181,-0.0526 -0.177,-0.0639 -0.173,-0.0748 -0.168,-0.0856 -0.162,-0.0959 -0.156,-0.1059 -0.149,-0.1155 -0.142,-0.1247 -0.133,-0.1333 -0.125,-0.1413 -0.115,-0.1489 -0.106,-0.1559 -0.096,-0.1622 -0.085,-0.168 -0.075,-0.1729 -0.064,-0.1773 -0.053,-0.181 -0.041,-0.184 -0.029,-0.1861 -0.018,-0.1876 -0.006,-0.1884 0.006,-0.1884 0.018,-0.1876 0.029,-0.1861 0.041,-0.184 0.053,-0.1809 0.064,-0.1774 0.075,-0.1729 0.085,-0.168 0.096,-0.1622 0.106,-0.1559 0.115,-0.1489 0.125,-0.1413 0.133,-0.1333 0.142,-0.1246 0.149,-0.1155 0.156,-0.106 0.162,-0.0959 0.168,-0.0856 0.173,-0.0748 0.177,-0.0639 0.181,-0.0525 0.184,-0.0412 0.186,-0.0294 0.188,-0.0178 0.188,-0.006 0.188,0.006 0.188,0.0178 0.186,0.0294 0.184,0.0412 0.181,0.0525 0.177,0.0639 0.173,0.0748 0.168,0.0856 0.162,0.0959 0.156,0.106 0.149,0.1155 0.142,0.1246 0.133,0.1333 0.125,0.1413 0.115,0.1489 0.106,0.1559 0.096,0.1622 0.085,0.168 0.075,0.1729 0.064,0.1774 0.053,0.1809 0.041,0.184 0.029,0.1861 0.018,0.1876 0.006,0.1884 -0.006,0.1884 -0.018,0.1876 -0.029,0.1861 -0.041,0.184 -0.053,0.181 -0.064,0.1773 -0.075,0.1729 -0.085,0.168 -0.096,0.1622 -0.106,0.1559 -0.115,0.1489 -0.125,0.1413 -0.133,0.1333 -0.142,0.1247 -0.149,0.1155 -0.156,0.1059 -0.162,0.0959 -0.168,0.0856 -0.173,0.0748 -0.177,0.0639 -0.181,0.0526 -0.184,0.0411 -0.186,0.0294 -0.188,0.0178 -0.188,0.006 z"
     id="path2045"
     style="fill:none;fill-opacity:1;stroke:#000000;stroke-opacity:1"
     inkscape:connector-curvature="0" />
  <path
     d="m 56.74209,-189.0059 -0.1876,-0.0178 -0.1861,-0.0294 -0.184,-0.0411 -0.1809,-0.0526 -0.1774,-0.0639 -0.1729,-0.0748 -0.168,-0.0856 -0.1622,-0.0959 -0.1559,-0.1059 -0.1489,-0.1155 -0.1413,-0.1247 -0.1333,-0.1333 -0.1246,-0.1413 -0.1155,-0.1489 -0.106,-0.1559 -0.0959,-0.1622 -0.0856,-0.168 -0.0748,-0.1729 -0.0639,-0.1773 -0.0525,-0.181 -0.0412,-0.184 -0.0294,-0.1861 -0.0178,-0.1876 -0.0059,-0.1884 0.0059,-0.1884 0.0178,-0.1876 0.0294,-0.1861 0.0412,-0.184 0.0525,-0.1809 0.0639,-0.1774 0.0748,-0.1729 0.0856,-0.168 0.0959,-0.1622 0.106,-0.1559 0.1155,-0.1489 0.1246,-0.1413 0.1333,-0.1333 0.1413,-0.1246 0.1489,-0.1155 0.1559,-0.106 0.1622,-0.0959 0.168,-0.0856 0.1729,-0.0748 0.1774,-0.0639 0.1809,-0.0525 0.184,-0.0412 0.1861,-0.0294 0.1876,-0.0178 0.1884,-0.006 0.1884,0.006 0.1876,0.0178 0.1861,0.0294 0.184,0.0412 0.181,0.0525 0.1773,0.0639 0.1729,0.0748 0.168,0.0856 0.1622,0.0959 0.1559,0.106 0.1489,0.1155 0.1413,0.1246 0.1333,0.1333 0.1247,0.1413 0.1155,0.1489 0.1059,0.1559 0.0959,0.1622 0.0856,0.168 0.0748,0.1729 0.0639,0.1774 0.0526,0.1809 0.0411,0.184 0.0294,0.1861 0.0178,0.1876 0.0059,0.1884 -0.0059,0.1884 -0.0178,0.1876 -0.0294,0.1861 -0.0411,0.184 -0.0526,0.181 -0.0639,0.1773 -0.0748,0.1729 -0.0856,0.168 -0.0959,0.1622 -0.1059,0.1559 -0.1155,0.1489 -0.1247,0.1413 -0.1333,0.1333 -0.1413,0.1247 -0.1489,0.1155 -0.1559,0.1059 -0.1622,0.0959 -0.168,0.0856 -0.1729,0.0748 -0.1773,0.0639 -0.181,0.0526 -0.184,0.0411 -0.1861,0.0294 -0.1876,0.0178 -0.1884,0.006 z"
     id="path2043"
     style="fill:none;fill-opacity:1;stroke:#000000;stroke-opacity:1"
     inkscape:connector-curvature="0" />
  <path
     d="M 61.73049,-174.5 V -188 h 3.2 v 3.75 h 5 v 6 h -5 v 3.75 z"
     id="path2041"
     style="fill:none;fill-opacity:1;stroke:#000000;stroke-opacity:1"
     inkscape:connector-curvature="0" />
  <path
     d="m 128.73048,-174.5 v -3.75 h -4.8 v -6 h 4.8 V -188 h 3.2 v 13.5 z"
     id="path2039"
     style="fill:none;fill-opacity:1;stroke:#000000;stroke-opacity:1"
     inkscape:connector-curvature="0" />
  <path
     d="m 111.74249,-179.0059 -0.188,-0.0178 -0.186,-0.0294 -0.184,-0.0412 -0.181,-0.0525 -0.177,-0.0639 -0.173,-0.0748 -0.168,-0.0856 -0.162,-0.0959 -0.156,-0.106 -0.149,-0.1155 -0.142,-0.1246 -0.133,-0.1333 -0.125,-0.1413 -0.115,-0.1489 -0.106,-0.1559 -0.096,-0.1622 -0.085,-0.168 -0.075,-0.1729 -0.064,-0.1774 -0.053,-0.1809 -0.041,-0.184 -0.029,-0.1861 -0.018,-0.1876 -0.006,-0.1884 0.006,-0.1884 0.018,-0.1876 0.029,-0.1861 0.041,-0.184 0.053,-0.181 0.064,-0.1773 0.075,-0.1729 0.085,-0.168 0.096,-0.1622 0.106,-0.1559 0.115,-0.1489 0.125,-0.1413 0.133,-0.1333 0.142,-0.1247 0.149,-0.1155 0.156,-0.1059 0.162,-0.0959 0.168,-0.0856 0.173,-0.0748 0.177,-0.0639 0.181,-0.0526 0.184,-0.0411 0.186,-0.0294 0.188,-0.0178 0.188,-0.006 0.188,0.006 0.188,0.0178 0.186,0.0294 0.184,0.0411 0.181,0.0526 0.177,0.0639 0.173,0.0748 0.168,0.0856 0.162,0.0959 0.156,0.1059 0.149,0.1155 0.142,0.1247 0.133,0.1333 0.125,0.1413 0.115,0.1489 0.106,0.1559 0.096,0.1622 0.085,0.168 0.075,0.1729 0.064,0.1773 0.053,0.181 0.041,0.184 0.029,0.1861 0.018,0.1876 0.006,0.1884 -0.006,0.1884 -0.018,0.1876 -0.029,0.1861 -0.041,0.184 -0.053,0.1809 -0.064,0.1774 -0.075,0.1729 -0.085,0.168 -0.096,0.1622 -0.106,0.1559 -0.115,0.1489 -0.125,0.1413 -0.133,0.1333 -0.142,0.1246 -0.149,0.1155 -0.156,0.106 -0.162,0.0959 -0.168,0.0856 -0.173,0.0748 -0.177,0.0639 -0.181,0.0525 -0.184,0.0412 -0.186,0.0294 -0.188,0.0178 -0.188,0.006 z"
     id="path2037"
     style="fill:none;fill-opacity:1;stroke:#000000;stroke-opacity:1"
     inkscape:connector-curvature="0" />
  <path
     d="m 81.74209,-179.0059 -0.1876,-0.0178 -0.1861,-0.0294 -0.184,-0.0412 -0.1809,-0.0525 -0.1774,-0.0639 -0.1729,-0.0748 -0.168,-0.0856 -0.1622,-0.0959 -0.1559,-0.106 -0.1489,-0.1155 -0.1413,-0.1246 -0.1333,-0.1333 -0.1246,-0.1413 -0.1155,-0.1489 -0.106,-0.1559 -0.0959,-0.1622 -0.0856,-0.168 -0.0748,-0.1729 -0.0639,-0.1774 -0.0525,-0.1809 -0.0412,-0.184 -0.0294,-0.1861 -0.0178,-0.1876 -0.0059,-0.1884 0.0059,-0.1884 0.0178,-0.1876 0.0294,-0.1861 0.0412,-0.184 0.0525,-0.181 0.0639,-0.1773 0.0748,-0.1729 0.0856,-0.168 0.0959,-0.1622 0.106,-0.1559 0.1155,-0.1489 0.1246,-0.1413 0.1333,-0.1333 0.1413,-0.1247 0.1489,-0.1155 0.1559,-0.1059 0.1622,-0.0959 0.168,-0.0856 0.1729,-0.0748 0.1774,-0.0639 0.1809,-0.0526 0.184,-0.0411 0.1861,-0.0294 0.1876,-0.0178 0.1884,-0.006 0.1884,0.006 0.1876,0.0178 0.1861,0.0294 0.184,0.0411 0.181,0.0526 0.1773,0.0639 0.1729,0.0748 0.168,0.0856 0.1622,0.0959 0.1559,0.1059 0.1489,0.1155 0.1413,0.1247 0.1333,0.1333 0.1247,0.1413 0.1155,0.1489 0.1059,0.1559 0.0959,0.1622 0.0856,0.168 0.0748,0.1729 0.0639,0.1773 0.0526,0.181 0.0411,0.184 0.0294,0.1861 0.0178,0.1876 0.0059,0.1884 -0.0059,0.1884 -0.0178,0.1876 -0.0294,0.1861 -0.0411,0.184 -0.0526,0.1809 -0.0639,0.1774 -0.0748,0.1729 -0.0856,0.168 -0.0959,0.1622 -0.1059,0.1559 -0.1155,0.1489 -0.1247,0.1413 -0.1333,0.1333 -0.1413,0.1246 -0.1489,0.1155 -0.1559,0.106 -0.1622,0.0959 -0.168,0.0856 -0.1729,0.0748 -0.1773,0.0639 -0.181,0.0525 -0.184,0.0412 -0.1861,0.0294 -0.1876,0.0178 -0.1884,0.006 z"
     id="path2035"
     style="fill:none;fill-opacity:1;stroke:#000000;stroke-opacity:1"
     inkscape:connector-curvature="0" />
  <path
     d="m 158.62732,-188.57325 h -11 v 22 h 27 v -32 h -16 z"
     id="path2033"
     style="fill:none;fill-opacity:1;stroke:#000000;stroke-opacity:1"
     inkscape:connector-curvature="0" />
  <path
     d="m 167.81572,-175.56735 0.1876,0.0178 0.1861,0.0294 0.184,0.0411 0.1809,0.0526 0.17737,0.0639 0.17296,0.0748 0.16792,0.0856 0.16222,0.0959 0.15588,0.1059 0.14891,0.1155 0.14137,0.1247 0.13327,0.1333 0.12464,0.1413 0.11551,0.1489 0.10592,0.1559 0.0959,0.1622 0.0856,0.168 0.0748,0.1729 0.0638,0.1773 0.0526,0.181 0.0411,0.184 0.0295,0.1861 0.0178,0.1876 0.006,0.1884 -0.006,0.1884 -0.0178,0.1876 -0.0295,0.1861 -0.0411,0.184 -0.0526,0.1809 -0.0638,0.1774 -0.0748,0.1729 -0.0856,0.168 -0.0959,0.1622 -0.10592,0.1559 -0.11551,0.1489 -0.12464,0.1413 -0.13327,0.1333 -0.14137,0.1246 -0.14891,0.1155 -0.15588,0.106 -0.16222,0.0959 -0.16792,0.0856 -0.17296,0.0748 -0.17737,0.0639 -0.1809,0.0525 -0.184,0.0412 -0.1861,0.0294 -0.1876,0.0178 -0.1884,0.006 -0.1884,-0.006 -0.1876,-0.0178 -0.1861,-0.0294 -0.184,-0.0412 -0.181,-0.0525 -0.1773,-0.0639 -0.1729,-0.0748 -0.168,-0.0856 -0.1622,-0.0959 -0.1559,-0.106 -0.1489,-0.1155 -0.1413,-0.1246 -0.1333,-0.1333 -0.1247,-0.1413 -0.1155,-0.1489 -0.1059,-0.1559 -0.0959,-0.1622 -0.0856,-0.168 -0.0748,-0.1729 -0.0639,-0.1774 -0.0526,-0.1809 -0.0411,-0.184 -0.0294,-0.1861 -0.0178,-0.1876 -0.006,-0.1884 0.006,-0.1884 0.0178,-0.1876 0.0294,-0.1861 0.0411,-0.184 0.0526,-0.181 0.0639,-0.1773 0.0748,-0.1729 0.0856,-0.168 0.0959,-0.1622 0.1059,-0.1559 0.1155,-0.1489 0.1247,-0.1413 0.1333,-0.1333 0.1413,-0.1247 0.1489,-0.1155 0.1559,-0.1059 0.1622,-0.0959 0.168,-0.0856 0.1729,-0.0748 0.1773,-0.0639 0.181,-0.0526 0.184,-0.0411 0.1861,-0.0294 0.1876,-0.0178 0.1884,-0.006 z"
     id="path2031"
     style="fill:none;fill-opacity:1;stroke:#000000;stroke-opacity:1"
     inkscape:connector-curvature="0" />
  <path
     d="m 162.81572,-187.06735 0.1876,0.0178 0.1861,0.0294 0.184,0.0411 0.1809,0.0526 0.1774,0.0639 0.1729,0.0748 0.168,0.0856 0.1622,0.0959 0.1559,0.1059 0.1489,0.1155 0.1413,0.1247 0.1333,0.1333 0.1246,0.1413 0.1155,0.1489 0.106,0.1559 0.0959,0.1622 0.0856,0.168 0.0748,0.1729 0.0639,0.1773 0.0525,0.181 0.0412,0.184 0.0294,0.1861 0.0178,0.1876 0.006,0.1884 -0.006,0.1884 -0.0178,0.1876 -0.0294,0.1861 -0.0412,0.184 -0.0525,0.1809 -0.0639,0.1774 -0.0748,0.1729 -0.0856,0.168 -0.0959,0.1622 -0.106,0.1559 -0.1155,0.1489 -0.1246,0.1413 -0.1333,0.1333 -0.1413,0.1246 -0.1489,0.1155 -0.1559,0.106 -0.1622,0.0959 -0.168,0.0856 -0.1729,0.0748 -0.1774,0.0639 -0.1809,0.0525 -0.184,0.0412 -0.1861,0.0294 -0.1876,0.0178 -0.1884,0.006 -0.1884,-0.006 -0.1876,-0.0178 -0.1861,-0.0294 -0.184,-0.0412 -0.181,-0.0525 -0.1773,-0.0639 -0.1729,-0.0748 -0.168,-0.0856 -0.1622,-0.0959 -0.1559,-0.106 -0.1489,-0.1155 -0.1413,-0.1246 -0.1333,-0.1333 -0.1247,-0.1413 -0.1155,-0.1489 -0.1059,-0.1559 -0.0959,-0.1622 -0.0856,-0.168 -0.0748,-0.1729 -0.0639,-0.1774 -0.0526,-0.1809 -0.0411,-0.184 -0.0294,-0.1861 -0.0178,-0.1876 -0.006,-0.1884 0.006,-0.1884 0.0178,-0.1876 0.0294,-0.1861 0.0411,-0.184 0.0526,-0.181 0.0639,-0.1773 0.0748,-0.1729 0.0856,-0.168 0.0959,-0.1622 0.1059,-0.1559 0.1155,-0.1489 0.1247,-0.1413 0.1333,-0.1333 0.1413,-0.1247 0.1489,-0.1155 0.1559,-0.1059 0.1622,-0.0959 0.168,-0.0856 0.1729,-0.0748 0.1773,-0.0639 0.181,-0.0526 0.184,-0.0411 0.1861,-0.0294 0.1876,-0.0178 0.1884,-0.006 z"
     id="path2029"
     style="fill:none;fill-opacity:1;stroke:#000000;stroke-opacity:1"
     inkscape:connector-curvature="0" />
  <path
     d="m 53.280494,-176.70833 -40.70319,70.50003 h 81.40639 z"
     id="path2027"
     style="fill:none;fill-opacity:1;stroke:#000000;stroke-opacity:1"
     inkscape:connector-curvature="0" />
  <path
     d="m 68.092094,-136.7142 -0.1876,-0.0178 -0.1861,-0.0294 -0.184,-0.0411 -0.181,-0.0526 -0.1773,-0.0639 -0.1729,-0.0748 -0.168,-0.0856 -0.1622,-0.0959 -0.1559,-0.10591 -0.1489,-0.1155 -0.1413,-0.1247 -0.1333,-0.1333 -0.1247,-0.1413 -0.1155,-0.1489 -0.1059,-0.1559 -0.0959,-0.1622 -0.0856,-0.168 -0.0748,-0.1729 -0.0639,-0.1773 -0.0526,-0.18101 -0.0411,-0.184 -0.0294,-0.1861 -0.0178,-0.1876 -0.0059,-0.1884 0.0059,-0.1884 0.0178,-0.1876 0.0294,-0.1861 0.0411,-0.184 0.0526,-0.1809 0.0639,-0.1774 0.0748,-0.17291 0.0856,-0.168 0.0959,-0.1622 0.1059,-0.1559 0.1155,-0.1489 0.1247,-0.1413 0.1333,-0.1333 0.1413,-0.1246 0.1489,-0.1155 0.1559,-0.106 0.1622,-0.0959 0.168,-0.0856 0.1729,-0.0748 0.1773,-0.0639 0.181,-0.0525 0.184,-0.0412 0.1861,-0.0294 0.1876,-0.0178 0.1884,-0.006 0.1884,0.006 0.1876,0.0178 0.1861,0.0294 0.184,0.0412 0.1809,0.0525 0.1774,0.0639 0.1729,0.0748 0.168,0.0856 0.1622,0.0959 0.1559,0.106 0.1489,0.1155 0.1413,0.1246 0.1333,0.1333 0.1246,0.1413 0.1155,0.1489 0.106,0.1559 0.0959,0.1622 0.0856,0.168 0.0748,0.17291 0.0639,0.1774 0.0525,0.1809 0.0412,0.184 0.0294,0.1861 0.0178,0.1876 0.0059,0.1884 -0.0059,0.1884 -0.0178,0.1876 -0.0294,0.1861 -0.0412,0.184 -0.0525,0.18101 -0.0639,0.1773 -0.0748,0.1729 -0.0856,0.168 -0.0959,0.1622 -0.106,0.1559 -0.1155,0.1489 -0.1246,0.1413 -0.1333,0.1333 -0.1413,0.1247 -0.1489,0.1155 -0.1559,0.10591 -0.1622,0.0959 -0.168,0.0856 -0.1729,0.0748 -0.1774,0.0639 -0.1809,0.0526 -0.184,0.0411 -0.1861,0.0294 -0.1876,0.0178 -0.1884,0.006 z"
     id="path2025"
     style="fill:none;fill-opacity:1;stroke:#000000;stroke-opacity:1"
     inkscape:connector-curvature="0" />
  <path
     d="m 38.092094,-136.7142 -0.1876,-0.0178 -0.1861,-0.0294 -0.184,-0.0411 -0.1809,-0.0526 -0.1774,-0.0639 -0.1729,-0.0748 -0.168,-0.0856 -0.1622,-0.0959 -0.1559,-0.10591 -0.1489,-0.1155 -0.1413,-0.1247 -0.1333,-0.1333 -0.1246,-0.1413 -0.1155,-0.1489 -0.106,-0.1559 -0.0959,-0.1622 -0.0856,-0.168 -0.0748,-0.1729 -0.0639,-0.1773 -0.0525,-0.18101 -0.0412,-0.184 -0.0294,-0.1861 -0.0178,-0.1876 -0.0059,-0.1884 0.0059,-0.1884 0.0178,-0.1876 0.0294,-0.1861 0.0412,-0.184 0.0525,-0.1809 0.0639,-0.1774 0.0748,-0.17291 0.0856,-0.168 0.0959,-0.1622 0.106,-0.1559 0.1155,-0.1489 0.1246,-0.1413 0.1333,-0.1333 0.1413,-0.1246 0.1489,-0.1155 0.1559,-0.106 0.1622,-0.0959 0.168,-0.0856 0.1729,-0.0748 0.1774,-0.0639 0.1809,-0.0525 0.184,-0.0412 0.1861,-0.0294 0.1876,-0.0178 0.1884,-0.006 0.1884,0.006 0.1876,0.0178 0.1861,0.0294 0.184,0.0412 0.181,0.0525 0.1773,0.0639 0.1729,0.0748 0.168,0.0856 0.1622,0.0959 0.1559,0.106 0.1489,0.1155 0.1413,0.1246 0.1333,0.1333 0.1247,0.1413 0.1155,0.1489 0.1059,0.1559 0.0959,0.1622 0.0856,0.168 0.0748,0.17291 0.0639,0.1774 0.0526,0.1809 0.0411,0.184 0.0294,0.1861 0.0178,0.1876 0.0059,0.1884 -0.0059,0.1884 -0.0178,0.1876 -0.0294,0.1861 -0.0411,0.184 -0.0526,0.18101 -0.0639,0.1773 -0.0748,0.1729 -0.0856,0.168 -0.0959,0.1622 -0.1059,0.1559 -0.1155,0.1489 -0.1247,0.1413 -0.1333,0.1333 -0.1413,0.1247 -0.1489,0.1155 -0.1559,0.10591 -0.1622,0.0959 -0.168,0.0856 -0.1729,0.0748 -0.1773,0.0639 -0.181,0.0526 -0.184,0.0411 -0.1861,0.0294 -0.1876,0.0178 -0.1884,0.006 z"
     id="path2023"
     style="fill:none;fill-opacity:1;stroke:#000000;stroke-opacity:1"
     inkscape:connector-curvature="0" />
  <path
     d="m 58.092094,-116.7143 -0.1876,-0.018 -0.1861,-0.029 -0.184,-0.041 -0.181,-0.053 -0.1773,-0.064 -0.1729,-0.075 -0.168,-0.085 -0.1622,-0.096 -0.1559,-0.106 -0.1489,-0.115 -0.1413,-0.125 -0.1333,-0.133 -0.1247,-0.142 -0.1155,-0.149 -0.1059,-0.156 -0.0959,-0.162 -0.0856,-0.168 -0.0748,-0.173 -0.0639,-0.177 -0.0526,-0.181 -0.0411,-0.184 -0.0294,-0.186 -0.0178,-0.188 -0.0059,-0.188 0.0059,-0.188 0.0178,-0.188 0.0294,-0.186 0.0411,-0.184 0.0526,-0.181 0.0639,-0.177 0.0748,-0.173 0.0856,-0.168 0.0959,-0.162 0.1059,-0.156 0.1155,-0.149 0.1247,-0.142 0.1333,-0.133 0.1413,-0.125 0.1489,-0.115 0.1559,-0.106 0.1622,-0.096 0.168,-0.085 0.1729,-0.075 0.1773,-0.064 0.181,-0.053 0.184,-0.041 0.1861,-0.029 0.1876,-0.018 0.1884,-0.006 0.1884,0.006 0.1876,0.018 0.1861,0.029 0.184,0.041 0.1809,0.053 0.1774,0.064 0.1729,0.075 0.168,0.085 0.1622,0.096 0.1559,0.106 0.1489,0.115 0.1413,0.125 0.1333,0.133 0.1246,0.142 0.1155,0.149 0.106,0.156 0.0959,0.162 0.0856,0.168 0.0748,0.173 0.0639,0.177 0.0525,0.181 0.0412,0.184 0.0294,0.186 0.0178,0.188 0.0059,0.188 -0.0059,0.188 -0.0178,0.188 -0.0294,0.186 -0.0412,0.184 -0.0525,0.181 -0.0639,0.177 -0.0748,0.173 -0.0856,0.168 -0.0959,0.162 -0.106,0.156 -0.1155,0.149 -0.1246,0.142 -0.1333,0.133 -0.1413,0.125 -0.1489,0.115 -0.1559,0.106 -0.1622,0.096 -0.168,0.085 -0.1729,0.075 -0.1774,0.064 -0.1809,0.053 -0.184,0.041 -0.1861,0.029 -0.1876,0.018 -0.1884,0.006 z"
     id="path2021"
     style="fill:none;fill-opacity:1;stroke:#000000;stroke-opacity:1"
     inkscape:connector-curvature="0" />
  <path
     d="m 48.092094,-116.7143 -0.1876,-0.018 -0.1861,-0.029 -0.184,-0.041 -0.1809,-0.053 -0.1774,-0.064 -0.1729,-0.075 -0.168,-0.085 -0.1622,-0.096 -0.1559,-0.106 -0.1489,-0.115 -0.1413,-0.125 -0.1333,-0.133 -0.1246,-0.142 -0.1155,-0.149 -0.106,-0.156 -0.0959,-0.162 -0.0856,-0.168 -0.0748,-0.173 -0.0639,-0.177 -0.0525,-0.181 -0.0412,-0.184 -0.0294,-0.186 -0.0178,-0.188 -0.0059,-0.188 0.0059,-0.188 0.0178,-0.188 0.0294,-0.186 0.0412,-0.184 0.0525,-0.181 0.0639,-0.177 0.0748,-0.173 0.0856,-0.168 0.0959,-0.162 0.106,-0.156 0.1155,-0.149 0.1246,-0.142 0.1333,-0.133 0.1413,-0.125 0.1489,-0.115 0.1559,-0.106 0.1622,-0.096 0.168,-0.085 0.1729,-0.075 0.1774,-0.064 0.1809,-0.053 0.184,-0.041 0.1861,-0.029 0.1876,-0.018 0.1884,-0.006 0.1884,0.006 0.1876,0.018 0.1861,0.029 0.184,0.041 0.181,0.053 0.1773,0.064 0.1729,0.075 0.168,0.085 0.1622,0.096 0.1559,0.106 0.1489,0.115 0.1413,0.125 0.1333,0.133 0.1247,0.142 0.1155,0.149 0.1059,0.156 0.0959,0.162 0.0856,0.168 0.0748,0.173 0.0639,0.177 0.0526,0.181 0.0411,0.184 0.0294,0.186 0.0178,0.188 0.0059,0.188 -0.0059,0.188 -0.0178,0.188 -0.0294,0.186 -0.0411,0.184 -0.0526,0.181 -0.0639,0.177 -0.0748,0.173 -0.0856,0.168 -0.0959,0.162 -0.1059,0.156 -0.1155,0.149 -0.1247,0.142 -0.1333,0.133 -0.1413,0.125 -0.1489,0.115 -0.1559,0.106 -0.1622,0.096 -0.168,0.085 -0.1729,0.075 -0.1773,0.064 -0.181,0.053 -0.184,0.041 -0.1861,0.029 -0.1876,0.018 -0.1884,0.006 z"
     id="path2019"
     style="fill:none;fill-opacity:1;stroke:#000000;stroke-opacity:1"
     inkscape:connector-curvature="0" />
  <path
     d="m 23.571694,-201.62773 0.0385,0.407 0.0638,0.403 0.0891,0.398 0.1139,0.393 0.1384,0.384 0.1621,0.375 0.1854,0.363 0.2079,0.352 0.2295,0.338 0.2503,0.322 0.008,0.01 v 42.847 l 0.01,0.314 0.0295,0.313 0.0492,0.31 0.0685,0.306 0.0876,0.302 0.1064,0.296 0.1248,0.288 0.1426,0.28 0.1599,0.27 0.1765,0.26 0.1925,0.248 0.2077,0.236 0.2222,0.222 0.2356,0.208 0.2482,0.192 0.2598,0.177 0.2703,0.16 0.2799,0.142 0.2883,0.125 0.2955,0.106 0.3016,0.088 0.306601,0.068 0.3102,0.05 0.3127,0.029 0.314,0.01 0.3139,-0.01 0.3128,-0.029 0.3102,-0.05 0.3065,-0.068 0.3017,-0.088 0.2955,-0.106 0.2883,-0.125 0.2799,-0.142 0.2703,-0.16 0.2598,-0.177 0.2482,-0.192 0.2356,-0.208 0.2221,-0.222 0.2078,-0.236 0.1925,-0.248 0.1765,-0.26 0.1599,-0.27 0.1426,-0.28 0.1248,-0.288 0.1064,-0.296 0.0876,-0.302 0.0685,-0.306 0.0492,-0.31 0.0295,-0.313 0.01,-0.314 v -42.847 l 0.008,-0.01 0.2503,-0.322 0.2295,-0.338 0.2079,-0.352 0.1854,-0.363 0.1621,-0.375 0.1384,-0.384 0.1139,-0.393 0.0891,-0.398 0.0638,-0.403 0.0385,-0.407 0.0128,-0.408 -0.0128,-0.408 -0.0385,-0.407 -0.0638,-0.403 -0.0891,-0.398 -0.1139,-0.393 -0.1384,-0.384 -0.1621,-0.375 -0.1854,-0.363 -0.2079,-0.352 -0.2295,-0.338 -0.2503,-0.322 -0.27,-0.307 -0.2887,-0.288 -0.3064,-0.27 -0.3226,-0.251 -0.3377,-0.229 -0.3515,-0.208 -0.3638,-0.185 -0.3748,-0.163 -0.3842,-0.138 -0.3921,-0.114 -0.3985,-0.089 -0.4033,-0.064 -0.4066,-0.038 -0.4081,-0.013 -0.4081,0.013 -0.4066,0.038 -0.403301,0.064 -0.3985,0.089 -0.3921,0.114 -0.3842,0.138 -0.3748,0.163 -0.3638,0.185 -0.3515,0.208 -0.3377,0.229 -0.3227,0.251 -0.3063,0.27 -0.2887,0.288 -0.27,0.307 -0.2503,0.322 -0.2295,0.338 -0.2079,0.352 -0.1854,0.363 -0.1621,0.375 -0.1384,0.384 -0.1139,0.393 -0.0891,0.398 -0.0638,0.403 -0.0385,0.407 -0.0128,0.408 z"
     id="path2017"
     style="fill:none;fill-opacity:1;stroke:#000000;stroke-opacity:1"
     inkscape:connector-curvature="0" />
  <path
     d="m 26.565794,-202.25573 0.0207,-0.219 0.0344,-0.217 0.048,-0.214 0.0613,-0.212 0.0745,-0.206 0.0873,-0.202 0.0998,-0.196 0.1119,-0.189 0.1236,-0.182 0.1348,-0.174 0.1454,-0.165 0.1555,-0.155 0.1649,-0.146 0.1737,-0.135 0.1819,-0.123 0.1893,-0.112 0.1959,-0.1 0.2018,-0.087 0.2068,-0.075 0.211201,-0.061 0.2146,-0.048 0.2171,-0.034 0.2189,-0.021 0.2198,-0.007 0.2198,0.007 0.2189,0.021 0.2171,0.034 0.2146,0.048 0.2112,0.061 0.2068,0.075 0.2018,0.087 0.1959,0.1 0.1893,0.112 0.1818,0.123 0.1738,0.135 0.1649,0.146 0.1555,0.155 0.1454,0.165 0.1348,0.174 0.1235,0.182 0.112,0.189 0.0998,0.196 0.0873,0.202 0.0745,0.206 0.0613,0.212 0.048,0.214 0.0344,0.217 0.0207,0.219 0.007,0.22 -0.007,0.22 -0.0207,0.219 -0.0344,0.217 -0.048,0.214 -0.0613,0.212 -0.0745,0.206 -0.0873,0.202 -0.0998,0.196 -0.112,0.189 -0.1235,0.182 -0.1348,0.174 -0.1454,0.165 -0.1555,0.155 -0.1649,0.146 -0.1738,0.135 -0.1818,0.123 -0.1893,0.112 -0.1959,0.1 -0.2018,0.087 -0.2068,0.075 -0.2112,0.061 -0.2146,0.048 -0.2171,0.034 -0.2189,0.021 -0.2198,0.007 -0.2198,-0.007 -0.2189,-0.021 -0.2171,-0.034 -0.2146,-0.048 -0.211201,-0.061 -0.2068,-0.075 -0.2018,-0.087 -0.1959,-0.1 -0.1893,-0.112 -0.1819,-0.123 -0.1737,-0.135 -0.1649,-0.146 -0.1555,-0.155 -0.1454,-0.165 -0.1348,-0.174 -0.1236,-0.182 -0.1119,-0.189 -0.0998,-0.196 -0.0873,-0.202 -0.0745,-0.206 -0.0613,-0.212 -0.048,-0.214 -0.0344,-0.217 -0.0207,-0.219 -0.007,-0.22 z"
     id="path2015"
     style="fill:none;fill-opacity:1;stroke:#000000;stroke-opacity:1"
     inkscape:connector-curvature="0" />
  <path
     d="m 26.596194,-188.53573 0.0247,0.156 0.048,0.214 0.0613,0.212 0.0745,0.206 0.0873,0.202 0.0998,0.196 0.112,0.189 0.1235,0.182 0.1348,0.174 0.1454,0.165 0.1555,0.155 0.1649,0.146 0.1738,0.135 0.1818,0.123 0.1893,0.112 0.1959,0.1 0.2018,0.087 0.2068,0.075 0.211201,0.061 0.2146,0.048 0.2171,0.034 0.2189,0.021 0.2198,0.007 0.2198,-0.007 0.2189,-0.021 0.2171,-0.034 0.2146,-0.048 0.2112,-0.061 0.2068,-0.075 0.2018,-0.087 0.1959,-0.1 0.1893,-0.112 0.1818,-0.123 0.1738,-0.135 0.1649,-0.146 0.1555,-0.155 0.1454,-0.165 0.1348,-0.174 0.1235,-0.182 0.112,-0.189 0.0998,-0.196 0.0873,-0.202 0.0745,-0.206 0.0613,-0.212 0.048,-0.214 0.0247,-0.156 h 0.0373 v -13 h -0.0373 l 0.01,-0.061 0.0207,-0.219 0.007,-0.22 -0.007,-0.22 -0.0207,-0.219 -0.0344,-0.217 -0.048,-0.214 -0.0613,-0.212 -0.0745,-0.206 -0.0873,-0.202 -0.0998,-0.196 -0.112,-0.189 -0.1235,-0.182 -0.1348,-0.174 -0.1454,-0.165 -0.1555,-0.155 -0.1649,-0.146 -0.1738,-0.135 -0.1818,-0.123 -0.1893,-0.112 -0.1959,-0.1 -0.2018,-0.087 -0.2068,-0.075 -0.2112,-0.061 -0.2146,-0.048 -0.2171,-0.034 -0.2189,-0.021 -0.2198,-0.007 -0.2198,0.007 -0.2189,0.021 -0.2171,0.034 -0.2146,0.048 -0.211201,0.061 -0.2068,0.075 -0.2018,0.087 -0.1959,0.1 -0.1893,0.112 -0.1818,0.123 -0.1738,0.135 -0.1649,0.146 -0.1555,0.155 -0.1454,0.165 -0.1348,0.174 -0.1235,0.182 -0.112,0.189 -0.0998,0.196 -0.0873,0.202 -0.0745,0.206 -0.0613,0.212 -0.048,0.214 -0.0344,0.217 -0.0207,0.219 -0.007,0.22 0.007,0.22 0.0207,0.219 0.01,0.061 h -0.0373 v 13 z"
     id="path2013"
     style="fill:none;fill-opacity:1;stroke:#000000;stroke-opacity:1"
     inkscape:connector-curvature="0" />
  <path
     d="M 124.17889,-129.98066 H 113.1789 v 22 h 26.99999 v -32 h -16 z"
     id="path2011"
     style="fill:none;fill-opacity:1;stroke:#000000;stroke-opacity:1"
     inkscape:connector-curvature="0" />
  <path
     d="m 133.36689,-116.97466 0.188,0.018 0.186,0.029 0.184,0.041 0.181,0.053 0.177,0.064 0.173,0.075 0.168,0.085 0.162,0.096 0.156,0.106 0.149,0.115 0.142,0.125 0.133,0.133 0.125,0.142 0.115,0.149 0.106,0.156 0.096,0.162 0.085,0.168 0.075,0.173 0.064,0.177 0.053,0.181 0.041,0.184 0.029,0.186 0.018,0.188 0.006,0.188 -0.006,0.188 -0.018,0.188 -0.029,0.186 -0.041,0.184 -0.053,0.181 -0.064,0.177 -0.075,0.173 -0.085,0.168 -0.096,0.162 -0.106,0.156 -0.115,0.149 -0.125,0.142 -0.133,0.133 -0.142,0.125 -0.149,0.115 -0.156,0.106 -0.162,0.096 -0.168,0.085 -0.173,0.075 -0.177,0.064 -0.181,0.053 -0.184,0.041 -0.186,0.029 -0.188,0.018 -0.188,0.006 -0.188,-0.006 -0.188,-0.018 -0.186,-0.029 -0.184,-0.041 -0.181,-0.053 -0.177,-0.064 -0.173,-0.075 -0.168,-0.085 -0.162,-0.096 -0.156,-0.106 -0.149,-0.115 -0.142,-0.125 -0.133,-0.133 -0.125,-0.142 -0.115,-0.149 -0.106,-0.156 -0.096,-0.162 -0.085,-0.168 -0.075,-0.173 -0.064,-0.177 -0.053,-0.181 -0.041,-0.184 -0.029,-0.186 -0.018,-0.188 -0.006,-0.188 0.006,-0.188 0.018,-0.188 0.029,-0.186 0.041,-0.184 0.053,-0.181 0.064,-0.177 0.075,-0.173 0.085,-0.168 0.096,-0.162 0.106,-0.156 0.115,-0.149 0.125,-0.142 0.133,-0.133 0.142,-0.125 0.149,-0.115 0.156,-0.106 0.162,-0.096 0.168,-0.085 0.173,-0.075 0.177,-0.064 0.181,-0.053 0.184,-0.041 0.186,-0.029 0.188,-0.018 0.188,-0.006 z"
     id="path2009"
     style="fill:none;fill-opacity:1;stroke:#000000;stroke-opacity:1"
     inkscape:connector-curvature="0" />
  <path
     d="m 128.36689,-128.47466 0.188,0.018 0.186,0.029 0.184,0.041 0.181,0.053 0.177,0.064 0.173,0.075 0.168,0.085 0.162,0.096 0.156,0.106 0.149,0.115 0.142,0.125 0.133,0.133 0.125,0.142 0.115,0.149 0.106,0.156 0.096,0.162 0.085,0.168 0.075,0.173 0.064,0.177 0.053,0.181 0.041,0.184 0.029,0.186 0.018,0.188 0.006,0.188 -0.006,0.188 -0.018,0.188 -0.029,0.186 -0.041,0.184 -0.053,0.181 -0.064,0.177 -0.075,0.173 -0.085,0.168 -0.096,0.162 -0.106,0.156 -0.115,0.149 -0.125,0.142 -0.133,0.133 -0.142,0.125 -0.149,0.115 -0.156,0.106 -0.162,0.096 -0.168,0.085 -0.173,0.075 -0.177,0.064 -0.181,0.053 -0.184,0.041 -0.186,0.029 -0.188,0.018 -0.188,0.006 -0.188,-0.006 -0.188,-0.018 -0.186,-0.029 -0.184,-0.041 -0.181,-0.053 -0.177,-0.064 -0.173,-0.075 -0.168,-0.085 -0.162,-0.096 -0.156,-0.106 -0.149,-0.115 -0.142,-0.125 -0.133,-0.133 -0.125,-0.142 -0.115,-0.149 -0.106,-0.156 -0.096,-0.162 -0.085,-0.168 -0.075,-0.173 -0.064,-0.177 -0.053,-0.181 -0.041,-0.184 -0.029,-0.186 -0.018,-0.188 -0.006,-0.188 0.006,-0.188 0.018,-0.188 0.029,-0.186 0.041,-0.184 0.053,-0.181 0.064,-0.177 0.075,-0.173 0.085,-0.168 0.096,-0.162 0.106,-0.156 0.115,-0.149 0.125,-0.142 0.133,-0.133 0.142,-0.125 0.149,-0.115 0.156,-0.106 0.162,-0.096 0.168,-0.085 0.173,-0.075 0.177,-0.064 0.181,-0.053 0.184,-0.041 0.186,-0.029 0.188,-0.018 0.188,-0.006 z"
     id="path2007"
     style="fill:none;fill-opacity:1;stroke:#000000;stroke-opacity:1"
     inkscape:connector-curvature="0" />
  <path
     d="m 7.5135595,-201.62773 0.038,0.407 0.064,0.403 0.089,0.398 0.114,0.393 0.138,0.384 0.1630003,0.375 0.185,0.363 0.208,0.352 0.229,0.338 0.251,0.322 0.008,0.01 v 42.847 l 0.01,0.314 0.029,0.313 0.05,0.31 0.068,0.306 0.088,0.302 0.106,0.296 0.125,0.288 0.142,0.28 0.16,0.27 0.177,0.26 0.1920002,0.248 0.208,0.236 0.222,0.222 0.236,0.208 0.247999,0.192 0.26,0.177 0.27,0.16 0.28,0.142 0.288,0.125 0.296,0.106 0.302,0.088 0.306,0.068 0.31,0.05 0.313,0.029 0.314,0.01 0.314,-0.01 0.313,-0.029 0.31,-0.05 0.306,-0.068 0.302,-0.088 0.296,-0.106 0.288,-0.125 0.28,-0.142 0.27,-0.16 0.26,-0.177 0.248,-0.192 0.236,-0.208 0.222001,-0.222 0.208,-0.236 0.192,-0.248 0.177,-0.26 0.16,-0.27 0.142,-0.28 0.125,-0.288 0.106,-0.296 0.088,-0.302 0.068,-0.306 0.05,-0.31 0.029,-0.313 0.01,-0.314 v -42.847 l 0.008,-0.01 0.2503,-0.322 0.2295,-0.338 0.2079,-0.352 0.1854,-0.363 0.1621,-0.375 0.1384,-0.384 0.1139,-0.393 0.0891,-0.398 0.0638,-0.403 0.0385,-0.407 0.0128,-0.408 -0.0128,-0.408 -0.0385,-0.407 -0.0638,-0.403 -0.0891,-0.398 -0.1139,-0.393 -0.1384,-0.384 -0.1621,-0.375 -0.1854,-0.363 -0.2079,-0.352 -0.2295,-0.338 -0.2503,-0.322 -0.2703,-0.307 -0.288,-0.288 -0.307,-0.27 -0.322,-0.251 -0.338,-0.229 -0.352001,-0.208 -0.363,-0.185 -0.375,-0.163 -0.384,-0.138 -0.393,-0.114 -0.398,-0.089 -0.403,-0.064 -0.407,-0.038 -0.408,-0.013 -0.408,0.013 -0.407,0.038 -0.403,0.064 -0.398,0.089 -0.393,0.114 -0.384,0.138 -0.375,0.163 -0.362999,0.185 -0.352,0.208 -0.338,0.229 -0.3220001,0.251 -0.307,0.27 -0.288,0.288 -0.27,0.307 -0.251,0.322 -0.229,0.338 -0.208,0.352 -0.185,0.363 -0.1630003,0.375 -0.138,0.384 -0.114,0.393 -0.089,0.398 -0.064,0.403 -0.038,0.407 -0.013,0.408 z"
     id="path2005"
     style="fill:none;fill-opacity:1;stroke:#000000;stroke-opacity:1"
     inkscape:connector-curvature="0" />
  <path
     d="m 10.50756,-202.25573 0.021,-0.219 0.034,-0.217 0.048,-0.214 0.061,-0.212 0.075,-0.206 0.087,-0.202 0.1,-0.196 0.112,-0.189 0.123,-0.182 0.135,-0.174 0.146,-0.165 0.155,-0.155 0.165,-0.146 0.174,-0.135 0.182,-0.123 0.189,-0.112 0.196,-0.1 0.202,-0.087 0.206,-0.075 0.212,-0.061 0.214,-0.048 0.217,-0.034 0.219,-0.021 0.22,-0.007 0.22,0.007 0.219,0.021 0.217,0.034 0.214,0.048 0.212,0.061 0.206,0.075 0.202,0.087 0.196,0.1 0.189,0.112 0.182,0.123 0.174,0.135 0.165,0.146 0.155,0.155 0.146,0.165 0.135,0.174 0.123,0.182 0.112,0.189 0.1,0.196 0.087,0.202 0.075,0.206 0.061,0.212 0.048,0.214 0.034,0.217 0.021,0.219 0.007,0.22 -0.007,0.22 -0.021,0.219 -0.034,0.217 -0.048,0.214 -0.061,0.212 -0.075,0.206 -0.087,0.202 -0.1,0.196 -0.112,0.189 -0.123,0.182 -0.135,0.174 -0.146,0.165 -0.155,0.155 -0.165,0.146 -0.174,0.135 -0.182,0.123 -0.189,0.112 -0.196,0.1 -0.202,0.087 -0.206,0.075 -0.212,0.061 -0.214,0.048 -0.217,0.034 -0.219,0.021 -0.22,0.007 -0.22,-0.007 -0.219,-0.021 -0.217,-0.034 -0.214,-0.048 -0.212,-0.061 -0.206,-0.075 -0.202,-0.087 -0.196,-0.1 -0.189,-0.112 -0.182,-0.123 -0.174,-0.135 -0.165,-0.146 -0.155,-0.155 -0.146,-0.165 -0.135,-0.174 -0.123,-0.182 -0.112,-0.189 -0.1,-0.196 -0.087,-0.202 -0.075,-0.206 -0.061,-0.212 -0.048,-0.214 -0.034,-0.217 -0.021,-0.219 -0.007,-0.22 z"
     id="path2003"
     style="fill:none;fill-opacity:1;stroke:#000000;stroke-opacity:1"
     inkscape:connector-curvature="0" />
  <path
     d="m 10.53756,-188.53573 0.025,0.156 0.048,0.214 0.061,0.212 0.075,0.206 0.087,0.202 0.1,0.196 0.112,0.189 0.122999,0.182 0.135,0.174 0.146,0.165 0.155,0.155 0.165,0.146 0.174,0.135 0.182,0.123 0.189,0.112 0.196,0.1 0.202,0.087 0.206,0.075 0.212,0.061 0.214,0.048 0.217,0.034 0.219,0.021 0.22,0.007 0.22,-0.007 0.219,-0.021 0.217,-0.034 0.214,-0.048 0.212,-0.061 0.206,-0.075 0.202,-0.087 0.196,-0.1 0.189,-0.112 0.182,-0.123 0.174,-0.135 0.165,-0.146 0.155,-0.155 0.146,-0.165 0.135,-0.174 0.123,-0.182 0.112,-0.189 0.1,-0.196 0.087,-0.202 0.075,-0.206 0.061,-0.212 0.048,-0.214 0.025,-0.156 h 0.037 v -13 h -0.037 l 0.009,-0.061 0.021,-0.219 0.007,-0.22 -0.007,-0.22 -0.021,-0.219 -0.034,-0.217 -0.048,-0.214 -0.061,-0.212 -0.075,-0.206 -0.087,-0.202 -0.1,-0.196 -0.112,-0.189 -0.123,-0.182 -0.135,-0.174 -0.146,-0.165 -0.155,-0.155 -0.165,-0.146 -0.174,-0.135 -0.182,-0.123 -0.189,-0.112 -0.196,-0.1 -0.202,-0.087 -0.206,-0.075 -0.212,-0.061 -0.214,-0.048 -0.217,-0.034 -0.219,-0.021 -0.22,-0.007 -0.22,0.007 -0.219,0.021 -0.217,0.034 -0.214,0.048 -0.212,0.061 -0.206,0.075 -0.202,0.087 -0.196,0.1 -0.189,0.112 -0.182,0.123 -0.174,0.135 -0.165,0.146 -0.155,0.155 -0.146,0.165 -0.135,0.174 -0.122999,0.182 -0.112,0.189 -0.1,0.196 -0.087,0.202 -0.075,0.206 -0.061,0.212 -0.048,0.214 -0.034,0.217 -0.021,0.219 -0.007,0.22 0.007,0.22 0.021,0.219 0.009,0.061 h -0.037 v 13 z"
     id="path2001"
     style="fill:none;fill-opacity:1;stroke:#000000;stroke-opacity:1"
     inkscape:connector-curvature="0" />
  <path
     d="m 159.2713,-157.00972 0.038,0.407 0.064,0.403 0.089,0.398 0.114,0.393 0.138,0.384 0.163,0.375 0.185,0.363 0.208,0.352 0.229,0.338 0.251,0.322 0.008,0.01 v 42.847 l 0.01,0.314 0.029,0.313 0.05,0.31 0.068,0.306 0.088,0.302 0.106,0.296 0.125,0.288 0.142,0.28 0.16,0.27 0.177,0.26 0.192,0.248 0.208,0.236 0.222,0.222 0.236,0.208 0.248,0.192 0.26,0.177 0.27,0.16 0.28,0.142 0.288,0.125 0.296,0.106 0.302,0.088 0.306,0.068 0.31,0.05 0.313,0.029 0.314,0.01 0.314,-0.01 0.313,-0.029 0.31,-0.05 0.306,-0.068 0.302,-0.088 0.296,-0.106 0.288,-0.125 0.28,-0.142 0.27,-0.16 0.26,-0.177 0.248,-0.192 0.236,-0.208 0.222,-0.222 0.208,-0.236 0.192,-0.248 0.177,-0.26 0.16,-0.27 0.142,-0.28 0.125,-0.288 0.106,-0.296 0.088,-0.302 0.068,-0.306 0.05,-0.31 0.029,-0.313 0.01,-0.314 v -42.847 l 0.008,-0.01 0.251,-0.322 0.229,-0.338 0.208,-0.352 0.185,-0.363 0.163,-0.375 0.138,-0.384 0.114,-0.393 0.089,-0.398 0.064,-0.403 0.038,-0.407 0.013,-0.408 -0.013,-0.408 -0.038,-0.407 -0.064,-0.403 -0.089,-0.398 -0.114,-0.393 -0.138,-0.384 -0.163,-0.375 -0.185,-0.363 -0.208,-0.352 -0.229,-0.338 -0.251,-0.322 -0.27,-0.307 -0.288,-0.288 -0.307,-0.27 -0.322,-0.251 -0.338,-0.229 -0.352,-0.208 -0.363,-0.185 -0.375,-0.163 -0.384,-0.138 -0.393,-0.114 -0.398,-0.089 -0.403,-0.064 -0.407,-0.038 -0.408,-0.013 -0.408,0.013 -0.407,0.038 -0.403,0.064 -0.398,0.089 -0.393,0.114 -0.384,0.138 -0.375,0.163 -0.363,0.185 -0.352,0.208 -0.338,0.229 -0.322,0.251 -0.307,0.27 -0.288,0.288 -0.27,0.307 -0.251,0.322 -0.229,0.338 -0.208,0.352 -0.185,0.363 -0.163,0.375 -0.138,0.384 -0.114,0.393 -0.089,0.398 -0.064,0.403 -0.038,0.407 -0.013,0.408 z"
     id="path1999"
     style="fill:none;fill-opacity:1;stroke:#000000;stroke-opacity:1"
     inkscape:connector-curvature="0" />
  <path
     d="m 162.2653,-157.63772 0.021,-0.219 0.034,-0.217 0.048,-0.214 0.061,-0.212 0.075,-0.206 0.087,-0.202 0.1,-0.196 0.112,-0.189 0.123,-0.182 0.135,-0.174 0.146,-0.165 0.155,-0.155 0.165,-0.146 0.174,-0.135 0.182,-0.123 0.189,-0.112 0.196,-0.1 0.202,-0.087 0.206,-0.075 0.212,-0.061 0.214,-0.048 0.217,-0.034 0.219,-0.021 0.22,-0.007 0.22,0.007 0.219,0.021 0.217,0.034 0.214,0.048 0.212,0.061 0.206,0.075 0.202,0.087 0.196,0.1 0.189,0.112 0.182,0.123 0.174,0.135 0.165,0.146 0.155,0.155 0.146,0.165 0.135,0.174 0.123,0.182 0.112,0.189 0.1,0.196 0.087,0.202 0.075,0.206 0.061,0.212 0.048,0.214 0.034,0.217 0.021,0.219 0.007,0.22 -0.007,0.22 -0.021,0.219 -0.034,0.217 -0.048,0.214 -0.061,0.212 -0.075,0.206 -0.087,0.202 -0.1,0.196 -0.112,0.189 -0.123,0.182 -0.135,0.174 -0.146,0.165 -0.155,0.155 -0.165,0.146 -0.174,0.135 -0.182,0.123 -0.189,0.112 -0.196,0.1 -0.202,0.087 -0.206,0.075 -0.212,0.061 -0.214,0.048 -0.217,0.034 -0.219,0.021 -0.22,0.007 -0.22,-0.007 -0.219,-0.021 -0.217,-0.034 -0.214,-0.048 -0.212,-0.061 -0.206,-0.075 -0.202,-0.087 -0.196,-0.1 -0.189,-0.112 -0.182,-0.123 -0.174,-0.135 -0.165,-0.146 -0.155,-0.155 -0.146,-0.165 -0.135,-0.174 -0.123,-0.182 -0.112,-0.189 -0.1,-0.196 -0.087,-0.202 -0.075,-0.206 -0.061,-0.212 -0.048,-0.214 -0.034,-0.217 -0.021,-0.219 -0.007,-0.22 z"
     id="path1997"
     style="fill:none;fill-opacity:1;stroke:#000000;stroke-opacity:1"
     inkscape:connector-curvature="0" />
  <path
     d="m 162.2953,-143.91772 0.025,0.156 0.048,0.214 0.061,0.212 0.075,0.206 0.087,0.202 0.1,0.196 0.112,0.189 0.123,0.182 0.135,0.174 0.146,0.165 0.155,0.155 0.165,0.146 0.174,0.135 0.182,0.123 0.189,0.112 0.196,0.1 0.202,0.087 0.206,0.075 0.212,0.061 0.214,0.048 0.217,0.034 0.219,0.021 0.22,0.007 0.22,-0.007 0.219,-0.021 0.217,-0.034 0.214,-0.048 0.212,-0.061 0.206,-0.075 0.202,-0.087 0.196,-0.1 0.189,-0.112 0.182,-0.123 0.174,-0.135 0.165,-0.146 0.155,-0.155 0.146,-0.165 0.135,-0.174 0.123,-0.182 0.112,-0.189 0.1,-0.196 0.087,-0.202 0.075,-0.206 0.061,-0.212 0.048,-0.214 0.025,-0.156 h 0.037 v -13 h -0.037 l 0.009,-0.061 0.021,-0.219 0.007,-0.22 -0.007,-0.22 -0.021,-0.219 -0.034,-0.217 -0.048,-0.214 -0.061,-0.212 -0.075,-0.206 -0.087,-0.202 -0.1,-0.196 -0.112,-0.189 -0.123,-0.182 -0.135,-0.174 -0.146,-0.165 -0.155,-0.155 -0.165,-0.146 -0.174,-0.135 -0.182,-0.123 -0.189,-0.112 -0.196,-0.1 -0.202,-0.087 -0.206,-0.075 -0.212,-0.061 -0.214,-0.048 -0.217,-0.034 -0.219,-0.021 -0.22,-0.007 -0.22,0.007 -0.219,0.021 -0.217,0.034 -0.214,0.048 -0.212,0.061 -0.206,0.075 -0.202,0.087 -0.196,0.1 -0.189,0.112 -0.182,0.123 -0.174,0.135 -0.165,0.146 -0.155,0.155 -0.146,0.165 -0.135,0.174 -0.123,0.182 -0.112,0.189 -0.1,0.196 -0.087,0.202 -0.075,0.206 -0.061,0.212 -0.048,0.214 -0.034,0.217 -0.021,0.219 -0.007,0.22 0.007,0.22 0.021,0.219 0.009,0.061 h -0.037 v 13 z"
     id="path1995"
     style="fill:none;fill-opacity:1;stroke:#000000;stroke-opacity:1"
     inkscape:connector-curvature="0" />
  <path
     d="m 143.21295,-157.00972 0.038,0.407 0.064,0.403 0.089,0.398 0.114,0.393 0.138,0.384 0.163,0.375 0.185,0.363 0.208,0.352 0.229,0.338 0.251,0.322 0.008,0.01 v 42.847 l 0.01,0.314 0.029,0.313 0.05,0.31 0.068,0.306 0.088,0.302 0.106,0.296 0.125,0.288 0.142,0.28 0.16,0.27 0.177,0.26 0.192,0.248 0.208,0.236 0.222,0.222 0.236,0.208 0.248,0.192 0.26,0.177 0.27001,0.16 0.28,0.142 0.288,0.125 0.296,0.106 0.302,0.088 0.306,0.068 0.31,0.05 0.313,0.029 0.314,0.01 0.314,-0.01 0.313,-0.029 0.31,-0.05 0.306,-0.068 0.302,-0.088 0.296,-0.106 0.288,-0.125 0.28,-0.142 0.27,-0.16 0.26,-0.177 0.248,-0.192 0.236,-0.208 0.222,-0.222 0.208,-0.236 0.192,-0.248 0.177,-0.26 0.16,-0.27 0.142,-0.28 0.125,-0.288 0.106,-0.296 0.088,-0.302 0.068,-0.306 0.05,-0.31 0.029,-0.313 0.01,-0.314 v -42.847 l 0.008,-0.01 0.251,-0.322 0.229,-0.338 0.208,-0.352 0.185,-0.363 0.163,-0.375 0.138,-0.384 0.114,-0.393 0.089,-0.398 0.064,-0.403 0.038,-0.407 0.013,-0.408 -0.013,-0.408 -0.038,-0.407 -0.064,-0.403 -0.089,-0.398 -0.114,-0.393 -0.138,-0.384 -0.163,-0.375 -0.185,-0.363 -0.208,-0.352 -0.229,-0.338 -0.251,-0.322 -0.27,-0.307 -0.288,-0.288 -0.307,-0.27 -0.322,-0.251 -0.338,-0.229 -0.352,-0.208 -0.363,-0.185 -0.375,-0.163 -0.384,-0.138 -0.393,-0.114 -0.398,-0.089 -0.403,-0.064 -0.407,-0.038 -0.408,-0.013 -0.408,0.013 -0.407,0.038 -0.403,0.064 -0.398,0.089 -0.393,0.114 -0.384,0.138 -0.37501,0.163 -0.363,0.185 -0.352,0.208 -0.338,0.229 -0.322,0.251 -0.307,0.27 -0.288,0.288 -0.27,0.307 -0.251,0.322 -0.229,0.338 -0.208,0.352 -0.185,0.363 -0.163,0.375 -0.138,0.384 -0.114,0.393 -0.089,0.398 -0.064,0.403 -0.038,0.407 -0.013,0.408 z"
     id="path1993"
     style="fill:none;fill-opacity:1;stroke:#000000;stroke-opacity:1"
     inkscape:connector-curvature="0" />
  <path
     d="m 146.20695,-157.63772 0.021,-0.219 0.034,-0.217 0.048,-0.214 0.061,-0.212 0.075,-0.206 0.087,-0.202 0.1,-0.196 0.112,-0.189 0.123,-0.182 0.135,-0.174 0.14601,-0.165 0.155,-0.155 0.165,-0.146 0.174,-0.135 0.182,-0.123 0.189,-0.112 0.196,-0.1 0.202,-0.087 0.206,-0.075 0.212,-0.061 0.214,-0.048 0.217,-0.034 0.219,-0.021 0.22,-0.007 0.22,0.007 0.219,0.021 0.217,0.034 0.214,0.048 0.212,0.061 0.206,0.075 0.202,0.087 0.196,0.1 0.189,0.112 0.182,0.123 0.174,0.135 0.165,0.146 0.155,0.155 0.146,0.165 0.135,0.174 0.123,0.182 0.112,0.189 0.1,0.196 0.087,0.202 0.075,0.206 0.061,0.212 0.048,0.214 0.034,0.217 0.021,0.219 0.007,0.22 -0.007,0.22 -0.021,0.219 -0.034,0.217 -0.048,0.214 -0.061,0.212 -0.075,0.206 -0.087,0.202 -0.1,0.196 -0.112,0.189 -0.123,0.182 -0.135,0.174 -0.146,0.165 -0.155,0.155 -0.165,0.146 -0.174,0.135 -0.182,0.123 -0.189,0.112 -0.196,0.1 -0.202,0.087 -0.206,0.075 -0.212,0.061 -0.214,0.048 -0.217,0.034 -0.219,0.021 -0.22,0.007 -0.22,-0.007 -0.219,-0.021 -0.217,-0.034 -0.214,-0.048 -0.212,-0.061 -0.206,-0.075 -0.202,-0.087 -0.196,-0.1 -0.189,-0.112 -0.182,-0.123 -0.174,-0.135 -0.165,-0.146 -0.155,-0.155 -0.14601,-0.165 -0.135,-0.174 -0.123,-0.182 -0.112,-0.189 -0.1,-0.196 -0.087,-0.202 -0.075,-0.206 -0.061,-0.212 -0.048,-0.214 -0.034,-0.217 -0.021,-0.219 -0.007,-0.22 z"
     id="path1991"
     style="fill:none;fill-opacity:1;stroke:#000000;stroke-opacity:1"
     inkscape:connector-curvature="0" />
  <path
     d="m 146.23695,-143.91772 0.025,0.156 0.048,0.214 0.061,0.212 0.075,0.206 0.087,0.202 0.1,0.196 0.112,0.189 0.123,0.182 0.135,0.174 0.14601,0.165 0.155,0.155 0.165,0.146 0.174,0.135 0.182,0.123 0.189,0.112 0.196,0.1 0.202,0.087 0.206,0.075 0.212,0.061 0.214,0.048 0.217,0.034 0.219,0.021 0.22,0.007 0.22,-0.007 0.219,-0.021 0.217,-0.034 0.214,-0.048 0.212,-0.061 0.206,-0.075 0.202,-0.087 0.196,-0.1 0.189,-0.112 0.182,-0.123 0.174,-0.135 0.165,-0.146 0.155,-0.155 0.146,-0.165 0.135,-0.174 0.123,-0.182 0.112,-0.189 0.1,-0.196 0.087,-0.202 0.075,-0.206 0.061,-0.212 0.048,-0.214 0.025,-0.156 h 0.037 v -13 h -0.037 l 0.009,-0.061 0.021,-0.219 0.007,-0.22 -0.007,-0.22 -0.021,-0.219 -0.034,-0.217 -0.048,-0.214 -0.061,-0.212 -0.075,-0.206 -0.087,-0.202 -0.1,-0.196 -0.112,-0.189 -0.123,-0.182 -0.135,-0.174 -0.146,-0.165 -0.155,-0.155 -0.165,-0.146 -0.174,-0.135 -0.182,-0.123 -0.189,-0.112 -0.196,-0.1 -0.202,-0.087 -0.206,-0.075 -0.212,-0.061 -0.214,-0.048 -0.217,-0.034 -0.219,-0.021 -0.22,-0.007 -0.22,0.007 -0.219,0.021 -0.217,0.034 -0.214,0.048 -0.212,0.061 -0.206,0.075 -0.202,0.087 -0.196,0.1 -0.189,0.112 -0.182,0.123 -0.174,0.135 -0.165,0.146 -0.155,0.155 -0.14601,0.165 -0.135,0.174 -0.123,0.182 -0.112,0.189 -0.1,0.196 -0.087,0.202 -0.075,0.206 -0.061,0.212 -0.048,0.214 -0.034,0.217 -0.021,0.219 -0.007,0.22 0.007,0.22 0.021,0.219 0.009,0.061 h -0.037 v 13 z"
     id="path1979"
     style="fill:none;fill-opacity:1;stroke:#000000;stroke-opacity:1"
     inkscape:connector-curvature="0" />
</svg>
