# Blender v2.69 (sub 0) OBJ File: 'builder.blend'
# www.blender.org
o circle_Cylinder
v 0.000000 2.000000 -1.000000
v 0.000000 2.000000 1.000000
v 0.390181 1.961570 -1.000000
v 0.390181 1.961571 1.000000
v 0.765367 1.847759 -1.000000
v 0.765367 1.847759 1.000000
v 1.111140 1.662939 -1.000000
v 1.111140 1.662939 1.000000
v 1.414214 1.414213 -1.000000
v 1.414214 1.414214 1.000000
v 1.662939 1.111140 -1.000000
v 1.662939 1.111140 1.000000
v 1.847759 0.765367 -1.000000
v 1.847759 0.765367 1.000000
v 1.961571 0.390181 -1.000000
v 1.961571 0.390181 1.000000
v 2.000000 0.000000 -1.000000
v 2.000000 0.000000 1.000000
v 1.961571 -0.390180 -1.000000
v 1.961571 -0.390180 1.000000
v 1.847759 -0.765367 -1.000000
v 1.847759 -0.765366 1.000000
v 1.662939 -1.111140 -1.000000
v 1.662939 -1.111140 1.000000
v 1.414214 -1.414214 -1.000000
v 1.414214 -1.414213 1.000000
v 1.111140 -1.662939 -1.000000
v 1.111140 -1.662939 1.000000
v 0.765367 -1.847759 -1.000000
v 0.765367 -1.847759 1.000000
v 0.390180 -1.961571 -1.000000
v 0.390180 -1.961571 1.000000
v -0.000001 -2.000000 -1.000000
v -0.000001 -2.000000 1.000000
v -0.390181 -1.961571 -1.000000
v -0.390181 -1.961570 1.000000
v -0.765368 -1.847759 -1.000000
v -0.765368 -1.847759 1.000000
v -1.111141 -1.662939 -1.000000
v -1.111141 -1.662938 1.000000
v -1.414214 -1.414213 -1.000000
v -1.414214 -1.414213 1.000000
v -1.662940 -1.111139 -1.000000
v -1.662940 -1.111139 1.000000
v -1.847760 -0.765365 -1.000000
v -1.847760 -0.765365 1.000000
v -1.961571 -0.390179 -1.000000
v -1.961571 -0.390179 1.000000
v -2.000000 0.000002 -1.000000
v -2.000000 0.000002 1.000000
v -1.961570 0.390183 -1.000000
v -1.961570 0.390183 1.000000
v -1.847758 0.765369 -1.000000
v -1.847758 0.765369 1.000000
v -1.662938 1.111142 -1.000000
v -1.662938 1.111143 1.000000
v -1.414212 1.414215 -1.000000
v -1.414212 1.414215 1.000000
v -1.111138 1.662941 -1.000000
v -1.111138 1.662941 1.000000
v -0.765364 1.847760 -1.000000
v -0.765364 1.847760 1.000000
v -0.390178 1.961571 -1.000000
v -0.390178 1.961571 1.000000
vt 0.498793 0.574379
vt 0.248190 0.574379
vt 0.248190 0.533531
vt 0.498793 0.533531
vt 0.248190 0.498793
vt 1.000000 0.387438
vt 0.749397 0.387438
vt 0.749397 0.346591
vt 1.000000 0.346591
vt 0.749397 0.301203
vt 1.000000 0.301203
vt 0.749397 0.253021
vt 1.000000 0.253020
vt 0.749397 0.203894
vt 1.000000 0.203894
vt 0.749397 0.155711
vt 1.000000 0.155711
vt 0.749397 0.110324
vt 1.000000 0.110323
vt 0.749397 0.069476
vt 1.000000 0.069476
vt 0.749397 0.034738
vt 0.749397 0.352700
vt 0.498793 0.352700
vt 0.498793 0.311853
vt 0.749397 0.311853
vt 0.498793 0.266465
vt 0.749397 0.266465
vt 0.498793 0.218283
vt 0.749397 0.218283
vt 0.749397 0.169156
vt 0.498793 0.169156
vt 0.498793 0.120973
vt 0.749397 0.120973
vt 0.498793 0.075585
vt 0.749397 0.075585
vt 0.498793 0.034738
vt 0.498793 0.000000
vt 0.180831 1.136835
vt 0.180831 0.886231
vt 0.221678 0.886231
vt 0.221679 1.136835
vt 0.267066 0.886231
vt 0.267066 1.136835
vt 0.315249 0.886231
vt 0.315249 1.136835
vt 0.364376 0.886231
vt 0.364376 1.136835
vt 0.412558 0.886231
vt 0.412558 1.136835
vt 0.457946 1.136835
vt 0.457946 0.886231
vt 0.498793 1.136835
vt 0.498793 0.886231
vt 0.248190 0.886231
vt 0.248190 0.851493
vt 0.498793 0.851493
vt 0.248190 0.810646
vt 0.498793 0.810646
vt 0.248190 0.765258
vt 0.498793 0.765258
vt 0.248190 0.717076
vt 0.498793 0.717075
vt 0.498793 0.667949
vt 0.055678 0.090415
vt 0.090416 0.055678
vt 0.028384 0.131263
vt 0.498793 0.619766
vt 0.248190 0.619766
vt 0.248190 0.667949
vt 0.554471 0.907171
vt 0.527178 0.866324
vt 0.589209 0.941909
vt 0.498793 0.498793
vt 0.273960 0.000000
vt 0.322143 0.009584
vt 0.367530 0.028384
vt 0.675444 0.508377
vt 0.723626 0.498793
vt 0.772753 0.498793
vt 0.749397 0.000000
vt 0.554471 0.589209
vt 0.589209 0.554471
vt 0.630056 0.527178
vt 0.866323 0.969202
vt 0.820936 0.988002
vt 0.772753 0.997587
vt 0.527177 0.630056
vt 0.408378 0.055678
vt 0.131263 0.028384
vt 0.224833 0.000000
vt 0.470409 0.131263
vt 0.941909 0.907171
vt 0.941909 0.589209
vt 0.489209 0.176650
vt 0.498793 0.224833
vt 0.498793 0.273960
vt 0.489209 0.322143
vt 0.009584 0.322143
vt 0.000000 0.273960
vt 0.000000 0.224833
vt 0.470409 0.367530
vt 0.443116 0.408378
vt 0.443116 0.090416
vt 0.273960 0.498793
vt 0.367530 0.470409
vt 0.322143 0.489209
vt 0.224833 0.498793
vt 0.176650 0.489209
vt 0.028384 0.367530
vt 0.009584 0.176650
vt 0.055678 0.408378
vt 0.131263 0.470409
vt 0.090415 0.443116
vt 0.508377 0.820936
vt 0.498793 0.772753
vt 0.498793 0.723627
vt 0.997587 0.723627
vt 0.997587 0.772753
vt 0.988002 0.820936
vt 0.408378 0.443116
vt 0.508377 0.675444
vt 0.907171 0.941909
vt 0.176650 0.009584
vt 0.820936 0.508377
vt 0.988002 0.675444
vt 0.969202 0.630056
vt 0.969202 0.866324
vt 0.723626 0.997587
vt 0.907171 0.554471
vt 0.630056 0.969202
vt 0.866324 0.527177
vt 0.675443 0.988002
vn 0.098017 0.995185 -0.000000
vn 0.290285 0.956940 0.000000
vn 0.471397 0.881921 0.000000
vn 0.634394 0.773010 -0.000000
vn 0.773011 0.634393 -0.000000
vn 0.881921 0.471396 -0.000000
vn 0.956940 0.290284 -0.000000
vn 0.995185 0.098017 -0.000000
vn 0.995185 -0.098017 0.000000
vn 0.956940 -0.290285 0.000000
vn 0.881921 -0.471397 0.000000
vn 0.773010 -0.634394 0.000000
vn 0.634393 -0.773010 0.000000
vn 0.471397 -0.881921 0.000000
vn 0.290284 -0.956940 0.000000
vn 0.098017 -0.995185 0.000000
vn -0.098017 -0.995185 0.000000
vn -0.290285 -0.956940 0.000000
vn -0.471397 -0.881921 0.000000
vn -0.634394 -0.773010 0.000000
vn -0.773011 -0.634393 0.000000
vn -0.881921 -0.471397 0.000000
vn -0.956941 -0.290283 0.000000
vn -0.995185 -0.098016 0.000000
vn -0.995185 0.098018 -0.000000
vn -0.956940 0.290286 -0.000000
vn -0.881921 0.471398 0.000000
vn -0.773010 0.634394 -0.000000
vn -0.634393 0.773011 -0.000000
vn -0.471395 0.881922 0.000000
vn 0.000000 -0.000001 1.000000
vn -0.098016 0.995185 -0.000000
vn -0.290283 0.956941 0.000000
vn 0.000000 0.000000 -1.000000
vn 0.634393 0.773011 -0.000000
vn 0.773010 0.634394 -0.000000
vn 0.881921 0.471397 -0.000000
vn 0.956940 0.290285 -0.000000
vn 0.881922 -0.471396 0.000000
vn 0.773011 -0.634393 0.000000
vn 0.000000 -0.000000 1.000000
vn -0.881922 -0.471396 0.000000
vn -0.956941 -0.290284 0.000000
vn -0.098018 -0.995185 0.000000
vn -0.634392 0.773011 -0.000000
vn -0.000002 0.000000 1.000000
vn 0.000001 0.000000 1.000000
vn -0.000001 0.000000 1.000000
vn -0.098017 0.995185 -0.000000
vn 0.000000 -0.000001 -1.000000
vn -0.000001 0.000000 -1.000000
vn 0.000001 0.000000 -1.000000
vn -0.995185 -0.098017 0.000000
vn 0.000000 0.000001 -1.000000
s off
f 1/1/1 2/2/1 4/3/1
f 3/4/2 4/3/2 6/5/2
f 5/6/3 6/7/3 8/8/3
f 7/9/4 8/8/4 10/10/4
f 9/11/5 10/10/5 12/12/5
f 11/13/6 12/12/6 14/14/6
f 13/15/7 14/14/7 16/16/7
f 15/17/8 16/16/8 18/18/8
f 17/19/9 18/18/9 20/20/9
f 19/21/10 20/20/10 22/22/10
f 21/23/11 22/24/11 24/25/11
f 23/26/12 24/25/12 26/27/12
f 25/28/13 26/27/13 28/29/13
f 27/30/14 28/29/14 29/31/14
f 29/31/15 30/32/15 32/33/15
f 31/34/16 32/33/16 34/35/16
f 33/36/17 34/35/17 35/22/17
f 35/22/18 36/37/18 38/38/18
f 37/39/19 38/40/19 40/41/19
f 39/42/20 40/41/20 42/43/20
f 41/44/21 42/43/21 44/45/21
f 43/46/22 44/45/22 46/47/22
f 45/48/23 46/47/23 48/49/23
f 47/50/24 48/49/24 49/51/24
f 49/51/25 50/52/25 51/53/25
f 51/54/26 52/55/26 54/56/26
f 53/57/27 54/56/27 56/58/27
f 55/59/28 56/58/28 58/60/28
f 57/61/29 58/60/29 60/62/29
f 59/63/30 60/62/30 61/64/30
f 4/65/31 2/66/31 6/67/31
f 63/68/32 64/69/32 2/2/32
f 61/64/33 62/70/33 64/69/33
f 1/71/34 3/72/34 63/73/34
f 3/4/1 1/1/1 4/3/1
f 5/74/2 3/4/2 6/5/2
f 7/9/3 5/6/3 8/8/3
f 9/11/35 7/9/35 10/10/35
f 11/13/36 9/11/36 12/12/36
f 13/15/37 11/13/37 14/14/37
f 15/17/38 13/15/38 16/16/38
f 17/19/8 15/17/8 18/18/8
f 19/21/9 17/19/9 20/20/9
f 21/23/10 19/7/10 22/24/10
f 23/26/39 21/23/39 24/25/39
f 25/28/40 23/26/40 26/27/40
f 27/30/13 25/28/13 28/29/13
f 58/75/41 56/76/41 54/77/41
f 31/34/15 29/31/15 32/33/15
f 33/36/16 31/34/16 34/35/16
f 21/78/34 23/79/34 25/80/34
f 37/81/18 35/22/18 38/38/18
f 39/42/19 37/39/19 40/41/19
f 41/44/20 39/42/20 42/43/20
f 43/46/21 41/44/21 44/45/21
f 45/48/42 43/46/42 46/47/42
f 47/50/43 45/48/43 48/49/43
f 15/82/34 17/83/34 19/84/34
f 34/35/44 36/37/44 35/22/44
f 53/57/26 51/54/26 54/56/26
f 55/59/27 53/57/27 56/58/27
f 57/61/28 55/59/28 58/60/28
f 59/63/45 57/61/45 60/62/45
f 51/85/34 53/86/34 55/87/34
f 13/88/34 19/84/34 21/78/34
f 52/89/41 6/67/41 2/66/41
f 2/66/41 64/90/41 60/91/41
f 60/91/41 58/75/41 2/66/41
f 58/75/41 54/77/41 2/66/41
f 60/62/30 62/70/30 61/64/30
f 54/77/41 52/89/41 2/66/41
f 6/67/41 52/89/41 48/92/41
f 47/93/34 55/87/34 33/94/34
f 48/92/41 46/95/41 6/67/41
f 46/95/41 44/96/41 6/67/41
f 44/96/41 42/97/41 6/67/41
f 42/97/41 40/98/41 6/67/41
f 14/99/41 12/100/41 10/101/41
f 6/67/41 38/102/41 36/103/41
f 40/98/41 38/102/41 6/67/41
f 52/89/46 50/104/46 48/92/46
f 28/105/41 32/106/41 30/107/41
f 26/108/41 32/106/41 28/105/41
f 24/109/47 32/106/47 26/108/47
f 16/110/48 14/99/48 10/101/48
f 6/67/41 32/106/41 8/111/41
f 18/112/41 22/113/41 20/114/41
f 32/106/41 6/67/41 36/103/41
f 24/109/47 22/113/47 8/111/47
f 10/101/41 8/111/41 16/110/41
f 16/110/41 8/111/41 22/113/41
f 18/112/41 16/110/41 22/113/41
f 1/1/49 63/68/49 2/2/49
f 63/68/33 61/64/33 64/69/33
f 3/72/34 5/115/34 63/73/34
f 5/115/34 7/116/34 63/73/34
f 7/116/34 9/117/34 63/73/34
f 63/73/34 9/117/34 25/80/34
f 28/29/14 30/32/14 29/31/14
f 39/118/50 41/119/50 43/120/50
f 32/106/41 24/109/41 8/111/41
f 13/88/51 15/82/51 19/84/51
f 36/103/41 34/121/41 32/106/41
f 9/117/34 11/122/34 25/80/34
f 11/122/34 21/78/34 25/80/34
f 49/123/52 51/85/52 55/87/52
f 64/90/41 62/124/41 60/91/41
f 25/80/34 27/125/34 63/73/34
f 48/49/53 50/52/53 49/51/53
f 37/126/34 39/118/34 43/120/34
f 35/127/54 37/126/54 33/94/54
f 43/120/34 33/94/34 37/126/34
f 50/52/25 52/54/25 51/53/25
f 45/128/51 33/94/51 43/120/51
f 55/87/51 47/93/51 49/123/51
f 45/128/52 47/93/52 33/94/52
f 11/122/34 13/88/34 21/78/34
f 57/129/34 33/94/34 55/87/34
f 57/129/34 31/130/34 33/94/34
f 61/131/34 63/73/34 29/132/34
f 59/133/34 61/131/34 57/129/34
f 31/130/34 57/129/34 61/131/34
f 29/132/34 31/130/34 61/131/34
f 27/125/34 29/132/34 63/73/34
