ply
format ascii 1.0
comment Created by Blender 2.69 (sub 0) - www.blender.org, source file: 'builder.blend'
element vertex 46
property float x
property float y
property float z
property float nx
property float ny
property float nz
property float s
property float t
element face 28
property list uchar uint vertex_indices
end_header
-1.714286 1.000000 -0.285714 -1.000000 0.000000 -0.000000 0.500000 0.250000
-1.714286 -1.000000 -0.285714 -1.000000 0.000000 -0.000000 0.750000 0.250000
-1.714286 1.000000 1.714285 -1.000000 0.000000 -0.000000 0.500000 0.500000
0.285714 1.000000 1.714286 -0.000000 0.000000 1.000000 0.750000 0.750000
0.285714 -1.000000 1.714286 -0.000000 0.000000 1.000000 0.750000 0.500000
2.285714 -1.000000 1.714286 -0.000000 0.000000 1.000000 1.000000 0.500000
0.285714 1.000000 -0.285715 1.000000 0.000000 0.000000 0.750000 1.000000
0.285714 -1.000000 -0.285714 1.000000 0.000000 0.000000 0.500000 1.000000
0.285714 -1.000000 -2.285714 1.000000 0.000000 0.000000 0.500000 0.750000
-1.714286 -1.000000 -0.285714 -0.000000 -1.000000 0.000000 0.500000 0.250000
0.285714 -1.000000 -0.285714 -0.000000 -1.000000 0.000000 0.250000 0.250000
-1.714286 -1.000000 1.714286 -0.000000 -1.000000 0.000000 0.500000 0.000000
-1.714286 -1.000000 1.714286 -0.000000 0.000000 1.000000 0.500000 0.500000
-1.714286 1.000000 1.714285 -0.000000 0.000000 1.000000 0.500000 0.750000
0.285714 1.000000 -0.285715 0.000000 1.000000 -0.000000 0.250000 0.750000
-1.714286 1.000000 -0.285714 0.000000 1.000000 -0.000000 0.250000 1.000000
-1.714286 1.000000 1.714285 0.000000 1.000000 -0.000000 0.000000 1.000000
2.285714 1.000000 -0.285715 1.000000 0.000000 0.000000 1.000000 0.250000
2.285714 1.000000 1.714286 1.000000 0.000000 0.000000 1.000000 0.500000
2.285714 -1.000000 -0.285713 1.000000 0.000000 0.000000 0.750000 0.250000
0.285714 -1.000000 1.714286 -0.000000 -1.000000 0.000000 0.250000 0.000000
2.285714 -1.000000 -0.285713 -0.000000 -1.000000 0.000000 0.000000 0.250000
0.285714 1.000000 1.714286 0.000000 1.000000 -0.000000 0.000000 0.750000
2.285714 1.000000 1.714286 0.000000 1.000000 -0.000000 0.000000 0.500000
0.285714 -1.000000 -0.285714 0.000000 -0.000001 -1.000000 1.000000 1.000000
0.285714 1.000000 -0.285715 0.000000 -0.000001 -1.000000 0.750000 1.000000
2.285714 1.000000 -0.285715 0.000000 -0.000001 -1.000000 0.750000 0.750000
-1.714286 1.000000 -2.285715 -0.000000 0.000000 -1.000000 0.750000 0.250000
0.285714 1.000000 -2.285715 -0.000000 0.000000 -1.000000 0.750000 0.000000
-1.714286 -1.000000 -2.285715 -0.000000 0.000000 -1.000000 1.000000 0.250000
0.285714 -1.000000 -2.285714 -0.000000 -1.000000 -0.000000 0.250000 0.500000
-1.714286 1.000000 -2.285715 0.000000 1.000000 0.000000 0.500000 1.000000
-1.714286 1.000000 -2.285715 -1.000000 -0.000000 -0.000000 0.500000 0.000000
0.285714 1.000000 -2.285715 0.000000 1.000000 0.000000 0.500000 0.750000
2.285714 1.000000 1.714286 -0.000000 0.000000 1.000000 1.000000 0.750000
0.285714 1.000000 -2.285715 1.000000 0.000000 0.000000 0.750000 0.750000
2.285714 -1.000000 1.714286 1.000000 0.000000 0.000000 0.750000 0.500000
-1.714286 -1.000000 1.714286 -1.000000 -0.000000 -0.000000 0.750000 0.500000
2.285714 -1.000000 1.714286 -0.000000 -1.000000 0.000000 0.000000 0.000000
2.285714 1.000000 -0.285715 0.000000 1.000000 -0.000000 0.250000 0.500000
2.285714 -1.000000 -0.285713 0.000000 -0.000001 -1.000000 1.000000 0.750000
0.285714 1.000000 -2.285715 0.000000 -0.000001 -1.000000 0.750000 0.000000
0.285714 -1.000000 -2.285714 0.000000 -0.000001 -1.000000 1.000000 0.000000
-1.714286 -1.000000 -2.285715 0.000000 -0.000001 -1.000000 1.000000 0.250000
-1.714286 -1.000000 -2.285715 -1.000000 0.000000 -0.000000 0.750000 0.000000
-1.714286 -1.000000 -2.285715 -0.000000 -1.000000 -0.000000 0.500000 0.500000
3 0 1 2
3 3 4 5
3 6 7 8
3 9 10 11
3 12 4 13
3 14 15 16
3 17 18 19
3 20 10 21
3 14 22 23
3 24 25 26
3 27 28 29
3 10 9 30
3 15 14 31
3 1 0 32
3 14 33 31
3 34 3 5
3 35 6 8
3 4 3 13
3 18 36 19
3 22 14 16
3 1 37 2
3 38 20 21
3 39 14 23
3 40 24 26
3 10 20 11
3 41 42 43
3 44 1 32
3 9 45 30
