ply
format ascii 1.0
comment Created by Blender 2.69 (sub 0) - www.blender.org, source file: 'builder.blend'
element vertex 196
property float x
property float y
property float z
property float nx
property float ny
property float nz
element face 92
property list uchar uint vertex_indices
end_header
0.000000 1.000000 2.000000 0.098017 0.000000 0.995185
0.000000 -1.000000 2.000000 0.098017 0.000000 0.995185
0.390181 -1.000000 1.961571 0.098017 0.000000 0.995185
0.390181 1.000000 1.961570 0.098017 0.000000 0.995185
0.390181 1.000000 1.961570 0.290285 0.000000 0.956940
0.390181 -1.000000 1.961571 0.290285 0.000000 0.956940
0.765367 -1.000000 1.847759 0.290285 0.000000 0.956940
0.765367 1.000000 1.847759 0.290285 0.000000 0.956940
0.765367 1.000000 1.847759 0.471397 0.000000 0.881921
0.765367 -1.000000 1.847759 0.471397 0.000000 0.881921
1.111140 -1.000000 1.662939 0.471397 0.000000 0.881921
1.111140 1.000000 1.662939 0.471397 0.000000 0.881921
1.111140 1.000000 1.662939 0.634393 0.000000 0.773010
1.111140 -1.000000 1.662939 0.634393 0.000000 0.773010
1.414214 -1.000000 1.414214 0.634393 0.000000 0.773010
1.414214 1.000000 1.414213 0.634393 0.000000 0.773010
1.414214 1.000000 1.414213 0.773010 0.000000 0.634393
1.414214 -1.000000 1.414214 0.773010 0.000000 0.634393
1.662939 -1.000000 1.111140 0.773010 0.000000 0.634393
1.662939 1.000000 1.111140 0.773010 0.000000 0.634393
1.662939 1.000000 1.111140 0.881921 0.000000 0.471397
1.662939 -1.000000 1.111140 0.881921 0.000000 0.471397
1.847759 -1.000000 0.765367 0.881921 0.000000 0.471397
1.847759 1.000000 0.765367 0.881921 0.000000 0.471397
1.847759 1.000000 0.765367 0.956940 0.000000 0.290285
1.847759 -1.000000 0.765367 0.956940 0.000000 0.290285
1.961571 -1.000000 0.390181 0.956940 0.000000 0.290285
1.961571 1.000000 0.390181 0.956940 0.000000 0.290285
1.961571 1.000000 0.390181 0.995185 0.000000 0.098017
1.961571 -1.000000 0.390181 0.995185 0.000000 0.098017
2.000000 -1.000000 0.000000 0.995185 0.000000 0.098017
2.000000 1.000000 0.000000 0.995185 0.000000 0.098017
2.000000 1.000000 0.000000 0.995185 -0.000000 -0.098017
2.000000 -1.000000 0.000000 0.995185 -0.000000 -0.098017
1.961571 -1.000000 -0.390180 0.995185 -0.000000 -0.098017
1.961571 1.000000 -0.390180 0.995185 -0.000000 -0.098017
1.961571 1.000000 -0.390180 0.956940 -0.000000 -0.290285
1.961571 -1.000000 -0.390180 0.956940 -0.000000 -0.290285
1.847759 -1.000000 -0.765366 0.956940 -0.000000 -0.290285
1.847759 1.000000 -0.765367 0.956940 -0.000000 -0.290285
1.847759 1.000000 -0.765367 0.881921 -0.000000 -0.471396
1.847759 -1.000000 -0.765366 0.881921 -0.000000 -0.471396
1.662939 -1.000000 -1.111140 0.881921 -0.000000 -0.471396
1.662939 1.000000 -1.111140 0.881921 -0.000000 -0.471396
1.662939 1.000000 -1.111140 0.773010 -0.000000 -0.634393
1.662939 -1.000000 -1.111140 0.773010 -0.000000 -0.634393
1.414214 -1.000000 -1.414213 0.773010 -0.000000 -0.634393
1.414214 1.000000 -1.414214 0.773010 -0.000000 -0.634393
1.414214 1.000000 -1.414214 0.634393 -0.000000 -0.773010
1.414214 -1.000000 -1.414213 0.634393 -0.000000 -0.773010
1.111140 -1.000000 -1.662939 0.634393 -0.000000 -0.773010
1.111140 1.000000 -1.662939 0.634393 -0.000000 -0.773010
1.111140 1.000000 -1.662939 0.471397 -0.000000 -0.881921
1.111140 -1.000000 -1.662939 0.471397 -0.000000 -0.881921
0.765367 -1.000000 -1.847759 0.471397 -0.000000 -0.881921
0.765367 1.000000 -1.847759 0.471397 -0.000000 -0.881921
0.765367 1.000000 -1.847759 0.290284 -0.000000 -0.956940
0.765367 -1.000000 -1.847759 0.290284 -0.000000 -0.956940
0.390180 -1.000000 -1.961571 0.290284 -0.000000 -0.956940
0.390180 1.000000 -1.961571 0.290284 -0.000000 -0.956940
0.390180 1.000000 -1.961571 0.098017 -0.000000 -0.995185
0.390180 -1.000000 -1.961571 0.098017 -0.000000 -0.995185
-0.000001 -1.000000 -2.000000 0.098017 -0.000000 -0.995185
-0.000001 1.000000 -2.000000 0.098017 -0.000000 -0.995185
-0.000001 1.000000 -2.000000 -0.098017 -0.000000 -0.995185
-0.000001 -1.000000 -2.000000 -0.098017 -0.000000 -0.995185
-0.390181 -1.000000 -1.961570 -0.098017 -0.000000 -0.995185
-0.390181 1.000000 -1.961571 -0.098017 -0.000000 -0.995185
-0.390181 1.000000 -1.961571 -0.290285 -0.000000 -0.956940
-0.390181 -1.000000 -1.961570 -0.290285 -0.000000 -0.956940
-0.765368 -1.000000 -1.847759 -0.290285 -0.000000 -0.956940
-0.765368 1.000000 -1.847759 -0.290285 -0.000000 -0.956940
-0.765368 1.000000 -1.847759 -0.471397 -0.000000 -0.881921
-0.765368 -1.000000 -1.847759 -0.471397 -0.000000 -0.881921
-1.111141 -1.000000 -1.662938 -0.471397 -0.000000 -0.881921
-1.111141 1.000000 -1.662939 -0.471397 -0.000000 -0.881921
-1.111141 1.000000 -1.662939 -0.634394 -0.000000 -0.773010
-1.111141 -1.000000 -1.662938 -0.634394 -0.000000 -0.773010
-1.414214 -1.000000 -1.414213 -0.634394 -0.000000 -0.773010
-1.414214 1.000000 -1.414213 -0.634394 -0.000000 -0.773010
-1.414214 1.000000 -1.414213 -0.773011 -0.000000 -0.634393
-1.414214 -1.000000 -1.414213 -0.773011 -0.000000 -0.634393
-1.662940 -1.000000 -1.111139 -0.773011 -0.000000 -0.634393
-1.662940 1.000000 -1.111139 -0.773011 -0.000000 -0.634393
-1.662940 1.000000 -1.111139 -0.881922 -0.000000 -0.471396
-1.662940 -1.000000 -1.111139 -0.881922 -0.000000 -0.471396
-1.847760 -1.000000 -0.765365 -0.881922 -0.000000 -0.471396
-1.847760 1.000000 -0.765365 -0.881922 -0.000000 -0.471396
-1.847760 1.000000 -0.765365 -0.956941 -0.000000 -0.290284
-1.847760 -1.000000 -0.765365 -0.956941 -0.000000 -0.290284
-1.961571 -1.000000 -0.390179 -0.956941 -0.000000 -0.290284
-1.961571 1.000000 -0.390179 -0.956941 -0.000000 -0.290284
-1.961571 1.000000 -0.390179 -0.995185 -0.000000 -0.098016
-1.961571 -1.000000 -0.390179 -0.995185 -0.000000 -0.098016
-2.000000 -1.000000 0.000002 -0.995185 -0.000000 -0.098016
-2.000000 1.000000 0.000002 -0.995185 -0.000000 -0.098016
-2.000000 1.000000 0.000002 -0.995185 0.000000 0.098018
-2.000000 -1.000000 0.000002 -0.995185 0.000000 0.098018
-1.961570 -1.000000 0.390183 -0.995185 0.000000 0.098018
-1.961570 1.000000 0.390183 -0.995185 0.000000 0.098018
-1.961570 1.000000 0.390183 -0.956940 0.000000 0.290286
-1.961570 -1.000000 0.390183 -0.956940 0.000000 0.290286
-1.847758 -1.000000 0.765369 -0.956940 0.000000 0.290286
-1.847758 1.000000 0.765369 -0.956940 0.000000 0.290286
-1.847758 1.000000 0.765369 -0.881921 0.000000 0.471398
-1.847758 -1.000000 0.765369 -0.881921 0.000000 0.471398
-1.662938 -1.000000 1.111143 -0.881921 0.000000 0.471398
-1.662938 1.000000 1.111142 -0.881921 0.000000 0.471398
-1.662938 1.000000 1.111142 -0.773010 0.000000 0.634394
-1.662938 -1.000000 1.111143 -0.773010 0.000000 0.634394
-1.414212 -1.000000 1.414215 -0.773010 0.000000 0.634394
-1.414212 1.000000 1.414215 -0.773010 0.000000 0.634394
-1.414212 1.000000 1.414215 -0.634392 0.000000 0.773011
-1.414212 -1.000000 1.414215 -0.634392 0.000000 0.773011
-1.111138 -1.000000 1.662941 -0.634392 0.000000 0.773011
-1.111138 1.000000 1.662941 -0.634392 0.000000 0.773011
-1.111138 1.000000 1.662941 -0.471395 0.000000 0.881922
-1.111138 -1.000000 1.662941 -0.471395 0.000000 0.881922
-0.765364 -1.000000 1.847760 -0.471395 0.000000 0.881922
-0.765364 1.000000 1.847760 -0.471395 0.000000 0.881922
0.390181 -1.000000 1.961571 0.000000 -1.000000 0.000002
0.000000 -1.000000 2.000000 0.000000 -1.000000 0.000002
-0.390178 -1.000000 1.961571 0.000000 -1.000000 0.000002
0.390181 -1.000000 1.961571 0.000000 -1.000000 0.000000
-0.390178 -1.000000 1.961571 0.000000 -1.000000 0.000000
-0.765364 -1.000000 1.847760 0.000000 -1.000000 0.000000
0.765367 -1.000000 1.847759 0.000000 -1.000000 0.000000
-1.111138 -1.000000 1.662941 -0.000000 -1.000000 0.000000
1.111140 -1.000000 1.662939 -0.000000 -1.000000 -0.000000
-1.414212 -1.000000 1.414215 -0.000000 -1.000000 0.000000
1.414214 -1.000000 1.414214 -0.000000 -1.000000 -0.000000
-1.662938 -1.000000 1.111143 0.000000 -1.000000 0.000000
1.662939 -1.000000 1.111140 0.000000 -1.000000 0.000000
-1.847758 -1.000000 0.765369 -0.000000 -1.000000 0.000000
1.847759 -1.000000 0.765367 -0.000000 -1.000000 -0.000000
-1.961570 -1.000000 0.390183 0.000000 -1.000000 0.000000
1.961571 -1.000000 0.390181 0.000000 -1.000000 0.000000
-2.000000 -1.000000 0.000002 -0.000000 -1.000000 0.000000
2.000000 -1.000000 0.000000 -0.000000 -1.000000 -0.000000
-1.961571 -1.000000 -0.390179 -0.000000 -1.000000 0.000000
1.961571 -1.000000 -0.390180 -0.000000 -1.000000 0.000000
-1.847760 -1.000000 -0.765365 -0.000000 -1.000000 0.000000
1.847759 -1.000000 -0.765366 -0.000000 -1.000000 0.000000
-1.662940 -1.000000 -1.111139 0.000000 -1.000000 0.000000
1.662939 -1.000000 -1.111140 0.000000 -1.000000 0.000000
-1.414214 -1.000000 -1.414213 -0.000000 -1.000000 0.000000
1.414214 -1.000000 -1.414213 -0.000000 -1.000000 0.000000
-1.111141 -1.000000 -1.662938 -0.000000 -1.000000 0.000000
1.111140 -1.000000 -1.662939 -0.000000 -1.000000 0.000000
-0.765368 -1.000000 -1.847759 -0.000000 -1.000000 0.000000
0.765367 -1.000000 -1.847759 -0.000000 -1.000000 0.000000
-0.390181 -1.000000 -1.961570 -0.000000 -1.000000 0.000000
0.390180 -1.000000 -1.961571 -0.000000 -1.000000 0.000000
-0.000001 -1.000000 -2.000000 -0.000000 -1.000000 0.000000
0.000000 -1.000000 2.000000 -0.098016 0.000000 0.995185
0.000000 1.000000 2.000000 -0.098016 0.000000 0.995185
-0.390178 1.000000 1.961571 -0.098016 0.000000 0.995185
-0.390178 -1.000000 1.961571 -0.098016 0.000000 0.995185
-0.765364 1.000000 1.847760 -0.290283 0.000000 0.956941
-0.765364 -1.000000 1.847760 -0.290283 0.000000 0.956941
-0.390178 -1.000000 1.961571 -0.290283 0.000000 0.956941
-0.390178 1.000000 1.961571 -0.290283 0.000000 0.956941
0.390180 1.000000 -1.961571 -0.000000 1.000000 -0.000002
-0.000001 1.000000 -2.000000 -0.000000 1.000000 -0.000002
-0.390181 1.000000 -1.961571 -0.000000 1.000000 -0.000002
0.765367 1.000000 -1.847759 -0.000000 1.000000 0.000000
0.390180 1.000000 -1.961571 -0.000000 1.000000 0.000000
-0.390181 1.000000 -1.961571 -0.000000 1.000000 0.000000
-0.765368 1.000000 -1.847759 -0.000000 1.000000 0.000000
1.111140 1.000000 -1.662939 -0.000000 1.000000 0.000000
-1.111141 1.000000 -1.662939 -0.000000 1.000000 0.000000
1.414214 1.000000 -1.414214 -0.000000 1.000000 0.000000
-1.414214 1.000000 -1.414213 -0.000000 1.000000 0.000000
1.662939 1.000000 -1.111140 -0.000000 1.000000 -0.000000
-1.662940 1.000000 -1.111139 -0.000000 1.000000 -0.000000
1.847759 1.000000 -0.765367 -0.000000 1.000000 0.000000
-1.847760 1.000000 -0.765365 -0.000000 1.000000 0.000000
1.961571 1.000000 -0.390180 -0.000000 1.000000 -0.000000
-1.961571 1.000000 -0.390179 -0.000000 1.000000 -0.000000
2.000000 1.000000 0.000000 -0.000000 1.000000 0.000000
-2.000000 1.000000 0.000002 -0.000000 1.000000 0.000000
1.961571 1.000000 0.390181 -0.000000 1.000000 -0.000000
-1.961570 1.000000 0.390183 -0.000000 1.000000 0.000000
1.847759 1.000000 0.765367 -0.000000 1.000000 -0.000000
-1.847758 1.000000 0.765369 -0.000000 1.000000 0.000000
1.662939 1.000000 1.111140 -0.000000 1.000000 -0.000000
-1.662938 1.000000 1.111142 -0.000000 1.000000 -0.000000
1.414214 1.000000 1.414213 -0.000000 1.000000 -0.000000
-1.414212 1.000000 1.414215 -0.000000 1.000000 0.000000
1.111140 1.000000 1.662939 -0.000000 1.000000 -0.000000
-1.111138 1.000000 1.662941 -0.000000 1.000000 0.000000
0.765367 1.000000 1.847759 -0.000000 1.000000 -0.000000
-0.765364 1.000000 1.847760 -0.000000 1.000000 0.000000
0.390181 1.000000 1.961570 -0.000000 1.000000 -0.000000
-0.390178 1.000000 1.961571 -0.000000 1.000000 0.000000
0.000000 1.000000 2.000000 -0.000000 1.000000 -0.000000
4 0 1 2 3
4 4 5 6 7
4 8 9 10 11
4 12 13 14 15
4 16 17 18 19
4 20 21 22 23
4 24 25 26 27
4 28 29 30 31
4 32 33 34 35
4 36 37 38 39
4 40 41 42 43
4 44 45 46 47
4 48 49 50 51
4 52 53 54 55
4 56 57 58 59
4 60 61 62 63
4 64 65 66 67
4 68 69 70 71
4 72 73 74 75
4 76 77 78 79
4 80 81 82 83
4 84 85 86 87
4 88 89 90 91
4 92 93 94 95
4 96 97 98 99
4 100 101 102 103
4 104 105 106 107
4 108 109 110 111
4 112 113 114 115
4 116 117 118 119
3 120 121 122
3 123 124 125
3 123 125 126
3 125 127 126
3 127 128 126
3 127 129 128
3 129 130 128
3 129 131 130
3 131 132 130
3 131 133 132
3 133 134 132
3 133 135 134
3 135 136 134
3 135 137 136
3 137 138 136
3 137 139 138
3 139 140 138
3 139 141 140
3 141 142 140
3 141 143 142
3 143 144 142
3 143 145 144
3 145 146 144
3 145 147 146
3 147 148 146
3 147 149 148
3 149 150 148
3 149 151 150
3 151 152 150
3 151 153 152
4 154 155 156 157
4 158 159 160 161
3 162 163 164
3 165 166 167
3 165 167 168
3 169 165 168
3 169 168 170
3 171 169 170
3 171 170 172
3 173 171 172
3 173 172 174
3 175 173 174
3 175 174 176
3 177 175 176
3 177 176 178
3 179 177 178
3 179 178 180
3 181 179 180
3 181 180 182
3 183 181 182
3 183 182 184
3 185 183 184
3 185 184 186
3 187 185 186
3 187 186 188
3 189 187 188
3 189 188 190
3 191 189 190
3 191 190 192
3 193 191 192
3 193 192 194
3 195 193 194
