# Blender v2.69 (sub 0) OBJ File: 'builder.blend'
# www.blender.org
o guitar_Cylinder.002
v -0.019984 2.005202 0.993011
v 0.190858 1.984435 0.993011
v 0.190858 1.984435 -0.991948
v -0.019984 2.005201 -0.991948
v -0.230824 1.984436 -0.991948
v -0.230824 1.984436 0.993011
v 0.393597 1.922935 -0.991948
v 0.393597 1.922935 0.993011
v -0.433563 1.922936 -0.991948
v -0.433563 1.922936 0.993011
v 0.580442 1.823064 -0.991948
v 0.580442 1.823065 0.993011
v -0.620408 1.823065 -0.991948
v -0.620408 1.823065 0.993011
v 0.744214 1.688661 -0.991948
v 0.744214 1.688661 0.993011
v -0.784180 1.688662 -0.991948
v -0.784180 1.688662 0.993011
v 0.878617 1.524889 0.993011
v 0.878617 1.524889 -0.991948
v -0.918584 1.524890 0.993011
v -0.918584 1.524890 -0.991948
v 0.978488 1.338044 -0.991948
v 0.978488 1.338044 0.993011
v -1.018455 1.338045 -0.991948
v -1.018455 1.338045 0.993011
v 1.039988 1.135305 0.993011
v 1.039988 1.135305 -0.991948
v -1.079956 1.135306 -0.991948
v -1.079956 1.135306 0.993011
v 1.060754 0.924463 0.993011
v 1.060754 0.924463 -0.991948
v -1.100722 0.924464 0.993011
v -1.100722 0.924464 -0.991948
v 1.039988 0.713622 0.993011
v 1.039988 0.713622 -0.991948
v -1.079956 0.713623 -0.991948
v -1.079956 0.713623 0.993011
v 0.978488 0.510883 -0.991948
v 0.978488 0.510883 0.993011
v -1.018456 0.510883 -0.991948
v -1.018456 0.510884 0.993011
v 0.878617 0.324037 0.993011
v 0.878617 0.324037 -0.991948
v -0.918585 0.324038 -0.991948
v -0.918585 0.324038 0.993011
v 0.744214 0.160266 0.993011
v 0.744214 0.160266 -0.991948
v -0.784182 0.160266 -0.991948
v -0.784182 0.160267 0.993011
v 0.580442 0.025862 -0.991948
v 0.580442 0.025862 0.993011
v -0.620410 0.025863 -0.991948
v -0.620410 0.025863 0.993011
v -0.452607 0.042390 -0.991948
v -0.423948 0.057708 -0.991948
v 0.231569 0.109775 -0.991948
v 0.200473 0.119208 -0.991948
v -0.221208 0.119208 -0.991948
v -0.010368 0.139974 -0.991948
v 0.403212 0.057708 -0.991948
v 0.462791 0.025862 -0.991948
v 0.393597 -0.074009 0.993011
v 0.393597 -0.074009 0.983162
v 0.422256 -0.058690 0.983162
v 0.521616 -0.005581 -0.991948
v 0.453176 -0.042163 0.983162
v 0.521617 -0.005581 0.983162
v -0.493144 -0.042162 0.983162
v -0.433565 -0.074008 0.983162
v -0.433565 -0.074008 0.993011
v -0.551969 -0.010720 -0.991948
v -0.551969 -0.010720 0.983162
v -0.511450 -0.032378 0.983162
v -0.483527 0.025862 -0.991948
v 0.481096 0.016078 -0.991948
v 0.190858 -0.135509 0.983162
v 0.190858 -0.135509 0.993011
v -0.261923 -0.126075 0.983162
v -0.230826 -0.135509 0.983162
v -0.230826 -0.135509 0.993011
v -0.019984 -0.156275 0.983162
v -0.019984 -0.156275 0.993011
v 0.200473 0.119208 -1.001797
v -0.010368 0.139974 -1.001797
v 0.403212 0.057708 -1.001797
v -0.221208 0.119208 -1.001797
v -0.423948 0.057708 -1.001797
v 0.590057 -0.042163 -1.001797
v 0.590057 -0.042163 0.983162
v -0.610793 -0.042162 -1.001797
v 0.753829 -0.176567 -1.001797
v 0.753829 -0.176567 0.983162
v -0.610793 -0.042162 0.983162
v -0.774565 -0.176566 -1.001797
v -0.774565 -0.176566 0.983162
v 0.888233 -0.340338 0.983162
v 0.888233 -0.340338 -1.001797
v -0.908969 -0.340337 -1.001797
v -0.908969 -0.340337 0.983162
v 0.988103 -0.527184 -1.001797
v 0.988103 -0.527184 0.983162
v -1.008840 -0.527183 -1.001797
v -1.008840 -0.527182 0.983162
v 1.049603 -0.729923 0.983162
v 1.049603 -0.729923 -1.001797
v -1.070341 -0.729922 -1.001797
v -1.070341 -0.729922 0.983162
v 1.070370 -0.940764 0.983162
v 1.070370 -0.940764 -1.001797
v -1.091107 -0.940763 -1.001797
v -1.091107 -0.940763 0.983162
v 1.049604 -1.151606 0.983162
v 1.049604 -1.151606 -1.001797
v -1.070341 -1.151605 -1.001797
v -1.070341 -1.151605 0.983162
v 0.988104 -1.354345 -1.001797
v 0.988104 -1.354345 0.983162
v -1.008841 -1.354344 -1.001797
v -1.008841 -1.354344 0.983162
v 0.888233 -1.541190 0.983162
v 0.888233 -1.541190 -1.001797
v -0.908970 -1.541190 -1.001797
v -0.908970 -1.541189 0.983162
v 0.753829 -1.704962 0.983162
v 0.753829 -1.704962 -1.001797
v -0.774566 -1.704961 -1.001797
v -0.774566 -1.704961 0.983162
v 0.590057 -1.839365 -1.001797
v 0.590057 -1.839365 0.983162
v -0.610795 -1.839365 -1.001797
v -0.610795 -1.839365 0.983162
v 0.403212 -1.939236 -1.001797
v 0.403212 -1.939236 0.983162
v -0.423950 -1.939236 -1.001797
v -0.423950 -1.939236 0.983162
v 0.200473 -2.000737 -1.001797
v 0.200473 -2.000736 0.983162
v -0.221210 -2.000736 -1.001797
v -0.221210 -2.000736 0.983162
v -0.010369 -2.021502 -1.001797
v -0.010369 -2.021502 0.983162
vt 0.670235 0.683366
vt 0.703639 0.683366
vt 0.703639 0.854210
vt 0.736872 0.683366
vt 0.736872 0.854210
vt 0.768656 0.683366
vt 0.768656 0.854210
vt 0.797770 0.683366
vt 0.797770 0.854210
vt 0.823095 0.683366
vt 0.340042 1.021770
vt 0.312195 1.021770
vt 0.312195 0.850927
vt 0.281253 1.021770
vt 0.281253 0.850927
vt 0.248405 1.021770
vt 0.248405 0.850927
vt 0.214914 1.021770
vt 0.182066 1.021770
vt 0.182066 0.850927
vt 0.151125 1.021770
vt 0.151125 0.850927
vt 0.123278 1.021770
vt 0.099596 1.021770
vt 0.099596 0.850927
vt 0.340042 0.850927
vt 0.317661 0.850079
vt 0.322036 0.850079
vt 0.331719 0.680083
vt 0.340042 0.680083
vt 0.331719 0.850079
vt 0.313606 0.850927
vt 0.313606 0.850079
vt 0.283667 0.850927
vt 0.283667 0.850079
vt 0.251375 0.850927
vt 0.251375 0.850079
vt 0.217971 0.850927
vt 0.217971 0.850079
vt 0.184738 0.850927
vt 0.212873 0.850079
vt 0.184738 0.850079
vt 0.152954 0.850927
vt 0.164596 0.850079
vt 0.171489 0.850079
vt 0.152954 0.680083
vt 0.174603 0.850079
vt 0.123840 0.850927
vt 0.098515 0.850927
vt 0.098515 0.680083
vt 0.993938 0.683366
vt 0.993938 0.711213
vt 0.823095 0.711213
vt 0.993938 0.742155
vt 0.993938 0.775002
vt 0.823095 0.775002
vt 0.993938 0.808494
vt 0.823095 0.808494
vt 0.993938 0.841341
vt 0.823095 0.841341
vt 0.993938 0.872283
vt 0.993938 0.900130
vt 0.823095 0.900130
vt 0.993938 0.923812
vt 0.823095 0.923812
vt 0.581568 0.683366
vt 0.608004 0.683366
vt 0.608004 0.854210
vt 0.000000 0.186766
vt 0.000000 0.153275
vt 0.006534 0.120428
vt 0.019350 0.089486
vt 0.006534 0.219614
vt 0.037957 0.061639
vt 0.019350 0.250556
vt 0.061639 0.037957
vt 0.037957 0.278403
vt 0.089486 0.019350
vt 0.061639 0.302085
vt 0.120427 0.006534
vt 0.089486 0.320691
vt 0.153275 0.000000
vt 0.120428 0.333508
vt 0.186766 0.000000
vt 0.153275 0.340042
vt 0.219614 0.006534
vt 0.186766 0.340042
vt 0.250556 0.019350
vt 0.219614 0.333508
vt 0.278403 0.037957
vt 0.250556 0.320691
vt 0.302085 0.061639
vt 0.278403 0.302085
vt 0.320691 0.089486
vt 0.302085 0.278403
vt 0.333508 0.120428
vt 0.320691 0.250556
vt 0.340042 0.153275
vt 0.333508 0.219614
vt 0.340042 0.186766
vt 0.670235 0.854210
vt 0.637943 0.683366
vt 0.637943 0.854210
vt 0.654859 0.434002
vt 0.653387 0.418290
vt 0.658313 0.427613
vt 0.658313 0.597328
vt 0.652478 0.608119
vt 0.652582 0.586481
vt 0.653298 0.436888
vt 0.649993 0.581580
vt 0.648219 0.446282
vt 0.639858 0.473376
vt 0.632265 0.392300
vt 0.634901 0.511598
vt 0.638024 0.544943
vt 0.631108 0.633906
vt 0.638344 0.478284
vt 0.647593 0.577038
vt 0.606478 0.370929
vt 0.605117 0.655029
vt 0.577017 0.355001
vt 0.575506 0.670675
vt 0.545015 0.345125
vt 0.543410 0.680243
vt 0.511701 0.341683
vt 0.510065 0.683366
vt 0.478356 0.344806
vt 0.476751 0.679924
vt 0.446260 0.354375
vt 0.444749 0.670048
vt 0.416649 0.370021
vt 0.415288 0.654120
vt 0.390658 0.391143
vt 0.389502 0.632749
vt 0.369288 0.416930
vt 0.368379 0.606759
vt 0.353359 0.446391
vt 0.352733 0.577147
vt 0.343484 0.478393
vt 0.343165 0.545052
vt 0.340042 0.511707
vt 0.658313 0.463754
vt 0.658313 0.430349
vt 0.659161 0.430349
vt 0.658313 0.496986
vt 0.659161 0.468851
vt 0.659161 0.496986
vt 0.659161 0.510235
vt 0.659161 0.517128
vt 0.658313 0.528771
vt 0.829156 0.517128
vt 0.829156 0.528771
vt 0.659161 0.507121
vt 0.829156 0.557885
vt 0.658313 0.557885
vt 0.829157 0.583210
vt 0.829157 0.341683
vt 0.829157 0.313836
vt 1.000000 0.313836
vt 0.829157 0.282894
vt 1.000000 0.282894
vt 0.829157 0.250047
vt 1.000000 0.250047
vt 0.829157 0.216556
vt 0.829156 0.183708
vt 1.000000 0.183708
vt 0.829156 0.152766
vt 1.000000 0.152766
vt 0.829156 0.124919
vt 0.829156 0.101237
vt 1.000000 0.101237
vt 0.581568 0.854210
vt 0.555133 0.854210
vt 0.555133 0.683366
vt 0.525194 0.854210
vt 0.525194 0.683366
vt 0.492902 0.854210
vt 0.492902 0.683366
vt 0.459498 0.854210
vt 0.426265 0.854210
vt 0.426265 0.683366
vt 0.394481 0.854210
vt 0.365367 0.854210
vt 0.365367 0.683366
vt 0.340042 0.854210
vt 0.340042 0.683366
vt 0.829156 0.341683
vt 0.658313 0.341683
vt 0.658313 0.313836
vt 0.829156 0.313836
vt 0.658313 0.282894
vt 0.658313 0.250047
vt 0.829156 0.250047
vt 0.658313 0.216555
vt 0.829156 0.216555
vt 0.658313 0.183708
vt 0.658313 0.152766
vt 0.658313 0.124919
vt 0.658313 0.101237
vt 0.659161 0.350006
vt 0.659161 0.359689
vt 0.659161 0.364064
vt 0.658313 0.368118
vt 0.658313 0.255753
vt 0.653387 0.265076
vt 0.654859 0.249364
vt 0.653298 0.246478
vt 0.652582 0.096885
vt 0.652478 0.075247
vt 0.658313 0.086038
vt 0.648219 0.237084
vt 0.632265 0.291066
vt 0.649993 0.101785
vt 0.631108 0.049460
vt 0.638024 0.138423
vt 0.634901 0.171768
vt 0.638344 0.205082
vt 0.647593 0.106327
vt 0.639858 0.209990
vt 0.606478 0.312437
vt 0.605118 0.028338
vt 0.577017 0.328365
vt 0.575506 0.012692
vt 0.545015 0.338241
vt 0.543411 0.003123
vt 0.510065 0.000000
vt 0.478356 0.338560
vt 0.476752 0.003442
vt 0.446261 0.328992
vt 0.444749 0.013318
vt 0.416649 0.313345
vt 0.415289 0.029246
vt 0.390658 0.292223
vt 0.389502 0.050617
vt 0.369288 0.266436
vt 0.368379 0.076607
vt 0.353359 0.236975
vt 0.352733 0.106219
vt 0.343484 0.204973
vt 0.343165 0.138314
vt 0.340042 0.171659
vt 0.658313 0.398057
vt 0.659161 0.398057
vt 0.659161 0.368118
vt 0.250556 0.660733
vt 0.219614 0.673549
vt 0.186766 0.680083
vt 0.278403 0.642126
vt 0.153275 0.680083
vt 0.302085 0.618444
vt 0.120428 0.673549
vt 0.320691 0.590597
vt 0.089486 0.660733
vt 0.333508 0.559656
vt 0.061639 0.642126
vt 0.340042 0.526808
vt 0.037957 0.618444
vt 0.340042 0.493317
vt 0.019350 0.590597
vt 0.333508 0.460469
vt 0.006534 0.559656
vt 0.320691 0.429527
vt 0.000000 0.526808
vt 0.302085 0.401680
vt 0.000000 0.493317
vt 0.278403 0.377999
vt 0.006534 0.460469
vt 0.250556 0.359392
vt 0.019350 0.429527
vt 0.219614 0.346575
vt 0.037957 0.401680
vt 0.061639 0.377999
vt 0.089486 0.359392
vt 0.120428 0.346575
vt 0.823095 0.854210
vt 0.214914 0.850927
vt 0.123278 0.850927
vt 0.164596 0.680083
vt 0.123840 0.680083
vt 0.823095 0.742155
vt 0.823095 0.872283
vt 0.659161 0.463754
vt 0.658313 0.583210
vt 1.000000 0.341683
vt 1.000000 0.216556
vt 1.000000 0.124919
vt 0.459498 0.683366
vt 0.394481 0.683366
vt 0.829156 0.282894
vt 0.829157 0.350006
vn 0.098017 0.995185 0.000000
vn 0.290285 0.956940 0.000000
vn 0.471396 0.881922 -0.000000
vn 0.634394 0.773010 -0.000000
vn 0.773010 0.634394 0.000000
vn 0.881922 0.471396 -0.000000
vn 0.956941 0.290284 -0.000000
vn 0.995185 0.098018 0.000000
vn 0.995185 -0.098017 0.000000
vn 0.956940 -0.290284 0.000000
vn 0.881922 -0.471396 0.000000
vn 0.773010 -0.634394 0.000000
vn 0.634393 -0.773011 0.000000
vn 0.471391 -0.881924 0.000031
vn 0.471398 -0.881921 0.000000
vn 0.471399 -0.881920 0.000000
vn 0.290282 -0.956941 0.000000
vn 0.098016 -0.995185 0.000000
vn -0.098016 -0.995185 0.000000
vn -0.290285 -0.956940 0.000002
vn -0.290288 -0.956940 0.000000
vn -0.471388 -0.881926 -0.000010
vn -0.471397 -0.881921 0.000000
vn -0.471400 -0.881920 0.000000
vn -0.634394 -0.773010 0.000000
vn -0.773011 -0.634393 0.000000
vn -0.881921 -0.471396 0.000000
vn -0.956941 -0.290283 0.000000
vn -0.995185 -0.098017 0.000000
vn -0.995185 0.098018 0.000000
vn -0.956940 0.290285 0.000000
vn -0.881921 0.471398 0.000000
vn -0.773010 0.634394 -0.000000
vn -0.634392 0.773012 -0.000000
vn -0.471395 0.881922 -0.000000
vn 0.000000 0.000006 1.000000
vn 0.000000 0.000000 1.000000
vn 0.000000 0.000001 1.000000
vn -0.098016 0.995185 0.000000
vn -0.290283 0.956941 -0.000000
vn 0.000000 0.000000 -1.000000
vn 0.000002 0.000000 -1.000000
vn -0.000000 -0.000001 -1.000000
vn 0.098018 0.995185 0.000000
vn 0.290288 0.956939 0.000000
vn 0.290282 0.956941 0.000000
vn 0.471412 0.881913 -0.000001
vn 0.471396 0.881921 -0.000000
vn 0.471400 0.881920 -0.000000
vn 0.881921 0.471397 -0.000000
vn 0.956941 0.290283 -0.000000
vn 0.995185 -0.098018 0.000000
vn 0.956941 -0.290284 0.000000
vn 0.881921 -0.471397 0.000000
vn 0.773011 -0.634393 0.000000
vn 0.471397 -0.881921 0.000000
vn 0.098018 -0.995185 0.000000
vn -0.098018 -0.995185 0.000000
vn -0.290284 -0.956941 0.000000
vn -0.773011 -0.634392 0.000000
vn -0.881921 -0.471397 0.000000
vn -0.956941 -0.290284 0.000000
vn -0.956940 0.290286 0.000000
vn -0.881921 0.471397 -0.000000
vn -0.634392 0.773011 -0.000000
vn -0.471391 0.881924 0.000011
vn -0.471394 0.881922 -0.000000
vn -0.471398 0.881920 0.000004
vn -0.000001 0.000000 1.000000
vn 0.000001 0.000000 1.000000
vn -0.098017 0.995185 0.000000
vn -0.290282 0.956941 0.000000
vn 0.000000 -0.000006 -1.000000
vn 0.098016 0.995185 0.000000
vn 0.471397 0.881921 0.000000
vn 0.956940 0.290285 0.000000
vn 0.995185 0.098017 0.000000
vn 0.956940 -0.290285 0.000000
vn 0.773010 -0.634393 0.000000
vn 0.634393 -0.773010 0.000000
vn 0.471405 -0.881917 0.000009
vn 0.471398 -0.881921 -0.000003
vn 0.290285 -0.956940 0.000000
vn -0.290288 -0.956939 0.000000
vn -0.471403 -0.881918 0.000049
vn -0.471400 -0.881920 -0.000004
vn -0.995185 -0.098016 0.000000
vn -0.995185 0.098017 0.000000
vn -0.773009 0.634394 0.000000
vn -0.471396 0.881922 -0.000000
vn -0.000002 0.000000 -1.000000
vn -0.471397 0.881921 0.000000
vn 0.471392 0.881924 0.000032
vn 0.634393 0.773011 -0.000000
vn 0.956941 -0.290283 0.000000
vn 0.634394 -0.773010 0.000000
vn 0.098015 -0.995185 0.000000
vn -0.881922 -0.471396 0.000000
vn -0.471420 0.881909 0.000024
vn 0.471390 0.881925 0.000000
vn -0.098015 0.995185 0.000000
vn 0.290284 0.956940 0.000000
s off
f 1/1/1 2/2/1 3/3/1
f 2/2/2 8/4/2 7/5/2
f 8/4/3 12/6/3 11/7/3
f 12/6/4 16/8/4 11/7/4
f 15/9/5 16/8/5 19/10/5
f 19/11/6 24/12/6 23/13/6
f 24/12/7 27/14/7 28/15/7
f 28/15/8 27/14/8 31/16/8
f 32/17/9 31/16/9 35/18/9
f 35/18/10 40/19/10 39/20/10
f 40/19/11 43/21/11 39/20/11
f 44/22/12 43/21/12 47/23/12
f 47/23/13 52/24/13 51/25/13
f 52/26/14 65/27/14 67/28/14
f 66/29/15 51/30/15 68/31/15
f 63/32/16 64/33/16 65/27/16
f 63/32/17 78/34/17 77/35/17
f 78/34/18 83/36/18 82/37/18
f 83/36/19 81/38/19 80/39/19
f 81/38/20 71/40/20 79/41/20
f 71/40/21 70/42/21 79/41/21
f 54/43/22 73/44/22 74/45/22
f 54/43/23 53/46/23 73/44/23
f 69/47/24 70/42/24 71/40/24
f 54/43/25 50/48/25 53/46/25
f 50/48/26 46/49/26 45/50/26
f 45/10/27 46/51/27 42/52/27
f 41/53/28 42/52/28 38/54/28
f 38/54/29 33/55/29 34/56/29
f 33/55/30 30/57/30 29/58/30
f 29/58/31 30/57/31 26/59/31
f 25/60/32 26/59/32 21/61/32
f 21/61/33 18/62/33 17/63/33
f 18/62/34 14/64/34 13/65/34
f 14/66/35 10/67/35 9/68/35
f 2/69/36 1/70/36 6/71/36
f 2/69/37 6/71/37 10/72/37
f 2/69/37 10/72/37 8/73/37
f 10/72/37 14/74/37 8/73/37
f 14/74/37 12/75/37 8/73/37
f 14/74/37 18/76/37 12/75/37
f 18/76/37 16/77/37 12/75/37
f 18/76/37 21/78/37 16/77/37
f 21/78/37 19/79/37 16/77/37
f 21/78/37 26/80/37 19/79/37
f 26/80/37 24/81/37 19/79/37
f 26/80/38 30/82/38 24/81/38
f 30/82/38 27/83/38 24/81/38
f 30/82/37 33/84/37 27/83/37
f 33/84/37 31/85/37 27/83/37
f 33/84/37 38/86/37 31/85/37
f 38/86/37 35/87/37 31/85/37
f 38/86/37 42/88/37 35/87/37
f 42/88/37 40/89/37 35/87/37
f 42/88/37 46/90/37 40/89/37
f 46/90/37 43/91/37 40/89/37
f 46/90/37 50/92/37 43/91/37
f 50/92/37 47/93/37 43/91/37
f 50/92/37 54/94/37 47/93/37
f 54/94/37 52/95/37 47/93/37
f 54/94/37 71/96/37 52/95/37
f 71/96/37 63/97/37 52/95/37
f 71/96/37 81/98/37 63/97/37
f 81/98/37 78/99/37 63/97/37
f 81/98/37 83/100/37 78/99/37
f 1/1/39 4/101/39 6/102/39
f 10/67/40 6/102/40 5/103/40
f 76/104/41 51/105/41 66/106/41
f 72/107/41 53/108/41 75/109/41
f 51/105/42 76/104/42 62/110/42
f 75/109/41 53/108/41 55/111/41
f 51/105/41 62/110/41 61/112/41
f 57/113/41 48/114/41 61/112/41
f 60/115/41 59/116/41 49/117/41
f 49/117/41 48/114/41 60/115/41
f 48/114/41 58/118/41 60/115/41
f 59/116/41 56/119/41 49/117/41
f 48/114/41 57/113/41 58/118/41
f 55/111/41 53/108/41 49/117/41
f 44/120/41 48/114/41 49/117/41
f 44/120/41 49/117/41 45/121/41
f 39/122/41 44/120/41 45/121/41
f 39/122/41 45/121/41 41/123/41
f 36/124/43 39/122/43 41/123/43
f 36/124/43 41/123/43 37/125/43
f 32/126/41 36/124/41 37/125/41
f 32/126/41 37/125/41 34/127/41
f 28/128/41 32/126/41 34/127/41
f 28/128/41 34/127/41 29/129/41
f 23/130/41 28/128/41 29/129/41
f 23/130/41 29/129/41 25/131/41
f 20/132/43 23/130/43 25/131/43
f 20/132/43 25/131/43 22/133/43
f 15/134/41 20/132/41 22/133/41
f 15/134/41 22/133/41 17/135/41
f 11/136/41 15/134/41 17/135/41
f 11/136/41 17/135/41 13/137/41
f 7/138/41 11/136/41 13/137/41
f 7/138/41 13/137/41 9/139/41
f 3/140/41 7/138/41 9/139/41
f 3/140/41 9/139/41 5/141/41
f 4/142/41 3/140/41 5/141/41
f 84/143/44 85/144/44 60/145/44
f 86/146/45 84/143/45 57/147/45
f 57/147/46 61/148/46 86/146/46
f 76/149/47 66/150/47 89/151/47
f 68/152/48 90/153/48 66/150/48
f 89/151/49 86/146/49 62/154/49
f 90/153/4 93/155/4 92/156/4
f 92/156/5 93/155/5 97/157/5
f 97/158/50 102/159/50 101/160/50
f 102/159/51 105/161/51 101/160/51
f 106/162/8 105/161/8 109/163/8
f 110/164/52 109/163/52 113/165/52
f 113/165/53 118/166/53 117/167/53
f 118/166/54 121/168/54 122/169/54
f 122/169/55 121/168/55 125/170/55
f 125/170/13 130/171/13 129/172/13
f 130/173/56 134/174/56 133/175/56
f 134/174/17 138/176/17 137/177/17
f 138/176/57 142/178/57 141/179/57
f 141/179/58 142/178/58 140/180/58
f 140/180/59 136/181/59 135/182/59
f 136/181/23 132/183/23 135/182/23
f 132/183/25 128/184/25 127/185/25
f 128/184/60 124/186/60 123/187/60
f 123/188/61 124/189/61 120/190/61
f 119/191/62 120/190/62 116/192/62
f 116/192/29 112/193/29 111/194/29
f 112/193/30 108/195/30 107/196/30
f 107/196/63 108/195/63 103/166/63
f 103/166/64 104/197/64 100/198/64
f 100/198/33 96/199/33 95/170/33
f 96/199/65 94/200/65 91/171/65
f 91/189/66 72/201/66 75/202/66
f 91/189/67 94/158/67 72/201/67
f 91/189/68 55/203/68 88/204/68
f 73/205/69 94/206/69 74/207/69
f 94/206/37 69/208/37 74/207/37
f 67/209/37 90/210/37 68/211/37
f 94/206/37 70/212/37 69/208/37
f 94/206/37 96/213/37 70/212/37
f 65/214/69 90/210/69 67/209/69
f 93/215/37 77/216/37 82/217/37
f 82/217/37 96/213/37 93/215/37
f 82/217/37 80/218/37 96/213/37
f 93/215/37 64/219/37 77/216/37
f 80/218/70 79/220/70 96/213/70
f 93/215/37 90/210/37 65/214/37
f 96/213/37 100/221/37 93/215/37
f 100/221/37 97/222/37 93/215/37
f 100/221/37 104/223/37 97/222/37
f 104/223/37 102/224/37 97/222/37
f 104/223/37 108/225/37 102/224/37
f 108/225/37 105/226/37 102/224/37
f 108/225/37 112/126/37 105/226/37
f 112/126/37 109/227/37 105/226/37
f 112/126/37 116/228/37 109/227/37
f 116/228/37 113/229/37 109/227/37
f 116/228/37 120/230/37 113/229/37
f 120/230/37 118/231/37 113/229/37
f 120/230/38 124/232/38 118/231/38
f 124/232/38 121/233/38 118/231/38
f 124/232/37 128/234/37 121/233/37
f 128/234/37 125/235/37 121/233/37
f 128/234/37 132/236/37 125/235/37
f 132/236/37 130/237/37 125/235/37
f 132/236/37 136/238/37 130/237/37
f 136/238/37 134/239/37 130/237/37
f 136/238/37 140/240/37 134/239/37
f 140/240/37 138/241/37 134/239/37
f 140/240/37 142/242/37 138/241/37
f 85/144/71 87/243/71 59/244/71
f 87/243/72 88/204/72 56/245/72
f 137/246/73 141/247/73 139/248/73
f 133/249/41 137/246/41 139/248/41
f 133/249/41 139/248/41 135/250/41
f 129/251/41 133/249/41 135/250/41
f 129/251/41 135/250/41 131/252/41
f 126/253/41 129/251/41 131/252/41
f 126/253/41 131/252/41 127/254/41
f 122/255/41 126/253/41 127/254/41
f 122/255/41 127/254/41 123/256/41
f 117/257/41 122/255/41 123/256/41
f 117/257/41 123/256/41 119/258/41
f 114/259/43 117/257/43 119/258/43
f 114/259/43 119/258/43 115/260/43
f 110/261/41 114/259/41 115/260/41
f 110/261/41 115/260/41 111/262/41
f 106/263/41 110/261/41 111/262/41
f 106/263/41 111/262/41 107/264/41
f 101/265/41 106/263/41 107/264/41
f 101/265/41 107/264/41 103/266/41
f 98/267/41 101/265/41 103/266/41
f 98/267/41 103/266/41 99/268/41
f 92/269/41 98/267/41 99/268/41
f 92/269/41 99/268/41 95/270/41
f 89/271/41 92/269/41 95/270/41
f 89/271/41 95/270/41 91/272/41
f 86/87/41 89/271/41 91/272/41
f 86/87/41 91/272/41 88/273/41
f 84/85/41 86/87/41 88/273/41
f 84/85/41 88/273/41 87/274/41
f 85/275/41 84/85/41 87/274/41
f 4/101/74 1/1/74 3/3/74
f 3/3/2 2/2/2 7/5/2
f 7/5/75 8/4/75 11/7/75
f 105/161/7 106/162/7 101/160/7
f 20/276/5 15/9/5 19/10/5
f 20/26/50 19/11/50 23/13/50
f 23/13/76 24/12/76 28/15/76
f 32/17/77 28/15/77 31/16/77
f 36/277/9 32/17/9 35/18/9
f 36/277/78 35/18/78 39/20/78
f 108/195/63 104/197/63 103/166/63
f 48/278/79 44/22/79 47/23/79
f 48/278/80 47/23/80 51/25/80
f 68/31/81 52/26/81 67/28/81
f 51/30/56 52/26/56 68/31/56
f 52/26/82 63/32/82 65/27/82
f 64/33/83 63/32/83 77/35/83
f 77/35/57 78/34/57 82/37/57
f 82/37/58 83/36/58 80/39/58
f 80/39/84 81/38/84 79/41/84
f 69/47/85 54/43/85 74/45/85
f 53/46/23 72/279/23 73/44/23
f 54/43/86 69/47/86 71/40/86
f 49/280/60 50/48/60 45/50/60
f 41/53/27 45/10/27 42/52/27
f 37/281/28 41/53/28 38/54/28
f 37/281/87 38/54/87 34/56/87
f 34/56/88 33/55/88 29/58/88
f 25/60/63 29/58/63 26/59/63
f 22/282/32 25/60/32 21/61/32
f 22/282/89 21/61/89 17/63/89
f 17/63/34 18/62/34 13/65/34
f 13/173/90 14/66/90 9/68/90
f 50/48/25 49/280/25 53/46/25
f 9/68/40 10/67/40 5/103/40
f 48/114/41 51/105/41 61/112/41
f 56/119/91 55/111/91 49/117/91
f 58/283/74 84/143/74 60/145/74
f 55/203/92 56/245/92 88/204/92
f 62/154/93 76/149/93 89/151/93
f 90/153/3 89/151/3 66/150/3
f 16/8/94 15/9/94 11/7/94
f 89/151/94 90/153/94 92/156/94
f 98/284/5 92/156/5 97/157/5
f 98/285/6 97/158/6 101/160/6
f 43/21/11 44/22/11 39/20/11
f 110/164/8 106/162/8 109/163/8
f 114/286/9 110/164/9 113/165/9
f 114/286/95 113/165/95 117/167/95
f 117/167/54 118/166/54 122/169/54
f 126/287/12 122/169/12 125/170/12
f 126/287/96 125/170/96 129/172/96
f 129/66/56 130/173/56 133/175/56
f 133/175/83 134/174/83 137/177/83
f 137/177/97 138/176/97 141/179/97
f 139/288/58 141/179/58 140/180/58
f 139/288/59 140/180/59 135/182/59
f 4/101/71 5/103/71 6/102/71
f 131/289/25 132/183/25 127/185/25
f 127/185/60 128/184/60 123/187/60
f 119/191/98 123/188/98 120/190/98
f 115/290/28 119/191/28 116/192/28
f 115/290/87 116/192/87 111/194/87
f 111/194/30 112/193/30 107/196/30
f 132/183/23 131/289/23 135/182/23
f 99/168/32 103/166/32 100/198/32
f 99/168/33 100/198/33 95/170/33
f 95/170/65 96/199/65 91/171/65
f 55/203/99 91/189/99 75/202/99
f 94/158/35 73/291/35 72/201/35
f 86/146/100 61/148/100 62/154/100
f 96/213/37 79/220/37 70/212/37
f 64/219/37 93/215/37 65/214/37
f 60/145/101 85/144/101 59/244/101
f 59/244/72 87/243/72 56/245/72
f 84/143/102 58/283/102 57/147/102
