# Blender v2.69 (sub 0) OBJ File: 'builder.blend'
# www.blender.org
o triangle_Circle.001
v -0.000000 2.191671 -1.107696
v -1.898043 -1.095836 -1.107696
v 1.898043 -1.095835 -1.107696
v -0.000000 2.191671 -1.107696
v -1.898043 -1.095836 -1.107696
v 1.898043 -1.095835 -1.107696
v 0.000000 2.191671 0.992343
v -1.898043 -1.095836 0.992343
v 1.898043 -1.095835 0.992343
vt 1.000000 0.693498
vt 0.630360 0.545781
vt 1.000000 0.398063
vt 0.356020 0.398063
vt 0.356020 0.000000
vt 0.712040 0.000000
vt 0.000000 0.000000
vt 0.630360 0.796126
vt 0.356020 0.686493
vt 0.630360 0.398063
vt 0.000000 0.398063
vt 0.295435 0.398063
vt 0.295435 0.754083
vt 0.712040 0.398063
vt 0.000000 0.754083
vn -0.000000 0.000000 -1.000000
vn 0.866025 0.500000 -0.000000
vn 0.000000 0.000000 1.000000
vn 0.000000 -1.000000 0.000000
vn -0.866025 0.500000 0.000000
s off
f 2/1/1 1/2/1 3/3/1
f 6/4/2 4/5/2 7/6/2
f 3/7/3 1/7/3 6/7/3
f 2/7/3 3/7/3 5/7/3
f 1/7/3 2/7/3 4/7/3
f 8/8/3 9/9/3 7/10/3
f 5/11/4 6/12/4 9/13/4
f 4/11/5 5/7/5 8/5/5
f 9/14/2 6/4/2 7/6/2
f 1/7/3 4/7/3 6/7/3
f 3/7/3 6/7/3 5/7/3
f 2/7/3 5/7/3 4/7/3
f 8/15/4 5/11/4 9/13/4
f 7/4/5 4/11/5 8/5/5
