# Blender v2.69 (sub 0) OBJ File: ''
# www.blender.org
o Circle_Circle.004
v 0.000000 0.000000 -1.000000
v -0.309017 0.000000 -0.951057
v -0.587785 0.000000 -0.809017
v -0.809017 0.000000 -0.587785
v -0.951057 0.000000 -0.309017
v -1.000000 0.000000 0.000000
v -0.951056 0.000000 0.309017
v -0.809017 0.000000 0.587785
v -0.587785 0.000000 0.809017
v -0.309017 0.000000 0.951057
v 0.000000 0.000000 1.000000
v 0.309017 0.000000 0.951056
v 0.587786 0.000000 0.809017
v 0.809017 0.000000 0.587785
v 0.951057 0.000000 0.309016
v 1.000000 0.000000 -0.000001
v 0.951056 0.000000 -0.309018
v 0.809016 0.000000 -0.587786
v 0.587784 0.000000 -0.809018
v 0.309016 0.000000 -0.951057
vn 0.000000 -1.000000 0.000000
s off
f 2//1 1//1 20//1
f 2//1 20//1 3//1
f 10//1 9//1 8//1
f 3//1 19//1 18//1
f 4//1 3//1 18//1
f 4//1 18//1 17//1
f 5//1 4//1 17//1
f 5//1 17//1 16//1
f 6//1 5//1 16//1
f 6//1 16//1 7//1
f 20//1 19//1 3//1
f 7//1 15//1 8//1
f 13//1 8//1 15//1
f 14//1 13//1 15//1
f 16//1 15//1 7//1
f 12//1 10//1 8//1
f 10//1 12//1 11//1
f 8//1 13//1 12//1
