ply
format ascii 1.0
comment Created by Blender 2.69 (sub 0) - www.blender.org, source file: 'hosts.blend'
element vertex 175
property float x
property float y
property float z
property float nx
property float ny
property float nz
property float s
property float t
property uchar red
property uchar green
property uchar blue
element face 92
property list uchar uint vertex_indices
end_header
-3.384250 -2.376909 0.984530 -0.143620 -0.435224 0.888760 0.724306 0.243225 150 123 51
-3.384250 -2.376909 0.123982 0.144322 -0.701834 -0.697531 0.774763 0.232519 150 123 51
-0.176039 -1.946636 -0.075591 0.982879 0.041963 -0.179266 0.824836 0.376909 150 100 106
-3.314866 -1.515492 0.430766 -0.037202 0.997650 0.057344 0.947666 0.575673 152 125 53
-3.384250 -2.376909 0.123982 0.144322 -0.701834 -0.697531 0.897832 0.562494 155 130 61
-6.332979 -1.946634 -1.381007 -0.844997 0.040376 -0.533189 0.947666 0.376909 150 123 51
-3.314866 -1.515492 0.430766 -0.037202 0.997650 0.057344 0.880258 0.208165 150 123 51
-3.384250 -2.376909 0.984530 -0.143620 -0.435224 0.888760 0.824836 0.218342 150 123 51
-0.176039 -1.946636 -0.075591 0.982879 0.041963 -0.179266 0.847566 0.018815 255 255 255
-6.332979 -1.946634 -1.381007 -0.844997 0.040376 -0.533189 0.880258 0.376909 150 123 51
-0.003062 -0.334007 -0.075592 0.982971 0.039186 -0.179418 0.521017 0.700564 150 100 106
-3.211273 -0.764280 0.984530 -0.170019 -0.418226 0.892270 0.420487 0.566880 150 123 51
-3.211273 -0.764280 0.123982 0.158818 -0.727287 -0.667653 0.470944 0.556174 150 123 51
-2.972799 0.099254 0.404454 -0.001526 0.999847 0.016602 0.049055 0.813139 152 126 55
-3.211273 -0.764280 0.123982 0.158818 -0.727287 -0.667653 0.000000 0.790482 150 123 51
-6.160004 -0.334006 -1.381009 -0.850246 0.041627 -0.524674 0.049055 0.604690 150 123 51
-2.972799 0.099254 0.404454 -0.001526 0.999847 0.016602 0.897832 0.556046 150 123 51
-3.211273 -0.764280 0.984530 -0.170019 -0.418226 0.892270 0.842645 0.576403 150 123 51
-0.003062 -0.334007 -0.075592 0.982971 0.039186 -0.179418 0.865669 0.376909 255 255 255
-6.160004 -0.334006 -1.381009 -0.850246 0.041627 -0.524674 0.897832 0.735052 150 123 51
0.126671 1.647435 -0.075592 0.982971 0.039186 -0.179418 0.732881 0.700564 150 100 106
-3.081540 1.217162 0.984529 -0.170019 -0.418226 0.892270 0.632351 0.566880 150 123 51
-3.081540 1.217162 0.123982 0.158818 -0.727287 -0.667653 0.682808 0.556174 150 123 51
-2.843066 2.080695 0.404454 -0.001526 0.999847 0.016602 0.168007 0.813139 150 123 51
-3.081540 1.217162 0.123982 0.158818 -0.727287 -0.667653 0.118952 0.790482 150 123 51
-6.030272 1.647436 -1.381008 -0.850246 0.041658 -0.524674 0.168007 0.604690 150 123 51
-2.843066 2.080695 0.404454 -0.001526 0.999847 0.016602 0.935445 0.197903 150 123 51
-3.081540 1.217162 0.984529 -0.170019 -0.418226 0.892270 0.880258 0.218260 150 123 51
0.126671 1.647435 -0.075592 0.982971 0.039186 -0.179418 0.903282 0.018767 255 255 255
-6.030272 1.647436 -1.381008 -0.850246 0.041658 -0.524674 0.935445 0.376909 150 123 51
-0.021711 1.730733 0.220509 -0.980224 -0.035951 -0.194525 0.521017 0.376909 255 255 255
3.186500 2.161007 1.280630 0.203162 0.431867 0.878719 0.419372 0.204137 150 123 51
3.186500 2.161007 0.420083 -0.185553 0.717765 -0.671072 0.469904 0.193371 150 123 51
2.750623 1.295001 0.801073 -0.033326 -0.992798 0.114933 0.793162 0.799802 150 123 51
3.186500 2.161007 0.420083 -0.185553 0.717765 -0.671072 0.842645 0.828657 150 123 51
6.135231 1.730733 -1.084908 0.850581 -0.043672 -0.524003 0.799750 0.982752 150 123 51
2.750623 1.295001 0.801073 -0.033326 -0.992798 0.114933 0.947666 0.403271 150 123 51
3.186500 2.161007 1.280630 0.203162 0.431867 0.878719 0.992857 0.376909 150 123 51
-0.021711 1.730733 0.220509 -0.980224 -0.035951 -0.194525 0.992857 0.562152 150 100 106
3.186500 2.161007 1.280630 0.203162 0.431867 0.878719 0.897832 0.782907 150 123 51
2.750623 1.295001 0.801073 -0.033326 -0.992798 0.114933 0.952077 0.751986 150 123 51
6.135231 1.730733 -1.084908 0.850581 -0.043672 -0.524003 0.952077 0.941716 150 123 51
0.362151 -0.359180 0.220509 -0.982757 -0.040498 -0.180303 0.724306 0.376909 59 39 41
3.570361 0.071094 1.280631 0.158696 0.428785 0.889340 0.622661 0.204137 150 123 51
3.570361 0.071094 0.420083 -0.154088 0.712455 -0.684561 0.673194 0.193371 150 123 51
3.408139 -0.791485 0.721691 0.017426 -0.998932 0.042543 0.049055 0.784695 150 123 51
3.570361 0.071094 0.420083 -0.154088 0.712455 -0.684561 0.100162 0.798284 150 123 51
6.519093 -0.359180 -1.084907 0.847560 -0.041139 -0.529069 0.057267 0.952379 150 123 51
3.408139 -0.791485 0.721691 0.017426 -0.998932 0.042543 0.982174 0.376909 150 123 51
3.570361 0.071094 1.280631 0.158696 0.428785 0.889340 0.935445 0.374562 150 123 51
0.362151 -0.359180 0.220509 -0.982757 -0.040498 -0.180303 0.982174 0.195311 150 100 106
3.570361 0.071094 1.280631 0.158696 0.428785 0.889340 0.168007 0.801953 150 123 51
3.408139 -0.791485 0.721691 0.017426 -0.998932 0.042543 0.219638 0.783575 150 123 51
6.519093 -0.359180 -1.084907 0.847560 -0.041139 -0.529069 0.219638 0.961632 150 123 51
0.490104 -1.894626 0.220509 -0.980224 -0.035951 -0.194525 0.622661 0.376909 59 39 41
3.698315 -1.464352 1.280631 0.203162 0.431867 0.878719 0.521017 0.204137 150 123 51
3.698315 -1.464352 0.420083 -0.185553 0.717765 -0.671072 0.571549 0.193371 150 123 51
3.262439 -2.330359 0.801073 -0.033326 -0.992798 0.114933 0.732881 0.799802 150 123 51
3.698315 -1.464352 0.420083 -0.185553 0.717765 -0.671072 0.782363 0.828657 150 123 51
6.647046 -1.894627 -1.084907 0.850581 -0.043672 -0.523972 0.739469 0.982752 150 123 52
3.262439 -2.330359 0.801073 -0.033326 -0.992798 0.114933 0.935445 0.036430 150 123 51
3.698315 -1.464352 1.280631 0.203162 0.431867 0.878719 0.980636 0.010068 150 123 51
0.490104 -1.894626 0.220509 -0.980224 -0.035951 -0.194525 0.980636 0.195311 150 100 106
3.698315 -1.464352 1.280631 0.203162 0.431867 0.878719 0.842645 0.765973 150 123 51
3.262439 -2.330359 0.801073 -0.033326 -0.992798 0.114933 0.896890 0.735052 150 123 51
6.647046 -1.894627 -1.084907 0.850581 -0.043672 -0.523972 0.896890 0.924782 150 123 51
-0.178361 -1.439128 -0.914026 -0.175420 -0.196448 -0.964660 0.349178 0.280083 59 39 41
0.269801 -2.697832 -0.192194 0.287393 -0.814051 -0.504654 0.383023 0.357135 150 100 106
-0.933178 -2.374175 -0.129034 -0.786462 -0.470321 -0.400281 0.312624 0.338133 177 138 143
-0.933178 -2.374175 -0.129034 -0.786462 -0.470321 -0.400281 0.419372 0.677103 127 119 100
-0.000001 -3.212751 1.623862 0.082095 -0.993713 -0.075777 0.338847 0.576103 115 111 88
-0.265617 -3.000621 4.405041 -0.333445 -0.886715 0.320139 0.348507 0.408610 115 111 88
-0.933178 -2.374175 -0.129034 -0.786462 -0.470321 -0.400281 0.324674 0.604690 115 111 88
-0.861944 -1.603088 5.238993 -0.729942 0.253334 0.634816 0.000000 0.581146 115 111 88
-0.315098 -1.048923 1.090169 -0.643025 0.501602 0.578692 0.246050 0.521869 115 111 88
0.938427 -1.799184 -0.510161 0.787652 -0.289926 -0.543596 0.210781 0.355529 115 111 88
0.728692 -1.192091 0.877033 0.879757 0.347484 0.324442 0.191920 0.274465 115 111 88
0.886170 -2.464981 4.850076 0.796350 -0.340495 0.499832 0.239184 0.032527 115 111 88
0.000000 -2.161461 5.252386 0.015870 -0.378216 0.925565 0.686799 0.891814 150 100 106
0.886170 -2.464981 4.850076 0.796350 -0.340495 0.499832 0.645159 0.931592 115 111 88
0.168093 -1.273697 5.219659 0.307993 0.703024 0.640980 0.652822 0.850009 150 100 106
-0.265617 -3.000621 4.405041 -0.333445 -0.886715 0.320139 0.716023 0.924336 150 100 106
0.886170 -2.464981 4.850076 0.796350 -0.340495 0.499832 0.645159 0.931592 150 100 106
0.228452 1.772516 1.088331 0.490646 -0.722160 0.487533 0.463038 0.712147 115 111 88
-0.784097 1.767864 0.873807 -0.887936 -0.275521 0.368267 0.521017 0.700564 115 111 88
-0.315098 -1.048923 1.090169 -0.643025 0.501602 0.578692 0.521017 0.872308 115 111 88
0.935909 2.256437 -0.562630 0.771905 0.314005 -0.552721 0.032739 0.369685 115 111 88
-0.007791 1.970075 -0.944052 0.011353 0.280648 -0.959716 0.359535 0.075434 59 39 41
0.935909 2.256437 -0.562630 0.771905 0.314005 -0.552721 0.419372 0.058903 59 39 41
-0.784097 1.767864 0.873807 -0.887936 -0.275521 0.368267 0.241426 0.394968 115 111 88
-0.910525 2.259219 -0.574148 -0.739433 0.358806 -0.569597 0.324674 0.369685 115 111 88
0.228452 1.772516 1.088331 0.490646 -0.722160 0.487533 0.082028 0.270894 117 114 91
-0.910525 2.259219 -0.574148 -0.739433 0.358806 -0.569597 0.310095 0.059129 64 43 45
-0.258211 3.274245 0.272003 -0.274758 0.892056 -0.358745 0.357704 0.000000 66 44 46
0.893187 2.941031 4.778227 0.720542 0.502518 0.477737 0.001435 0.051490 115 111 88
0.708966 2.044624 2.795650 0.896878 -0.399335 -0.189947 0.049460 0.168284 115 111 88
0.935909 2.256437 -0.562630 0.771905 0.314005 -0.552721 0.032739 0.369685 116 112 89
0.744170 3.167160 0.467382 0.612812 0.754936 -0.233436 0.000000 0.310818 115 111 88
-0.258211 3.274245 0.272003 -0.274758 0.892056 -0.358745 0.557186 0.646270 115 111 88
-0.077647 3.341716 4.542318 -0.127079 0.879971 0.457686 0.572190 0.390136 115 111 88
0.744170 3.167160 0.467382 0.612812 0.754936 -0.233436 0.617877 0.635591 115 111 88
0.228452 1.772516 1.088331 0.490646 -0.722160 0.487533 0.947666 0.743112 115 111 88
-0.708964 2.044624 2.795650 -0.885250 -0.370312 -0.281381 1.000000 0.637656 115 111 88
-0.784097 1.767864 0.873807 -0.887936 -0.275521 0.368267 1.000000 0.751986 115 111 88
-0.933591 3.157617 3.822427 -0.802271 0.571184 0.173406 0.560296 0.697379 115 111 88
-0.910525 2.259219 -0.574148 -0.739433 0.358806 -0.569597 0.560296 0.959878 115 111 88
-0.708964 2.044624 2.795650 -0.885250 -0.370312 -0.281381 0.521017 0.760740 115 111 88
0.000001 1.725544 2.674212 -0.073153 -0.698508 -0.711814 0.092556 0.176184 115 111 88
0.228452 1.772516 1.088331 0.490646 -0.722160 0.487533 0.082028 0.270894 115 111 88
-0.230875 1.910370 5.520664 -0.342479 0.158818 0.925993 0.580715 0.812616 115 111 88
0.893187 2.941031 4.778227 0.720542 0.502518 0.477737 0.632351 0.895815 115 111 88
-0.077647 3.341716 4.542318 -0.127079 0.879971 0.457686 0.570846 0.906576 119 115 92
-0.933591 3.157617 3.822427 -0.802271 0.571184 0.173406 0.248126 0.629684 115 111 88
-0.230875 1.910370 5.520664 -0.342479 0.158818 0.925993 0.168007 0.693918 115 111 88
-0.077647 3.341716 4.542318 -0.127079 0.879971 0.457686 0.199948 0.604690 115 111 88
-0.942644 -0.125288 3.437532 -0.760521 -0.593585 -0.263039 0.324674 0.780624 115 111 88
-0.708964 2.044624 2.795650 -0.885250 -0.370312 -0.281381 0.324674 0.658933 115 111 88
0.091315 -0.184190 5.523795 -0.015656 -0.586566 0.809717 0.201116 0.783575 115 111 88
-0.230875 1.910370 5.520664 -0.342479 0.158818 0.925993 0.168007 0.693918 150 100 106
0.784110 -0.358690 4.197023 0.679983 -0.731956 0.042817 0.151189 0.077603 115 111 88
-0.176039 -1.946636 -0.075591 0.982879 0.041963 -0.179266 0.903464 0.751986 59 39 41
-6.160004 -0.334006 -1.381009 -0.850246 0.041627 -0.524674 0.521017 0.376909 150 123 51
-0.003062 -0.334007 -0.075592 0.982971 0.039186 -0.179418 0.006426 0.979948 102 76 79
6.519093 -0.359180 -1.084907 0.847560 -0.041139 -0.529069 0.724306 0.000000 150 123 51
0.126671 1.647435 -0.075592 0.982971 0.039186 -0.179418 0.125379 0.979948 242 235 237
-0.021711 1.730733 0.220509 -0.980224 -0.035951 -0.194525 0.842645 0.635063 64 42 44
0.362151 -0.359180 0.220509 -0.982757 -0.040498 -0.180303 0.100162 0.604690 59 39 41
6.647046 -1.894627 -1.084907 0.850581 -0.043672 -0.523972 0.622661 0.000000 150 123 51
-6.030272 1.647436 -1.381008 -0.850246 0.041658 -0.524674 0.732881 0.376909 150 123 51
0.490104 -1.894626 0.220509 -0.980224 -0.035951 -0.194525 0.782364 0.635063 59 39 41
6.135231 1.730733 -1.084908 0.850581 -0.043672 -0.524003 0.521017 0.000000 150 123 51
0.269801 -2.697832 -0.192194 0.287393 -0.814051 -0.504654 0.383023 0.357135 59 39 41
0.938427 -1.799184 -0.510161 0.787652 -0.289926 -0.543596 0.419372 0.302347 72 50 52
-0.861944 -1.603088 5.238993 -0.729942 0.253334 0.634816 0.419372 0.357135 115 111 88
0.938427 -1.799184 -0.510161 0.787652 -0.289926 -0.543596 0.210781 0.355529 150 100 106
-0.000001 -3.212751 1.623862 0.082095 -0.993713 -0.075777 0.310095 0.225743 150 100 106
0.269801 -2.697832 -0.192194 0.287393 -0.814051 -0.504654 0.277445 0.335433 150 100 106
0.269801 -2.697832 -0.192194 0.287393 -0.814051 -0.504654 0.347940 0.686622 118 108 91
0.728692 -1.192091 0.877033 0.879757 0.347484 0.324442 0.459295 0.889735 115 111 88
0.886170 -2.464981 4.850076 0.796350 -0.340495 0.499832 0.239184 0.032527 150 100 106
-0.265617 -3.000621 4.405041 -0.333445 -0.886715 0.320139 0.310095 0.060166 150 100 106
0.168093 -1.273697 5.219659 0.307993 0.703024 0.640980 0.793041 0.376909 115 111 88
-0.315098 -1.048923 1.090169 -0.643025 0.501602 0.578692 0.778829 0.626303 115 111 88
-0.861944 -1.603088 5.238993 -0.729942 0.253334 0.634816 0.732881 0.379410 118 115 92
0.728692 -1.192091 0.877033 0.879757 0.347484 0.324442 0.842645 0.635063 115 111 88
0.886170 -2.464981 4.850076 0.796350 -0.340495 0.499832 0.842645 0.395601 115 111 88
-0.861944 -1.603088 5.238993 -0.729942 0.253334 0.634816 0.716023 0.837532 150 100 106
0.000000 -2.161461 5.252386 0.015870 -0.378216 0.925565 0.357808 0.360116 150 100 106
-0.861944 -1.603088 5.238993 -0.729942 0.253334 0.634816 0.419372 0.357135 150 100 106
-0.265617 -3.000621 4.405041 -0.333445 -0.886715 0.320139 0.348507 0.408610 150 100 106
-0.933178 -2.374175 -0.129034 -0.786462 -0.470321 -0.400281 0.312624 0.338133 59 39 41
-0.258211 3.274245 0.272003 -0.274758 0.892056 -0.358745 0.557186 0.646270 66 44 46
0.935909 2.256437 -0.562630 0.771905 0.314005 -0.552721 0.632351 0.697378 59 39 41
-0.708964 2.044624 2.795650 -0.885250 -0.370312 -0.281381 0.125326 0.384881 115 111 88
-0.910525 2.259219 -0.574148 -0.739433 0.358806 -0.569597 0.419372 0.686622 115 111 88
-0.933591 3.157617 3.822427 -0.802271 0.571184 0.173406 0.419372 0.955987 115 111 88
-0.258211 3.274245 0.272003 -0.274758 0.892056 -0.358745 0.356308 0.748512 115 111 88
-0.933591 3.157617 3.822427 -0.802271 0.571184 0.173406 0.521017 0.432379 115 111 88
0.893187 2.941031 4.778227 0.720542 0.502518 0.477737 0.632351 0.376909 115 111 88
-0.077647 3.341716 4.542318 -0.127079 0.879971 0.457686 0.572190 0.390136 119 115 92
0.000001 1.725544 2.674212 -0.073153 -0.698508 -0.711814 0.954007 0.647162 115 111 88
0.091315 -0.184190 5.523795 -0.015656 -0.586566 0.809717 0.171132 0.000000 117 110 89
0.249286 -0.132485 2.915668 0.251289 -0.620960 -0.742424 0.163849 0.156146 115 111 88
-0.230875 1.910370 5.520664 -0.342479 0.158818 0.925993 0.580715 0.812616 144 102 103
0.091315 -0.184190 5.523795 -0.015656 -0.586566 0.809717 0.632351 0.697379 117 110 89
0.708966 2.044624 2.795650 0.896878 -0.399335 -0.189947 0.632351 0.837532 115 111 88
0.249286 -0.132485 2.915668 0.251289 -0.620960 -0.742424 0.651193 0.705259 115 111 88
0.000001 1.725544 2.674212 -0.073153 -0.698508 -0.711814 0.674446 0.816088 115 111 88
-0.942644 -0.125288 3.437532 -0.760521 -0.593585 -0.263039 0.716023 0.700564 115 111 88
-0.708964 2.044624 2.795650 -0.885250 -0.370312 -0.281381 0.716023 0.832471 116 112 89
0.249286 -0.132485 2.915668 0.251289 -0.620960 -0.742424 0.254890 0.924104 115 111 88
0.784110 -0.358690 4.197023 0.679983 -0.731956 0.042817 0.254522 0.840165 115 111 88
-0.942644 -0.125288 3.437532 -0.760521 -0.593585 -0.263039 0.324674 0.918644 115 111 88
0.091315 -0.184190 5.523795 -0.015656 -0.586566 0.809717 0.324674 0.783575 115 111 88
-6.332979 -1.946634 -1.381007 -0.844997 0.040376 -0.533189 0.824836 0.053255 150 123 51
3 0 1 2
3 3 4 5
3 6 7 8
3 7 6 9
3 10 11 12
3 13 14 15
3 16 17 18
3 17 16 19
3 20 21 22
3 23 24 25
3 26 27 28
3 27 26 29
3 30 31 32
3 33 34 35
3 36 37 38
3 39 40 41
3 42 43 44
3 45 46 47
3 48 49 50
3 51 52 53
3 54 55 56
3 57 58 59
3 60 61 62
3 63 64 65
3 66 67 68
3 69 70 71
3 72 73 74
3 75 76 77
3 78 79 80
3 81 82 78
3 83 84 85
3 75 86 76
3 66 87 88
3 72 89 90
3 86 91 76
3 87 92 93
3 87 93 88
3 94 95 86
3 94 96 97
3 98 99 100
3 101 102 103
3 104 105 106
3 107 108 95
3 109 110 111
3 112 113 114
3 115 112 116
3 115 117 118
3 119 95 94
3 120 4 3
3 12 11 121
3 13 122 14
3 44 43 123
3 23 124 24
3 72 74 89
3 33 125 34
3 45 126 46
3 56 55 127
3 22 21 128
3 57 129 58
3 32 31 130
3 131 66 132
3 133 69 71
3 134 135 136
3 69 137 70
3 83 85 138
3 135 139 140
3 141 142 143
3 144 142 141
3 144 141 145
3 135 75 77
3 146 78 80
3 147 148 149
3 66 150 92
3 66 92 87
3 132 66 88
3 95 108 86
3 151 100 152
3 90 89 153
3 154 155 156
3 99 98 157
3 158 100 159
3 101 160 102
3 112 115 118
3 94 161 119
3 95 119 162
3 110 163 164
3 165 166 167
3 167 168 169
3 170 171 172
3 172 171 173
3 167 166 168
3 1 0 174
