ply
format ascii 1.0
comment Created by Blender 2.69 (sub 0) - www.blender.org, source file: 'hosts2-anim.blend'
element vertex 244
property float x
property float y
property float z
property float nx
property float ny
property float nz
property float s
property float t
property uchar red
property uchar green
property uchar blue
element face 112
property list uchar uint vertex_indices
end_header
0.345241 -0.776897 6.703453 0.891934 0.076113 -0.445662 0.041581 0.963182 254 255 253
0.222848 -0.863963 6.637260 0.107913 -0.481582 -0.869686 0.041581 0.964369 254 255 253
0.212537 -0.700311 6.644577 0.041841 0.566698 -0.822840 0.040460 0.963652 254 255 253
0.222848 -0.863963 6.637260 0.107913 -0.481582 -0.869686 0.040949 0.958616 254 255 253
0.345241 -0.776897 6.703453 0.891934 0.076113 -0.445662 0.040109 0.958046 254 255 253
0.295931 -0.916371 6.774570 0.576067 -0.817316 0.009857 0.040848 0.957289 254 255 253
0.345241 -0.776897 6.703453 0.891934 0.076113 -0.445662 0.039429 0.961116 254 255 253
0.212537 -0.700311 6.644577 0.041841 0.566698 -0.822840 0.038391 0.960677 254 255 253
0.279249 -0.651575 6.786411 0.469192 0.878903 0.085696 0.039584 0.960104 254 255 253
0.345241 -0.776897 6.703453 0.891934 0.076113 -0.445662 0.038454 0.964386 254 255 253
0.279249 -0.651575 6.786411 0.469192 0.878903 0.085696 0.038444 0.963191 254 255 253
0.330789 -0.785110 6.866751 0.799371 0.023499 0.600360 0.039584 0.963690 254 255 253
0.295931 -0.916371 6.774570 0.576067 -0.817316 0.009857 0.039584 0.965003 254 255 253
0.295931 -0.916371 6.774570 0.576067 -0.817316 0.009857 0.040848 0.957289 255 255 255
0.132752 -0.925986 6.759647 -0.469192 -0.878903 -0.085696 0.042045 0.957861 254 255 253
0.212537 -0.700311 6.644577 0.041841 0.566698 -0.822840 0.040460 0.963652 255 255 255
0.222848 -0.863963 6.637260 0.107913 -0.481582 -0.869686 0.041581 0.964369 254 254 254
0.081212 -0.792451 6.679308 -0.799371 -0.023499 -0.600360 0.040422 0.964967 255 255 255
0.212537 -0.700311 6.644577 0.041841 0.566698 -0.822840 0.038391 0.960677 255 255 253
0.116070 -0.661189 6.771488 -0.576067 0.817316 -0.009857 0.038486 0.959352 254 255 253
0.330789 -0.785110 6.866751 0.799371 0.023499 0.600360 0.062540 0.964870 255 255 254
0.279249 -0.651575 6.786411 0.469192 0.878903 0.085696 0.061832 0.964011 255 255 255
0.189153 -0.713597 6.908798 -0.107913 0.481582 0.869716 0.062556 0.963572 255 255 255
0.295931 -0.916371 6.774570 0.576067 -0.817316 0.009857 0.063657 0.965154 254 255 254
0.330789 -0.785110 6.866751 0.799371 0.023499 0.600360 0.062540 0.964870 254 255 253
0.199464 -0.877250 6.901480 -0.041841 -0.566698 0.822840 0.063684 0.964278 254 255 253
0.222848 -0.863963 6.637260 0.107913 -0.481582 -0.869686 0.040949 0.958616 255 255 255
0.081212 -0.792451 6.679308 -0.799371 -0.023499 -0.600360 0.042045 0.958972 255 255 255
0.212537 -0.700311 6.644577 0.041841 0.566698 -0.822840 0.038391 0.960677 255 255 255
0.081212 -0.792451 6.679308 -0.799371 -0.023499 -0.600360 0.037653 0.959900 255 255 255
0.279249 -0.651575 6.786411 0.469192 0.878903 0.085696 0.039584 0.960104 255 255 255
0.189153 -0.713597 6.908798 -0.107913 0.481582 0.869716 0.039584 0.958972 255 255 255
0.330789 -0.785110 6.866751 0.799371 0.023499 0.600360 0.062540 0.964870 255 255 255
0.199464 -0.877250 6.901480 -0.041841 -0.566698 0.822840 0.063684 0.964278 255 255 255
0.295931 -0.916371 6.774570 0.576067 -0.817316 0.009857 0.040848 0.957289 254 254 254
0.199464 -0.877250 6.901480 -0.041841 -0.566698 0.822840 0.041881 0.956826 255 255 255
0.132752 -0.925986 6.759647 -0.469192 -0.878903 -0.085696 0.042045 0.957861 255 255 255
0.081212 -0.792451 6.679308 -0.799371 -0.023499 -0.600360 0.041581 0.961592 5 5 5
0.132752 -0.925986 6.759647 -0.469192 -0.878903 -0.085696 0.041581 0.962869 0 0 0
0.066760 -0.800664 6.842606 -0.891934 -0.076113 0.445662 0.040531 0.962366 0 0 0
0.116070 -0.661189 6.771488 -0.576067 0.817316 -0.009857 0.040347 0.961116 1 1 1
0.189153 -0.713597 6.908798 -0.107913 0.481582 0.869716 0.039584 0.962099 0 0 0
0.199464 -0.877250 6.901480 -0.041841 -0.566698 0.822840 0.063684 0.964278 0 0 0
0.189153 -0.713597 6.908798 -0.107913 0.481582 0.869716 0.062556 0.963572 0 0 0
0.066760 -0.800664 6.842606 -0.891934 -0.076113 0.445662 0.063684 0.963054 0 0 0
0.199464 -0.877250 6.901480 -0.041841 -0.566698 0.822840 0.040347 0.963182 0 0 0
0.884807 -0.942808 6.760707 0.469192 -0.878903 -0.085696 0.039584 0.961386 0 0 0
0.950800 -0.817486 6.843665 0.891934 -0.076113 0.445662 0.038474 0.961942 0 0 0
0.818096 -0.894072 6.902539 0.041841 -0.566698 0.822840 0.038407 0.961116 0 0 0
0.818096 -0.894072 6.902539 0.041841 -0.566698 0.822840 0.063684 0.961829 0 0 0
0.950800 -0.817486 6.843665 0.891934 -0.076113 0.445662 0.063684 0.963054 0 0 0
0.828407 -0.730419 6.909858 0.107913 0.481582 0.869716 0.062556 0.962536 0 0 0
0.828407 -0.730419 6.909858 0.107913 0.481582 0.869716 0.037679 0.962232 0 0 0
0.901489 -0.678011 6.772548 0.576067 0.817316 -0.009857 0.038407 0.963191 1 1 1
0.936347 -0.809273 6.680367 0.799371 -0.023499 -0.600360 0.039584 0.962668 5 5 5
0.721628 -0.933193 6.775630 -0.576067 -0.817316 0.009857 0.038388 0.958509 254 254 254
0.884807 -0.942808 6.760707 0.469192 -0.878903 -0.085696 0.039584 0.957937 255 255 255
0.818096 -0.894072 6.902539 0.041841 -0.566698 0.822840 0.039421 0.958972 255 255 255
0.686770 -0.801932 6.867810 -0.799371 0.023499 0.600360 0.062540 0.961237 255 255 255
0.818096 -0.894072 6.902539 0.041841 -0.566698 0.822840 0.063684 0.961829 255 255 255
0.828407 -0.730419 6.909858 0.107913 0.481582 0.869716 0.062556 0.962536 255 255 255
0.738310 -0.668396 6.787471 -0.469192 0.878903 0.085696 0.042045 0.959985 255 255 255
0.828407 -0.730419 6.909858 0.107913 0.481582 0.869716 0.042045 0.961116 255 255 255
0.901489 -0.678011 6.772548 0.576067 0.817316 -0.009857 0.040947 0.960737 254 255 253
0.805023 -0.717133 6.645637 -0.041841 0.566698 -0.822840 0.040851 0.959412 255 255 255
0.936347 -0.809273 6.680367 0.799371 -0.023499 -0.600360 0.040113 0.960189 255 255 255
0.794712 -0.880785 6.638320 -0.107913 -0.481582 -0.869686 0.038489 0.957182 255 255 255
0.936347 -0.809273 6.680367 0.799371 -0.023499 -0.600360 0.039584 0.956826 255 255 255
0.884807 -0.942808 6.760707 0.469192 -0.878903 -0.085696 0.039584 0.957937 254 255 253
0.721628 -0.933193 6.775630 -0.576067 -0.817316 0.009857 0.063657 0.960953 254 255 254
0.818096 -0.894072 6.902539 0.041841 -0.566698 0.822840 0.063684 0.961829 254 255 253
0.686770 -0.801932 6.867810 -0.799371 0.023499 0.600360 0.062540 0.961237 254 255 253
0.686770 -0.801932 6.867810 -0.799371 0.023499 0.600360 0.062540 0.961237 255 255 254
0.738310 -0.668396 6.787471 -0.469192 0.878903 0.085696 0.061832 0.962097 255 255 255
0.738310 -0.668396 6.787471 -0.469192 0.878903 0.085696 0.042045 0.959985 254 255 253
0.805023 -0.717133 6.645637 -0.041841 0.566698 -0.822840 0.040851 0.959412 255 255 253
0.805023 -0.717133 6.645637 -0.041841 0.566698 -0.822840 0.064835 0.961488 255 255 255
0.936347 -0.809273 6.680367 0.799371 -0.023499 -0.600360 0.064835 0.962774 255 255 255
0.794712 -0.880785 6.638320 -0.107913 -0.481582 -0.869686 0.063710 0.962197 254 254 254
0.794712 -0.880785 6.638320 -0.107913 -0.481582 -0.869686 0.038489 0.957182 254 255 253
0.721628 -0.933193 6.775630 -0.576067 -0.817316 0.009857 0.038388 0.958509 255 255 255
0.672319 -0.793719 6.704513 -0.891934 0.076113 -0.445662 0.064823 0.963324 254 255 253
0.721628 -0.933193 6.775630 -0.576067 -0.817316 0.009857 0.064824 0.964602 254 255 253
0.686770 -0.801932 6.867810 -0.799371 0.023499 0.600360 0.063693 0.964027 254 255 253
0.738310 -0.668396 6.787471 -0.469192 0.878903 0.085696 0.063684 0.962774 254 255 253
0.672319 -0.793719 6.704513 -0.891934 0.076113 -0.445662 0.041890 0.958972 254 255 253
0.805023 -0.717133 6.645637 -0.041841 0.566698 -0.822840 0.040851 0.959412 254 255 253
0.721628 -0.933193 6.775630 -0.576067 -0.817316 0.009857 0.038388 0.958509 254 255 253
0.672319 -0.793719 6.704513 -0.891934 0.076113 -0.445662 0.037648 0.957752 254 255 253
0.672319 -0.793719 6.704513 -0.891934 0.076113 -0.445662 0.063684 0.960953 254 255 253
0.805023 -0.717133 6.645637 -0.041841 0.566698 -0.822840 0.064835 0.961488 254 255 253
0.794712 -0.880785 6.638320 -0.107913 -0.481582 -0.869686 0.063710 0.962197 254 255 253
0.499761 0.905309 7.949079 0.965150 0.121827 0.231610 0.022970 0.089506 255 238 141
0.842582 -0.452654 7.234789 0.965150 0.121827 0.231610 0.257018 0.578786 255 238 141
0.842583 0.905308 6.520497 0.965150 0.121827 0.231610 0.512724 0.089114 194 202 149
0.419702 -1.493494 6.353690 -0.000000 -0.465527 -0.885033 0.043530 0.953336 193 201 147
0.156940 -0.452654 5.806209 -0.000000 -0.465527 -0.885033 0.047632 0.960983 194 202 149
0.842582 -0.452654 5.806209 -0.000000 -0.465527 -0.885033 0.042280 0.962456 193 201 147
0.156940 -0.452654 5.806209 0.000000 -0.465529 -0.885033 0.047632 0.960983 195 202 150
0.499761 0.905308 5.091917 0.000000 -0.465529 -0.885033 0.047632 0.972433 193 201 147
0.842582 -0.452654 5.806209 0.000000 -0.465529 -0.885033 0.042280 0.962456 193 201 147
0.560795 -1.568853 6.647667 0.000000 -0.465528 0.885033 0.033208 0.953336 194 202 148
0.842582 -0.452654 7.234789 0.000000 -0.465528 0.885033 0.037648 0.961804 255 238 141
0.156940 -0.452654 7.234789 0.000000 -0.465528 0.885033 0.032247 0.963134 255 238 141
0.499761 0.905309 7.949079 0.000000 -0.465528 0.885033 0.037648 0.973436 255 238 141
0.156940 0.905309 6.520497 -0.965150 0.121827 -0.231611 0.507217 0.089112 193 201 147
0.499761 0.905308 5.091917 -0.965150 0.121827 -0.231611 0.974499 0.084506 193 201 147
0.156940 -0.452654 5.806209 -0.965150 0.121827 -0.231611 0.747617 0.582244 202 208 162
0.499761 0.905309 7.949079 -0.965150 0.121828 0.231610 0.001683 0.084506 255 238 141
0.156940 0.905309 6.520497 -0.965150 0.121828 0.231610 0.507217 0.089112 193 201 147
0.156940 -0.452654 7.234789 -0.965150 0.121828 0.231610 0.261209 0.582244 255 238 141
0.156940 -0.452654 7.234789 -1.000000 0.000000 -0.000000 0.261209 0.582244 255 238 141
0.156940 0.905309 6.520497 -1.000000 0.000000 -0.000000 0.507217 0.089112 193 201 147
0.156940 -0.452654 5.806209 -1.000000 0.000000 -0.000000 0.747617 0.582244 194 202 148
0.842583 0.905308 6.520497 0.965150 0.121827 -0.231610 0.512724 0.089114 194 202 149
0.842582 -0.452654 5.806209 0.965150 0.121827 -0.231610 0.746629 0.584897 194 202 149
0.499761 0.905308 5.091917 0.965150 0.121827 -0.231610 1.002191 0.101728 193 201 147
0.842583 0.905308 6.520497 1.000000 -0.000000 0.000000 0.512724 0.089114 193 201 148
0.842582 -0.452654 7.234789 1.000000 -0.000000 0.000000 0.257018 0.578786 255 238 141
0.842582 -0.452654 5.806209 1.000000 -0.000000 0.000000 0.746629 0.584897 193 201 147
0.842582 -0.452654 7.234789 0.969580 -0.244773 0.000000 0.257018 0.578786 255 238 141
0.560795 -1.568853 6.647667 0.969580 -0.244773 0.000000 0.449162 0.991648 193 201 147
0.714818 -0.958746 6.515912 0.969580 -0.244773 0.000000 0.499279 0.767917 193 201 147
0.842582 -0.452654 5.806209 0.969580 -0.244773 0.000000 0.746629 0.584897 194 202 148
0.842582 -0.452654 7.234789 0.969580 -0.244773 0.000000 0.257018 0.578786 254 238 141
0.579820 -1.493494 6.353690 0.969580 -0.244773 -0.000000 0.550528 0.965201 196 203 152
0.842582 -0.452654 5.806209 0.969580 -0.244773 -0.000000 0.746629 0.584897 193 201 147
0.156940 0.905309 6.520497 0.000001 1.000000 -0.000000 0.056576 0.965966 193 201 147
0.499761 0.905309 7.949079 0.000001 1.000000 -0.000000 0.056576 0.957471 255 238 141
0.842583 0.905308 6.520497 0.000001 1.000000 -0.000000 0.061832 0.964144 193 201 147
0.284704 -0.958746 6.515912 -0.969580 -0.244773 0.000000 0.497803 0.764310 193 201 147
0.438727 -1.568853 6.647667 -0.969580 -0.244773 0.000000 0.443090 0.983795 193 201 147
0.156940 -0.452654 7.234789 -0.969580 -0.244773 0.000000 0.261209 0.582244 255 238 141
0.156940 -0.452654 7.234789 -0.969580 -0.244773 -0.000000 0.261209 0.582244 250 235 141
0.156940 -0.452654 5.806209 -0.969580 -0.244773 -0.000000 0.747617 0.582244 193 201 147
0.156940 -0.452654 5.806209 -0.969580 -0.244773 -0.000000 0.747617 0.582244 196 203 151
0.419702 -1.493494 6.353690 -0.969580 -0.244773 -0.000000 0.544401 0.956685 193 201 147
1.718102 0.281855 6.762992 -0.258576 -0.004510 0.965980 0.065290 0.950650 255 255 255
1.723063 -0.002545 6.762992 -0.258576 -0.004510 0.965980 0.065290 0.952952 255 255 255
2.207431 0.143903 6.893332 -0.258576 -0.004510 0.965980 0.060933 0.951843 255 255 255
1.235977 -0.006793 6.672559 -0.182514 -0.003183 0.983198 0.069647 0.952910 255 255 255
1.243417 -0.433394 6.672559 -0.182514 -0.003183 0.983198 0.069647 0.956362 255 255 255
1.728023 -0.286946 6.762992 -0.182514 -0.003183 0.983198 0.065290 0.955253 255 255 255
2.207431 0.143903 6.893332 -0.541009 -0.009436 0.840964 0.060933 0.951843 255 255 255
2.212391 -0.140497 6.893332 -0.541009 -0.009436 0.840964 0.060933 0.954144 255 255 255
2.646195 0.005951 7.174050 -0.541009 -0.009436 0.840964 0.056576 0.953035 255 255 255
2.212391 -0.140497 6.893332 -0.258576 -0.004510 0.965980 0.060933 0.954144 255 255 255
1.728023 -0.286946 6.762992 -0.258576 -0.004510 0.965980 0.065290 0.955253 255 255 255
1.723063 -0.002545 6.762992 -0.182514 -0.003183 0.983198 0.065290 0.952952 255 255 255
1.718102 0.281855 6.762992 -0.182514 -0.003183 0.983198 0.065290 0.950650 255 255 255
0.698976 -0.011041 6.672559 0.000000 0.000000 1.000000 0.074003 0.952868 255 255 255
1.235977 -0.006793 6.672559 0.000000 0.000000 1.000000 0.069647 0.952910 255 255 255
1.228536 0.419808 6.672559 0.000000 0.000000 1.000000 0.069647 0.949458 255 255 255
0.698976 -0.011041 6.672559 -0.000001 -0.000002 1.000000 0.074003 0.952868 255 255 255
0.708897 -0.579842 6.672558 -0.000001 -0.000002 1.000000 0.074003 0.957471 255 255 255
1.243417 -0.433394 6.672559 -0.000001 -0.000002 1.000000 0.069647 0.956362 255 255 255
0.284704 -0.958746 6.515912 0.000000 -0.290298 0.956936 0.037648 0.953336 0 0 0
0.419702 -1.493494 6.353690 0.000000 -0.290298 0.956936 0.042045 0.954431 170 175 143
0.579820 -1.493494 6.353690 0.000000 -0.290298 0.956936 0.042045 0.955730 170 175 143
0.714818 -0.958746 6.515912 0.000000 -0.211088 -0.977467 0.061832 0.957471 2 2 2
0.560795 -1.568853 6.647667 0.000000 -0.211088 -0.977467 0.066786 0.958766 163 168 137
0.438727 -1.568853 6.647667 0.000000 -0.211088 -0.977467 0.066786 0.959754 169 174 142
1.718102 0.281855 6.762992 0.258576 0.004510 -0.965980 0.052104 0.956097 193 201 147
2.207431 0.143903 6.893332 0.258576 0.004510 -0.965980 0.054340 0.952181 202 209 162
1.723063 -0.002545 6.762992 0.258576 0.004510 -0.965980 0.054340 0.956669 193 201 147
1.235977 -0.006793 6.672559 0.182514 0.003183 -0.983198 0.053222 0.960870 193 201 147
1.723063 -0.002545 6.762992 0.182514 0.003183 -0.983198 0.054340 0.956669 193 201 147
1.728023 -0.286946 6.762992 0.182514 0.003183 -0.983198 0.056576 0.957240 193 201 147
2.207431 0.143903 6.893332 0.541009 0.009436 -0.840964 0.054340 0.952181 193 201 147
2.646195 0.005951 7.174050 0.541009 0.009436 -0.840964 0.056576 0.948265 196 203 152
2.212391 -0.140497 6.893332 0.541009 0.009436 -0.840964 0.056576 0.952753 193 201 147
2.207431 0.143903 6.893332 0.258576 0.004510 -0.965980 0.054340 0.952181 193 201 147
2.212391 -0.140497 6.893332 0.258576 0.004510 -0.965980 0.056576 0.952753 193 201 147
1.723063 -0.002545 6.762992 0.258576 0.004510 -0.965980 0.054340 0.956669 201 207 160
1.728023 -0.286946 6.762992 0.258576 0.004510 -0.965980 0.056576 0.957240 193 201 147
1.228536 0.419808 6.672559 0.182514 0.003183 -0.983198 0.049868 0.960013 193 201 147
1.718102 0.281855 6.762992 0.182514 0.003183 -0.983198 0.052104 0.956097 193 201 147
0.698976 -0.011041 6.672559 -0.000000 -0.000000 -1.000000 0.052104 0.965072 202 210 165
0.689056 0.557760 6.672559 -0.000000 -0.000000 -1.000000 0.047632 0.963929 194 202 149
1.228536 0.419808 6.672559 -0.000000 -0.000000 -1.000000 0.049868 0.960013 193 201 147
0.698976 -0.011041 6.672559 -0.000000 0.000000 -1.000000 0.052104 0.965072 193 201 147
1.235977 -0.006793 6.672559 -0.000000 0.000000 -1.000000 0.053222 0.960870 193 201 147
1.243417 -0.433394 6.672559 -0.000000 0.000000 -1.000000 0.056576 0.961727 193 201 147
0.579820 -1.493494 6.353690 0.000000 -0.465528 -0.885033 0.042280 0.953680 193 201 147
0.419702 -1.493494 6.353690 0.000000 -0.465528 -0.885033 0.043530 0.953336 193 201 147
0.842582 -0.452654 5.806209 0.000000 -0.465528 -0.885033 0.042280 0.962456 193 201 147
0.438727 -1.568853 6.647667 0.000000 -0.465528 0.885033 0.032247 0.953573 194 201 148
0.499761 0.905308 5.091917 0.000001 1.000000 -0.000000 0.061832 0.972639 196 203 150
1.228536 0.419808 6.672559 -0.182514 -0.003183 0.983198 0.069647 0.949458 255 255 255
0.689056 0.557760 6.672559 0.000000 0.000000 1.000000 0.074003 0.948265 255 255 255
1.243417 -0.433394 6.672559 0.000000 -0.000000 1.000000 0.069647 0.956362 255 255 255
0.714818 -0.958746 6.515912 0.000000 -0.290298 0.956936 0.037648 0.956826 9 9 7
0.284704 -0.958746 6.515912 -0.000000 -0.211088 -0.977467 0.061832 0.960953 0 0 0
1.243417 -0.433394 6.672559 0.182514 0.003183 -0.983198 0.056576 0.961727 193 201 147
0.708897 -0.579842 6.672558 0.000001 0.000002 -1.000000 0.056576 0.966215 200 207 159
0.698976 -0.011041 6.672559 0.000001 0.000002 -1.000000 0.052104 0.965072 193 201 147
1.243417 -0.433394 6.672559 0.000001 0.000002 -1.000000 0.056576 0.961727 193 201 147
-0.743431 0.281855 6.762992 -0.258576 0.004510 -0.965980 0.065290 0.950650 255 255 255
-0.748391 -0.002545 6.762992 -0.258576 0.004510 -0.965980 0.065290 0.952952 255 255 255
-1.232759 0.143903 6.893332 -0.258576 0.004510 -0.965980 0.060933 0.951843 255 255 255
-0.261305 -0.006793 6.672559 -0.182514 0.003183 -0.983198 0.069647 0.952910 255 255 255
-0.268745 -0.433394 6.672559 -0.182514 0.003183 -0.983198 0.069647 0.956362 255 255 255
-0.753351 -0.286946 6.762992 -0.182514 0.003183 -0.983198 0.065290 0.955253 255 255 255
-1.232759 0.143903 6.893332 -0.541009 0.009436 -0.840964 0.060933 0.951843 255 255 255
-1.237719 -0.140497 6.893332 -0.541009 0.009436 -0.840964 0.060933 0.954144 255 255 255
-1.671524 0.005951 7.174050 -0.541009 0.009436 -0.840964 0.056576 0.953035 255 255 255
-1.237719 -0.140497 6.893332 -0.258576 0.004510 -0.965980 0.060933 0.954144 255 255 255
-0.753351 -0.286946 6.762992 -0.258576 0.004510 -0.965980 0.065290 0.955253 255 255 255
-0.748391 -0.002545 6.762992 -0.182514 0.003183 -0.983198 0.065290 0.952952 255 255 255
-0.743431 0.281855 6.762992 -0.182514 0.003183 -0.983198 0.065290 0.950650 255 255 255
0.275695 -0.011041 6.672559 0.000000 -0.000000 -1.000000 0.074003 0.952868 255 255 255
-0.261305 -0.006793 6.672559 0.000000 -0.000000 -1.000000 0.069647 0.952910 255 255 255
-0.253865 0.419808 6.672559 0.000000 -0.000000 -1.000000 0.069647 0.949458 255 255 255
0.275695 -0.011041 6.672559 -0.000001 0.000002 -1.000000 0.074003 0.952868 255 255 255
0.265775 -0.579842 6.672558 -0.000001 0.000002 -1.000000 0.074003 0.957471 255 255 255
-0.268745 -0.433394 6.672559 -0.000001 0.000002 -1.000000 0.069647 0.956362 255 255 255
-0.743431 0.281855 6.762992 0.258576 -0.004510 0.965980 0.052104 0.956097 193 201 147
-1.232759 0.143903 6.893332 0.258576 -0.004510 0.965980 0.054340 0.952181 202 209 162
-0.748391 -0.002545 6.762992 0.258576 -0.004510 0.965980 0.054340 0.956669 193 201 147
-0.261305 -0.006793 6.672559 0.182514 -0.003183 0.983198 0.053222 0.960870 193 201 147
-0.748391 -0.002545 6.762992 0.182514 -0.003183 0.983198 0.054340 0.956669 193 201 147
-0.753351 -0.286946 6.762992 0.182514 -0.003183 0.983198 0.056576 0.957240 193 201 147
-1.232759 0.143903 6.893332 0.541009 -0.009436 0.840964 0.054340 0.952181 193 201 147
-1.671524 0.005951 7.174050 0.541009 -0.009436 0.840964 0.056576 0.948265 196 203 152
-1.237719 -0.140497 6.893332 0.541009 -0.009436 0.840964 0.056576 0.952753 193 201 147
-1.232759 0.143903 6.893332 0.258576 -0.004510 0.965980 0.054340 0.952181 193 201 147
-1.237719 -0.140497 6.893332 0.258576 -0.004510 0.965980 0.056576 0.952753 193 201 147
-0.748391 -0.002545 6.762992 0.258576 -0.004510 0.965980 0.054340 0.956669 201 207 160
-0.753351 -0.286946 6.762992 0.258576 -0.004510 0.965980 0.056576 0.957240 193 201 147
-0.253865 0.419808 6.672559 0.182514 -0.003183 0.983198 0.049868 0.960013 193 201 147
-0.743431 0.281855 6.762992 0.182514 -0.003183 0.983198 0.052104 0.956097 193 201 147
0.275695 -0.011041 6.672559 -0.000000 0.000000 1.000000 0.052104 0.965072 202 210 165
0.285616 0.557760 6.672559 -0.000000 0.000000 1.000000 0.047632 0.963929 194 202 149
-0.253865 0.419808 6.672559 -0.000000 0.000000 1.000000 0.049868 0.960013 193 201 147
0.275695 -0.011041 6.672559 -0.000000 0.000000 1.000000 0.052104 0.965072 193 201 147
-0.261305 -0.006793 6.672559 -0.000000 0.000000 1.000000 0.053222 0.960870 193 201 147
-0.268745 -0.433394 6.672559 -0.000000 0.000000 1.000000 0.056576 0.961727 193 201 147
-0.253865 0.419808 6.672559 -0.182514 0.003183 -0.983198 0.069647 0.949458 255 255 255
0.285616 0.557760 6.672559 0.000000 0.000000 -1.000000 0.074003 0.948265 255 255 255
-0.268745 -0.433394 6.672559 0.000000 0.000000 -1.000000 0.069647 0.956362 255 255 255
-0.268745 -0.433394 6.672559 0.182514 -0.003183 0.983198 0.056576 0.961727 193 201 147
0.265775 -0.579842 6.672558 0.000001 -0.000002 1.000000 0.056576 0.966215 200 207 159
0.275695 -0.011041 6.672559 0.000001 -0.000002 1.000000 0.052104 0.965072 193 201 147
-0.268745 -0.433394 6.672559 0.000001 -0.000002 1.000000 0.056576 0.961727 193 201 147
3 0 1 2
3 3 4 5
3 6 7 8
3 9 10 11
3 9 11 12
3 3 13 14
3 15 16 17
3 8 18 19
3 20 21 22
3 23 24 25
3 26 14 27
3 28 29 19
3 30 19 31
3 32 22 33
3 34 35 36
3 37 38 39
3 40 37 39
3 41 40 39
3 42 43 44
3 38 45 39
3 46 47 48
3 49 50 51
3 52 47 53
3 53 47 54
3 54 47 46
3 55 56 57
3 58 59 60
3 61 62 63
3 64 63 65
3 66 67 68
3 69 70 71
3 72 60 73
3 74 63 75
3 76 77 78
3 79 68 80
3 81 82 83
3 81 83 84
3 85 74 86
3 79 87 88
3 89 90 91
3 92 93 94
3 95 96 97
3 98 99 100
3 101 102 103
3 102 104 103
3 105 106 107
3 108 109 110
3 111 112 113
3 114 115 116
3 117 118 119
3 120 121 122
3 122 123 124
3 122 125 126
3 127 128 129
3 130 131 132
3 133 134 130
3 135 136 130
3 137 138 139
3 140 141 142
3 143 144 145
3 139 138 146
3 138 147 146
3 140 148 149
3 150 151 152
3 153 154 155
3 156 157 158
3 159 160 161
3 162 163 164
3 165 166 167
3 168 169 170
3 171 172 173
3 164 172 174
3 165 175 176
3 177 178 179
3 180 181 182
3 183 184 185
3 186 101 103
3 187 127 129
3 148 140 142
3 188 140 149
3 189 150 152
3 151 150 190
3 191 156 158
3 192 159 161
3 193 165 167
3 166 165 176
3 181 177 179
3 194 195 196
3 197 198 199
3 200 201 202
3 203 204 205
3 199 198 206
3 198 207 206
3 200 208 209
3 210 211 212
3 213 214 215
3 216 217 218
3 219 220 221
3 222 223 224
3 225 226 227
3 218 226 228
3 219 229 230
3 231 232 233
3 234 235 236
3 208 200 202
3 237 200 209
3 238 210 212
3 211 210 239
3 240 219 221
3 220 219 230
3 235 231 233
3 241 242 243
