ply
format ascii 1.0
comment Created by Blender 2.69 (sub 0) - www.blender.org, source file: 'hosts2-anim.blend'
element vertex 82
property float x
property float y
property float z
property float nx
property float ny
property float nz
property float s
property float t
property uchar red
property uchar green
property uchar blue
element face 50
property list uchar uint vertex_indices
end_header
-0.644532 -1.962163 0.675444 0.057588 -0.350841 -0.934629 0.052476 0.927263 254 255 253
-0.361023 -2.169669 1.066534 0.624622 -0.765862 -0.152440 0.054148 0.919866 254 255 253
-0.882883 -2.232717 1.058035 -0.419080 -0.891964 -0.169439 0.046231 0.920260 254 255 253
-0.252966 -1.685839 0.891565 0.840724 0.201788 -0.502396 0.056970 0.927274 254 255 253
-1.097360 -1.787847 0.877810 -0.848018 -0.002228 -0.529893 0.044160 0.927912 254 255 253
-0.708042 -1.449858 0.774927 -0.069399 0.673727 -0.735679 0.050797 0.932247 254 255 253
-0.249315 -1.785611 1.407728 0.848018 0.002228 0.529893 0.053701 0.918920 254 255 253
-0.882883 -2.232717 1.058035 -0.419080 -0.891964 -0.169439 0.046231 0.920260 0 0 0
-0.361023 -2.169669 1.066534 0.624622 -0.765862 -0.152440 0.054148 0.919866 0 0 0
-0.638634 -2.123600 1.510612 0.069399 -0.673727 0.735679 0.045775 0.913744 0 0 0
-0.882883 -2.232717 1.058035 -0.419080 -0.891964 -0.169439 0.046231 0.920260 254 254 249
-1.093710 -1.887619 1.393973 -0.840724 -0.201788 0.502396 0.038403 0.919683 254 255 253
-0.708042 -1.449858 0.774927 -0.069399 0.673727 -0.735679 0.050797 0.932247 255 255 254
-1.097360 -1.787847 0.877810 -0.848018 -0.002228 -0.529893 0.044160 0.927912 255 255 255
-0.985653 -1.403790 1.219004 -0.624622 0.765862 0.152440 0.041773 0.928529 255 255 255
-0.463792 -1.340741 1.227504 0.419080 0.891964 0.169439 0.051228 0.928058 254 255 253
-0.249315 -1.785611 1.407728 0.848018 0.002228 0.529893 0.053701 0.918920 0 0 0
-1.093710 -1.887619 1.393973 -0.840724 -0.201788 0.502396 0.038403 0.919683 0 0 0
-0.985653 -1.403790 1.219004 -0.624622 0.765862 0.152440 0.041773 0.928529 254 255 253
-0.708042 -1.449858 0.774927 -0.069399 0.673727 -0.735679 0.050797 0.932247 255 255 255
-0.463792 -1.340741 1.227504 0.419080 0.891964 0.169439 0.051228 0.928058 255 255 255
-0.252966 -1.685839 0.891565 0.840724 0.201788 -0.502396 0.056970 0.927274 253 253 252
-0.249315 -1.785611 1.407728 0.848018 0.002228 0.529893 0.053701 0.918920 255 255 255
-0.702144 -1.611295 1.610095 -0.057588 0.350841 0.934629 0.042582 0.918663 0 0 0
-0.702144 -1.611295 1.610095 -0.057588 0.350841 0.934629 0.042582 0.918663 254 255 253
1.661251 -1.549955 0.674294 0.057588 -0.350841 -0.934629 0.090917 0.927073 254 255 253
1.935381 -1.765382 1.067780 0.605853 -0.781732 -0.147649 0.096293 0.919555 254 255 253
1.412160 -1.814752 1.054062 -0.440565 -0.880459 -0.175085 0.088389 0.920171 254 255 253
2.057760 -1.284285 0.894720 0.850612 0.180456 -0.493789 0.099321 0.926881 254 255 253
1.661251 -1.549955 0.674294 0.057588 -0.350841 -0.934629 0.090917 0.927073 252 253 251
1.211164 -1.364159 0.872520 -0.842555 0.020722 -0.538194 0.086533 0.927878 254 255 253
1.610174 -1.036313 0.774041 -0.044527 0.676412 -0.735130 0.093289 0.932025 254 255 253
2.057760 -1.284285 0.894720 0.850612 0.180456 -0.493789 0.099321 0.926881 250 250 247
2.053725 -1.384884 1.410719 0.842555 -0.020722 0.538194 0.104136 0.918461 255 255 254
1.412160 -1.814752 1.054062 -0.440565 -0.880459 -0.175085 0.088389 0.920171 0 0 0
1.935381 -1.765382 1.067780 0.605853 -0.781732 -0.147649 0.096293 0.919555 0 0 0
1.654715 -1.712730 1.509197 0.044527 -0.676412 0.735130 0.096068 0.913509 0 0 0
1.207130 -1.464758 1.388519 -0.850612 -0.180456 0.493789 0.088865 0.919651 254 255 253
1.610174 -1.036313 0.774041 -0.044527 0.676412 -0.735130 0.093289 0.932025 145 137 95
1.211164 -1.364159 0.872520 -0.842555 0.020722 -0.538194 0.086533 0.927878 231 229 218
1.329509 -0.983660 1.215459 -0.605853 0.781732 0.147649 0.092481 0.928400 153 146 108
1.852729 -0.934291 1.229177 0.440565 0.880459 0.175085 0.101919 0.927664 254 255 253
1.935381 -1.765382 1.067780 0.605853 -0.781732 -0.147649 0.096293 0.919555 9 9 9
2.053725 -1.384884 1.410719 0.842555 -0.020722 0.538194 0.104136 0.918461 0 0 0
1.207130 -1.464758 1.388519 -0.850612 -0.180456 0.493789 0.088865 0.919651 0 0 0
1.329509 -0.983660 1.215459 -0.605853 0.781732 0.147649 0.092481 0.928400 254 255 253
1.610174 -1.036313 0.774041 -0.044527 0.676412 -0.735130 0.093289 0.932025 250 249 247
1.329509 -0.983660 1.215459 -0.605853 0.781732 0.147649 0.092481 0.928400 255 255 255
1.852729 -0.934291 1.229177 0.440565 0.880459 0.175085 0.101919 0.927664 255 255 255
2.057760 -1.284285 0.894720 0.850612 0.180456 -0.493789 0.099321 0.926881 255 255 255
1.603638 -1.199087 1.608945 -0.057588 0.350841 0.934629 0.099988 0.918379 0 0 0
1.603638 -1.199087 1.608945 -0.057588 0.350841 0.934629 0.099988 0.918379 254 255 253
-2.329968 -2.144504 0.627769 0.002568 -0.024532 -0.999696 0.051333 0.927715 115 177 186
-0.323782 3.235870 0.500889 0.002568 -0.024532 -0.999696 0.071958 0.963438 115 177 186
3.333943 -1.190914 0.618919 0.002568 -0.024532 -0.999696 0.092582 0.927715 115 177 186
3.333943 -1.190914 0.618919 0.770999 0.636690 -0.013644 0.103399 0.924656 206 229 232
-0.323782 3.235870 0.500889 0.770999 0.636690 -0.013644 0.079075 0.972558 115 177 186
1.502509 1.047043 1.560935 0.770999 0.636690 -0.013644 0.094498 0.945846 115 177 186
-0.323782 3.235870 0.500889 -0.937012 0.349126 -0.010975 0.079262 0.966463 115 177 186
-2.329968 -2.144504 0.627769 -0.937012 0.349126 -0.010975 0.048231 0.919134 229 241 242
-1.329447 0.570248 1.565360 -0.937012 0.349126 -0.010975 0.063653 0.945846 115 177 186
0.499416 -1.643144 1.624375 0.347575 -0.107635 0.931454 0.494422 0.150105 115 177 186
3.333943 -1.190914 0.618919 0.347575 -0.107635 0.931454 0.976644 0.150105 115 177 186
1.502509 1.047043 1.560935 0.347575 -0.107635 0.931454 0.735533 0.567721 115 177 186
-1.329447 0.570248 1.565360 -0.002568 0.024532 0.999696 0.253311 0.567721 115 177 186
0.499416 -1.643144 1.624375 -0.002568 0.024532 0.999696 0.494422 0.150105 115 177 186
1.502509 1.047043 1.560935 -0.002568 0.024532 0.999696 0.735533 0.567721 115 177 186
-2.329968 -2.144504 0.627769 0.166013 -0.985816 0.024618 0.051333 0.927715 71 79 81
3.333943 -1.190914 0.618919 0.166013 -0.985816 0.024618 0.098154 0.922997 115 177 186
0.499416 -1.643144 1.624375 0.166013 -0.985816 0.024618 0.071798 0.922997 115 177 186
-2.329968 -2.144504 0.627769 -0.290337 -0.215036 0.932451 0.012200 0.150105 157 198 205
0.499416 -1.643144 1.624375 -0.290337 -0.215036 0.932451 0.494422 0.150105 115 177 186
-1.329447 0.570248 1.565360 -0.290337 -0.215036 0.932451 0.253311 0.567721 115 177 186
-1.329447 0.570248 1.565360 -0.064385 0.390943 0.918160 0.253311 0.567721 115 177 186
1.502509 1.047043 1.560935 -0.064385 0.390943 0.918160 0.735533 0.567721 115 177 186
-0.323782 3.235870 0.500889 -0.064385 0.390943 0.918160 0.494422 0.985338 115 177 186
0.404519 4.915905 -0.857777 0.944708 -0.327913 0.000000 0.000000 0.000000 116 178 187
0.404519 4.915905 2.342789 0.944708 -0.327913 0.000000 0.000000 0.000000 176 207 255
-0.504380 2.297390 0.742506 0.944708 -0.327913 0.000000 0.000000 0.000000 115 177 186
0.396728 4.918610 -0.857777 -0.944708 0.327913 -0.000000 0.000000 0.000000 176 207 255
-0.512172 2.300095 0.742506 -0.944708 0.327913 -0.000000 0.000000 0.000000 176 207 255
0.396727 4.918610 2.342789 -0.944708 0.327913 -0.000000 0.000000 0.000000 176 207 255
3 0 1 2
3 1 0 3
3 0 2 4
3 0 4 5
3 0 5 3
3 1 3 6
3 7 8 9
3 4 10 11
3 12 13 14
3 3 5 15
3 8 16 9
3 7 9 17
3 4 11 18
3 19 14 20
3 21 20 22
3 9 16 23
3 17 9 23
3 18 11 24
3 15 18 24
3 6 15 24
3 25 26 27
3 26 25 28
3 29 27 30
3 29 30 31
3 29 31 28
3 26 32 33
3 34 35 36
3 30 27 37
3 38 39 40
3 28 31 41
3 42 43 36
3 34 36 44
3 30 37 45
3 46 47 48
3 49 48 33
3 36 43 50
3 44 36 50
3 45 37 51
3 41 45 51
3 33 41 51
3 52 53 54
3 55 56 57
3 58 59 60
3 61 62 63
3 64 65 66
3 67 68 69
3 70 71 72
3 73 74 75
3 76 77 78
3 79 80 81
