ply
format ascii 1.0
comment Created by Blender 2.69 (sub 0) - www.blender.org, source file: 'hosts2-anim.blend'
element vertex 188
property float x
property float y
property float z
property float nx
property float ny
property float nz
property float s
property float t
property uchar red
property uchar green
property uchar blue
element face 84
property list uchar uint vertex_indices
end_header
-1.336289 -1.098176 1.009154 0.000000 0.895169 -0.445662 0.073940 0.943786 254 255 253
-1.091769 -1.512483 0.797144 0.489029 0.066561 -0.869686 0.075106 0.938627 254 255 253
-1.616841 -1.500815 0.820580 -0.561083 0.089877 -0.822840 0.069584 0.938902 254 255 253
-0.904614 -1.293526 1.236931 0.863338 0.504471 0.009857 0.077074 0.943793 254 255 253
-1.754203 -1.274644 1.274858 -0.835810 0.542222 0.085696 0.068140 0.944238 254 255 253
-1.314015 -1.146533 1.532176 0.044527 0.798456 0.600360 0.072769 0.947261 254 255 253
-0.904614 -1.293526 1.236931 0.863338 0.504471 0.009857 0.077074 0.943793 255 255 255
-0.918375 -1.816898 1.189136 0.835810 -0.542222 -0.085696 0.074794 0.937968 254 255 253
-1.616841 -1.500815 0.820580 -0.561083 0.089877 -0.822840 0.069584 0.938902 255 255 255
-1.091769 -1.512483 0.797144 0.489029 0.066561 -0.869686 0.075106 0.938627 254 254 254
-1.358563 -1.945009 0.931818 -0.044527 -0.798456 -0.600360 0.069266 0.934358 255 255 255
-1.616841 -1.500815 0.820580 -0.561083 0.089877 -0.822840 0.069584 0.938902 255 255 253
-1.767964 -1.798016 1.227062 -0.863338 -0.504471 -0.009857 0.064125 0.938500 254 255 253
-1.314015 -1.146533 1.532176 0.044527 0.798456 0.600360 0.072769 0.947261 255 255 254
-1.754203 -1.274644 1.274858 -0.835810 0.542222 0.085696 0.068140 0.944238 255 255 255
-1.580809 -1.579060 1.666850 -0.489029 -0.066561 0.869686 0.066476 0.944669 255 255 255
-0.904614 -1.293526 1.236931 0.863338 0.504471 0.009857 0.077074 0.943793 254 255 254
-1.055737 -1.590727 1.643414 0.561083 -0.089877 0.822840 0.073069 0.944340 254 255 253
-1.091769 -1.512483 0.797144 0.489029 0.066561 -0.869686 0.075106 0.938627 255 255 255
-1.314015 -1.146533 1.532176 0.044527 0.798456 0.600360 0.072769 0.947261 255 255 255
-1.055737 -1.590727 1.643414 0.561083 -0.089877 0.822840 0.073069 0.944340 255 255 255
-0.904614 -1.293526 1.236931 0.863338 0.504471 0.009857 0.077074 0.943793 254 254 254
-0.918375 -1.816898 1.189136 0.835810 -0.542222 -0.085696 0.074794 0.937968 255 255 255
-1.358563 -1.945009 0.931818 -0.044527 -0.798456 -0.600360 0.069266 0.934358 5 5 5
-0.918375 -1.816898 1.189136 0.835810 -0.542222 -0.085696 0.074794 0.937968 0 0 0
-1.336289 -1.993366 1.454840 0.000000 -0.895169 0.445662 0.067040 0.937788 0 0 0
-1.767964 -1.798016 1.227062 -0.863338 -0.504471 -0.009857 0.064125 0.938500 1 1 1
-1.580809 -1.579060 1.666850 -0.489029 -0.066561 0.869686 0.066476 0.944669 0 0 0
-1.055737 -1.590727 1.643414 0.561083 -0.089877 0.822840 0.073069 0.944340 0 0 0
1.515790 -1.010607 0.990403 0.000000 0.895169 -0.445662 0.100748 0.943653 254 255 253
1.749742 -1.427895 0.772403 0.467879 0.060579 -0.881680 0.104497 0.938410 254 255 253
1.225608 -1.409687 0.808974 -0.580370 0.097018 -0.808527 0.098985 0.938840 254 255 253
1.950564 -1.211357 1.207332 0.869533 0.493667 -0.011811 0.106608 0.943519 254 255 253
1.515790 -1.010607 0.990403 0.000000 0.895169 -0.445662 0.100748 0.943653 252 253 251
1.102492 -1.181892 1.266514 -0.826594 0.552599 0.106510 0.097690 0.944215 254 255 253
1.550547 -1.059319 1.512711 0.069491 0.797754 0.598926 0.102402 0.947107 254 255 253
1.950564 -1.211357 1.207332 0.869533 0.493667 -0.011811 0.106608 0.943519 250 250 247
1.929088 -1.734509 1.159978 0.826594 -0.552599 -0.106510 0.109966 0.937647 255 255 254
1.225608 -1.409687 0.808974 -0.580370 0.097018 -0.808527 0.098985 0.938840 218 218 218
1.749742 -1.427895 0.772403 0.467879 0.060579 -0.881680 0.104497 0.938410 255 255 255
1.481033 -1.857083 0.913780 -0.069491 -0.797754 -0.598926 0.104340 0.934194 255 255 255
1.081016 -1.705045 1.219159 -0.869533 -0.493667 0.011811 0.099317 0.938477 254 255 253
1.550547 -1.059319 1.512711 0.069491 0.797754 0.598926 0.102402 0.947107 255 255 255
1.102492 -1.181892 1.266514 -0.826594 0.552599 0.106510 0.097690 0.944215 255 255 255
1.281838 -1.488507 1.654089 -0.467879 -0.060579 0.881680 0.101838 0.944578 255 255 255
1.805972 -1.506715 1.617517 0.580370 -0.097018 0.808527 0.108420 0.944065 254 255 253
1.225608 -1.409687 0.808974 -0.580370 0.097018 -0.808527 0.098985 0.938840 255 255 255
1.081016 -1.705045 1.219159 -0.869533 -0.493667 0.011811 0.099317 0.938477 255 255 255
1.805972 -1.506715 1.617517 0.580370 -0.097018 0.808527 0.108420 0.944065 255 255 255
1.950564 -1.211357 1.207332 0.869533 0.493667 -0.011811 0.106608 0.943519 255 255 255
1.481033 -1.857083 0.913780 -0.069491 -0.797754 -0.598926 0.104340 0.934194 0 0 0
1.929088 -1.734509 1.159978 0.826594 -0.552599 -0.106510 0.109966 0.937647 0 0 0
1.515790 -1.905796 1.436089 0.000000 -0.895169 0.445662 0.107074 0.937590 0 0 0
1.081016 -1.705045 1.219159 -0.869533 -0.493667 0.011811 0.099317 0.938477 0 0 0
1.281838 -1.488507 1.654089 -0.467879 -0.060579 0.881680 0.101838 0.944578 0 0 0
1.805972 -1.506715 1.617517 0.580370 -0.097018 0.808527 0.108420 0.944065 0 0 0
-2.871816 -1.658044 0.610432 -0.000000 0.000000 -1.000000 0.073142 0.944101 255 255 255
0.000000 3.316087 0.610432 -0.000000 0.000000 -1.000000 0.087526 0.969014 145 137 95
2.871816 -1.658043 0.610432 -0.000000 0.000000 -1.000000 0.101909 0.944101 227 225 215
2.871816 -1.658043 0.610432 0.866025 0.500000 0.000000 0.101909 0.944101 255 255 255
0.000000 3.316087 0.610432 0.866025 0.500000 0.000000 0.087415 0.972646 145 137 95
1.435908 0.829022 1.611768 0.866025 0.500000 0.000000 0.096605 0.956728 200 196 175
0.000000 3.316087 0.610432 -0.866025 0.500000 0.000000 0.087526 0.969014 145 137 95
-2.871816 -1.658044 0.610432 -0.866025 0.500000 0.000000 0.069035 0.940811 255 255 255
-1.435908 0.829022 1.611768 -0.866025 0.500000 0.000000 0.078225 0.956728 200 196 175
0.000000 -1.658044 1.611768 0.323446 -0.186741 0.927637 0.500672 0.150922 253 253 253
2.871816 -1.658043 0.610432 0.323446 -0.186741 0.927637 0.985559 0.150922 255 255 255
1.435908 0.829022 1.611768 0.323446 -0.186741 0.927637 0.743115 0.570846 200 196 175
-1.435908 0.829022 1.611768 0.000000 0.000000 1.000000 0.258229 0.570846 198 194 173
0.000000 -1.658044 1.611768 0.000000 0.000000 1.000000 0.500672 0.150922 253 253 253
1.435908 0.829022 1.611768 0.000000 0.000000 1.000000 0.743115 0.570846 200 196 175
-2.871816 -1.658044 0.610432 0.000000 -1.000000 0.000000 0.073142 0.944101 65 65 65
2.871816 -1.658043 0.610432 0.000000 -1.000000 0.000000 0.105795 0.940811 229 228 218
0.000000 -1.658044 1.611768 0.000000 -1.000000 0.000000 0.087415 0.940811 240 239 234
-2.871816 -1.658044 0.610432 -0.323446 -0.186741 0.927637 0.015786 0.150922 251 251 251
0.000000 -1.658044 1.611768 -0.323446 -0.186741 0.927637 0.500672 0.150922 253 253 253
-1.435908 0.829022 1.611768 -0.323446 -0.186741 0.927637 0.258229 0.570846 198 194 173
-1.435908 0.829022 1.611768 -0.000000 0.373483 0.927637 0.258229 0.570846 198 194 173
1.435908 0.829022 1.611768 -0.000000 0.373483 0.927637 0.743115 0.570846 200 196 175
0.000000 3.316087 0.610432 -0.000000 0.373483 0.927637 0.500672 0.990770 145 137 95
-3.714968 0.449248 1.485102 -0.237115 -0.851074 0.468454 0.039860 0.952921 145 137 95
-3.675853 0.123376 0.912865 -0.237115 -0.851074 0.468454 0.044210 0.943797 145 137 95
-1.871737 -0.426558 0.826940 -0.237115 -0.851074 0.468454 0.075264 0.961980 253 253 252
-3.714968 0.449248 1.485102 0.506850 0.605987 0.613093 0.039860 0.952921 255 255 255
-1.871737 -0.426558 0.826940 0.506850 0.605987 0.613093 0.075811 0.961222 145 137 95
-3.417526 0.780652 0.911642 0.506850 0.605987 0.613093 0.047247 0.951823 255 255 255
-3.675853 0.123376 0.912865 0.424596 -0.168534 -0.889559 0.044210 0.943797 145 137 95
-5.362500 0.993040 -0.056953 0.424596 -0.168534 -0.889559 0.036425 0.937446 145 137 95
-3.417526 0.780652 0.911642 0.424596 -0.168534 -0.889559 0.047247 0.951823 255 255 255
-3.675853 0.123376 0.912865 -0.585078 -0.721269 0.370749 0.044210 0.943797 145 137 95
-3.714968 0.449248 1.485102 -0.585078 -0.721269 0.370749 0.039860 0.952921 145 137 95
-5.362500 0.993040 -0.056953 -0.585078 -0.721269 0.370749 0.036425 0.937446 145 137 95
-3.714968 0.449248 1.485102 -0.125726 0.885807 0.446698 0.039860 0.952921 255 255 255
-3.417526 0.780652 0.911642 -0.125726 0.885807 0.446698 0.047247 0.951823 255 255 255
-5.362500 0.993040 -0.056953 -0.125726 0.885807 0.446698 0.036115 0.938097 255 255 255
-1.871737 -0.426558 0.826940 -0.042994 0.015038 -0.998962 0.075811 0.961222 145 137 95
-3.675853 0.123376 0.912865 -0.042994 0.015038 -0.998962 0.044210 0.943797 145 137 95
-3.417526 0.780652 0.911642 -0.042994 0.015038 -0.998962 0.047247 0.951823 255 255 255
-3.225000 1.246639 1.485095 -0.230520 -0.844414 0.483555 0.039860 0.952921 145 137 95
-3.223118 0.918433 0.912858 -0.230520 -0.844414 0.483555 0.044210 0.943797 145 137 95
-1.264453 0.334523 0.826932 -0.230520 -0.844414 0.483555 0.075264 0.961980 253 253 252
-3.225000 1.246639 1.485095 0.493512 0.622460 0.607445 0.039860 0.952921 255 255 255
-1.264453 0.334523 0.826932 0.493512 0.622460 0.607445 0.075811 0.961222 145 137 95
-2.891871 1.542147 0.911634 0.493512 0.622460 0.607445 0.047247 0.951823 255 255 255
-3.223118 0.918433 0.912858 0.410854 -0.219935 -0.884776 0.044210 0.943797 145 137 95
-4.781106 1.909460 -0.056954 0.410854 -0.219935 -0.884776 0.036425 0.937446 145 137 95
-2.891871 1.542147 0.911634 0.410854 -0.219935 -0.884776 0.047247 0.951823 255 255 255
-3.223118 0.918433 0.912858 -0.652443 -0.658310 0.375428 0.044210 0.943797 145 137 95
-3.225000 1.246639 1.485095 -0.652443 -0.658310 0.375428 0.039860 0.952921 145 137 95
-4.781106 1.909460 -0.056954 -0.652443 -0.658310 0.375428 0.036425 0.937446 145 137 95
-3.225000 1.246639 1.485095 -0.048330 0.899034 0.435204 0.039860 0.952921 255 255 255
-2.891871 1.542147 0.911634 -0.048330 0.899034 0.435204 0.047247 0.951823 255 255 255
-4.781106 1.909460 -0.056954 -0.048330 0.899034 0.435204 0.036115 0.938097 255 255 255
-1.264453 0.334523 0.826932 -0.038344 0.018404 -0.999095 0.075811 0.961222 145 137 95
-3.223118 0.918433 0.912858 -0.038344 0.018404 -0.999095 0.044210 0.943797 145 137 95
-2.891871 1.542147 0.911634 -0.038344 0.018404 -0.999095 0.047247 0.951823 255 255 255
-1.853786 2.808882 1.485120 -0.610107 -0.620311 0.492933 0.039860 0.952921 145 137 95
-2.044643 2.541868 0.912883 -0.610107 -0.620311 0.492933 0.044210 0.943797 145 137 95
-0.674942 1.126390 0.826922 -0.610107 -0.620311 0.492933 0.075264 0.961980 253 253 252
-1.853786 2.808882 1.485120 0.746700 0.288765 0.599211 0.039860 0.952921 255 255 255
-0.674942 1.126390 0.826922 0.746700 0.288765 0.599211 0.075811 0.961222 145 137 95
-1.410672 2.853036 0.911659 0.746700 0.288765 0.599211 0.047247 0.951823 255 255 255
-2.044643 2.541868 0.912883 0.210845 -0.433021 -0.876377 0.044210 0.943797 145 137 95
-2.664101 4.202937 -0.056890 0.210845 -0.433021 -0.876377 0.036425 0.937446 145 137 95
-1.410672 2.853036 0.911659 0.210845 -0.433021 -0.876377 0.047247 0.951823 255 255 255
-2.044643 2.541868 0.912883 -0.921075 -0.128999 0.367396 0.044210 0.943797 145 137 95
-1.853786 2.808882 1.485120 -0.921075 -0.128999 0.367396 0.039860 0.952921 145 137 95
-2.664101 4.202937 -0.056890 -0.921075 -0.128999 0.367396 0.036425 0.937446 145 137 95
-1.853786 2.808882 1.485120 0.484372 0.760299 0.432815 0.039860 0.952921 255 255 255
-1.410672 2.853036 0.911659 0.484372 0.760299 0.432815 0.047247 0.951823 255 255 255
-2.664101 4.202937 -0.056890 0.484372 0.760299 0.432815 0.036115 0.938097 255 255 255
-0.674942 1.126390 0.826922 -0.021496 0.039866 -0.998974 0.075811 0.961222 145 137 95
-2.044643 2.541868 0.912883 -0.021496 0.039866 -0.998974 0.044210 0.943797 145 137 95
-1.410672 2.853036 0.911659 -0.021496 0.039866 -0.998974 0.047247 0.951823 255 255 255
2.718900 2.152973 1.485107 -0.410536 0.780145 0.472053 0.039860 0.952921 145 137 95
2.472125 2.369364 0.912870 -0.410536 0.780145 0.472053 0.044210 0.943797 145 137 95
0.651470 1.463275 0.826940 -0.410536 0.780145 0.472053 0.075264 0.961980 253 253 252
2.718900 2.152973 1.485107 0.068078 -0.787997 0.611903 0.039860 0.952921 255 255 255
0.651470 1.463275 0.826940 0.068078 -0.787997 0.611903 0.075811 0.961222 145 137 95
2.718900 1.707664 0.911646 0.068078 -0.787997 0.611903 0.047247 0.951823 255 255 255
2.472125 2.369364 0.912870 -0.423503 -0.156291 -0.892311 0.044210 0.943797 145 137 95
4.398986 2.685046 -0.056937 -0.423503 -0.156291 -0.892311 0.036425 0.937446 145 137 95
2.718900 1.707664 0.911646 -0.423503 -0.156291 -0.892311 0.047247 0.951823 255 255 255
2.472125 2.369364 0.912870 0.020420 0.938044 0.345915 0.044210 0.943797 145 137 95
2.718900 2.152973 1.485107 0.020420 0.938044 0.345915 0.039860 0.952921 145 137 95
4.398986 2.685046 -0.056937 0.020420 0.938044 0.345915 0.036425 0.937446 145 137 95
2.718900 2.152973 1.485107 0.630858 -0.612828 0.475879 0.039860 0.952921 255 255 255
2.718900 1.707664 0.911646 0.630858 -0.612828 0.475879 0.047247 0.951823 255 255 255
4.398986 2.685046 -0.056937 0.630858 -0.612828 0.475879 0.036115 0.938097 255 255 255
0.651470 1.463275 0.826940 0.038997 0.016392 -0.999105 0.075811 0.961222 145 137 95
2.472125 2.369364 0.912870 0.038997 0.016392 -0.999105 0.044210 0.943797 145 137 95
2.718900 1.707664 0.911646 0.038997 0.016392 -0.999105 0.047247 0.951823 255 255 255
3.016988 1.402598 1.485108 -0.469193 0.739876 0.482121 0.039860 0.952921 145 137 95
2.770214 1.618989 0.912872 -0.469193 0.739876 0.482121 0.044210 0.943797 145 137 95
1.006944 0.556811 0.826932 -0.469193 0.739876 0.482121 0.075264 0.961980 253 253 252
3.016988 1.402598 1.485108 0.130392 -0.783087 0.608090 0.039860 0.952921 255 255 255
1.006944 0.556811 0.826932 0.130392 -0.783087 0.608090 0.075811 0.961222 145 137 95
3.016988 0.957289 0.911648 0.130392 -0.783087 0.608090 0.047247 0.951823 255 255 255
2.770214 1.618989 0.912872 -0.399404 -0.147280 -0.904867 0.044210 0.943797 145 137 95
4.832129 1.985700 -0.056935 -0.399404 -0.147280 -0.904867 0.036425 0.937446 145 137 95
3.016988 0.957289 0.911648 -0.399404 -0.147280 -0.904867 0.047247 0.951823 255 255 255
2.770214 1.618989 0.912872 0.000008 0.935358 0.353702 0.044210 0.943797 145 137 95
3.016988 1.402598 1.485108 0.000008 0.935358 0.353702 0.039860 0.952921 145 137 95
4.832129 1.985700 -0.056935 0.000008 0.935358 0.353702 0.036425 0.937446 145 137 95
3.016988 1.402598 1.485108 0.612461 -0.624361 0.484835 0.039860 0.952921 255 255 255
3.016988 0.957289 0.911648 0.612461 -0.624361 0.484835 0.047247 0.951823 255 255 255
4.832129 1.985700 -0.056935 0.612461 -0.624361 0.484835 0.036115 0.938097 255 255 255
1.006944 0.556811 0.826932 0.038854 0.016338 -0.999111 0.075811 0.961222 145 137 95
2.770214 1.618989 0.912872 0.038854 0.016338 -0.999111 0.044210 0.943797 145 137 95
3.016988 0.957289 0.911648 0.038854 0.016338 -0.999111 0.047247 0.951823 255 255 255
3.465585 -0.053014 1.485071 -0.275803 0.823892 0.495111 0.039860 0.952921 145 137 95
3.326782 0.244402 0.912835 -0.275803 0.823892 0.495111 0.044210 0.943797 145 137 95
1.397966 -0.349654 0.826922 -0.275803 0.823892 0.495111 0.075264 0.961980 253 253 252
3.465585 -0.053014 1.485071 -0.073728 -0.801812 0.593011 0.039860 0.952921 255 255 255
1.397966 -0.349654 0.826922 -0.073728 -0.801812 0.593011 0.075811 0.961222 145 137 95
3.286347 -0.460658 0.911611 -0.073728 -0.801812 0.593011 0.047247 0.951823 255 255 255
3.326782 0.244402 0.912835 -0.465724 0.028244 -0.884479 0.044210 0.943797 145 137 95
5.145482 -0.137587 -0.057004 -0.465724 0.028244 -0.884479 0.036425 0.937446 145 137 95
3.286347 -0.460658 0.911611 -0.465724 0.028244 -0.884479 0.047247 0.951823 255 255 255
3.326782 0.244402 0.912835 0.370132 0.857995 0.356156 0.044210 0.943797 145 137 95
3.465585 -0.053014 1.485071 0.370132 0.857995 0.356156 0.039860 0.952921 145 137 95
5.145482 -0.137587 -0.057004 0.370132 0.857995 0.356156 0.036425 0.937446 145 137 95
3.465585 -0.053014 1.485071 0.377348 -0.806418 0.455300 0.039860 0.952921 255 255 255
3.286347 -0.460658 0.911611 0.377348 -0.806418 0.455300 0.047247 0.951823 255 255 255
5.145482 -0.137587 -0.057004 0.377348 -0.806418 0.455300 0.036115 0.938097 255 255 255
1.397966 -0.349654 0.826922 0.044753 -0.000833 -0.998998 0.075811 0.961222 145 137 95
3.326782 0.244402 0.912835 0.044753 -0.000833 -0.998998 0.044210 0.943797 145 137 95
3.286347 -0.460658 0.911611 0.044753 -0.000833 -0.998998 0.047247 0.951823 255 255 255
3 0 1 2
3 1 0 3
3 0 2 4
3 0 4 5
3 0 5 3
3 1 6 7
3 8 9 10
3 4 11 12
3 13 14 15
3 16 5 17
3 18 7 10
3 8 10 12
3 14 12 15
3 19 15 20
3 21 20 22
3 23 24 25
3 26 23 25
3 27 26 25
3 28 27 25
3 24 28 25
3 29 30 31
3 30 29 32
3 33 31 34
3 33 34 35
3 33 35 32
3 30 36 37
3 38 39 40
3 34 31 41
3 42 43 44
3 32 35 45
3 39 37 40
3 46 40 47
3 43 47 44
3 42 44 48
3 49 48 37
3 50 51 52
3 53 50 52
3 54 53 52
3 55 54 52
3 51 55 52
3 56 57 58
3 59 60 61
3 62 63 64
3 65 66 67
3 68 69 70
3 71 72 73
3 74 75 76
3 77 78 79
3 80 81 82
3 83 84 85
3 86 87 88
3 89 90 91
3 92 93 94
3 95 96 97
3 98 99 100
3 101 102 103
3 104 105 106
3 107 108 109
3 110 111 112
3 113 114 115
3 116 117 118
3 119 120 121
3 122 123 124
3 125 126 127
3 128 129 130
3 131 132 133
3 134 135 136
3 137 138 139
3 140 141 142
3 143 144 145
3 146 147 148
3 149 150 151
3 152 153 154
3 155 156 157
3 158 159 160
3 161 162 163
3 164 165 166
3 167 168 169
3 170 171 172
3 173 174 175
3 176 177 178
3 179 180 181
3 182 183 184
3 185 186 187
