ply
format ascii 1.0
comment Created by Blender 2.69 (sub 0) - www.blender.org, source file: 'hosts.blend'
element vertex 83
property float x
property float y
property float z
property float nx
property float ny
property float nz
property float s
property float t
property uchar red
property uchar green
property uchar blue
element face 52
property list uchar uint vertex_indices
end_header
-2.847436 -1.838176 -0.018282 0.000000 0.000000 -1.000000 0.052476 0.927263 254 255 253
-2.358397 -2.587054 0.534503 0.489029 -0.748863 -0.447188 0.054148 0.919866 254 255 253
-3.408540 -2.534695 0.534503 -0.561083 -0.696524 -0.447188 0.046231 0.920260 254 255 253
-1.984087 -1.604497 0.534503 0.863338 0.233680 -0.447188 0.056970 0.927274 254 255 253
-3.683265 -1.519762 0.534503 -0.835810 0.318400 -0.447188 0.044160 0.927912 254 255 253
-2.802888 -0.944871 0.534503 0.044527 0.893307 -0.447188 0.050797 0.932247 254 255 253
-2.011608 -2.156589 1.428933 0.835810 -0.318400 0.447188 0.053701 0.918920 254 255 253
-3.408540 -2.534695 0.534503 -0.561083 -0.696524 -0.447188 0.046231 0.920260 0 0 0
-2.358397 -2.587054 0.534503 0.489029 -0.748863 -0.447188 0.054148 0.919866 0 0 0
-2.891984 -2.731480 1.428933 -0.044527 -0.893307 0.447188 0.045775 0.913744 0 0 0
-3.408540 -2.534695 0.534503 -0.561083 -0.696524 -0.447188 0.046231 0.920260 254 254 249
-3.710786 -2.071854 1.428933 -0.863338 -0.233680 0.447188 0.038403 0.919683 254 255 253
-2.802888 -0.944871 0.534503 0.044527 0.893307 -0.447188 0.050797 0.932247 255 255 254
-3.683265 -1.519762 0.534503 -0.835810 0.318400 -0.447188 0.044160 0.927912 255 255 255
-3.336476 -1.089297 1.428933 -0.489029 0.748863 0.447188 0.041773 0.928529 255 255 255
-2.286332 -1.141656 1.428933 0.561083 0.696524 0.447188 0.051228 0.928058 254 255 253
-2.891984 -2.731480 1.428933 -0.044527 -0.893307 0.447188 0.045775 0.913744 254 255 253
-3.336476 -1.089297 1.428933 -0.489029 0.748863 0.447188 0.041773 0.928529 254 255 253
-2.802888 -0.944871 0.534503 0.044527 0.893307 -0.447188 0.050797 0.932247 255 255 255
-2.286332 -1.141656 1.428933 0.561083 0.696524 0.447188 0.051228 0.928058 255 255 255
-1.984087 -1.604497 0.534503 0.863338 0.233680 -0.447188 0.056970 0.927274 253 253 252
-2.011608 -2.156589 1.428933 0.835810 -0.318400 0.447188 0.053701 0.918920 255 255 255
-2.847436 -1.838176 1.981718 0.000000 0.000000 1.000000 0.042582 0.918663 254 255 253
2.763605 -1.865953 -0.018283 0.000000 0.000000 -1.000000 0.090917 0.927073 254 255 253
3.231509 -2.628215 0.534502 0.467879 -0.762261 -0.447188 0.096293 0.919555 254 255 253
2.183241 -2.546508 0.534502 -0.580370 -0.680563 -0.447188 0.088389 0.920171 254 255 253
3.633152 -1.656511 0.534502 0.869533 0.209449 -0.447188 0.099321 0.926881 254 255 253
2.763605 -1.865953 -0.018283 0.000000 0.000000 -1.000000 0.090917 0.927073 252 253 251
1.937008 -1.524289 0.534502 -0.826594 0.341655 -0.447188 0.086533 0.927878 254 255 253
2.833118 -0.974244 0.534502 0.069491 0.891720 -0.447188 0.093289 0.932025 254 255 253
3.633152 -1.656511 0.534502 0.869533 0.209449 -0.447188 0.099321 0.926881 250 250 247
3.590201 -2.207617 1.428932 0.826594 -0.341655 0.447188 0.104136 0.918461 255 255 254
2.183241 -2.546508 0.534502 -0.580370 -0.680563 -0.447188 0.088389 0.920171 0 0 0
3.231509 -2.628215 0.534502 0.467879 -0.762261 -0.447188 0.096293 0.919555 0 0 0
2.694092 -2.757662 1.428932 -0.069491 -0.891720 0.447188 0.096068 0.913509 0 0 0
1.894057 -2.075395 1.428932 -0.869533 -0.209449 0.447188 0.088865 0.919651 254 255 253
2.833118 -0.974244 0.534502 0.069491 0.891720 -0.447188 0.093289 0.932025 145 137 95
1.937008 -1.524289 0.534502 -0.826594 0.341655 -0.447188 0.086533 0.927878 231 229 218
2.295700 -1.103691 1.428932 -0.467879 0.762261 0.447188 0.092481 0.928400 153 146 108
3.343969 -1.185398 1.428932 0.580370 0.680563 0.447188 0.101919 0.927664 254 255 253
2.694092 -2.757662 1.428932 -0.069491 -0.891720 0.447188 0.096068 0.913509 254 255 253
2.295700 -1.103691 1.428932 -0.467879 0.762261 0.447188 0.092481 0.928400 254 255 253
2.833118 -0.974244 0.534502 0.069491 0.891720 -0.447188 0.093289 0.932025 250 249 247
2.295700 -1.103691 1.428932 -0.467879 0.762261 0.447188 0.092481 0.928400 255 255 255
3.343969 -1.185398 1.428932 0.580370 0.680563 0.447188 0.101919 0.927664 255 255 255
3.633152 -1.656511 0.534502 0.869533 0.209449 -0.447188 0.099321 0.926881 255 255 255
2.763605 -1.865953 1.981717 0.000000 0.000000 1.000000 0.099988 0.918379 254 255 253
-2.871816 -1.658044 0.610432 -0.000000 0.000000 -1.000000 0.051333 0.927715 115 177 186
0.000000 3.316087 0.610432 -0.000000 0.000000 -1.000000 0.071958 0.963438 115 177 186
2.871816 -1.658043 0.610432 -0.000000 0.000000 -1.000000 0.092582 0.927715 115 177 186
2.871816 -1.658043 0.610432 0.866025 0.500000 0.000000 0.103399 0.924656 206 229 232
0.000000 3.316087 0.610432 0.866025 0.500000 0.000000 0.079075 0.972558 115 177 186
1.435908 0.829022 1.611768 0.866025 0.500000 0.000000 0.094498 0.945846 115 177 186
0.000000 3.316087 0.610432 -0.866025 0.500000 0.000000 0.079262 0.966463 115 177 186
-2.871816 -1.658044 0.610432 -0.866025 0.500000 0.000000 0.048231 0.919134 229 241 242
-1.435908 0.829022 1.611768 -0.866025 0.500000 0.000000 0.063653 0.945846 115 177 186
0.000000 -1.658044 1.611768 0.323446 -0.186741 0.927637 0.494422 0.150105 115 177 186
2.871816 -1.658043 0.610432 0.323446 -0.186741 0.927637 0.976644 0.150105 115 177 186
1.435908 0.829022 1.611768 0.323446 -0.186741 0.927637 0.735533 0.567721 115 177 186
-1.435908 0.829022 1.611768 0.000000 0.000000 1.000000 0.253311 0.567721 115 177 186
0.000000 -1.658044 1.611768 0.000000 0.000000 1.000000 0.494422 0.150105 115 177 186
1.435908 0.829022 1.611768 0.000000 0.000000 1.000000 0.735533 0.567721 115 177 186
-2.871816 -1.658044 0.610432 0.000000 -1.000000 0.000000 0.051333 0.927715 71 79 81
2.871816 -1.658043 0.610432 0.000000 -1.000000 0.000000 0.098154 0.922997 115 177 186
0.000000 -1.658044 1.611768 0.000000 -1.000000 0.000000 0.071798 0.922997 115 177 186
-2.871816 -1.658044 0.610432 -0.323446 -0.186741 0.927637 0.012200 0.150105 157 198 205
0.000000 -1.658044 1.611768 -0.323446 -0.186741 0.927637 0.494422 0.150105 115 177 186
-1.435908 0.829022 1.611768 -0.323446 -0.186741 0.927637 0.253311 0.567721 115 177 186
-1.435908 0.829022 1.611768 -0.000000 0.373483 0.927637 0.253311 0.567721 115 177 186
1.435908 0.829022 1.611768 -0.000000 0.373483 0.927637 0.735533 0.567721 115 177 186
0.000000 3.316087 0.610432 -0.000000 0.373483 0.927637 0.494422 0.985338 115 177 186
0.059129 -1.393329 1.509017 1.000000 0.000000 0.000000 0.000000 0.000000 176 207 255
0.059129 0.338722 1.509017 1.000000 0.000000 0.000000 0.000000 0.000000 176 207 255
0.059129 -0.527303 3.009017 1.000000 0.000000 0.000000 0.000000 0.000000 176 207 255
1.609915 4.968343 0.746630 0.000000 -0.000000 1.000000 0.000000 0.000000 116 178 187
-1.590652 4.968343 0.746630 0.000000 -0.000000 1.000000 0.000000 0.000000 176 207 255
0.009632 2.196571 0.746630 0.000000 -0.000000 1.000000 0.000000 0.000000 115 177 186
1.609915 4.968343 0.738382 0.000000 0.000000 -1.000000 0.000000 0.000000 176 207 255
0.009632 2.196571 0.738382 0.000000 0.000000 -1.000000 0.000000 0.000000 176 207 255
-1.590652 4.968343 0.738382 0.000000 0.000000 -1.000000 0.000000 0.000000 176 207 255
0.059129 -1.393329 1.509017 -1.000000 -0.000000 -0.000000 0.000000 0.000000 115 177 186
0.059129 -0.527303 3.009017 -1.000000 -0.000000 -0.000000 0.000000 0.000000 115 177 186
0.059129 0.338722 1.509017 -1.000000 -0.000000 -0.000000 0.000000 0.000000 115 177 186
3 0 1 2
3 1 0 3
3 0 2 4
3 0 4 5
3 0 5 3
3 1 3 6
3 7 8 9
3 4 10 11
3 12 13 14
3 3 5 15
3 1 6 16
3 2 16 11
3 4 11 17
3 18 14 19
3 20 19 21
3 16 6 22
3 11 16 22
3 17 11 22
3 15 17 22
3 6 15 22
3 23 24 25
3 24 23 26
3 27 25 28
3 27 28 29
3 27 29 26
3 24 30 31
3 32 33 34
3 28 25 35
3 36 37 38
3 26 29 39
3 24 31 40
3 25 40 35
3 28 35 41
3 42 43 44
3 45 44 31
3 40 31 46
3 35 40 46
3 41 35 46
3 39 41 46
3 31 39 46
3 47 48 49
3 50 51 52
3 53 54 55
3 56 57 58
3 59 60 61
3 62 63 64
3 65 66 67
3 68 69 70
3 71 72 73
3 74 75 76
3 77 78 79
3 80 81 82
