ply
format ascii 1.0
comment Created by Blender 2.69 (sub 0) - www.blender.org, source file: 'hosts.blend'
element vertex 179
property float x
property float y
property float z
property float nx
property float ny
property float nz
property float s
property float t
property uchar red
property uchar green
property uchar blue
element face 84
property list uchar uint vertex_indices
end_header
-2.847436 -1.838176 -0.018282 0.000000 0.000000 -1.000000 0.073940 0.943786 254 255 253
-2.358397 -2.587054 0.534503 0.489029 -0.748863 -0.447188 0.075106 0.938627 254 255 253
-3.408540 -2.534695 0.534503 -0.561083 -0.696524 -0.447188 0.069584 0.938902 254 255 253
-1.984087 -1.604497 0.534503 0.863338 0.233680 -0.447188 0.077074 0.943793 254 255 253
-3.683265 -1.519762 0.534503 -0.835810 0.318400 -0.447188 0.068140 0.944238 254 255 253
-2.802888 -0.944871 0.534503 0.044527 0.893307 -0.447188 0.072769 0.947261 254 255 253
-2.011608 -2.156589 1.428933 0.835810 -0.318400 0.447188 0.074794 0.937968 254 255 253
-3.408540 -2.534695 0.534503 -0.561083 -0.696524 -0.447188 0.069584 0.938902 0 0 0
-2.358397 -2.587054 0.534503 0.489029 -0.748863 -0.447188 0.075106 0.938627 0 0 0
-2.891984 -2.731480 1.428933 -0.044527 -0.893307 0.447188 0.069266 0.934358 0 0 0
-3.408540 -2.534695 0.534503 -0.561083 -0.696524 -0.447188 0.069584 0.938902 254 254 249
-3.710786 -2.071854 1.428933 -0.863338 -0.233680 0.447188 0.064125 0.938500 254 255 253
-2.802888 -0.944871 0.534503 0.044527 0.893307 -0.447188 0.072769 0.947261 255 255 254
-3.683265 -1.519762 0.534503 -0.835810 0.318400 -0.447188 0.068140 0.944238 255 255 255
-3.336476 -1.089297 1.428933 -0.489029 0.748863 0.447188 0.066476 0.944669 255 255 255
-2.286332 -1.141656 1.428933 0.561083 0.696524 0.447188 0.073069 0.944340 254 255 253
-2.891984 -2.731480 1.428933 -0.044527 -0.893307 0.447188 0.069266 0.934358 254 255 253
-3.336476 -1.089297 1.428933 -0.489029 0.748863 0.447188 0.066476 0.944669 254 255 253
-2.802888 -0.944871 0.534503 0.044527 0.893307 -0.447188 0.072769 0.947261 255 255 255
-2.286332 -1.141656 1.428933 0.561083 0.696524 0.447188 0.073069 0.944340 255 255 255
-1.984087 -1.604497 0.534503 0.863338 0.233680 -0.447188 0.077074 0.943793 253 253 252
-2.011608 -2.156589 1.428933 0.835810 -0.318400 0.447188 0.074794 0.937968 255 255 255
-2.847436 -1.838176 1.981718 0.000000 0.000000 1.000000 0.067040 0.937788 254 255 253
2.763605 -1.865953 -0.018283 0.000000 0.000000 -1.000000 0.100748 0.943653 254 255 253
3.231509 -2.628215 0.534502 0.467879 -0.762261 -0.447188 0.104497 0.938410 254 255 253
2.183241 -2.546508 0.534502 -0.580370 -0.680563 -0.447188 0.098985 0.938840 254 255 253
3.633152 -1.656511 0.534502 0.869533 0.209449 -0.447188 0.106608 0.943519 254 255 253
2.763605 -1.865953 -0.018283 0.000000 0.000000 -1.000000 0.100748 0.943653 252 253 251
1.937008 -1.524289 0.534502 -0.826594 0.341655 -0.447188 0.097690 0.944215 254 255 253
2.833118 -0.974244 0.534502 0.069491 0.891720 -0.447188 0.102402 0.947107 254 255 253
3.633152 -1.656511 0.534502 0.869533 0.209449 -0.447188 0.106608 0.943519 250 250 247
3.590201 -2.207617 1.428932 0.826594 -0.341655 0.447188 0.109966 0.937647 255 255 254
2.183241 -2.546508 0.534502 -0.580370 -0.680563 -0.447188 0.098985 0.938840 0 0 0
3.231509 -2.628215 0.534502 0.467879 -0.762261 -0.447188 0.104497 0.938410 0 0 0
2.694092 -2.757662 1.428932 -0.069491 -0.891720 0.447188 0.104340 0.934194 0 0 0
1.894057 -2.075395 1.428932 -0.869533 -0.209449 0.447188 0.099317 0.938477 254 255 253
2.833118 -0.974244 0.534502 0.069491 0.891720 -0.447188 0.102402 0.947107 145 137 95
1.937008 -1.524289 0.534502 -0.826594 0.341655 -0.447188 0.097690 0.944215 231 229 218
2.295700 -1.103691 1.428932 -0.467879 0.762261 0.447188 0.101838 0.944578 153 146 108
3.343969 -1.185398 1.428932 0.580370 0.680563 0.447188 0.108420 0.944065 254 255 253
2.694092 -2.757662 1.428932 -0.069491 -0.891720 0.447188 0.104340 0.934194 254 255 253
2.295700 -1.103691 1.428932 -0.467879 0.762261 0.447188 0.101838 0.944578 254 255 253
2.833118 -0.974244 0.534502 0.069491 0.891720 -0.447188 0.102402 0.947107 250 249 247
2.295700 -1.103691 1.428932 -0.467879 0.762261 0.447188 0.101838 0.944578 255 255 255
3.343969 -1.185398 1.428932 0.580370 0.680563 0.447188 0.108420 0.944065 255 255 255
3.633152 -1.656511 0.534502 0.869533 0.209449 -0.447188 0.106608 0.943519 255 255 255
2.763605 -1.865953 1.981717 0.000000 0.000000 1.000000 0.107074 0.937590 254 255 253
-2.871816 -1.658044 0.610432 -0.000000 0.000000 -1.000000 0.073142 0.944101 255 255 255
0.000000 3.316087 0.610432 -0.000000 0.000000 -1.000000 0.087526 0.969014 145 137 95
2.871816 -1.658043 0.610432 -0.000000 0.000000 -1.000000 0.101909 0.944101 227 225 215
2.871816 -1.658043 0.610432 0.866025 0.500000 0.000000 0.101909 0.944101 255 255 255
0.000000 3.316087 0.610432 0.866025 0.500000 0.000000 0.087415 0.972646 145 137 95
1.435908 0.829022 1.611768 0.866025 0.500000 0.000000 0.096605 0.956728 200 196 175
0.000000 3.316087 0.610432 -0.866025 0.500000 0.000000 0.087526 0.969014 145 137 95
-2.871816 -1.658044 0.610432 -0.866025 0.500000 0.000000 0.069035 0.940811 255 255 255
-1.435908 0.829022 1.611768 -0.866025 0.500000 0.000000 0.078225 0.956728 200 196 175
0.000000 -1.658044 1.611768 0.323446 -0.186741 0.927637 0.500672 0.150922 253 253 253
2.871816 -1.658043 0.610432 0.323446 -0.186741 0.927637 0.985559 0.150922 255 255 255
1.435908 0.829022 1.611768 0.323446 -0.186741 0.927637 0.743115 0.570846 200 196 175
-1.435908 0.829022 1.611768 0.000000 0.000000 1.000000 0.258229 0.570846 198 194 173
0.000000 -1.658044 1.611768 0.000000 0.000000 1.000000 0.500672 0.150922 253 253 253
1.435908 0.829022 1.611768 0.000000 0.000000 1.000000 0.743115 0.570846 200 196 175
-2.871816 -1.658044 0.610432 0.000000 -1.000000 0.000000 0.073142 0.944101 65 65 65
2.871816 -1.658043 0.610432 0.000000 -1.000000 0.000000 0.105795 0.940811 229 228 218
0.000000 -1.658044 1.611768 0.000000 -1.000000 0.000000 0.087415 0.940811 240 239 234
-2.871816 -1.658044 0.610432 -0.323446 -0.186741 0.927637 0.015786 0.150922 251 251 251
0.000000 -1.658044 1.611768 -0.323446 -0.186741 0.927637 0.500672 0.150922 253 253 253
-1.435908 0.829022 1.611768 -0.323446 -0.186741 0.927637 0.258229 0.570846 198 194 173
-1.435908 0.829022 1.611768 -0.000000 0.373483 0.927637 0.258229 0.570846 198 194 173
1.435908 0.829022 1.611768 -0.000000 0.373483 0.927637 0.743115 0.570846 200 196 175
0.000000 3.316087 0.610432 -0.000000 0.373483 0.927637 0.500672 0.990770 145 137 95
-3.615730 0.790538 1.485117 -0.368923 -0.791837 0.486713 0.039860 0.952921 145 137 95
-3.679743 0.468630 0.912880 -0.368923 -0.791837 0.486713 0.044210 0.943797 145 137 95
-1.871737 -0.426558 0.826940 -0.368923 -0.791837 0.486713 0.075264 0.961980 253 253 252
-3.615730 0.790538 1.485117 0.596298 0.526948 0.605603 0.039860 0.952921 255 255 255
-1.871737 -0.426558 0.826940 0.596298 0.526948 0.605603 0.075811 0.961222 145 137 95
-3.230081 1.013192 0.911657 0.596298 0.526948 0.605603 0.047247 0.951823 255 255 255
-3.679743 0.468630 0.912880 0.343336 -0.285514 -0.894764 0.044210 0.943797 145 137 95
-5.103602 1.795624 -0.056914 0.343336 -0.285514 -0.894764 0.036425 0.937446 145 137 95
-3.230081 1.013192 0.911657 0.343336 -0.285514 -0.894764 0.047247 0.951823 255 255 255
-3.679743 0.468630 0.912880 -0.755818 -0.530926 0.383219 0.044210 0.943797 145 137 95
-3.615730 0.790538 1.485117 -0.755818 -0.530926 0.383219 0.039860 0.952921 145 137 95
-5.103602 1.795624 -0.056914 -0.755818 -0.530926 0.383219 0.036425 0.937446 145 137 95
-3.615730 0.790538 1.485117 0.142681 0.886514 0.440154 0.039860 0.952921 255 255 255
-3.230081 1.013192 0.911657 0.142681 0.886514 0.440154 0.047247 0.951823 255 255 255
-5.103602 1.795624 -0.056914 0.142681 0.886514 0.440154 0.036115 0.938097 255 255 255
-1.871737 -0.426558 0.826940 -0.034497 0.026240 -0.999060 0.075811 0.961222 145 137 95
-3.679743 0.468630 0.912880 -0.034497 0.026240 -0.999060 0.044210 0.943797 145 137 95
-3.230081 1.013192 0.911657 -0.034497 0.026240 -0.999060 0.047247 0.951823 255 255 255
-3.008446 1.551620 1.485108 -0.368923 -0.791837 0.486713 0.039860 0.952921 145 137 95
-3.072459 1.229711 0.912872 -0.368923 -0.791837 0.486713 0.044210 0.943797 145 137 95
-1.264453 0.334523 0.826932 -0.368923 -0.791837 0.486713 0.075264 0.961980 253 253 252
-3.008446 1.551620 1.485108 0.596298 0.526948 0.605602 0.039860 0.952921 255 255 255
-1.264453 0.334523 0.826932 0.596298 0.526948 0.605602 0.075811 0.961222 145 137 95
-2.622797 1.774274 0.911648 0.596298 0.526948 0.605602 0.047247 0.951823 255 255 255
-3.072459 1.229711 0.912872 0.343336 -0.285514 -0.894764 0.044210 0.943797 145 137 95
-4.496319 2.556705 -0.056922 0.343336 -0.285514 -0.894764 0.036425 0.937446 145 137 95
-2.622797 1.774274 0.911648 0.343336 -0.285514 -0.894764 0.047247 0.951823 255 255 255
-3.072459 1.229711 0.912872 -0.755818 -0.530926 0.383219 0.044210 0.943797 145 137 95
-3.008446 1.551620 1.485108 -0.755818 -0.530926 0.383219 0.039860 0.952921 145 137 95
-4.496319 2.556705 -0.056922 -0.755818 -0.530926 0.383219 0.036425 0.937446 145 137 95
-3.008446 1.551620 1.485108 0.142681 0.886514 0.440154 0.039860 0.952921 255 255 255
-2.622797 1.774274 0.911648 0.142681 0.886514 0.440154 0.047247 0.951823 255 255 255
-4.496319 2.556705 -0.056922 0.142681 0.886514 0.440154 0.036115 0.938097 255 255 255
-1.264453 0.334523 0.826932 -0.034497 0.026240 -0.999060 0.075811 0.961222 145 137 95
-3.072459 1.229711 0.912872 -0.034497 0.026240 -0.999060 0.044210 0.943797 145 137 95
-2.622797 1.774274 0.911648 -0.034497 0.026240 -0.999060 0.047247 0.951823 255 255 255
-2.418935 2.343487 1.485099 -0.368923 -0.791837 0.486713 0.039860 0.952921 145 137 95
-2.482948 2.021578 0.912862 -0.368923 -0.791837 0.486713 0.044210 0.943797 145 137 95
-0.674942 1.126390 0.826922 -0.368923 -0.791837 0.486713 0.075264 0.961980 253 253 252
-2.418935 2.343487 1.485099 0.596298 0.526948 0.605602 0.039860 0.952921 255 255 255
-0.674942 1.126390 0.826922 0.596298 0.526948 0.605602 0.075811 0.961222 145 137 95
-2.033286 2.566141 0.911639 0.596298 0.526948 0.605602 0.047247 0.951823 255 255 255
-2.482948 2.021578 0.912862 0.343336 -0.285514 -0.894764 0.044210 0.943797 145 137 95
-3.906808 3.348572 -0.056932 0.343336 -0.285514 -0.894764 0.036425 0.937446 145 137 95
-2.033286 2.566141 0.911639 0.343336 -0.285514 -0.894764 0.047247 0.951823 255 255 255
-2.482948 2.021578 0.912862 -0.755818 -0.530926 0.383219 0.044210 0.943797 145 137 95
-2.418935 2.343487 1.485099 -0.755818 -0.530926 0.383219 0.039860 0.952921 145 137 95
-3.906808 3.348572 -0.056932 -0.755818 -0.530926 0.383219 0.036425 0.937446 145 137 95
-2.418935 2.343487 1.485099 0.142681 0.886514 0.440154 0.039860 0.952921 255 255 255
-2.033286 2.566141 0.911639 0.142681 0.886514 0.440154 0.047247 0.951823 255 255 255
-3.906808 3.348572 -0.056932 0.142681 0.886514 0.440154 0.036115 0.938097 255 255 255
-0.674942 1.126390 0.826922 -0.034497 0.026240 -0.999060 0.075811 0.961222 145 137 95
-2.482948 2.021578 0.912862 -0.034497 0.026240 -0.999060 0.044210 0.943797 145 137 95
-2.033286 2.566141 0.911639 -0.034497 0.026240 -0.999060 0.047247 0.951823 255 255 255
2.577503 2.365069 1.485117 -0.501290 0.715415 0.486713 0.039860 0.952921 145 137 95
2.330729 2.581460 0.912880 -0.501290 0.715415 0.486713 0.044210 0.943797 145 137 95
0.651470 1.463275 0.826940 -0.501290 0.715415 0.486713 0.075264 0.961980 253 253 252
2.577503 2.365069 1.485117 0.158201 -0.779883 0.605602 0.039860 0.952921 255 255 255
0.651470 1.463275 0.826940 0.158201 -0.779883 0.605602 0.075811 0.961222 145 137 95
2.577503 1.919760 0.911657 0.158201 -0.779883 0.605602 0.047247 0.951823 255 255 255
2.330729 2.581460 0.912880 -0.418930 -0.154581 -0.894764 0.044210 0.943797 145 137 95
4.191869 3.151062 -0.056914 -0.418930 -0.154581 -0.894764 0.036425 0.937446 145 137 95
2.577503 1.919760 0.911657 -0.418930 -0.154581 -0.894764 0.047247 0.951823 255 255 255
2.330729 2.581460 0.912880 -0.081887 0.920021 0.383219 0.044210 0.943797 145 137 95
2.577503 2.365069 1.485117 -0.081887 0.920021 0.383219 0.039860 0.952921 145 137 95
4.191869 3.151062 -0.056914 -0.081887 0.920021 0.383219 0.036425 0.937446 145 137 95
2.577503 2.365069 1.485117 0.696403 -0.566822 0.440154 0.039860 0.952921 255 255 255
2.577503 1.919760 0.911657 0.696403 -0.566822 0.440154 0.047247 0.951823 255 255 255
4.191869 3.151062 -0.056914 0.696403 -0.566822 0.440154 0.036115 0.938097 255 255 255
0.651470 1.463275 0.826940 0.039973 0.016755 -0.999060 0.075811 0.961222 145 137 95
2.330729 2.581460 0.912880 0.039973 0.016755 -0.999060 0.044210 0.943797 145 137 95
2.577503 1.919760 0.911657 0.039973 0.016755 -0.999060 0.047247 0.951823 255 255 255
2.932977 1.458605 1.485108 -0.501290 0.715415 0.486713 0.039860 0.952921 145 137 95
2.686203 1.674996 0.912872 -0.501290 0.715415 0.486713 0.044210 0.943797 145 137 95
1.006944 0.556811 0.826932 -0.501290 0.715415 0.486713 0.075264 0.961980 253 253 252
2.932977 1.458605 1.485108 0.158201 -0.779883 0.605602 0.039860 0.952921 255 255 255
1.006944 0.556811 0.826932 0.158201 -0.779883 0.605602 0.075811 0.961222 145 137 95
2.932977 1.013296 0.911648 0.158201 -0.779883 0.605602 0.047247 0.951823 255 255 255
2.686203 1.674996 0.912872 -0.418930 -0.154581 -0.894764 0.044210 0.943797 145 137 95
4.547343 2.244598 -0.056922 -0.418930 -0.154581 -0.894764 0.036425 0.937446 145 137 95
2.932977 1.013296 0.911648 -0.418930 -0.154581 -0.894764 0.047247 0.951823 255 255 255
2.686203 1.674996 0.912872 -0.081886 0.920021 0.383219 0.044210 0.943797 145 137 95
2.932977 1.458605 1.485108 -0.081886 0.920021 0.383219 0.039860 0.952921 145 137 95
4.547343 2.244598 -0.056922 -0.081886 0.920021 0.383219 0.036425 0.937446 145 137 95
2.932977 1.458605 1.485108 0.696403 -0.566822 0.440154 0.039860 0.952921 255 255 255
2.932977 1.013296 0.911648 0.696403 -0.566822 0.440154 0.047247 0.951823 255 255 255
4.547343 2.244598 -0.056922 0.696403 -0.566822 0.440154 0.036115 0.938097 255 255 255
1.006944 0.556811 0.826932 0.039973 0.016755 -0.999060 0.075811 0.961222 145 137 95
2.686203 1.674996 0.912872 0.039973 0.016755 -0.999060 0.044210 0.943797 145 137 95
2.932977 1.013296 0.911648 0.039973 0.016755 -0.999060 0.047247 0.951823 255 255 255
3.323999 0.552140 1.485099 -0.501290 0.715415 0.486713 0.039860 0.952921 145 137 95
3.077224 0.768532 0.912862 -0.501290 0.715415 0.486713 0.044210 0.943797 145 137 95
1.397966 -0.349654 0.826922 -0.501290 0.715415 0.486713 0.075264 0.961980 253 253 252
3.323999 0.552140 1.485099 0.158201 -0.779883 0.605602 0.039860 0.952921 255 255 255
1.397966 -0.349654 0.826922 0.158201 -0.779883 0.605602 0.075811 0.961222 145 137 95
3.323999 0.106832 0.911639 0.158201 -0.779883 0.605602 0.047247 0.951823 255 255 255
3.077224 0.768532 0.912862 -0.418930 -0.154581 -0.894764 0.044210 0.943797 145 137 95
4.938365 1.338134 -0.056932 -0.418930 -0.154581 -0.894764 0.036425 0.937446 145 137 95
3.323999 0.106832 0.911639 -0.418930 -0.154581 -0.894764 0.047247 0.951823 255 255 255
3.077224 0.768532 0.912862 -0.081887 0.920021 0.383219 0.044210 0.943797 145 137 95
3.323999 0.552140 1.485099 -0.081887 0.920021 0.383219 0.039860 0.952921 145 137 95
4.938365 1.338134 -0.056932 -0.081887 0.920021 0.383219 0.036425 0.937446 145 137 95
3.323999 0.552140 1.485099 0.696403 -0.566822 0.440154 0.039860 0.952921 255 255 255
3.323999 0.106832 0.911639 0.696403 -0.566822 0.440154 0.047247 0.951823 255 255 255
4.938365 1.338134 -0.056932 0.696403 -0.566822 0.440154 0.036115 0.938097 255 255 255
1.397966 -0.349654 0.826922 0.039973 0.016755 -0.999060 0.075811 0.961222 145 137 95
3.077224 0.768532 0.912862 0.039973 0.016755 -0.999060 0.044210 0.943797 145 137 95
3.323999 0.106832 0.911639 0.039973 0.016755 -0.999060 0.047247 0.951823 255 255 255
3 0 1 2
3 1 0 3
3 0 2 4
3 0 4 5
3 0 5 3
3 1 3 6
3 7 8 9
3 4 10 11
3 12 13 14
3 3 5 15
3 1 6 16
3 2 16 11
3 4 11 17
3 18 14 19
3 20 19 21
3 16 6 22
3 11 16 22
3 17 11 22
3 15 17 22
3 6 15 22
3 23 24 25
3 24 23 26
3 27 25 28
3 27 28 29
3 27 29 26
3 24 30 31
3 32 33 34
3 28 25 35
3 36 37 38
3 26 29 39
3 24 31 40
3 25 40 35
3 28 35 41
3 42 43 44
3 45 44 31
3 40 31 46
3 35 40 46
3 41 35 46
3 39 41 46
3 31 39 46
3 47 48 49
3 50 51 52
3 53 54 55
3 56 57 58
3 59 60 61
3 62 63 64
3 65 66 67
3 68 69 70
3 71 72 73
3 74 75 76
3 77 78 79
3 80 81 82
3 83 84 85
3 86 87 88
3 89 90 91
3 92 93 94
3 95 96 97
3 98 99 100
3 101 102 103
3 104 105 106
3 107 108 109
3 110 111 112
3 113 114 115
3 116 117 118
3 119 120 121
3 122 123 124
3 125 126 127
3 128 129 130
3 131 132 133
3 134 135 136
3 137 138 139
3 140 141 142
3 143 144 145
3 146 147 148
3 149 150 151
3 152 153 154
3 155 156 157
3 158 159 160
3 161 162 163
3 164 165 166
3 167 168 169
3 170 171 172
3 173 174 175
3 176 177 178
