ply
format ascii 1.0
comment Created by Blender 2.69 (sub 0) - www.blender.org, source file: 'hosts2-anim.blend'
element vertex 268
property float x
property float y
property float z
property float nx
property float ny
property float nz
property float s
property float t
property uchar red
property uchar green
property uchar blue
element face 112
property list uchar uint vertex_indices
end_header
0.345241 -0.776897 7.300297 0.891934 0.076113 -0.445662 0.041581 0.963182 254 255 253
0.222848 -0.863963 7.234104 0.107913 -0.481582 -0.869686 0.041581 0.964369 254 255 253
0.212537 -0.700311 7.241421 0.041841 0.566698 -0.822840 0.040460 0.963652 254 255 253
0.222848 -0.863963 7.234104 0.107913 -0.481582 -0.869686 0.040949 0.958616 254 255 253
0.345241 -0.776897 7.300297 0.891934 0.076113 -0.445662 0.040109 0.958046 254 255 253
0.295931 -0.916371 7.371414 0.576067 -0.817316 0.009857 0.040848 0.957289 254 255 253
0.345241 -0.776897 7.300297 0.891934 0.076113 -0.445662 0.039429 0.961116 254 255 253
0.212537 -0.700311 7.241421 0.041841 0.566698 -0.822840 0.038391 0.960677 254 255 253
0.279249 -0.651575 7.383255 0.469192 0.878903 0.085696 0.039584 0.960104 254 255 253
0.345241 -0.776897 7.300297 0.891934 0.076113 -0.445662 0.038454 0.964386 254 255 253
0.279249 -0.651575 7.383255 0.469192 0.878903 0.085696 0.038444 0.963191 254 255 253
0.330789 -0.785110 7.463594 0.799371 0.023499 0.600360 0.039584 0.963690 254 255 253
0.295931 -0.916371 7.371414 0.576067 -0.817316 0.009857 0.039584 0.965003 254 255 253
0.295931 -0.916371 7.371414 0.576067 -0.817316 0.009857 0.040848 0.957289 255 255 255
0.132752 -0.925986 7.356491 -0.469192 -0.878903 -0.085696 0.042045 0.957861 254 255 253
0.212537 -0.700311 7.241421 0.041841 0.566698 -0.822840 0.040460 0.963652 255 255 255
0.222848 -0.863963 7.234104 0.107913 -0.481582 -0.869686 0.041581 0.964369 254 254 254
0.081212 -0.792451 7.276152 -0.799371 -0.023499 -0.600360 0.040422 0.964967 255 255 255
0.212537 -0.700311 7.241421 0.041841 0.566698 -0.822840 0.038391 0.960677 255 255 253
0.116070 -0.661189 7.368332 -0.576067 0.817316 -0.009857 0.038486 0.959352 254 255 253
0.330789 -0.785110 7.463594 0.799371 0.023499 0.600360 0.062540 0.964870 255 255 254
0.279249 -0.651575 7.383255 0.469192 0.878903 0.085696 0.061832 0.964011 255 255 255
0.189153 -0.713597 7.505642 -0.107913 0.481582 0.869716 0.062556 0.963572 255 255 255
0.295931 -0.916371 7.371414 0.576067 -0.817316 0.009857 0.063657 0.965154 254 255 254
0.330789 -0.785110 7.463594 0.799371 0.023499 0.600360 0.062540 0.964870 254 255 253
0.199464 -0.877250 7.498323 -0.041841 -0.566698 0.822840 0.063684 0.964278 254 255 253
0.222848 -0.863963 7.234104 0.107913 -0.481582 -0.869686 0.040949 0.958616 255 255 255
0.081212 -0.792451 7.276152 -0.799371 -0.023499 -0.600360 0.042045 0.958972 255 255 255
0.212537 -0.700311 7.241421 0.041841 0.566698 -0.822840 0.038391 0.960677 255 255 255
0.081212 -0.792451 7.276152 -0.799371 -0.023499 -0.600360 0.037653 0.959900 255 255 255
0.279249 -0.651575 7.383255 0.469192 0.878903 0.085696 0.039584 0.960104 255 255 255
0.189153 -0.713597 7.505642 -0.107913 0.481582 0.869716 0.039584 0.958972 255 255 255
0.330789 -0.785110 7.463594 0.799371 0.023499 0.600360 0.062540 0.964870 255 255 255
0.199464 -0.877250 7.498323 -0.041841 -0.566698 0.822840 0.063684 0.964278 255 255 255
0.295931 -0.916371 7.371414 0.576067 -0.817316 0.009857 0.040848 0.957289 254 254 254
0.199464 -0.877250 7.498323 -0.041841 -0.566698 0.822840 0.041881 0.956826 255 255 255
0.132752 -0.925986 7.356491 -0.469192 -0.878903 -0.085696 0.042045 0.957861 255 255 255
0.081212 -0.792451 7.276152 -0.799371 -0.023499 -0.600360 0.041581 0.961592 5 5 5
0.132752 -0.925986 7.356491 -0.469192 -0.878903 -0.085696 0.041581 0.962869 0 0 0
0.066760 -0.800664 7.439449 -0.891934 -0.076113 0.445662 0.040531 0.962366 0 0 0
0.116070 -0.661189 7.368332 -0.576067 0.817316 -0.009857 0.040347 0.961116 1 1 1
0.189153 -0.713597 7.505642 -0.107913 0.481582 0.869716 0.039584 0.962099 0 0 0
0.199464 -0.877250 7.498323 -0.041841 -0.566698 0.822840 0.063684 0.964278 0 0 0
0.189153 -0.713597 7.505642 -0.107913 0.481582 0.869716 0.062556 0.963572 0 0 0
0.066760 -0.800664 7.439449 -0.891934 -0.076113 0.445662 0.063684 0.963054 0 0 0
0.199464 -0.877250 7.498323 -0.041841 -0.566698 0.822840 0.040347 0.963182 0 0 0
0.884807 -0.942808 7.357551 0.469192 -0.878903 -0.085696 0.039584 0.961386 0 0 0
0.950800 -0.817486 7.440509 0.891934 -0.076113 0.445662 0.038474 0.961942 0 0 0
0.818096 -0.894072 7.499383 0.041841 -0.566698 0.822840 0.038407 0.961116 0 0 0
0.818096 -0.894072 7.499383 0.041841 -0.566698 0.822840 0.063684 0.961829 0 0 0
0.950800 -0.817486 7.440509 0.891934 -0.076113 0.445662 0.063684 0.963054 0 0 0
0.828407 -0.730419 7.506701 0.107913 0.481582 0.869716 0.062556 0.962536 0 0 0
0.828407 -0.730419 7.506701 0.107913 0.481582 0.869716 0.037679 0.962232 0 0 0
0.901489 -0.678011 7.369391 0.576067 0.817316 -0.009857 0.038407 0.963191 1 1 1
0.936347 -0.809273 7.277211 0.799371 -0.023499 -0.600360 0.039584 0.962668 5 5 5
0.721628 -0.933193 7.372474 -0.576067 -0.817316 0.009857 0.038388 0.958509 254 254 254
0.884807 -0.942808 7.357551 0.469192 -0.878903 -0.085696 0.039584 0.957937 255 255 255
0.818096 -0.894072 7.499383 0.041841 -0.566698 0.822840 0.039421 0.958972 255 255 255
0.686770 -0.801932 7.464654 -0.799371 0.023499 0.600360 0.062540 0.961237 255 255 255
0.818096 -0.894072 7.499383 0.041841 -0.566698 0.822840 0.063684 0.961829 255 255 255
0.828407 -0.730419 7.506701 0.107913 0.481582 0.869716 0.062556 0.962536 255 255 255
0.738310 -0.668396 7.384315 -0.469192 0.878903 0.085696 0.042045 0.959985 255 255 255
0.828407 -0.730419 7.506701 0.107913 0.481582 0.869716 0.042045 0.961116 255 255 255
0.901489 -0.678011 7.369391 0.576067 0.817316 -0.009857 0.040947 0.960737 254 255 253
0.805023 -0.717133 7.242480 -0.041841 0.566698 -0.822840 0.040851 0.959412 255 255 255
0.936347 -0.809273 7.277211 0.799371 -0.023499 -0.600360 0.040113 0.960189 255 255 255
0.794712 -0.880785 7.235164 -0.107883 -0.481582 -0.869686 0.038489 0.957182 255 255 255
0.936347 -0.809273 7.277211 0.799371 -0.023499 -0.600360 0.039584 0.956826 255 255 255
0.884807 -0.942808 7.357551 0.469192 -0.878903 -0.085696 0.039584 0.957937 254 255 253
0.721628 -0.933193 7.372474 -0.576067 -0.817316 0.009857 0.063657 0.960953 254 255 254
0.818096 -0.894072 7.499383 0.041841 -0.566698 0.822840 0.063684 0.961829 254 255 253
0.686770 -0.801932 7.464654 -0.799371 0.023499 0.600360 0.062540 0.961237 254 255 253
0.686770 -0.801932 7.464654 -0.799371 0.023499 0.600360 0.062540 0.961237 255 255 254
0.738310 -0.668396 7.384315 -0.469192 0.878903 0.085696 0.061832 0.962097 255 255 255
0.738310 -0.668396 7.384315 -0.469192 0.878903 0.085696 0.042045 0.959985 254 255 253
0.805023 -0.717133 7.242480 -0.041841 0.566698 -0.822840 0.040851 0.959412 255 255 253
0.805023 -0.717133 7.242480 -0.041841 0.566698 -0.822840 0.064835 0.961488 255 255 255
0.936347 -0.809273 7.277211 0.799371 -0.023499 -0.600360 0.064835 0.962774 255 255 255
0.794712 -0.880785 7.235164 -0.107883 -0.481582 -0.869686 0.063710 0.962197 254 254 254
0.794712 -0.880785 7.235164 -0.107883 -0.481582 -0.869686 0.038489 0.957182 254 255 253
0.721628 -0.933193 7.372474 -0.576067 -0.817316 0.009857 0.038388 0.958509 255 255 255
0.672319 -0.793719 7.301356 -0.891934 0.076113 -0.445662 0.064823 0.963324 254 255 253
0.721628 -0.933193 7.372474 -0.576067 -0.817316 0.009857 0.064824 0.964602 254 255 253
0.686770 -0.801932 7.464654 -0.799371 0.023499 0.600360 0.063693 0.964027 254 255 253
0.738310 -0.668396 7.384315 -0.469192 0.878903 0.085696 0.063684 0.962774 254 255 253
0.672319 -0.793719 7.301356 -0.891934 0.076113 -0.445662 0.041890 0.958972 254 255 253
0.805023 -0.717133 7.242480 -0.041841 0.566698 -0.822840 0.040851 0.959412 254 255 253
0.721628 -0.933193 7.372474 -0.576067 -0.817316 0.009857 0.038388 0.958509 254 255 253
0.672319 -0.793719 7.301356 -0.891934 0.076113 -0.445662 0.037648 0.957752 254 255 253
0.672319 -0.793719 7.301356 -0.891934 0.076113 -0.445662 0.063684 0.960953 254 255 253
0.805023 -0.717133 7.242480 -0.041841 0.566698 -0.822840 0.064835 0.961488 254 255 253
0.794712 -0.880785 7.235164 -0.107883 -0.481582 -0.869686 0.063710 0.962197 254 255 253
0.499761 0.905309 8.545922 0.965150 0.121827 0.231610 0.022970 0.089506 255 238 141
0.842582 -0.452654 7.831633 0.965150 0.121827 0.231610 0.257018 0.578786 255 238 141
0.842583 0.905308 7.117341 0.965150 0.121827 0.231610 0.512724 0.089114 194 202 149
0.419702 -1.493494 6.950534 -0.000000 -0.465527 -0.885033 0.043530 0.953336 193 201 147
0.156940 -0.452654 6.403052 -0.000000 -0.465527 -0.885033 0.047632 0.960983 194 202 149
0.842582 -0.452654 6.403052 -0.000000 -0.465527 -0.885033 0.042280 0.962456 193 201 147
0.156940 -0.452654 6.403052 0.000000 -0.465529 -0.885033 0.047632 0.960983 195 202 150
0.499761 0.905308 5.688761 0.000000 -0.465529 -0.885033 0.047632 0.972433 193 201 147
0.842582 -0.452654 6.403052 0.000000 -0.465529 -0.885033 0.042280 0.962456 193 201 147
0.560795 -1.568853 7.244511 0.000000 -0.465528 0.885033 0.033208 0.953336 194 202 148
0.842582 -0.452654 7.831633 0.000000 -0.465528 0.885033 0.037648 0.961804 255 238 141
0.156940 -0.452654 7.831633 0.000000 -0.465528 0.885033 0.032247 0.963134 255 238 141
0.499761 0.905309 8.545922 0.000000 -0.465528 0.885033 0.037648 0.973436 255 238 141
0.156940 0.905309 7.117341 -0.965150 0.121827 -0.231611 0.507217 0.089112 193 201 147
0.499761 0.905308 5.688761 -0.965150 0.121827 -0.231611 0.974499 0.084506 193 201 147
0.156940 -0.452654 6.403052 -0.965150 0.121827 -0.231611 0.747617 0.582244 202 208 162
0.499761 0.905309 8.545922 -0.965150 0.121828 0.231610 0.001683 0.084506 255 238 141
0.156940 0.905309 7.117341 -0.965150 0.121828 0.231610 0.507217 0.089112 193 201 147
0.156940 -0.452654 7.831633 -0.965150 0.121828 0.231610 0.261209 0.582244 255 238 141
0.156940 -0.452654 7.831633 -1.000000 0.000000 -0.000000 0.261209 0.582244 255 238 141
0.156940 0.905309 7.117341 -1.000000 0.000000 -0.000000 0.507217 0.089112 193 201 147
0.156940 -0.452654 6.403052 -1.000000 0.000000 -0.000000 0.747617 0.582244 194 202 148
0.842583 0.905308 7.117341 0.965150 0.121827 -0.231610 0.512724 0.089114 194 202 149
0.842582 -0.452654 6.403052 0.965150 0.121827 -0.231610 0.746629 0.584897 194 202 149
0.499761 0.905308 5.688761 0.965150 0.121827 -0.231610 1.002191 0.101728 193 201 147
0.842583 0.905308 7.117341 1.000000 -0.000000 0.000000 0.512724 0.089114 193 201 148
0.842582 -0.452654 7.831633 1.000000 -0.000000 0.000000 0.257018 0.578786 255 238 141
0.842582 -0.452654 6.403052 1.000000 -0.000000 0.000000 0.746629 0.584897 193 201 147
0.842582 -0.452654 7.831633 0.969580 -0.244773 0.000000 0.257018 0.578786 255 238 141
0.560795 -1.568853 7.244511 0.969580 -0.244773 0.000000 0.449162 0.991648 193 201 147
0.714818 -0.958746 7.112756 0.969580 -0.244773 0.000000 0.499279 0.767917 193 201 147
0.842582 -0.452654 6.403052 0.969580 -0.244773 0.000000 0.746629 0.584897 194 202 148
0.842582 -0.452654 7.831633 0.969580 -0.244773 0.000000 0.257018 0.578786 254 238 141
0.579820 -1.493494 6.950534 0.969580 -0.244773 -0.000000 0.550528 0.965201 196 203 152
0.842582 -0.452654 6.403052 0.969580 -0.244773 -0.000000 0.746629 0.584897 193 201 147
0.156940 0.905309 7.117341 0.000001 1.000000 -0.000000 0.056576 0.965966 193 201 147
0.499761 0.905309 8.545922 0.000001 1.000000 -0.000000 0.056576 0.957471 255 238 141
0.842583 0.905308 7.117341 0.000001 1.000000 -0.000000 0.061832 0.964144 193 201 147
0.284704 -0.958746 7.112756 -0.969580 -0.244773 0.000000 0.497803 0.764310 193 201 147
0.438727 -1.568853 7.244511 -0.969580 -0.244773 0.000000 0.443090 0.983795 193 201 147
0.156940 -0.452654 7.831633 -0.969580 -0.244773 0.000000 0.261209 0.582244 255 238 141
0.156940 -0.452654 7.831633 -0.969580 -0.244773 -0.000000 0.261209 0.582244 250 235 141
0.156940 -0.452654 6.403052 -0.969580 -0.244773 -0.000000 0.747617 0.582244 193 201 147
0.156940 -0.452654 6.403052 -0.969580 -0.244773 -0.000000 0.747617 0.582244 196 203 151
0.419702 -1.493494 6.950534 -0.969580 -0.244773 -0.000000 0.544401 0.956685 193 201 147
1.718102 0.281855 7.094175 0.450715 0.007861 0.892633 0.065290 0.950650 255 255 255
1.723063 -0.002545 7.094175 0.450715 0.007861 0.892633 0.065290 0.952952 255 255 255
2.207431 0.143903 6.848315 0.450715 0.007861 0.892633 0.060933 0.951843 255 255 255
1.235977 -0.006793 7.264758 0.330477 0.005764 0.943796 0.069647 0.952910 255 255 255
1.243417 -0.433394 7.264758 0.330477 0.005764 0.943796 0.069647 0.956362 255 255 255
1.728023 -0.286946 7.094175 0.330477 0.005764 0.943796 0.065290 0.955253 255 255 255
2.207431 0.143903 6.848315 0.771655 0.013459 0.635899 0.060933 0.951843 255 255 255
2.212391 -0.140497 6.848315 0.771655 0.013459 0.635899 0.060933 0.954144 255 255 255
2.646195 0.005951 6.318800 0.771655 0.013459 0.635899 0.056576 0.953035 255 255 255
2.207431 0.143903 6.848315 0.450715 0.007861 0.892634 0.060933 0.951843 255 255 255
1.723063 -0.002545 7.094175 0.450715 0.007861 0.892634 0.065290 0.952952 255 255 255
2.212391 -0.140497 6.848315 0.450715 0.007861 0.892634 0.060933 0.954144 255 255 255
1.723063 -0.002545 7.094175 0.450714 0.007861 0.892633 0.065290 0.952952 255 255 255
1.728023 -0.286946 7.094175 0.450714 0.007861 0.892633 0.065290 0.955253 255 255 255
2.212391 -0.140497 6.848315 0.450714 0.007861 0.892633 0.060933 0.954144 255 255 255
1.235977 -0.006793 7.264758 0.330478 0.005764 0.943796 0.069647 0.952910 255 255 255
1.723063 -0.002545 7.094175 0.330478 0.005764 0.943796 0.065290 0.952952 255 255 255
1.718102 0.281855 7.094175 0.330478 0.005764 0.943796 0.065290 0.950650 255 255 255
0.698976 -0.011041 7.264758 0.000000 0.000000 1.000000 0.074003 0.952868 255 255 255
1.235977 -0.006793 7.264758 0.000000 0.000000 1.000000 0.069647 0.952910 255 255 255
1.228536 0.419808 7.264758 0.000000 0.000000 1.000000 0.069647 0.949458 255 255 255
0.698976 -0.011041 7.264758 0.000003 0.000003 1.000000 0.074003 0.952868 255 255 255
0.708897 -0.579842 7.264760 0.000003 0.000003 1.000000 0.074003 0.957471 255 255 255
1.243417 -0.433394 7.264758 0.000003 0.000003 1.000000 0.069647 0.956362 255 255 255
0.284704 -0.958746 7.112756 0.000000 -0.290298 0.956936 0.037648 0.953336 0 0 0
0.419702 -1.493494 6.950534 0.000000 -0.290298 0.956936 0.042045 0.954431 170 175 143
0.579820 -1.493494 6.950534 0.000000 -0.290298 0.956936 0.042045 0.955730 170 175 143
0.714818 -0.958746 7.112756 0.000000 -0.211088 -0.977467 0.061832 0.957471 2 2 2
0.560795 -1.568853 7.244511 0.000000 -0.211088 -0.977467 0.066786 0.958766 163 168 137
0.438727 -1.568853 7.244511 0.000000 -0.211088 -0.977467 0.066786 0.959754 169 174 142
1.718102 0.281855 7.094175 -0.450715 -0.007861 -0.892633 0.052104 0.956097 193 201 147
2.207431 0.143903 6.848315 -0.450715 -0.007861 -0.892633 0.054340 0.952181 202 209 162
1.723063 -0.002545 7.094175 -0.450715 -0.007861 -0.892633 0.054340 0.956669 193 201 147
1.235977 -0.006793 7.264758 -0.330478 -0.005764 -0.943796 0.053222 0.960870 193 201 147
1.723063 -0.002545 7.094175 -0.330478 -0.005764 -0.943796 0.054340 0.956669 193 201 147
1.728023 -0.286946 7.094175 -0.330478 -0.005764 -0.943796 0.056576 0.957240 193 201 147
2.207431 0.143903 6.848315 -0.771655 -0.013459 -0.635899 0.054340 0.952181 193 201 147
2.646195 0.005951 6.318800 -0.771655 -0.013459 -0.635899 0.056576 0.948265 196 203 152
2.212391 -0.140497 6.848315 -0.771655 -0.013459 -0.635899 0.056576 0.952753 193 201 147
2.207431 0.143903 6.848315 -0.450715 -0.007861 -0.892634 0.054340 0.952181 193 201 147
2.212391 -0.140497 6.848315 -0.450715 -0.007861 -0.892634 0.056576 0.952753 193 201 147
1.723063 -0.002545 7.094175 -0.450715 -0.007861 -0.892634 0.054340 0.956669 201 207 160
1.723063 -0.002545 7.094175 -0.450714 -0.007861 -0.892633 0.054340 0.956669 193 201 147
2.212391 -0.140497 6.848315 -0.450714 -0.007861 -0.892633 0.056576 0.952753 193 201 147
1.728023 -0.286946 7.094175 -0.450714 -0.007861 -0.892633 0.056576 0.957240 193 201 147
1.235977 -0.006793 7.264758 -0.330477 -0.005764 -0.943796 0.053222 0.960870 193 201 147
1.228536 0.419808 7.264758 -0.330477 -0.005764 -0.943796 0.049868 0.960013 193 201 147
1.718102 0.281855 7.094175 -0.330477 -0.005764 -0.943796 0.052104 0.956097 193 201 147
0.698976 -0.011041 7.264758 -0.000000 -0.000000 -1.000000 0.052104 0.965072 202 210 165
0.689056 0.557760 7.264758 -0.000000 -0.000000 -1.000000 0.047632 0.963929 194 202 149
1.228536 0.419808 7.264758 -0.000000 -0.000000 -1.000000 0.049868 0.960013 193 201 147
0.698976 -0.011041 7.264758 -0.000000 0.000000 -1.000000 0.052104 0.965072 193 201 147
1.235977 -0.006793 7.264758 -0.000000 0.000000 -1.000000 0.053222 0.960870 193 201 147
1.243417 -0.433394 7.264758 -0.000000 0.000000 -1.000000 0.056576 0.961727 193 201 147
0.579820 -1.493494 6.950534 0.000000 -0.465528 -0.885033 0.042280 0.953680 193 201 147
0.419702 -1.493494 6.950534 0.000000 -0.465528 -0.885033 0.043530 0.953336 193 201 147
0.842582 -0.452654 6.403052 0.000000 -0.465528 -0.885033 0.042280 0.962456 193 201 147
0.438727 -1.568853 7.244511 0.000000 -0.465528 0.885033 0.032247 0.953573 194 201 148
0.499761 0.905308 5.688761 0.000001 1.000000 -0.000000 0.061832 0.972639 196 203 150
1.728023 -0.286946 7.094175 0.330478 0.005764 0.943796 0.065290 0.955253 255 255 255
1.228536 0.419808 7.264758 0.330477 0.005764 0.943796 0.069647 0.949458 255 255 255
1.718102 0.281855 7.094175 0.330477 0.005764 0.943796 0.065290 0.950650 255 255 255
0.689056 0.557760 7.264758 0.000000 0.000000 1.000000 0.074003 0.948265 255 255 255
1.243417 -0.433394 7.264758 0.000000 -0.000000 1.000000 0.069647 0.956362 255 255 255
0.714818 -0.958746 7.112756 0.000000 -0.290298 0.956936 0.037648 0.956826 9 9 7
0.284704 -0.958746 7.112756 -0.000000 -0.211088 -0.977467 0.061832 0.960953 0 0 0
1.243417 -0.433394 7.264758 -0.330477 -0.005764 -0.943796 0.056576 0.961727 193 201 147
1.728023 -0.286946 7.094175 -0.330477 -0.005764 -0.943796 0.056576 0.957240 193 201 147
1.723063 -0.002545 7.094175 -0.330477 -0.005764 -0.943796 0.054340 0.956669 193 201 147
0.708897 -0.579842 7.264760 -0.000003 -0.000003 -1.000000 0.056576 0.966215 200 207 159
0.698976 -0.011041 7.264758 -0.000003 -0.000003 -1.000000 0.052104 0.965072 193 201 147
1.243417 -0.433394 7.264758 -0.000003 -0.000003 -1.000000 0.056576 0.961727 193 201 147
-0.743431 0.281855 7.094175 0.450715 -0.007861 -0.892633 0.065290 0.950650 255 255 255
-0.748391 -0.002545 7.094175 0.450715 -0.007861 -0.892633 0.065290 0.952952 255 255 255
-1.232759 0.143903 6.848315 0.450715 -0.007861 -0.892633 0.060933 0.951843 255 255 255
-0.261305 -0.006793 7.264758 0.330477 -0.005764 -0.943796 0.069647 0.952910 255 255 255
-0.268745 -0.433394 7.264758 0.330477 -0.005764 -0.943796 0.069647 0.956362 255 255 255
-0.753351 -0.286946 7.094175 0.330477 -0.005764 -0.943796 0.065290 0.955253 255 255 255
-1.232759 0.143903 6.848315 0.771655 -0.013459 -0.635899 0.060933 0.951843 255 255 255
-1.237719 -0.140497 6.848315 0.771655 -0.013459 -0.635899 0.060933 0.954144 255 255 255
-1.671524 0.005951 6.318800 0.771655 -0.013459 -0.635899 0.056576 0.953035 255 255 255
-1.232759 0.143903 6.848315 0.450715 -0.007861 -0.892634 0.060933 0.951843 255 255 255
-0.748391 -0.002545 7.094175 0.450715 -0.007861 -0.892634 0.065290 0.952952 255 255 255
-1.237719 -0.140497 6.848315 0.450715 -0.007861 -0.892634 0.060933 0.954144 255 255 255
-0.748391 -0.002545 7.094175 0.450714 -0.007861 -0.892633 0.065290 0.952952 255 255 255
-0.753351 -0.286946 7.094175 0.450714 -0.007861 -0.892633 0.065290 0.955253 255 255 255
-1.237719 -0.140497 6.848315 0.450714 -0.007861 -0.892633 0.060933 0.954144 255 255 255
-0.261305 -0.006793 7.264758 0.330478 -0.005764 -0.943796 0.069647 0.952910 255 255 255
-0.748391 -0.002545 7.094175 0.330478 -0.005764 -0.943796 0.065290 0.952952 255 255 255
-0.743431 0.281855 7.094175 0.330478 -0.005764 -0.943796 0.065290 0.950650 255 255 255
0.275695 -0.011041 7.264758 0.000000 -0.000000 -1.000000 0.074003 0.952868 255 255 255
-0.261305 -0.006793 7.264758 0.000000 -0.000000 -1.000000 0.069647 0.952910 255 255 255
-0.253865 0.419808 7.264758 0.000000 -0.000000 -1.000000 0.069647 0.949458 255 255 255
0.275695 -0.011041 7.264758 0.000003 -0.000003 -1.000000 0.074003 0.952868 255 255 255
0.265775 -0.579842 7.264760 0.000003 -0.000003 -1.000000 0.074003 0.957471 255 255 255
-0.268745 -0.433394 7.264758 0.000003 -0.000003 -1.000000 0.069647 0.956362 255 255 255
-0.743431 0.281855 7.094175 -0.450715 0.007861 0.892633 0.052104 0.956097 193 201 147
-1.232759 0.143903 6.848315 -0.450715 0.007861 0.892633 0.054340 0.952181 202 209 162
-0.748391 -0.002545 7.094175 -0.450715 0.007861 0.892633 0.054340 0.956669 193 201 147
-0.261305 -0.006793 7.264758 -0.330478 0.005764 0.943796 0.053222 0.960870 193 201 147
-0.748391 -0.002545 7.094175 -0.330478 0.005764 0.943796 0.054340 0.956669 193 201 147
-0.753351 -0.286946 7.094175 -0.330478 0.005764 0.943796 0.056576 0.957240 193 201 147
-1.232759 0.143903 6.848315 -0.771655 0.013459 0.635899 0.054340 0.952181 193 201 147
-1.671524 0.005951 6.318800 -0.771655 0.013459 0.635899 0.056576 0.948265 196 203 152
-1.237719 -0.140497 6.848315 -0.771655 0.013459 0.635899 0.056576 0.952753 193 201 147
-1.232759 0.143903 6.848315 -0.450715 0.007861 0.892634 0.054340 0.952181 193 201 147
-1.237719 -0.140497 6.848315 -0.450715 0.007861 0.892634 0.056576 0.952753 193 201 147
-0.748391 -0.002545 7.094175 -0.450715 0.007861 0.892634 0.054340 0.956669 201 207 160
-0.748391 -0.002545 7.094175 -0.450714 0.007861 0.892633 0.054340 0.956669 193 201 147
-1.237719 -0.140497 6.848315 -0.450714 0.007861 0.892633 0.056576 0.952753 193 201 147
-0.753351 -0.286946 7.094175 -0.450714 0.007861 0.892633 0.056576 0.957240 193 201 147
-0.261305 -0.006793 7.264758 -0.330477 0.005764 0.943796 0.053222 0.960870 193 201 147
-0.253865 0.419808 7.264758 -0.330477 0.005764 0.943796 0.049868 0.960013 193 201 147
-0.743431 0.281855 7.094175 -0.330477 0.005764 0.943796 0.052104 0.956097 193 201 147
0.275695 -0.011041 7.264758 -0.000000 0.000000 1.000000 0.052104 0.965072 202 210 165
0.285616 0.557760 7.264758 -0.000000 0.000000 1.000000 0.047632 0.963929 194 202 149
-0.253865 0.419808 7.264758 -0.000000 0.000000 1.000000 0.049868 0.960013 193 201 147
0.275695 -0.011041 7.264758 -0.000000 0.000000 1.000000 0.052104 0.965072 193 201 147
-0.261305 -0.006793 7.264758 -0.000000 0.000000 1.000000 0.053222 0.960870 193 201 147
-0.268745 -0.433394 7.264758 -0.000000 0.000000 1.000000 0.056576 0.961727 193 201 147
-0.753351 -0.286946 7.094175 0.330478 -0.005764 -0.943796 0.065290 0.955253 255 255 255
-0.253865 0.419808 7.264758 0.330477 -0.005764 -0.943796 0.069647 0.949458 255 255 255
-0.743431 0.281855 7.094175 0.330477 -0.005764 -0.943796 0.065290 0.950650 255 255 255
0.285616 0.557760 7.264758 0.000000 0.000000 -1.000000 0.074003 0.948265 255 255 255
-0.268745 -0.433394 7.264758 0.000000 0.000000 -1.000000 0.069647 0.956362 255 255 255
-0.268745 -0.433394 7.264758 -0.330477 0.005764 0.943796 0.056576 0.961727 193 201 147
-0.753351 -0.286946 7.094175 -0.330477 0.005764 0.943796 0.056576 0.957240 193 201 147
-0.743431 0.281855 7.094175 -0.330478 0.005764 0.943796 0.052104 0.956097 193 201 147
0.265775 -0.579842 7.264760 -0.000003 0.000003 1.000000 0.056576 0.966215 200 207 159
0.275695 -0.011041 7.264758 -0.000003 0.000003 1.000000 0.052104 0.965072 193 201 147
-0.268745 -0.433394 7.264758 -0.000003 0.000003 1.000000 0.056576 0.961727 193 201 147
3 0 1 2
3 3 4 5
3 6 7 8
3 9 10 11
3 9 11 12
3 3 13 14
3 15 16 17
3 8 18 19
3 20 21 22
3 23 24 25
3 26 14 27
3 28 29 19
3 30 19 31
3 32 22 33
3 34 35 36
3 37 38 39
3 40 37 39
3 41 40 39
3 42 43 44
3 38 45 39
3 46 47 48
3 49 50 51
3 52 47 53
3 53 47 54
3 54 47 46
3 55 56 57
3 58 59 60
3 61 62 63
3 64 63 65
3 66 67 68
3 69 70 71
3 72 60 73
3 74 63 75
3 76 77 78
3 79 68 80
3 81 82 83
3 81 83 84
3 85 74 86
3 79 87 88
3 89 90 91
3 92 93 94
3 95 96 97
3 98 99 100
3 101 102 103
3 102 104 103
3 105 106 107
3 108 109 110
3 111 112 113
3 114 115 116
3 117 118 119
3 120 121 122
3 122 123 124
3 122 125 126
3 127 128 129
3 130 131 132
3 133 134 130
3 135 136 130
3 137 138 139
3 140 141 142
3 143 144 145
3 146 147 148
3 149 150 151
3 152 153 154
3 155 156 157
3 158 159 160
3 161 162 163
3 164 165 166
3 167 168 169
3 170 171 172
3 173 174 175
3 176 177 178
3 179 180 181
3 182 183 184
3 185 186 187
3 188 189 190
3 191 192 193
3 194 101 103
3 195 127 129
3 153 152 196
3 197 140 198
3 199 155 157
3 156 155 200
3 201 161 163
3 202 164 166
3 203 182 204
3 205 182 184
3 189 185 187
3 206 207 208
3 209 210 211
3 212 213 214
3 215 216 217
3 218 219 220
3 221 222 223
3 224 225 226
3 227 228 229
3 230 231 232
3 233 234 235
3 236 237 238
3 239 240 241
3 242 243 244
3 245 246 247
3 248 249 250
3 251 252 253
3 254 255 256
3 225 224 257
3 258 212 259
3 260 227 229
3 228 227 261
3 262 248 263
3 237 236 264
3 255 251 253
3 265 266 267
