ply
format ascii 1.0
comment Created by Blender 2.69 (sub 0) - www.blender.org, source file: 'hosts2-anim.blend'
element vertex 379
property float x
property float y
property float z
property float nx
property float ny
property float nz
property float s
property float t
property uchar red
property uchar green
property uchar blue
element face 134
property list uchar uint vertex_indices
end_header
-2.491148 1.022894 1.222591 0.000000 0.492687 -0.870207 0.068142 0.976524 156 101 99
-2.491148 1.481438 1.482206 0.000000 0.492687 -0.870207 0.069925 0.976524 186 147 146
-1.727848 1.481438 1.482206 0.000000 0.492687 -0.870207 0.069925 0.979107 255 255 255
-2.491148 0.827224 1.717339 -0.043106 -0.929050 -0.367435 0.067679 0.955624 156 101 99
-2.831453 0.840124 1.724643 -0.043106 -0.929050 -0.367435 0.067675 0.956775 156 101 99
-2.491148 1.022894 1.222591 -0.043106 -0.929050 -0.367435 0.065883 0.955611 156 101 99
-2.831453 0.840124 1.724643 -0.970948 -0.032191 0.237114 0.065314 0.976292 156 101 99
-2.804908 1.092666 1.867624 -0.970948 -0.032191 0.237114 0.065311 0.975332 159 108 104
-2.951989 1.100229 1.266376 -0.970948 -0.032191 0.237114 0.067110 0.976243 156 101 99
-2.804908 1.092666 1.867624 -0.146403 0.753531 0.640904 0.038683 0.962512 156 101 99
-2.491148 1.133812 1.890920 -0.146403 0.753531 0.640904 0.038682 0.963574 156 101 99
-2.491148 1.481438 1.482206 -0.146403 0.753531 0.640904 0.036879 0.963592 138 89 88
-2.891549 1.456009 1.467809 -0.072786 0.867899 0.491380 0.036873 0.962237 156 101 99
-2.491148 1.481438 1.482206 -0.072786 0.867899 0.491380 0.036879 0.963592 156 101 99
-2.491148 1.890335 0.759992 -0.072786 0.867899 0.491380 0.034078 0.963620 156 101 99
-2.804908 1.092666 1.867624 0.000000 -0.492686 0.870207 0.063159 0.950744 157 103 101
-2.831453 0.840124 1.724643 0.000000 -0.492686 0.870207 0.063070 0.949762 156 101 99
-2.491148 0.827224 1.717339 0.000000 -0.492686 0.870207 0.064221 0.949712 156 101 99
-1.727848 1.221823 1.940750 1.000000 -0.000000 -0.000000 0.050349 0.979546 74 48 47
-1.727848 0.763278 1.681135 1.000000 -0.000000 -0.000000 0.048583 0.979538 74 48 47
-1.727848 1.022893 1.222591 1.000000 -0.000000 -0.000000 0.048583 0.977756 28 18 18
-2.491148 0.827224 1.717339 -0.094917 -0.925716 -0.366116 0.067679 0.955624 156 101 99
-2.491148 1.022894 1.222591 -0.094917 -0.925716 -0.366116 0.065883 0.955611 156 101 99
-1.727848 0.763278 1.681135 -0.094917 -0.925716 -0.366116 0.067679 0.953041 28 18 18
-2.491148 1.133812 1.890920 0.000000 -0.492686 0.870207 0.064221 0.950904 156 101 99
-1.727848 0.763278 1.681135 0.000000 -0.492686 0.870207 0.066804 0.949464 29 19 19
-2.491148 1.481438 1.482206 -0.129038 0.755370 0.642468 0.036879 0.963592 138 89 88
-2.491148 1.133812 1.890920 -0.129038 0.755370 0.642468 0.038682 0.963574 156 101 99
-1.727848 1.221823 1.940750 -0.129038 0.755370 0.642468 0.038683 0.966157 28 18 18
-2.951989 1.100229 1.266376 -0.977431 0.049813 0.205299 0.067110 0.976243 156 101 99
-2.891549 1.456009 1.467809 -0.977431 0.049813 0.205299 0.067103 0.974900 156 101 99
-3.018084 1.890335 0.759992 -0.977431 0.049813 0.205299 0.069925 0.974758 156 101 99
-2.491148 1.022894 1.222591 -0.189353 -0.854464 -0.483774 0.065883 0.955611 156 101 99
-2.951989 1.100229 1.266376 -0.189353 -0.854464 -0.483774 0.065894 0.957171 156 101 99
-2.491148 1.431791 0.500377 -0.189353 -0.854464 -0.483774 0.063082 0.955592 156 101 99
-2.491148 1.481438 1.482206 1.000000 0.000000 -0.000000 0.069925 0.972991 156 101 99
-2.491148 1.022894 1.222591 1.000000 0.000000 -0.000000 0.071691 0.973000 156 101 99
-2.491148 1.431791 0.500377 1.000000 0.000000 -0.000000 0.071691 0.975806 156 101 99
-3.290024 0.642089 0.438348 0.064817 0.738456 -0.671179 0.069700 0.961669 156 101 99
-3.073974 0.603021 0.416229 0.064817 0.738456 -0.671179 0.070443 0.961598 156 101 99
-3.372010 -0.069301 -0.352267 0.064817 0.738456 -0.671179 0.070443 0.965004 162 110 108
-2.491148 1.431791 0.500377 0.000000 0.492687 -0.870207 0.063528 0.977756 156 101 99
-3.018084 1.431791 0.500377 0.000000 0.492687 -0.870207 0.065311 0.977756 156 101 99
-3.018084 1.890335 0.759992 0.000000 0.492687 -0.870207 0.065311 0.979539 163 112 110
-1.727848 1.022893 1.222591 -0.000000 0.492687 -0.870207 0.068142 0.979107 28 18 18
-2.831453 0.840124 1.724643 -0.189184 -0.874507 -0.446595 0.067675 0.956775 158 104 102
-2.951989 1.100229 1.266376 -0.189184 -0.874507 -0.446595 0.065894 0.957171 156 101 99
-2.491148 1.022894 1.222591 -0.189184 -0.874507 -0.446595 0.065883 0.955611 156 101 99
-2.804908 1.092666 1.867624 -0.970826 0.030250 0.237870 0.065311 0.975332 157 102 100
-2.891549 1.456009 1.467809 -0.970826 0.030250 0.237870 0.067103 0.974900 156 101 99
-2.951989 1.100229 1.266376 -0.970826 0.030250 0.237870 0.067110 0.976243 156 101 99
-2.891549 1.456009 1.467809 -0.070815 0.730512 0.679219 0.036873 0.962237 156 101 99
-2.804908 1.092666 1.867624 -0.070815 0.730512 0.679219 0.038683 0.962512 158 104 102
-2.491148 1.481438 1.482206 -0.070815 0.730512 0.679219 0.036879 0.963592 156 101 99
-3.018084 1.890335 0.759992 0.000000 0.852332 0.523001 0.034060 0.961837 156 101 99
-2.891549 1.456009 1.467809 0.000000 0.852332 0.523001 0.036873 0.962237 156 101 99
-2.491148 1.890335 0.759992 0.000000 0.852332 0.523001 0.034078 0.963620 156 101 99
-2.804908 1.092666 1.867624 0.000000 -0.492686 0.870207 0.063159 0.950744 156 101 99
-2.491148 0.827224 1.717339 0.000000 -0.492686 0.870207 0.064221 0.949712 157 103 101
-1.727848 1.481438 1.482206 1.000000 -0.000000 -0.000000 0.050349 0.977764 74 48 47
-2.491148 1.022894 1.222591 -0.000000 -0.870207 -0.492687 0.065883 0.955611 122 79 78
-1.727848 1.022893 1.222591 -0.000000 -0.870207 -0.492687 0.065901 0.953028 28 18 18
-1.727848 0.763278 1.681135 -0.000000 -0.870207 -0.492687 0.067679 0.953041 28 18 18
-1.727848 1.221823 1.940750 -0.000000 -0.492687 0.870207 0.066804 0.951246 29 19 19
-2.491148 1.133812 1.890920 -0.000000 -0.492687 0.870207 0.064221 0.950904 156 101 99
-1.727848 0.763278 1.681135 -0.000000 -0.492687 0.870207 0.066804 0.949464 30 19 19
-1.727848 1.481438 1.482206 -0.000000 0.870207 0.492687 0.036905 0.966175 28 18 18
-2.491148 1.481438 1.482206 -0.000000 0.870207 0.492687 0.036879 0.963592 138 89 88
-1.727848 1.221823 1.940750 -0.000000 0.870207 0.492687 0.038683 0.966157 41 27 26
-3.018084 1.431791 0.500377 -0.996844 -0.039113 0.069083 0.069925 0.976524 149 96 94
-2.951989 1.100229 1.266376 -0.996844 -0.039113 0.069083 0.067110 0.976243 156 101 99
-3.018084 1.890335 0.759992 -0.996844 -0.039113 0.069083 0.069925 0.974758 156 101 99
-2.951989 1.100229 1.266376 -0.000000 -0.917717 -0.397234 0.065894 0.957171 156 101 99
-3.018084 1.431791 0.500377 -0.000000 -0.917717 -0.397234 0.063070 0.957375 156 101 99
-2.491148 1.431791 0.500377 -0.000000 -0.917717 -0.397234 0.063082 0.955592 157 104 102
-2.491148 1.890335 0.759992 1.000000 -0.000000 0.000000 0.069925 0.975798 192 158 157
-2.825936 0.465039 0.624909 -0.997130 0.065877 0.037298 0.067803 0.961565 156 101 99
-2.730097 1.826512 0.782415 -0.997130 0.065877 0.037298 0.069700 0.957432 64 41 41
-2.825936 0.588002 0.407726 -0.997130 0.065877 0.037298 0.068647 0.961590 156 101 99
-2.605270 0.465039 0.624909 0.000000 -0.114922 0.993375 0.071196 0.969284 156 101 99
-2.730097 1.826512 0.782415 0.000000 -0.114922 0.993375 0.071941 0.965004 64 41 41
-2.825936 0.465039 0.624909 0.000000 -0.114922 0.993375 0.071941 0.969340 156 101 99
-2.888816 1.826512 0.782415 0.079529 -0.120441 0.989530 0.071245 0.965004 64 41 41
-3.290024 0.519126 0.655532 0.079529 -0.120441 0.989530 0.071186 0.960673 156 101 99
-3.073974 0.480058 0.633412 0.079529 -0.120441 0.989530 0.071929 0.960748 156 101 99
-2.730097 1.826512 0.782415 0.995147 0.085631 0.048482 0.069564 0.957375 91 71 71
-2.605270 0.465039 0.624909 0.995147 0.085631 0.048482 0.067679 0.953251 156 101 99
-2.605270 0.588002 0.407726 0.995147 0.085631 0.048482 0.068523 0.953228 156 101 99
-3.073974 0.480058 0.633412 -0.102686 -0.855351 0.507770 0.071929 0.960748 156 101 99
-3.290024 0.519126 0.655532 -0.102686 -0.855351 0.507770 0.071186 0.960673 156 101 99
-3.372010 -0.069301 -0.352267 -0.102686 -0.855351 0.507770 0.071929 0.957392 120 80 79
-3.290024 0.519126 0.655532 -0.948413 0.275888 0.156200 0.069564 0.953958 156 101 99
-2.888816 1.826512 0.782415 -0.948413 0.275888 0.156200 0.071447 0.950189 52 35 35
-3.290024 0.642089 0.438348 -0.948413 0.275888 0.156200 0.070407 0.953990 156 101 99
-3.073974 0.603021 0.416229 0.955355 -0.257111 -0.145569 0.066751 0.968395 157 103 101
-3.073974 0.480058 0.633412 0.955355 -0.257111 -0.145569 0.065908 0.968413 168 128 121
-3.372010 -0.069301 -0.352267 0.955355 -0.257111 -0.145569 0.067803 0.965004 122 79 78
-2.730097 1.826512 0.782415 0.000000 0.289571 -0.957156 0.071384 0.948466 78 56 56
-2.605270 0.588002 0.407726 0.000000 0.289571 -0.957156 0.070640 0.944232 156 101 99
-2.825936 0.588002 0.407726 0.000000 0.289571 -0.957156 0.071384 0.944175 156 101 99
-3.290024 0.642089 0.438348 -0.044867 0.292666 -0.955161 0.069700 0.961669 156 101 99
-2.888816 1.826512 0.782415 -0.044867 0.292666 -0.955161 0.069792 0.957382 84 64 64
-3.073974 0.603021 0.416229 -0.044867 0.292666 -0.955161 0.070443 0.961598 157 102 100
-3.290024 0.519126 0.655532 -0.996712 0.070505 0.039918 0.069564 0.953958 172 125 123
-3.290024 0.642089 0.438348 -0.996712 0.070505 0.039918 0.070407 0.953990 156 101 99
-3.372010 -0.069301 -0.352267 -0.996712 0.070505 0.039918 0.071447 0.957375 146 100 99
-2.888816 1.826512 0.782415 0.989123 -0.128000 -0.072470 0.067803 0.972633 64 41 41
-3.073974 0.480058 0.633412 0.989123 -0.128000 -0.072470 0.065908 0.968413 156 101 99
-3.073974 0.603021 0.416229 0.989123 -0.128000 -0.072470 0.066751 0.968395 158 107 104
-2.343331 0.446615 0.614478 -0.980473 -0.171132 -0.096890 0.063070 0.945030 156 101 99
-2.600774 1.826512 0.782415 -0.980473 -0.171132 -0.096890 0.064977 0.940647 64 41 41
-2.343331 0.569578 0.397294 -0.980473 -0.171132 -0.096890 0.063913 0.945047 156 101 99
-2.128230 0.489464 0.638738 0.112625 -0.853462 0.508840 0.070448 0.969463 156 101 99
-2.343331 0.446615 0.614478 0.112625 -0.853462 0.508840 0.071194 0.969485 156 101 99
-2.152435 -0.122547 -0.382413 0.112625 -0.853462 0.508840 0.071196 0.972825 186 175 159
-2.825936 0.588002 0.407726 0.000000 0.744254 -0.667896 0.071384 0.944175 156 101 99
-2.605270 0.588002 0.407726 0.000000 0.744254 -0.667896 0.070640 0.944232 156 101 99
-2.792397 -0.119546 -0.380714 0.000000 0.744254 -0.667896 0.071015 0.940803 174 130 128
-2.343331 0.569578 0.397294 -0.071092 0.737264 -0.671854 0.039771 0.968721 156 101 99
-2.128230 0.612427 0.421555 -0.071092 0.737264 -0.671854 0.039025 0.968743 156 101 99
-2.152435 -0.122547 -0.382413 -0.071092 0.737264 -0.671854 0.039783 0.965328 156 101 99
-2.128230 0.612427 0.421555 0.999727 -0.020332 -0.011511 0.037655 0.974044 156 101 99
-2.128230 0.489464 0.638738 0.999727 -0.020332 -0.011511 0.036812 0.974075 156 101 99
-2.152435 -0.122547 -0.382413 0.999727 -0.020332 -0.011511 0.038683 0.970521 156 101 99
-2.605270 0.465039 0.624909 0.000000 -0.864537 0.502570 0.071196 0.969284 156 101 99
-2.825936 0.465039 0.624909 0.000000 -0.864537 0.502570 0.071941 0.969340 156 101 99
-2.792397 -0.119546 -0.380714 0.000000 -0.864537 0.502570 0.071578 0.972659 157 125 118
-2.825936 0.465039 0.624909 -0.999443 -0.029048 -0.016446 0.067803 0.961565 156 101 99
-2.825936 0.588002 0.407726 -0.999443 -0.029048 -0.016446 0.068647 0.961590 156 101 99
-2.792397 -0.119546 -0.380714 -0.999443 -0.029048 -0.016446 0.069700 0.965004 117 76 75
-2.343331 0.446615 0.614478 -0.981785 -0.165335 -0.093608 0.063070 0.945030 156 101 99
-2.343331 0.569578 0.397294 -0.981785 -0.165335 -0.093608 0.063913 0.945047 156 101 99
-2.152435 -0.122547 -0.382413 -0.981785 -0.165335 -0.093608 0.064977 0.948466 117 76 75
-2.491148 1.890335 0.759992 0.000000 0.492687 -0.870207 0.063528 0.979539 159 106 104
-3.018084 1.890335 0.759992 0.000000 0.492687 -0.870207 0.065311 0.979539 157 103 101
-2.605270 0.588002 0.407726 0.983076 -0.159419 -0.090259 0.068523 0.953228 156 101 99
-2.605270 0.465039 0.624909 0.983076 -0.159419 -0.090259 0.067679 0.953251 173 143 133
-2.792397 -0.119546 -0.380714 0.983076 -0.159419 -0.090259 0.069564 0.949745 151 98 96
-2.600774 1.826512 0.782415 0.047349 0.301479 -0.952296 0.039783 0.973156 84 63 63
-2.128230 0.612427 0.421555 0.047349 0.301479 -0.952296 0.039025 0.968743 156 101 99
-2.343331 0.569578 0.397294 0.047349 0.301479 -0.952296 0.039771 0.968721 156 101 99
-2.600774 1.826512 0.782415 0.933899 0.311132 0.176154 0.038683 0.977929 123 107 107
-2.128230 0.489464 0.638738 0.933899 0.311132 0.176154 0.036812 0.974075 156 101 99
-2.128230 0.612427 0.421555 0.933899 0.311132 0.176154 0.037655 0.974044 156 101 99
-2.128230 0.489464 0.638738 -0.084271 -0.135860 0.987138 0.070448 0.969463 161 114 110
-2.600774 1.826512 0.782415 -0.084271 -0.135860 0.987138 0.071196 0.965004 64 41 41
-2.343331 0.446615 0.614478 -0.084271 -0.135860 0.987138 0.071194 0.969485 156 102 100
2.546993 1.998099 0.779178 -0.000000 -0.179056 -0.983839 0.048583 0.949011 179 153 170
0.075269 -2.213863 1.545745 -0.000000 -0.179056 -0.983839 0.063070 0.940647 179 153 170
-2.396455 1.998100 0.779178 -0.000000 -0.179056 -0.983839 0.063070 0.957375 179 153 170
2.546993 2.191621 1.842499 0.175229 0.564263 0.806785 0.006860 0.221291 179 153 170
0.075269 2.537451 2.137473 0.175229 0.564263 0.806785 0.503451 0.223788 179 153 170
1.311131 0.564052 3.249240 0.175229 0.564263 0.806785 0.252378 0.598233 179 153 170
-1.423132 0.484900 1.879943 -0.854358 -0.483024 0.191730 0.054499 0.963515 179 153 170
-1.160593 0.564052 3.249240 -0.854358 -0.483024 0.191730 0.049878 0.964262 179 153 170
-2.396455 2.191622 1.842499 -0.854358 -0.483024 0.191730 0.053590 0.957426 179 153 170
0.075269 -2.213863 1.545745 -0.866026 -0.491919 0.089528 0.057245 0.972869 179 153 170
-0.236654 -1.592094 1.944810 -0.866026 -0.491919 0.089528 0.055541 0.970938 179 153 170
-1.423132 0.484900 1.879943 -0.866026 -0.491919 0.089528 0.054499 0.963515 179 153 170
-2.396455 2.191622 1.842499 -0.866025 -0.491919 0.089528 0.053590 0.957426 179 153 170
-2.396455 1.998100 0.779178 -0.866025 -0.491919 0.089528 0.057245 0.957375 179 153 170
-1.423132 0.484900 1.879943 -0.866025 -0.491919 0.089528 0.054499 0.963515 179 153 170
-0.350668 -1.175863 3.128933 -0.866026 -0.491919 0.089528 0.051350 0.970282 179 153 170
0.075269 -1.921488 3.152220 -0.866026 -0.491919 0.089528 0.051724 0.972947 179 153 170
0.075269 -1.755176 4.066033 -0.866026 -0.491919 0.089528 0.048583 0.972991 179 153 170
0.075269 -2.213863 1.545745 -0.866025 -0.491920 0.089528 0.057245 0.972869 179 153 170
0.075269 -2.075120 2.308074 -0.866025 -0.491920 0.089528 0.054625 0.972906 179 153 170
-0.236654 -1.592094 1.944810 -0.866025 -0.491920 0.089528 0.055541 0.970938 179 153 170
2.546993 2.191621 1.842499 0.115506 0.977254 -0.177858 0.065311 0.974109 179 153 170
2.546993 1.998099 0.779178 0.115506 0.977254 -0.177858 0.065311 0.977756 179 153 170
0.075269 2.537451 2.137473 0.115506 0.977254 -0.177858 0.056947 0.972991 179 153 170
2.546993 2.191621 1.842499 0.854358 -0.483024 0.191730 0.062253 0.972940 179 153 170
1.311131 0.564052 3.249240 0.854358 -0.483024 0.191730 0.058540 0.966104 179 153 170
1.573670 0.484900 1.879944 0.854358 -0.483024 0.191730 0.063162 0.966851 179 153 170
1.573670 0.484900 1.879944 0.866025 -0.491919 0.089528 0.063162 0.966851 179 153 170
0.387191 -1.592094 1.944810 0.866025 -0.491919 0.089528 0.064203 0.959428 179 153 170
0.075269 -2.213863 1.545745 0.866025 -0.491919 0.089528 0.065908 0.957497 180 154 171
0.075269 -2.213863 1.545745 0.866025 -0.491920 0.089528 0.065908 0.957497 180 154 171
2.546993 1.998099 0.779178 0.866025 -0.491920 0.089528 0.065908 0.972991 179 153 170
1.573670 0.484900 1.879944 0.866025 -0.491920 0.089528 0.063162 0.966851 179 153 170
0.075269 -1.755176 4.066033 0.866025 -0.491920 0.089528 0.057245 0.957375 179 153 170
0.075269 -1.921488 3.152220 0.866025 -0.491920 0.089528 0.060386 0.957419 179 153 170
0.501206 -1.175863 3.128933 0.866025 -0.491920 0.089528 0.060012 0.960084 179 153 170
0.387191 -1.592094 1.944810 0.866025 -0.491920 0.089528 0.064203 0.959428 179 153 170
0.075269 -2.075120 2.308074 0.866025 -0.491920 0.089528 0.063287 0.957460 179 153 170
0.501206 -1.175863 3.128933 -0.000000 -0.031216 -0.999513 0.042277 0.964011 77 72 66
0.075269 -1.921488 3.152220 -0.000000 -0.031216 -0.999513 0.039783 0.962570 77 72 66
-0.350668 -1.175863 3.128933 -0.000000 -0.031216 -0.999513 0.042277 0.961129 77 72 66
0.387191 -1.592094 1.944810 -0.000000 0.031216 0.999513 0.041663 0.971655 77 72 66
1.573670 0.484900 1.879944 -0.000000 0.031216 0.999513 0.048583 0.967640 0 0 0
-1.423132 0.484900 1.879943 -0.000000 0.031216 0.999513 0.048583 0.977781 0 0 0
-0.236654 -1.592094 1.944810 0.000000 0.601052 0.799210 0.041663 0.973766 77 72 66
0.075269 -2.075120 2.308074 0.000000 0.601052 0.799210 0.039808 0.972711 77 72 66
0.387191 -1.592094 1.944810 0.000000 0.601052 0.799210 0.041663 0.971655 77 72 66
-1.423132 0.484900 1.879943 0.000000 -0.601052 -0.799210 0.048583 0.957500 0 0 0
1.573670 0.484900 1.879944 0.000000 -0.601052 -0.799210 0.048583 0.967640 49 45 42
0.501206 -1.175863 3.128933 0.000000 -0.601052 -0.799210 0.042277 0.964011 77 72 66
-0.236654 -1.592094 1.944810 0.000000 0.031216 0.999513 0.041663 0.973766 77 72 66
-1.423132 0.484900 1.879943 0.000000 0.031216 0.999513 0.048583 0.977781 1 1 1
-0.350668 -1.175863 3.128933 -0.000000 -0.601052 -0.799210 0.042277 0.961129 77 72 66
-1.423132 0.484900 1.879943 -0.000000 -0.601052 -0.799210 0.048583 0.957500 2 1 1
2.621972 0.967189 1.246626 -0.000000 0.492686 -0.870207 0.065311 0.976524 156 101 99
1.858672 1.425733 1.506241 -0.000000 0.492686 -0.870207 0.067894 0.978307 255 255 255
2.621972 1.425733 1.506241 -0.000000 0.492686 -0.870207 0.065311 0.978307 186 147 146
2.621972 0.771519 1.741374 0.043106 -0.929050 -0.367434 0.038683 0.967926 156 101 99
2.621972 0.967189 1.246626 0.043106 -0.929050 -0.367434 0.036887 0.967939 156 101 99
2.962277 0.784420 1.748678 0.043106 -0.929050 -0.367434 0.038679 0.966775 156 101 99
2.962277 0.784420 1.748678 0.970948 -0.032191 0.237114 0.065314 0.973223 156 101 99
3.082813 1.044524 1.290411 0.970948 -0.032191 0.237114 0.067110 0.973272 156 101 99
2.935732 1.036961 1.891659 0.970948 -0.032191 0.237114 0.065311 0.974184 159 108 104
2.935732 1.036961 1.891659 0.146405 0.753531 0.640903 0.038683 0.961162 156 101 99
2.621972 1.425733 1.506241 0.146405 0.753531 0.640903 0.036879 0.960082 138 89 88
2.621972 1.078108 1.914956 0.146405 0.753531 0.640903 0.038682 0.960101 156 101 99
3.022373 1.400305 1.491844 0.072785 0.867899 0.491380 0.036873 0.961437 156 101 99
2.621972 1.834630 0.784027 0.072785 0.867899 0.491380 0.034078 0.960054 156 101 99
2.621972 1.425733 1.506241 0.072785 0.867899 0.491380 0.036879 0.960082 156 101 99
2.935732 1.036961 1.891659 -0.000001 -0.492686 0.870207 0.063159 0.951748 157 103 101
2.621972 0.771519 1.741374 -0.000001 -0.492686 0.870207 0.064221 0.952780 156 101 99
2.962277 0.784420 1.748678 -0.000001 -0.492686 0.870207 0.063070 0.952730 156 101 99
1.858672 1.166118 1.964785 -1.000000 0.000000 0.000000 0.061761 0.979546 74 48 47
1.858672 0.967189 1.246626 -1.000000 0.000000 0.000000 0.063528 0.977756 28 18 18
1.858672 0.707574 1.705170 -1.000000 0.000000 0.000000 0.063528 0.979538 74 48 47
2.621972 0.771519 1.741374 0.094916 -0.925716 -0.366116 0.038683 0.967926 156 101 99
1.858672 0.707574 1.705170 0.094916 -0.925716 -0.366116 0.038683 0.970509 28 18 18
2.621972 0.967189 1.246626 0.094916 -0.925716 -0.366116 0.036887 0.967939 156 101 99
2.621972 1.078108 1.914956 0.000000 -0.492687 0.870207 0.064221 0.951588 156 101 99
1.858672 0.707574 1.705170 0.000000 -0.492687 0.870207 0.066804 0.953028 29 19 19
2.621972 0.771519 1.741374 0.000000 -0.492687 0.870207 0.064221 0.952780 156 101 99
2.621972 1.425733 1.506241 0.129038 0.755371 0.642467 0.036879 0.960082 138 89 88
1.858672 1.166118 1.964785 0.129038 0.755371 0.642467 0.038683 0.957517 28 18 18
2.621972 1.078108 1.914956 0.129038 0.755371 0.642467 0.038682 0.960101 156 101 99
3.082813 1.044524 1.290411 0.977431 0.049813 0.205299 0.067110 0.973272 156 101 99
3.148908 1.834630 0.784027 0.977431 0.049813 0.205299 0.069925 0.974758 156 101 99
3.022373 1.400305 1.491844 0.977431 0.049813 0.205299 0.067103 0.974615 156 101 99
2.621972 0.967189 1.246626 0.189353 -0.854464 -0.483774 0.036887 0.967939 156 101 99
2.621972 1.376086 0.524412 0.189353 -0.854464 -0.483774 0.034086 0.967958 156 101 99
3.082813 1.044524 1.290411 0.189353 -0.854464 -0.483774 0.036898 0.966379 156 101 99
2.621972 1.425733 1.506241 -1.000000 0.000000 0.000000 0.069925 0.978621 156 101 99
2.621972 1.376086 0.524412 -1.000000 0.000000 0.000000 0.071691 0.975806 156 101 99
2.621972 0.967189 1.246626 -1.000000 0.000000 0.000000 0.071691 0.978613 156 101 99
3.420847 0.586384 0.462383 -0.064818 0.738456 -0.671179 0.070443 0.960717 156 101 99
3.502834 -0.125006 -0.328231 -0.064818 0.738456 -0.671179 0.071186 0.957382 162 110 108
3.204798 0.547316 0.440264 -0.064818 0.738456 -0.671179 0.071186 0.960788 156 101 99
2.621972 1.376086 0.524412 0.000000 0.492687 -0.870207 0.035957 0.979491 156 101 99
3.148908 1.834630 0.784027 0.000000 0.492687 -0.870207 0.034174 0.977708 163 112 110
3.148908 1.376086 0.524412 0.000000 0.492687 -0.870207 0.035957 0.977708 156 101 99
1.858672 0.967189 1.246626 0.000000 0.492687 -0.870207 0.067894 0.976524 28 18 18
1.858672 1.425733 1.506241 0.000000 0.492687 -0.870207 0.067894 0.978307 255 255 255
2.621972 0.967189 1.246626 0.000000 0.492687 -0.870207 0.065311 0.976524 156 101 99
2.962277 0.784420 1.748678 0.189184 -0.874507 -0.446595 0.038679 0.966775 158 104 102
2.621972 0.967189 1.246626 0.189184 -0.874507 -0.446595 0.036887 0.967939 156 101 99
3.082813 1.044524 1.290411 0.189184 -0.874507 -0.446595 0.036898 0.966379 156 101 99
2.935732 1.036961 1.891659 0.970826 0.030250 0.237870 0.065311 0.974184 157 102 100
3.082813 1.044524 1.290411 0.970826 0.030250 0.237870 0.067110 0.973272 156 101 99
3.022373 1.400305 1.491844 0.970826 0.030250 0.237870 0.067103 0.974615 156 101 99
3.022373 1.400305 1.491844 0.070814 0.730511 0.679219 0.036873 0.961437 156 101 99
2.621972 1.425733 1.506241 0.070814 0.730511 0.679219 0.036879 0.960082 156 101 99
2.935732 1.036961 1.891659 0.070814 0.730511 0.679219 0.038683 0.961162 158 104 102
3.148908 1.834630 0.784027 -0.000000 0.852332 0.523001 0.034060 0.961837 156 101 99
2.621972 1.834630 0.784027 -0.000000 0.852332 0.523001 0.034078 0.960054 156 101 99
3.022373 1.400305 1.491844 -0.000000 0.852332 0.523001 0.036873 0.961437 156 101 99
2.621972 0.771519 1.741374 0.000000 -0.492687 0.870207 0.064221 0.952780 157 103 101
2.935732 1.036961 1.891659 0.000000 -0.492687 0.870207 0.063159 0.951748 156 101 99
1.858672 1.425733 1.506241 -1.000000 0.000000 0.000000 0.061761 0.977764 74 48 47
2.621972 0.967189 1.246626 0.000000 -0.870207 -0.492687 0.036887 0.967939 122 79 78
1.858672 0.707574 1.705170 0.000000 -0.870207 -0.492687 0.038683 0.970509 28 18 18
1.858672 0.967189 1.246626 0.000000 -0.870207 -0.492687 0.036905 0.970521 28 18 18
1.858672 1.166118 1.964785 0.000000 -0.492687 0.870207 0.066804 0.951246 29 19 19
1.858672 0.707574 1.705170 0.000000 -0.492687 0.870207 0.066804 0.953028 30 19 19
1.858672 1.425733 1.506241 0.000001 0.870207 0.492687 0.036905 0.957500 28 18 18
1.858672 1.166118 1.964785 0.000001 0.870207 0.492687 0.038683 0.957517 41 27 26
2.621972 1.425733 1.506241 0.000001 0.870207 0.492687 0.036879 0.960082 138 89 88
3.148908 1.376086 0.524412 0.996844 -0.039113 0.069083 0.069925 0.972991 149 96 94
3.148908 1.834630 0.784027 0.996844 -0.039113 0.069083 0.069925 0.974758 156 101 99
3.082813 1.044524 1.290411 0.996844 -0.039113 0.069083 0.067110 0.973272 156 101 99
3.082813 1.044524 1.290411 -0.000000 -0.917717 -0.397234 0.036898 0.966379 156 101 99
2.621972 1.376086 0.524412 -0.000000 -0.917717 -0.397234 0.034086 0.967958 157 104 102
3.148908 1.376086 0.524412 -0.000000 -0.917717 -0.397234 0.034074 0.966175 156 101 99
2.621972 1.834630 0.784027 -1.000000 0.000000 -0.000000 0.069925 0.975815 192 158 157
2.956759 0.409334 0.648944 0.997131 0.065876 0.037297 0.067803 0.968443 156 101 99
2.956759 0.532298 0.431761 0.997131 0.065876 0.037297 0.068647 0.968418 156 101 99
2.860921 1.770808 0.806451 0.997131 0.065876 0.037297 0.069700 0.972577 64 41 41
2.736094 0.409334 0.648944 0.000000 -0.114922 0.993375 0.071384 0.944185 156 101 99
2.956759 0.409334 0.648944 0.000000 -0.114922 0.993375 0.072129 0.944130 156 101 99
2.860921 1.770808 0.806451 0.000000 -0.114922 0.993375 0.072129 0.948466 64 41 41
3.019640 1.770808 0.806451 -0.079528 -0.120441 0.989530 0.071505 0.949763 64 41 41
3.204798 0.424353 0.657448 -0.079528 -0.120441 0.989530 0.072190 0.954020 156 101 99
3.420847 0.463421 0.679567 -0.079528 -0.120441 0.989530 0.071447 0.954095 156 101 99
2.860921 1.770808 0.806451 -0.995147 0.085632 0.048482 0.068768 0.940836 91 71 71
2.736094 0.532298 0.431761 -0.995147 0.085632 0.048482 0.067727 0.944983 156 101 99
2.736094 0.409334 0.648944 -0.995147 0.085632 0.048482 0.066884 0.944960 156 101 99
3.204798 0.424353 0.657448 0.102685 -0.855351 0.507770 0.072190 0.954020 156 101 99
3.502834 -0.125006 -0.328231 0.102685 -0.855351 0.507770 0.072190 0.957375 120 80 79
3.420847 0.463421 0.679567 0.102685 -0.855351 0.507770 0.071447 0.954095 156 101 99
3.420847 0.463421 0.679567 0.948414 0.275887 0.156199 0.034074 0.973938 156 101 99
3.420847 0.586384 0.462383 0.948414 0.275887 0.156199 0.034917 0.973906 156 101 99
3.019640 1.770808 0.806451 0.948414 0.275887 0.156199 0.035957 0.977708 52 35 35
3.204798 0.547316 0.440264 -0.955355 -0.257111 -0.145569 0.066751 0.961613 157 103 101
3.502834 -0.125006 -0.328231 -0.955355 -0.257111 -0.145569 0.067803 0.965004 122 79 78
3.204798 0.424353 0.657448 -0.955355 -0.257111 -0.145569 0.065908 0.961596 168 128 121
2.860921 1.770808 0.806451 0.000000 0.289571 -0.957156 0.036812 0.970521 78 56 56
2.956759 0.532298 0.431761 0.000000 0.289571 -0.957156 0.036812 0.974812 156 101 99
2.736094 0.532298 0.431761 0.000000 0.289571 -0.957156 0.036067 0.974755 156 101 99
3.420847 0.586384 0.462383 0.044867 0.292666 -0.955161 0.070443 0.960717 156 101 99
3.204798 0.547316 0.440264 0.044867 0.292666 -0.955161 0.071186 0.960788 157 102 100
3.019640 1.770808 0.806451 0.044867 0.292666 -0.955161 0.070535 0.965004 84 64 64
3.420847 0.463421 0.679567 0.996712 0.070506 0.039918 0.034074 0.973938 172 125 123
3.502834 -0.125006 -0.328231 0.996712 0.070506 0.039918 0.035957 0.970521 146 100 99
3.420847 0.586384 0.462383 0.996712 0.070506 0.039918 0.034917 0.973906 156 101 99
3.019640 1.770808 0.806451 -0.989123 -0.127999 -0.072470 0.067803 0.957375 64 41 41
3.204798 0.547316 0.440264 -0.989123 -0.127999 -0.072470 0.066751 0.961613 158 107 104
3.204798 0.424353 0.657448 -0.989123 -0.127999 -0.072470 0.065908 0.961596 156 101 99
2.474155 0.390910 0.638513 0.980472 -0.171132 -0.096891 0.064977 0.944083 156 101 99
2.474155 0.513873 0.421329 0.980472 -0.171132 -0.096891 0.065821 0.944065 156 101 99
2.731599 1.770808 0.806451 0.980472 -0.171132 -0.096891 0.066884 0.948466 64 41 41
2.259054 0.433759 0.662774 -0.112626 -0.853462 0.508840 0.069700 0.968367 156 101 99
2.283258 -0.178251 -0.358377 -0.112626 -0.853462 0.508840 0.070448 0.965004 186 175 159
2.474155 0.390910 0.638513 -0.112626 -0.853462 0.508840 0.070446 0.968344 156 101 99
2.956759 0.532298 0.431761 0.000000 0.744254 -0.667897 0.036812 0.974812 156 101 99
2.923221 -0.175251 -0.356678 0.000000 0.744254 -0.667897 0.036442 0.978184 174 130 128
2.736094 0.532298 0.431761 0.000000 0.744254 -0.667897 0.036067 0.974755 156 101 99
2.474155 0.513873 0.421329 0.071092 0.737264 -0.671854 0.039771 0.961935 156 101 99
2.283258 -0.178251 -0.358377 0.071092 0.737264 -0.671854 0.039783 0.965328 156 101 99
2.259054 0.556723 0.445590 0.071092 0.737264 -0.671854 0.039025 0.961913 156 101 99
2.259054 0.556723 0.445590 -0.999727 -0.020332 -0.011511 0.069611 0.944943 156 101 99
2.283258 -0.178251 -0.358377 -0.999727 -0.020332 -0.011511 0.070640 0.948466 156 101 99
2.259054 0.433759 0.662774 -0.999727 -0.020332 -0.011511 0.068768 0.944912 156 101 99
2.736094 0.409334 0.648944 0.000000 -0.864537 0.502570 0.071384 0.944185 156 101 99
2.923221 -0.175251 -0.356678 0.000000 -0.864537 0.502570 0.071766 0.940810 157 125 118
2.956759 0.409334 0.648944 0.000000 -0.864537 0.502570 0.072129 0.944130 156 101 99
2.956759 0.409334 0.648944 0.999443 -0.029048 -0.016446 0.067803 0.968443 156 101 99
2.923221 -0.175251 -0.356678 0.999443 -0.029048 -0.016446 0.069700 0.965004 117 76 75
2.956759 0.532298 0.431761 0.999443 -0.029048 -0.016446 0.068647 0.968418 156 101 99
2.474155 0.390910 0.638513 0.981785 -0.165335 -0.093608 0.064977 0.944083 156 101 99
2.283258 -0.178251 -0.358377 0.981785 -0.165335 -0.093608 0.066884 0.940647 117 76 75
2.474155 0.513873 0.421329 0.981785 -0.165335 -0.093608 0.065821 0.944065 156 101 99
2.621972 1.834630 0.784027 0.000000 0.492687 -0.870207 0.034174 0.979491 159 106 104
3.148908 1.834630 0.784027 0.000000 0.492687 -0.870207 0.034174 0.977708 157 103 101
2.736094 0.532298 0.431761 -0.983076 -0.159419 -0.090259 0.067727 0.944983 156 101 99
2.923221 -0.175251 -0.356678 -0.983076 -0.159419 -0.090259 0.068768 0.948466 151 98 96
2.736094 0.409334 0.648944 -0.983076 -0.159419 -0.090259 0.066884 0.944960 173 143 133
2.731599 1.770808 0.806451 -0.047349 0.301479 -0.952296 0.039783 0.957500 84 63 63
2.474155 0.513873 0.421329 -0.047349 0.301479 -0.952296 0.039771 0.961935 156 101 99
2.259054 0.556723 0.445590 -0.047349 0.301479 -0.952296 0.039025 0.961913 156 101 99
2.731599 1.770808 0.806451 -0.933898 0.311133 0.176155 0.070640 0.941058 123 107 107
2.259054 0.556723 0.445590 -0.933898 0.311133 0.176155 0.069611 0.944943 156 101 99
2.259054 0.433759 0.662774 -0.933898 0.311133 0.176155 0.068768 0.944912 156 101 99
2.259054 0.433759 0.662774 0.084271 -0.135860 0.987137 0.069700 0.968367 161 114 110
2.474155 0.390910 0.638513 0.084271 -0.135860 0.987137 0.070446 0.968344 156 102 100
2.731599 1.770808 0.806451 0.084271 -0.135860 0.987137 0.070448 0.972825 64 41 41
0.075269 2.537451 2.137473 -0.175229 0.564263 0.806785 0.503451 0.223788 183 157 174
-2.396455 2.191622 1.842499 -0.175229 0.564263 0.806785 0.993461 0.224259 179 153 170
-1.160593 0.564052 3.249240 -0.175229 0.564263 0.806785 0.745679 0.599717 179 153 170
0.075269 2.537451 2.137473 0.000000 0.490842 0.871249 0.503451 0.223788 179 153 170
-1.160593 0.564052 3.249240 0.000000 0.490842 0.871249 0.745679 0.599717 179 153 170
1.311131 0.564052 3.249240 0.000000 0.490842 0.871249 0.252378 0.598233 179 153 170
1.311131 0.564052 3.249240 -0.000000 0.332184 0.943215 0.252378 0.598233 179 153 170
-1.160593 0.564052 3.249240 -0.000000 0.332184 0.943215 0.745679 0.599717 179 153 170
0.075269 -1.755176 4.066033 -0.000000 0.332184 0.943215 0.502732 0.990655 179 153 170
-0.350668 -1.175863 3.128933 -0.884147 -0.424988 0.194086 0.051350 0.970282 179 153 170
-1.160593 0.564052 3.249240 -0.884147 -0.424988 0.194086 0.049878 0.964262 179 153 170
-1.423132 0.484900 1.879943 -0.884147 -0.424988 0.194086 0.054499 0.963515 179 153 170
0.075269 -1.755176 4.066033 -0.893470 -0.425787 0.142885 0.048583 0.972991 179 153 170
-1.160593 0.564052 3.249240 -0.893470 -0.425787 0.142885 0.049878 0.964262 179 153 170
-0.350668 -1.175863 3.128933 -0.893470 -0.425787 0.142885 0.051350 0.970282 179 153 170
0.075269 -2.213863 1.545745 -0.866025 -0.491919 0.089528 0.057245 0.972869 179 153 170
0.075269 2.537451 2.137473 -0.115506 0.977254 -0.177858 0.056947 0.972991 179 153 170
-2.396455 1.998100 0.779178 -0.115506 0.977254 -0.177858 0.048583 0.977756 179 153 170
-2.396455 2.191622 1.842499 -0.115506 0.977254 -0.177858 0.048583 0.974109 179 153 170
2.546993 1.998099 0.779178 0.000000 0.929410 -0.369050 0.065311 0.977756 179 153 170
-2.396455 1.998100 0.779178 0.000000 0.929410 -0.369050 0.048583 0.977756 179 153 170
0.075269 2.537451 2.137473 0.000000 0.929410 -0.369050 0.056947 0.972991 179 153 170
1.573670 0.484900 1.879944 0.884147 -0.424988 0.194087 0.063162 0.966851 179 153 170
1.311131 0.564052 3.249240 0.884147 -0.424988 0.194087 0.058540 0.966104 179 153 170
0.501206 -1.175863 3.128933 0.884147 -0.424988 0.194087 0.060012 0.960084 179 153 170
0.501206 -1.175863 3.128933 0.893470 -0.425787 0.142885 0.060012 0.960084 179 153 170
1.311131 0.564052 3.249240 0.893470 -0.425787 0.142885 0.058540 0.966104 179 153 170
0.075269 -1.755176 4.066033 0.893470 -0.425787 0.142885 0.057245 0.957375 179 153 170
2.546993 2.191621 1.842499 0.866025 -0.491920 0.089528 0.062253 0.972940 179 153 170
3 0 1 2
3 3 4 5
3 6 7 8
3 9 10 11
3 12 13 14
3 15 16 17
3 18 19 20
3 21 22 23
3 24 17 25
3 26 27 28
3 29 30 31
3 32 33 34
3 35 36 37
3 38 39 40
3 41 42 43
3 44 0 2
3 45 46 47
3 48 49 50
3 51 52 53
3 54 55 56
3 24 57 58
3 59 18 20
3 60 61 62
3 63 64 65
3 66 67 68
3 69 70 71
3 72 73 74
3 75 35 37
3 76 77 78
3 79 80 81
3 82 83 84
3 85 86 87
3 88 89 90
3 91 92 93
3 94 95 96
3 97 98 99
3 100 101 102
3 103 104 105
3 106 107 108
3 109 110 111
3 112 113 114
3 115 116 117
3 118 119 120
3 121 122 123
3 124 125 126
3 127 128 129
3 130 131 132
3 133 41 134
3 135 136 137
3 138 139 140
3 141 142 143
3 144 145 146
3 147 148 149
3 150 151 152
3 153 154 155
3 156 157 158
3 159 160 161
3 162 163 164
3 165 166 167
3 168 169 170
3 171 172 173
3 174 175 176
3 177 178 179
3 180 181 182
3 183 184 177
3 185 186 187
3 188 189 190
3 191 192 193
3 194 195 196
3 197 188 198
3 199 200 196
3 201 202 203
3 204 205 206
3 207 208 209
3 210 211 212
3 213 214 215
3 216 217 218
3 219 220 221
3 222 223 224
3 225 226 227
3 228 229 230
3 231 232 233
3 234 235 236
3 237 238 239
3 240 241 242
3 243 244 245
3 246 247 248
3 249 250 251
3 252 253 254
3 255 256 257
3 258 259 260
3 225 261 262
3 263 220 219
3 264 265 266
3 267 268 225
3 269 270 271
3 272 273 274
3 275 276 277
3 278 238 237
3 279 280 281
3 282 283 284
3 285 286 287
3 288 289 290
3 291 292 293
3 294 295 296
3 297 298 299
3 300 301 302
3 303 304 305
3 306 307 308
3 309 310 311
3 312 313 314
3 315 316 317
3 318 319 320
3 321 322 323
3 324 325 326
3 327 328 329
3 330 331 332
3 333 334 335
3 336 337 243
3 338 339 340
3 341 342 343
3 344 345 346
3 347 348 349
3 350 351 352
3 353 354 355
3 356 357 358
3 359 360 361
3 362 363 364
3 161 160 365
3 366 367 368
3 369 370 371
3 372 373 374
3 375 376 377
3 179 178 378
