ply
format ascii 1.0
comment Created by Blender 2.69 (sub 0) - www.blender.org, source file: ''
element vertex 240
property float x
property float y
property float z
property float nx
property float ny
property float nz
property float s
property float t
property uchar red
property uchar green
property uchar blue
element face 80
property list uchar uint vertex_indices
end_header
0.000000 -1.000000 0.000000 0.102381 -0.943523 0.315091 0.612594 0.005519 254 254 254
0.425323 -0.850654 0.309011 0.102381 -0.943523 0.315091 0.794906 0.004364 254 254 254
-0.162456 -0.850654 0.499995 0.102381 -0.943523 0.315091 0.993974 0.004364 254 254 254
0.723607 -0.447220 0.525725 0.700224 -0.661699 0.268032 0.794906 0.273819 254 254 254
0.425323 -0.850654 0.309011 0.700224 -0.661699 0.268032 0.794906 0.004364 254 254 254
0.850648 -0.525736 0.000000 0.700224 -0.661699 0.268032 0.695374 0.230048 254 254 254
0.000000 -1.000000 0.000000 -0.268034 -0.943523 0.194737 0.612594 0.005519 254 254 254
-0.162456 -0.850654 0.499995 -0.268034 -0.943523 0.194737 0.993974 0.004364 254 254 254
-0.525730 -0.850652 0.000000 -0.268034 -0.943523 0.194737 0.197704 0.004367 254 254 254
0.000000 -1.000000 0.000000 -0.268034 -0.943523 -0.194737 0.612594 0.005519 254 254 254
-0.525730 -0.850652 0.000000 -0.268034 -0.943523 -0.194737 0.197704 0.004367 254 254 254
-0.162456 -0.850654 -0.499995 -0.268034 -0.943523 -0.194737 0.396773 0.004364 254 250 253
0.000000 -1.000000 0.000000 0.102381 -0.943523 -0.315091 0.612594 0.005519 254 254 254
-0.162456 -0.850654 -0.499995 0.102381 -0.943523 -0.315091 0.396773 0.004364 254 254 254
0.425323 -0.850654 -0.309011 0.102381 -0.943523 -0.315091 0.595841 0.004364 254 254 254
0.723607 -0.447220 0.525725 0.904989 -0.330385 0.268032 0.794906 0.273819 254 254 254
0.850648 -0.525736 0.000000 0.904989 -0.330385 0.268032 0.695374 0.230048 254 254 254
0.951058 0.000000 0.309013 0.904989 -0.330385 0.268032 0.745139 0.499506 254 254 254
-0.276388 -0.447220 0.850649 0.024745 -0.330386 0.943521 0.993974 0.273819 254 254 254
0.262869 -0.525738 0.809012 0.024745 -0.330386 0.943521 0.894440 0.230047 254 254 254
0.000000 0.000000 1.000000 0.024745 -0.330386 0.943521 0.991487 0.504483 254 254 254
-0.894426 -0.447216 0.000000 -0.889697 -0.330386 0.315095 0.197704 0.273821 254 254 254
-0.688189 -0.525736 0.499997 -0.889697 -0.330386 0.315095 0.098170 0.230047 254 254 254
-0.951058 0.000000 0.309013 -0.889697 -0.330386 0.315095 0.147938 0.499506 254 254 254
-0.276388 -0.447220 -0.850649 -0.574602 -0.330389 -0.748783 0.396773 0.273819 254 254 254
-0.688189 -0.525736 -0.499997 -0.574602 -0.330389 -0.748783 0.297238 0.230048 254 254 254
-0.587786 0.000000 -0.809017 -0.574602 -0.330389 -0.748783 0.347005 0.499506 254 254 254
0.723607 -0.447220 -0.525725 0.534577 -0.330387 -0.777864 0.595841 0.273819 254 254 254
0.262869 -0.525738 -0.809012 0.534577 -0.330387 -0.777864 0.496307 0.230047 254 254 254
0.587786 0.000000 -0.809017 0.534577 -0.330387 -0.777864 0.546073 0.499506 254 254 254
0.723607 -0.447220 0.525725 0.802609 -0.125629 0.583126 0.794906 0.273819 254 254 254
0.951058 0.000000 0.309013 0.802609 -0.125629 0.583126 0.745139 0.499506 254 254 254
0.587786 0.000000 0.809017 0.802609 -0.125629 0.583126 0.844674 0.499506 254 254 254
-0.276388 -0.447220 0.850649 -0.306568 -0.125630 0.943522 0.002662 0.274154 254 254 254
0.000000 0.000000 1.000000 -0.306568 -0.125630 0.943522 0.004005 0.497018 254 254 254
-0.587786 0.000000 0.809017 -0.306568 -0.125630 0.943522 0.048403 0.499506 254 254 254
-0.894426 -0.447216 0.000000 -0.992077 -0.125629 0.000000 0.197704 0.273821 254 254 254
-0.951058 0.000000 0.309013 -0.992077 -0.125629 0.000000 0.147938 0.499506 254 254 254
-0.951058 0.000000 -0.309013 -0.992077 -0.125629 0.000000 0.247470 0.499506 254 254 254
-0.276388 -0.447220 -0.850649 -0.306568 -0.125630 -0.943522 0.396773 0.273819 254 254 254
-0.587786 0.000000 -0.809017 -0.306568 -0.125630 -0.943522 0.347005 0.499506 254 254 254
0.000000 0.000000 -1.000000 -0.306568 -0.125630 -0.943522 0.446539 0.499506 254 254 254
0.723607 -0.447220 -0.525725 0.802609 -0.125629 -0.583126 0.595841 0.273819 254 254 254
0.587786 0.000000 -0.809017 0.802609 -0.125629 -0.583126 0.546073 0.499506 254 254 254
0.951058 0.000000 -0.309013 0.802609 -0.125629 -0.583126 0.645608 0.499506 254 254 254
0.276388 0.447220 0.850649 0.408946 0.661699 0.628425 0.894442 0.725193 254 254 254
0.688189 0.525736 0.499997 0.408946 0.661699 0.628425 0.794907 0.768965 254 254 254
0.162456 0.850654 0.499995 0.408946 0.661699 0.628425 0.894442 0.994648 254 254 254
-0.723607 0.447220 0.525725 -0.471300 0.661699 0.583121 0.098171 0.725193 254 254 254
-0.262869 0.525738 0.809012 -0.471300 0.661699 0.583121 0.001657 0.768965 254 254 254
-0.425323 0.850654 0.309011 -0.471300 0.661699 0.583121 0.005702 0.996252 254 254 254
-0.723607 0.447220 -0.525725 -0.700224 0.661699 -0.268032 0.297237 0.725193 254 254 254
-0.850648 0.525736 0.000000 -0.700224 0.661699 -0.268032 0.197704 0.768964 254 254 254
-0.425323 0.850654 -0.309011 -0.700224 0.661699 -0.268032 0.297237 0.994648 254 254 254
0.276388 0.447220 -0.850649 0.038532 0.661700 -0.748778 0.496305 0.725193 254 254 254
-0.262869 0.525738 -0.809012 0.038532 0.661700 -0.748778 0.396771 0.768966 254 254 254
0.162456 0.850654 -0.499995 0.038532 0.661700 -0.748778 0.496305 0.994648 254 254 254
0.894426 0.447216 0.000000 0.724042 0.661695 -0.194737 0.695374 0.725191 254 254 254
0.688189 0.525736 -0.499997 0.724042 0.661695 -0.194737 0.595840 0.768965 254 254 254
0.525730 0.850652 0.000000 0.724042 0.661695 -0.194737 0.695374 0.994646 254 254 254
-0.162456 -0.850654 0.499995 -0.038532 -0.661700 0.748778 0.993974 0.004364 254 254 254
0.262869 -0.525738 0.809012 -0.038532 -0.661700 0.748778 0.894440 0.230047 254 254 254
-0.276388 -0.447220 0.850649 -0.038532 -0.661700 0.748778 0.993974 0.273819 254 254 254
-0.162456 -0.850654 0.499995 0.187593 -0.794659 0.577344 0.993974 0.004364 254 254 254
0.425323 -0.850654 0.309011 0.187593 -0.794659 0.577344 0.794906 0.004364 254 254 254
0.262869 -0.525738 0.809012 0.187593 -0.794659 0.577344 0.894440 0.230047 254 254 254
0.425323 -0.850654 0.309011 0.471300 -0.661699 0.583121 0.794906 0.004364 254 254 254
0.723607 -0.447220 0.525725 0.471300 -0.661699 0.583121 0.794906 0.273819 254 254 254
0.262869 -0.525738 0.809012 0.471300 -0.661699 0.583121 0.894440 0.230047 254 254 254
0.850648 -0.525736 0.000000 0.700224 -0.661699 -0.268032 0.695374 0.230048 254 254 254
0.425323 -0.850654 -0.309011 0.700224 -0.661699 -0.268032 0.595841 0.004364 254 254 254
0.723607 -0.447220 -0.525725 0.700224 -0.661699 -0.268032 0.595841 0.273819 254 254 254
0.850648 -0.525736 0.000000 0.607060 -0.794656 0.000000 0.695374 0.230048 254 254 254
0.425323 -0.850654 0.309011 0.607060 -0.794656 0.000000 0.794906 0.004364 254 254 254
0.425323 -0.850654 -0.309011 0.607060 -0.794656 0.000000 0.595841 0.004364 254 254 254
0.425323 -0.850654 0.309011 0.331305 -0.943524 0.000000 0.794906 0.004364 254 254 254
0.000000 -1.000000 0.000000 0.331305 -0.943524 0.000000 0.612594 0.005519 254 254 254
0.425323 -0.850654 -0.309011 0.331305 -0.943524 0.000000 0.595841 0.004364 254 254 254
-0.525730 -0.850652 0.000000 -0.724042 -0.661695 0.194737 0.197704 0.004367 254 254 254
-0.688189 -0.525736 0.499997 -0.724042 -0.661695 0.194737 0.098170 0.230047 254 254 254
-0.894426 -0.447216 0.000000 -0.724042 -0.661695 0.194737 0.197704 0.273821 254 254 254
-0.525730 -0.850652 0.000000 -0.491119 -0.794657 0.356822 0.197704 0.004367 254 254 254
-0.162456 -0.850654 0.499995 -0.491119 -0.794657 0.356822 0.004004 0.003022 254 254 254
-0.688189 -0.525736 0.499997 -0.491119 -0.794657 0.356822 0.098170 0.230047 254 254 254
-0.162456 -0.850654 0.499995 -0.408946 -0.661699 0.628425 0.004004 0.003022 254 254 254
-0.276388 -0.447220 0.850649 -0.408946 -0.661699 0.628425 0.002662 0.274154 254 254 254
-0.688189 -0.525736 0.499997 -0.408946 -0.661699 0.628425 0.098170 0.230047 254 254 254
-0.162456 -0.850654 -0.499995 -0.408946 -0.661699 -0.628425 0.396773 0.004364 254 254 254
-0.688189 -0.525736 -0.499997 -0.408946 -0.661699 -0.628425 0.297238 0.230048 254 254 254
-0.276388 -0.447220 -0.850649 -0.408946 -0.661699 -0.628425 0.396773 0.273819 254 254 254
-0.162456 -0.850654 -0.499995 -0.491119 -0.794657 -0.356822 0.396773 0.004364 254 254 254
-0.525730 -0.850652 0.000000 -0.491119 -0.794657 -0.356822 0.197704 0.004367 254 254 254
-0.688189 -0.525736 -0.499997 -0.491119 -0.794657 -0.356822 0.297238 0.230048 254 254 254
-0.525730 -0.850652 0.000000 -0.724042 -0.661695 -0.194737 0.197704 0.004367 254 254 254
-0.894426 -0.447216 0.000000 -0.724042 -0.661695 -0.194737 0.197704 0.273821 254 254 254
-0.688189 -0.525736 -0.499997 -0.724042 -0.661695 -0.194737 0.297238 0.230048 254 254 254
0.425323 -0.850654 -0.309011 0.471300 -0.661699 -0.583121 0.595841 0.004364 254 254 254
0.262869 -0.525738 -0.809012 0.471300 -0.661699 -0.583121 0.496307 0.230047 254 254 254
0.723607 -0.447220 -0.525725 0.471300 -0.661699 -0.583121 0.595841 0.273819 254 254 254
0.425323 -0.850654 -0.309011 0.187593 -0.794659 -0.577344 0.595841 0.004364 254 254 254
-0.162456 -0.850654 -0.499995 0.187593 -0.794659 -0.577344 0.396773 0.004364 254 254 254
0.262869 -0.525738 -0.809012 0.187593 -0.794659 -0.577344 0.496307 0.230047 254 254 254
-0.162456 -0.850654 -0.499995 -0.038532 -0.661700 -0.748778 0.396773 0.004364 254 254 254
-0.276388 -0.447220 -0.850649 -0.038532 -0.661700 -0.748778 0.396773 0.273819 254 254 254
0.262869 -0.525738 -0.809012 -0.038532 -0.661700 -0.748778 0.496307 0.230047 254 254 254
0.951058 0.000000 0.309013 0.992077 0.125629 -0.000000 0.745139 0.499506 254 254 254
0.951058 0.000000 -0.309013 0.992077 0.125629 -0.000000 0.645608 0.499506 254 254 254
0.894426 0.447216 0.000000 0.992077 0.125629 -0.000000 0.695374 0.725191 254 254 254
0.951058 0.000000 0.309013 0.982246 -0.187599 0.000000 0.745139 0.499506 254 254 254
0.850648 -0.525736 0.000000 0.982246 -0.187599 0.000000 0.695374 0.230048 254 254 254
0.951058 0.000000 -0.309013 0.982246 -0.187599 0.000000 0.645608 0.499506 254 254 254
0.850648 -0.525736 0.000000 0.904989 -0.330385 -0.268032 0.695374 0.230048 254 254 254
0.723607 -0.447220 -0.525725 0.904989 -0.330385 -0.268032 0.595841 0.273819 254 254 254
0.951058 0.000000 -0.309013 0.904989 -0.330385 -0.268032 0.645608 0.499506 254 254 254
0.000000 0.000000 1.000000 0.306568 0.125630 0.943522 0.986510 0.501994 254 254 254
0.587786 0.000000 0.809017 0.306568 0.125630 0.943522 0.844674 0.499506 254 254 254
0.276388 0.447220 0.850649 0.306568 0.125630 0.943522 0.894442 0.725193 254 254 254
0.000000 0.000000 1.000000 0.303530 -0.187597 0.934172 0.991487 0.504483 254 254 254
0.262869 -0.525738 0.809012 0.303530 -0.187597 0.934172 0.894440 0.230047 254 254 254
0.587786 0.000000 0.809017 0.303530 -0.187597 0.934172 0.844674 0.499506 254 254 254
0.262869 -0.525738 0.809012 0.534577 -0.330387 0.777864 0.894440 0.230047 254 254 254
0.723607 -0.447220 0.525725 0.534577 -0.330387 0.777864 0.794906 0.273819 254 254 254
0.587786 0.000000 0.809017 0.534577 -0.330387 0.777864 0.844674 0.499506 254 254 254
-0.951058 0.000000 0.309013 -0.802609 0.125629 0.583126 0.147938 0.499506 254 254 254
-0.587786 0.000000 0.809017 -0.802609 0.125629 0.583126 0.048403 0.499506 254 254 254
-0.723607 0.447220 0.525725 -0.802609 0.125629 0.583126 0.098171 0.725193 254 254 254
-0.951058 0.000000 0.309013 -0.794656 -0.187596 0.577348 0.147938 0.499506 254 254 254
-0.688189 -0.525736 0.499997 -0.794656 -0.187596 0.577348 0.098170 0.230047 254 254 254
-0.587786 0.000000 0.809017 -0.794656 -0.187596 0.577348 0.048403 0.499506 254 254 254
-0.688189 -0.525736 0.499997 -0.574602 -0.330389 0.748783 0.098170 0.230047 254 254 254
-0.276388 -0.447220 0.850649 -0.574602 -0.330389 0.748783 0.002662 0.274154 254 254 254
-0.587786 0.000000 0.809017 -0.574602 -0.330389 0.748783 0.048403 0.499506 254 254 254
-0.587786 0.000000 -0.809017 -0.802609 0.125629 -0.583126 0.347005 0.499506 254 254 254
-0.951058 0.000000 -0.309013 -0.802609 0.125629 -0.583126 0.247470 0.499506 254 254 254
-0.723607 0.447220 -0.525725 -0.802609 0.125629 -0.583126 0.297237 0.725193 254 254 254
-0.587786 0.000000 -0.809017 -0.794656 -0.187596 -0.577348 0.347005 0.499506 254 254 254
-0.688189 -0.525736 -0.499997 -0.794656 -0.187596 -0.577348 0.297238 0.230048 254 254 254
-0.951058 0.000000 -0.309013 -0.794656 -0.187596 -0.577348 0.247470 0.499506 254 254 254
-0.688189 -0.525736 -0.499997 -0.889697 -0.330386 -0.315095 0.297238 0.230048 254 254 254
-0.894426 -0.447216 0.000000 -0.889697 -0.330386 -0.315095 0.197704 0.273821 254 254 254
-0.951058 0.000000 -0.309013 -0.889697 -0.330386 -0.315095 0.247470 0.499506 254 254 254
0.587786 0.000000 -0.809017 0.306568 0.125630 -0.943522 0.546073 0.499506 254 254 254
0.000000 0.000000 -1.000000 0.306568 0.125630 -0.943522 0.446539 0.499506 254 254 254
0.276388 0.447220 -0.850649 0.306568 0.125630 -0.943522 0.496305 0.725193 254 254 254
0.587786 0.000000 -0.809017 0.303530 -0.187597 -0.934172 0.546073 0.499506 254 254 254
0.262869 -0.525738 -0.809012 0.303530 -0.187597 -0.934172 0.496307 0.230047 254 254 254
0.000000 0.000000 -1.000000 0.303530 -0.187597 -0.934172 0.446539 0.499506 254 254 254
0.262869 -0.525738 -0.809012 0.024745 -0.330386 -0.943521 0.496307 0.230047 254 254 254
-0.276388 -0.447220 -0.850649 0.024745 -0.330386 -0.943521 0.396773 0.273819 254 254 254
0.000000 0.000000 -1.000000 0.024745 -0.330386 -0.943521 0.446539 0.499506 254 254 254
0.587786 0.000000 0.809017 0.574602 0.330389 0.748783 0.844674 0.499506 254 254 254
0.688189 0.525736 0.499997 0.574602 0.330389 0.748783 0.794907 0.768965 254 254 254
0.276388 0.447220 0.850649 0.574602 0.330389 0.748783 0.894442 0.725193 254 254 254
0.587786 0.000000 0.809017 0.794656 0.187596 0.577348 0.844674 0.499506 254 254 254
0.951058 0.000000 0.309013 0.794656 0.187596 0.577348 0.745139 0.499506 254 254 254
0.688189 0.525736 0.499997 0.794656 0.187596 0.577348 0.794907 0.768965 254 254 254
0.951058 0.000000 0.309013 0.889697 0.330386 0.315095 0.745139 0.499506 254 254 254
0.894426 0.447216 0.000000 0.889697 0.330386 0.315095 0.695374 0.725191 254 254 254
0.688189 0.525736 0.499997 0.889697 0.330386 0.315095 0.794907 0.768965 254 254 254
-0.587786 0.000000 0.809017 -0.534577 0.330387 0.777864 0.048403 0.499506 254 254 254
-0.262869 0.525738 0.809012 -0.534577 0.330387 0.777864 0.001657 0.768965 254 254 254
-0.723607 0.447220 0.525725 -0.534577 0.330387 0.777864 0.098171 0.725193 254 254 254
-0.587786 0.000000 0.809017 -0.303530 0.187597 0.934172 0.048403 0.499506 254 254 254
0.000000 0.000000 1.000000 -0.303530 0.187597 0.934172 0.001517 0.497018 254 254 254
-0.262869 0.525738 0.809012 -0.303530 0.187597 0.934172 0.001657 0.768965 254 254 254
0.000000 0.000000 1.000000 -0.024745 0.330386 0.943521 0.991487 0.499506 254 254 254
0.276388 0.447220 0.850649 -0.024745 0.330386 0.943521 0.894442 0.725193 254 254 254
-0.262869 0.525738 0.809012 -0.024745 0.330386 0.943521 0.993976 0.768965 254 254 254
-0.951058 0.000000 -0.309013 -0.904989 0.330385 -0.268032 0.247470 0.499506 254 254 254
-0.850648 0.525736 0.000000 -0.904989 0.330385 -0.268032 0.197704 0.768964 254 254 254
-0.723607 0.447220 -0.525725 -0.904989 0.330385 -0.268032 0.297237 0.725193 254 254 254
-0.951058 0.000000 -0.309013 -0.982246 0.187599 0.000000 0.247470 0.499506 254 254 254
-0.951058 0.000000 0.309013 -0.982246 0.187599 0.000000 0.147938 0.499506 254 254 254
-0.850648 0.525736 0.000000 -0.982246 0.187599 0.000000 0.197704 0.768964 254 254 254
-0.951058 0.000000 0.309013 -0.904989 0.330385 0.268032 0.147938 0.499506 254 254 254
-0.723607 0.447220 0.525725 -0.904989 0.330385 0.268032 0.098171 0.725193 254 254 254
-0.850648 0.525736 0.000000 -0.904989 0.330385 0.268032 0.197704 0.768964 254 254 254
0.000000 0.000000 -1.000000 -0.024745 0.330386 -0.943521 0.446539 0.499506 254 254 254
-0.262869 0.525738 -0.809012 -0.024745 0.330386 -0.943521 0.396771 0.768966 254 254 254
0.276388 0.447220 -0.850649 -0.024745 0.330386 -0.943521 0.496305 0.725193 254 254 254
0.000000 0.000000 -1.000000 -0.303530 0.187597 -0.934172 0.446539 0.499506 254 254 254
-0.587786 0.000000 -0.809017 -0.303530 0.187597 -0.934172 0.347005 0.499506 254 254 254
-0.262869 0.525738 -0.809012 -0.303530 0.187597 -0.934172 0.396771 0.768966 254 254 254
-0.587786 0.000000 -0.809017 -0.534577 0.330387 -0.777864 0.347005 0.499506 254 254 254
-0.723607 0.447220 -0.525725 -0.534577 0.330387 -0.777864 0.297237 0.725193 254 254 254
-0.262869 0.525738 -0.809012 -0.534577 0.330387 -0.777864 0.396771 0.768966 254 254 254
0.951058 0.000000 -0.309013 0.889697 0.330386 -0.315095 0.645608 0.499506 254 254 254
0.688189 0.525736 -0.499997 0.889697 0.330386 -0.315095 0.595840 0.768965 254 254 254
0.894426 0.447216 0.000000 0.889697 0.330386 -0.315095 0.695374 0.725191 254 254 254
0.951058 0.000000 -0.309013 0.794656 0.187596 -0.577348 0.645608 0.499506 254 254 254
0.587786 0.000000 -0.809017 0.794656 0.187596 -0.577348 0.546073 0.499506 254 254 254
0.688189 0.525736 -0.499997 0.794656 0.187596 -0.577348 0.595840 0.768965 254 254 254
0.587786 0.000000 -0.809017 0.574602 0.330389 -0.748783 0.546073 0.499506 254 254 254
0.276388 0.447220 -0.850649 0.574602 0.330389 -0.748783 0.496305 0.725193 254 254 254
0.688189 0.525736 -0.499997 0.574602 0.330389 -0.748783 0.595840 0.768965 254 254 254
0.162456 0.850654 0.499995 0.268034 0.943523 0.194737 0.894442 0.994648 254 254 254
0.525730 0.850652 0.000000 0.268034 0.943523 0.194737 0.695374 0.994646 254 254 254
0.000000 1.000000 0.000000 0.268034 0.943523 0.194737 0.771226 0.993493 254 254 254
0.162456 0.850654 0.499995 0.491119 0.794657 0.356822 0.894442 0.994648 254 254 254
0.688189 0.525736 0.499997 0.491119 0.794657 0.356822 0.794907 0.768965 254 254 254
0.525730 0.850652 0.000000 0.491119 0.794657 0.356822 0.695374 0.994646 254 254 254
0.688189 0.525736 0.499997 0.724042 0.661695 0.194737 0.794907 0.768965 254 254 254
0.894426 0.447216 0.000000 0.724042 0.661695 0.194737 0.695374 0.725191 254 254 254
0.525730 0.850652 0.000000 0.724042 0.661695 0.194737 0.695374 0.994646 254 254 254
-0.425323 0.850654 0.309011 -0.102381 0.943523 0.315091 0.992794 0.995172 254 254 254
0.162456 0.850654 0.499995 -0.102381 0.943523 0.315091 0.894442 0.994648 254 254 254
0.000000 1.000000 0.000000 -0.102381 0.943523 0.315091 0.771226 0.993493 254 254 254
-0.425323 0.850654 0.309011 -0.187593 0.794659 0.577344 0.995283 0.995172 254 254 254
-0.262869 0.525738 0.809012 -0.187593 0.794659 0.577344 0.993976 0.768965 254 254 254
0.162456 0.850654 0.499995 -0.187593 0.794659 0.577344 0.894442 0.994648 254 254 254
-0.262869 0.525738 0.809012 0.038532 0.661700 0.748778 0.993976 0.768965 254 254 254
0.276388 0.447220 0.850649 0.038532 0.661700 0.748778 0.894442 0.725193 254 254 254
0.162456 0.850654 0.499995 0.038532 0.661700 0.748778 0.894442 0.994648 254 254 254
-0.425323 0.850654 -0.309011 -0.331305 0.943524 0.000000 0.297237 0.994648 254 254 254
-0.425323 0.850654 0.309011 -0.331305 0.943524 0.000000 0.008190 0.996252 254 254 254
0.000000 1.000000 0.000000 -0.331305 0.943524 0.000000 0.239342 0.993493 254 254 254
-0.425323 0.850654 -0.309011 -0.607060 0.794656 0.000000 0.297237 0.994648 254 254 254
-0.850648 0.525736 0.000000 -0.607060 0.794656 0.000000 0.197704 0.768964 254 254 254
-0.425323 0.850654 0.309011 -0.607060 0.794656 0.000000 0.006103 0.997136 254 254 254
-0.850648 0.525736 0.000000 -0.700224 0.661699 0.268032 0.197704 0.768964 254 254 254
-0.723607 0.447220 0.525725 -0.700224 0.661699 0.268032 0.098171 0.725193 254 254 254
-0.425323 0.850654 0.309011 -0.700224 0.661699 0.268032 0.003213 0.996252 254 254 254
0.162456 0.850654 -0.499995 -0.102381 0.943523 -0.315091 0.496305 0.994648 254 254 254
-0.425323 0.850654 -0.309011 -0.102381 0.943523 -0.315091 0.297237 0.994648 254 254 254
0.000000 1.000000 0.000000 -0.102381 0.943523 -0.315091 0.239342 0.993493 254 254 254
0.162456 0.850654 -0.499995 -0.187593 0.794659 -0.577344 0.496305 0.994648 254 254 254
-0.262869 0.525738 -0.809012 -0.187593 0.794659 -0.577344 0.396771 0.768966 254 254 254
-0.425323 0.850654 -0.309011 -0.187593 0.794659 -0.577344 0.297237 0.994648 254 254 254
-0.262869 0.525738 -0.809012 -0.471300 0.661699 -0.583121 0.396771 0.768966 254 254 254
-0.723607 0.447220 -0.525725 -0.471300 0.661699 -0.583121 0.297237 0.725193 254 254 254
-0.425323 0.850654 -0.309011 -0.471300 0.661699 -0.583121 0.297237 0.994648 254 254 254
0.525730 0.850652 0.000000 0.268034 0.943523 -0.194737 0.695374 0.994646 254 254 254
0.162456 0.850654 -0.499995 0.268034 0.943523 -0.194737 0.496305 0.994648 254 254 254
0.000000 1.000000 0.000000 0.268034 0.943523 -0.194737 0.771226 0.993493 254 254 254
0.525730 0.850652 0.000000 0.491119 0.794657 -0.356822 0.695374 0.994646 254 254 254
0.688189 0.525736 -0.499997 0.491119 0.794657 -0.356822 0.595840 0.768965 254 254 254
0.162456 0.850654 -0.499995 0.491119 0.794657 -0.356822 0.496305 0.994648 254 254 254
0.688189 0.525736 -0.499997 0.408946 0.661699 -0.628425 0.595840 0.768965 254 254 254
0.276388 0.447220 -0.850649 0.408946 0.661699 -0.628425 0.496305 0.725193 254 254 254
0.162456 0.850654 -0.499995 0.408946 0.661699 -0.628425 0.496305 0.994648 254 254 254
3 0 1 2
3 3 4 5
3 6 7 8
3 9 10 11
3 12 13 14
3 15 16 17
3 18 19 20
3 21 22 23
3 24 25 26
3 27 28 29
3 30 31 32
3 33 34 35
3 36 37 38
3 39 40 41
3 42 43 44
3 45 46 47
3 48 49 50
3 51 52 53
3 54 55 56
3 57 58 59
3 60 61 62
3 63 64 65
3 66 67 68
3 69 70 71
3 72 73 74
3 75 76 77
3 78 79 80
3 81 82 83
3 84 85 86
3 87 88 89
3 90 91 92
3 93 94 95
3 96 97 98
3 99 100 101
3 102 103 104
3 105 106 107
3 108 109 110
3 111 112 113
3 114 115 116
3 117 118 119
3 120 121 122
3 123 124 125
3 126 127 128
3 129 130 131
3 132 133 134
3 135 136 137
3 138 139 140
3 141 142 143
3 144 145 146
3 147 148 149
3 150 151 152
3 153 154 155
3 156 157 158
3 159 160 161
3 162 163 164
3 165 166 167
3 168 169 170
3 171 172 173
3 174 175 176
3 177 178 179
3 180 181 182
3 183 184 185
3 186 187 188
3 189 190 191
3 192 193 194
3 195 196 197
3 198 199 200
3 201 202 203
3 204 205 206
3 207 208 209
3 210 211 212
3 213 214 215
3 216 217 218
3 219 220 221
3 222 223 224
3 225 226 227
3 228 229 230
3 231 232 233
3 234 235 236
3 237 238 239
