ply
format ascii 1.0
comment Created by Blender 2.69 (sub 0) - www.blender.org, source file: ''
element vertex 240
property float x
property float y
property float z
property float nx
property float ny
property float nz
property float s
property float t
property uchar red
property uchar green
property uchar blue
element face 80
property list uchar uint vertex_indices
end_header
0.000000 -1.000000 0.000000 0.102381 -0.943523 0.315091 0.515248 -0.141326 254 0 238
0.425323 -0.850654 0.309011 0.102381 -0.943523 0.315091 0.795637 0.004280 254 0 238
-0.162456 -0.850654 0.499995 0.102381 -0.943523 0.315091 0.605681 -0.008200 254 0 238
0.723607 -0.447220 0.525725 0.700224 -0.661699 0.268032 0.787301 0.221544 0 254 251
0.425323 -0.850654 0.309011 0.700224 -0.661699 0.268032 0.795637 0.004280 2 254 251
0.850648 -0.525736 0.000000 0.700224 -0.661699 0.268032 0.889560 0.228793 0 254 251
0.000000 -1.000000 0.000000 -0.268034 -0.943523 0.194737 0.515248 -0.141326 254 0 238
-0.162456 -0.850654 0.499995 -0.268034 -0.943523 0.194737 0.605681 -0.008200 254 0 238
-0.525730 -0.850652 0.000000 -0.268034 -0.943523 0.194737 0.411706 -0.001938 254 0 238
0.000000 -1.000000 0.000000 -0.268034 -0.943523 -0.194737 0.512032 -0.141326 254 0 238
-0.525730 -0.850652 0.000000 -0.268034 -0.943523 -0.194737 0.411706 -0.001938 254 0 238
-0.162456 -0.850654 -0.499995 -0.268034 -0.943523 -0.194737 0.213637 0.006993 254 0 238
0.000000 -1.000000 0.000000 0.102381 -0.943523 -0.315091 0.512032 -0.141326 254 0 238
-0.162456 -0.850654 -0.499995 0.102381 -0.943523 -0.315091 0.213637 0.006993 254 0 238
0.425323 -0.850654 -0.309011 0.102381 -0.943523 -0.315091 -0.005826 0.006253 254 0 238
0.723607 -0.447220 0.525725 0.904989 -0.330385 0.268032 0.787301 0.221544 254 252 18
0.850648 -0.525736 0.000000 0.904989 -0.330385 0.268032 0.889560 0.228793 254 252 16
0.951058 0.000000 0.309013 0.904989 -0.330385 0.268032 0.878928 0.510943 254 252 0
-0.276388 -0.447220 0.850649 0.024745 -0.330386 0.943521 0.600213 0.219307 254 252 0
0.262869 -0.525738 0.809012 0.024745 -0.330386 0.943521 0.700218 0.214339 254 252 0
0.000000 0.000000 1.000000 0.024745 -0.330386 0.943521 0.687210 0.489529 254 252 0
-0.894426 -0.447216 0.000000 -0.889697 -0.330386 0.315095 0.408003 0.220398 254 252 0
-0.688189 -0.525736 0.499997 -0.889697 -0.330386 0.315095 0.511122 0.217828 254 252 0
-0.951058 0.000000 0.309013 -0.889697 -0.330386 0.315095 0.495453 0.472529 254 252 0
-0.276388 -0.447220 -0.850649 -0.574602 -0.330389 -0.748783 0.212224 0.219313 254 252 2
-0.688189 -0.525736 -0.499997 -0.574602 -0.330389 -0.748783 0.317945 0.221021 254 252 0
-0.587786 0.000000 -0.809017 -0.574602 -0.330389 -0.748783 0.303657 0.483436 254 252 13
0.723607 -0.447220 -0.525725 0.534577 -0.330387 -0.777864 -0.007182 0.216762 254 252 0
0.262869 -0.525738 -0.809012 0.534577 -0.330387 -0.777864 0.119563 0.219505 254 252 0
0.587786 0.000000 -0.809017 0.534577 -0.330387 -0.777864 0.111966 0.507177 254 252 0
0.723607 -0.447220 0.525725 0.802609 -0.125629 0.583126 0.787301 0.221544 254 252 18
0.951058 0.000000 0.309013 0.802609 -0.125629 0.583126 0.878928 0.510943 254 252 0
0.587786 0.000000 0.809017 0.802609 -0.125629 0.583126 0.783048 0.502010 254 252 0
-0.276388 -0.447220 0.850649 -0.306568 -0.125630 0.943522 0.600213 0.219307 254 252 0
0.000000 0.000000 1.000000 -0.306568 -0.125630 0.943522 0.687210 0.489529 254 252 0
-0.587786 0.000000 0.809017 -0.306568 -0.125630 0.943522 0.591357 0.478270 254 252 0
-0.894426 -0.447216 0.000000 -0.992077 -0.125629 0.000000 0.408003 0.220398 254 252 0
-0.951058 0.000000 0.309013 -0.992077 -0.125629 0.000000 0.495453 0.472529 254 252 0
-0.951058 0.000000 -0.309013 -0.992077 -0.125629 0.000000 0.399536 0.474503 254 252 0
-0.276388 -0.447220 -0.850649 -0.306568 -0.125630 -0.943522 0.212224 0.219313 254 252 2
-0.587786 0.000000 -0.809017 -0.306568 -0.125630 -0.943522 0.303657 0.483436 254 252 13
0.000000 0.000000 -1.000000 -0.306568 -0.125630 -0.943522 0.207820 0.495917 254 253 8
0.723607 -0.447220 -0.525725 0.802609 -0.125629 -0.583126 -0.007182 0.216762 254 252 0
0.587786 0.000000 -0.809017 0.802609 -0.125629 -0.583126 0.111966 0.507177 254 252 0
0.951058 0.000000 -0.309013 0.802609 -0.125629 -0.583126 -0.002557 0.504776 254 252 0
0.276388 0.447220 0.850649 0.408946 0.661699 0.628425 0.702586 0.771221 38 254 4
0.688189 0.525736 0.499997 0.408946 0.661699 0.628425 0.794907 0.786133 34 254 0
0.162456 0.850654 0.499995 0.408946 0.661699 0.628425 0.697493 1.009172 38 254 4
-0.723607 0.447220 0.525725 -0.471300 0.661699 0.583121 0.512142 0.752064 85 254 59
-0.262869 0.525738 0.809012 -0.471300 0.661699 0.583121 0.602730 0.765941 34 254 0
-0.425323 0.850654 0.309011 -0.471300 0.661699 0.583121 0.497617 1.007919 34 254 0
-0.723607 0.447220 -0.525725 -0.700224 0.661699 -0.268032 0.323018 0.755422 34 254 0
-0.850648 0.525736 0.000000 -0.700224 0.661699 -0.268032 0.413946 0.756653 34 254 0
-0.425323 0.850654 -0.309011 -0.700224 0.661699 -0.268032 0.222369 1.009891 34 254 0
0.276388 0.447220 -0.850649 0.038532 0.661700 -0.748778 0.131792 0.776654 35 254 1
-0.262869 0.525738 -0.809012 0.038532 0.661700 -0.748778 0.224604 0.771107 34 254 0
0.162456 0.850654 -0.499995 0.038532 0.661700 -0.748778 -0.003273 1.010840 34 254 0
0.894426 0.447216 0.000000 0.724042 0.661695 -0.194737 0.896295 0.786417 34 254 0
0.688189 0.525736 -0.499997 0.724042 0.661695 -0.194737 1.004222 0.781899 34 254 0
0.525730 0.850652 0.000000 0.724042 0.661695 -0.194737 0.892329 1.001145 34 254 0
-0.162456 -0.850654 0.499995 -0.038532 -0.661700 0.748778 0.605681 -0.008200 0 254 251
0.262869 -0.525738 0.809012 -0.038532 -0.661700 0.748778 0.700218 0.214339 0 254 251
-0.276388 -0.447220 0.850649 -0.038532 -0.661700 0.748778 0.600213 0.219307 0 254 251
-0.162456 -0.850654 0.499995 0.187593 -0.794659 0.577344 0.605681 -0.008200 0 254 251
0.425323 -0.850654 0.309011 0.187593 -0.794659 0.577344 0.795637 0.004280 2 254 251
0.262869 -0.525738 0.809012 0.187593 -0.794659 0.577344 0.700218 0.214339 0 254 251
0.425323 -0.850654 0.309011 0.471300 -0.661699 0.583121 0.795637 0.004280 2 254 251
0.723607 -0.447220 0.525725 0.471300 -0.661699 0.583121 0.787301 0.221544 0 254 251
0.262869 -0.525738 0.809012 0.471300 -0.661699 0.583121 0.700218 0.214339 0 254 251
0.850648 -0.525736 0.000000 0.700224 -0.661699 -0.268032 0.889560 0.228793 0 254 251
0.425323 -0.850654 -0.309011 0.700224 -0.661699 -0.268032 1.008956 0.002253 0 254 251
0.723607 -0.447220 -0.525725 0.700224 -0.661699 -0.268032 1.004493 0.217475 0 254 251
0.850648 -0.525736 0.000000 0.607060 -0.794656 0.000000 0.889560 0.228793 0 254 251
0.425323 -0.850654 0.309011 0.607060 -0.794656 0.000000 0.795637 0.004280 2 254 251
0.425323 -0.850654 -0.309011 0.607060 -0.794656 0.000000 1.008956 0.002253 0 254 251
0.425323 -0.850654 0.309011 0.331305 -0.943524 0.000000 0.795637 0.004280 254 0 238
0.000000 -1.000000 0.000000 0.331305 -0.943524 0.000000 0.515248 -0.141326 254 0 238
0.425323 -0.850654 -0.309011 0.331305 -0.943524 0.000000 1.008956 0.002253 254 0 238
-0.525730 -0.850652 0.000000 -0.724042 -0.661695 0.194737 0.411706 -0.001938 0 254 251
-0.688189 -0.525736 0.499997 -0.724042 -0.661695 0.194737 0.511122 0.217828 0 254 251
-0.894426 -0.447216 0.000000 -0.724042 -0.661695 0.194737 0.408003 0.220398 0 254 251
-0.525730 -0.850652 0.000000 -0.491119 -0.794657 0.356822 0.411706 -0.001938 0 254 251
-0.162456 -0.850654 0.499995 -0.491119 -0.794657 0.356822 0.605681 -0.008200 0 254 251
-0.688189 -0.525736 0.499997 -0.491119 -0.794657 0.356822 0.511122 0.217828 0 254 251
-0.162456 -0.850654 0.499995 -0.408946 -0.661699 0.628425 0.605681 -0.008200 0 254 251
-0.276388 -0.447220 0.850649 -0.408946 -0.661699 0.628425 0.600213 0.219307 0 254 251
-0.688189 -0.525736 0.499997 -0.408946 -0.661699 0.628425 0.511122 0.217828 0 254 251
-0.162456 -0.850654 -0.499995 -0.408946 -0.661699 -0.628425 0.213637 0.006993 0 254 251
-0.688189 -0.525736 -0.499997 -0.408946 -0.661699 -0.628425 0.317945 0.221021 0 254 251
-0.276388 -0.447220 -0.850649 -0.408946 -0.661699 -0.628425 0.212224 0.219313 31 254 252
-0.162456 -0.850654 -0.499995 -0.491119 -0.794657 -0.356822 0.213637 0.006993 0 254 251
-0.525730 -0.850652 0.000000 -0.491119 -0.794657 -0.356822 0.411706 -0.001938 0 254 251
-0.688189 -0.525736 -0.499997 -0.491119 -0.794657 -0.356822 0.317945 0.221021 0 254 251
-0.525730 -0.850652 0.000000 -0.724042 -0.661695 -0.194737 0.411706 -0.001938 0 254 251
-0.894426 -0.447216 0.000000 -0.724042 -0.661695 -0.194737 0.408003 0.220398 0 254 251
-0.688189 -0.525736 -0.499997 -0.724042 -0.661695 -0.194737 0.317945 0.221021 0 254 251
0.425323 -0.850654 -0.309011 0.471300 -0.661699 -0.583121 -0.005826 0.006253 0 254 251
0.262869 -0.525738 -0.809012 0.471300 -0.661699 -0.583121 0.119563 0.219505 0 254 251
0.723607 -0.447220 -0.525725 0.471300 -0.661699 -0.583121 -0.007182 0.216762 0 254 251
0.425323 -0.850654 -0.309011 0.187593 -0.794659 -0.577344 -0.005826 0.006253 0 254 251
-0.162456 -0.850654 -0.499995 0.187593 -0.794659 -0.577344 0.213637 0.006993 0 254 251
0.262869 -0.525738 -0.809012 0.187593 -0.794659 -0.577344 0.119563 0.219505 0 254 251
-0.162456 -0.850654 -0.499995 -0.038532 -0.661700 -0.748778 0.213637 0.006993 0 254 251
-0.276388 -0.447220 -0.850649 -0.038532 -0.661700 -0.748778 0.212224 0.219313 0 254 251
0.262869 -0.525738 -0.809012 -0.038532 -0.661700 -0.748778 0.119563 0.219505 0 254 251
0.951058 0.000000 0.309013 0.992077 0.125629 -0.000000 0.878928 0.510943 46 24 254
0.951058 0.000000 -0.309013 0.992077 0.125629 -0.000000 1.004913 0.505490 23 0 254
0.894426 0.447216 0.000000 0.992077 0.125629 -0.000000 0.896295 0.786417 23 0 254
0.951058 0.000000 0.309013 0.982246 -0.187599 0.000000 0.878928 0.510943 254 252 0
0.850648 -0.525736 0.000000 0.982246 -0.187599 0.000000 0.889560 0.228793 254 252 16
0.951058 0.000000 -0.309013 0.982246 -0.187599 0.000000 1.004913 0.505490 254 252 0
0.850648 -0.525736 0.000000 0.904989 -0.330385 -0.268032 0.889560 0.228793 254 252 16
0.723607 -0.447220 -0.525725 0.904989 -0.330385 -0.268032 1.004493 0.217475 254 252 0
0.951058 0.000000 -0.309013 0.904989 -0.330385 -0.268032 1.004913 0.505490 254 252 0
0.000000 0.000000 1.000000 0.306568 0.125630 0.943522 0.687210 0.489529 23 0 254
0.587786 0.000000 0.809017 0.306568 0.125630 0.943522 0.783048 0.502010 23 0 254
0.276388 0.447220 0.850649 0.306568 0.125630 0.943522 0.702586 0.771221 23 0 254
0.000000 0.000000 1.000000 0.303530 -0.187597 0.934172 0.687210 0.489529 254 252 0
0.262869 -0.525738 0.809012 0.303530 -0.187597 0.934172 0.700218 0.214339 254 252 0
0.587786 0.000000 0.809017 0.303530 -0.187597 0.934172 0.783048 0.502010 254 252 0
0.262869 -0.525738 0.809012 0.534577 -0.330387 0.777864 0.700218 0.214339 254 252 0
0.723607 -0.447220 0.525725 0.534577 -0.330387 0.777864 0.787301 0.221544 254 252 18
0.587786 0.000000 0.809017 0.534577 -0.330387 0.777864 0.783048 0.502010 254 252 0
-0.951058 0.000000 0.309013 -0.802609 0.125629 0.583126 0.495453 0.472529 28 4 254
-0.587786 0.000000 0.809017 -0.802609 0.125629 0.583126 0.591357 0.478270 23 0 254
-0.723607 0.447220 0.525725 -0.802609 0.125629 0.583126 0.512142 0.752064 23 0 254
-0.951058 0.000000 0.309013 -0.794656 -0.187596 0.577348 0.495453 0.472529 254 252 0
-0.688189 -0.525736 0.499997 -0.794656 -0.187596 0.577348 0.511122 0.217828 254 252 0
-0.587786 0.000000 0.809017 -0.794656 -0.187596 0.577348 0.591357 0.478270 254 252 0
-0.688189 -0.525736 0.499997 -0.574602 -0.330389 0.748783 0.511122 0.217828 254 252 0
-0.276388 -0.447220 0.850649 -0.574602 -0.330389 0.748783 0.600213 0.219307 254 252 0
-0.587786 0.000000 0.809017 -0.574602 -0.330389 0.748783 0.591357 0.478270 254 252 0
-0.587786 0.000000 -0.809017 -0.802609 0.125629 -0.583126 0.303657 0.483436 23 0 254
-0.951058 0.000000 -0.309013 -0.802609 0.125629 -0.583126 0.399536 0.474503 23 0 254
-0.723607 0.447220 -0.525725 -0.802609 0.125629 -0.583126 0.323018 0.755422 23 0 254
-0.587786 0.000000 -0.809017 -0.794656 -0.187596 -0.577348 0.303657 0.483436 254 252 0
-0.688189 -0.525736 -0.499997 -0.794656 -0.187596 -0.577348 0.317945 0.221021 254 252 0
-0.951058 0.000000 -0.309013 -0.794656 -0.187596 -0.577348 0.399536 0.474503 254 252 0
-0.688189 -0.525736 -0.499997 -0.889697 -0.330386 -0.315095 0.317945 0.221021 254 252 0
-0.894426 -0.447216 0.000000 -0.889697 -0.330386 -0.315095 0.408003 0.220398 254 252 0
-0.951058 0.000000 -0.309013 -0.889697 -0.330386 -0.315095 0.399536 0.474503 254 252 0
0.587786 0.000000 -0.809017 0.306568 0.125630 -0.943522 0.111966 0.507177 26 3 254
0.000000 0.000000 -1.000000 0.306568 0.125630 -0.943522 0.207820 0.495917 54 32 254
0.276388 0.447220 -0.850649 0.306568 0.125630 -0.943522 0.131792 0.776654 23 0 254
0.587786 0.000000 -0.809017 0.303530 -0.187597 -0.934172 0.111966 0.507177 254 252 0
0.262869 -0.525738 -0.809012 0.303530 -0.187597 -0.934172 0.119563 0.219505 254 252 0
0.000000 0.000000 -1.000000 0.303530 -0.187597 -0.934172 0.207820 0.495917 254 253 7
0.262869 -0.525738 -0.809012 0.024745 -0.330386 -0.943521 0.119563 0.219505 254 252 0
-0.276388 -0.447220 -0.850649 0.024745 -0.330386 -0.943521 0.212224 0.219313 254 252 2
0.000000 0.000000 -1.000000 0.024745 -0.330386 -0.943521 0.207820 0.495917 254 253 8
0.587786 0.000000 0.809017 0.574602 0.330389 0.748783 0.783048 0.502010 23 0 254
0.688189 0.525736 0.499997 0.574602 0.330389 0.748783 0.794907 0.786133 23 0 254
0.276388 0.447220 0.850649 0.574602 0.330389 0.748783 0.702586 0.771221 23 0 254
0.587786 0.000000 0.809017 0.794656 0.187596 0.577348 0.783048 0.502010 23 0 254
0.951058 0.000000 0.309013 0.794656 0.187596 0.577348 0.878928 0.510943 63 42 254
0.688189 0.525736 0.499997 0.794656 0.187596 0.577348 0.794907 0.786133 23 0 254
0.951058 0.000000 0.309013 0.889697 0.330386 0.315095 0.878928 0.510943 63 42 254
0.894426 0.447216 0.000000 0.889697 0.330386 0.315095 0.896295 0.786417 23 0 254
0.688189 0.525736 0.499997 0.889697 0.330386 0.315095 0.794907 0.786133 23 0 254
-0.587786 0.000000 0.809017 -0.534577 0.330387 0.777864 0.591357 0.478270 23 0 254
-0.262869 0.525738 0.809012 -0.534577 0.330387 0.777864 0.602730 0.765941 12 0 254
-0.723607 0.447220 0.525725 -0.534577 0.330387 0.777864 0.512142 0.752064 23 0 254
-0.587786 0.000000 0.809017 -0.303530 0.187597 0.934172 0.591357 0.478270 23 0 254
0.000000 0.000000 1.000000 -0.303530 0.187597 0.934172 0.687210 0.489529 23 0 254
-0.262869 0.525738 0.809012 -0.303530 0.187597 0.934172 0.602730 0.765941 12 0 254
0.000000 0.000000 1.000000 -0.024745 0.330386 0.943521 0.687210 0.489529 23 0 254
0.276388 0.447220 0.850649 -0.024745 0.330386 0.943521 0.702586 0.771221 23 0 254
-0.262869 0.525738 0.809012 -0.024745 0.330386 0.943521 0.602730 0.765941 12 0 254
-0.951058 0.000000 -0.309013 -0.904989 0.330385 -0.268032 0.399536 0.474503 23 0 254
-0.850648 0.525736 0.000000 -0.904989 0.330385 -0.268032 0.413946 0.756653 23 0 254
-0.723607 0.447220 -0.525725 -0.904989 0.330385 -0.268032 0.323018 0.755422 23 0 254
-0.951058 0.000000 -0.309013 -0.982246 0.187599 0.000000 0.399536 0.474503 23 0 254
-0.951058 0.000000 0.309013 -0.982246 0.187599 0.000000 0.495453 0.472529 28 4 254
-0.850648 0.525736 0.000000 -0.982246 0.187599 0.000000 0.413946 0.756653 23 0 254
-0.951058 0.000000 0.309013 -0.904989 0.330385 0.268032 0.495453 0.472529 28 4 254
-0.723607 0.447220 0.525725 -0.904989 0.330385 0.268032 0.512142 0.752064 23 0 254
-0.850648 0.525736 0.000000 -0.904989 0.330385 0.268032 0.413946 0.756653 23 0 254
0.000000 0.000000 -1.000000 -0.024745 0.330386 -0.943521 0.207820 0.495917 54 32 254
-0.262869 0.525738 -0.809012 -0.024745 0.330386 -0.943521 0.224604 0.771107 23 0 254
0.276388 0.447220 -0.850649 -0.024745 0.330386 -0.943521 0.131792 0.776654 23 0 254
0.000000 0.000000 -1.000000 -0.303530 0.187597 -0.934172 0.207820 0.495917 54 32 254
-0.587786 0.000000 -0.809017 -0.303530 0.187597 -0.934172 0.303657 0.483436 23 0 254
-0.262869 0.525738 -0.809012 -0.303530 0.187597 -0.934172 0.224604 0.771107 23 0 254
-0.587786 0.000000 -0.809017 -0.534577 0.330387 -0.777864 0.303657 0.483436 23 0 254
-0.723607 0.447220 -0.525725 -0.534577 0.330387 -0.777864 0.323018 0.755422 23 0 254
-0.262869 0.525738 -0.809012 -0.534577 0.330387 -0.777864 0.224604 0.771107 23 0 254
0.951058 0.000000 -0.309013 0.889697 0.330386 -0.315095 1.004913 0.505490 23 0 254
0.688189 0.525736 -0.499997 0.889697 0.330386 -0.315095 1.004222 0.781899 23 0 254
0.894426 0.447216 0.000000 0.889697 0.330386 -0.315095 0.896295 0.786417 23 0 254
0.951058 0.000000 -0.309013 0.794656 0.187596 -0.577348 -0.002557 0.504776 23 0 254
0.587786 0.000000 -0.809017 0.794656 0.187596 -0.577348 0.111966 0.507177 26 3 254
0.688189 0.525736 -0.499997 0.794656 0.187596 -0.577348 -0.001729 0.775758 23 0 254
0.587786 0.000000 -0.809017 0.574602 0.330389 -0.748783 0.111966 0.507177 26 3 254
0.276388 0.447220 -0.850649 0.574602 0.330389 -0.748783 0.131792 0.776654 23 0 254
0.688189 0.525736 -0.499997 0.574602 0.330389 -0.748783 -0.001729 0.775758 23 0 254
0.162456 0.850654 0.499995 0.268034 0.943523 0.194737 0.697493 1.009172 254 9 20
0.525730 0.850652 0.000000 0.268034 0.943523 0.194737 0.892329 1.001145 254 0 10
0.000000 1.000000 0.000000 0.268034 0.943523 0.194737 0.504777 1.156451 254 0 10
0.162456 0.850654 0.499995 0.491119 0.794657 0.356822 0.697493 1.009172 38 254 4
0.688189 0.525736 0.499997 0.491119 0.794657 0.356822 0.794907 0.786133 34 254 0
0.525730 0.850652 0.000000 0.491119 0.794657 0.356822 0.892329 1.001145 34 254 0
0.688189 0.525736 0.499997 0.724042 0.661695 0.194737 0.794907 0.786133 34 254 0
0.894426 0.447216 0.000000 0.724042 0.661695 0.194737 0.896295 0.786417 34 254 0
0.525730 0.850652 0.000000 0.724042 0.661695 0.194737 0.892329 1.001145 34 254 0
-0.425323 0.850654 0.309011 -0.102381 0.943523 0.315091 0.497617 1.007919 254 0 11
0.162456 0.850654 0.499995 -0.102381 0.943523 0.315091 0.697493 1.009172 254 9 20
0.000000 1.000000 0.000000 -0.102381 0.943523 0.315091 0.504777 1.156451 254 0 10
-0.425323 0.850654 0.309011 -0.187593 0.794659 0.577344 0.497617 1.007919 34 254 0
-0.262869 0.525738 0.809012 -0.187593 0.794659 0.577344 0.602730 0.765941 34 254 0
0.162456 0.850654 0.499995 -0.187593 0.794659 0.577344 0.697493 1.009172 34 254 0
-0.262869 0.525738 0.809012 0.038532 0.661700 0.748778 0.602730 0.765941 34 254 0
0.276388 0.447220 0.850649 0.038532 0.661700 0.748778 0.702586 0.771221 34 254 0
0.162456 0.850654 0.499995 0.038532 0.661700 0.748778 0.697493 1.009172 34 254 0
-0.425323 0.850654 -0.309011 -0.331305 0.943524 0.000000 0.222369 1.009891 254 0 10
-0.425323 0.850654 0.309011 -0.331305 0.943524 0.000000 0.497617 1.007919 254 0 11
0.000000 1.000000 0.000000 -0.331305 0.943524 0.000000 0.504777 1.156451 254 0 10
-0.425323 0.850654 -0.309011 -0.607060 0.794656 0.000000 0.222369 1.009891 34 254 0
-0.850648 0.525736 0.000000 -0.607060 0.794656 0.000000 0.413946 0.756653 34 254 0
-0.425323 0.850654 0.309011 -0.607060 0.794656 0.000000 0.497617 1.007919 34 254 0
-0.850648 0.525736 0.000000 -0.700224 0.661699 0.268032 0.413946 0.756653 34 254 0
-0.723607 0.447220 0.525725 -0.700224 0.661699 0.268032 0.512142 0.752064 85 254 59
-0.425323 0.850654 0.309011 -0.700224 0.661699 0.268032 0.497617 1.007919 34 254 0
0.162456 0.850654 -0.499995 -0.102381 0.943523 -0.315091 -0.003273 1.010840 254 38 48
-0.425323 0.850654 -0.309011 -0.102381 0.943523 -0.315091 0.222369 1.009891 254 0 10
0.000000 1.000000 0.000000 -0.102381 0.943523 -0.315091 0.504777 1.156451 254 0 10
0.162456 0.850654 -0.499995 -0.187593 0.794659 -0.577344 -0.003273 1.010840 34 254 0
-0.262869 0.525738 -0.809012 -0.187593 0.794659 -0.577344 0.224604 0.771107 34 254 0
-0.425323 0.850654 -0.309011 -0.187593 0.794659 -0.577344 0.222369 1.009891 34 254 0
-0.262869 0.525738 -0.809012 -0.471300 0.661699 -0.583121 0.224604 0.771107 34 254 0
-0.723607 0.447220 -0.525725 -0.471300 0.661699 -0.583121 0.323018 0.755422 34 254 0
-0.425323 0.850654 -0.309011 -0.471300 0.661699 -0.583121 0.222369 1.009891 34 254 0
0.525730 0.850652 0.000000 0.268034 0.943523 -0.194737 0.892329 1.001145 254 0 10
0.162456 0.850654 -0.499995 0.268034 0.943523 -0.194737 1.011514 1.006126 254 38 48
0.000000 1.000000 0.000000 0.268034 0.943523 -0.194737 0.504777 1.156451 254 0 10
0.525730 0.850652 0.000000 0.491119 0.794657 -0.356822 0.892329 1.001145 34 254 0
0.688189 0.525736 -0.499997 0.491119 0.794657 -0.356822 1.004222 0.781899 34 254 0
0.162456 0.850654 -0.499995 0.491119 0.794657 -0.356822 1.011514 1.006126 34 254 0
0.688189 0.525736 -0.499997 0.408946 0.661699 -0.628425 -0.001729 0.775758 34 254 0
0.276388 0.447220 -0.850649 0.408946 0.661699 -0.628425 0.131792 0.776654 35 254 1
0.162456 0.850654 -0.499995 0.408946 0.661699 -0.628425 -0.003273 1.010840 34 254 0
3 0 1 2
3 3 4 5
3 6 7 8
3 9 10 11
3 12 13 14
3 15 16 17
3 18 19 20
3 21 22 23
3 24 25 26
3 27 28 29
3 30 31 32
3 33 34 35
3 36 37 38
3 39 40 41
3 42 43 44
3 45 46 47
3 48 49 50
3 51 52 53
3 54 55 56
3 57 58 59
3 60 61 62
3 63 64 65
3 66 67 68
3 69 70 71
3 72 73 74
3 75 76 77
3 78 79 80
3 81 82 83
3 84 85 86
3 87 88 89
3 90 91 92
3 93 94 95
3 96 97 98
3 99 100 101
3 102 103 104
3 105 106 107
3 108 109 110
3 111 112 113
3 114 115 116
3 117 118 119
3 120 121 122
3 123 124 125
3 126 127 128
3 129 130 131
3 132 133 134
3 135 136 137
3 138 139 140
3 141 142 143
3 144 145 146
3 147 148 149
3 150 151 152
3 153 154 155
3 156 157 158
3 159 160 161
3 162 163 164
3 165 166 167
3 168 169 170
3 171 172 173
3 174 175 176
3 177 178 179
3 180 181 182
3 183 184 185
3 186 187 188
3 189 190 191
3 192 193 194
3 195 196 197
3 198 199 200
3 201 202 203
3 204 205 206
3 207 208 209
3 210 211 212
3 213 214 215
3 216 217 218
3 219 220 221
3 222 223 224
3 225 226 227
3 228 229 230
3 231 232 233
3 234 235 236
3 237 238 239
