ply
format ascii 1.0
comment Created by Blender 2.69 (sub 0) - www.blender.org, source file: 'world-unit-mod.blend'
element vertex 240
property float x
property float y
property float z
property float nx
property float ny
property float nz
property float s
property float t
property uchar red
property uchar green
property uchar blue
element face 80
property list uchar uint vertex_indices
end_header
0.000000 -1.000000 0.000000 0.102381 -0.943523 0.315091 0.222304 0.634177 255 0 20
0.425323 -0.850654 0.309011 0.102381 -0.943523 0.315091 0.334440 0.589489 19 255 0
-0.162456 -0.850654 0.499995 0.102381 -0.943523 0.315091 0.270524 0.716381 10 0 255
0.723607 -0.447220 0.525725 0.700224 -0.661699 0.268032 0.778012 0.466608 15 0 255
0.425323 -0.850654 0.309011 0.700224 -0.661699 0.268032 0.667542 0.515272 224 0 15
0.850648 -0.525736 0.000000 0.700224 -0.661699 0.268032 0.726889 0.386179 15 223 0
0.000000 -1.000000 0.000000 -0.268034 -0.943523 0.194737 0.222304 0.634177 255 0 20
-0.162456 -0.850654 0.499995 -0.268034 -0.943523 0.194737 0.270524 0.716381 19 255 0
-0.525730 -0.850652 0.000000 -0.268034 -0.943523 0.194737 0.128575 0.710247 10 0 255
0.000000 -1.000000 0.000000 -0.268034 -0.943523 -0.194737 0.222304 0.634177 255 0 20
-0.525730 -0.850652 0.000000 -0.268034 -0.943523 -0.194737 0.128575 0.710247 19 255 0
-0.162456 -0.850654 -0.499995 -0.268034 -0.943523 -0.194737 0.104764 0.579563 10 0 255
0.000000 -1.000000 0.000000 0.102381 -0.943523 -0.315091 0.222304 0.634177 255 0 20
-0.162456 -0.850654 -0.499995 0.102381 -0.943523 -0.315091 0.104764 0.579563 19 255 0
0.425323 -0.850654 -0.309011 0.102381 -0.943523 -0.315091 0.231996 0.504931 12 61 194
0.723607 -0.447220 0.525725 0.904989 -0.330385 0.268032 0.778012 0.466608 15 0 255
0.850648 -0.525736 0.000000 0.904989 -0.330385 0.268032 0.726889 0.386179 24 255 0
0.951058 0.000000 0.309013 0.904989 -0.330385 0.268032 0.868968 0.387240 255 9 12
-0.276388 -0.447220 0.850649 0.024745 -0.330386 0.943521 0.786868 0.714449 15 0 255
0.262869 -0.525738 0.809012 0.024745 -0.330386 0.943521 0.772941 0.596119 23 255 0
0.000000 0.000000 1.000000 0.024745 -0.330386 0.943521 0.902636 0.662669 255 0 13
-0.894426 -0.447216 0.000000 -0.889697 -0.330386 0.315095 0.560947 0.318567 15 0 255
-0.688189 -0.525736 0.499997 -0.889697 -0.330386 0.315095 0.445921 0.266844 23 255 0
-0.951058 0.000000 0.309013 -0.889697 -0.330386 0.315095 0.573666 0.193090 255 0 13
-0.276388 -0.447220 -0.850649 -0.574602 -0.330389 -0.748783 1.000000 0.192527 15 0 255
-0.688189 -0.525736 -0.499997 -0.574602 -0.330389 -0.748783 1.000000 0.318567 23 255 0
-0.587786 0.000000 -0.809017 -0.574602 -0.330389 -0.748783 0.898769 0.255366 255 0 13
0.723607 -0.447220 -0.525725 0.534577 -0.330387 -0.777864 0.226507 0.318567 15 0 255
0.262869 -0.525738 -0.809012 0.534577 -0.330387 -0.777864 0.127747 0.386179 23 255 0
0.587786 0.000000 -0.809017 0.534577 -0.330387 -0.777864 0.111480 0.266843 255 6 12
0.723607 -0.447220 0.525725 0.802609 -0.125629 0.583126 0.778012 0.466608 224 0 11
0.951058 0.000000 0.309013 0.802609 -0.125629 0.583126 0.868968 0.387240 23 255 0
0.587786 0.000000 0.809017 0.802609 -0.125629 0.583126 0.897431 0.516992 6 0 224
-0.276388 -0.447220 0.850649 -0.306568 -0.125630 0.943522 0.343613 0.193091 224 0 18
0.000000 0.000000 1.000000 -0.306568 -0.125630 0.943522 0.334440 0.073755 23 255 0
-0.587786 0.000000 0.809017 -0.306568 -0.125630 0.943522 0.445921 0.119336 21 0 222
-0.894426 -0.447216 0.000000 -0.992077 -0.125629 0.000000 0.560947 0.318567 224 0 27
-0.951058 0.000000 0.309013 -0.992077 -0.125629 0.000000 0.573666 0.193090 23 255 0
-0.951058 0.000000 -0.309013 -0.992077 -0.125629 0.000000 0.668881 0.266842 5 0 224
-0.276388 -0.447220 -0.850649 -0.306568 -0.125630 -0.943522 1.000000 0.192527 224 0 3
-0.587786 0.000000 -0.809017 -0.306568 -0.125630 -0.943522 0.898769 0.255366 23 255 0
0.000000 0.000000 -1.000000 -0.306568 -0.125630 -0.943522 0.903975 0.109688 17 0 224
0.723607 -0.447220 -0.525725 0.802609 -0.125629 -0.583126 0.226507 0.318567 224 0 13
0.587786 0.000000 -0.809017 0.802609 -0.125629 -0.583126 0.111480 0.266843 23 255 0
0.951058 0.000000 -0.309013 0.802609 -0.125629 -0.583126 0.239226 0.193089 18 0 224
0.276388 0.447220 0.850649 0.408946 0.661699 0.628425 0.338944 0.589409 23 0 255
0.688189 0.525736 0.499997 0.408946 0.661699 0.628425 0.334443 0.463450 35 255 0
0.162456 0.850654 0.499995 0.408946 0.661699 0.628425 0.437866 0.522996 255 0 11
-0.723607 0.447220 0.525725 -0.471300 0.661699 0.583121 0.555405 0.716381 23 0 255
-0.262869 0.525738 0.809012 -0.471300 0.661699 0.583121 0.437865 0.668767 35 255 0
-0.425323 0.850654 0.309011 -0.471300 0.661699 0.583121 0.565098 0.597628 255 0 0
-0.723607 0.447220 -0.525725 -0.700224 0.661699 -0.268032 0.779351 0.305750 15 0 255
-0.850648 0.525736 0.000000 -0.700224 0.661699 -0.268032 0.728227 0.386179 6 255 0
-0.425323 0.850654 -0.309011 -0.700224 0.661699 -0.268032 0.668881 0.257085 255 0 7
0.276388 0.447220 -0.850649 0.038532 0.661700 -0.748778 0.788207 0.057909 25 0 255
-0.262869 0.525738 -0.809012 0.038532 0.661700 -0.748778 0.774280 0.176239 33 255 0
0.162456 0.850654 -0.499995 0.038532 0.661700 -0.748778 0.674086 0.111409 255 0 18
0.894426 0.447216 0.000000 0.724042 0.661695 -0.194737 0.226506 0.067612 23 2 253
0.688189 0.525736 -0.499997 0.724042 0.661695 -0.194737 0.111480 0.119335 35 255 0
0.525730 0.850652 0.000000 0.724042 0.661695 -0.194737 0.127746 0.000000 255 0 11
-0.162456 -0.850654 0.499995 -0.038532 -0.661700 0.748778 0.672748 0.660949 224 0 19
0.262869 -0.525738 0.809012 -0.038532 -0.661700 0.748778 0.772941 0.596119 0 224 5
-0.276388 -0.447220 0.850649 -0.038532 -0.661700 0.748778 0.786868 0.714449 15 0 255
-0.162456 -0.850654 0.499995 0.187593 -0.794659 0.577344 0.672748 0.660949 23 0 255
0.425323 -0.850654 0.309011 0.187593 -0.794659 0.577344 0.667542 0.515272 26 255 0
0.262869 -0.525738 0.809012 0.187593 -0.794659 0.577344 0.772941 0.596119 255 3 0
0.425323 -0.850654 0.309011 0.471300 -0.661699 0.583121 0.667542 0.515272 224 0 17
0.723607 -0.447220 0.525725 0.471300 -0.661699 0.583121 0.778012 0.466608 26 255 0
0.262869 -0.525738 0.809012 0.471300 -0.661699 0.583121 0.772941 0.596119 3 0 224
0.850648 -0.525736 0.000000 0.700224 -0.661699 -0.268032 0.334440 0.443719 21 0 224
0.425323 -0.850654 -0.309011 0.700224 -0.661699 -0.268032 0.231996 0.504931 224 0 13
0.723607 -0.447220 -0.525725 0.700224 -0.661699 -0.268032 0.222304 0.386179 26 255 0
0.850648 -0.525736 0.000000 0.607060 -0.794656 0.000000 0.334440 0.443719 255 3 0
0.425323 -0.850654 0.309011 0.607060 -0.794656 0.000000 0.334440 0.589489 23 0 255
0.425323 -0.850654 -0.309011 0.607060 -0.794656 0.000000 0.231996 0.504931 26 255 0
0.425323 -0.850654 0.309011 0.331305 -0.943524 0.000000 0.334440 0.589489 10 0 255
0.000000 -1.000000 0.000000 0.331305 -0.943524 0.000000 0.222304 0.634177 255 0 20
0.425323 -0.850654 -0.309011 0.331305 -0.943524 0.000000 0.231996 0.504931 19 255 0
-0.525730 -0.850652 0.000000 -0.724042 -0.661695 0.194737 0.462186 0.386179 224 0 10
-0.688189 -0.525736 0.499997 -0.724042 -0.661695 0.194737 0.445921 0.266844 9 224 0
-0.894426 -0.447216 0.000000 -0.724042 -0.661695 0.194737 0.560947 0.318567 2 0 255
-0.525730 -0.850652 0.000000 -0.491119 -0.794657 0.356822 0.462186 0.386179 23 0 255
-0.162456 -0.850654 0.499995 -0.491119 -0.794657 0.356822 0.334441 0.312427 26 255 0
-0.688189 -0.525736 0.499997 -0.491119 -0.794657 0.356822 0.445921 0.266844 253 5 2
-0.162456 -0.850654 0.499995 -0.408946 -0.661699 0.628425 0.334441 0.312427 224 0 18
-0.276388 -0.447220 0.850649 -0.408946 -0.661699 0.628425 0.343613 0.193091 26 255 0
-0.688189 -0.525736 0.499997 -0.408946 -0.661699 0.628425 0.445921 0.266844 37 0 224
-0.162456 -0.850654 -0.499995 -0.408946 -0.661699 -0.628425 0.104764 0.579563 224 0 13
-0.688189 -0.525736 -0.499997 -0.408946 -0.661699 -0.628425 0.001342 0.639110 29 224 0
-0.276388 -0.447220 -0.850649 -0.408946 -0.661699 -0.628425 0.005842 0.513151 11 0 255
-0.162456 -0.850654 -0.499995 -0.491119 -0.794657 -0.356822 0.104764 0.579563 23 0 255
-0.525730 -0.850652 0.000000 -0.491119 -0.794657 -0.356822 0.128575 0.710247 26 255 1
-0.688189 -0.525736 -0.499997 -0.491119 -0.794657 -0.356822 0.001342 0.639110 255 3 0
-0.525730 -0.850652 0.000000 -0.724042 -0.661695 -0.194737 0.462186 0.386179 224 0 21
-0.894426 -0.447216 0.000000 -0.724042 -0.661695 -0.194737 0.560947 0.318567 26 255 0
-0.688189 -0.525736 -0.499997 -0.724042 -0.661695 -0.194737 0.599982 0.386179 17 0 224
0.425323 -0.850654 -0.309011 0.471300 -0.661699 -0.583121 0.231996 0.504931 223 4 0
0.262869 -0.525738 -0.809012 0.471300 -0.661699 -0.583121 0.104763 0.433793 14 224 0
0.723607 -0.447220 -0.525725 0.471300 -0.661699 -0.583121 0.222304 0.386179 56 2 199
0.425323 -0.850654 -0.309011 0.187593 -0.794659 -0.577344 0.231996 0.504931 23 0 255
-0.162456 -0.850654 -0.499995 0.187593 -0.794659 -0.577344 0.104764 0.579563 26 255 0
0.262869 -0.525738 -0.809012 0.187593 -0.794659 -0.577344 0.104763 0.433793 245 13 10
-0.162456 -0.850654 -0.499995 -0.038532 -0.661700 -0.748778 0.104764 0.579563 223 0 17
-0.276388 -0.447220 -0.850649 -0.038532 -0.661700 -0.748778 0.005842 0.513151 26 255 0
0.262869 -0.525738 -0.809012 -0.038532 -0.661700 -0.748778 0.104763 0.433793 24 0 224
0.951058 0.000000 0.309013 0.992077 0.125629 -0.000000 0.334440 0.119337 47 25 255
0.951058 0.000000 -0.309013 0.992077 0.125629 -0.000000 0.239226 0.193089 19 255 0
0.894426 0.447216 0.000000 0.992077 0.125629 -0.000000 0.226506 0.067612 255 0 11
0.951058 0.000000 0.309013 0.982246 -0.187599 0.000000 0.334440 0.119337 18 0 224
0.850648 -0.525736 0.000000 0.982246 -0.187599 0.000000 0.334440 0.266845 224 0 11
0.951058 0.000000 -0.309013 0.982246 -0.187599 0.000000 0.239226 0.193089 23 255 0
0.850648 -0.525736 0.000000 0.904989 -0.330385 -0.268032 0.334440 0.266845 15 0 255
0.723607 -0.447220 -0.525725 0.904989 -0.330385 -0.268032 0.226507 0.318567 23 255 0
0.951058 0.000000 -0.309013 0.904989 -0.330385 -0.268032 0.239226 0.193089 255 0 13
0.000000 0.000000 1.000000 0.306568 0.125630 0.943522 0.902636 0.662669 24 0 255
0.587786 0.000000 0.809017 0.306568 0.125630 0.943522 0.897431 0.516992 19 255 0
0.276388 0.447220 0.850649 0.306568 0.125630 0.943522 0.998661 0.579831 254 0 12
0.000000 0.000000 1.000000 0.303530 -0.187597 0.934172 0.902636 0.662669 6 0 224
0.262869 -0.525738 0.809012 0.303530 -0.187597 0.934172 0.772941 0.596119 224 0 6
0.587786 0.000000 0.809017 0.303530 -0.187597 0.934172 0.897431 0.516992 23 255 0
0.262869 -0.525738 0.809012 0.534577 -0.330387 0.777864 0.772941 0.596119 15 0 255
0.723607 -0.447220 0.525725 0.534577 -0.330387 0.777864 0.778012 0.466608 23 255 0
0.587786 0.000000 0.809017 0.534577 -0.330387 0.777864 0.897431 0.516992 255 0 13
-0.951058 0.000000 0.309013 -0.802609 0.125629 0.583126 0.573666 0.193090 29 5 255
-0.587786 0.000000 0.809017 -0.802609 0.125629 0.583126 0.445921 0.119336 19 254 1
-0.723607 0.447220 0.525725 -0.802609 0.125629 0.583126 0.560948 0.067612 254 0 12
-0.951058 0.000000 0.309013 -0.794656 -0.187596 0.577348 0.573666 0.193090 19 0 224
-0.688189 -0.525736 0.499997 -0.794656 -0.187596 0.577348 0.445921 0.266844 224 0 27
-0.587786 0.000000 0.809017 -0.794656 -0.187596 0.577348 0.445921 0.119336 23 255 0
-0.688189 -0.525736 0.499997 -0.574602 -0.330389 0.748783 0.445921 0.266844 15 0 255
-0.276388 -0.447220 0.850649 -0.574602 -0.330389 0.748783 0.343613 0.193091 23 255 0
-0.587786 0.000000 0.809017 -0.574602 -0.330389 0.748783 0.445921 0.119336 255 0 13
-0.587786 0.000000 -0.809017 -0.802609 0.125629 -0.583126 0.898769 0.255366 24 0 255
-0.951058 0.000000 -0.309013 -0.802609 0.125629 -0.583126 0.870306 0.385118 19 255 0
-0.723607 0.447220 -0.525725 -0.802609 0.125629 -0.583126 0.779351 0.305750 255 0 11
-0.587786 0.000000 -0.809017 -0.794656 -0.187596 -0.577348 0.898769 0.255366 5 0 224
-0.688189 -0.525736 -0.499997 -0.794656 -0.187596 -0.577348 1.000000 0.318567 224 0 3
-0.951058 0.000000 -0.309013 -0.794656 -0.187596 -0.577348 0.870306 0.385118 23 255 0
-0.688189 -0.525736 -0.499997 -0.889697 -0.330386 -0.315095 0.599982 0.386179 15 0 255
-0.894426 -0.447216 0.000000 -0.889697 -0.330386 -0.315095 0.560947 0.318567 23 255 0
-0.951058 0.000000 -0.309013 -0.889697 -0.330386 -0.315095 0.668881 0.266842 255 0 13
0.587786 0.000000 -0.809017 0.306568 0.125630 -0.943522 0.111480 0.266843 27 4 255
0.000000 0.000000 -1.000000 0.306568 0.125630 -0.943522 0.000000 0.312424 19 255 0
0.276388 0.447220 -0.850649 0.306568 0.125630 -0.943522 0.009173 0.193088 255 0 11
0.587786 0.000000 -0.809017 0.303530 -0.187597 -0.934172 0.111480 0.266843 17 0 224
0.262869 -0.525738 -0.809012 0.303530 -0.187597 -0.934172 0.127747 0.386179 224 0 13
0.000000 0.000000 -1.000000 0.303530 -0.187597 -0.934172 0.000000 0.312424 23 255 0
0.262869 -0.525738 -0.809012 0.024745 -0.330386 -0.943521 0.104763 0.433793 15 0 255
-0.276388 -0.447220 -0.850649 0.024745 -0.330386 -0.943521 0.005842 0.513151 23 255 0
0.000000 0.000000 -1.000000 0.024745 -0.330386 -0.943521 0.001339 0.403248 255 0 13
0.587786 0.000000 0.809017 0.574602 0.330389 0.748783 0.897431 0.516992 224 0 0
0.688189 0.525736 0.499997 0.574602 0.330389 0.748783 0.998661 0.453791 19 255 0
0.276388 0.447220 0.850649 0.574602 0.330389 0.748783 0.998661 0.579831 32 0 224
0.587786 0.000000 0.809017 0.794656 0.187596 0.577348 0.897431 0.516992 24 0 255
0.951058 0.000000 0.309013 0.794656 0.187596 0.577348 0.868968 0.387240 19 255 0
0.688189 0.525736 0.499997 0.794656 0.187596 0.577348 0.998661 0.453791 255 0 11
0.951058 0.000000 0.309013 0.889697 0.330386 0.315095 0.334440 0.119337 224 0 6
0.894426 0.447216 0.000000 0.889697 0.330386 0.315095 0.226506 0.067612 19 255 0
0.688189 0.525736 0.499997 0.889697 0.330386 0.315095 0.265542 0.000000 32 0 224
-0.587786 0.000000 0.809017 -0.534577 0.330387 0.777864 0.445921 0.119336 224 0 7
-0.262869 0.525738 0.809012 -0.534577 0.330387 0.777864 0.462187 0.000000 19 255 0
-0.723607 0.447220 0.525725 -0.534577 0.330387 0.777864 0.560948 0.067612 18 0 224
-0.587786 0.000000 0.809017 -0.303530 0.187597 0.934172 0.445921 0.119336 24 0 255
0.000000 0.000000 1.000000 -0.303530 0.187597 0.934172 0.334440 0.073755 19 255 0
-0.262869 0.525738 0.809012 -0.303530 0.187597 0.934172 0.462187 0.000000 255 0 11
0.000000 0.000000 1.000000 -0.024745 0.330386 0.943521 0.334440 0.699312 224 0 0
0.276388 0.447220 0.850649 -0.024745 0.330386 0.943521 0.338944 0.589409 19 255 0
-0.262869 0.525738 0.809012 -0.024745 0.330386 0.943521 0.437865 0.668767 18 0 224
-0.951058 0.000000 -0.309013 -0.904989 0.330385 -0.268032 0.870306 0.385118 224 0 7
-0.850648 0.525736 0.000000 -0.904989 0.330385 -0.268032 0.728227 0.386179 19 255 0
-0.723607 0.447220 -0.525725 -0.904989 0.330385 -0.268032 0.779351 0.305750 25 0 224
-0.951058 0.000000 -0.309013 -0.982246 0.187599 0.000000 0.668881 0.266842 24 0 255
-0.951058 0.000000 0.309013 -0.982246 0.187599 0.000000 0.573666 0.193090 19 255 0
-0.850648 0.525736 0.000000 -0.982246 0.187599 0.000000 0.668881 0.119334 255 0 11
-0.951058 0.000000 0.309013 -0.904989 0.330385 0.268032 0.573666 0.193090 224 0 7
-0.723607 0.447220 0.525725 -0.904989 0.330385 0.268032 0.560948 0.067612 19 255 0
-0.850648 0.525736 0.000000 -0.904989 0.330385 0.268032 0.668881 0.119334 25 0 224
0.000000 0.000000 -1.000000 -0.024745 0.330386 -0.943521 0.903975 0.109688 224 7 0
-0.262869 0.525738 -0.809012 -0.024745 0.330386 -0.943521 0.774280 0.176239 19 254 1
0.276388 0.447220 -0.850649 -0.024745 0.330386 -0.943521 0.788207 0.057909 1 2 222
0.000000 0.000000 -1.000000 -0.303530 0.187597 -0.934172 0.903975 0.109688 55 33 255
-0.587786 0.000000 -0.809017 -0.303530 0.187597 -0.934172 0.898769 0.255366 19 255 0
-0.262869 0.525738 -0.809012 -0.303530 0.187597 -0.934172 0.774280 0.176239 255 0 11
-0.587786 0.000000 -0.809017 -0.534577 0.330387 -0.777864 0.898769 0.255366 224 0 7
-0.723607 0.447220 -0.525725 -0.534577 0.330387 -0.777864 0.779351 0.305750 19 255 0
-0.262869 0.525738 -0.809012 -0.534577 0.330387 -0.777864 0.774280 0.176239 1 0 224
0.951058 0.000000 -0.309013 0.889697 0.330386 -0.315095 0.239226 0.193089 224 0 15
0.688189 0.525736 -0.499997 0.889697 0.330386 -0.315095 0.111480 0.119335 19 255 0
0.894426 0.447216 0.000000 0.889697 0.330386 -0.315095 0.226506 0.067612 7 0 224
0.951058 0.000000 -0.309013 0.794656 0.187596 -0.577348 0.239226 0.193089 24 0 255
0.587786 0.000000 -0.809017 0.794656 0.187596 -0.577348 0.111480 0.266843 20 241 14
0.688189 0.525736 -0.499997 0.794656 0.187596 -0.577348 0.111480 0.119335 255 0 11
0.587786 0.000000 -0.809017 0.574602 0.330389 -0.748783 0.111480 0.266843 224 7 0
0.276388 0.447220 -0.850649 0.574602 0.330389 -0.748783 0.009173 0.193088 19 255 0
0.688189 0.525736 -0.499997 0.574602 0.330389 -0.748783 0.111480 0.119335 11 0 221
0.162456 0.850654 0.499995 0.268034 0.943523 0.194737 0.437866 0.522996 56 1 227
0.525730 0.850652 0.000000 0.268034 0.943523 0.194737 0.461676 0.392312 13 255 0
0.000000 1.000000 0.000000 0.268034 0.943523 0.194737 0.555406 0.468382 255 0 22
0.162456 0.850654 0.499995 0.491119 0.794657 0.356822 0.437866 0.522996 17 0 224
0.688189 0.525736 0.499997 0.491119 0.794657 0.356822 0.334443 0.463450 224 0 10
0.525730 0.850652 0.000000 0.491119 0.794657 0.356822 0.461676 0.392312 35 255 0
0.688189 0.525736 0.499997 0.724042 0.661695 0.194737 0.265542 0.000000 23 2 253
0.894426 0.447216 0.000000 0.724042 0.661695 0.194737 0.226506 0.067612 35 255 0
0.525730 0.850652 0.000000 0.724042 0.661695 0.194737 0.127746 0.000000 255 0 11
-0.425323 0.850654 0.309011 -0.102381 0.943523 0.315091 0.565098 0.597628 191 1 81
0.162456 0.850654 0.499995 -0.102381 0.943523 0.315091 0.437866 0.522996 15 253 0
0.000000 1.000000 0.000000 -0.102381 0.943523 0.315091 0.555406 0.468382 255 0 22
-0.425323 0.850654 0.309011 -0.187593 0.794659 0.577344 0.565098 0.597628 25 0 224
-0.262869 0.525738 0.809012 -0.187593 0.794659 0.577344 0.437865 0.668767 224 0 10
0.162456 0.850654 0.499995 -0.187593 0.794659 0.577344 0.437866 0.522996 35 255 0
-0.262869 0.525738 0.809012 0.038532 0.661700 0.748778 0.437865 0.668767 23 0 255
0.276388 0.447220 0.850649 0.038532 0.661700 0.748778 0.338944 0.589409 35 255 0
0.162456 0.850654 0.499995 0.038532 0.661700 0.748778 0.437866 0.522996 253 3 11
-0.425323 0.850654 -0.309011 -0.331305 0.943524 0.000000 0.667542 0.513071 53 0 229
-0.425323 0.850654 0.309011 -0.331305 0.943524 0.000000 0.565098 0.597628 14 254 0
0.000000 1.000000 0.000000 -0.331305 0.943524 0.000000 0.555406 0.468382 255 0 22
-0.425323 0.850654 -0.309011 -0.607060 0.794656 0.000000 0.667542 0.513071 17 0 224
-0.850648 0.525736 0.000000 -0.607060 0.794656 0.000000 0.667542 0.658841 224 0 13
-0.425323 0.850654 0.309011 -0.607060 0.794656 0.000000 0.565098 0.597628 8 255 0
-0.850648 0.525736 0.000000 -0.700224 0.661699 0.268032 0.667542 0.658841 23 0 255
-0.723607 0.447220 0.525725 -0.700224 0.661699 0.268032 0.555405 0.716381 45 255 0
-0.425323 0.850654 0.309011 -0.700224 0.661699 0.268032 0.565098 0.597628 255 0 0
0.162456 0.850654 -0.499995 -0.102381 0.943523 -0.315091 0.603626 0.386179 43 2 242
-0.425323 0.850654 -0.309011 -0.102381 0.943523 -0.315091 0.667542 0.513071 13 255 0
0.000000 1.000000 0.000000 -0.102381 0.943523 -0.315091 0.555406 0.468382 255 0 22
0.162456 0.850654 -0.499995 -0.187593 0.794659 -0.577344 0.674086 0.111409 25 0 224
-0.262869 0.525738 -0.809012 -0.187593 0.794659 -0.577344 0.774280 0.176239 224 7 0
-0.425323 0.850654 -0.309011 -0.187593 0.794659 -0.577344 0.668881 0.257085 0 255 5
-0.262869 0.525738 -0.809012 -0.471300 0.661699 -0.583121 0.774280 0.176239 25 0 255
-0.723607 0.447220 -0.525725 -0.471300 0.661699 -0.583121 0.779351 0.305750 35 255 0
-0.425323 0.850654 -0.309011 -0.471300 0.661699 -0.583121 0.668881 0.257085 255 0 8
0.525730 0.850652 0.000000 0.268034 0.943523 -0.194737 0.461676 0.392312 39 0 244
0.162456 0.850654 -0.499995 0.268034 0.943523 -0.194737 0.603626 0.386179 13 255 0
0.000000 1.000000 0.000000 0.268034 0.943523 -0.194737 0.555406 0.468382 255 0 22
0.525730 0.850652 0.000000 0.491119 0.794657 -0.356822 0.127746 0.000000 0 1 224
0.688189 0.525736 -0.499997 0.491119 0.794657 -0.356822 0.111480 0.119335 224 7 0
0.162456 0.850654 -0.499995 0.491119 0.794657 -0.356822 0.000001 0.073752 35 255 1
0.688189 0.525736 -0.499997 0.408946 0.661699 -0.628425 0.111480 0.119335 25 16 239
0.276388 0.447220 -0.850649 0.408946 0.661699 -0.628425 0.009173 0.193088 36 255 2
0.162456 0.850654 -0.499995 0.408946 0.661699 -0.628425 0.000001 0.073752 255 0 11
3 0 1 2
3 3 4 5
3 6 7 8
3 9 10 11
3 12 13 14
3 15 16 17
3 18 19 20
3 21 22 23
3 24 25 26
3 27 28 29
3 30 31 32
3 33 34 35
3 36 37 38
3 39 40 41
3 42 43 44
3 45 46 47
3 48 49 50
3 51 52 53
3 54 55 56
3 57 58 59
3 60 61 62
3 63 64 65
3 66 67 68
3 69 70 71
3 72 73 74
3 75 76 77
3 78 79 80
3 81 82 83
3 84 85 86
3 87 88 89
3 90 91 92
3 93 94 95
3 96 97 98
3 99 100 101
3 102 103 104
3 105 106 107
3 108 109 110
3 111 112 113
3 114 115 116
3 117 118 119
3 120 121 122
3 123 124 125
3 126 127 128
3 129 130 131
3 132 133 134
3 135 136 137
3 138 139 140
3 141 142 143
3 144 145 146
3 147 148 149
3 150 151 152
3 153 154 155
3 156 157 158
3 159 160 161
3 162 163 164
3 165 166 167
3 168 169 170
3 171 172 173
3 174 175 176
3 177 178 179
3 180 181 182
3 183 184 185
3 186 187 188
3 189 190 191
3 192 193 194
3 195 196 197
3 198 199 200
3 201 202 203
3 204 205 206
3 207 208 209
3 210 211 212
3 213 214 215
3 216 217 218
3 219 220 221
3 222 223 224
3 225 226 227
3 228 229 230
3 231 232 233
3 234 235 236
3 237 238 239
