ply
format ascii 1.0
comment Created by Blender 2.69 (sub 0) - www.blender.org, source file: 'world-unit-mod.blend'
element vertex 240
property float x
property float y
property float z
property float nx
property float ny
property float nz
property float s
property float t
property uchar red
property uchar green
property uchar blue
element face 80
property list uchar uint vertex_indices
end_header
0.000000 -1.000000 0.000000 0.102381 -0.943523 0.315091 0.502647 0.023293 255 0 239
0.425323 -0.850654 0.309011 0.102381 -0.943523 0.315091 0.779521 0.139458 255 0 239
-0.162456 -0.850654 0.499995 0.102381 -0.943523 0.315091 0.595876 0.130259 255 0 239
0.723607 -0.447220 0.525725 0.700224 -0.661699 0.268032 0.765662 0.290750 0 255 252
0.425323 -0.850654 0.309011 0.700224 -0.661699 0.268032 0.779521 0.139458 3 255 252
0.850648 -0.525736 0.000000 0.700224 -0.661699 0.268032 0.864523 0.296093 0 255 252
0.000000 -1.000000 0.000000 -0.268034 -0.943523 0.194737 0.502647 0.023293 255 0 239
-0.162456 -0.850654 0.499995 -0.268034 -0.943523 0.194737 0.595876 0.130259 255 0 239
-0.525730 -0.850652 0.000000 -0.268034 -0.943523 0.194737 0.402545 0.126030 255 0 239
0.000000 -1.000000 0.000000 -0.268034 -0.943523 -0.194737 0.499538 0.023293 255 0 239
-0.525730 -0.850652 0.000000 -0.268034 -0.943523 -0.194737 0.402545 0.126030 255 0 239
-0.162456 -0.850654 -0.499995 -0.268034 -0.943523 -0.194737 0.211057 0.132613 255 0 239
0.000000 -1.000000 0.000000 0.102381 -0.943523 -0.315091 0.499538 0.023293 255 0 239
-0.162456 -0.850654 -0.499995 0.102381 -0.943523 -0.315091 0.211057 0.132613 255 0 239
0.425323 -0.850654 -0.309011 0.102381 -0.943523 -0.315091 0.029822 0.140912 255 0 239
0.723607 -0.447220 0.525725 0.904989 -0.330385 0.268032 0.765662 0.290750 255 253 19
0.850648 -0.525736 0.000000 0.904989 -0.330385 0.268032 0.864523 0.296093 255 253 17
0.951058 0.000000 0.309013 0.904989 -0.330385 0.268032 0.854244 0.504054 255 253 0
-0.276388 -0.447220 0.850649 0.024745 -0.330386 0.943521 0.580789 0.275101 255 253 0
0.262869 -0.525738 0.809012 0.024745 -0.330386 0.943521 0.681472 0.285439 255 253 1
0.000000 0.000000 1.000000 0.024745 -0.330386 0.943521 0.668896 0.488271 255 253 0
-0.894426 -0.447216 0.000000 -0.889697 -0.330386 0.315095 0.392965 0.267905 255 253 0
-0.688189 -0.525736 0.499997 -0.889697 -0.330386 0.315095 0.494658 0.272011 255 253 0
-0.951058 0.000000 0.309013 -0.889697 -0.330386 0.315095 0.483510 0.475741 255 253 0
-0.276388 -0.447220 -0.850649 -0.574602 -0.330389 -0.748783 0.205691 0.279105 255 253 3
-0.688189 -0.525736 -0.499997 -0.574602 -0.330389 -0.748783 0.305899 0.274364 255 253 0
-0.587786 0.000000 -0.809017 -0.574602 -0.330389 -0.748783 0.298086 0.483780 255 253 14
0.723607 -0.447220 -0.525725 0.534577 -0.330387 -0.777864 0.021574 0.293225 255 253 0
0.262869 -0.525738 -0.809012 0.534577 -0.330387 -0.777864 0.120108 0.289247 255 253 0
0.587786 0.000000 -0.809017 0.534577 -0.330387 -0.777864 0.112764 0.501278 255 253 0
0.723607 -0.447220 0.525725 0.802609 -0.125629 0.583126 0.765662 0.290750 255 253 19
0.951058 0.000000 0.309013 0.802609 -0.125629 0.583126 0.854244 0.504054 255 253 0
0.587786 0.000000 0.809017 0.802609 -0.125629 0.583126 0.761550 0.497470 255 253 0
-0.276388 -0.447220 0.850649 -0.306568 -0.125630 0.943522 0.580789 0.275101 255 253 0
0.000000 0.000000 1.000000 -0.306568 -0.125630 0.943522 0.668896 0.488271 255 253 0
-0.587786 0.000000 0.809017 -0.306568 -0.125630 0.943522 0.576228 0.479972 255 253 0
-0.894426 -0.447216 0.000000 -0.992077 -0.125629 0.000000 0.392965 0.267905 255 253 0
-0.951058 0.000000 0.309013 -0.992077 -0.125629 0.000000 0.483510 0.475741 255 253 0
-0.951058 0.000000 -0.309013 -0.992077 -0.125629 0.000000 0.390780 0.477196 255 253 0
-0.276388 -0.447220 -0.850649 -0.306568 -0.125630 -0.943522 0.205691 0.279105 255 253 3
-0.587786 0.000000 -0.809017 -0.306568 -0.125630 -0.943522 0.298086 0.483780 255 253 14
0.000000 0.000000 -1.000000 -0.306568 -0.125630 -0.943522 0.205433 0.492979 255 254 9
0.723607 -0.447220 -0.525725 0.802609 -0.125629 -0.583126 0.021574 0.293225 255 253 0
0.587786 0.000000 -0.809017 0.802609 -0.125629 -0.583126 0.112764 0.501278 255 253 0
0.951058 0.000000 -0.309013 0.802609 -0.125629 -0.583126 0.020046 0.505509 255 253 0
0.276388 0.447220 0.850649 0.408946 0.661699 0.628425 0.683761 0.695895 39 255 5
0.688189 0.525736 0.499997 0.408946 0.661699 0.628425 0.773015 0.706886 35 255 0
0.162456 0.850654 0.499995 0.408946 0.661699 0.628425 0.680771 0.858012 39 255 5
-0.723607 0.447220 0.525725 -0.471300 0.661699 0.583121 0.499644 0.681775 86 255 60
-0.262869 0.525738 0.809012 -0.471300 0.661699 0.583121 0.587223 0.692003 35 255 0
-0.425323 0.850654 0.309011 -0.471300 0.661699 0.583121 0.499536 0.859088 35 255 0
-0.723607 0.447220 -0.525725 -0.700224 0.661699 -0.268032 0.316804 0.684250 35 255 0
-0.850648 0.525736 0.000000 -0.700224 0.661699 -0.268032 0.404711 0.685157 35 255 0
-0.425323 0.850654 -0.309011 -0.700224 0.661699 -0.268032 0.325432 0.860542 35 255 0
0.276388 0.447220 -0.850649 0.038532 0.661700 -0.748778 0.131931 0.699899 36 255 2
-0.262869 0.525738 -0.809012 0.038532 0.661700 -0.748778 0.221659 0.695811 35 255 0
0.162456 0.850654 -0.499995 0.038532 0.661700 -0.748778 0.129287 0.857241 35 255 1
0.894426 0.447216 0.000000 0.724042 0.661695 -0.194737 0.871035 0.707095 35 255 0
0.688189 0.525736 -0.499997 0.724042 0.661695 -0.194737 0.961774 0.709239 35 255 0
0.525730 0.850652 0.000000 0.724042 0.661695 -0.194737 0.869134 0.852095 35 255 0
-0.162456 -0.850654 0.499995 -0.038532 -0.661700 0.748778 0.595876 0.130259 0 255 252
0.262869 -0.525738 0.809012 -0.038532 -0.661700 0.748778 0.681472 0.285439 0 255 252
-0.276388 -0.447220 0.850649 -0.038532 -0.661700 0.748778 0.580789 0.275101 0 255 252
-0.162456 -0.850654 0.499995 0.187593 -0.794659 0.577344 0.595876 0.130259 0 255 252
0.425323 -0.850654 0.309011 0.187593 -0.794659 0.577344 0.779521 0.139458 3 255 252
0.262869 -0.525738 0.809012 0.187593 -0.794659 0.577344 0.681472 0.285439 0 255 252
0.425323 -0.850654 0.309011 0.471300 -0.661699 0.583121 0.779521 0.139458 3 255 252
0.723607 -0.447220 0.525725 0.471300 -0.661699 0.583121 0.765662 0.290750 0 255 252
0.262869 -0.525738 0.809012 0.471300 -0.661699 0.583121 0.681472 0.285439 0 255 252
0.850648 -0.525736 0.000000 0.700224 -0.661699 -0.268032 0.864523 0.296093 0 255 252
0.425323 -0.850654 -0.309011 0.700224 -0.661699 -0.268032 0.956750 0.140912 0 255 252
0.723607 -0.447220 -0.525725 0.700224 -0.661699 -0.268032 0.948502 0.293225 0 255 252
0.850648 -0.525736 0.000000 0.607060 -0.794656 0.000000 0.864523 0.296093 0 255 252
0.425323 -0.850654 0.309011 0.607060 -0.794656 0.000000 0.779521 0.139458 3 255 252
0.425323 -0.850654 -0.309011 0.607060 -0.794656 0.000000 0.956750 0.140912 0 255 252
0.425323 -0.850654 0.309011 0.331305 -0.943524 0.000000 0.779521 0.139458 255 0 239
0.000000 -1.000000 0.000000 0.331305 -0.943524 0.000000 0.502647 0.023293 255 0 239
0.425323 -0.850654 -0.309011 0.331305 -0.943524 0.000000 0.956750 0.140912 255 0 239
-0.525730 -0.850652 0.000000 -0.724042 -0.661695 0.194737 0.402545 0.126030 0 255 252
-0.688189 -0.525736 0.499997 -0.724042 -0.661695 0.194737 0.494658 0.272011 0 255 252
-0.894426 -0.447216 0.000000 -0.724042 -0.661695 0.194737 0.392965 0.267905 0 255 252
-0.525730 -0.850652 0.000000 -0.491119 -0.794657 0.356822 0.402545 0.126030 0 255 252
-0.162456 -0.850654 0.499995 -0.491119 -0.794657 0.356822 0.595876 0.130259 0 255 252
-0.688189 -0.525736 0.499997 -0.491119 -0.794657 0.356822 0.494658 0.272011 0 255 252
-0.162456 -0.850654 0.499995 -0.408946 -0.661699 0.628425 0.595876 0.130259 0 255 252
-0.276388 -0.447220 0.850649 -0.408946 -0.661699 0.628425 0.580789 0.275101 0 255 252
-0.688189 -0.525736 0.499997 -0.408946 -0.661699 0.628425 0.494658 0.272011 0 255 252
-0.162456 -0.850654 -0.499995 -0.408946 -0.661699 -0.628425 0.211057 0.132613 1 255 252
-0.688189 -0.525736 -0.499997 -0.408946 -0.661699 -0.628425 0.305899 0.274364 0 255 252
-0.276388 -0.447220 -0.850649 -0.408946 -0.661699 -0.628425 0.205691 0.279105 32 255 253
-0.162456 -0.850654 -0.499995 -0.491119 -0.794657 -0.356822 0.211057 0.132613 1 255 252
-0.525730 -0.850652 0.000000 -0.491119 -0.794657 -0.356822 0.402545 0.126030 0 255 252
-0.688189 -0.525736 -0.499997 -0.491119 -0.794657 -0.356822 0.305899 0.274364 0 255 252
-0.525730 -0.850652 0.000000 -0.724042 -0.661695 -0.194737 0.402545 0.126030 0 255 252
-0.894426 -0.447216 0.000000 -0.724042 -0.661695 -0.194737 0.392965 0.267905 0 255 252
-0.688189 -0.525736 -0.499997 -0.724042 -0.661695 -0.194737 0.305899 0.274364 0 255 252
0.425323 -0.850654 -0.309011 0.471300 -0.661699 -0.583121 0.029822 0.140912 0 255 252
0.262869 -0.525738 -0.809012 0.471300 -0.661699 -0.583121 0.120108 0.289247 0 255 252
0.723607 -0.447220 -0.525725 0.471300 -0.661699 -0.583121 0.021574 0.293225 0 255 252
0.425323 -0.850654 -0.309011 0.187593 -0.794659 -0.577344 0.029822 0.140912 0 255 252
-0.162456 -0.850654 -0.499995 0.187593 -0.794659 -0.577344 0.211057 0.132613 0 255 252
0.262869 -0.525738 -0.809012 0.187593 -0.794659 -0.577344 0.120108 0.289247 0 255 252
-0.162456 -0.850654 -0.499995 -0.038532 -0.661700 -0.748778 0.211057 0.132613 0 255 252
-0.276388 -0.447220 -0.850649 -0.038532 -0.661700 -0.748778 0.205691 0.279105 0 255 252
0.262869 -0.525738 -0.809012 -0.038532 -0.661700 -0.748778 0.120108 0.289247 0 255 252
0.951058 0.000000 0.309013 0.992077 0.125629 -0.000000 0.854244 0.504054 47 25 255
0.951058 0.000000 -0.309013 0.992077 0.125629 -0.000000 0.946974 0.505509 24 0 255
0.894426 0.447216 0.000000 0.992077 0.125629 -0.000000 0.871035 0.707095 24 0 255
0.951058 0.000000 0.309013 0.982246 -0.187599 0.000000 0.854244 0.504054 255 253 0
0.850648 -0.525736 0.000000 0.982246 -0.187599 0.000000 0.864523 0.296093 255 253 17
0.951058 0.000000 -0.309013 0.982246 -0.187599 0.000000 0.946974 0.505509 255 253 0
0.850648 -0.525736 0.000000 0.904989 -0.330385 -0.268032 0.864523 0.296093 255 253 17
0.723607 -0.447220 -0.525725 0.904989 -0.330385 -0.268032 0.948502 0.293225 255 253 0
0.951058 0.000000 -0.309013 0.904989 -0.330385 -0.268032 0.946974 0.505509 255 253 0
0.000000 0.000000 1.000000 0.306568 0.125630 0.943522 0.668896 0.488271 24 0 255
0.587786 0.000000 0.809017 0.306568 0.125630 0.943522 0.761550 0.497470 24 0 255
0.276388 0.447220 0.850649 0.306568 0.125630 0.943522 0.683761 0.695895 24 0 255
0.000000 0.000000 1.000000 0.303530 -0.187597 0.934172 0.668896 0.488271 255 253 0
0.262869 -0.525738 0.809012 0.303530 -0.187597 0.934172 0.681472 0.285439 255 253 1
0.587786 0.000000 0.809017 0.303530 -0.187597 0.934172 0.761550 0.497470 255 253 0
0.262869 -0.525738 0.809012 0.534577 -0.330387 0.777864 0.681472 0.285439 255 253 1
0.723607 -0.447220 0.525725 0.534577 -0.330387 0.777864 0.765662 0.290750 255 253 19
0.587786 0.000000 0.809017 0.534577 -0.330387 0.777864 0.761550 0.497470 255 253 0
-0.951058 0.000000 0.309013 -0.802609 0.125629 0.583126 0.483510 0.475741 29 5 255
-0.587786 0.000000 0.809017 -0.802609 0.125629 0.583126 0.576228 0.479972 24 0 255
-0.723607 0.447220 0.525725 -0.802609 0.125629 0.583126 0.499644 0.681775 24 0 255
-0.951058 0.000000 0.309013 -0.794656 -0.187596 0.577348 0.483510 0.475741 255 253 0
-0.688189 -0.525736 0.499997 -0.794656 -0.187596 0.577348 0.494658 0.272011 255 253 0
-0.587786 0.000000 0.809017 -0.794656 -0.187596 0.577348 0.576228 0.479972 255 253 0
-0.688189 -0.525736 0.499997 -0.574602 -0.330389 0.748783 0.494658 0.272011 255 253 0
-0.276388 -0.447220 0.850649 -0.574602 -0.330389 0.748783 0.580789 0.275101 255 253 0
-0.587786 0.000000 0.809017 -0.574602 -0.330389 0.748783 0.576228 0.479972 255 253 0
-0.587786 0.000000 -0.809017 -0.802609 0.125629 -0.583126 0.298086 0.483780 24 0 255
-0.951058 0.000000 -0.309013 -0.802609 0.125629 -0.583126 0.390780 0.477196 24 0 255
-0.723607 0.447220 -0.525725 -0.802609 0.125629 -0.583126 0.316804 0.684250 24 0 255
-0.587786 0.000000 -0.809017 -0.794656 -0.187596 -0.577348 0.298086 0.483780 255 253 0
-0.688189 -0.525736 -0.499997 -0.794656 -0.187596 -0.577348 0.305899 0.274364 255 253 0
-0.951058 0.000000 -0.309013 -0.794656 -0.187596 -0.577348 0.390780 0.477196 255 253 0
-0.688189 -0.525736 -0.499997 -0.889697 -0.330386 -0.315095 0.305899 0.274364 255 253 0
-0.894426 -0.447216 0.000000 -0.889697 -0.330386 -0.315095 0.392965 0.267905 255 253 0
-0.951058 0.000000 -0.309013 -0.889697 -0.330386 -0.315095 0.390780 0.477196 255 253 0
0.587786 0.000000 -0.809017 0.306568 0.125630 -0.943522 0.112764 0.501278 27 4 255
0.000000 0.000000 -1.000000 0.306568 0.125630 -0.943522 0.205433 0.492979 55 33 255
0.276388 0.447220 -0.850649 0.306568 0.125630 -0.943522 0.131931 0.699899 24 0 255
0.587786 0.000000 -0.809017 0.303530 -0.187597 -0.934172 0.112764 0.501278 255 253 0
0.262869 -0.525738 -0.809012 0.303530 -0.187597 -0.934172 0.120108 0.289247 255 253 0
0.000000 0.000000 -1.000000 0.303530 -0.187597 -0.934172 0.205433 0.492979 255 254 8
0.262869 -0.525738 -0.809012 0.024745 -0.330386 -0.943521 0.120108 0.289247 255 253 0
-0.276388 -0.447220 -0.850649 0.024745 -0.330386 -0.943521 0.205691 0.279105 255 253 3
0.000000 0.000000 -1.000000 0.024745 -0.330386 -0.943521 0.205433 0.492979 255 254 9
0.587786 0.000000 0.809017 0.574602 0.330389 0.748783 0.761550 0.497470 24 0 255
0.688189 0.525736 0.499997 0.574602 0.330389 0.748783 0.773015 0.706886 24 0 255
0.276388 0.447220 0.850649 0.574602 0.330389 0.748783 0.683761 0.695895 24 0 255
0.587786 0.000000 0.809017 0.794656 0.187596 0.577348 0.761550 0.497470 24 0 255
0.951058 0.000000 0.309013 0.794656 0.187596 0.577348 0.854244 0.504054 64 43 255
0.688189 0.525736 0.499997 0.794656 0.187596 0.577348 0.773015 0.706886 24 0 255
0.951058 0.000000 0.309013 0.889697 0.330386 0.315095 0.854244 0.504054 64 43 255
0.894426 0.447216 0.000000 0.889697 0.330386 0.315095 0.871035 0.707095 24 0 255
0.688189 0.525736 0.499997 0.889697 0.330386 0.315095 0.773015 0.706886 24 0 255
-0.587786 0.000000 0.809017 -0.534577 0.330387 0.777864 0.576228 0.479972 24 0 255
-0.262869 0.525738 0.809012 -0.534577 0.330387 0.777864 0.587223 0.692003 13 0 255
-0.723607 0.447220 0.525725 -0.534577 0.330387 0.777864 0.499644 0.681775 24 0 255
-0.587786 0.000000 0.809017 -0.303530 0.187597 0.934172 0.576228 0.479972 24 0 255
0.000000 0.000000 1.000000 -0.303530 0.187597 0.934172 0.668896 0.488271 24 0 255
-0.262869 0.525738 0.809012 -0.303530 0.187597 0.934172 0.587223 0.692003 13 0 255
0.000000 0.000000 1.000000 -0.024745 0.330386 0.943521 0.668896 0.488271 24 0 255
0.276388 0.447220 0.850649 -0.024745 0.330386 0.943521 0.683761 0.695895 24 0 255
-0.262869 0.525738 0.809012 -0.024745 0.330386 0.943521 0.587223 0.692003 13 0 255
-0.951058 0.000000 -0.309013 -0.904989 0.330385 -0.268032 0.390780 0.477196 24 0 255
-0.850648 0.525736 0.000000 -0.904989 0.330385 -0.268032 0.404711 0.685157 24 0 255
-0.723607 0.447220 -0.525725 -0.904989 0.330385 -0.268032 0.316804 0.684250 24 0 255
-0.951058 0.000000 -0.309013 -0.982246 0.187599 0.000000 0.390780 0.477196 24 0 255
-0.951058 0.000000 0.309013 -0.982246 0.187599 0.000000 0.483510 0.475741 29 5 255
-0.850648 0.525736 0.000000 -0.982246 0.187599 0.000000 0.404711 0.685157 24 0 255
-0.951058 0.000000 0.309013 -0.904989 0.330385 0.268032 0.483510 0.475741 29 5 255
-0.723607 0.447220 0.525725 -0.904989 0.330385 0.268032 0.499644 0.681775 24 0 255
-0.850648 0.525736 0.000000 -0.904989 0.330385 0.268032 0.404711 0.685157 24 0 255
0.000000 0.000000 -1.000000 -0.024745 0.330386 -0.943521 0.205433 0.492979 55 33 255
-0.262869 0.525738 -0.809012 -0.024745 0.330386 -0.943521 0.221659 0.695811 24 0 255
0.276388 0.447220 -0.850649 -0.024745 0.330386 -0.943521 0.131931 0.699899 24 0 255
0.000000 0.000000 -1.000000 -0.303530 0.187597 -0.934172 0.205433 0.492979 55 33 255
-0.587786 0.000000 -0.809017 -0.303530 0.187597 -0.934172 0.298086 0.483780 24 0 255
-0.262869 0.525738 -0.809012 -0.303530 0.187597 -0.934172 0.221659 0.695811 24 0 255
-0.587786 0.000000 -0.809017 -0.534577 0.330387 -0.777864 0.298086 0.483780 24 0 255
-0.723607 0.447220 -0.525725 -0.534577 0.330387 -0.777864 0.316804 0.684250 24 0 255
-0.262869 0.525738 -0.809012 -0.534577 0.330387 -0.777864 0.221659 0.695811 24 0 255
0.951058 0.000000 -0.309013 0.889697 0.330386 -0.315095 0.946974 0.505509 24 0 255
0.688189 0.525736 -0.499997 0.889697 0.330386 -0.315095 0.961774 0.709239 24 0 255
0.894426 0.447216 0.000000 0.889697 0.330386 -0.315095 0.871035 0.707095 24 0 255
0.951058 0.000000 -0.309013 0.794656 0.187596 -0.577348 0.020046 0.505509 24 0 255
0.587786 0.000000 -0.809017 0.794656 0.187596 -0.577348 0.112764 0.501278 27 4 255
0.688189 0.525736 -0.499997 0.794656 0.187596 -0.577348 0.034846 0.709239 24 0 255
0.587786 0.000000 -0.809017 0.574602 0.330389 -0.748783 0.112764 0.501278 27 4 255
0.276388 0.447220 -0.850649 0.574602 0.330389 -0.748783 0.131931 0.699899 24 0 255
0.688189 0.525736 -0.499997 0.574602 0.330389 -0.748783 0.034846 0.709239 24 0 255
0.162456 0.850654 0.499995 0.268034 0.943523 0.194737 0.680771 0.858012 255 10 21
0.525730 0.850652 0.000000 0.268034 0.943523 0.194737 0.869134 0.852095 255 0 11
0.000000 1.000000 0.000000 0.268034 0.943523 0.194737 0.492524 0.979832 255 0 11
0.162456 0.850654 0.499995 0.491119 0.794657 0.356822 0.680771 0.858012 39 255 5
0.688189 0.525736 0.499997 0.491119 0.794657 0.356822 0.773015 0.706886 35 255 0
0.525730 0.850652 0.000000 0.491119 0.794657 0.356822 0.869134 0.852095 35 255 0
0.688189 0.525736 0.499997 0.724042 0.661695 0.194737 0.773015 0.706886 35 255 0
0.894426 0.447216 0.000000 0.724042 0.661695 0.194737 0.871035 0.707095 35 255 0
0.525730 0.850652 0.000000 0.724042 0.661695 0.194737 0.869134 0.852095 35 255 0
-0.425323 0.850654 0.309011 -0.102381 0.943523 0.315091 0.499536 0.859088 255 1 12
0.162456 0.850654 0.499995 -0.102381 0.943523 0.315091 0.680771 0.858012 255 10 21
0.000000 1.000000 0.000000 -0.102381 0.943523 0.315091 0.492524 0.979832 255 0 11
-0.425323 0.850654 0.309011 -0.187593 0.794659 0.577344 0.499536 0.859088 35 255 0
-0.262869 0.525738 0.809012 -0.187593 0.794659 0.577344 0.587223 0.692003 35 255 0
0.162456 0.850654 0.499995 -0.187593 0.794659 0.577344 0.680771 0.858012 35 255 0
-0.262869 0.525738 0.809012 0.038532 0.661700 0.748778 0.587223 0.692003 35 255 0
0.276388 0.447220 0.850649 0.038532 0.661700 0.748778 0.683761 0.695895 35 255 0
0.162456 0.850654 0.499995 0.038532 0.661700 0.748778 0.680771 0.858012 35 255 0
-0.425323 0.850654 -0.309011 -0.331305 0.943524 0.000000 0.325432 0.860542 255 0 11
-0.425323 0.850654 0.309011 -0.331305 0.943524 0.000000 0.499536 0.859088 255 1 12
0.000000 1.000000 0.000000 -0.331305 0.943524 0.000000 0.492524 0.979832 255 0 11
-0.425323 0.850654 -0.309011 -0.607060 0.794656 0.000000 0.325432 0.860542 35 255 0
-0.850648 0.525736 0.000000 -0.607060 0.794656 0.000000 0.404711 0.685157 35 255 0
-0.425323 0.850654 0.309011 -0.607060 0.794656 0.000000 0.499536 0.859088 35 255 0
-0.850648 0.525736 0.000000 -0.700224 0.661699 0.268032 0.404711 0.685157 35 255 0
-0.723607 0.447220 0.525725 -0.700224 0.661699 0.268032 0.499644 0.681775 86 255 60
-0.425323 0.850654 0.309011 -0.700224 0.661699 0.268032 0.499536 0.859088 35 255 0
0.162456 0.850654 -0.499995 -0.102381 0.943523 -0.315091 0.129287 0.857241 255 39 49
-0.425323 0.850654 -0.309011 -0.102381 0.943523 -0.315091 0.325432 0.860542 255 0 11
0.000000 1.000000 0.000000 -0.102381 0.943523 -0.315091 0.492524 0.979832 255 0 11
0.162456 0.850654 -0.499995 -0.187593 0.794659 -0.577344 0.129287 0.857241 35 255 1
-0.262869 0.525738 -0.809012 -0.187593 0.794659 -0.577344 0.221659 0.695811 35 255 0
-0.425323 0.850654 -0.309011 -0.187593 0.794659 -0.577344 0.325432 0.860542 35 255 0
-0.262869 0.525738 -0.809012 -0.471300 0.661699 -0.583121 0.221659 0.695811 35 255 0
-0.723607 0.447220 -0.525725 -0.471300 0.661699 -0.583121 0.316804 0.684250 35 255 0
-0.425323 0.850654 -0.309011 -0.471300 0.661699 -0.583121 0.325432 0.860542 35 255 0
0.525730 0.850652 0.000000 0.268034 0.943523 -0.194737 0.869134 0.852095 255 0 11
0.162456 0.850654 -0.499995 0.268034 0.943523 -0.194737 0.972758 0.857241 255 39 49
0.000000 1.000000 0.000000 0.268034 0.943523 -0.194737 0.492524 0.979832 255 0 11
0.525730 0.850652 0.000000 0.491119 0.794657 -0.356822 0.869134 0.852095 35 255 0
0.688189 0.525736 -0.499997 0.491119 0.794657 -0.356822 0.961774 0.709239 35 255 0
0.162456 0.850654 -0.499995 0.491119 0.794657 -0.356822 0.972758 0.857241 35 255 1
0.688189 0.525736 -0.499997 0.408946 0.661699 -0.628425 0.034846 0.709239 35 255 0
0.276388 0.447220 -0.850649 0.408946 0.661699 -0.628425 0.131931 0.699899 36 255 2
0.162456 0.850654 -0.499995 0.408946 0.661699 -0.628425 0.129287 0.857241 35 255 1
3 0 1 2
3 3 4 5
3 6 7 8
3 9 10 11
3 12 13 14
3 15 16 17
3 18 19 20
3 21 22 23
3 24 25 26
3 27 28 29
3 30 31 32
3 33 34 35
3 36 37 38
3 39 40 41
3 42 43 44
3 45 46 47
3 48 49 50
3 51 52 53
3 54 55 56
3 57 58 59
3 60 61 62
3 63 64 65
3 66 67 68
3 69 70 71
3 72 73 74
3 75 76 77
3 78 79 80
3 81 82 83
3 84 85 86
3 87 88 89
3 90 91 92
3 93 94 95
3 96 97 98
3 99 100 101
3 102 103 104
3 105 106 107
3 108 109 110
3 111 112 113
3 114 115 116
3 117 118 119
3 120 121 122
3 123 124 125
3 126 127 128
3 129 130 131
3 132 133 134
3 135 136 137
3 138 139 140
3 141 142 143
3 144 145 146
3 147 148 149
3 150 151 152
3 153 154 155
3 156 157 158
3 159 160 161
3 162 163 164
3 165 166 167
3 168 169 170
3 171 172 173
3 174 175 176
3 177 178 179
3 180 181 182
3 183 184 185
3 186 187 188
3 189 190 191
3 192 193 194
3 195 196 197
3 198 199 200
3 201 202 203
3 204 205 206
3 207 208 209
3 210 211 212
3 213 214 215
3 216 217 218
3 219 220 221
3 222 223 224
3 225 226 227
3 228 229 230
3 231 232 233
3 234 235 236
3 237 238 239
