# Blender v2.69 (sub 0) OBJ File: ''
# www.blender.org
o Cube
v 1.000000 -1.000000 -1.000000
v 1.000000 -1.000000 1.000000
v -1.000000 -1.000000 1.000000
v -1.000000 -1.000000 -1.000000
v 1.000000 1.000000 -0.999999
v 0.999999 1.000000 1.000001
v -1.000000 1.000000 1.000000
v -1.000000 1.000000 -1.000000
v 1.000000 1.000000 -0.999999
v 0.999999 1.000000 1.000001
v -1.000000 1.000000 1.000000
v -1.000000 1.000000 -1.000000
v 2.745428 1.139440 -2.745425
v 2.745425 1.139440 2.745428
v -2.745428 1.139440 2.745425
v -2.745426 1.139440 -2.745427
v 0.051222 6.081449 -0.051221
v 0.051222 6.081449 0.051222
v -0.051222 6.081449 0.051222
v -0.051222 6.081449 -0.051221
vn 0.000000 -1.000000 0.000000
vn 0.000000 0.000000 1.000000
vn 1.000000 0.000000 0.000000
vn -1.000000 -0.000000 -0.000000
vn 0.000000 0.000000 -1.000000
vn -0.079635 -0.996824 -0.000000
vn -0.878003 0.478655 -0.000000
vn -0.000000 -0.996824 0.079635
vn 0.000000 -0.996824 -0.079635
vn 0.079635 -0.996824 0.000000
vn 0.000000 1.000000 0.000000
vn -0.000000 0.478655 0.878003
vn 0.000000 0.478655 -0.878003
vn 0.878003 0.478655 0.000000
s off
f 1//1 2//1 3//1 4//1
f 8//2 7//2 11//2 12//2
f 1//3 5//3 6//3 2//3
f 2//2 6//2 7//2 3//2
f 3//4 7//4 8//4 4//4
f 5//5 1//5 4//5 8//5
f 12//6 11//6 15//6 16//6
f 7//2 6//2 10//2 11//2
f 5//2 8//2 12//2 9//2
f 6//2 5//2 9//2 10//2
f 16//7 15//7 19//7 20//7
f 11//8 10//8 14//8 15//8
f 9//9 12//9 16//9 13//9
f 10//10 9//10 13//10 14//10
f 17//11 20//11 19//11 18//11
f 15//12 14//12 18//12 19//12
f 13//13 16//13 20//13 17//13
f 14//14 13//14 17//14 18//14
