# Blender v2.69 (sub 0) OBJ File: 'builder.blend'
# www.blender.org
o guitar2_Cube.010
v -1.000000 -3.813586 1.000000
v -1.000000 -3.813586 -1.000000
v 1.000000 -3.813586 -1.000000
v 1.000000 -3.813586 1.000000
v -1.000000 0.377815 1.000000
v -1.000000 0.377815 -1.000000
v 1.000000 0.377815 -1.000000
v 1.000000 0.377815 1.000000
v 1.847759 3.312077 1.008523
v 2.000000 2.875110 1.008523
v 1.847760 2.438143 1.008523
v 1.439124 2.088984 1.008523
v 1.847759 3.312077 -0.991232
v 2.000000 2.875110 -0.991232
v 1.847759 2.438143 -0.991232
v 1.414214 3.682519 1.008523
v 1.439124 2.088984 -0.991232
v 1.414213 3.682519 -0.991232
v 0.765367 3.930041 1.008523
v 0.765367 3.930041 -0.991232
v -0.000000 4.016959 1.008523
v -0.000000 4.016959 -0.991232
v -0.765367 3.930041 1.008523
v -0.765367 3.930041 -0.991232
v -1.414214 3.682519 1.008523
v -1.414214 3.682519 -0.991232
v -1.847759 3.312076 1.008523
v -1.847759 3.312076 -0.991232
v -2.000000 2.875110 1.008523
v -2.000000 2.875110 -0.991232
v -1.847759 2.438143 1.008523
v -1.847759 2.438143 -0.991232
v -1.439123 2.088984 -0.991232
v -1.439123 2.088984 1.008523
v 1.847759 1.739826 1.008523
v 2.000000 1.302860 1.008523
v 1.847760 0.865893 1.008523
v 1.414214 0.495450 1.008523
v 1.847759 1.739826 -0.991232
v 2.000000 1.302860 -0.991232
v 1.847760 0.865893 -0.991232
v 1.414214 0.495450 -0.991232
v 0.765368 0.247928 1.008523
v 0.765368 0.247928 -0.991232
v -0.765367 0.247928 -0.991232
v -0.765367 0.247928 1.008523
v -1.414214 0.495450 -0.991232
v -1.414214 0.495450 1.008523
v -1.847759 0.865893 -0.991232
v -1.847759 0.865893 1.008523
v -1.847759 1.739826 -0.991232
v -2.000000 1.302859 -0.991232
v -2.000000 1.302859 1.008523
v -1.847759 1.739826 1.008523
vt 1.000000 0.996043
vt 0.800000 0.996043
vt 0.800000 0.576903
vt 0.600000 0.996043
vt 0.400000 0.996043
vt 0.400000 0.576903
vt 0.400000 0.376903
vt 0.819140 0.376903
vt 0.600000 0.576903
vt 0.599975 0.369552
vt 0.599975 0.169552
vt 0.799975 0.169552
vt 1.000000 0.576903
vt 0.400000 0.108239
vt 0.599975 0.184776
vt 0.599975 0.108239
vt 0.906533 0.576903
vt 0.941449 0.376928
vt 0.906533 0.376928
vt 0.400000 0.000000
vt 0.400000 0.043355
vt 0.599975 0.000000
vt 0.356303 0.753806
vt 0.312607 0.953782
vt 0.356303 0.953782
vt 0.400000 0.326197
vt 0.599975 0.326197
vt 0.400000 0.184776
vt 0.400000 0.261313
vt 0.862837 0.576903
vt 0.599975 0.043355
vt 0.819140 0.576903
vt 0.862837 0.376928
vt 0.819140 0.376928
vt 0.312607 0.753806
vt 0.259205 0.953782
vt 0.400000 0.753806
vt 0.400000 0.953782
vt 0.599975 0.261313
vt 0.799951 0.037044
vt 0.799951 0.000000
vt 0.087393 0.953782
vt 0.128257 0.753806
vt 0.087393 0.753806
vt 0.856633 0.369552
vt 0.924266 0.169576
vt 0.856633 0.169576
vt 0.043697 0.753806
vt 0.000000 0.953782
vt 0.043697 0.953782
vt 0.259205 0.753806
vt 0.218341 0.953782
vt 0.599975 0.037044
vt 0.599975 0.080741
vt 0.128257 0.953782
vt 0.168210 0.753806
vt 0.799951 0.124438
vt 0.799951 0.080741
vt 0.799975 0.369552
vt 0.799975 0.169576
vt 0.276537 0.745114
vt 0.343912 0.561009
vt 0.200000 0.753806
vt 0.056088 0.561009
vt 0.123463 0.745114
vt 0.341421 0.401655
vt 0.276537 0.376903
vt 0.015224 0.683318
vt 0.015224 0.595925
vt 0.384776 0.683318
vt 0.341421 0.720362
vt 0.123463 0.376903
vt 0.058579 0.401655
vt 0.384776 0.438700
vt 0.384776 0.526093
vt 0.058579 0.720362
vt 0.015224 0.438700
vt 0.000000 0.639621
vt 0.941449 0.576903
vt 0.400000 0.369552
vt 0.015224 0.306415
vt 0.056088 0.184106
vt 0.015224 0.219022
vt 0.276537 0.368211
vt 0.343912 0.184106
vt 0.200000 0.376903
vt 0.123463 0.368211
vt 0.123463 0.000000
vt 0.058579 0.024752
vt 0.384776 0.061796
vt 0.384776 0.149190
vt 0.276537 0.000000
vt 0.341421 0.024752
vt 0.384776 0.306415
vt 0.341421 0.343459
vt 0.058579 0.343459
vt 0.015224 0.061797
vt 0.384776 0.219021
vt 0.400000 0.262718
vt 0.384776 0.595925
vt 0.400000 0.482396
vt 0.015224 0.526093
vt 0.000000 0.482396
vt 0.924266 0.369552
vt 0.000000 0.753806
vt 0.218341 0.753806
vt 0.168210 0.953782
vt 0.599975 0.124438
vt 0.400000 0.639621
vt 0.015224 0.149190
vt 0.000000 0.105493
vt 0.400000 0.105493
vt 0.000000 0.262718
vn -1.000000 0.000000 0.000000
vn 0.000000 0.000000 -1.000000
vn 1.000000 0.000000 0.000000
vn 0.000000 0.000000 1.000000
vn 0.000000 -1.000000 0.000000
vn 0.112839 0.993613 0.000000
vn 0.649610 -0.760267 -0.000000
vn 0.649610 0.760268 -0.000000
vn -0.944327 -0.329007 0.000000
vn -0.649611 0.760267 0.000000
vn -0.112839 0.993613 0.000000
vn 0.944327 -0.329007 0.000000
vn 0.356425 0.934324 0.000000
vn 0.944327 0.329007 -0.000000
vn -0.649610 -0.760268 0.000000
vn -0.944328 0.329007 0.000000
vn -0.356425 0.934324 0.000000
vn -0.356426 -0.934324 0.000000
vn -0.649610 0.760268 0.000000
vn 0.356426 -0.934324 -0.000000
vn 0.944327 0.329009 -0.000000
vn -0.944327 0.329007 0.000000
vn 0.649611 -0.760267 0.000000
vn -0.649610 -0.760267 0.000000
vn -0.944328 -0.329007 0.000000
vn -0.649610 0.760267 0.000000
vn 0.944328 -0.329007 -0.000000
vn -0.649611 -0.760267 0.000000
vn -0.944327 0.329008 0.000000
vn 0.944327 -0.329008 -0.000000
vn 0.649610 0.760267 0.000000
vn -0.000001 0.000000 -1.000000
s off
f 5/1/1 6/2/1 2/3/1
f 6/4/2 7/5/2 3/6/2
f 7/6/3 8/7/3 4/8/3
f 8/2/4 5/4/4 1/9/4
f 1/10/5 2/11/5 3/12/5
f 1/13/1 5/1/1 2/3/1
f 20/14/6 21/15/6 19/16/6
f 11/17/7 17/18/7 15/19/7
f 13/20/8 18/21/8 9/22/8
f 30/23/9 31/24/9 29/25/9
f 26/26/10 27/10/10 25/27/10
f 22/28/11 24/29/11 21/15/11
f 15/19/12 10/30/12 11/17/12
f 18/21/13 19/16/13 16/31/13
f 9/32/14 14/33/14 13/34/14
f 32/35/15 34/36/15 31/24/15
f 28/37/16 29/25/16 27/38/16
f 24/29/17 26/26/17 23/39/17
f 42/22/7 37/40/7 38/41/7
f 39/42/8 12/43/8 35/44/8
f 3/32/3 7/6/3 4/8/3
f 47/45/18 46/46/18 48/47/18
f 52/48/9 50/49/9 53/50/9
f 54/51/19 33/52/19 51/36/19
f 41/53/12 40/54/12 37/40/12
f 44/55/20 38/56/20 43/43/20
f 40/54/21 35/57/21 36/58/21
f 2/9/2 6/4/2 3/6/2
f 49/59/15 47/45/15 50/60/15
f 51/44/22 53/50/22 54/42/22
f 4/3/4 8/2/4 1/9/4
f 4/59/5 1/10/5 3/12/5
f 23/61/4 34/62/4 21/63/4
f 34/62/4 12/64/4 21/63/4
f 21/63/4 12/64/4 19/65/4
f 34/62/4 48/66/4 46/67/4
f 9/68/4 12/64/4 11/69/4
f 27/70/4 34/62/4 25/71/4
f 12/64/4 34/62/4 43/72/4
f 43/72/4 38/73/4 12/64/4
f 43/72/4 34/62/4 46/67/4
f 23/61/4 25/71/4 34/62/4
f 50/74/4 34/62/4 54/75/4
f 19/65/4 12/64/4 16/76/4
f 37/77/4 12/64/4 38/73/4
f 16/76/4 12/64/4 9/68/4
f 11/69/4 10/78/4 9/68/4
f 22/28/6 21/15/6 20/14/6
f 12/79/23 17/18/23 11/17/23
f 50/60/24 47/45/24 48/47/24
f 32/35/25 31/24/25 30/23/25
f 28/80/26 27/10/26 26/26/26
f 14/33/27 10/30/27 15/19/27
f 20/14/13 19/16/13 18/21/13
f 10/30/14 14/33/14 9/32/14
f 33/51/28 34/36/28 32/35/28
f 30/23/29 29/25/29 28/37/29
f 37/40/30 40/54/30 36/58/30
f 28/81/2 33/82/2 32/83/2
f 20/84/2 17/85/2 22/86/2
f 24/87/2 22/86/2 33/82/2
f 22/86/2 17/85/2 33/82/2
f 33/82/2 45/88/2 47/89/2
f 41/90/2 17/85/2 39/91/2
f 45/88/2 33/82/2 17/85/2
f 17/85/2 44/92/2 45/88/2
f 17/85/2 42/93/2 44/92/2
f 13/94/2 17/85/2 18/95/2
f 26/96/2 24/87/2 33/82/2
f 49/97/2 33/82/2 47/89/2
f 20/84/2 18/95/2 17/85/2
f 15/98/2 17/85/2 13/94/2
f 13/94/2 14/99/2 15/98/2
f 26/96/2 33/82/2 28/81/2
f 31/100/4 34/62/4 27/70/4
f 48/66/4 34/62/4 50/74/4
f 54/75/4 53/101/4 50/74/4
f 35/102/4 12/64/4 37/77/4
f 37/77/4 36/103/4 35/102/4
f 41/53/23 37/40/23 42/22/23
f 17/55/31 12/43/31 39/42/31
f 45/104/18 46/46/18 47/45/18
f 49/105/25 50/49/25 52/48/25
f 34/106/26 33/52/26 54/51/26
f 9/22/8 18/21/8 16/31/8
f 42/107/20 38/56/20 44/55/20
f 39/108/14 35/57/14 40/54/14
f 21/15/11 24/29/11 23/39/11
f 52/48/29 53/50/29 51/44/29
f 27/70/4 29/109/4 31/100/4
f 51/110/32 33/82/32 49/97/32
f 51/110/2 49/97/2 52/111/2
f 42/93/2 17/85/2 41/90/2
f 39/91/2 40/112/2 41/90/2
f 23/39/17 26/26/17 25/27/17
f 32/83/2 30/113/2 28/81/2
