# Blender v2.69 (sub 0) OBJ File: 'builder.blend'
# www.blender.org
o donut2_Circle.005
v -0.757098 1.969384 -0.995156
v -0.699468 2.259113 -0.995157
v -0.699468 2.259113 0.995282
v -0.757098 1.969384 0.995282
v -0.553655 2.477337 0.995282
v -0.553655 2.477337 -0.995157
v -0.535349 2.504733 -0.995157
v -0.535349 2.504733 0.995282
v -0.705895 1.711970 -0.995156
v -0.705895 1.711970 0.995282
v -0.699468 1.679655 0.995282
v -0.699468 1.679655 -0.995156
v -0.289729 2.668851 -0.995157
v -0.289729 2.668851 0.995282
v -0.535349 1.434034 -0.995156
v -0.535349 1.434035 0.995282
v 0.000000 2.726482 -0.995157
v 0.000000 2.726482 0.995282
v -0.289729 1.269916 -0.995156
v -0.289729 1.269916 0.995282
v 0.289729 2.668851 -0.995157
v 0.289729 2.668852 0.995282
v -0.000000 1.212286 -0.995156
v -0.000000 1.212286 0.995282
v 0.535349 2.504733 -0.995157
v 0.535349 2.504733 0.995282
v 0.289729 1.269916 -0.995156
v 0.289729 1.269916 0.995282
v 0.699468 2.259113 -0.995157
v 0.699468 2.259113 0.995282
v 0.535349 1.434034 -0.995156
v 0.535349 1.434034 0.995282
v 0.705896 2.226797 -0.995157
v 0.757098 1.969384 -0.995156
v 0.757098 1.969384 0.995282
v 0.705896 2.226797 0.995282
v 0.553654 1.461430 0.995282
v 0.699468 1.679655 0.995282
v 0.699468 1.679655 -0.995156
v 0.553654 1.461430 -0.995156
v -0.765367 3.817143 0.995282
v 0.765366 3.817143 0.995282
v 0.000000 3.969384 0.995282
v 1.414213 3.383598 0.995282
v 0.000000 3.969384 -0.995157
v -0.765367 3.817143 -0.995157
v 0.765366 3.817143 -0.995157
v -1.414214 3.383597 0.995282
v 1.414213 3.383598 -0.995157
v -1.414214 3.383597 -0.995157
v 1.847759 2.734751 0.995282
v 1.847759 2.734751 -0.995157
v -1.847759 2.734751 -0.995157
v -1.847759 2.734751 0.995282
v 2.000000 1.969384 -0.995156
v 2.000000 1.969384 0.995282
v -2.000000 1.969384 -0.995156
v -2.000000 1.969384 0.995282
v 1.847759 1.204017 -0.995156
v 1.847759 1.204017 0.995282
v -1.847759 1.204017 -0.995156
v -1.847759 1.204017 0.995282
v 1.414213 0.555170 -0.995156
v 1.414213 0.555170 0.995282
v -1.414214 0.555170 -0.995156
v -1.414214 0.555170 0.995282
v 0.765366 0.121625 -0.995156
v 0.765366 0.121625 0.995283
v -0.765367 0.121625 -0.995156
v -0.765367 0.121625 0.995283
v -1.000000 -3.860563 1.000000
v -1.000000 -3.860563 -1.000000
v 1.000000 -3.860563 -1.000000
v 1.000000 -3.860563 1.000000
v -1.000000 0.310364 1.000000
v -1.000000 0.310364 -1.000000
v 1.000000 0.310364 -1.000000
v 1.000000 0.310364 1.000000
vt 0.274823 1.052786
vt 0.274823 1.081284
vt 0.077634 1.081284
vt 0.967037 0.000000
vt 0.967037 0.024333
vt 0.769848 0.024333
vt 0.967037 0.081739
vt 0.967037 0.106072
vt 0.769848 0.106072
vt 0.668712 1.067670
vt 0.471523 1.070891
vt 0.471523 1.067670
vt 0.668712 1.070891
vt 0.471523 1.042015
vt 0.668712 1.042015
vt 0.668712 0.989734
vt 0.668712 0.992386
vt 0.471523 0.992386
vt 0.668712 1.013517
vt 0.471523 1.013517
vt 0.254439 0.585847
vt 0.225174 0.585847
vt 0.225174 0.388658
vt 0.302170 0.585847
vt 0.281476 0.585847
vt 0.281476 0.388658
vt 0.077634 1.027130
vt 0.274823 1.023910
vt 0.274823 1.027130
vt 0.077634 1.023910
vt 0.077634 1.052786
vt 0.967037 0.053036
vt 0.769848 0.053036
vt 0.077634 1.105067
vt 0.077634 1.102414
vt 0.274823 1.102414
vt 0.668712 1.095748
vt 0.471523 1.095748
vt 0.769848 0.081739
vt 0.198136 0.585847
vt 0.198136 0.388658
vt 0.254439 0.388658
vt 0.077634 0.999053
vt 0.274823 0.999053
vt 0.155675 0.388658
vt 0.304408 0.359073
vt 0.232983 0.388658
vt 0.359073 0.304408
vt 0.084250 0.359073
vt 0.388658 0.232984
vt 0.029585 0.304408
vt 0.235999 0.256693
vt 0.256693 0.235999
vt 0.208962 0.267892
vt 0.179696 0.267892
vt 0.152659 0.256693
vt 0.267892 0.208962
vt 0.150351 0.254385
vt 0.267892 0.205698
vt 0.388658 0.155675
vt 0.267892 0.179696
vt 0.131965 0.235999
vt 0.000000 0.232984
vt 0.120766 0.208962
vt 0.120766 0.182961
vt 0.256693 0.152659
vt 0.238307 0.134273
vt 0.359073 0.084250
vt 0.152659 0.131965
vt 0.131965 0.152659
vt 0.000000 0.155675
vt 0.179696 0.120766
vt 0.208962 0.120766
vt 0.235999 0.131965
vt 0.120766 0.179696
vt 0.029585 0.084250
vt 0.304408 0.029585
vt 0.084250 0.029585
vt 0.232983 0.000000
vt 0.530602 0.792545
vt 0.605886 0.792545
vt 0.605886 0.989734
vt 0.054666 0.999053
vt 0.000000 0.999053
vt 0.000000 0.801864
vt 0.203399 0.999053
vt 0.274823 0.801864
vt 0.769848 0.330609
vt 0.769848 0.254329
vt 0.967037 0.254329
vt 0.769848 0.179045
vt 0.769848 0.116218
vt 0.967037 0.116218
vt 0.366450 0.585847
vt 0.302170 0.783036
vt 0.454321 0.792545
vt 0.530602 0.989734
vt 0.126090 0.999053
vt 0.054666 0.801864
vt 0.668712 0.792545
vt 0.769848 0.396272
vt 0.967037 0.330609
vt 0.126090 0.801864
vt 0.324378 0.388658
vt 0.388658 0.388658
vt 0.388658 0.585847
vt 0.388658 0.792545
vt 0.454321 0.989734
vt 0.403740 0.122313
vt 0.403740 0.273960
vt 0.388658 0.198136
vt 0.446691 0.058033
vt 0.446691 0.338240
vt 0.510971 0.015082
vt 0.510971 0.381190
vt 0.511790 0.198136
vt 0.517499 0.226839
vt 0.517499 0.169433
vt 0.533758 0.145100
vt 0.533758 0.251172
vt 0.558091 0.128841
vt 0.536472 0.252986
vt 0.586794 0.000000
vt 0.561293 0.128204
vt 0.586794 0.123132
vt 0.558091 0.267431
vt 0.586794 0.273140
vt 0.586794 0.396272
vt 0.612296 0.268068
vt 0.637116 0.143287
vt 0.615497 0.128841
vt 0.662618 0.015082
vt 0.661798 0.198136
vt 0.656089 0.169433
vt 0.662618 0.381190
vt 0.656089 0.226839
vt 0.639830 0.251172
vt 0.639830 0.145100
vt 0.615497 0.267431
vt 0.726898 0.338240
vt 0.726898 0.058033
vt 0.769848 0.273960
vt 0.769848 0.122313
vt 1.000000 0.809253
vt 0.801864 0.809253
vt 0.801864 0.396272
vt 0.198136 0.801864
vt 0.000000 0.388658
vt 0.801638 0.594409
vt 0.801638 0.792545
vt 0.388658 0.594408
vt 0.388658 0.396272
vt 1.000000 1.007389
vt 0.801864 1.007389
vt 0.769848 0.000000
vt 0.471523 0.989734
vt 0.302170 0.388658
vt 0.274823 1.105067
vt 0.967037 0.179045
vt 0.203399 0.801864
vt 0.967037 0.396272
vt 0.366450 0.783036
vt 0.324378 0.585847
vt 0.388658 0.989734
vt 1.000000 0.396272
vt 0.388658 0.594409
vt 0.801864 0.594408
vn 0.980785 -0.195091 0.000000
vn -0.555570 -0.831470 0.000000
vn 0.555570 -0.831470 0.000000
vn -0.980785 -0.195090 0.000000
vn -0.831469 0.555572 -0.000000
vn -0.831470 0.555570 -0.000000
vn -0.195090 0.980785 -0.000000
vn 0.555570 0.831470 0.000000
vn 0.980786 0.195088 0.000000
vn 0.980785 0.195091 -0.000000
vn -0.195090 -0.980785 0.000000
vn 0.831471 -0.555568 0.000000
vn 0.831470 -0.555570 0.000000
vn -0.831469 -0.555571 0.000000
vn 0.195091 -0.980785 0.000000
vn -0.980785 0.195090 -0.000000
vn -0.555570 0.831470 -0.000000
vn 0.195091 0.980785 0.000000
vn 0.831470 0.555570 0.000000
vn 0.000000 0.000000 1.000000
vn 0.000000 0.000001 1.000000
vn -0.980785 0.195091 0.000000
vn -0.555570 0.831469 0.000000
vn 0.195090 0.980785 0.000000
vn 0.831469 0.555570 0.000000
vn -0.195091 0.980785 -0.000000
vn 0.980785 -0.195090 0.000000
vn -0.831469 -0.555570 0.000000
vn -0.000000 0.000000 -1.000000
vn -1.000000 0.000000 0.000000
vn 1.000000 0.000000 0.000000
vn 0.000000 -1.000000 0.000000
vn -0.555569 -0.831470 0.000000
vn -0.980785 -0.195091 0.000000
vn 0.831473 -0.555566 0.000000
vn 0.195090 -0.980785 0.000000
vn 0.831469 0.555571 -0.000000
vn 0.831469 -0.555571 0.000000
vn 0.831469 -0.555570 0.000000
vn 0.195090 0.980785 -0.000001
vn -0.831470 -0.555570 0.000000
s off
f 1/1/1 2/2/1 3/3/1
f 26/4/2 22/5/2 21/6/2
f 14/7/3 8/8/3 7/9/3
f 36/10/4 29/11/4 33/12/4
f 36/10/4 30/13/4 29/11/4
f 33/12/4 34/14/4 35/15/4
f 32/16/5 37/17/5 40/18/5
f 37/17/6 38/19/6 39/20/6
f 24/21/7 28/22/7 27/23/7
f 16/24/8 20/25/8 19/26/8
f 10/27/9 12/28/9 9/29/9
f 10/27/10 11/30/10 12/28/10
f 9/29/10 1/1/10 4/31/10
f 22/5/11 18/32/11 17/33/11
f 8/34/12 5/35/12 6/36/12
f 5/35/13 3/3/13 6/36/13
f 30/13/14 26/37/14 25/38/14
f 18/32/15 14/7/15 13/39/15
f 38/19/16 35/15/16 34/14/16
f 28/22/17 32/40/17 31/41/17
f 20/25/18 24/21/18 23/42/18
f 11/30/19 16/43/19 15/44/19
f 41/45/20 42/46/20 43/47/20
f 41/45/21 44/48/21 42/46/21
f 41/45/21 48/49/21 44/48/21
f 44/48/20 48/49/20 51/50/20
f 51/50/20 48/49/20 54/51/20
f 51/50/20 22/52/20 26/53/20
f 51/50/20 18/54/20 22/52/20
f 51/50/20 54/51/20 18/54/20
f 54/51/20 14/55/20 18/54/20
f 54/51/20 8/56/20 14/55/20
f 26/53/20 30/57/20 51/50/20
f 54/51/20 5/58/20 8/56/20
f 36/59/20 56/60/20 51/50/20
f 56/60/20 36/59/20 35/61/20
f 3/62/20 5/58/20 54/51/20
f 54/51/20 58/63/20 4/64/20
f 10/65/20 4/64/20 58/63/20
f 38/66/20 37/67/20 60/68/20
f 60/68/20 56/60/20 35/61/20
f 20/69/20 16/70/20 62/71/20
f 62/71/20 24/72/20 20/69/20
f 62/71/20 60/68/20 24/72/20
f 60/68/20 28/73/20 24/72/20
f 60/68/20 32/74/20 28/73/20
f 16/70/20 11/75/20 62/71/20
f 60/68/20 37/67/20 32/74/20
f 10/65/20 58/63/20 62/71/20
f 60/68/20 62/71/20 66/76/20
f 60/68/20 66/76/20 64/77/20
f 64/77/21 66/76/21 70/78/21
f 64/77/21 70/78/21 68/79/21
f 58/80/22 54/81/22 53/82/22
f 42/83/8 44/84/8 49/85/8
f 48/44/23 41/86/23 50/87/23
f 51/88/10 56/89/10 55/90/10
f 60/91/13 64/92/13 63/93/13
f 70/24/2 66/94/2 69/95/2
f 62/96/4 58/80/4 57/97/4
f 43/98/24 42/83/24 47/99/24
f 54/81/6 48/100/6 53/82/6
f 44/101/25 51/88/25 52/102/25
f 41/86/26 43/98/26 45/103/26
f 56/89/27 60/91/27 55/90/27
f 64/104/3 68/105/3 67/106/3
f 66/107/28 62/96/28 61/108/28
f 47/109/29 46/110/29 45/111/29
f 46/110/29 47/109/29 49/112/29
f 46/110/29 49/112/29 50/113/29
f 50/113/29 49/112/29 52/114/29
f 50/113/29 52/114/29 53/115/29
f 53/115/29 17/116/29 13/117/29
f 53/115/29 52/114/29 17/116/29
f 52/114/29 21/118/29 17/116/29
f 52/114/29 25/119/29 21/118/29
f 13/117/29 7/120/29 53/115/29
f 52/114/29 29/121/29 25/119/29
f 7/120/29 6/122/29 53/115/29
f 52/114/29 55/123/29 33/124/29
f 34/125/29 33/124/29 55/123/29
f 53/115/29 6/122/29 2/126/29
f 1/127/29 57/128/29 53/115/29
f 57/128/29 1/127/29 9/129/29
f 40/130/29 39/131/29 59/132/29
f 34/125/29 55/123/29 59/132/29
f 23/133/29 27/134/29 59/132/29
f 59/132/29 61/135/29 23/133/29
f 61/135/29 19/136/29 23/133/29
f 61/135/29 15/137/29 19/136/29
f 27/134/29 31/138/29 59/132/29
f 61/135/29 12/139/29 15/137/29
f 31/138/29 40/130/29 59/132/29
f 61/135/29 57/128/29 9/129/29
f 61/135/29 59/132/29 65/140/29
f 65/140/29 59/132/29 63/141/29
f 65/140/29 63/141/29 69/142/29
f 69/142/29 63/141/29 67/143/29
f 75/144/30 76/145/30 72/146/30
f 76/147/29 77/85/29 73/148/29
f 77/149/31 78/150/31 74/107/31
f 78/151/20 75/152/20 71/146/20
f 71/153/32 72/154/32 73/145/32
f 4/31/27 1/1/27 3/3/27
f 25/155/33 26/4/33 21/6/33
f 13/39/3 14/7/3 7/9/3
f 35/15/34 36/10/34 33/12/34
f 31/156/6 32/16/6 40/18/6
f 40/18/6 37/17/6 39/20/6
f 23/42/7 24/21/7 27/23/7
f 15/157/8 16/24/8 19/26/8
f 4/31/10 10/27/10 9/29/10
f 21/6/11 22/5/11 17/33/11
f 7/158/35 8/34/35 6/36/35
f 29/11/28 30/13/28 25/38/28
f 17/33/36 18/32/36 13/39/36
f 39/20/22 38/19/22 34/14/22
f 27/23/17 28/22/17 31/41/17
f 19/26/24 20/25/24 23/42/24
f 12/28/37 11/30/37 15/44/37
f 30/57/20 36/59/20 51/50/20
f 3/62/20 54/51/20 4/64/20
f 38/66/20 60/68/20 35/61/20
f 11/75/20 10/65/20 62/71/20
f 57/97/16 58/80/16 53/82/16
f 47/99/8 42/83/8 49/85/8
f 3/3/38 2/2/38 6/36/38
f 52/102/10 51/88/10 55/90/10
f 59/159/39 60/91/39 63/93/39
f 48/100/6 50/16/6 53/82/6
f 61/108/34 62/96/34 57/97/34
f 45/103/40 43/98/40 47/99/40
f 41/86/17 46/160/17 50/87/17
f 49/161/25 44/101/25 52/102/25
f 46/160/7 41/86/7 45/103/7
f 66/94/2 65/162/2 69/95/2
f 63/163/3 64/104/3 67/106/3
f 65/164/41 66/107/41 61/108/41
f 29/121/29 52/114/29 33/124/29
f 2/126/29 1/127/29 53/115/29
f 39/131/29 34/125/29 59/132/29
f 12/139/29 61/135/29 9/129/29
f 71/165/30 75/144/30 72/146/30
f 72/41/29 76/147/29 73/148/29
f 73/166/31 77/149/31 74/107/31
f 74/167/20 78/151/20 71/146/20
f 74/144/32 71/153/32 73/145/32
f 60/91/27 59/159/27 55/90/27
