# Blender v2.69 (sub 0) OBJ File: 'receptors.blend'
# www.blender.org
o Cylinder.002
v 0.000000 0.084637 -0.400000
v 0.000000 2.084637 -0.400000
v 0.346410 0.084637 -0.200000
v 0.346410 2.084637 -0.200000
v 0.346410 0.084637 0.200000
v 0.346410 2.084637 0.200000
v -0.000000 0.084637 0.400000
v -0.000000 2.084637 0.400000
v -0.346410 0.084637 0.200000
v -0.346410 2.084637 0.200000
v -0.346410 0.084637 -0.200000
v -0.346410 2.084637 -0.200000
v -0.000000 1.979458 -0.826141
v -0.000000 2.944633 0.000000
v 0.826141 1.979458 0.000000
v -0.000000 1.979458 0.826141
v -0.826141 1.979458 -0.000000
vn 0.000000 1.000000 0.000000
vn 0.000000 -1.000000 0.000000
vn -0.604934 0.517793 0.604934
vn 0.604934 0.517793 -0.604934
vn -0.604934 0.517793 -0.604934
vn 0.604934 0.517793 0.604934
vn 0.000000 0.000000 -1.000000
vn 0.866026 0.000000 -0.500000
vn 0.866025 0.000000 0.500000
vn -0.000000 0.000000 1.000000
vn -0.866025 0.000000 0.500000
vn -0.866025 0.000000 -0.500000
vn -0.866026 0.000000 -0.500000
s off
f 4//1 2//1 12//1
f 1//2 3//2 11//2
f 16//3 14//3 17//3
f 13//4 14//4 15//4
f 17//5 14//5 13//5
f 15//6 14//6 16//6
f 13//2 15//2 17//2
f 6//1 4//1 12//1
f 8//1 6//1 10//1
f 6//1 12//1 10//1
f 3//2 5//2 11//2
f 5//2 7//2 11//2
f 7//2 9//2 11//2
f 15//2 16//2 17//2
s 1
f 1//7 2//7 3//8
f 3//8 4//8 5//9
f 5//9 6//9 7//10
f 7//10 8//10 9//11
f 11//12 12//13 1//7
f 9//11 10//11 11//12
f 2//7 4//8 3//8
f 4//8 6//9 5//9
f 6//9 8//10 7//10
f 8//10 10//11 9//11
f 12//13 2//7 1//7
f 10//11 12//13 11//12
