# Blender v2.69 (sub 0) OBJ File: 'receptors.blend'
# www.blender.org
o Cylinder
v 0.000000 -0.008323 -0.400000
v 0.000000 1.991677 -0.400000
v 0.346410 -0.008323 -0.200000
v 0.346410 1.991677 -0.200000
v 0.346410 -0.008323 0.200000
v 0.346410 1.991677 0.200000
v -0.000000 -0.008323 0.400000
v -0.000000 1.991677 0.400000
v -0.346410 -0.008323 0.200000
v -0.346410 1.991677 0.200000
v -0.346410 -0.008323 -0.200000
v -0.346410 1.991677 -0.200000
v -0.497592 1.864814 0.497592
v -0.497592 1.864814 -0.497592
v 0.497592 1.864814 -0.497592
v 0.497592 1.864814 0.497592
v -0.497592 2.859997 0.497592
v -0.497592 2.859997 -0.497592
v 0.497592 2.859997 -0.497592
v 0.497592 2.859997 0.497592
vn 0.000000 1.000000 0.000000
vn 0.000000 -1.000000 0.000000
vn -1.000000 0.000000 0.000000
vn 0.000000 0.000000 -1.000000
vn 1.000000 0.000000 0.000000
vn 0.000000 0.000000 1.000000
vn 0.000000 1.000000 0.000001
vn 0.000000 1.000000 -0.000002
vn 0.866026 0.000000 -0.500000
vn 0.866025 0.000000 -0.500000
vn 0.866025 0.000000 0.500000
vn -0.866025 0.000000 0.500000
vn -0.866025 0.000000 -0.500000
s off
f 4//1 2//1 12//1
f 1//2 3//2 11//2
f 17//3 18//3 13//3
f 18//4 19//4 14//4
f 19//5 20//5 15//5
f 20//6 17//6 16//6
f 13//2 14//2 16//2
f 20//1 19//1 17//1
f 6//7 4//7 12//7
f 8//8 6//8 10//8
f 6//1 12//1 10//1
f 3//2 5//2 11//2
f 5//2 7//2 11//2
f 7//2 9//2 11//2
f 18//3 14//3 13//3
f 19//4 15//4 14//4
f 20//5 16//5 15//5
f 17//6 13//6 16//6
f 14//2 15//2 16//2
f 19//1 18//1 17//1
s 1
f 1//4 2//4 3//9
f 3//9 4//10 5//11
f 5//11 6//11 7//6
f 7//6 8//6 9//12
f 11//13 12//13 1//4
f 9//12 10//12 11//13
f 2//4 4//10 3//9
f 4//10 6//11 5//11
f 6//11 8//6 7//6
f 8//6 10//12 9//12
f 12//13 2//4 1//4
f 10//12 12//13 11//13
