# Blender v2.69 (sub 0) OBJ File: 'builder.blend'
# www.blender.org
o clear_Cube.016
v -3.166390 -1.752178 -1.000000
v -1.752175 -3.166391 -1.000000
v -1.752175 -3.166391 1.000000
v -3.166390 -1.752178 1.000000
v 3.166390 1.752178 -1.000000
v 1.752176 3.166391 -1.000000
v 3.166390 1.752178 1.000000
v 1.386151 -0.028062 1.000000
v 1.386151 -0.028062 -1.000000
v -0.028062 -1.442276 -1.000000
v -0.028062 -1.442276 1.000000
v -1.442275 -0.028062 1.000000
v -0.028062 1.386152 -1.000000
v -0.028062 1.386152 1.000000
v 1.752176 3.166391 1.000000
v -1.442275 -0.028062 -1.000000
v -1.791309 3.149401 -1.000000
v -3.205523 1.735188 -1.000000
v -3.205523 1.735188 1.000000
v -1.791309 3.149401 1.000000
v 1.713042 -3.183382 1.000000
v 1.713042 -3.183382 -1.000000
v 3.127256 -1.769168 1.000000
v 3.127256 -1.769168 -1.000000
vt 0.531104 0.796635
vt 0.265533 0.796635
vt 0.265533 0.531104
vt 0.531104 0.265571
vt 0.265533 0.265571
vt 0.265533 0.000000
vt 0.531104 0.531104
vt 0.796675 0.799742
vt 0.531104 0.799742
vt 0.531104 0.703621
vt 0.955310 0.531141
vt 0.955310 0.796712
vt 0.862219 0.531141
vt 0.796615 0.265571
vt 0.796615 0.531141
vt 0.796615 0.358662
vt 0.531104 0.358662
vt 0.531104 0.892756
vt 0.265593 0.892756
vt 0.796514 0.265571
vt 0.796514 0.172480
vt 0.796514 0.000000
vt 0.796514 0.799742
vt 0.796514 0.895863
vt 0.872973 0.000220
vt 0.949332 0.000220
vt 0.949332 0.265630
vt 0.796615 0.204185
vt 0.872973 0.204185
vt 0.862219 0.627262
vt 0.862219 0.703621
vt 0.949332 0.531141
vt 0.872973 0.531141
vt 0.872973 0.265630
vt 0.923642 0.923642
vt 1.000000 0.923642
vt 1.000000 1.847283
vt 0.592527 0.923642
vt 0.326956 0.923642
vt 0.326956 1.189172
vt 0.000000 1.189172
vt 0.923642 1.189172
vt 0.592527 1.189172
vt 0.000000 0.000000
vt 0.000000 0.326957
vt 0.000000 0.923642
vt 0.265533 0.326957
vt 0.000000 0.592527
vt 0.265533 0.592527
vt 0.265533 0.923642
vt 0.531104 0.000000
vt 0.796675 0.703621
vt 0.265593 0.796635
vt 0.531104 0.172480
vt 0.531104 0.895863
vt 0.862219 0.796712
vt 0.531104 0.627262
vt 0.923642 1.847283
vn -0.707107 -0.707107 0.000000
vn 0.000000 0.000000 -1.000000
vn 0.707107 0.707107 0.000000
vn 0.000000 0.000000 1.000000
vn 0.817541 -0.502641 0.281030
vn 0.707107 -0.707107 0.000000
vn -0.419886 0.344206 0.839772
vn -0.707107 0.707107 0.000000
vn 0.707106 -0.707107 0.000000
vn 0.000000 -0.883452 -0.468521
vn -0.707107 -0.707106 0.000000
vn 0.208297 0.512261 -0.833187
vn -0.229416 0.324443 -0.917663
vn 0.426401 0.301511 0.852803
vn -0.500000 -0.707107 0.500000
vn -0.391870 -0.481860 -0.783740
vn 0.707107 0.707106 0.000000
s off
f 1/1/1 2/2/1 3/3/1
f 1/4/2 6/5/2 5/6/2
f 15/7/3 7/3/3 5/5/3
f 7/8/4 15/9/4 14/10/4
f 11/11/4 12/12/4 3/13/4
f 2/14/5 5/15/5 10/16/5
f 10/16/6 11/17/6 3/4/6
f 7/1/6 8/18/6 9/19/6
f 1/20/7 16/21/7 6/22/7
f 16/21/8 1/20/8 4/4/8
f 13/9/8 14/23/8 15/24/8
f 19/25/8 20/26/8 17/27/8
f 24/28/2 22/29/2 9/15/2
f 13/30/2 16/31/2 18/10/2
f 23/32/9 21/33/9 22/34/9
f 21/35/4 23/36/4 20/37/4
f 12/38/10 11/39/10 19/35/10
f 11/39/11 10/40/11 22/41/11
f 18/42/1 16/43/1 12/38/1
f 23/44/12 8/45/12 20/46/12
f 24/6/3 9/47/3 8/45/3
f 14/48/3 13/49/3 17/50/3
f 4/7/1 1/1/1 3/3/1
f 2/51/2 1/4/2 5/6/2
f 6/4/3 15/7/3 5/5/3
f 8/52/4 7/8/4 14/10/4
f 16/31/13 13/30/13 6/13/13
f 8/45/14 14/48/14 20/46/14
f 2/14/6 10/16/6 3/4/6
f 5/53/6 7/1/6 9/19/6
f 5/44/15 9/44/15 10/44/15
f 12/54/8 16/21/8 4/4/8
f 6/55/8 13/9/8 15/24/8
f 18/34/8 19/25/8 17/27/8
f 12/12/4 4/56/4 3/13/4
f 17/57/2 13/30/2 18/10/2
f 24/27/9 23/32/9 22/34/9
f 19/58/4 21/35/4 20/37/4
f 21/46/11 11/39/11 22/41/11
f 19/35/1 18/42/1 12/38/1
f 11/39/16 21/46/16 19/35/16
f 23/44/3 24/6/3 8/45/3
f 20/46/17 14/48/17 17/50/17
f 22/29/2 10/33/2 9/15/2
