# Blender v2.69 (sub 0) OBJ File: 'receptors.blend'
# www.blender.org
o Cylinder.001
v 0.000000 -0.026594 -0.400000
v 0.000000 1.973406 -0.400000
v 0.346410 -0.026594 -0.200000
v 0.346410 1.973406 -0.200000
v 0.346410 -0.026594 0.200000
v 0.346410 1.973406 0.200000
v -0.000000 -0.026594 0.400000
v -0.000000 1.973406 0.400000
v -0.346410 -0.026594 0.200000
v -0.346410 1.973406 0.200000
v -0.346410 -0.026594 -0.200000
v -0.346410 1.973406 -0.200000
v -0.224157 2.883391 -0.014928
v -0.416827 2.754653 -0.014928
v -0.545566 2.561983 -0.014928
v -0.590772 2.334713 -0.014928
v -0.545566 2.107443 -0.014928
v -0.416827 1.914773 -0.014928
v -0.224157 1.786034 -0.014928
v 0.003113 1.740828 -0.014928
v -0.193709 2.883391 -0.128563
v -0.360566 2.754653 -0.224898
v -0.472057 2.561983 -0.289267
v -0.511207 2.334713 -0.311870
v -0.472057 2.107443 -0.289267
v -0.360566 1.914773 -0.224898
v -0.193709 1.786034 -0.128563
v -0.110522 2.883391 -0.211749
v -0.206857 2.754653 -0.378606
v -0.271226 2.561983 -0.490097
v -0.293830 2.334713 -0.529247
v -0.271226 2.107443 -0.490097
v -0.206857 1.914773 -0.378606
v -0.110522 1.786034 -0.211749
v 0.003113 2.883391 -0.242198
v 0.003113 2.754653 -0.434868
v 0.003113 2.561983 -0.563606
v 0.003113 2.334713 -0.608813
v 0.003113 2.107443 -0.563606
v 0.003113 1.914773 -0.434868
v 0.003113 1.786034 -0.242198
v 0.003113 2.928598 -0.014928
v 0.116748 2.883391 -0.211749
v 0.213083 2.754653 -0.378606
v 0.277452 2.561983 -0.490097
v 0.300055 2.334713 -0.529247
v 0.277452 2.107443 -0.490097
v 0.213083 1.914773 -0.378606
v 0.116748 1.786034 -0.211749
v 0.199934 2.883391 -0.128563
v 0.366791 2.754653 -0.224898
v 0.478282 2.561983 -0.289267
v 0.517432 2.334713 -0.311870
v 0.478282 2.107443 -0.289267
v 0.366791 1.914773 -0.224898
v 0.199934 1.786034 -0.128563
v 0.230383 2.883391 -0.014928
v 0.423053 2.754653 -0.014928
v 0.551791 2.561983 -0.014928
v 0.596998 2.334713 -0.014928
v 0.551791 2.107443 -0.014928
v 0.423053 1.914773 -0.014928
v 0.230383 1.786034 -0.014928
v 0.199934 2.883391 0.098707
v 0.366791 2.754653 0.195042
v 0.478282 2.561983 0.259411
v 0.517432 2.334713 0.282015
v 0.478282 2.107443 0.259411
v 0.366791 1.914773 0.195042
v 0.199934 1.786034 0.098707
v 0.116748 2.883391 0.181894
v 0.213083 2.754653 0.348751
v 0.277452 2.561983 0.460242
v 0.300055 2.334713 0.499392
v 0.277452 2.107443 0.460242
v 0.213083 1.914773 0.348751
v 0.116748 1.786034 0.181894
v 0.003113 2.883391 0.212342
v 0.003113 2.754653 0.405012
v 0.003113 2.561983 0.533750
v 0.003113 2.334713 0.578957
v 0.003113 2.107443 0.533750
v 0.003113 1.914773 0.405012
v 0.003113 1.786034 0.212342
v -0.110522 2.883391 0.181894
v -0.206857 2.754653 0.348751
v -0.271227 2.561983 0.460241
v -0.293830 2.334713 0.499392
v -0.271227 2.107443 0.460241
v -0.206857 1.914773 0.348751
v -0.110522 1.786034 0.181894
v -0.193709 2.883391 0.098707
v -0.360566 2.754653 0.195042
v -0.472057 2.561983 0.259411
v -0.511207 2.334713 0.282015
v -0.472057 2.107443 0.259411
v -0.360566 1.914773 0.195042
v -0.193709 1.786034 0.098707
vn 0.000000 -0.609973 -0.792383
vn 0.000000 0.609973 -0.792383
vn 0.686239 -0.609973 -0.396191
vn 0.686239 0.609973 -0.396191
vn 0.686239 -0.609973 0.396191
vn 0.686239 0.609973 0.396191
vn 0.000000 -0.609973 0.792383
vn 0.000000 0.609973 0.792383
vn -0.686239 -0.609973 0.396191
vn -0.686239 0.609973 -0.396191
vn -0.686239 -0.609973 -0.396191
vn -0.686239 0.609973 0.396191
vn -0.409680 -0.912198 0.000000
vn -0.722556 -0.691275 0.000000
vn -0.354808 -0.912198 -0.204840
vn -0.928312 -0.371746 0.000000
vn -0.625751 -0.691275 -0.361278
vn -1.000000 0.000000 0.000000
vn -0.803949 -0.371746 -0.464156
vn -0.928312 0.371746 0.000000
vn -0.866024 0.000000 -0.499985
vn -0.722556 0.691275 0.000000
vn -0.803949 0.371746 -0.464156
vn -0.409680 0.912198 0.000000
vn -0.625751 0.691275 -0.361278
vn -0.204840 -0.912198 -0.354808
vn -0.361278 -0.691275 -0.625751
vn -0.464156 -0.371746 -0.803949
vn -0.499985 0.000000 -0.866024
vn -0.464156 0.371746 -0.803949
vn -0.354808 0.912198 -0.204840
vn -0.361278 0.691275 -0.625751
vn 0.000000 -0.912198 -0.409680
vn 0.000000 -0.691275 -0.722556
vn 0.000000 -0.371746 -0.928312
vn 0.000000 0.000000 -1.000000
vn 0.000000 0.371746 -0.928312
vn -0.204840 0.912198 -0.354808
vn 0.000000 0.691275 -0.722556
vn 0.204840 -0.912198 -0.354808
vn 0.361278 -0.691275 -0.625751
vn 0.464156 -0.371746 -0.803949
vn 0.499985 0.000000 -0.866024
vn 0.464156 0.371746 -0.803949
vn 0.000000 0.912198 -0.409680
vn 0.361278 0.691275 -0.625751
vn 0.354808 -0.912198 -0.204840
vn 0.625751 -0.691275 -0.361278
vn 0.803949 -0.371746 -0.464156
vn 0.866024 0.000000 -0.499985
vn 0.803949 0.371746 -0.464156
vn 0.204840 0.912198 -0.354808
vn 0.625751 0.691275 -0.361278
vn 0.409680 -0.912198 0.000000
vn 0.722556 -0.691275 0.000000
vn 0.928312 -0.371746 0.000000
vn 1.000000 0.000000 0.000000
vn 0.928312 0.371746 0.000000
vn 0.354808 0.912198 -0.204840
vn 0.722556 0.691275 0.000000
vn 0.354808 -0.912198 0.204840
vn 0.625751 -0.691275 0.361278
vn 0.803949 -0.371746 0.464156
vn 0.866024 0.000000 0.499985
vn 0.803949 0.371746 0.464156
vn 0.409680 0.912198 0.000000
vn 0.625751 0.691275 0.361278
vn 0.204840 -0.912198 0.354808
vn 0.361278 -0.691275 0.625751
vn 0.464156 -0.371746 0.803949
vn 0.499985 0.000000 0.866024
vn 0.464156 0.371746 0.803949
vn 0.354808 0.912198 0.204840
vn 0.361278 0.691275 0.625751
vn 0.000000 -0.912198 0.409680
vn 0.000000 -0.691275 0.722556
vn 0.000000 -0.371746 0.928312
vn 0.000000 0.000000 1.000000
vn 0.000000 0.371746 0.928312
vn 0.204840 0.912198 0.354808
vn 0.000000 0.691275 0.722556
vn -0.204840 -0.912198 0.354808
vn -0.361278 -0.691275 0.625751
vn -0.464156 -0.371746 0.803949
vn -0.499985 0.000000 0.866024
vn -0.464156 0.371746 0.803949
vn 0.000000 0.912198 0.409680
vn -0.361278 0.691275 0.625751
vn -0.354808 -0.912198 0.204840
vn -0.625751 -0.691275 0.361278
vn -0.803949 -0.371746 0.464156
vn -0.866024 0.000000 0.499985
vn -0.803949 0.371746 0.464156
vn -0.204840 0.912198 0.354808
vn -0.625751 0.691275 0.361278
vn 0.000000 -1.000000 0.000000
vn 0.000000 1.000000 0.000000
vn -0.354808 0.912198 0.204840
s 1
f 1//1 2//2 3//3
f 3//3 4//4 5//5
f 5//5 6//6 7//7
f 7//7 8//8 9//9
f 4//4 2//2 12//10
f 11//11 12//10 1//1
f 9//9 10//12 11//11
f 1//1 3//3 11//11
f 19//13 18//14 27//15
f 18//14 17//16 26//17
f 17//16 16//18 25//19
f 16//18 15//20 24//21
f 15//20 14//22 23//23
f 14//22 13//24 22//25
f 27//15 26//17 34//26
f 26//17 25//19 33//27
f 25//19 24//21 32//28
f 24//21 23//23 31//29
f 23//23 22//25 30//30
f 22//25 21//31 29//32
f 34//26 33//27 41//33
f 33//27 32//28 40//34
f 32//28 31//29 39//35
f 31//29 30//30 38//36
f 30//30 29//32 37//37
f 29//32 28//38 36//39
f 41//33 40//34 49//40
f 40//34 39//35 48//41
f 39//35 38//36 47//42
f 38//36 37//37 46//43
f 37//37 36//39 45//44
f 36//39 35//45 44//46
f 49//40 48//41 56//47
f 48//41 47//42 55//48
f 47//42 46//43 54//49
f 46//43 45//44 53//50
f 45//44 44//46 52//51
f 44//46 43//52 51//53
f 56//47 55//48 63//54
f 55//48 54//49 62//55
f 54//49 53//50 61//56
f 53//50 52//51 60//57
f 52//51 51//53 59//58
f 51//53 50//59 58//60
f 63//54 62//55 70//61
f 62//55 61//56 69//62
f 61//56 60//57 68//63
f 60//57 59//58 67//64
f 59//58 58//60 66//65
f 58//60 57//66 65//67
f 70//61 69//62 77//68
f 69//62 68//63 76//69
f 68//63 67//64 75//70
f 67//64 66//65 74//71
f 66//65 65//67 73//72
f 65//67 64//73 72//74
f 77//68 76//69 84//75
f 76//69 75//70 83//76
f 75//70 74//71 82//77
f 74//71 73//72 81//78
f 73//72 72//74 80//79
f 72//74 71//80 79//81
f 84//75 83//76 91//82
f 83//76 82//77 90//83
f 82//77 81//78 89//84
f 81//78 80//79 88//85
f 80//79 79//81 87//86
f 79//81 78//87 86//88
f 91//82 90//83 98//89
f 90//83 89//84 97//90
f 89//84 88//85 96//91
f 88//85 87//86 95//92
f 87//86 86//88 94//93
f 86//88 85//94 93//95
f 20//96 19//13 27//15
f 13//24 42//97 21//31
f 20//96 27//15 34//26
f 21//31 42//97 28//38
f 20//96 34//26 41//33
f 28//38 42//97 35//45
f 20//96 41//33 49//40
f 35//45 42//97 43//52
f 20//96 49//40 56//47
f 43//52 42//97 50//59
f 20//96 56//47 63//54
f 50//59 42//97 57//66
f 20//96 63//54 70//61
f 57//66 42//97 64//73
f 20//96 70//61 77//68
f 64//73 42//97 71//80
f 20//96 77//68 84//75
f 71//80 42//97 78//87
f 20//96 84//75 91//82
f 78//87 42//97 85//94
f 20//96 91//82 98//89
f 85//94 42//97 92//98
f 20//96 98//89 19//13
f 98//89 97//90 19//13
f 97//90 96//91 18//14
f 96//91 95//92 17//16
f 95//92 94//93 16//18
f 94//93 93//95 15//20
f 93//95 92//98 14//22
f 92//98 42//97 13//24
f 2//2 4//4 3//3
f 4//4 6//6 5//5
f 6//6 8//8 7//7
f 8//8 10//12 9//9
f 6//6 4//4 12//10
f 8//8 6//6 10//12
f 6//6 12//10 10//12
f 12//10 2//2 1//1
f 10//12 12//10 11//11
f 3//3 5//5 11//11
f 5//5 7//7 11//11
f 7//7 9//9 11//11
f 18//14 26//17 27//15
f 17//16 25//19 26//17
f 16//18 24//21 25//19
f 15//20 23//23 24//21
f 14//22 22//25 23//23
f 13//24 21//31 22//25
f 26//17 33//27 34//26
f 25//19 32//28 33//27
f 24//21 31//29 32//28
f 23//23 30//30 31//29
f 22//25 29//32 30//30
f 21//31 28//38 29//32
f 33//27 40//34 41//33
f 32//28 39//35 40//34
f 31//29 38//36 39//35
f 30//30 37//37 38//36
f 29//32 36//39 37//37
f 28//38 35//45 36//39
f 40//34 48//41 49//40
f 39//35 47//42 48//41
f 38//36 46//43 47//42
f 37//37 45//44 46//43
f 36//39 44//46 45//44
f 35//45 43//52 44//46
f 48//41 55//48 56//47
f 47//42 54//49 55//48
f 46//43 53//50 54//49
f 45//44 52//51 53//50
f 44//46 51//53 52//51
f 43//52 50//59 51//53
f 55//48 62//55 63//54
f 54//49 61//56 62//55
f 53//50 60//57 61//56
f 52//51 59//58 60//57
f 51//53 58//60 59//58
f 50//59 57//66 58//60
f 62//55 69//62 70//61
f 61//56 68//63 69//62
f 60//57 67//64 68//63
f 59//58 66//65 67//64
f 58//60 65//67 66//65
f 57//66 64//73 65//67
f 69//62 76//69 77//68
f 68//63 75//70 76//69
f 67//64 74//71 75//70
f 66//65 73//72 74//71
f 65//67 72//74 73//72
f 64//73 71//80 72//74
f 76//69 83//76 84//75
f 75//70 82//77 83//76
f 74//71 81//78 82//77
f 73//72 80//79 81//78
f 72//74 79//81 80//79
f 71//80 78//87 79//81
f 83//76 90//83 91//82
f 82//77 89//84 90//83
f 81//78 88//85 89//84
f 80//79 87//86 88//85
f 79//81 86//88 87//86
f 78//87 85//94 86//88
f 90//83 97//90 98//89
f 89//84 96//91 97//90
f 88//85 95//92 96//91
f 87//86 94//93 95//92
f 86//88 93//95 94//93
f 85//94 92//98 93//95
f 97//90 18//14 19//13
f 96//91 17//16 18//14
f 95//92 16//18 17//16
f 94//93 15//20 16//18
f 93//95 14//22 15//20
f 92//98 13//24 14//22
