# Blender v2.69 (sub 0) OBJ File: ''
# www.blender.org
o Icosphere_Icosphere.001
v 0.000000 -1.000000 -0.000000
v 0.203181 -0.967950 0.147618
v -0.077607 -0.967950 0.238853
v 0.723607 -0.447220 0.525725
v 0.609547 -0.657519 0.442856
v 0.812729 -0.502301 0.295238
v -0.251147 -0.967949 -0.000000
v -0.077607 -0.967950 -0.238853
v 0.203181 -0.967950 -0.147618
v 0.860698 -0.251151 0.442858
v -0.276388 -0.447220 0.850649
v -0.029639 -0.502302 0.864184
v -0.155215 -0.251152 0.955422
v -0.894426 -0.447216 -0.000000
v -0.831051 -0.502299 0.238853
v -0.956626 -0.251149 0.147618
v -0.276388 -0.447220 -0.850649
v -0.483971 -0.502302 -0.716565
v -0.436007 -0.251152 -0.864188
v 0.723607 -0.447220 -0.525725
v 0.531941 -0.502302 -0.681712
v 0.687159 -0.251152 -0.681715
v 0.687159 -0.251152 0.681715
v -0.436007 -0.251152 0.864188
v -0.956626 -0.251149 -0.147618
v -0.155215 -0.251152 -0.955422
v 0.860698 -0.251151 -0.442858
v 0.276388 0.447220 0.850649
v 0.483971 0.502302 0.716565
v 0.232822 0.657519 0.716563
v -0.723607 0.447220 0.525725
v -0.531941 0.502302 0.681712
v -0.609547 0.657519 0.442856
v -0.723607 0.447220 -0.525725
v -0.812729 0.502301 -0.295238
v -0.609547 0.657519 -0.442856
v 0.276388 0.447220 -0.850649
v 0.029639 0.502302 -0.864184
v 0.232822 0.657519 -0.716563
v 0.894426 0.447216 0.000000
v 0.831051 0.502299 -0.238853
v 0.753442 0.657515 0.000000
v -0.232822 -0.657519 0.716563
v -0.162456 -0.850654 0.499995
v 0.052790 -0.723612 0.688185
v 0.138199 -0.894429 0.425321
v 0.262869 -0.525738 0.809012
v 0.361805 -0.723611 0.587779
v 0.531941 -0.502302 0.681712
v 0.425323 -0.850654 0.309011
v 0.812729 -0.502301 -0.295238
v 0.609547 -0.657519 -0.442856
v 0.850648 -0.525736 -0.000000
v 0.670817 -0.723611 -0.162457
v 0.670818 -0.723610 0.162458
v 0.425323 -0.850654 -0.309011
v 0.447211 -0.894428 0.000001
v -0.753442 -0.657515 -0.000000
v -0.525730 -0.850652 -0.000000
v -0.638195 -0.723609 0.262864
v -0.361801 -0.894428 0.262864
v -0.688189 -0.525736 0.499997
v -0.447211 -0.723610 0.525729
v -0.483971 -0.502302 0.716565
v -0.232822 -0.657519 -0.716563
v -0.162456 -0.850654 -0.499995
v -0.447211 -0.723612 -0.525727
v -0.361801 -0.894429 -0.262863
v -0.688189 -0.525736 -0.499997
v -0.638195 -0.723609 -0.262863
v -0.831051 -0.502299 -0.238853
v 0.361803 -0.723612 -0.587779
v 0.138197 -0.894429 -0.425321
v 0.262869 -0.525738 -0.809012
v 0.052789 -0.723611 -0.688186
v -0.029639 -0.502302 -0.864184
v 0.956626 0.251149 0.147618
v 0.956626 0.251149 -0.147618
v 0.951058 -0.000000 0.309013
v 1.000000 0.000000 0.000000
v 0.947213 -0.276396 0.162458
v 0.951058 0.000000 -0.309013
v 0.947213 -0.276396 -0.162458
v 0.155215 0.251152 0.955422
v 0.436007 0.251152 0.864188
v 0.000000 -0.000000 1.000000
v 0.309017 -0.000000 0.951056
v 0.138199 -0.276398 0.951055
v 0.587786 -0.000000 0.809017
v 0.447216 -0.276398 0.850648
v -0.860698 0.251151 0.442858
v -0.687159 0.251152 0.681715
v -0.951058 -0.000000 0.309013
v -0.809018 -0.000000 0.587783
v -0.861803 -0.276396 0.425324
v -0.587786 -0.000000 0.809017
v -0.670819 -0.276397 0.688191
v -0.687159 0.251152 -0.681715
v -0.860698 0.251151 -0.442858
v -0.587786 0.000000 -0.809017
v -0.809018 0.000000 -0.587783
v -0.670819 -0.276397 -0.688191
v -0.951058 0.000000 -0.309013
v -0.861803 -0.276396 -0.425324
v 0.436007 0.251152 -0.864188
v 0.155215 0.251152 -0.955422
v 0.587786 0.000000 -0.809017
v 0.309017 0.000000 -0.951056
v 0.447216 -0.276398 -0.850648
v 0.000000 0.000000 -1.000000
v 0.138199 -0.276398 -0.951055
v 0.670820 0.276396 0.688190
v 0.809019 -0.000002 0.587783
v 0.688189 0.525736 0.499997
v 0.861804 0.276394 0.425323
v 0.831051 0.502299 0.238853
v -0.447216 0.276397 0.850648
v -0.309017 -0.000001 0.951056
v -0.262869 0.525738 0.809012
v -0.138199 0.276397 0.951055
v 0.029639 0.502302 0.864184
v -0.947213 0.276396 -0.162458
v -1.000000 0.000001 0.000000
v -0.850648 0.525736 0.000000
v -0.947213 0.276397 0.162458
v -0.812729 0.502301 0.295238
v -0.138199 0.276397 -0.951055
v -0.309016 0.000000 -0.951057
v -0.262869 0.525738 -0.809012
v -0.447215 0.276397 -0.850649
v -0.531941 0.502302 -0.681712
v 0.861804 0.276396 -0.425322
v 0.809019 0.000000 -0.587782
v 0.688189 0.525736 -0.499997
v 0.670821 0.276397 -0.688189
v 0.483971 0.502302 -0.716565
v 0.077607 0.967950 0.238853
v 0.251147 0.967949 0.000000
v 0.000000 1.000000 0.000000
v 0.162456 0.850654 0.499995
v 0.361800 0.894429 0.262863
v 0.447209 0.723612 0.525728
v 0.525730 0.850652 0.000000
v 0.638194 0.723610 0.262864
v -0.203181 0.967950 0.147618
v -0.425323 0.850654 0.309011
v -0.138197 0.894430 0.425319
v -0.361804 0.723612 0.587778
v -0.052790 0.723612 0.688185
v -0.203181 0.967950 -0.147618
v -0.425323 0.850654 -0.309011
v -0.447210 0.894429 0.000000
v -0.670817 0.723611 -0.162457
v -0.670817 0.723611 0.162457
v 0.077607 0.967950 -0.238853
v 0.162456 0.850654 -0.499995
v -0.138197 0.894430 -0.425319
v -0.052790 0.723612 -0.688185
v -0.361804 0.723612 -0.587778
v 0.361800 0.894429 -0.262863
v 0.638194 0.723610 -0.262864
v 0.447209 0.723612 -0.525728
vt 1.075931 0.057358
vt 0.641745 0.071253
vt 0.464550 0.071130
vt 0.641585 0.301931
vt 0.641650 0.208771
vt 0.681065 0.277558
vt 0.189953 0.056741
vt 0.287353 0.071007
vt 0.110158 0.070883
vt 0.996135 0.071500
vt 0.818940 0.071377
vt 0.663113 0.388802
vt 0.464389 0.301808
vt 0.503870 0.277434
vt 0.485918 0.388679
vt 0.287193 0.301686
vt 0.326673 0.277312
vt 0.308721 0.388557
vt 0.109997 0.301561
vt 0.149478 0.277188
vt 0.131526 0.388432
vt 0.818779 0.302054
vt 0.858259 0.277681
vt 0.840308 0.388925
vt 0.619935 0.388772
vt 0.442739 0.388649
vt 0.265544 0.388527
vt 0.088347 0.388402
vt 0.797129 0.388896
vt 0.552710 0.698096
vt 0.592157 0.722524
vt 0.552645 0.791256
vt 0.375514 0.697973
vt 0.414961 0.722401
vt 0.375449 0.791133
vt 0.198320 0.697850
vt 0.237767 0.722277
vt 0.198255 0.791010
vt 0.907102 0.698343
vt 0.946549 0.722771
vt 0.907037 0.791503
vt 0.729906 0.698218
vt 0.769352 0.722647
vt 0.729841 0.791378
vt 0.464454 0.208648
vt 0.464513 0.123091
vt 0.519568 0.179407
vt 0.553125 0.103761
vt 0.553011 0.267087
vt 0.586577 0.179455
vt 0.602138 0.277503
vt 0.641709 0.123214
vt 0.779332 0.277627
vt 0.818843 0.208894
vt 0.730206 0.267211
vt 0.763771 0.179578
vt 0.696763 0.179532
vt 0.818903 0.123338
vt 0.730319 0.103885
vt 0.287258 0.208526
vt 0.287317 0.122968
vt 0.342371 0.179285
vt 0.375929 0.103638
vt 0.375815 0.266964
vt 0.409380 0.179332
vt 0.424942 0.277380
vt 0.110062 0.208401
vt 0.110121 0.122844
vt 0.165176 0.179161
vt 0.198733 0.103514
vt 0.198620 0.266841
vt 0.232185 0.179209
vt 0.247746 0.277257
vt 0.873958 0.179654
vt 0.907515 0.104007
vt 0.907401 0.267334
vt 0.940966 0.179701
vt 0.956527 0.277750
vt 0.996099 0.123461
vt 0.996039 0.209018
vt 0.070550 0.277133
vt 0.708378 0.611347
vt 0.751555 0.611377
vt 0.685746 0.500075
vt 0.730044 0.500106
vt 0.706178 0.377649
vt 0.774342 0.500137
vt 0.754080 0.377682
vt 0.531181 0.611225
vt 0.574360 0.611255
vt 0.508549 0.499952
vt 0.552848 0.499983
vt 0.528982 0.377525
vt 0.597147 0.500014
vt 0.576886 0.377558
vt 0.353985 0.611102
vt 0.397164 0.611132
vt 0.331353 0.499829
vt 0.375652 0.499859
vt 0.351786 0.377402
vt 0.419952 0.499890
vt 0.399690 0.377435
vt 0.176791 0.610979
vt 0.219970 0.611008
vt 0.154158 0.499705
vt 0.198458 0.499736
vt 0.174591 0.377279
vt 0.242757 0.499767
vt 0.222494 0.377312
vt 0.885573 0.611472
vt 0.928751 0.611502
vt 0.862940 0.500199
vt 0.909589 0.497883
vt 0.883372 0.377772
vt 0.951538 0.500260
vt 0.931276 0.377805
vt 0.974325 0.389019
vt 0.617409 0.622468
vt 0.641446 0.500044
vt 0.641284 0.732940
vt 0.665313 0.622501
vt 0.690425 0.722592
vt 0.440213 0.622345
vt 0.464251 0.499921
vt 0.464088 0.732817
vt 0.488117 0.622379
vt 0.513229 0.722470
vt 0.263018 0.622222
vt 0.287055 0.499798
vt 0.286893 0.732693
vt 0.310921 0.622255
vt 0.336034 0.722346
vt 0.971801 0.622715
vt 0.109859 0.499674
vt 0.065561 0.499644
vt 0.995676 0.733187
vt 0.085823 0.622099
vt 0.133726 0.622132
vt 0.109698 0.732571
vt 0.158839 0.722223
vt 0.794604 0.622592
vt 0.818641 0.500168
vt 0.818479 0.733063
vt 0.842508 0.622625
vt 0.867621 0.722716
vt 0.552549 0.928774
vt 0.729745 0.928897
vt 0.632325 0.943027
vt 0.552585 0.876813
vt 0.641170 0.896267
vt 0.607718 0.820573
vt 0.729782 0.876935
vt 0.674727 0.820619
vt 0.375354 0.928651
vt 0.375389 0.876690
vt 0.463974 0.896144
vt 0.430522 0.820450
vt 0.497531 0.820497
vt 0.198159 0.928527
vt 0.198196 0.876566
vt 0.286779 0.896020
vt 0.253328 0.820326
vt 0.320336 0.820373
vt 0.906941 0.929021
vt 1.084137 0.929144
vt 0.906978 0.877060
vt 0.995562 0.896514
vt 0.962111 0.820820
vt 0.109584 0.895897
vt 0.076133 0.820203
vt 0.143141 0.820250
vt 0.818366 0.896390
vt 0.784914 0.820696
vt 0.851923 0.820743
vn 0.000000 -1.000000 0.000000
vn 0.210944 -0.965392 0.153264
vn -0.080569 -0.965392 0.247963
vn 0.723594 -0.447218 0.525712
vn 0.604205 -0.664968 0.438978
vn 0.815180 -0.503800 0.285714
vn -0.260750 -0.965392 0.000000
vn -0.080569 -0.965392 -0.247963
vn 0.210944 -0.965392 -0.153264
vn 0.864986 -0.243049 0.438978
vn -0.276376 -0.447218 0.850642
vn -0.019837 -0.503800 0.863552
vn -0.150212 -0.243049 0.958281
vn -0.894406 -0.447188 0.000000
vn -0.827448 -0.503800 0.247963
vn -0.957823 -0.243049 0.153264
vn -0.276376 -0.447218 -0.850642
vn -0.491531 -0.503800 -0.710288
vn -0.441725 -0.243049 -0.863582
vn 0.723594 -0.447218 -0.525712
vn 0.523637 -0.503800 -0.686972
vn 0.684805 -0.243049 -0.686972
vn 0.684805 -0.243049 0.686972
vn -0.441725 -0.243049 0.863582
vn -0.957823 -0.243049 -0.153264
vn -0.150212 -0.243049 -0.958281
vn 0.864986 -0.243049 -0.438978
vn 0.276376 0.447218 0.850642
vn 0.491531 0.503800 0.710288
vn 0.230781 0.664968 0.710288
vn -0.723594 0.447218 0.525712
vn -0.523637 0.503800 0.686972
vn -0.604205 0.664968 0.438978
vn -0.723594 0.447218 -0.525712
vn -0.815180 0.503800 -0.285714
vn -0.604205 0.664968 -0.438978
vn 0.276376 0.447218 -0.850642
vn 0.019837 0.503800 -0.863552
vn 0.230781 0.664968 -0.710288
vn 0.894406 0.447188 0.000000
vn 0.827448 0.503800 -0.247963
vn 0.746849 0.664968 0.000000
vn -0.230781 -0.664968 0.710288
vn -0.162450 -0.850642 0.499985
vn 0.059206 -0.727531 0.683493
vn 0.140629 -0.890408 0.432844
vn 0.262856 -0.525712 0.808985
vn 0.353832 -0.727531 0.587725
vn 0.523637 -0.503800 0.686972
vn 0.425306 -0.850642 0.309000
vn 0.815180 -0.503800 -0.285714
vn 0.604205 -0.664968 -0.438978
vn 0.850642 -0.525712 0.000000
vn 0.668325 -0.727531 -0.154881
vn 0.668325 -0.727531 0.154881
vn 0.425306 -0.850642 -0.309000
vn 0.455123 -0.890408 0.000000
vn -0.746849 -0.664968 0.000000
vn -0.525712 -0.850642 0.000000
vn -0.631733 -0.727531 0.267495
vn -0.368206 -0.890408 0.267495
vn -0.688162 -0.525712 0.499985
vn -0.449629 -0.727531 0.518143
vn -0.491531 -0.503800 0.710288
vn -0.230781 -0.664968 -0.710288
vn -0.162450 -0.850642 -0.499985
vn -0.449629 -0.727531 -0.518143
vn -0.368206 -0.890408 -0.267495
vn -0.688162 -0.525712 -0.499985
vn -0.631733 -0.727531 -0.267495
vn -0.827448 -0.503800 -0.247963
vn 0.353832 -0.727531 -0.587725
vn 0.140629 -0.890408 -0.432844
vn 0.262856 -0.525712 -0.808985
vn 0.059206 -0.727531 -0.683493
vn -0.019837 -0.503800 -0.863552
vn 0.957823 0.243049 0.153264
vn 0.957823 0.243049 -0.153264
vn 0.951048 0.000000 0.309000
vn 0.999939 -0.008850 0.000000
vn 0.949614 -0.272408 0.154881
vn 0.951048 0.000000 -0.309000
vn 0.949614 -0.272408 -0.154881
vn 0.150212 0.243049 0.958281
vn 0.441725 0.243049 0.863582
vn 0.000000 0.000000 1.000000
vn 0.309000 -0.008850 0.951018
vn 0.146123 -0.272408 0.950987
vn 0.587756 0.000000 0.809015
vn 0.440748 -0.272408 0.855251
vn -0.864986 0.243049 0.438978
vn -0.684805 0.243049 0.686972
vn -0.951048 0.000000 0.309000
vn -0.808985 -0.008850 0.587756
vn -0.859310 -0.272408 0.432844
vn -0.587756 0.000000 0.809015
vn -0.677206 -0.272408 0.683493
vn -0.684805 0.243049 -0.686972
vn -0.864986 0.243049 -0.438978
vn -0.587756 0.000000 -0.809015
vn -0.808985 -0.008850 -0.587756
vn -0.677206 -0.272408 -0.683493
vn -0.951048 0.000000 -0.309000
vn -0.859310 -0.272408 -0.432844
vn 0.441725 0.243049 -0.863582
vn 0.150212 0.243049 -0.958281
vn 0.587756 0.000000 -0.809015
vn 0.309000 -0.008850 -0.951018
vn 0.440748 -0.272408 -0.855251
vn 0.000000 0.000000 -1.000000
vn 0.146123 -0.272408 -0.950987
vn 0.677206 0.272408 0.683493
vn 0.808985 0.008850 0.587756
vn 0.688162 0.525712 0.499985
vn 0.859310 0.272408 0.432844
vn 0.827448 0.503800 0.247963
vn -0.440748 0.272408 0.855251
vn -0.309000 0.008850 0.951018
vn -0.262856 0.525712 0.808985
vn -0.146123 0.272408 0.951018
vn 0.019837 0.503800 0.863552
vn -0.949614 0.272408 -0.154881
vn -0.999939 0.008850 0.000000
vn -0.850642 0.525712 0.000000
vn -0.949614 0.272408 0.154881
vn -0.815180 0.503800 0.285714
vn -0.146123 0.272408 -0.950987
vn -0.309000 0.008850 -0.951018
vn -0.262856 0.525712 -0.808985
vn -0.440748 0.272408 -0.855251
vn -0.523637 0.503800 -0.686972
vn 0.859310 0.272408 -0.432844
vn 0.808985 0.008850 -0.587756
vn 0.688162 0.525712 -0.499985
vn 0.677206 0.272408 -0.683493
vn 0.491531 0.503800 -0.710288
vn 0.080569 0.965392 0.247963
vn 0.260750 0.965392 0.000000
vn 0.000000 1.000000 0.000000
vn 0.162450 0.850642 0.499985
vn 0.368206 0.890408 0.267495
vn 0.449629 0.727531 0.518143
vn 0.525712 0.850642 0.000000
vn 0.631733 0.727531 0.267495
vn -0.210944 0.965392 0.153264
vn -0.425306 0.850642 0.309000
vn -0.140629 0.890408 0.432844
vn -0.353832 0.727531 0.587725
vn -0.059206 0.727531 0.683493
vn -0.210944 0.965392 -0.153264
vn -0.425306 0.850642 -0.309000
vn -0.455123 0.890408 0.000000
vn -0.668325 0.727531 -0.154881
vn -0.668325 0.727531 0.154881
vn 0.080569 0.965392 -0.247963
vn 0.162450 0.850642 -0.499985
vn -0.140629 0.890408 -0.432844
vn -0.059206 0.727531 -0.683493
vn -0.353832 0.727531 -0.587725
vn 0.368206 0.890408 -0.267495
vn 0.631733 0.727531 -0.267495
vn 0.449629 0.727531 -0.518143
s 1
f 1/1/1 2/2/2 3/3/3
f 4/4/4 5/5/5 6/6/6
f 1/7/1 3/3/3 7/8/7
f 1/7/1 7/8/7 8/9/8
f 1/1/1 8/10/8 9/11/9
f 4/4/4 6/6/6 10/12/10
f 11/13/11 12/14/12 13/15/13
f 14/16/14 15/17/15 16/18/16
f 17/19/17 18/20/18 19/21/19
f 20/22/20 21/23/21 22/24/22
f 4/4/4 10/12/10 23/25/23
f 11/13/11 13/15/13 24/26/24
f 14/16/14 16/18/16 25/27/25
f 17/19/17 19/21/19 26/28/26
f 20/22/20 22/24/22 27/29/27
f 28/30/28 29/31/29 30/32/30
f 31/33/31 32/34/32 33/35/33
f 34/36/34 35/37/35 36/38/36
f 37/39/37 38/40/38 39/41/39
f 40/42/40 41/43/41 42/44/42
f 43/45/43 12/14/12 11/13/11
f 44/46/44 45/47/45 43/45/43
f 3/3/3 46/48/46 44/46/44
f 43/45/43 45/47/45 12/14/12
f 45/47/45 47/49/47 12/14/12
f 44/46/44 46/48/46 45/47/45
f 46/48/46 48/50/48 45/47/45
f 45/47/45 48/50/48 47/49/47
f 48/50/48 49/51/49 47/49/47
f 3/3/3 2/2/2 46/48/46
f 2/2/2 50/52/50 46/48/46
f 46/48/46 50/52/50 48/50/48
f 50/52/50 5/5/5 48/50/48
f 48/50/48 5/5/5 49/51/49
f 5/5/5 4/4/4 49/51/49
f 51/53/51 52/54/52 20/22/20
f 53/55/53 54/56/54 51/53/51
f 6/6/6 55/57/55 53/55/53
f 51/53/51 54/56/54 52/54/52
f 54/56/54 56/58/56 52/54/52
f 53/55/53 55/57/55 54/56/54
f 55/57/55 57/59/57 54/56/54
f 54/56/54 57/59/57 56/58/56
f 57/59/57 9/11/9 56/58/56
f 6/6/6 5/5/5 55/57/55
f 5/5/5 50/52/50 55/57/55
f 55/57/55 50/52/50 57/59/57
f 50/52/50 2/2/2 57/59/57
f 57/59/57 2/2/2 9/11/9
f 2/2/2 1/1/1 9/11/9
f 58/60/58 15/17/15 14/16/14
f 59/61/59 60/62/60 58/60/58
f 7/8/7 61/63/61 59/61/59
f 58/60/58 60/62/60 15/17/15
f 60/62/60 62/64/62 15/17/15
f 59/61/59 61/63/61 60/62/60
f 61/63/61 63/65/63 60/62/60
f 60/62/60 63/65/63 62/64/62
f 63/65/63 64/66/64 62/64/62
f 7/8/7 3/3/3 61/63/61
f 3/3/3 44/46/44 61/63/61
f 61/63/61 44/46/44 63/65/63
f 44/46/44 43/45/43 63/65/63
f 63/65/63 43/45/43 64/66/64
f 43/45/43 11/13/11 64/66/64
f 65/67/65 18/20/18 17/19/17
f 66/68/66 67/69/67 65/67/65
f 8/9/8 68/70/68 66/68/66
f 65/67/65 67/69/67 18/20/18
f 67/69/67 69/71/69 18/20/18
f 66/68/66 68/70/68 67/69/67
f 68/70/68 70/72/70 67/69/67
f 67/69/67 70/72/70 69/71/69
f 70/72/70 71/73/71 69/71/69
f 8/9/8 7/8/7 68/70/68
f 7/8/7 59/61/59 68/70/68
f 68/70/68 59/61/59 70/72/70
f 59/61/59 58/60/58 70/72/70
f 70/72/70 58/60/58 71/73/71
f 58/60/58 14/16/14 71/73/71
f 52/54/52 21/23/21 20/22/20
f 56/58/56 72/74/72 52/54/52
f 9/11/9 73/75/73 56/58/56
f 52/54/52 72/74/72 21/23/21
f 72/74/72 74/76/74 21/23/21
f 56/58/56 73/75/73 72/74/72
f 73/75/73 75/77/75 72/74/72
f 72/74/72 75/77/75 74/76/74
f 75/77/75 76/78/76 74/76/74
f 9/11/9 8/10/8 73/75/73
f 8/10/8 66/79/66 73/75/73
f 73/75/73 66/79/66 75/77/75
f 66/79/66 65/80/65 75/77/75
f 75/77/75 65/80/65 76/78/76
f 65/67/65 17/19/17 76/81/76
f 77/82/77 78/83/78 40/42/40
f 79/84/79 80/85/80 77/82/77
f 10/12/10 81/86/81 79/84/79
f 77/82/77 80/85/80 78/83/78
f 80/85/80 82/87/82 78/83/78
f 79/84/79 81/86/81 80/85/80
f 81/86/81 83/88/83 80/85/80
f 80/85/80 83/88/83 82/87/82
f 83/88/83 27/29/27 82/87/82
f 10/12/10 6/6/6 81/86/81
f 6/6/6 53/55/53 81/86/81
f 81/86/81 53/55/53 83/88/83
f 53/55/53 51/53/51 83/88/83
f 83/88/83 51/53/51 27/29/27
f 51/53/51 20/22/20 27/29/27
f 84/89/84 85/90/85 28/30/28
f 86/91/86 87/92/87 84/89/84
f 13/15/13 88/93/88 86/91/86
f 84/89/84 87/92/87 85/90/85
f 87/92/87 89/94/89 85/90/85
f 86/91/86 88/93/88 87/92/87
f 88/93/88 90/95/90 87/92/87
f 87/92/87 90/95/90 89/94/89
f 90/95/90 23/25/23 89/94/89
f 13/15/13 12/14/12 88/93/88
f 12/14/12 47/49/47 88/93/88
f 88/93/88 47/49/47 90/95/90
f 47/49/47 49/51/49 90/95/90
f 90/95/90 49/51/49 23/25/23
f 49/51/49 4/4/4 23/25/23
f 91/96/91 92/97/92 31/33/31
f 93/98/93 94/99/94 91/96/91
f 16/18/16 95/100/95 93/98/93
f 91/96/91 94/99/94 92/97/92
f 94/99/94 96/101/96 92/97/92
f 93/98/93 95/100/95 94/99/94
f 95/100/95 97/102/97 94/99/94
f 94/99/94 97/102/97 96/101/96
f 97/102/97 24/26/24 96/101/96
f 16/18/16 15/17/15 95/100/95
f 15/17/15 62/64/62 95/100/95
f 95/100/95 62/64/62 97/102/97
f 62/64/62 64/66/64 97/102/97
f 97/102/97 64/66/64 24/26/24
f 64/66/64 11/13/11 24/26/24
f 98/103/98 99/104/99 34/36/34
f 100/105/100 101/106/101 98/103/98
f 19/21/19 102/107/102 100/105/100
f 98/103/98 101/106/101 99/104/99
f 101/106/101 103/108/103 99/104/99
f 100/105/100 102/107/102 101/106/101
f 102/107/102 104/109/104 101/106/101
f 101/106/101 104/109/104 103/108/103
f 104/109/104 25/27/25 103/108/103
f 19/21/19 18/20/18 102/107/102
f 18/20/18 69/71/69 102/107/102
f 102/107/102 69/71/69 104/109/104
f 69/71/69 71/73/71 104/109/104
f 104/109/104 71/73/71 25/27/25
f 71/73/71 14/16/14 25/27/25
f 105/110/105 106/111/106 37/39/37
f 107/112/107 108/113/108 105/110/105
f 22/24/22 109/114/109 107/112/107
f 105/110/105 108/113/108 106/111/106
f 108/113/108 110/115/110 106/111/106
f 107/112/107 109/114/109 108/113/108
f 109/114/109 111/116/111 108/113/108
f 108/113/108 111/116/111 110/115/110
f 111/116/111 26/117/26 110/115/110
f 22/24/22 21/23/21 109/114/109
f 21/23/21 74/76/74 109/114/109
f 109/114/109 74/76/74 111/116/111
f 74/76/74 76/78/76 111/116/111
f 111/116/111 76/78/76 26/117/26
f 76/81/76 17/19/17 26/28/26
f 85/90/85 29/31/29 28/30/28
f 89/94/89 112/118/112 85/90/85
f 23/25/23 113/119/113 89/94/89
f 85/90/85 112/118/112 29/31/29
f 112/118/112 114/120/114 29/31/29
f 89/94/89 113/119/113 112/118/112
f 113/119/113 115/121/115 112/118/112
f 112/118/112 115/121/115 114/120/114
f 115/121/115 116/122/116 114/120/114
f 23/25/23 10/12/10 113/119/113
f 10/12/10 79/84/79 113/119/113
f 113/119/113 79/84/79 115/121/115
f 79/84/79 77/82/77 115/121/115
f 115/121/115 77/82/77 116/122/116
f 77/82/77 40/42/40 116/122/116
f 92/97/92 32/34/32 31/33/31
f 96/101/96 117/123/117 92/97/92
f 24/26/24 118/124/118 96/101/96
f 92/97/92 117/123/117 32/34/32
f 117/123/117 119/125/119 32/34/32
f 96/101/96 118/124/118 117/123/117
f 118/124/118 120/126/120 117/123/117
f 117/123/117 120/126/120 119/125/119
f 120/126/120 121/127/121 119/125/119
f 24/26/24 13/15/13 118/124/118
f 13/15/13 86/91/86 118/124/118
f 118/124/118 86/91/86 120/126/120
f 86/91/86 84/89/84 120/126/120
f 120/126/120 84/89/84 121/127/121
f 84/89/84 28/30/28 121/127/121
f 99/104/99 35/37/35 34/36/34
f 103/108/103 122/128/122 99/104/99
f 25/27/25 123/129/123 103/108/103
f 99/104/99 122/128/122 35/37/35
f 122/128/122 124/130/124 35/37/35
f 103/108/103 123/129/123 122/128/122
f 123/129/123 125/131/125 122/128/122
f 122/128/122 125/131/125 124/130/124
f 125/131/125 126/132/126 124/130/124
f 25/27/25 16/18/16 123/129/123
f 16/18/16 93/98/93 123/129/123
f 123/129/123 93/98/93 125/131/125
f 93/98/93 91/96/91 125/131/125
f 125/131/125 91/96/91 126/132/126
f 91/96/91 31/33/31 126/132/126
f 106/111/106 38/40/38 37/39/37
f 110/115/110 127/133/127 106/111/106
f 26/28/26 128/134/128 110/135/110
f 106/111/106 127/133/127 38/40/38
f 127/133/127 129/136/129 38/40/38
f 110/135/110 128/134/128 127/137/127
f 128/134/128 130/138/130 127/137/127
f 127/137/127 130/138/130 129/139/129
f 130/138/130 131/140/131 129/139/129
f 26/28/26 19/21/19 128/134/128
f 19/21/19 100/105/100 128/134/128
f 128/134/128 100/105/100 130/138/130
f 100/105/100 98/103/98 130/138/130
f 130/138/130 98/103/98 131/140/131
f 98/103/98 34/36/34 131/140/131
f 78/83/78 41/43/41 40/42/40
f 82/87/82 132/141/132 78/83/78
f 27/29/27 133/142/133 82/87/82
f 78/83/78 132/141/132 41/43/41
f 132/141/132 134/143/134 41/43/41
f 82/87/82 133/142/133 132/141/132
f 133/142/133 135/144/135 132/141/132
f 132/141/132 135/144/135 134/143/134
f 135/144/135 136/145/136 134/143/134
f 27/29/27 22/24/22 133/142/133
f 22/24/22 107/112/107 133/142/133
f 133/142/133 107/112/107 135/144/135
f 107/112/107 105/110/105 135/144/135
f 135/144/135 105/110/105 136/145/136
f 105/110/105 37/39/37 136/145/136
f 137/146/137 138/147/138 139/148/139
f 140/149/140 141/150/141 137/146/137
f 30/32/30 142/151/142 140/149/140
f 137/146/137 141/150/141 138/147/138
f 141/150/141 143/152/143 138/147/138
f 140/149/140 142/151/142 141/150/141
f 142/151/142 144/153/144 141/150/141
f 141/150/141 144/153/144 143/152/143
f 144/153/144 42/44/42 143/152/143
f 30/32/30 29/31/29 142/151/142
f 29/31/29 114/120/114 142/151/142
f 142/151/142 114/120/114 144/153/144
f 114/120/114 116/122/116 144/153/144
f 144/153/144 116/122/116 42/44/42
f 116/122/116 40/42/40 42/44/42
f 145/154/145 137/146/137 139/148/139
f 146/155/146 147/156/147 145/154/145
f 33/35/33 148/157/148 146/155/146
f 145/154/145 147/156/147 137/146/137
f 147/156/147 140/149/140 137/146/137
f 146/155/146 148/157/148 147/156/147
f 148/157/148 149/158/149 147/156/147
f 147/156/147 149/158/149 140/149/140
f 149/158/149 30/32/30 140/149/140
f 33/35/33 32/34/32 148/157/148
f 32/34/32 119/125/119 148/157/148
f 148/157/148 119/125/119 149/158/149
f 119/125/119 121/127/121 149/158/149
f 149/158/149 121/127/121 30/32/30
f 121/127/121 28/30/28 30/32/30
f 150/159/150 145/154/145 139/148/139
f 151/160/151 152/161/152 150/159/150
f 36/38/36 153/162/153 151/160/151
f 150/159/150 152/161/152 145/154/145
f 152/161/152 146/155/146 145/154/145
f 151/160/151 153/162/153 152/161/152
f 153/162/153 154/163/154 152/161/152
f 152/161/152 154/163/154 146/155/146
f 154/163/154 33/35/33 146/155/146
f 36/38/36 35/37/35 153/162/153
f 35/37/35 124/130/124 153/162/153
f 153/162/153 124/130/124 154/163/154
f 124/130/124 126/132/126 154/163/154
f 154/163/154 126/132/126 33/35/33
f 126/132/126 31/33/31 33/35/33
f 155/164/155 150/165/150 139/148/139
f 156/166/156 157/167/157 155/164/155
f 39/41/39 158/168/158 156/166/156
f 155/164/155 157/167/157 150/165/150
f 157/169/157 151/160/151 150/159/150
f 156/166/156 158/168/158 157/167/157
f 158/170/158 159/171/159 157/169/157
f 157/169/157 159/171/159 151/160/151
f 159/171/159 36/38/36 151/160/151
f 39/41/39 38/40/38 158/168/158
f 38/40/38 129/136/129 158/168/158
f 158/170/158 129/139/129 159/171/159
f 129/139/129 131/140/131 159/171/159
f 159/171/159 131/140/131 36/38/36
f 131/140/131 34/36/34 36/38/36
f 138/147/138 155/164/155 139/148/139
f 143/152/143 160/172/160 138/147/138
f 42/44/42 161/173/161 143/152/143
f 138/147/138 160/172/160 155/164/155
f 160/172/160 156/166/156 155/164/155
f 143/152/143 161/173/161 160/172/160
f 161/173/161 162/174/162 160/172/160
f 160/172/160 162/174/162 156/166/156
f 162/174/162 39/41/39 156/166/156
f 42/44/42 41/43/41 161/173/161
f 41/43/41 134/143/134 161/173/161
f 161/173/161 134/143/134 162/174/162
f 134/143/134 136/145/136 162/174/162
f 162/174/162 136/145/136 39/41/39
f 136/145/136 37/39/37 39/41/39
