ply
format ascii 1.0
comment Created by Blender 2.69 (sub 0) - www.blender.org, source file: 'world-unit-two-v3.blend'
element vertex 485
property float x
property float y
property float z
property float nx
property float ny
property float nz
property float s
property float t
property uchar red
property uchar green
property uchar blue
element face 228
property list uchar uint vertex_indices
end_header
-0.186811 0.501304 0.051672 0.044658 0.779353 0.624991 0.000000 0.000000 131 82 32
-0.241233 0.412765 0.165967 0.044658 0.779353 0.624991 0.000000 0.000000 131 82 32
-0.119837 0.409526 0.161331 0.044658 0.779353 0.624991 0.000000 0.000000 131 82 32
-0.191415 0.555088 -0.001344 0.923506 0.306452 0.230705 0.000000 0.000000 131 82 32
-0.186811 0.501304 0.051672 0.923506 0.306452 0.230705 0.000000 0.000000 131 82 32
-0.168116 0.484877 -0.001344 0.923506 0.306452 0.230705 0.000000 0.000000 131 82 32
-0.539996 -0.148025 -0.001344 -0.284432 -0.924397 -0.254145 0.000000 0.000000 131 82 32
-0.519851 -0.170199 0.056764 -0.284432 -0.924397 -0.254145 0.000000 0.000000 131 82 32
-0.612365 -0.125757 -0.001344 -0.284432 -0.924397 -0.254145 0.000000 0.000000 131 82 32
-0.612365 -0.125757 -0.001344 -0.243488 -0.946014 -0.213943 0.000000 0.000000 131 82 32
-0.647531 -0.124909 0.034926 -0.243488 -0.946014 -0.213943 0.000000 0.000000 131 82 32
-0.629156 -0.121436 -0.001344 -0.243488 -0.946014 -0.213943 0.000000 0.000000 131 82 32
-0.450624 0.015378 0.209855 -0.047365 -0.183874 0.981780 0.000000 0.000000 75 153 79
-0.585039 0.094869 0.250517 0.194067 -0.155095 0.968627 0.000000 0.000000 75 153 79
-0.696276 -0.097147 0.242578 0.274422 -0.706137 0.652699 0.000000 0.000000 75 153 79
-0.567605 -0.099277 0.152714 -0.002197 -0.831538 0.555406 0.000000 0.000000 75 153 79
-0.395473 -0.155990 0.168188 -0.156072 -0.727226 0.668386 0.000000 0.000000 75 153 79
-0.414922 -0.076938 0.207809 -0.167058 -0.313639 0.934721 0.000000 0.000000 75 153 79
-0.396471 0.168813 0.225704 0.050905 -0.010041 0.998627 0.000000 0.000000 75 153 79
-0.345210 0.069508 0.240846 -0.176550 -0.052980 0.982849 0.000000 0.000000 75 153 79
-0.261510 0.115417 0.251785 -0.015564 0.088443 0.995941 0.000000 0.000000 75 153 79
-0.187739 0.330009 0.202698 0.071963 0.304819 0.949675 0.000000 0.000000 75 154 79
-0.119837 0.409526 0.161331 0.236671 0.615253 0.751946 0.000000 0.000000 81 181 77
-0.241233 0.412765 0.165967 0.276955 0.415448 0.866390 0.000000 0.000000 81 181 77
-0.338519 0.311319 0.214625 0.214484 0.096286 0.971954 0.000000 0.000000 75 153 79
-0.241233 0.412765 0.165967 0.276955 0.415448 0.866390 0.000000 0.000000 75 153 79
-0.292181 0.505494 0.174029 0.802423 -0.124516 0.583575 0.000000 0.000000 75 155 79
-0.469335 0.314171 0.259787 0.329966 -0.085818 0.940062 0.000000 0.000000 75 153 79
-0.292181 0.505494 0.174029 0.802423 -0.124516 0.583575 0.000000 0.000000 75 153 79
-0.331661 0.474589 0.231675 0.698935 -0.451766 0.554399 0.000000 0.000000 75 153 79
-0.629156 -0.121436 -0.001344 0.364469 -0.926259 0.095950 0.000000 0.000000 131 82 32
-0.647531 -0.124909 0.034926 0.364469 -0.926259 0.095950 0.000000 0.000000 131 82 32
-0.635427 -0.123903 -0.001344 0.364469 -0.926259 0.095950 0.000000 0.000000 131 82 32
-0.666728 -0.119693 0.127298 0.140970 -0.964177 0.224698 0.000000 0.000000 131 82 32
-0.567605 -0.099277 0.152714 0.140970 -0.964177 0.224698 0.000000 0.000000 131 82 32
-0.696276 -0.097147 0.242578 0.140970 -0.964177 0.224698 0.000000 0.000000 131 82 32
-0.261104 0.646117 0.244492 0.859737 -0.344737 0.376812 0.000000 0.000000 75 154 79
-0.105079 -0.228614 0.119074 -0.178944 -0.930895 0.318454 0.000000 0.000000 132 83 33
-0.395473 -0.155990 0.168188 -0.178944 -0.930895 0.318454 0.000000 0.000000 131 83 33
-0.519851 -0.170199 0.056764 -0.178944 -0.930895 0.318454 0.000000 0.000000 131 82 32
0.348250 0.125285 -0.001344 0.310939 -0.133549 -0.941001 0.000000 0.000000 255 255 255
0.351018 0.111780 0.001487 0.310939 -0.133549 -0.941001 0.000000 0.000000 255 255 255
0.339967 0.106001 -0.001344 0.310939 -0.133549 -0.941001 0.000000 0.000000 255 255 255
0.288211 -0.040400 -0.001344 0.890318 -0.433728 -0.138617 0.000000 0.000000 131 82 32
0.297997 -0.034338 0.042547 0.890318 -0.433728 -0.138617 0.000000 0.000000 131 82 32
0.232052 -0.155678 -0.001344 0.890318 -0.433728 -0.138617 0.000000 0.000000 131 82 32
0.054734 -0.199859 0.097298 0.218218 -0.850866 0.477921 0.000000 0.000000 131 82 32
-0.105079 -0.228614 0.119074 0.218218 -0.850866 0.477921 0.000000 0.000000 132 83 33
-0.053678 -0.255208 0.048258 0.218218 -0.850866 0.477921 0.000000 0.000000 131 82 32
0.110410 -0.235586 -0.001344 0.064480 -0.982400 -0.175308 0.000000 0.000000 131 82 32
-0.053678 -0.255208 0.048258 0.064480 -0.982400 -0.175308 0.000000 0.000000 131 82 32
-0.013189 -0.243699 -0.001344 0.064480 -0.982400 -0.175308 0.000000 0.000000 131 82 32
0.217805 -0.161528 0.097187 0.229979 -0.881674 0.412021 0.000000 0.000000 131 82 32
-0.053678 -0.255208 0.048258 0.229979 -0.881674 0.412021 0.000000 0.000000 131 82 32
0.110410 -0.235586 -0.001344 0.229979 -0.881674 0.412021 0.000000 0.000000 131 82 32
0.281364 0.085914 0.096638 0.376202 0.028871 0.926054 0.000000 0.000000 81 181 77
0.216643 0.107050 0.092538 0.329753 0.609180 0.721183 0.000000 0.000000 81 181 77
0.154448 0.018162 0.127910 0.358562 -0.038942 0.932676 0.000000 0.000000 81 181 77
-0.039281 -0.186604 0.155291 0.205512 -0.562731 0.800653 0.000000 0.000000 81 181 77
0.054734 -0.199859 0.097298 0.252174 -0.702902 0.665059 0.000000 0.000000 81 181 77
0.108720 -0.097163 0.132181 0.248024 -0.246986 0.936735 0.000000 0.000000 80 176 77
-0.105079 -0.228614 0.119074 -0.019410 -0.850642 0.525376 0.000000 0.000000 81 181 77
0.244078 -0.088764 0.112135 0.569811 -0.228523 0.789331 0.000000 0.000000 81 181 77
0.217805 -0.161528 0.097187 0.526566 -0.590320 0.611744 0.000000 0.000000 81 181 77
0.232052 -0.155678 -0.001344 0.859938 -0.501562 0.094560 0.000000 0.000000 131 82 32
0.297997 -0.034338 0.042547 0.859938 -0.501562 0.094560 0.000000 0.000000 131 82 32
0.217805 -0.161528 0.097187 0.859938 -0.501562 0.094560 0.000000 0.000000 131 82 32
0.217805 -0.161528 0.097187 0.850975 -0.381433 0.361039 0.000000 0.000000 131 82 32
0.297997 -0.034338 0.042547 0.850975 -0.381433 0.361039 0.000000 0.000000 131 82 32
0.244078 -0.088764 0.112135 0.850975 -0.381433 0.361039 0.000000 0.000000 131 82 32
0.351018 0.111780 0.001487 0.495282 -0.841657 -0.215196 0.000000 0.000000 131 82 32
0.305151 0.070036 0.059187 0.495282 -0.841657 -0.215196 0.000000 0.000000 131 82 32
0.339967 0.106001 -0.001344 0.495282 -0.841657 -0.215196 0.000000 0.000000 131 82 32
0.305151 0.070036 0.059187 0.745689 -0.655690 0.118401 0.000000 0.000000 131 82 32
0.351018 0.111780 0.001487 0.745689 -0.655690 0.118401 0.000000 0.000000 131 82 32
0.354447 0.128422 0.072052 0.745689 -0.655690 0.118401 0.000000 0.000000 131 82 32
0.354447 0.128422 0.072052 0.546818 0.360538 0.755647 0.000000 0.000000 131 82 32
0.448888 0.129746 0.003079 0.546818 0.360538 0.755647 0.000000 0.000000 131 82 32
0.338453 0.151703 0.072518 0.546818 0.360538 0.755647 0.000000 0.000000 131 82 32
0.281364 0.085914 0.096638 0.813250 -0.123135 0.568738 0.000000 0.000000 131 82 32
0.244078 -0.088764 0.112135 0.813250 -0.123135 0.568738 0.000000 0.000000 131 82 32
0.305151 0.070036 0.059187 0.813250 -0.123135 0.568738 0.000000 0.000000 131 82 32
0.295000 0.057523 -0.001344 0.975740 -0.067648 -0.208221 0.000000 0.000000 131 82 32
0.297997 -0.034338 0.042547 0.975740 -0.067648 -0.208221 0.000000 0.000000 131 82 32
0.288211 -0.040400 -0.001344 0.975740 -0.067648 -0.208221 0.000000 0.000000 131 82 32
0.338453 0.151703 0.072518 0.105716 0.815485 0.569018 0.000000 0.000000 82 181 78
0.354447 0.128422 0.072052 0.544028 -0.590655 0.595953 0.000000 0.000000 131 82 32
0.281364 0.085914 0.096638 0.544028 -0.590655 0.595953 0.000000 0.000000 131 82 32
0.305151 0.070036 0.059187 0.544028 -0.590655 0.595953 0.000000 0.000000 131 82 32
0.252038 0.118072 -0.001344 -0.347118 0.937591 -0.020797 0.000000 0.000000 131 82 32
0.216643 0.107050 0.092538 -0.347118 0.937591 -0.020797 0.000000 0.000000 131 82 32
0.269368 0.124488 -0.001344 -0.347118 0.937591 -0.020797 0.000000 0.000000 131 82 32
0.269368 0.124488 -0.001344 -0.275158 0.956681 -0.095133 0.000000 0.000000 131 82 32
0.338453 0.151703 0.072518 -0.275158 0.956681 -0.095133 0.000000 0.000000 131 82 32
0.343787 0.145892 -0.001344 -0.275158 0.956681 -0.095133 0.000000 0.000000 131 82 32
-0.253134 -0.198251 -0.001344 -0.164445 -0.939212 -0.301394 0.000000 0.000000 131 82 32
-0.519851 -0.170199 0.056764 -0.164445 -0.939212 -0.301394 0.000000 0.000000 131 82 32
-0.539996 -0.148025 -0.001344 -0.164445 -0.939212 -0.301394 0.000000 0.000000 131 82 32
-0.237120 0.053201 0.249869 0.030366 -0.143193 0.989227 0.000000 0.000000 75 153 79
-0.147592 0.163828 0.232638 0.062990 0.176824 0.982208 0.000000 0.000000 75 153 79
-0.085978 -0.112083 0.189628 0.125645 -0.324351 0.937529 0.000000 0.000000 75 153 79
-0.056130 0.037583 0.222193 0.232978 -0.188147 0.954100 0.000000 0.000000 75 153 79
-0.008632 0.160879 0.229941 0.262368 0.096652 0.960082 0.000000 0.000000 81 181 77
0.088338 0.149395 0.185731 0.530808 0.129460 0.837519 0.000000 0.000000 84 182 80
-0.414922 -0.076938 0.207809 -0.167058 -0.313639 0.934721 0.000000 0.000000 81 181 77
-0.067087 0.300883 0.191901 0.299142 0.370922 0.879147 0.000000 0.000000 82 182 78
0.048151 0.200334 0.190912 0.557512 0.471145 0.683462 0.000000 0.000000 81 181 77
0.359856 0.113206 -0.001344 -0.258878 -0.248748 -0.933331 0.000000 0.000000 255 255 255
0.351018 0.111780 0.001487 -0.258878 -0.248748 -0.933331 0.000000 0.000000 255 255 255
0.348250 0.125285 -0.001344 -0.258878 -0.248748 -0.933331 0.000000 0.000000 255 255 255
0.448888 0.129746 0.003079 0.172778 -0.960504 0.218127 0.000000 0.000000 131 82 32
0.354447 0.128422 0.072052 0.172778 -0.960504 0.218127 0.000000 0.000000 131 82 32
0.351018 0.111780 0.001487 0.172778 -0.960504 0.218127 0.000000 0.000000 131 82 32
0.395447 0.137809 -0.001344 0.161124 0.970985 -0.176710 0.000000 0.000000 255 255 255
0.448888 0.129746 0.003079 0.161124 0.970985 -0.176710 0.000000 0.000000 255 255 255
0.447417 0.129186 -0.001344 0.161124 0.970985 -0.176710 0.000000 0.000000 255 255 255
0.343787 0.145892 -0.001344 0.154232 0.985800 -0.066416 0.000000 0.000000 131 82 32
0.338453 0.151703 0.072518 0.154232 0.985800 -0.066416 0.000000 0.000000 131 82 32
0.395447 0.137809 -0.001344 0.154232 0.985800 -0.066416 0.000000 0.000000 131 82 32
-0.067087 0.300883 0.191901 0.299142 0.370922 0.879147 0.000000 0.000000 81 181 77
-0.021991 0.430555 0.088613 0.088534 0.713187 0.695334 0.000000 0.000000 81 181 77
0.001536 0.318646 0.132131 0.744560 0.386608 0.544145 0.000000 0.000000 81 181 77
0.018371 0.379874 0.092121 0.779321 -0.014039 0.626423 0.000000 0.000000 81 181 77
0.001536 0.318646 0.132131 0.840705 0.467225 0.273708 0.000000 0.000000 131 82 32
0.048151 0.200334 0.190912 0.840705 0.467225 0.273708 0.000000 0.000000 131 82 32
0.080477 0.236308 0.030214 0.840705 0.467225 0.273708 0.000000 0.000000 131 82 32
0.018371 0.379874 0.092121 0.972768 -0.154647 0.172649 0.000000 0.000000 131 82 32
0.001536 0.318646 0.132131 0.972768 -0.154647 0.172649 0.000000 0.000000 131 82 32
0.034650 0.377927 -0.001344 0.972768 -0.154647 0.172649 0.000000 0.000000 131 82 32
-0.032781 0.462540 0.001828 0.050713 0.939124 0.339814 0.000000 0.000000 131 82 32
-0.119837 0.409526 0.161331 0.050713 0.939124 0.339814 0.000000 0.000000 131 82 32
-0.021991 0.430555 0.088613 0.050713 0.939124 0.339814 0.000000 0.000000 131 82 32
0.057311 0.482248 0.058239 0.939780 0.186798 0.286215 0.000000 0.000000 131 82 32
0.059366 0.435024 0.082313 0.939780 0.186798 0.286215 0.000000 0.000000 131 82 32
0.079201 0.443597 0.011588 0.939780 0.186798 0.286215 0.000000 0.000000 131 82 32
0.059366 0.435024 0.082313 0.101703 0.100415 0.989734 0.000000 0.000000 131 82 32
0.036876 0.460535 0.082036 0.101703 0.100415 0.989734 0.000000 0.000000 131 82 32
0.018371 0.379874 0.092121 0.101703 0.100415 0.989734 0.000000 0.000000 131 82 32
0.068431 0.457167 -0.001344 0.663931 -0.167599 -0.728770 0.000000 0.000000 255 255 255
0.079201 0.443597 0.011588 0.663931 -0.167599 -0.728770 0.000000 0.000000 255 255 255
0.065487 0.445502 -0.001344 0.663931 -0.167599 -0.728770 0.000000 0.000000 255 255 255
-0.186811 0.501304 0.051672 0.717892 0.341700 0.606524 0.000000 0.000000 131 82 32
-0.292181 0.505494 0.174029 0.717892 0.341700 0.606524 0.000000 0.000000 131 82 32
-0.241233 0.412765 0.165967 0.717892 0.341700 0.606524 0.000000 0.000000 131 82 32
-0.186811 0.501304 0.051672 0.754882 0.111875 0.646249 0.000000 0.000000 131 82 32
-0.221078 0.616166 0.071814 0.754882 0.111875 0.646249 0.000000 0.000000 131 82 32
-0.292181 0.505494 0.174029 0.754882 0.111875 0.646249 0.000000 0.000000 131 82 32
-0.221078 0.616166 0.071814 0.951548 0.253298 0.174345 0.000000 0.000000 131 82 32
-0.186811 0.501304 0.051672 0.951548 0.253298 0.174345 0.000000 0.000000 131 82 32
-0.191415 0.555088 -0.001344 0.951548 0.253298 0.174345 0.000000 0.000000 131 82 32
-0.567605 -0.099277 0.152714 -0.315072 -0.831397 0.457721 0.000000 0.000000 131 82 32
-0.519851 -0.170199 0.056764 -0.315072 -0.831397 0.457721 0.000000 0.000000 131 82 32
-0.395473 -0.155990 0.168188 -0.315072 -0.831397 0.457721 0.000000 0.000000 131 83 33
-0.519851 -0.170199 0.056764 -0.366278 -0.826074 0.428302 0.000000 0.000000 131 82 32
-0.567605 -0.099277 0.152714 -0.366278 -0.826074 0.428302 0.000000 0.000000 131 82 32
-0.647531 -0.124909 0.034926 -0.366278 -0.826074 0.428302 0.000000 0.000000 131 82 32
-0.666728 -0.119693 0.127298 0.178100 -0.979671 0.092337 0.000000 0.000000 131 82 32
-0.647531 -0.124909 0.034926 0.178100 -0.979671 0.092337 0.000000 0.000000 131 82 32
-0.567605 -0.099277 0.152714 0.178100 -0.979671 0.092337 0.000000 0.000000 131 82 32
-0.221078 0.616166 0.071814 0.903929 -0.333764 0.267422 0.000000 0.000000 131 82 32
-0.261104 0.646117 0.244492 0.903929 -0.333764 0.267422 0.000000 0.000000 131 82 32
-0.292181 0.505494 0.174029 0.903929 -0.333764 0.267422 0.000000 0.000000 131 82 32
-0.395473 -0.155990 0.168188 -0.156072 -0.727226 0.668386 0.000000 0.000000 81 181 77
0.049924 0.275143 -0.001344 0.852491 0.434390 -0.290801 0.000000 0.000000 131 82 32
0.080477 0.236308 0.030214 0.852491 0.434390 -0.290801 0.000000 0.000000 131 82 32
0.085706 0.204921 -0.001344 0.852491 0.434390 -0.290801 0.000000 0.000000 131 82 32
0.080477 0.236308 0.030214 0.577789 0.763968 0.287250 0.000000 0.000000 131 82 32
0.048151 0.200334 0.190912 0.577789 0.763968 0.287250 0.000000 0.000000 131 82 32
0.204936 0.154046 -0.001344 0.577789 0.763968 0.287250 0.000000 0.000000 131 82 32
0.252038 0.118072 -0.001344 0.592772 0.743020 0.310712 0.000000 0.000000 131 82 32
0.243593 0.124810 -0.001344 0.592772 0.743020 0.310712 0.000000 0.000000 131 82 32
0.216643 0.107050 0.092538 0.592772 0.743020 0.310712 0.000000 0.000000 131 82 32
0.085706 0.204921 -0.001344 0.299065 0.700885 -0.647550 0.000000 0.000000 131 82 32
0.080477 0.236308 0.030214 0.299065 0.700885 -0.647550 0.000000 0.000000 131 82 32
0.204936 0.154046 -0.001344 0.299065 0.700885 -0.647550 0.000000 0.000000 131 82 32
0.054734 -0.199859 0.097298 0.197238 -0.837639 0.509371 0.000000 0.000000 131 82 32
-0.053678 -0.255208 0.048258 0.197238 -0.837639 0.509371 0.000000 0.000000 131 82 32
0.217805 -0.161528 0.097187 0.197238 -0.837639 0.509371 0.000000 0.000000 131 82 32
0.297997 -0.034338 0.042547 0.833219 -0.142291 0.534321 0.000000 0.000000 131 82 32
0.305151 0.070036 0.059187 0.833219 -0.142291 0.534321 0.000000 0.000000 131 82 32
0.244078 -0.088764 0.112135 0.833219 -0.142291 0.534321 0.000000 0.000000 131 82 32
0.305151 0.070036 0.059187 0.986731 -0.042654 -0.156662 0.000000 0.000000 131 82 32
0.297997 -0.034338 0.042547 0.986731 -0.042654 -0.156662 0.000000 0.000000 131 82 32
0.295000 0.057523 -0.001344 0.986731 -0.042654 -0.156662 0.000000 0.000000 131 82 32
0.354447 0.128422 0.072052 0.595019 -0.236671 0.768059 0.000000 0.000000 81 181 77
0.338453 0.151703 0.072518 0.105716 0.815485 0.569018 0.000000 0.000000 81 181 77
-0.013189 -0.243699 -0.001344 -0.173970 -0.918490 -0.355120 0.000000 0.000000 131 82 32
-0.053678 -0.255208 0.048258 -0.173970 -0.918490 -0.355120 0.000000 0.000000 131 82 32
-0.253134 -0.198251 -0.001344 -0.173970 -0.918490 -0.355120 0.000000 0.000000 131 82 32
-0.519851 -0.170199 0.056764 -0.170172 -0.956788 0.235792 0.000000 0.000000 131 82 32
-0.053678 -0.255208 0.048258 -0.170172 -0.956788 0.235792 0.000000 0.000000 131 82 32
-0.105079 -0.228614 0.119074 -0.170172 -0.956788 0.235792 0.000000 0.000000 132 83 33
0.448888 0.129746 0.003079 0.179157 -0.981677 0.064910 0.000000 0.000000 255 255 255
0.351018 0.111780 0.001487 0.179157 -0.981677 0.064910 0.000000 0.000000 255 255 255
0.359856 0.113206 -0.001344 0.179157 -0.981677 0.064910 0.000000 0.000000 255 255 255
0.036876 0.460535 0.082036 -0.002319 0.574908 0.818201 0.000000 0.000000 81 181 77
0.033055 0.294874 -0.001344 0.758552 0.648499 0.063627 0.000000 0.000000 131 82 32
0.001536 0.318646 0.132131 0.758552 0.648499 0.063627 0.000000 0.000000 131 82 32
0.080477 0.236308 0.030214 0.758552 0.648499 0.063627 0.000000 0.000000 131 82 32
0.034650 0.377927 -0.001344 0.972315 -0.018671 0.232927 0.000000 0.000000 131 82 32
0.001536 0.318646 0.132131 0.972315 -0.018671 0.232927 0.000000 0.000000 131 82 32
0.033055 0.294874 -0.001344 0.972315 -0.018671 0.232927 0.000000 0.000000 131 82 32
-0.168116 0.484877 -0.001344 0.163575 0.957168 -0.238899 0.000000 0.000000 131 82 32
-0.186811 0.501304 0.051672 0.163575 0.957168 -0.238899 0.000000 0.000000 131 82 32
-0.032781 0.462540 0.001828 0.163575 0.957168 -0.238899 0.000000 0.000000 131 82 32
-0.032781 0.462540 0.001828 0.354354 0.812235 0.463365 0.000000 0.000000 131 82 32
-0.186811 0.501304 0.051672 0.354354 0.812235 0.463365 0.000000 0.000000 131 82 32
-0.119837 0.409526 0.161331 0.354354 0.812235 0.463365 0.000000 0.000000 131 82 32
-0.035245 0.462170 -0.001344 0.046194 0.987416 -0.151250 0.000000 0.000000 255 255 255
-0.032781 0.462540 0.001828 0.046194 0.987416 -0.151250 0.000000 0.000000 255 255 255
-0.029803 0.461915 -0.001344 0.046194 0.987416 -0.151250 0.000000 0.000000 255 255 255
0.057311 0.482248 0.058239 0.464665 0.418129 0.780548 0.000000 0.000000 131 82 32
0.036876 0.460535 0.082036 0.464665 0.418129 0.780548 0.000000 0.000000 131 82 32
0.059366 0.435024 0.082313 0.464665 0.418129 0.780548 0.000000 0.000000 131 82 32
0.055214 0.476230 -0.001344 0.818728 0.567681 -0.086151 0.000000 0.000000 131 82 32
0.057311 0.482248 0.058239 0.818728 0.567681 -0.086151 0.000000 0.000000 131 82 32
0.068431 0.457167 -0.001344 0.818728 0.567681 -0.086151 0.000000 0.000000 131 82 32
0.065487 0.445502 -0.001344 0.644773 -0.253514 -0.721109 0.000000 0.000000 255 255 255
0.079201 0.443597 0.011588 0.644773 -0.253514 -0.721109 0.000000 0.000000 255 255 255
0.045006 0.393412 -0.001344 0.644773 -0.253514 -0.721109 0.000000 0.000000 255 255 255
0.079201 0.443597 0.011588 0.800196 -0.582269 0.143697 0.000000 0.000000 131 82 32
0.018371 0.379874 0.092121 0.800196 -0.582269 0.143697 0.000000 0.000000 131 82 32
0.045006 0.393412 -0.001344 0.800196 -0.582269 0.143697 0.000000 0.000000 131 82 32
0.018371 0.379874 0.092121 0.805783 -0.571085 0.156767 0.000000 0.000000 131 82 32
0.079201 0.443597 0.011588 0.805783 -0.571085 0.156767 0.000000 0.000000 131 82 32
0.059366 0.435024 0.082313 0.805783 -0.571085 0.156767 0.000000 0.000000 131 82 32
-0.032781 0.462540 0.001828 -0.058092 0.967706 -0.245296 0.000000 0.000000 122 86 48
0.057311 0.482248 0.058239 -0.058092 0.967706 -0.245296 0.000000 0.000000 122 86 48
0.033774 0.465732 -0.001344 -0.058092 0.967706 -0.245296 0.000000 0.000000 123 88 50
-0.032781 0.462540 0.001828 -0.408818 0.838645 0.359919 0.000000 0.000000 122 86 48
-0.021991 0.430555 0.088613 -0.408818 0.838645 0.359919 0.000000 0.000000 122 86 48
0.057311 0.482248 0.058239 -0.408818 0.838645 0.359919 0.000000 0.000000 122 86 48
0.057311 0.482248 0.058239 -0.370464 0.822219 0.432102 0.000000 0.000000 122 86 48
-0.021991 0.430555 0.088613 -0.370464 0.822219 0.432102 0.000000 0.000000 122 86 48
0.036876 0.460535 0.082036 -0.370464 0.822219 0.432102 0.000000 0.000000 122 86 49
0.033774 0.465732 -0.001344 -0.438522 0.895584 -0.075022 0.000000 0.000000 123 88 50
0.057311 0.482248 0.058239 -0.438522 0.895584 -0.075022 0.000000 0.000000 122 86 48
0.055214 0.476230 -0.001344 -0.438522 0.895584 -0.075022 0.000000 0.000000 122 86 48
0.433012 -0.500000 0.000000 -0.000000 -0.000000 1.000000 0.000000 0.000000 0 251 255
0.866025 -0.500001 0.000000 -0.000000 -0.000000 1.000000 1.000000 0.000000 77 252 255
0.649519 -0.125001 0.000000 -0.000000 -0.000000 1.000000 1.000000 1.000000 10 251 255
-0.216506 0.625000 0.000000 -0.000000 -0.000000 1.000000 0.000000 0.000000 38 43 65
0.216507 0.625000 0.000000 -0.000000 -0.000000 1.000000 1.000000 0.000000 10 251 255
0.000001 1.000000 0.000000 -0.000000 -0.000000 1.000000 1.000000 1.000000 43 255 255
-0.649519 -0.124999 -0.000000 -0.000000 -0.000000 1.000000 0.000000 0.000000 38 43 64
-0.866026 -0.499999 -0.000000 -0.000000 -0.000000 1.000000 1.000000 0.000000 43 255 255
0.433012 -0.500000 0.000000 -0.000000 -0.000000 1.000000 1.000000 1.000000 0 251 255
-0.204481 0.604173 0.000000 -0.000000 -0.000000 1.000000 1.000000 0.981487 36 37 64
-0.191415 0.555088 0.000000 -0.000000 -0.000000 1.000000 0.982365 0.931978 36 37 64
-0.132159 0.478907 0.000000 -0.000000 -0.000000 1.000000 1.000000 0.870140 36 37 64
0.216507 0.625000 0.000000 -0.000000 0.000000 1.000000 1.000000 1.000000 10 251 255
-0.216506 0.625000 0.000000 -0.000000 0.000000 1.000000 0.000000 0.000000 36 37 64
0.055214 0.476230 0.000000 -0.000000 0.000000 1.000000 0.429150 0.230790 43 57 76
0.204936 0.154046 0.000000 -0.000000 -0.000000 1.000000 0.811601 0.466260 36 37 64
0.049924 0.275143 0.000000 -0.000000 -0.000000 1.000000 0.788227 0.639411 36 37 64
0.085706 0.204921 0.000000 -0.000000 -0.000000 1.000000 0.718478 0.580656 37 40 65
0.085223 0.470297 0.022707 -0.815224 -0.503334 0.286470 0.861818 0.603210 131 82 32
0.077499 0.492680 0.040054 -0.815224 -0.503334 0.286470 0.829747 0.659447 131 82 32
0.068908 0.474129 -0.016988 -0.815224 -0.503334 0.286470 0.801393 0.512585 131 82 32
0.136137 0.520812 0.004509 -0.212455 0.644282 -0.734686 0.600399 0.338762 131 82 32
0.140630 0.482893 -0.030042 -0.212455 0.644282 -0.734686 0.729114 0.324512 131 82 32
0.068908 0.474129 -0.016988 -0.212455 0.644282 -0.734686 0.729114 0.509728 134 87 38
0.100969 0.474611 0.040156 0.365309 -0.761402 0.535553 0.516073 0.645296 113 117 48
0.150236 0.491692 0.030835 0.365309 -0.761402 0.535553 0.526332 0.512700 131 82 32
0.103539 0.501554 0.076708 0.365309 -0.761402 0.535553 0.629950 0.640379 128 82 33
0.144706 0.479348 -0.012931 0.948309 0.267686 -0.170453 0.390518 0.855228 106 69 34
0.140630 0.482893 -0.030042 0.948309 0.267686 -0.170453 0.369414 0.893051 130 108 99
0.136137 0.520812 0.004509 0.948309 0.267686 -0.170453 0.296808 0.793389 131 82 32
0.147769 0.487404 0.009678 0.929807 0.288363 -0.228705 0.386672 0.797267 131 82 32
0.144706 0.479348 -0.012931 0.929807 0.288363 -0.228705 0.390518 0.855228 131 82 32
0.136137 0.520812 0.004509 0.929807 0.288363 -0.228705 0.296808 0.793389 131 82 32
0.150236 0.491692 0.030835 0.938477 0.300414 -0.170329 0.390518 0.746161 131 82 32
0.147769 0.487404 0.009678 0.938477 0.300414 -0.170329 0.386672 0.797267 131 82 32
0.136137 0.520812 0.004509 0.938477 0.300414 -0.170329 0.296808 0.793389 131 82 32
0.085223 0.470297 0.022707 0.318132 -0.946561 -0.053052 0.477162 0.679212 131 82 32
0.150236 0.491692 0.030835 0.318132 -0.946561 -0.053052 0.526332 0.512700 131 82 32
0.100969 0.474611 0.040156 0.318132 -0.946561 -0.053052 0.516073 0.645296 113 117 48
0.085223 0.470297 0.022707 0.290896 -0.943726 0.157357 0.477162 0.679212 131 82 32
0.147769 0.487404 0.009678 0.290896 -0.943726 0.157357 0.480054 0.512585 131 82 32
0.150236 0.491692 0.030835 0.290896 -0.943726 0.157357 0.526332 0.512700 131 82 32
0.136137 0.520812 0.004509 0.075151 0.954515 0.288537 0.219994 0.571492 131 82 32
0.072715 0.516245 0.036134 0.075151 0.954515 0.288537 0.219994 0.749412 131 81 32
0.103539 0.501554 0.076708 0.075151 0.954515 0.288537 0.096899 0.734707 131 82 32
0.085223 0.470297 0.022707 0.074870 -0.989168 -0.126262 0.006171 0.571492 131 82 32
0.068908 0.474129 -0.016988 0.074870 -0.989168 -0.126262 0.084758 0.573358 134 87 38
0.144706 0.479348 -0.012931 0.074870 -0.989168 -0.126262 0.048817 0.742929 129 81 32
0.077499 0.492680 0.040054 -0.805878 -0.065738 0.588421 0.829747 0.659447 131 82 32
0.103539 0.501554 0.076708 -0.805878 -0.065738 0.588421 0.861818 0.767411 129 81 32
0.072715 0.516245 0.036134 -0.805878 -0.065738 0.588421 0.771272 0.675917 131 81 32
0.068908 0.474129 -0.016988 -0.338015 0.749126 -0.569699 0.729114 0.509728 134 87 38
0.072715 0.516245 0.036134 -0.338015 0.749126 -0.569699 0.558109 0.512585 131 81 32
0.136137 0.520812 0.004509 -0.338015 0.749126 -0.569699 0.600399 0.338762 131 82 32
0.085223 0.470297 0.022707 0.307345 -0.908799 0.282175 0.477162 0.679212 131 82 32
0.144706 0.479348 -0.012931 0.307345 -0.908799 0.282175 0.424600 0.515157 129 81 32
0.147769 0.487404 0.009678 0.307345 -0.908799 0.282175 0.480054 0.512585 131 82 32
0.150204 0.512573 0.067457 0.938486 0.300336 -0.170419 0.362448 0.651301 131 82 32
0.150236 0.491692 0.030835 0.938486 0.300336 -0.170419 0.390518 0.746161 131 82 32
0.136137 0.520812 0.004509 0.938486 0.300336 -0.170419 0.296808 0.793389 131 82 32
0.188465 0.561562 -0.005359 0.016396 0.030097 -0.999413 0.000000 0.000000 58 43 37
0.176350 0.519973 -0.006810 0.016396 0.030097 -0.999413 1.000000 0.000000 87 77 72
0.132575 0.541998 -0.006865 0.016396 0.030097 -0.999413 1.000000 1.000000 53 39 34
0.188465 0.561562 -0.005359 0.916557 -0.045414 0.397316 0.000000 0.000000 131 82 32
0.172976 0.560423 0.030242 0.916557 -0.045414 0.397316 1.000000 0.000000 131 82 32
0.171822 0.528571 0.029263 0.916557 -0.045414 0.397316 1.000000 1.000000 131 82 32
0.176350 0.519973 -0.006810 -0.444219 -0.882479 0.154598 0.000000 0.000000 131 82 32
0.171822 0.528571 0.029263 -0.444219 -0.882479 0.154598 1.000000 0.000000 131 82 32
0.132575 0.541998 -0.006865 -0.444219 -0.882479 0.154598 1.000000 1.000000 131 82 32
0.132575 0.541998 -0.006865 -0.932426 0.323925 0.160169 0.000000 0.000000 131 82 32
0.139540 0.544211 0.029205 -0.932426 0.323925 0.160169 1.000000 0.000000 131 82 32
0.144620 0.576066 -0.005641 -0.932426 0.323925 0.160169 1.000000 1.000000 131 82 32
0.172976 0.560423 0.030242 0.308831 0.936810 0.164346 0.000000 0.000000 131 82 32
0.188465 0.561562 -0.005359 0.308831 0.936810 0.164346 1.000000 0.000000 131 82 32
0.144620 0.576066 -0.005641 0.308831 0.936810 0.164346 1.000000 1.000000 131 82 32
0.144620 0.576066 -0.005641 0.016396 0.030097 -0.999412 0.000000 0.000000 55 41 35
0.188465 0.561562 -0.005359 0.016396 0.030097 -0.999412 1.000000 0.000000 58 43 37
0.132575 0.541998 -0.006865 0.016396 0.030097 -0.999412 1.000000 1.000000 53 39 34
0.171822 0.528571 0.029263 -0.016396 -0.030097 0.999413 0.000000 0.000000 131 82 32
0.172976 0.560423 0.030242 -0.016396 -0.030097 0.999413 1.000000 0.000000 131 82 32
0.139540 0.544211 0.029205 -0.016396 -0.030097 0.999413 1.000000 1.000000 131 82 32
0.176350 0.519973 -0.006810 0.941744 -0.280785 0.185141 0.000000 0.000000 131 82 32
0.188465 0.561562 -0.005359 0.941744 -0.280785 0.185141 1.000000 0.000000 131 82 32
0.171822 0.528571 0.029263 0.941744 -0.280785 0.185141 1.000000 1.000000 131 82 32
0.171822 0.528571 0.029263 -0.432016 -0.891232 0.138089 0.000000 0.000000 131 82 32
0.139540 0.544211 0.029205 -0.432016 -0.891232 0.138089 1.000000 0.000000 131 82 32
0.132575 0.541998 -0.006865 -0.432016 -0.891232 0.138089 1.000000 1.000000 131 82 32
0.139540 0.544211 0.029205 -0.364358 0.713184 0.598842 0.927377 0.755456 131 82 32
0.172976 0.560423 0.030242 -0.364358 0.713184 0.598842 0.861818 0.732135 131 82 32
0.144620 0.576066 -0.005641 -0.364358 0.713184 0.598842 0.927377 0.637451 131 82 32
0.189986 0.581230 0.033890 0.023609 0.909422 0.415204 0.000000 0.000000 131 82 32
0.213594 0.583352 0.027900 0.023609 0.909422 0.415204 1.000000 0.000000 131 82 32
0.191236 0.595580 0.002390 0.023609 0.909422 0.415204 1.000000 1.000000 131 82 32
0.213594 0.583352 0.027900 0.876075 -0.447637 0.179206 0.000000 0.000000 131 82 32
0.202142 0.560589 0.027027 0.876075 -0.447637 0.179206 1.000000 0.000000 131 82 32
0.206685 0.559281 0.001550 0.876075 -0.447637 0.179206 1.000000 1.000000 131 82 32
0.179784 0.572816 0.001516 0.016396 0.030097 -0.999413 0.000000 0.000000 48 36 31
0.191236 0.595580 0.002390 0.016396 0.030097 -0.999413 1.000000 0.000000 48 36 31
0.216779 0.589618 0.002629 0.016396 0.030097 -0.999413 1.000000 1.000000 48 36 31
0.202142 0.560589 0.027027 0.256494 -0.165581 0.952257 0.000000 0.000000 131 82 32
0.213594 0.583352 0.027900 0.256494 -0.165581 0.952257 1.000000 0.000000 131 82 32
0.189986 0.581230 0.033890 0.256494 -0.165581 0.952257 1.000000 1.000000 131 82 32
0.189986 0.581230 0.033890 -0.883654 0.438260 0.164569 0.000000 0.000000 131 82 32
0.191236 0.595580 0.002390 -0.883654 0.438260 0.164569 1.000000 0.000000 131 82 32
0.179784 0.572816 0.001516 -0.883654 0.438260 0.164569 1.000000 1.000000 131 82 32
0.213594 0.583352 0.027900 0.217139 0.940715 0.260588 0.000000 0.000000 131 82 32
0.216779 0.589618 0.002629 0.217139 0.940715 0.260588 1.000000 0.000000 131 82 32
0.191236 0.595580 0.002390 0.217139 0.940715 0.260588 1.000000 1.000000 131 82 32
0.216779 0.589618 0.002629 0.947630 -0.316745 0.040871 0.000000 0.000000 131 82 32
0.213594 0.583352 0.027900 0.947630 -0.316745 0.040871 1.000000 0.000000 131 82 32
0.206685 0.559281 0.001550 0.947630 -0.316745 0.040871 1.000000 1.000000 131 82 32
0.206685 0.559281 0.001550 -0.449170 -0.892789 -0.034257 0.000000 0.000000 131 82 32
0.202142 0.560589 0.027027 -0.449170 -0.892789 -0.034257 1.000000 0.000000 131 82 32
0.179784 0.572816 0.001516 -0.449170 -0.892789 -0.034257 1.000000 1.000000 131 82 32
0.206685 0.559281 0.001550 0.016396 0.030097 -0.999412 0.000000 0.000000 48 36 31
0.179784 0.572816 0.001516 0.016396 0.030097 -0.999412 1.000000 0.000000 48 36 31
0.216779 0.589618 0.002629 0.016396 0.030097 -0.999412 1.000000 1.000000 48 36 31
0.179784 0.572816 0.001516 -0.737370 -0.559896 0.377891 0.000000 0.000000 131 82 32
0.202142 0.560589 0.027027 -0.737370 -0.559896 0.377891 1.000000 0.000000 131 82 32
0.189986 0.581230 0.033890 -0.737370 -0.559896 0.377891 1.000000 1.000000 131 82 32
0.085223 0.470297 0.022707 -0.490162 -0.633295 0.598897 0.477162 0.679212 131 82 32
0.100969 0.474611 0.040156 -0.490162 -0.633295 0.598897 0.516073 0.645296 131 82 32
0.077499 0.492680 0.040054 -0.490162 -0.633295 0.598897 0.548230 0.694269 131 82 32
0.103539 0.501554 0.076708 -0.518496 -0.670486 0.530670 0.629950 0.640379 129 81 32
0.077499 0.492680 0.040054 -0.518496 -0.670486 0.530670 0.548230 0.694269 131 82 32
0.100969 0.474611 0.040156 -0.518496 -0.670486 0.530670 0.516073 0.645296 131 82 32
0.150236 0.491692 0.030835 0.290275 -0.831202 0.474176 0.526332 0.512700 131 82 32
0.150204 0.512573 0.067457 0.290275 -0.831202 0.474176 0.629950 0.517069 131 82 32
0.103539 0.501554 0.076708 0.290275 -0.831202 0.474176 0.629950 0.640379 128 82 33
0.150204 0.512573 0.067457 -0.194437 0.966089 0.169903 0.084758 0.623059 131 82 32
0.136137 0.520812 0.004509 -0.194437 0.966089 0.169903 0.219994 0.571492 131 82 32
0.103539 0.501554 0.076708 -0.194437 0.966089 0.169903 0.096899 0.734707 131 82 32
0.068908 0.474129 -0.016988 0.078734 -0.972277 -0.220178 0.084758 0.573358 134 87 38
0.140630 0.482893 -0.030042 0.078734 -0.972277 -0.220178 0.084758 0.750148 130 95 65
0.144706 0.479348 -0.012931 0.078734 -0.972277 -0.220178 0.048817 0.742929 129 81 32
0.077499 0.492680 0.040054 -0.966401 -0.163165 0.198612 0.829747 0.659447 131 82 32
0.072715 0.516245 0.036134 -0.966401 -0.163165 0.198612 0.771272 0.675917 131 81 32
0.068908 0.474129 -0.016988 -0.966401 -0.163165 0.198612 0.801393 0.512585 131 82 32
0.649519 -0.125001 0.000000 -0.000000 -0.000000 1.000000 1.000000 0.000000 10 251 255
0.233043 -0.153643 0.000000 -0.000000 -0.000000 1.000000 0.307873 0.307873 36 37 64
-0.132159 0.478907 0.000000 -0.000000 -0.000000 1.000000 0.870140 0.870140 36 37 64
-0.029803 0.461915 0.000000 -0.000000 -0.000000 1.000000 0.997519 0.783794 36 37 64
-0.204481 0.604173 0.000000 -0.000000 -0.000000 1.000000 0.981487 0.981487 36 37 64
-0.221447 0.616442 -0.000000 -0.000000 -0.000000 1.000000 0.988589 0.988589 1 249 252
-0.221078 0.616166 -0.000000 -0.000000 -0.000000 1.000000 0.988831 0.988424 1 249 252
-0.216506 0.625000 0.000000 -0.000000 -0.000000 1.000000 1.000000 1.000000 0 251 255
-0.649204 -0.124454 -0.000000 -0.000000 -0.000000 1.000000 0.000727 0.000727 148 95 40
-0.649519 -0.124999 -0.000000 -0.000000 -0.000000 1.000000 0.000000 0.000000 149 95 40
-0.647531 -0.124909 -0.000000 -0.000000 -0.000000 1.000000 0.002357 0.000866 148 95 40
0.079201 0.443597 0.011588 0.818728 0.567681 -0.086151 0.000000 0.000000 131 82 32
0.198909 -0.212502 -0.001344 0.229979 -0.881674 0.412021 0.000000 0.000000 131 82 32
0.198909 -0.212502 -0.001344 0.859938 -0.501562 0.094560 0.000000 0.000000 131 82 32
0.305151 0.070036 0.059187 0.495284 -0.841656 -0.215194 0.000000 0.000000 131 82 32
0.295976 0.080114 -0.001344 0.495284 -0.841656 -0.215194 0.000000 0.000000 131 82 32
0.339967 0.106001 -0.001344 0.495284 -0.841656 -0.215194 0.000000 0.000000 131 82 32
0.216643 0.107050 0.092538 -0.347116 0.937592 -0.020796 0.000000 0.000000 131 82 32
0.338453 0.151703 0.072518 -0.347116 0.937592 -0.020796 0.000000 0.000000 131 82 32
0.269368 0.124488 -0.001344 -0.347116 0.937592 -0.020796 0.000000 0.000000 131 82 32
0.338453 0.151703 0.072518 0.154231 0.985800 -0.066417 0.000000 0.000000 131 82 32
0.448888 0.129746 0.003079 0.154231 0.985800 -0.066417 0.000000 0.000000 131 82 32
0.395447 0.137809 -0.001344 0.154231 0.985800 -0.066417 0.000000 0.000000 131 82 32
0.034904 0.379530 -0.001344 0.972768 -0.154643 0.172649 0.000000 0.000000 255 255 255
0.018371 0.379874 0.092121 0.972768 -0.154643 0.172649 0.000000 0.000000 81 181 77
0.034650 0.377927 -0.001344 0.972768 -0.154643 0.172649 0.000000 0.000000 255 255 255
-0.207824 0.616730 -0.001344 0.951548 0.253298 0.174345 0.000000 0.000000 131 82 32
0.243593 0.124810 -0.001344 0.577789 0.763968 0.287250 0.000000 0.000000 131 82 32
-0.028296 0.462006 0.000000 -0.000000 0.000000 1.000000 0.217326 0.000000 36 37 64
0.033774 0.465732 0.000000 -0.000000 0.000000 1.000000 0.365638 0.153281 44 57 75
0.295976 0.080114 -0.001344 0.986731 -0.042655 -0.156662 0.000000 0.000000 131 82 32
0.305151 0.070036 0.059187 0.986731 -0.042655 -0.156662 0.000000 0.000000 131 82 32
0.295000 0.057523 -0.001344 0.986731 -0.042655 -0.156662 0.000000 0.000000 131 82 32
-0.253134 -0.198251 -0.000000 -0.000000 -0.000000 1.000000 0.408873 0.071176 36 37 64
-0.539996 -0.148025 -0.000000 -0.000000 -0.000000 1.000000 0.111120 0.016575 36 37 64
0.433012 -0.500000 0.000000 -0.000000 -0.000000 1.000000 1.000000 0.000000 0 251 255
0.447417 0.129186 -0.001344 0.179156 -0.981676 0.064918 0.000000 0.000000 255 255 255
0.448888 0.129746 0.003079 0.179156 -0.981676 0.064918 0.000000 0.000000 255 255 255
0.359856 0.113206 -0.001344 0.179156 -0.981676 0.064918 0.000000 0.000000 255 255 255
0.049924 0.275143 -0.001344 0.758552 0.648499 0.063627 0.000000 0.000000 131 82 32
-0.035245 0.462170 -0.001344 0.163575 0.957171 -0.238888 0.000000 0.000000 255 255 255
-0.168116 0.484877 -0.001344 0.163575 0.957171 -0.238888 0.000000 0.000000 255 255 255
-0.032781 0.462540 0.001828 0.163575 0.957171 -0.238888 0.000000 0.000000 255 255 255
0.034650 0.377927 0.000000 -0.000000 -0.000000 1.000000 0.947438 0.696850 36 37 64
0.033055 0.294875 0.000000 -0.000000 -0.000000 1.000000 0.797334 0.661166 36 37 64
0.018371 0.379874 0.092121 0.800195 -0.582271 0.143696 0.000000 0.000000 131 82 32
0.034904 0.379530 -0.001344 0.800195 -0.582271 0.143696 0.000000 0.000000 131 82 32
0.045006 0.393412 -0.001344 0.800195 -0.582271 0.143696 0.000000 0.000000 131 82 32
-0.029803 0.461915 -0.001344 -0.058092 0.967707 -0.245292 0.000000 0.000000 255 255 255
-0.032781 0.462540 0.001828 -0.058092 0.967707 -0.245292 0.000000 0.000000 255 255 255
0.033774 0.465732 -0.001344 -0.058092 0.967707 -0.245292 0.000000 0.000000 255 255 255
-0.168116 0.484877 0.000000 -0.000000 -0.000000 1.000000 0.962437 0.862912 36 37 64
0.423031 0.124735 0.000000 -0.000000 0.000000 1.000000 0.809930 0.142910 38 239 226
0.343787 0.145892 0.000000 -0.000000 0.000000 1.000000 0.655131 0.016320 61 229 203
0.398645 0.120285 0.000000 -0.000000 0.000000 1.000000 0.747679 0.074726 47 235 216
-0.519851 -0.170199 0.056764 -0.284431 -0.924397 -0.254145 0.000000 0.000000 131 82 32
-0.647531 -0.124909 0.034926 -0.284431 -0.924397 -0.254145 0.000000 0.000000 131 82 32
-0.612365 -0.125757 -0.001344 -0.284431 -0.924397 -0.254145 0.000000 0.000000 131 82 32
0.338482 0.144366 0.000000 -0.000000 0.000000 1.000000 0.640845 0.000000 36 37 64
0.065487 0.445502 0.000000 -0.000000 0.000000 1.000000 0.411904 0.172574 36 37 64
0.046505 0.397226 0.000000 -0.000000 0.000000 1.000000 0.303699 0.000000 36 37 64
0.423031 0.124735 0.000000 -0.000000 0.000000 1.000000 0.809930 0.142910 36 50 75
0.371920 0.115407 0.000000 -0.000000 0.000000 1.000000 0.679456 0.000000 36 38 65
0.343787 0.145892 0.000000 -0.000000 0.000000 1.000000 0.655131 0.016320 36 37 64
-0.221078 0.616166 -0.000000 -0.000000 -0.000000 1.000000 0.988831 0.988424 36 37 64
-0.211637 0.616568 0.000000 -0.000000 -0.000000 1.000000 1.000000 0.992504 36 37 64
-0.216506 0.625000 0.000000 -0.000000 -0.000000 1.000000 1.000000 1.000000 36 37 64
0.269369 0.124488 0.000000 -0.000000 -0.000000 1.000000 0.858254 0.403524 48 76 77
0.252038 0.118072 0.000000 -0.000000 -0.000000 1.000000 0.820166 0.414013 36 37 64
0.338482 0.144366 0.000000 -0.000000 -0.000000 1.000000 1.000000 0.359155 36 37 64
0.046505 0.397226 0.000000 -0.000000 -0.000000 1.000000 1.000000 0.696301 36 37 64
0.045006 0.393412 0.000000 -0.000000 -0.000000 1.000000 0.990912 0.695761 36 37 64
0.046505 0.397226 0.000000 -0.000000 -0.000000 1.000000 1.000000 0.696301 137 196 150
0.045006 0.393412 0.000000 -0.000000 -0.000000 1.000000 0.990912 0.695761 136 196 150
0.049924 0.275143 0.000000 -0.000000 -0.000000 1.000000 0.788227 0.639411 124 200 158
0.065487 0.445502 0.000000 -0.000000 0.000000 1.000000 0.411904 0.172574 41 50 71
0.339967 0.106001 0.000000 -0.000000 -0.000000 1.000000 0.934082 0.340961 71 223 202
0.359856 0.113206 0.000000 -0.000000 -0.000000 1.000000 0.977512 0.328852 69 224 203
0.348250 0.125285 0.000000 -0.000000 -0.000000 1.000000 0.981117 0.343155 71 223 202
0.288211 -0.040400 0.000000 -0.000000 -0.000000 1.000000 0.594134 0.315740 36 37 64
0.295000 0.057523 0.000000 -0.000000 -0.000000 1.000000 0.778667 0.354029 36 37 64
0.339967 0.106001 0.000000 -0.000000 -0.000000 1.000000 0.934082 0.340961 36 37 64
0.295976 0.080114 0.000000 -0.000000 -0.000000 1.000000 0.820332 0.363317 36 37 64
0.359856 0.113206 0.000000 -0.000000 -0.000000 1.000000 0.977512 0.328852 36 37 64
0.371920 0.115407 0.000000 -0.000000 -0.000000 1.000000 1.000000 0.320544 37 38 65
-0.519851 -0.170199 0.056764 -0.173970 -0.918490 -0.355120 0.000000 0.000000 131 82 32
-0.207824 0.616730 0.000000 -0.000000 -0.000000 1.000000 0.998664 0.989641 191 174 106
-0.216506 0.625000 0.000000 -0.000000 -0.000000 1.000000 1.000000 1.000000 193 174 105
-0.211637 0.616568 0.000000 -0.000000 -0.000000 1.000000 0.992504 0.992504 191 174 105
-0.207824 0.616730 0.000000 -0.000000 -0.000000 1.000000 0.998664 0.989641 36 37 64
-0.028296 0.462006 0.000000 -0.000000 -0.000000 1.000000 1.000000 0.782674 36 37 64
-0.028296 0.462006 0.000000 -0.000000 -0.000000 1.000000 1.000000 0.782674 153 190 137
-0.204481 0.604173 0.000000 -0.000000 -0.000000 1.000000 0.981487 0.981487 189 175 107
-0.029803 0.461915 0.000000 -0.000000 -0.000000 1.000000 0.997519 0.783794 81 181 77
-0.028296 0.462006 0.000000 -0.000000 -0.000000 1.000000 1.000000 0.782674 81 181 77
-0.612364 -0.125757 -0.000000 -0.000000 -0.000000 1.000000 0.042396 0.013458 142 101 49
-0.629155 -0.121436 -0.000000 -0.000000 -0.000000 1.000000 0.025892 0.011800 144 98 45
-0.539996 -0.148025 -0.000000 -0.000000 -0.000000 1.000000 0.111120 0.016575 132 112 63
-0.013189 -0.243699 0.000000 -0.000000 -0.000000 1.000000 0.655628 0.113024 37 39 64
0.233043 -0.153643 0.000000 -0.000000 -0.000000 1.000000 1.000000 0.307873 0 251 255
0.232052 -0.155678 0.000000 -0.000000 -0.000000 1.000000 0.997498 0.305233 0 250 254
0.232052 -0.155678 0.000000 -0.000000 -0.000000 1.000000 0.997498 0.305233 36 37 64
0.198909 -0.212502 0.000000 -0.000000 -0.000000 1.000000 0.921343 0.229317 36 37 64
-0.649519 -0.124999 -0.000000 -0.000000 -0.000000 1.000000 0.000000 0.000000 41 40 63
0.110410 -0.235586 0.000000 -0.000000 -0.000000 1.000000 0.803768 0.169631 36 37 64
0.243593 0.124810 -0.001344 0.592773 0.743020 0.310712 0.000000 0.000000 131 82 32
0.048151 0.200334 0.190912 0.592773 0.743020 0.310712 0.000000 0.000000 131 82 32
0.216643 0.107050 0.092538 0.592773 0.743020 0.310712 0.000000 0.000000 131 82 32
-0.013189 -0.243699 0.000000 -0.000000 -0.000000 1.000000 0.655628 0.113024 36 37 64
3 0 1 2
3 3 4 5
3 6 7 8
3 9 10 11
3 12 13 14
3 15 16 17
3 18 19 20
3 21 22 23
3 24 25 26
3 18 24 27
3 27 28 29
3 30 31 32
3 33 34 35
3 36 29 28
3 37 38 39
3 40 41 42
3 43 44 45
3 46 47 48
3 49 50 51
3 52 53 54
3 55 56 57
3 58 59 60
3 58 61 59
3 62 60 63
3 64 65 66
3 67 68 69
3 70 71 72
3 73 74 75
3 76 77 78
3 79 80 81
3 82 83 84
3 55 85 56
3 86 87 88
3 89 90 91
3 92 93 94
3 95 96 97
3 98 99 20
3 98 100 101
3 98 101 102
3 103 101 60
3 60 57 103
3 98 19 104
3 99 98 102
3 21 99 105
3 21 20 99
3 102 101 103
3 102 103 106
3 107 108 109
3 110 111 112
3 113 114 115
3 116 117 118
3 22 119 120
3 121 122 119
3 121 119 106
3 123 124 125
3 126 127 128
3 129 130 131
3 132 133 134
3 135 136 137
3 138 139 140
3 141 142 143
3 144 145 146
3 147 148 149
3 150 151 152
3 153 154 155
3 12 18 13
3 15 12 14
3 12 15 17
3 18 12 19
3 19 12 104
3 18 20 21
3 18 21 24
3 24 21 23
3 27 13 18
3 27 24 28
3 156 157 158
3 159 160 161
3 104 162 100
3 163 164 165
3 166 167 168
3 169 170 171
3 172 173 174
3 175 176 177
3 60 59 63
3 60 62 57
3 57 62 55
3 178 179 180
3 29 36 27
3 181 182 183
3 55 184 185
3 186 187 188
3 189 190 191
3 100 98 104
3 19 98 20
3 58 101 100
3 60 101 58
3 58 100 162
3 61 58 162
3 102 105 99
3 102 106 105
3 22 21 105
3 103 56 106
3 103 57 56
3 192 193 194
3 195 120 122
3 120 119 122
3 196 197 198
3 199 200 201
3 202 203 204
3 205 206 207
3 208 209 210
3 211 212 213
3 214 215 216
3 217 218 219
3 220 221 222
3 223 224 225
3 226 227 228
3 229 230 231
3 232 233 234
3 235 236 237
3 238 239 240
3 241 242 243
3 244 245 246
3 247 248 249
3 250 251 252
3 253 254 255
3 256 257 258
3 259 260 261
3 262 263 264
3 265 266 267
3 268 269 270
3 271 272 273
3 274 275 276
3 277 278 279
3 280 281 282
3 283 284 285
3 286 287 288
3 289 290 291
3 292 293 294
3 295 296 297
3 298 299 300
3 301 302 303
3 304 305 306
3 307 308 309
3 310 311 312
3 313 314 315
3 316 317 318
3 319 320 321
3 322 323 324
3 325 326 327
3 328 329 330
3 331 332 333
3 334 335 336
3 337 338 339
3 340 341 342
3 343 344 345
3 346 347 348
3 349 350 351
3 352 353 354
3 355 356 357
3 358 359 360
3 361 362 363
3 364 365 366
3 367 368 369
3 370 371 372
3 373 374 375
3 238 376 377
3 378 379 380
3 381 382 383
3 384 385 386
3 215 387 216
3 388 52 54
3 389 64 66
3 390 391 392
3 393 394 395
3 396 397 398
3 399 400 401
3 402 147 149
3 167 403 168
3 404 405 252
3 406 407 408
3 409 410 411
3 412 413 414
3 415 196 198
3 416 417 418
3 419 420 254
3 421 422 423
3 424 425 426
3 248 427 249
3 428 429 430
3 431 432 433
3 434 435 436
3 376 437 438
3 250 437 376
3 250 439 437
3 440 441 442
3 251 404 252
3 250 252 435
3 439 250 435
3 443 253 444
3 445 253 443
3 445 446 253
3 253 446 254
3 447 419 254
3 448 449 450
3 451 434 439
3 452 453 454
3 377 376 455
3 456 457 458
3 457 456 459
3 460 459 456
3 455 460 456
3 187 461 188
3 462 463 464
3 465 380 466
3 467 463 462
3 468 469 470
3 386 471 472
3 386 473 471
3 474 409 411
3 411 475 476
3 411 477 478
3 386 385 473
3 479 411 410
3 411 478 480
3 481 482 483
3 411 480 484
3 376 460 455
