ply
format ascii 1.0
comment Created by Blender 2.69 (sub 0) - www.blender.org, source file: 'world-unit-two.blend'
element vertex 506
property float x
property float y
property float z
property float nx
property float ny
property float nz
property float s
property float t
property uchar red
property uchar green
property uchar blue
element face 262
property list uchar uint vertex_indices
end_header
0.216506 0.625000 0.000000 -0.001420 -0.000820 0.999999 0.714086 0.736941 0 255 249
-0.000000 1.000000 0.000000 -0.001420 -0.000820 0.999999 0.714086 0.982587 0 255 249
-0.220123 0.617540 -0.000626 -0.001420 -0.000820 0.999999 0.497576 0.857119 50 57 77
0.866025 -0.500000 0.000000 0.000000 -0.000000 1.000000 0.714086 0.000000 20 255 250
0.649519 -0.125000 0.000000 0.000000 -0.000000 1.000000 0.714086 0.245647 0 255 249
0.433013 -0.500000 0.000000 0.000000 -0.000000 1.000000 0.501479 0.122818 50 57 77
0.216506 0.625000 0.000000 -0.000000 -0.000000 1.000000 0.714086 0.736941 0 255 249
0.329328 -0.347176 -0.002111 0.034370 0.014138 -0.999309 0.975790 0.252173 255 255 255
0.157700 0.069432 -0.002120 0.034370 0.014138 -0.999309 0.975790 0.507783 255 255 255
0.320220 -0.323256 -0.002086 0.034370 0.014138 -0.999309 0.975399 0.266687 255 255 255
0.437333 -0.532022 0.117779 0.834872 0.548640 0.044524 0.791334 0.001399 116 89 61
0.421761 -0.498598 -0.002086 0.834872 0.548640 0.044524 0.858999 0.022222 116 89 61
0.400911 -0.466870 -0.002086 0.834872 0.548640 0.044524 0.858823 0.043709 116 89 61
-0.018884 0.217291 0.000000 -0.000000 -0.000000 1.000000 0.482934 0.603398 38 103 117
-0.052865 0.245744 0.000000 -0.000000 -0.000000 1.000000 0.474316 0.627015 50 57 77
0.157700 0.069432 0.000000 -0.000000 -0.000000 1.000000 0.527722 0.480669 50 57 77
-0.866025 -0.500000 0.000000 0.017549 -0.010132 0.999795 0.894223 0.743836 0 255 249
-0.631924 -0.197458 -0.001043 0.017549 -0.010132 0.999795 0.865042 0.528925 50 57 77
-0.657882 -0.139486 0.000000 0.017549 -0.010132 0.999795 0.894223 0.507783 50 57 77
-0.657882 -0.139486 0.000000 -0.912565 -0.408176 -0.024858 0.864855 0.478868 116 89 61
-0.631924 -0.197458 -0.001043 -0.912565 -0.408176 -0.024858 0.863747 0.443225 116 89 61
-0.654256 -0.155119 0.123550 -0.912565 -0.408176 -0.024858 0.934671 0.469725 116 89 61
0.329336 -0.347189 -0.002086 0.655144 0.735777 0.171516 0.858600 0.122792 255 255 255
0.329312 -0.347168 -0.002086 0.655144 0.735777 0.171516 0.858599 0.122809 255 255 255
0.350915 -0.382351 0.066330 0.655144 0.735777 0.171516 0.820199 0.099424 255 255 255
0.394820 -0.452940 -0.002087 0.911606 0.330617 0.244269 0.000000 0.000000 255 255 255
0.394821 -0.452941 -0.002089 0.911606 0.330617 0.244269 0.000000 0.000000 255 255 255
0.394819 -0.452939 -0.002086 0.911606 0.330617 0.244269 0.000000 0.000000 255 255 255
0.329328 -0.347176 -0.002111 0.850192 0.526466 0.002768 0.858614 0.122801 255 255 255
0.329336 -0.347189 -0.002086 0.850192 0.526466 0.002768 0.858600 0.122792 255 255 255
0.394819 -0.452939 -0.002086 0.850192 0.526466 0.002768 0.858937 0.052291 255 255 255
0.272304 -0.317280 0.087456 0.843825 0.320854 0.430131 0.805712 0.153476 116 89 61
0.329312 -0.347168 -0.002086 0.843825 0.320854 0.430131 0.858599 0.122809 116 89 61
0.320220 -0.323256 -0.002086 0.843825 0.320854 0.430131 0.858880 0.137160 116 89 61
0.394821 -0.452942 -0.002087 0.822458 0.567213 0.042805 0.000000 0.000000 255 255 255
0.394820 -0.452940 -0.002087 0.822458 0.567213 0.042805 0.000000 0.000000 255 255 255
0.394821 -0.452942 -0.002086 0.822458 0.567213 0.042805 0.000000 0.000000 255 255 255
0.329328 -0.347176 0.000000 -0.000000 -0.000000 1.000000 0.493892 0.227309 50 57 77
0.422544 -0.500000 0.000000 -0.000000 -0.000000 -1.000000 0.411884 0.877220 0 255 249
0.421761 -0.498598 0.000000 -0.000000 -0.000000 -1.000000 0.411962 0.876312 0 255 249
0.433013 -0.500000 0.000000 -0.000000 -0.000000 -1.000000 0.416798 0.880554 0 255 249
-0.087864 0.259216 0.000000 0.000000 -0.000000 1.000000 0.460950 0.643561 50 57 77
0.400911 -0.466870 0.000000 -0.000000 -0.000000 -1.000000 0.412280 0.854777 0 255 249
0.433013 -0.500000 0.000000 0.000000 0.000000 -1.000000 0.416798 0.880554 50 57 77
0.394821 -0.452942 0.000000 0.000000 0.000000 -1.000000 0.413857 0.846299 50 57 77
0.329328 -0.347176 0.000000 0.000000 0.000000 -1.000000 0.416798 0.775787 50 57 77
0.400911 -0.466870 0.000000 -0.000000 -0.000000 -1.000000 0.412280 0.854777 50 57 77
-0.439210 -0.500000 0.000000 -0.919713 -0.392313 -0.014768 0.862717 0.239734 116 89 61
-0.426701 -0.536702 0.195998 -0.919713 -0.392313 -0.014768 0.973393 0.217477 116 89 61
-0.464726 -0.440143 -0.001043 -0.919713 -0.392313 -0.014768 0.862682 0.276152 116 89 61
-0.464726 -0.440143 -0.001043 0.002724 -0.000832 0.999996 0.714086 0.600779 50 57 77
-0.549445 -0.299569 -0.000695 0.002724 -0.000832 0.999996 0.795564 0.555716 50 57 77
-0.866025 -0.500000 0.000000 0.002724 -0.000832 0.999996 0.894223 0.743836 0 255 249
-0.464726 -0.440143 -0.001043 -0.000000 0.017425 0.999848 0.860281 0.971350 50 57 77
-0.866025 -0.500000 0.000000 -0.000000 0.017425 0.999848 0.894223 0.743836 25 213 208
-0.439210 -0.500000 0.000000 -0.000000 0.017425 0.999848 0.894223 0.985854 50 57 77
-0.513141 -0.328691 0.137877 -0.594900 -0.803694 -0.013048 0.942432 0.343602 116 89 61
-0.549445 -0.299569 -0.000695 -0.594900 -0.803694 -0.013048 0.863723 0.369228 116 89 61
-0.515001 -0.325042 -0.002086 -0.594900 -0.803694 -0.013048 0.863140 0.346547 116 89 61
-0.515001 -0.325042 -0.002086 -0.916400 -0.400261 0.001741 0.863140 0.346547 116 89 61
-0.464726 -0.440143 -0.001043 -0.916400 -0.400261 0.001741 0.862682 0.276152 116 89 61
-0.513141 -0.328691 0.137877 -0.916400 -0.400261 0.001741 0.942432 0.343602 116 89 61
0.394820 -0.452940 -0.002087 0.818770 0.570886 0.060865 0.858937 0.052290 255 255 255
0.401437 -0.484394 0.203976 0.818770 0.570886 0.060865 0.742276 0.034958 255 255 255
0.394821 -0.452942 -0.002086 0.818770 0.570886 0.060865 0.858937 0.052289 255 255 255
0.341606 -0.508437 0.202194 -0.054262 -0.373943 0.925840 0.079734 0.734839 88 144 86
0.165677 -0.502474 0.178775 0.000732 0.237007 0.971496 0.163814 0.680309 88 144 86
0.297671 -0.535945 0.199059 -0.082553 0.076876 0.993591 0.109181 0.735303 88 144 86
0.384457 -0.533996 0.192891 0.057009 -0.288736 0.955687 0.066620 0.759814 89 145 87
0.329293 -0.439059 0.240610 0.339335 0.033357 0.940062 0.064605 0.697573 90 145 88
0.013485 -0.037986 0.313980 0.070811 0.483045 0.872728 0.098785 0.410242 253 255 252
0.000644 -0.067547 0.331384 0.070811 0.483045 0.872728 0.113341 0.420843 253 255 252
0.062418 -0.062065 0.323338 0.070811 0.483045 0.872728 0.081918 0.436298 253 255 252
0.099507 0.015314 0.252074 0.434878 0.488336 0.756577 0.042639 0.409550 116 89 61
0.062418 -0.062065 0.323338 0.434878 0.488336 0.756577 0.081918 0.436298 253 255 252
0.147389 -0.019039 0.246725 0.434878 0.488336 0.756577 0.029585 0.440273 116 89 61
-0.068402 0.395806 0.092493 0.839045 -0.231178 0.492477 0.968676 0.690024 88 144 86
-0.138833 0.208560 0.073546 0.610401 0.222297 0.760216 0.980733 0.761984 88 144 86
-0.087864 0.259216 -0.002095 0.878964 0.174291 0.443831 0.932067 0.758905 88 144 86
-0.340694 0.474803 0.198373 0.130497 -0.019288 0.991241 0.122560 0.057255 88 144 86
-0.326144 0.357638 0.196290 0.070803 0.101016 0.992340 0.149898 0.118411 88 144 86
-0.241078 0.419880 0.181939 0.125065 0.095279 0.987548 0.090654 0.113135 88 144 86
-0.294280 0.580856 0.195354 0.297647 -0.003388 0.954650 0.069000 0.019377 88 144 86
-0.180606 0.507228 0.152881 0.344005 0.258919 0.902554 0.036271 0.088442 89 145 87
0.394820 -0.452940 -0.002087 0.816732 0.573747 0.061350 0.858937 0.052290 116 89 61
0.294214 -0.330872 0.195659 0.816732 0.573747 0.061350 0.745708 0.140689 116 89 61
0.401437 -0.484394 0.203976 0.816732 0.573747 0.061350 0.742276 0.034958 116 89 61
0.275167 -0.370067 0.227831 0.240272 0.255684 0.936399 0.070890 0.648184 88 144 86
0.121950 -0.355247 0.211272 -0.047731 -0.004364 0.998840 0.141218 0.596022 88 144 86
0.146384 -0.408218 0.227780 -0.042909 0.064150 0.997009 0.144568 0.628924 88 144 86
0.277675 -0.428860 0.247360 -0.022492 -0.113224 0.993286 0.086528 0.677482 88 144 86
0.152924 -0.429568 0.223999 -0.075045 -0.443281 0.893216 0.147730 0.641206 88 144 86
0.000078 -0.407432 0.233638 -0.002625 -0.046632 0.998901 0.215214 0.585623 88 144 86
-0.420858 -0.399912 0.193166 -0.282937 0.060640 0.957213 0.418059 0.458440 109 158 107
-0.323390 -0.462586 0.198823 -0.048769 -0.042421 0.997894 0.389031 0.517471 88 144 86
-0.060332 -0.464748 0.207814 0.016846 -0.350352 0.936460 0.261844 0.595707 88 144 86
-0.248838 -0.112233 0.247495 -0.019675 -0.499204 0.866261 0.249158 0.369274 116 89 61
-0.182810 -0.184327 0.207448 -0.019675 -0.499204 0.866261 0.239052 0.423617 116 89 61
-0.150677 -0.099807 0.256885 -0.019675 -0.499204 0.866261 0.197698 0.392048 116 89 61
-0.274651 -0.171797 0.206034 0.159795 -0.347301 0.924009 0.279969 0.390587 88 144 86
-0.248838 -0.112233 0.247495 -0.034913 -0.072848 0.996704 0.249158 0.369274 88 144 86
-0.388832 -0.176137 0.270359 -0.145268 -0.166723 0.975219 0.335375 0.359249 88 144 86
-0.317392 -0.208950 0.209209 0.138585 -0.302377 0.943052 0.311541 0.396089 88 144 86
-0.409355 -0.323708 0.188305 -0.238502 -0.033143 0.970550 0.390228 0.424810 88 144 86
-0.134668 -0.257867 0.222481 -0.187292 -0.081088 0.978942 0.236959 0.473461 88 144 86
0.110482 -0.146703 0.265376 0.299529 0.057260 0.952367 0.084560 0.491446 116 89 61
0.086405 -0.234162 0.278207 0.299529 0.057260 0.952367 0.121635 0.526858 116 89 61
0.266087 -0.292667 0.225213 0.299529 0.057260 0.952367 0.052652 0.607937 116 89 61
-0.491955 -0.081271 0.210000 -0.227882 -0.244789 0.942381 0.358788 0.282882 89 144 87
-0.453842 -0.129742 0.214031 -0.381146 0.077700 0.921232 0.354428 0.317602 88 144 86
-0.385464 -0.043543 0.197423 0.205176 -0.186682 0.960723 0.296301 0.295796 88 144 86
-0.438961 -0.011619 0.283858 0.527364 -0.637385 0.561808 0.311189 0.264672 116 89 61
-0.385464 -0.043543 0.197423 0.527364 -0.637385 0.561808 0.296301 0.295796 116 89 61
-0.316856 0.031015 0.217608 0.527364 -0.637385 0.561808 0.240748 0.279741 116 89 61
-0.385464 -0.043543 0.197423 0.340709 -0.793662 0.504003 0.296301 0.295796 116 89 61
-0.438961 -0.011619 0.283858 0.340709 -0.793662 0.504003 0.311189 0.264672 116 89 61
-0.491955 -0.081271 0.210000 0.340709 -0.793662 0.504003 0.358788 0.282882 116 89 61
-0.127985 0.105905 0.187082 -0.110874 0.567919 0.815577 0.127745 0.298767 88 144 86
-0.104785 0.064254 0.206474 -0.125004 0.469100 0.874233 0.128318 0.325813 88 144 86
0.023200 0.140376 0.167141 0.249336 0.292062 0.923307 0.044671 0.326369 88 144 86
-0.009301 0.168130 0.159125 0.282294 0.556324 0.781546 0.052462 0.303351 116 89 61
0.023200 0.140376 0.167141 0.282294 0.556324 0.781546 0.044671 0.326369 116 89 61
0.079796 0.136722 0.149300 0.282294 0.556324 0.781546 0.018634 0.344733 116 89 61
-0.009301 0.168130 0.159125 -0.039521 0.674245 0.737419 0.052462 0.303351 88 144 86
0.023725 0.208423 0.107490 0.132939 0.812250 0.567919 0.025642 0.293434 88 144 86
-0.527560 -0.005955 0.201593 -0.682600 -0.245876 0.688188 0.050781 0.775787 116 89 61
-0.491955 -0.081271 0.210000 -0.682600 -0.245876 0.688188 0.050781 0.822891 116 89 61
-0.448206 0.020967 0.289922 -0.682600 -0.245876 0.688188 0.000000 0.792016 116 89 61
-0.527560 -0.005955 0.201593 -0.722282 0.472738 0.504805 0.354145 0.235860 116 89 61
-0.448206 0.020967 0.289922 -0.722282 0.472738 0.504805 0.306000 0.246143 116 89 61
-0.375833 0.146578 0.275843 -0.722282 0.472738 0.504805 0.234327 0.206376 116 89 61
-0.375833 0.146578 0.275843 -0.682094 0.372040 0.629550 0.234327 0.206376 116 89 61
-0.415866 0.173065 0.216816 -0.682094 0.372040 0.629550 0.247152 0.181721 116 89 61
-0.527560 -0.005955 0.201593 -0.682094 0.372040 0.629550 0.354145 0.235860 116 89 61
-0.242714 0.289825 0.194329 0.365947 0.102023 0.925016 0.129340 0.175812 88 144 86
-0.154892 0.398595 0.185021 0.391675 -0.093326 0.915342 0.055015 0.148758 88 144 86
-0.606298 -0.164577 0.147699 -0.332347 -0.513413 0.791131 0.949091 0.450469 116 89 61
-0.664713 -0.107640 0.180997 -0.223090 -0.739982 0.634541 0.967852 0.495367 120 94 66
-0.654256 -0.155119 0.123550 -0.729423 -0.620991 0.286843 0.934671 0.469725 116 89 61
0.173810 -0.481476 0.179188 -0.081454 -0.367534 0.926420 0.153703 0.672500 91 146 89
-0.087840 -0.495677 0.200346 -0.005371 -0.162145 0.986724 0.284409 0.602647 88 144 86
0.009845 -0.531327 0.198148 0.036134 0.184423 0.982177 0.247507 0.648615 88 144 86
-0.059860 0.000036 0.265884 -0.472746 0.357410 0.805462 0.124176 0.370223 116 89 61
-0.150677 -0.099807 0.256885 -0.472746 0.357410 0.805462 0.197698 0.392048 116 89 61
0.000644 -0.067547 0.331384 -0.472746 0.357410 0.805462 0.113341 0.420843 253 255 252
-0.059860 0.000036 0.265884 -0.226895 0.565414 0.792985 0.124176 0.370223 116 89 61
0.000644 -0.067547 0.331384 -0.226895 0.565414 0.792985 0.113341 0.420843 253 255 252
0.013485 -0.037986 0.313980 -0.226895 0.565414 0.792985 0.098785 0.410242 253 255 252
0.005297 -0.087445 0.329267 0.035467 -0.590891 0.805971 0.116960 0.431868 253 255 252
0.005507 -0.168946 0.269506 0.035467 -0.590891 0.805971 0.141938 0.471451 116 89 61
0.049528 -0.154274 0.278325 0.035467 -0.590891 0.805971 0.116101 0.477250 116 89 61
0.005507 -0.168946 0.269506 -0.310928 -0.562535 0.766080 0.141938 0.471451 116 89 61
0.005297 -0.087445 0.329267 -0.310928 -0.562535 0.766080 0.116960 0.431868 253 255 252
-0.150677 -0.099807 0.256885 -0.310928 -0.562535 0.766080 0.197698 0.392048 116 89 61
0.005507 -0.168946 0.269506 -0.254110 -0.414512 0.873846 0.141938 0.471451 116 89 61
-0.150677 -0.099807 0.256885 -0.254110 -0.414512 0.873846 0.197698 0.392048 116 89 61
-0.182810 -0.184327 0.207448 -0.254110 -0.414512 0.873846 0.239052 0.423617 116 89 61
0.005297 -0.087445 0.329267 0.238956 -0.483671 0.841999 0.116960 0.431868 253 255 252
0.049528 -0.154274 0.278325 0.238956 -0.483671 0.841999 0.116101 0.477250 116 89 61
0.110482 -0.146703 0.265376 0.238956 -0.483671 0.841999 0.084560 0.491446 116 89 61
0.062418 -0.062065 0.323338 0.553853 -0.232906 0.799376 0.081918 0.436298 253 255 252
0.110482 -0.146703 0.265376 0.553853 -0.232906 0.799376 0.084560 0.491446 116 89 61
0.211639 -0.124570 0.201737 0.553853 -0.232906 0.799376 0.030243 0.510326 116 89 61
0.211639 -0.124570 0.201737 0.647841 0.071095 0.758451 0.030243 0.510326 116 89 61
0.147389 -0.019039 0.246725 0.647841 0.071095 0.758451 0.029585 0.440273 116 89 61
0.062418 -0.062065 0.323338 0.647841 0.071095 0.758451 0.081918 0.436298 253 255 252
-0.329469 0.113674 0.319070 0.659032 -0.540901 0.522593 0.220624 0.235991 253 255 252
-0.316856 0.031015 0.217608 0.659032 -0.540901 0.522593 0.240748 0.279741 116 89 61
-0.232492 0.094750 0.177187 0.659032 -0.540901 0.522593 0.181921 0.273513 116 89 61
-0.246279 0.237886 0.198976 0.761437 -0.048280 0.646413 0.795780 0.777228 88 144 86
-0.232492 0.094750 0.177187 0.388318 0.362774 0.847072 0.731723 0.816298 88 144 86
-0.138833 0.208560 0.073546 0.610401 0.222297 0.760216 0.714086 0.743836 88 144 86
-0.232492 0.094750 0.177187 0.825158 -0.006509 0.564864 0.731723 0.816298 116 89 61
-0.246279 0.237886 0.198976 0.825158 -0.006509 0.564864 0.795780 0.777228 116 89 61
-0.329469 0.113674 0.319070 0.825158 -0.006509 0.564864 0.812500 0.861712 253 255 252
-0.124979 0.175483 0.100095 -0.040376 0.748955 0.661367 0.107603 0.265794 88 144 86
-0.138833 0.208560 0.073546 0.610401 0.222297 0.760216 0.105151 0.245646 88 144 86
-0.232492 0.094750 0.177187 0.388318 0.362774 0.847072 0.181921 0.273513 88 144 86
-0.124979 0.175483 0.100095 -0.200446 0.768438 0.607720 0.107603 0.265794 116 89 61
-0.127985 0.105905 0.187082 -0.200446 0.768438 0.607720 0.127745 0.298767 116 89 61
0.023725 0.208423 0.107490 -0.200446 0.768438 0.607720 0.025642 0.293434 116 89 61
-0.052865 0.245744 -0.002087 -0.049135 0.954650 0.293558 0.933014 0.775367 88 144 86
-0.483552 0.231032 0.202164 -0.096530 0.133549 0.986297 0.263287 0.133705 88 144 86
0.401437 -0.484394 0.203976 0.702078 0.251900 0.666036 0.043617 0.740721 88 144 86
0.193248 -0.310896 0.234032 -0.036256 -0.345744 0.937590 0.093166 0.595425 88 144 86
0.035512 -0.316541 0.216927 -0.054323 -0.377606 0.924345 0.171698 0.551874 88 144 86
0.226725 -0.293506 0.238748 0.196020 -0.038484 0.979827 0.071730 0.596808 88 144 86
0.266087 -0.292667 0.225213 0.648854 0.214423 0.730064 0.052652 0.607937 88 144 86
-0.078897 -0.329868 0.210957 -0.061861 0.152745 0.986297 0.231239 0.524773 88 144 86
-0.433187 -0.252823 0.193582 -0.330638 -0.290689 0.897855 0.380902 0.383405 88 144 86
-0.513141 -0.328691 0.137877 -0.758904 -0.353526 0.546831 0.443046 0.396738 89 145 87
-0.062243 -0.288217 0.226788 -0.126774 -0.481826 0.867031 0.210631 0.509450 88 144 86
-0.182810 -0.184327 0.207448 -0.128697 -0.165899 0.977691 0.239052 0.423617 88 144 86
-0.134668 -0.257867 0.222481 -0.187292 -0.081088 0.978942 0.236959 0.473461 89 145 87
0.002807 -0.242774 0.273179 -0.161901 -0.289621 0.943327 0.164824 0.506508 88 144 86
0.005507 -0.168946 0.269506 -0.065293 0.051960 0.996512 0.141938 0.471451 116 89 61
0.002807 -0.242774 0.273179 -0.065293 0.051960 0.996512 0.164824 0.506508 116 89 61
0.086405 -0.234162 0.278207 -0.065293 0.051960 0.996512 0.121635 0.526858 116 89 61
0.086405 -0.234162 0.278207 -0.170117 -0.079983 0.982172 0.121635 0.526858 116 89 61
0.049528 -0.154274 0.278325 -0.170117 -0.079983 0.982172 0.116101 0.477250 116 89 61
0.005507 -0.168946 0.269506 -0.170117 -0.079983 0.982172 0.141938 0.471451 116 89 61
0.086405 -0.234162 0.278207 0.089785 -0.185553 0.978515 0.121635 0.526858 94 148 92
0.141891 0.091786 0.160345 0.953337 0.297513 -0.051327 0.771063 0.392006 116 89 61
0.211639 -0.124570 0.201737 0.953337 0.297513 -0.051327 0.744450 0.265654 116 89 61
0.171098 -0.015708 0.079754 0.953337 0.297513 -0.051327 0.814425 0.330717 116 89 61
0.262949 -0.201908 0.154372 0.884668 0.461870 0.063557 0.771564 0.213130 116 89 61
0.273564 -0.200727 -0.001957 0.884668 0.461870 0.063557 0.860241 0.210715 116 89 61
0.171098 -0.015708 0.079754 0.884668 0.461870 0.063557 0.814425 0.330717 116 89 61
0.211639 -0.124570 0.201737 0.849988 0.349436 0.394227 0.744450 0.265654 116 89 61
0.141891 0.091786 0.160345 0.849988 0.349436 0.394227 0.771063 0.392006 116 89 61
0.147389 -0.019039 0.246725 0.849988 0.349436 0.394227 0.718866 0.335716 116 89 61
0.171098 -0.015708 0.079754 0.889498 0.381635 0.251292 0.814425 0.330717 116 89 61
0.273564 -0.200727 -0.001957 0.889498 0.381635 0.251292 0.860241 0.210715 116 89 61
0.157700 0.069432 -0.002120 0.889498 0.381635 0.251292 0.862682 0.376510 116 89 61
0.262949 -0.201908 0.154372 0.968380 0.179196 -0.173577 0.771564 0.213130 116 89 61
0.294214 -0.330872 0.195659 0.968380 0.179196 -0.173577 0.745708 0.140689 116 89 61
0.272304 -0.317280 0.087456 0.968380 0.179196 -0.173577 0.805712 0.153476 116 89 61
0.273564 -0.200727 -0.001957 0.843825 0.320853 0.430131 0.860241 0.210715 116 89 61
0.272304 -0.317280 0.087456 0.843825 0.320853 0.430131 0.805712 0.153476 116 89 61
0.320220 -0.323256 -0.002086 0.843825 0.320853 0.430131 0.858880 0.137160 116 89 61
-0.348790 -0.115672 0.239884 -0.149205 0.495834 0.855495 0.298817 0.341613 88 144 86
-0.558398 -0.228968 0.133833 -0.282418 -0.188971 0.940458 0.435844 0.335037 88 144 86
-0.484464 -0.170492 0.186841 -0.451216 -0.261818 0.853114 0.381774 0.328381 88 144 86
-0.248838 -0.112233 0.247495 -0.034913 -0.072848 0.996704 0.249158 0.369274 91 147 89
-0.198697 -0.018541 0.214086 -0.286660 0.432569 0.854793 0.198015 0.338466 88 144 86
-0.104785 0.064254 0.206474 -0.125004 0.469100 0.874233 0.128318 0.325813 102 154 100
-0.299870 -0.052662 0.200644 -0.148808 0.387829 0.909604 0.257378 0.325339 88 144 86
-0.198697 -0.018541 0.214086 -0.362381 0.479027 0.799508 0.198015 0.338466 116 89 61
-0.248838 -0.112233 0.247495 -0.362381 0.479027 0.799508 0.249158 0.369274 116 89 61
-0.059860 0.000036 0.265884 -0.362381 0.479027 0.799508 0.124176 0.370223 116 89 61
-0.104785 0.064254 0.206474 -0.031227 0.666905 0.744488 0.128318 0.325813 116 89 61
-0.059860 0.000036 0.265884 -0.031227 0.666905 0.744488 0.124176 0.370223 116 89 61
0.079796 0.136722 0.149300 -0.031227 0.666905 0.744488 0.018634 0.344733 116 89 61
-0.059860 0.000036 0.265884 -0.362004 0.483862 0.796763 0.124176 0.370223 116 89 61
-0.104785 0.064254 0.206474 -0.362004 0.483862 0.796763 0.128318 0.325813 116 89 61
-0.198697 -0.018541 0.214086 -0.362004 0.483862 0.796763 0.198015 0.338466 116 89 61
0.079796 0.136722 0.149300 0.339835 0.639184 0.689896 0.774996 0.431499 116 89 61
0.099507 0.015314 0.252074 0.339835 0.639184 0.689896 0.714086 0.366027 116 89 61
0.141891 0.091786 0.160345 0.339835 0.639184 0.689896 0.771063 0.392006 116 89 61
0.141891 0.091786 0.160345 0.487650 0.718670 0.495692 0.771063 0.392006 116 89 61
0.043429 0.270651 -0.002114 0.487650 0.718670 0.495692 0.862682 0.507783 116 89 61
0.023725 0.208423 0.107490 0.487650 0.718670 0.495692 0.797567 0.482537 116 89 61
0.141891 0.091786 0.160345 0.365847 0.665475 0.650614 0.771063 0.392006 116 89 61
0.023725 0.208423 0.107490 0.365847 0.665475 0.650614 0.797567 0.482537 116 89 61
0.079796 0.136722 0.149300 0.365847 0.665475 0.650614 0.774996 0.431499 116 89 61
0.043429 0.270651 -0.002114 0.869444 0.493750 0.016664 0.862682 0.507783 116 89 61
0.141891 0.091786 0.160345 0.869444 0.493750 0.016664 0.771063 0.392006 116 89 61
0.157700 0.069432 -0.002120 0.869444 0.493750 0.016664 0.862682 0.376510 116 89 61
-0.664713 -0.107640 0.180997 -0.223090 -0.739982 0.634541 0.450921 0.244975 88 144 86
-0.606298 -0.164577 0.147699 -0.332347 -0.513413 0.791131 0.439930 0.289731 88 144 86
-0.585213 -0.100243 0.182706 -0.084689 -0.336467 0.937864 0.410142 0.264710 88 144 86
-0.636702 -0.058838 0.204379 -0.103122 -0.154180 0.982635 0.422556 0.229518 88 144 86
-0.527560 -0.005955 0.201593 -0.240608 -0.126316 0.962340 0.354145 0.235860 88 144 86
-0.568444 0.038748 0.219760 -0.125187 0.009339 0.992065 0.360516 0.202175 88 144 86
-0.415866 0.173065 0.216816 -0.416333 0.273751 0.867000 0.247152 0.181721 88 144 86
-0.448206 0.020967 0.289922 -0.080038 -0.204249 0.975641 0.306000 0.246143 116 89 61
-0.438961 -0.011619 0.283858 -0.080038 -0.204249 0.975641 0.311189 0.264672 116 89 61
-0.329469 0.113674 0.319070 -0.080038 -0.204249 0.975641 0.220624 0.235991 253 255 252
-0.329469 0.113674 0.319070 -0.481745 0.366771 0.795865 0.220624 0.235991 253 255 252
-0.375833 0.146578 0.275843 -0.481745 0.366771 0.795865 0.234327 0.206376 116 89 61
-0.448206 0.020967 0.289922 -0.481745 0.366771 0.795865 0.306000 0.246143 116 89 61
-0.438961 -0.011619 0.283858 -0.610464 -0.308901 0.729325 0.311189 0.264672 116 89 61
-0.448206 0.020967 0.289922 -0.610464 -0.308901 0.729325 0.306000 0.246143 116 89 61
-0.491955 -0.081271 0.210000 -0.610464 -0.308901 0.729325 0.358788 0.282882 116 89 61
-0.329469 0.113674 0.319070 -0.234175 0.636024 0.735279 0.220624 0.235991 253 255 252
-0.242714 0.289825 0.194329 -0.234175 0.636024 0.735279 0.129340 0.175812 116 89 61
-0.375833 0.146578 0.275843 -0.234175 0.636024 0.735279 0.234327 0.206376 116 89 61
-0.242714 0.289825 0.194329 0.483359 0.045058 0.874262 0.129340 0.175812 116 89 61
-0.246279 0.237886 0.198976 0.483359 0.045058 0.874262 0.146208 0.199988 116 89 61
-0.068402 0.395806 0.092493 0.483359 0.045058 0.874262 0.015693 0.175411 116 89 61
-0.084262 0.448671 0.134757 0.832698 0.244545 0.496780 0.007052 0.145125 88 144 86
-0.120484 0.462158 0.160932 0.456923 0.329966 0.826014 0.020155 0.127971 88 144 86
-0.155811 0.535156 0.126471 0.715598 0.571306 0.401837 0.016573 0.082134 88 144 86
-0.030623 0.391914 -0.002093 0.768300 0.639071 0.036096 0.915941 0.711209 116 89 61
-0.155811 0.535156 0.126471 0.768300 0.639071 0.036096 0.973126 0.594860 116 89 61
-0.084262 0.448671 0.134757 0.768300 0.639071 0.036096 0.986384 0.656192 116 89 61
-0.636347 -0.004709 0.197483 -0.379315 0.135929 0.915189 0.406648 0.203334 88 144 86
-0.610492 0.039159 0.199253 -0.425031 0.227546 0.876095 0.381203 0.189622 88 144 86
-0.582928 0.085868 0.199253 -0.408673 0.255654 0.876125 0.354132 0.175030 88 144 86
-0.268036 0.622033 0.191816 0.332194 -0.175146 0.926786 0.044261 0.007081 88 144 86
-0.286077 0.587730 0.192464 0.306131 -0.065859 0.949705 0.063061 0.018444 88 144 86
-0.664713 -0.107640 0.180997 -0.223090 -0.739982 0.634541 0.967852 0.495367 88 144 86
-0.685875 -0.095280 0.169665 -0.491195 -0.870449 -0.032044 0.961248 0.507783 88 144 86
-0.687522 -0.098918 0.143239 -0.768303 -0.607532 0.201392 0.946178 0.506664 88 144 86
-0.654256 -0.155119 0.123550 -0.848327 -0.525324 0.066155 0.934671 0.469725 116 89 61
-0.687522 -0.098918 0.143239 -0.848327 -0.525324 0.066155 0.946178 0.506664 116 89 61
-0.687455 -0.102233 0.117778 -0.848327 -0.525324 0.066155 0.931693 0.505173 116 89 61
-0.155811 0.535156 0.126471 0.759394 0.643474 0.096245 0.973126 0.594860 88 144 86
-0.249411 0.641531 0.153797 0.759394 0.643474 0.096245 0.977754 0.514437 88 144 86
-0.256343 0.643686 0.194080 0.759394 0.643474 0.096245 1.000000 0.507783 88 144 86
-0.256343 0.643686 0.194080 0.675192 0.179785 0.715354 0.032193 0.000000 88 144 86
0.350915 -0.382351 0.066330 0.913070 0.292943 0.283704 0.820199 0.099424 116 89 61
0.294214 -0.330872 0.195659 0.913070 0.292943 0.283704 0.745708 0.140689 116 89 61
0.394820 -0.452940 -0.002087 0.913070 0.292943 0.283704 0.858937 0.052290 116 89 61
-0.513141 -0.328691 0.137877 -0.776789 -0.625478 0.073320 0.942432 0.343602 116 89 61
-0.654256 -0.155119 0.123550 -0.776789 -0.625478 0.073320 0.934671 0.469725 116 89 61
-0.631924 -0.197458 -0.001043 -0.776789 -0.625478 0.073320 0.863747 0.443225 116 89 61
0.394821 -0.452941 -0.002089 0.822157 0.567005 0.050633 0.000000 0.000000 255 255 255
0.394820 -0.452940 -0.002087 0.822157 0.567005 0.050633 0.000000 0.000000 255 255 255
0.394821 -0.452942 -0.002087 0.822157 0.567005 0.050633 0.000000 0.000000 255 255 255
-0.426701 -0.536702 0.195998 -0.751732 -0.128819 0.646748 0.460950 0.523144 95 149 93
-0.407623 -0.537533 0.207096 -0.125248 0.087954 0.988189 0.451718 0.529154 88 144 86
0.297671 -0.535945 0.199059 -0.000043 0.190931 0.981604 0.109181 0.735303 88 144 86
0.009845 -0.531327 0.198148 -0.000043 0.190931 0.981604 0.247507 0.648615 88 144 86
0.060462 -0.536996 0.199253 -0.000043 0.190931 0.981604 0.224586 0.666219 88 144 86
-0.154892 -0.537680 0.199253 0.005066 0.019227 0.999786 0.329283 0.603368 88 144 86
-0.101054 -0.537509 0.199253 -0.000591 0.186216 0.982509 0.303109 0.619081 88 144 86
-0.047215 -0.537338 0.199253 -0.000591 0.186216 0.982509 0.276935 0.634793 88 144 86
0.009845 -0.531327 0.198148 -0.000591 0.186216 0.982509 0.247507 0.648615 88 144 86
-0.047215 -0.537338 0.199253 -0.000591 0.186218 0.982508 0.276935 0.634793 88 144 86
0.006624 -0.537167 0.199253 -0.000591 0.186218 0.982508 0.250760 0.650506 88 144 86
0.009845 -0.531327 0.198148 -0.000591 0.186218 0.982508 0.247507 0.648615 88 144 86
-0.368378 -0.537963 0.198721 0.086428 0.041749 0.995361 0.432966 0.540870 88 144 86
-0.318264 -0.538092 0.196019 0.010437 -0.036378 0.999268 0.408741 0.555634 88 144 86
-0.262943 -0.538022 0.197640 -0.029481 -0.039277 0.998779 0.381844 0.571832 88 144 86
-0.208731 -0.537851 0.199253 -0.005493 -0.002686 0.999969 0.355457 0.587655 88 144 86
0.433968 -0.533214 0.147587 0.883795 0.452785 0.117863 0.774307 0.001755 116 89 61
0.437333 -0.532022 0.117779 0.883795 0.452785 0.117863 0.791334 0.001399 116 89 61
0.401437 -0.484394 0.203976 0.883795 0.452785 0.117863 0.742276 0.034958 116 89 61
0.099507 0.015314 0.252074 0.161802 0.625432 0.763318 0.042639 0.409550 116 89 61
0.013485 -0.037986 0.313980 0.161802 0.625432 0.763318 0.098785 0.410242 252 254 251
0.062418 -0.062065 0.323338 0.161802 0.625432 0.763318 0.081918 0.436298 253 255 252
0.141891 0.091786 0.160345 0.474838 0.555557 0.682558 0.771063 0.392006 116 89 61
0.099507 0.015314 0.252074 0.474838 0.555557 0.682558 0.714086 0.366027 116 89 61
0.147389 -0.019039 0.246725 0.474838 0.555557 0.682558 0.718866 0.335716 116 89 61
0.013485 -0.037986 0.313980 0.132245 0.652851 0.745853 0.098785 0.410242 253 255 252
0.099507 0.015314 0.252074 0.132245 0.652851 0.745853 0.042639 0.409550 116 89 61
0.079796 0.136722 0.149300 0.132245 0.652851 0.745853 0.018634 0.344733 116 89 61
0.013485 -0.037986 0.313980 -0.098475 0.702119 0.705217 0.098785 0.410242 253 255 252
0.079796 0.136722 0.149300 -0.098475 0.702119 0.705217 0.018634 0.344733 116 89 61
-0.059860 0.000036 0.265884 -0.098475 0.702119 0.705217 0.124176 0.370223 116 89 61
-0.068402 0.395806 0.092493 0.839045 -0.231178 0.492477 0.015693 0.175411 88 144 86
-0.246279 0.237886 0.198976 0.761437 -0.048280 0.646413 0.146208 0.199988 88 144 86
0.394819 -0.452939 -0.002086 0.911786 0.330609 0.243607 0.000000 0.000000 255 255 255
0.350915 -0.382351 0.066330 0.911786 0.330609 0.243607 0.000000 0.000000 255 255 255
0.394820 -0.452940 -0.002087 0.911786 0.330609 0.243607 0.000000 0.000000 255 255 255
0.329336 -0.347189 -0.002086 0.850192 0.526467 0.002422 0.858600 0.122792 116 89 61
0.350915 -0.382351 0.066330 0.850192 0.526467 0.002422 0.820199 0.099424 116 89 61
0.394819 -0.452939 -0.002086 0.850192 0.526467 0.002422 0.858937 0.052291 116 89 61
0.211639 -0.124570 0.201737 0.469838 0.269576 0.840584 0.030243 0.510326 116 89 61
0.110482 -0.146703 0.265376 0.469838 0.269576 0.840584 0.084560 0.491446 116 89 61
0.266087 -0.292667 0.225213 0.469838 0.269576 0.840584 0.052652 0.607937 116 89 61
0.086405 -0.234162 0.278207 0.196366 0.089195 0.976465 0.121635 0.526858 116 89 61
0.110482 -0.146703 0.265376 0.196366 0.089195 0.976465 0.084560 0.491446 116 89 61
0.049528 -0.154274 0.278325 0.196366 0.089195 0.976465 0.116101 0.477250 116 89 61
0.157700 0.069432 -0.002120 0.974241 0.215911 0.065090 0.862682 0.376510 116 89 61
0.141891 0.091786 0.160345 0.974241 0.215911 0.065090 0.771063 0.392006 116 89 61
0.171098 -0.015708 0.079754 0.974241 0.215911 0.065090 0.814425 0.330717 116 89 61
-0.329469 0.113674 0.319070 0.529581 -0.624212 0.574372 0.220624 0.235991 253 255 252
-0.438961 -0.011619 0.283858 0.529581 -0.624212 0.574372 0.311189 0.264672 116 89 61
-0.316856 0.031015 0.217608 0.529581 -0.624212 0.574372 0.240748 0.279741 116 89 61
0.023725 0.208423 0.107490 0.304976 0.646348 0.699446 0.025642 0.293434 116 89 61
-0.009301 0.168130 0.159125 0.304976 0.646348 0.699446 0.052462 0.303351 116 89 61
0.079796 0.136722 0.149300 0.304976 0.646348 0.699446 0.018634 0.344733 116 89 61
0.000644 -0.067547 0.331384 -0.400974 -0.189143 0.896351 0.113341 0.420843 253 255 252
-0.150677 -0.099807 0.256885 -0.400974 -0.189143 0.896351 0.197698 0.392048 116 89 61
0.005297 -0.087445 0.329267 -0.400974 -0.189143 0.896351 0.116960 0.431868 253 255 252
-0.150677 -0.099807 0.256885 -0.094785 -0.003514 0.995492 0.197698 0.392048 116 89 61
-0.059860 0.000036 0.265884 -0.094785 -0.003514 0.995492 0.124176 0.370223 116 89 61
-0.248838 -0.112233 0.247495 -0.094785 -0.003514 0.995492 0.249158 0.369274 116 89 61
0.062418 -0.062065 0.323338 0.279836 -0.429190 0.858771 0.081918 0.436298 253 255 252
0.005297 -0.087445 0.329267 0.279836 -0.429190 0.858771 0.116960 0.431868 253 255 252
0.110482 -0.146703 0.265376 0.279836 -0.429190 0.858771 0.084560 0.491446 116 89 61
0.005297 -0.087445 0.329267 0.135227 -0.073522 0.988083 0.116960 0.431868 253 255 252
0.062418 -0.062065 0.323338 0.135227 -0.073522 0.988083 0.081918 0.436298 253 255 252
0.000644 -0.067547 0.331384 0.135227 -0.073522 0.988083 0.113341 0.420843 253 255 252
-0.513141 -0.328691 0.137877 -0.116086 -0.012401 0.993162 0.443046 0.396738 116 89 61
-0.558398 -0.228968 0.133833 -0.116086 -0.012401 0.993162 0.435844 0.335037 116 89 61
-0.654256 -0.155119 0.123550 -0.116086 -0.012401 0.993162 0.460904 0.271049 116 89 61
-0.316856 0.031015 0.217608 0.333192 -0.519608 0.786760 0.240748 0.279741 88 144 86
-0.385464 -0.043543 0.197423 0.333192 -0.519608 0.786760 0.296301 0.295796 88 144 86
-0.127985 0.105905 0.187082 0.333192 -0.519608 0.786760 0.127745 0.298767 88 144 86
-0.316856 0.031015 0.217608 0.479781 -0.534074 0.696066 0.240748 0.279741 88 144 86
-0.124979 0.175483 0.100095 -0.214237 0.865462 0.452855 0.107603 0.265794 116 89 61
0.023725 0.208423 0.107490 -0.214237 0.865462 0.452855 0.025642 0.293434 116 89 61
0.043429 0.270651 -0.002114 -0.214237 0.865462 0.452855 0.000000 0.268910 116 89 61
-0.124979 0.175483 0.100095 -0.040376 0.748955 0.661367 0.999020 0.779481 88 144 86
0.329312 -0.347168 -0.002086 0.655145 0.735777 0.171515 0.858599 0.122809 116 89 61
0.272304 -0.317280 0.087456 0.655145 0.735777 0.171515 0.805712 0.153476 116 89 61
0.350915 -0.382351 0.066330 0.655145 0.735777 0.171515 0.820199 0.099424 116 89 61
0.275167 -0.370067 0.227831 0.240272 0.255684 0.936399 0.725024 0.126625 88 144 86
0.294214 -0.330872 0.195659 0.849269 0.401532 0.342784 0.745708 0.140689 88 144 86
0.266087 -0.292667 0.225213 0.648854 0.214423 0.730064 0.728676 0.167412 88 144 86
0.272304 -0.317280 0.087456 0.632418 0.774014 -0.030833 0.805712 0.153476 116 89 61
0.294214 -0.330872 0.195659 0.632418 0.774014 -0.030833 0.745708 0.140689 116 89 61
0.350915 -0.382351 0.066330 0.632418 0.774014 -0.030833 0.820199 0.099424 116 89 61
0.294214 -0.330872 0.195659 0.849269 0.401532 0.342784 0.050791 0.634715 88 144 86
0.329293 -0.439059 0.240610 0.339335 0.033357 0.940062 0.718765 0.077459 90 145 88
0.401437 -0.484394 0.203976 0.702078 0.251900 0.666036 0.742276 0.034958 88 144 86
0.438447 -0.534269 0.194439 0.747368 0.463576 0.475875 0.040472 0.775787 90 146 88
0.005507 -0.168946 0.269506 -0.316763 0.058679 0.946688 0.141938 0.471451 116 89 61
-0.182810 -0.184327 0.207448 -0.316763 0.058679 0.946688 0.239052 0.423617 116 89 61
0.002807 -0.242774 0.273179 -0.316763 0.058679 0.946688 0.164824 0.506508 116 89 61
0.211639 -0.124570 0.201737 0.863071 0.483836 0.144953 0.744450 0.265654 116 89 61
0.262949 -0.201908 0.154372 0.863071 0.483836 0.144953 0.771564 0.213130 116 89 61
0.171098 -0.015708 0.079754 0.863071 0.483836 0.144953 0.814425 0.330717 116 89 61
0.262949 -0.201908 0.154372 0.859524 0.332608 0.388060 0.771564 0.213130 116 89 61
0.266087 -0.292667 0.225213 0.859524 0.332608 0.388060 0.728676 0.167412 116 89 61
0.294214 -0.330872 0.195659 0.859524 0.332608 0.388060 0.745708 0.140689 116 89 61
0.262949 -0.201908 0.154372 0.996827 0.041390 0.067995 0.771564 0.213130 116 89 61
0.272304 -0.317280 0.087456 0.996827 0.041390 0.067995 0.805712 0.153476 116 89 61
0.273564 -0.200727 -0.001957 0.996827 0.041390 0.067995 0.860241 0.210715 116 89 61
0.266087 -0.292667 0.225213 0.859530 0.332602 0.388052 0.728676 0.167412 116 89 61
0.262949 -0.201908 0.154372 0.859530 0.332602 0.388052 0.771564 0.213130 116 89 61
0.211639 -0.124570 0.201737 0.859530 0.332602 0.388052 0.744450 0.265654 116 89 61
-0.433187 -0.252823 0.193582 -0.330638 -0.290689 0.897855 0.416798 0.801410 88 144 86
-0.388832 -0.176137 0.270359 -0.145268 -0.166723 0.975219 0.460950 0.775787 88 144 86
-0.484464 -0.170492 0.186841 -0.451216 -0.261818 0.853114 0.460950 0.834460 88 144 86
-0.104785 0.064254 0.206474 -0.239791 0.355057 0.903568 0.128318 0.325813 102 154 100
-0.299870 -0.052662 0.200644 -0.239791 0.355057 0.903568 0.257378 0.325339 88 144 86
-0.198697 -0.018541 0.214086 -0.239791 0.355057 0.903568 0.198015 0.338466 88 144 86
-0.104785 0.064254 0.206474 0.299961 -0.011448 0.953883 0.128318 0.325813 116 89 61
0.079796 0.136722 0.149300 0.299961 -0.011448 0.953883 0.018634 0.344733 116 89 61
0.023200 0.140376 0.167141 0.299961 -0.011448 0.953883 0.044671 0.326369 116 89 61
-0.688631 -0.102968 0.191421 -0.137638 -0.869289 0.474685 0.460950 0.235698 88 144 86
-0.491955 -0.081271 0.210000 -0.227882 -0.244789 0.942381 0.358788 0.282882 88 144 86
-0.326144 0.357638 0.196290 0.255567 0.287723 0.922985 0.149898 0.118411 116 89 61
-0.375833 0.146578 0.275843 0.255567 0.287723 0.922985 0.234327 0.206376 116 89 61
-0.242714 0.289825 0.194329 0.255567 0.287723 0.922985 0.129340 0.175812 116 89 61
-0.375833 0.146578 0.275843 -0.668250 0.394949 0.630442 0.234327 0.206376 116 89 61
-0.326144 0.357638 0.196290 -0.668250 0.394949 0.630442 0.149898 0.118411 116 89 61
-0.415866 0.173065 0.216816 -0.668250 0.394949 0.630442 0.247152 0.181721 116 89 61
-0.242714 0.289825 0.194329 0.824936 -0.006042 0.565193 0.812500 0.758480 116 89 61
-0.329469 0.113674 0.319070 0.824936 -0.006042 0.565193 0.812500 0.861712 253 255 252
-0.246279 0.237886 0.198976 0.824936 -0.006042 0.565193 0.795780 0.777228 116 89 61
-0.154892 0.398595 0.185021 0.639982 -0.464339 0.612219 0.055015 0.148758 116 89 61
-0.242714 0.289825 0.194329 0.639982 -0.464339 0.612219 0.129340 0.175812 116 89 61
-0.068402 0.395806 0.092493 0.639982 -0.464339 0.612219 0.015693 0.175411 116 89 61
-0.084262 0.448671 0.134757 0.688455 -0.315534 0.653045 0.007052 0.145125 116 89 61
-0.154892 0.398595 0.185021 0.688455 -0.315534 0.653045 0.055015 0.148758 116 89 61
-0.068402 0.395806 0.092493 0.688455 -0.315534 0.653045 0.015693 0.175411 116 89 61
-0.606298 -0.164577 0.147699 -0.332347 -0.513413 0.791131 0.439930 0.289731 116 89 61
-0.654256 -0.155119 0.123550 -0.729423 -0.620991 0.286843 0.460904 0.271049 116 89 61
-0.558398 -0.228968 0.133833 -0.282418 -0.188971 0.940458 0.435844 0.335037 116 89 61
-0.120484 0.462158 0.160932 0.456923 0.329966 0.826014 1.000000 0.637008 88 144 86
-0.084262 0.448671 0.134757 0.832698 0.244545 0.496780 0.986384 0.656192 88 144 86
-0.155811 0.535156 0.126471 0.715598 0.571306 0.401837 0.973126 0.594860 88 144 86
-0.030623 0.391914 -0.002093 0.928243 -0.018516 0.371514 0.915941 0.711209 116 89 61
-0.084262 0.448671 0.134757 0.928243 -0.018516 0.371514 0.986384 0.656192 116 89 61
-0.068402 0.395806 0.092493 0.928243 -0.018516 0.371514 0.968676 0.690024 116 89 61
-0.636347 -0.004709 0.197483 -0.379315 0.135929 0.915189 0.406648 0.203334 92 147 90
-0.294280 0.580856 0.195354 0.342317 -0.013447 0.939488 0.069000 0.019377 88 144 86
-0.180606 0.507228 0.152881 0.342317 -0.013447 0.939488 0.036271 0.088442 89 145 87
-0.286077 0.587730 0.192464 0.342317 -0.013447 0.939488 0.063061 0.018444 88 144 86
-0.687522 -0.098918 0.143239 -0.768303 -0.607532 0.201392 0.946178 0.506664 116 89 61
-0.688631 -0.102968 0.191421 -0.137638 -0.869289 0.474685 0.973393 0.504847 88 144 86
-0.249411 0.641531 0.153797 0.760030 0.640535 0.109862 0.977754 0.514437 116 89 61
-0.155811 0.535156 0.126471 0.760030 0.640535 0.109862 0.973126 0.594860 116 89 61
-0.245654 0.643250 0.117778 0.760030 0.640535 0.109862 0.957488 0.517934 116 89 61
-0.087864 0.259216 -0.002095 -0.005098 0.002219 -0.999985 0.919209 0.000000 255 255 255
-0.220123 0.617540 -0.000626 -0.005098 0.002219 -0.999985 0.919209 0.216682 255 255 255
-0.030623 0.391914 -0.002093 -0.005098 0.002219 -0.999985 0.862682 0.059379 255 255 255
-0.220123 0.617540 -0.000626 0.765513 0.642754 0.029278 0.894223 0.548307 116 89 61
-0.155811 0.535156 0.126471 0.765513 0.642754 0.029278 0.973126 0.594860 116 89 61
-0.030623 0.391914 -0.002093 0.765513 0.642754 0.029278 0.915941 0.711209 116 89 61
-0.464726 -0.440143 -0.001043 -0.922249 -0.386428 -0.011395 0.862682 0.276152 116 89 61
-0.426701 -0.536702 0.195998 -0.922249 -0.386428 -0.011395 0.973393 0.217477 116 89 61
-0.513141 -0.328691 0.137877 -0.922249 -0.386428 -0.011395 0.942432 0.343602 116 89 61
0.060462 -0.536996 0.199253 -0.000591 0.186218 0.982508 0.224586 0.666219 88 144 86
-0.154892 -0.537680 0.199253 -0.000591 0.186216 0.982509 0.329283 0.603368 88 144 86
0.433968 -0.533214 0.147587 0.795731 0.602418 -0.062491 0.774307 0.001755 116 89 61
0.401437 -0.484394 0.203976 0.795731 0.602418 -0.062491 0.742276 0.034958 116 89 61
0.438447 -0.534269 0.194439 0.795731 0.602418 -0.062491 0.748184 0.000000 116 89 61
0.401437 -0.484394 0.203976 0.834872 0.548640 0.044524 0.742276 0.034958 116 89 61
0.157700 0.069432 -0.002120 0.034374 0.014140 -0.999309 0.975790 0.507783 255 255 255
0.273564 -0.200727 -0.001957 0.034374 0.014140 -0.999309 0.973393 0.341040 255 255 255
0.320220 -0.323256 -0.002086 0.034374 0.014140 -0.999309 0.975399 0.266687 255 255 255
-0.030623 0.391914 -0.002093 0.864986 0.048128 -0.499405 0.915941 0.711209 88 144 86
0.401437 -0.484394 0.203976 0.915794 0.400394 0.031711 0.742276 0.034958 116 89 61
0.400911 -0.466870 -0.002086 0.915794 0.400394 0.031711 0.858823 0.043709 116 89 61
0.394821 -0.452942 -0.002086 0.915794 0.400394 0.031711 0.858937 0.052289 116 89 61
-0.052865 0.245744 -0.002087 -0.049135 0.954650 0.293558 0.054028 0.252751 88 144 86
0.043429 0.270651 -0.002114 0.274453 0.863338 -0.423414 0.000000 0.268910 91 146 89
-0.687455 -0.102233 0.117778 -0.844055 -0.534541 -0.042858 0.931693 0.505173 116 89 61
-0.657882 -0.139486 0.000000 -0.844055 -0.534541 -0.042858 0.864855 0.478868 116 89 61
-0.654256 -0.155119 0.123550 -0.844055 -0.534541 -0.042858 0.934671 0.469725 116 89 61
0.157700 0.069432 -0.002120 -0.000254 -0.000111 -1.000000 0.858402 0.743836 255 255 255
-0.052865 0.245744 -0.002087 -0.000254 -0.000111 -1.000000 0.858402 0.899633 255 255 255
0.043429 0.270651 -0.002114 -0.000254 -0.000111 -1.000000 0.812500 0.866823 255 255 255
0.329328 -0.347176 -0.002111 0.655099 0.735726 0.171907 0.000000 0.000000 255 255 255
0.329312 -0.347168 -0.002086 0.655099 0.735726 0.171907 0.000000 0.000000 255 255 255
0.329336 -0.347189 -0.002086 0.655099 0.735726 0.171907 0.000000 0.000000 255 255 255
-0.220123 0.617540 -0.000626 -0.001454 0.001210 0.999998 0.497576 0.857119 50 57 77
-0.087864 0.259216 0.000000 -0.001454 0.001210 0.999998 0.460950 0.643561 50 57 77
0.216506 0.625000 0.000000 -0.001454 0.001210 0.999998 0.714086 0.736941 0 255 249
0.394821 -0.452942 -0.002086 0.916164 0.400556 0.014073 0.000000 0.000000 255 255 255
0.400911 -0.466870 -0.002086 0.916164 0.400556 0.014073 0.000000 0.000000 255 255 255
0.394821 -0.452942 -0.002087 0.916164 0.400556 0.014073 0.000000 0.000000 255 255 255
-0.866025 -0.500000 0.000000 0.000027 0.003427 0.999994 0.894223 0.743836 0 255 249
-0.549445 -0.299569 -0.000695 0.000027 0.003427 0.999994 0.795564 0.555716 50 57 77
-0.631924 -0.197458 -0.001043 0.000027 0.003427 0.999994 0.865042 0.528925 50 57 77
0.320220 -0.323256 -0.002086 0.843806 0.320847 0.430174 0.858880 0.137160 255 255 255
0.329312 -0.347168 -0.002086 0.843806 0.320847 0.430174 0.858599 0.122809 255 255 255
0.329328 -0.347176 -0.002111 0.843806 0.320847 0.430174 0.858614 0.122801 255 255 255
-0.245654 0.643250 0.117778 0.767726 0.640230 0.026522 0.957488 0.517934 116 89 61
-0.155811 0.535156 0.126471 0.767726 0.640230 0.026522 0.973126 0.594860 116 89 61
-0.220123 0.617540 -0.000626 0.767726 0.640230 0.026522 0.894223 0.548307 116 89 61
-0.464726 -0.440143 -0.001043 0.069326 0.039315 0.996819 0.714086 0.600779 116 89 61
-0.515001 -0.325042 -0.002086 0.069326 0.039315 0.996819 0.771435 0.558496 116 89 61
-0.549445 -0.299569 -0.000695 0.069326 0.039315 0.996819 0.795564 0.555716 116 89 61
0.394821 -0.452941 -0.002089 0.850192 0.526466 0.002643 0.858939 0.052289 255 255 255
0.329328 -0.347176 -0.002111 0.850192 0.526466 0.002643 0.858614 0.122801 255 255 255
0.394819 -0.452939 -0.002086 0.850192 0.526466 0.002643 0.858937 0.052291 255 255 255
-0.549445 -0.299569 -0.000695 -0.776045 -0.626596 0.071628 0.863723 0.369228 116 89 61
-0.513141 -0.328691 0.137877 -0.776045 -0.626596 0.071628 0.942432 0.343602 116 89 61
-0.631924 -0.197458 -0.001043 -0.776045 -0.626596 0.071628 0.863747 0.443225 116 89 61
3 0 1 2
3 3 4 5
3 5 4 6
3 7 8 9
3 10 11 12
3 13 6 14
3 6 13 15
3 16 17 18
3 19 20 21
3 22 23 24
3 25 26 27
3 28 29 30
3 31 32 33
3 34 35 36
3 5 6 37
3 38 39 40
3 41 14 6
3 39 42 40
3 43 44 45
3 46 44 43
3 47 48 49
3 50 51 52
3 53 54 55
3 56 57 58
3 59 60 61
3 62 63 64
3 6 15 37
3 65 66 67
3 65 68 69
3 70 71 72
3 73 74 75
3 76 77 78
3 79 80 81
3 82 81 83
3 84 85 86
3 87 88 89
3 90 89 91
3 92 93 94
3 92 94 95
3 96 97 98
3 99 100 101
3 102 103 104
3 105 106 107
3 108 109 110
3 111 112 113
3 114 115 116
3 117 118 119
3 120 121 122
3 123 124 117
3 125 126 127
3 128 129 130
3 131 132 133
3 81 134 135
3 135 83 81
3 136 137 138
3 65 90 91
3 91 139 65
3 66 140 141
3 139 95 140
3 141 67 66
3 142 143 144
3 145 146 147
3 148 149 150
3 151 152 153
3 154 155 156
3 157 158 159
3 160 161 162
3 163 164 165
3 166 167 168
3 169 170 171
3 172 173 174
3 175 176 177
3 178 179 180
3 78 77 181
3 79 182 80
3 183 69 68
3 184 185 88
3 184 88 87
3 184 87 186
3 186 87 187
3 88 188 92
3 188 88 185
3 92 91 89
3 93 92 188
3 95 94 140
3 101 102 99
3 103 189 190
3 185 191 103
3 192 193 194
3 195 196 197
3 198 199 200
3 184 201 194
3 190 93 103
3 202 203 204
3 205 206 207
3 208 209 210
3 211 212 213
3 214 215 216
3 217 218 219
3 109 101 220
3 109 220 110
3 221 190 189
3 189 222 221
3 220 101 223
3 223 224 220
3 118 117 110
3 225 110 226
3 227 228 229
3 230 231 232
3 233 234 235
3 236 237 238
3 239 240 241
3 242 243 244
3 245 246 247
3 248 249 250
3 251 250 252
3 253 252 254
3 254 182 253
3 249 221 222
3 222 250 249
3 255 256 257
3 258 259 260
3 261 262 263
3 134 81 80
3 264 265 266
3 267 268 269
3 270 271 135
3 271 272 83
3 273 274 275
3 276 251 253
3 253 277 276
3 253 278 277
3 83 279 280
3 281 282 283
3 284 285 286
3 287 288 289
3 272 290 279
3 291 292 293
3 294 295 296
3 297 298 299
3 300 301 93
3 302 303 304
3 141 94 305
3 306 307 308
3 309 310 311
3 94 93 312
3 313 314 94
3 314 315 94
3 316 317 318
3 65 139 66
3 65 67 68
3 319 320 321
3 322 323 324
3 325 326 327
3 328 329 330
3 176 331 332
3 82 79 81
3 333 334 335
3 336 337 338
3 90 87 89
3 90 69 87
3 141 140 94
3 100 99 192
3 192 102 104
3 339 340 341
3 342 343 344
3 345 346 347
3 348 349 350
3 226 220 224
3 220 226 110
3 123 117 119
3 351 352 353
3 135 271 83
3 90 65 69
3 91 92 95
3 139 91 95
3 66 139 140
3 354 355 356
3 357 358 359
3 360 361 362
3 363 364 365
3 366 367 368
3 369 370 371
3 177 372 117
3 175 177 117
3 373 374 375
3 181 77 376
3 254 80 182
3 377 378 379
3 380 381 382
3 383 384 385
3 69 386 87
3 381 387 388
3 389 183 68
3 190 300 93
3 92 89 88
3 189 102 101
3 102 192 99
3 102 189 103
3 185 103 188
3 103 93 188
3 103 191 104
3 390 391 392
3 194 191 184
3 184 191 185
3 191 194 104
3 186 187 201
3 184 186 201
3 393 394 395
3 396 397 398
3 399 400 401
3 402 403 404
3 108 222 109
3 109 222 101
3 405 406 407
3 408 409 410
3 411 412 413
3 248 251 414
3 251 248 250
3 253 251 252
3 252 250 415
3 222 415 250
3 416 417 418
3 419 420 421
3 422 423 424
3 425 426 427
3 428 429 430
3 431 432 433
3 434 435 436
3 437 438 439
3 251 440 414
3 253 182 278
3 441 442 443
3 138 137 444
3 281 445 282
3 446 447 448
3 449 450 451
3 83 272 279
3 452 453 454
3 455 456 457
3 458 311 310
3 306 308 459
3 305 94 315
3 313 94 312
3 312 93 301
3 460 461 462
3 463 10 12
3 464 465 466
3 467 76 78
3 468 469 470
3 471 175 472
3 473 474 475
3 476 477 478
3 479 480 481
3 482 483 484
3 485 486 487
3 488 489 490
3 491 492 493
3 494 495 496
3 497 498 499
3 500 501 502
3 503 504 505
