ply
format ascii 1.0
comment Created by Blender 2.69 (sub 0) - www.blender.org, source file: 'world-unit-0002.blend'
element vertex 27
property float x
property float y
property float z
property float nx
property float ny
property float nz
property float s
property float t
property uchar red
property uchar green
property uchar blue
element face 13
property list uchar uint vertex_indices
end_header
0.216506 0.625000 0.000000 -0.000000 0.000000 1.000000 0.875144 0.467888 0 0 0
0.000000 1.000000 0.000000 -0.000000 0.000000 1.000000 0.672543 0.350916 3 252 252
-0.216506 0.625000 0.000000 -0.000000 0.000000 1.000000 0.875144 0.233944 0 0 0
-0.433013 -0.500000 0.000000 -0.000000 0.000000 1.000000 0.875144 0.467888 0 0 0
-0.649519 -0.125000 0.000000 -0.000000 0.000000 1.000000 0.875144 0.701832 0 0 0
-0.866025 -0.500000 0.000000 -0.000000 0.000000 1.000000 0.672543 0.584860 1 255 255
0.866025 -0.500000 0.000000 -0.000000 0.000000 1.000000 0.875144 0.000000 0 255 255
0.649519 -0.125000 0.000000 -0.000000 0.000000 1.000000 0.875144 0.233944 0 0 0
0.433013 -0.500000 0.000000 -0.000000 0.000000 1.000000 0.672543 0.116972 0 0 0
0.718701 -0.138314 0.221302 -0.000000 -0.000000 1.000000 0.224181 0.000000 0 150 17
0.239567 0.691570 0.221302 -0.000000 -0.000000 1.000000 0.672543 0.258862 0 150 17
0.479134 -0.553256 0.221302 -0.000000 -0.000000 1.000000 0.000000 0.129431 0 150 17
-0.216506 0.625000 0.000000 0.000000 0.957612 -0.288060 0.922254 0.948235 0 1 0
-0.239567 0.691570 0.221302 0.000000 0.957612 -0.288060 0.797399 0.960694 0 150 17
0.239567 0.691570 0.221302 0.000000 0.957612 -0.288060 0.797399 0.701832 0 150 17
0.649519 -0.125000 0.000000 0.829317 -0.478806 -0.288060 0.797399 0.948235 0 0 0
0.718701 -0.138314 0.221302 0.829317 -0.478806 -0.288060 0.672543 0.960694 0 150 17
0.479134 -0.553256 0.221302 0.829317 -0.478806 -0.288060 0.672543 0.701832 0 112 13
-0.433013 -0.500000 0.000000 -0.829317 -0.478806 -0.288060 0.875144 0.221485 0 0 0
-0.479134 -0.553256 0.221302 -0.829317 -0.478806 -0.288060 1.000000 0.209026 0 150 17
-0.718701 -0.138314 0.221302 -0.829317 -0.478806 -0.288060 1.000000 0.467888 0 150 17
-0.479134 -0.553256 0.221302 -0.000000 0.000000 1.000000 0.000000 0.647155 0 150 17
-0.239567 0.691570 0.221302 0.000000 0.000000 1.000000 0.672543 0.517724 0 150 17
0.216506 0.625000 0.000000 0.000000 0.957612 -0.288060 0.922254 0.714291 0 23 3
0.433013 -0.500000 0.000000 0.829317 -0.478806 -0.288060 0.797399 0.714291 0 0 0
-0.649519 -0.125000 0.000000 -0.829317 -0.478806 -0.288060 0.875144 0.455429 0 0 0
-0.718701 -0.138314 0.221302 0.000000 -0.000000 1.000000 0.224181 0.776586 0 150 17
3 0 1 2
3 3 4 5
3 6 7 8
3 9 10 11
3 12 13 14
3 15 16 17
3 18 19 20
3 11 10 21
3 10 22 21
3 23 12 14
3 24 15 17
3 25 18 20
3 22 26 21
