ply
format ascii 1.0
comment Created by Blender 2.69 (sub 0) - www.blender.org, source file: 'world-unit-mod.blend'
element vertex 171
property float x
property float y
property float z
property float nx
property float ny
property float nz
property float s
property float t
property uchar red
property uchar green
property uchar blue
element face 63
property list uchar uint vertex_indices
end_header
0.216506 0.625000 0.000000 -0.000000 0.000000 1.000000 0.216499 0.623271 0 255 249
0.000000 1.000000 0.000000 -0.000000 0.000000 1.000000 0.000000 0.498293 0 255 249
-0.216506 0.625000 0.000000 -0.000000 0.000000 1.000000 0.216499 0.373720 0 255 249
-0.433013 -0.500000 0.000000 -0.000000 0.000000 1.000000 0.865997 0.249551 0 255 249
-0.649519 -0.125000 0.000000 -0.000000 0.000000 1.000000 0.649498 0.124573 0 255 249
-0.866025 -0.500000 0.000000 -0.000000 0.000000 1.000000 0.865997 0.000000 0 255 249
0.866025 -0.500000 0.000000 -0.000000 0.000000 1.000000 0.865997 0.998206 20 255 250
0.649519 -0.125000 0.000000 -0.000000 0.000000 1.000000 0.649498 0.873228 0 255 249
0.433013 -0.500000 0.000000 -0.000000 0.000000 1.000000 0.865997 0.748654 0 255 249
0.292933 0.045588 -0.107987 0.146335 -0.750095 -0.644937 0.986630 0.138896 61 46 39
0.364113 -0.030634 -0.003186 0.146335 -0.750095 -0.644937 0.998142 0.197561 255 255 255
0.247307 -0.086622 0.035428 0.146335 -0.750095 -0.644937 0.923504 0.189899 255 255 255
0.356908 0.000140 0.029644 0.853255 0.460620 -0.244512 0.927398 0.733166 130 110 103
0.364113 -0.030634 -0.003186 0.853255 0.460620 -0.244512 0.902808 0.742383 114 104 98
0.292933 0.045588 -0.107987 0.853255 0.460620 -0.244512 0.865997 0.665363 59 44 37
0.131011 -0.048529 0.035428 -0.871985 -0.060155 0.485823 0.951966 0.413975 160 135 127
0.127765 0.004217 0.036132 -0.871985 -0.060155 0.485823 0.953085 0.444450 130 110 103
0.080658 0.013329 -0.047291 -0.871985 -0.060155 0.485823 0.900807 0.452028 115 94 87
0.080658 0.013329 -0.047291 -0.864823 -0.470830 0.174356 0.900807 0.452028 59 44 37
0.074683 0.002122 -0.107188 -0.864823 -0.470830 0.174356 0.865997 0.446704 59 44 37
0.131011 -0.048529 0.035428 -0.864823 -0.470830 0.174356 0.951966 0.413975 160 135 127
0.337934 0.024951 -0.001782 0.903624 0.273343 -0.329767 0.916972 0.709848 59 44 37
0.356908 0.000140 0.029644 0.903624 0.273343 -0.329767 0.927398 0.733166 130 110 103
0.292933 0.045588 -0.107987 0.903624 0.273343 -0.329767 0.865997 0.665363 59 44 37
0.331499 0.050098 0.028023 0.824198 0.507864 -0.250541 0.938569 0.702786 59 44 37
0.337934 0.024951 -0.001782 0.824198 0.507864 -0.250541 0.916972 0.709848 59 44 37
0.292933 0.045588 -0.107987 0.824198 0.507864 -0.250541 0.865997 0.665363 59 44 37
0.127765 0.004217 0.036132 0.473985 -0.706258 0.525868 0.994187 0.312710 255 255 255
0.304819 0.084332 -0.015856 0.473985 -0.706258 0.525868 0.881932 0.293682 59 44 37
0.181772 0.039938 0.035428 0.473985 -0.706258 0.525868 0.958861 0.300595 130 110 103
0.304819 0.084332 -0.015856 0.895418 0.357224 -0.265741 0.923896 0.670361 59 44 37
0.331499 0.050098 0.028023 0.895418 0.357224 -0.265741 0.938569 0.702786 59 44 37
0.292933 0.045588 -0.107987 0.895418 0.357224 -0.265741 0.865997 0.665363 59 44 37
0.302217 0.097670 -0.004388 0.864179 0.414222 -0.285681 0.933159 0.665934 61 46 39
0.304819 0.084332 -0.015856 0.864179 0.414222 -0.285681 0.923896 0.670361 59 44 37
0.292933 0.045588 -0.107987 0.864179 0.414222 -0.285681 0.865997 0.665363 59 44 37
0.127765 0.004217 0.036132 -0.769152 0.173330 0.615112 0.953085 0.444450 130 110 103
0.131592 0.033166 0.032759 -0.769152 0.173330 0.615112 0.952193 0.461134 130 110 103
0.080658 0.059212 -0.038269 -0.769152 0.173330 0.615112 0.906855 0.478340 59 44 37
0.131592 0.033166 0.032759 0.378051 -0.027296 0.925382 0.987732 0.297090 133 129 104
0.285780 0.115818 -0.027794 0.378051 -0.027296 0.925382 0.887548 0.273326 136 132 107
0.133083 0.056593 0.032841 0.378051 -0.027296 0.925382 0.983506 0.284215 133 129 104
0.285780 0.115818 -0.027794 0.864181 0.414219 -0.285680 0.925210 0.648066 136 132 107
0.302217 0.097670 -0.004388 0.864181 0.414219 -0.285680 0.933159 0.665934 61 46 39
0.292933 0.045588 -0.107987 0.864181 0.414219 -0.285680 0.865997 0.665363 59 44 37
0.181772 0.039938 0.035428 -0.134659 0.736701 0.662676 0.958861 0.300595 130 110 103
0.285780 0.115818 -0.027794 -0.134659 0.736701 0.662676 0.887548 0.273326 136 132 107
0.131592 0.033166 0.032759 -0.134659 0.736701 0.662676 0.987732 0.297090 133 129 104
0.181772 0.039938 0.035428 -0.133156 0.735761 0.664022 0.958861 0.300595 130 110 103
0.302217 0.097670 -0.004388 -0.133156 0.735761 0.664022 0.881866 0.285847 61 46 39
0.285780 0.115818 -0.027794 -0.133156 0.735761 0.664022 0.887548 0.273326 136 132 107
0.273089 0.140075 -0.031017 0.864182 0.414219 -0.285679 0.929370 0.632703 103 87 83
0.285780 0.115818 -0.027794 0.864182 0.414219 -0.285679 0.925210 0.648066 136 132 107
0.292933 0.045588 -0.107987 0.864182 0.414219 -0.285679 0.865997 0.665363 59 44 37
0.080658 0.089923 -0.044934 -0.818093 0.050072 0.572902 0.903710 0.496169 59 44 37
0.131592 0.033166 0.032759 -0.818093 0.050072 0.572902 0.952193 0.461134 130 110 103
0.133083 0.056593 0.032841 -0.818093 0.050072 0.572902 0.952884 0.474618 161 136 128
0.132755 0.099188 0.019817 -0.146335 0.750095 0.644937 0.977038 0.260369 161 136 128
0.264743 0.162453 -0.023815 -0.146335 0.750095 0.644937 0.892663 0.244208 130 110 103
0.080658 0.154976 -0.056887 -0.146335 0.750095 0.644937 0.995207 0.221655 79 75 62
0.080658 0.122426 -0.054887 -0.204124 0.720538 0.662690 1.000000 0.239843 74 72 58
0.133083 0.056593 0.032841 -0.204124 0.720538 0.662690 0.983506 0.284215 133 129 104
0.136000 0.082553 0.005514 -0.204124 0.720538 0.662690 0.977119 0.270143 161 136 128
0.136000 0.082553 0.005514 0.322694 -0.178779 0.929466 0.977119 0.270143 161 136 128
0.273089 0.140075 -0.031017 0.322694 -0.178779 0.929466 0.890992 0.257928 143 125 120
0.264743 0.162453 -0.023815 0.322694 -0.178779 0.929466 0.892663 0.244208 130 110 103
0.264743 0.162453 -0.023815 0.864182 0.414219 -0.285678 0.938569 0.621620 229 228 228
0.273089 0.140075 -0.031017 0.864182 0.414219 -0.285678 0.929370 0.632703 103 87 83
0.207574 0.223672 -0.107987 0.864182 0.414219 -0.285678 0.909003 0.559760 62 47 40
0.080658 0.122426 -0.054887 -0.779571 -0.488789 0.391604 0.898739 0.515089 74 72 58
0.136000 0.082553 0.005514 -0.779571 -0.488789 0.391604 0.938264 0.490006 161 136 128
0.132755 0.099188 0.019817 -0.779571 -0.488789 0.391604 0.946345 0.499418 161 136 128
0.080658 0.013329 -0.047291 -1.000000 0.000002 0.000001 0.900807 0.452028 59 44 37
0.080658 0.059212 -0.038269 -1.000000 0.000002 0.000001 0.906855 0.478340 59 44 37
0.080658 0.089923 -0.044934 -1.000000 0.000002 0.000001 0.903710 0.496169 59 44 37
0.082163 0.116549 -0.106392 -0.988314 -0.064635 -0.138052 0.869620 0.512554 59 44 37
0.085436 0.062176 -0.104370 -0.988314 -0.064635 -0.138052 0.870015 0.481094 59 44 37
0.080658 0.013329 -0.047291 -0.988314 -0.064635 -0.138052 0.900807 0.452028 59 44 37
0.080658 0.122426 -0.054887 -0.999564 -0.008783 -0.028204 0.898739 0.515089 74 72 58
0.081469 0.198336 -0.107271 -0.999564 -0.008783 -0.028204 0.870720 0.559760 99 97 85
0.082163 0.116549 -0.106392 -0.999564 -0.008783 -0.028204 0.869620 0.512554 59 44 37
0.082163 0.116549 -0.106392 -0.003515 -0.010771 -0.999936 0.904103 0.040513 59 44 37
0.081469 0.198336 -0.107271 -0.003515 -0.010771 -0.999936 0.928371 0.000000 59 44 37
0.207574 0.223672 -0.107987 -0.003515 -0.010771 -0.999936 0.998142 0.025452 62 47 40
0.080658 0.013329 -0.047291 -0.999578 -0.002017 -0.028977 0.900807 0.452028 59 44 37
0.080658 0.122426 -0.054887 -0.999578 -0.002017 -0.028977 0.898739 0.515089 74 72 58
0.082163 0.116549 -0.106392 -0.999578 -0.002017 -0.028977 0.869620 0.512554 59 44 37
0.247307 -0.086622 0.035428 0.040512 0.015420 0.999060 0.940666 0.380840 162 137 129
0.356908 0.000140 0.029644 0.040512 0.015420 0.999060 0.866749 0.348281 130 110 103
0.225374 -0.029001 0.035428 0.040512 0.015420 0.999060 0.944542 0.345454 134 129 104
0.127765 0.004217 0.036132 -0.069431 0.124480 0.989790 0.994187 0.312710 130 110 103
0.181772 0.039938 0.035428 -0.069431 0.124480 0.989790 0.958861 0.300595 130 110 103
0.131592 0.033166 0.032759 -0.069431 0.124480 0.989790 0.987732 0.297090 133 129 104
0.151580 -0.105297 0.035428 0.147080 -0.750350 -0.644471 0.870712 0.170305 255 255 255
0.074683 0.002122 -0.107188 0.147080 -0.750350 -0.644471 0.865997 0.094658 59 44 37
0.292933 0.045588 -0.107987 0.147080 -0.750350 -0.644471 0.986630 0.138896 61 46 39
0.247307 -0.086622 0.035428 0.492291 -0.578532 0.650346 0.940666 0.380840 255 255 255
0.364113 -0.030634 -0.003186 0.492291 -0.578532 0.650346 0.865997 0.366538 114 104 98
0.356908 0.000140 0.029644 0.492291 -0.578532 0.650346 0.866749 0.348281 130 110 103
0.225374 -0.029001 0.035428 -0.134099 0.736802 0.662676 0.944542 0.345454 134 129 104
0.356908 0.000140 0.029644 -0.134099 0.736802 0.662676 0.866749 0.348281 130 110 103
0.337934 0.024951 -0.001782 -0.134099 0.736802 0.662676 0.872587 0.331672 59 44 37
0.225374 -0.029001 0.035428 0.496259 -0.607776 0.619947 0.944542 0.345454 136 132 108
0.337934 0.024951 -0.001782 0.496259 -0.607776 0.619947 0.872587 0.331672 59 44 37
0.331499 0.050098 0.028023 0.496259 -0.607776 0.619947 0.873616 0.316673 59 44 37
0.127765 0.004217 0.036132 -0.139830 0.737651 0.660544 0.994187 0.312710 130 110 103
0.331499 0.050098 0.028023 -0.139830 0.737651 0.660544 0.873616 0.316673 59 44 37
0.304819 0.084332 -0.015856 -0.139830 0.737651 0.660544 0.881932 0.293682 59 44 37
0.207574 0.223672 -0.107987 0.864182 0.414219 -0.285679 0.909003 0.559760 62 47 40
0.133083 0.056593 0.032841 -0.124385 0.725981 0.676373 0.983506 0.284215 133 129 104
0.273089 0.140075 -0.031017 -0.124385 0.725981 0.676373 0.890992 0.257928 143 125 120
0.136000 0.082553 0.005514 -0.124385 0.725981 0.676373 0.977119 0.270143 161 136 128
0.207574 0.223672 -0.107987 -0.147203 0.750875 0.643830 0.912601 0.201724 130 110 103
0.081469 0.198336 -0.107271 -0.147203 0.750875 0.643830 0.986631 0.197561 83 79 66
0.080658 0.154976 -0.056887 -0.147203 0.750875 0.643830 0.995207 0.221655 79 75 62
0.085436 0.062176 -0.104370 -0.982750 0.172883 0.065677 0.870015 0.481094 101 83 76
0.074683 0.002122 -0.107188 -0.982750 0.172883 0.065677 0.865997 0.446704 59 44 37
0.080658 0.013329 -0.047291 -0.982750 0.172883 0.065677 0.900807 0.452028 59 44 37
0.080658 0.122426 -0.054887 -0.999855 -0.001044 -0.016994 0.898739 0.515089 74 72 58
0.080658 0.154976 -0.056887 -0.999855 -0.001044 -0.016994 0.898273 0.533899 89 87 75
0.081469 0.198336 -0.107271 -0.999855 -0.001044 -0.016994 0.870720 0.559760 99 97 85
0.085436 0.062176 -0.104370 -0.020483 -0.038388 -0.999053 0.889346 0.068288 59 44 37
0.082163 0.116549 -0.106392 -0.020483 -0.038388 -0.999053 0.904103 0.040513 59 44 37
0.292933 0.045588 -0.107987 -0.020483 -0.038388 -0.999053 0.986630 0.138896 61 46 39
0.292933 0.045588 -0.107987 -0.013469 0.049269 -0.998695 0.986630 0.138896 61 46 39
0.074683 0.002122 -0.107188 -0.013469 0.049269 -0.998695 0.865997 0.094658 59 44 37
0.085436 0.062176 -0.104370 -0.013469 0.049269 -0.998695 0.889346 0.068288 59 44 37
0.225374 -0.029001 0.035428 0.002727 -0.013178 0.999909 0.944542 0.345454 134 129 104
0.127765 0.004217 0.036132 0.002727 -0.013178 0.999909 0.994187 0.312710 130 110 103
0.131011 -0.048529 0.035428 0.002727 -0.013178 0.999909 1.000000 0.342658 160 135 127
0.225374 -0.029001 0.035428 0.026769 0.057510 0.997986 0.944542 0.345454 134 129 104
0.331499 0.050098 0.028023 0.026769 0.057510 0.997986 0.873616 0.316673 59 44 37
0.127765 0.004217 0.036132 0.026769 0.057510 0.997986 0.994187 0.312710 130 110 103
0.247307 -0.086622 0.035428 0.000000 0.000001 1.000000 0.940666 0.380840 162 137 129
0.131011 -0.048529 0.035428 0.000000 0.000001 1.000000 1.000000 0.342658 160 135 127
0.151580 -0.105297 0.035428 0.000000 0.000001 1.000000 0.996761 0.377369 161 136 128
0.151580 -0.105297 0.035428 0.146335 -0.750095 -0.644937 0.870712 0.170305 255 255 255
0.127765 0.004217 0.036132 -0.871243 -0.094697 0.481631 0.953085 0.444450 130 110 103
0.080658 0.059212 -0.038269 -0.871243 -0.094697 0.481631 0.906855 0.478340 59 44 37
0.080658 0.013329 -0.047291 -0.871243 -0.094697 0.481631 0.900807 0.452028 115 94 87
0.074683 0.002122 -0.107188 -0.912039 -0.330464 0.242856 0.865997 0.446704 59 44 37
0.151580 -0.105297 0.035428 -0.912039 -0.330464 0.242856 0.953085 0.380840 159 134 126
0.131011 -0.048529 0.035428 -0.912039 -0.330464 0.242856 0.951966 0.413975 160 135 127
0.131592 0.033166 0.032759 -0.781926 0.132205 0.609191 0.952193 0.461134 130 110 103
0.080658 0.089923 -0.044934 -0.781926 0.132205 0.609191 0.903710 0.496169 59 44 37
0.080658 0.059212 -0.038269 -0.781926 0.132205 0.609191 0.906855 0.478340 59 44 37
0.285780 0.115818 -0.027794 0.266407 0.262608 0.927396 0.887548 0.273326 136 132 107
0.273089 0.140075 -0.031017 0.266407 0.262608 0.927396 0.890992 0.257928 143 125 120
0.133083 0.056593 0.032841 0.266407 0.262608 0.927396 0.983506 0.284215 133 129 104
0.080658 0.122426 -0.054887 -0.776514 0.184499 0.602483 0.898739 0.515089 74 72 58
0.080658 0.089923 -0.044934 -0.776514 0.184499 0.602483 0.903710 0.496169 59 44 37
0.133083 0.056593 0.032841 -0.776514 0.184499 0.602483 0.952884 0.474618 161 136 128
0.207574 0.223672 -0.107987 -0.146335 0.750095 0.644937 0.912601 0.201724 130 110 103
0.132755 0.099188 0.019817 0.481431 -0.515538 0.708834 0.977038 0.260369 161 136 128
0.136000 0.082553 0.005514 0.481431 -0.515538 0.708834 0.977119 0.270143 161 136 128
0.264743 0.162453 -0.023815 0.481431 -0.515538 0.708834 0.892663 0.244208 130 110 103
0.080658 0.154976 -0.056887 -0.814499 0.035577 0.579073 0.898273 0.533899 79 75 62
0.080658 0.122426 -0.054887 -0.814499 0.035577 0.579073 0.898739 0.515089 74 72 58
0.132755 0.099188 0.019817 -0.814499 0.035577 0.579073 0.946345 0.499418 161 136 128
0.080658 0.122426 -0.054887 -1.000000 0.000001 0.000009 0.898739 0.515089 74 72 58
0.080658 0.013329 -0.047291 -1.000000 0.000001 0.000009 0.900807 0.452028 59 44 37
0.080658 0.089923 -0.044934 -1.000000 0.000001 0.000009 0.903710 0.496169 59 44 37
0.292933 0.045588 -0.107987 -0.009022 -0.004324 -0.999950 0.986630 0.138896 61 46 39
0.082163 0.116549 -0.106392 -0.009022 -0.004324 -0.999950 0.904103 0.040513 59 44 37
0.207574 0.223672 -0.107987 -0.009022 -0.004324 -0.999950 0.998142 0.025452 62 47 40
0.131011 -0.048529 0.035428 -0.000000 -0.000000 1.000000 1.000000 0.342658 160 135 127
0.247307 -0.086622 0.035428 -0.000000 -0.000000 1.000000 0.940666 0.380840 162 137 129
0.225374 -0.029001 0.035428 -0.000000 -0.000000 1.000000 0.944542 0.345454 134 129 104
0.304819 0.084332 -0.015856 0.481431 -0.515538 0.708833 0.881932 0.293682 59 44 37
0.302217 0.097670 -0.004388 0.481431 -0.515538 0.708833 0.881866 0.285847 61 46 39
0.181772 0.039938 0.035428 0.481431 -0.515538 0.708833 0.958861 0.300595 130 110 103
3 0 1 2
3 3 4 5
3 6 7 8
3 8 7 0
3 8 0 3
3 3 2 4
3 0 2 3
3 9 10 11
3 12 13 14
3 15 16 17
3 18 19 20
3 21 22 23
3 24 25 26
3 27 28 29
3 30 31 32
3 33 34 35
3 36 37 38
3 39 40 41
3 42 43 44
3 45 46 47
3 48 49 50
3 51 52 53
3 54 55 56
3 57 58 59
3 60 61 62
3 63 64 65
3 66 67 68
3 69 70 71
3 72 73 74
3 75 76 77
3 78 79 80
3 81 82 83
3 84 85 86
3 87 88 89
3 90 91 92
3 93 94 95
3 96 97 98
3 99 100 101
3 102 103 104
3 105 106 107
3 108 51 53
3 109 110 111
3 112 113 114
3 115 116 117
3 118 119 120
3 121 122 123
3 124 125 126
3 127 128 129
3 130 131 132
3 133 134 135
3 136 9 11
3 137 138 139
3 140 141 142
3 143 144 145
3 146 147 148
3 149 150 151
3 58 152 59
3 153 154 155
3 156 157 158
3 159 160 161
3 162 163 164
3 165 166 167
3 168 169 170
