ply
format ascii 1.0
comment Created by Blender 2.69 (sub 0) - www.blender.org, source file: 'world-unit-two.blend'
element vertex 508
property float x
property float y
property float z
property float nx
property float ny
property float nz
property float s
property float t
property uchar red
property uchar green
property uchar blue
element face 262
property list uchar uint vertex_indices
end_header
0.433013 -0.500000 0.000000 -0.000000 0.001639 0.999999 0.710735 0.733482 0 255 249
0.866025 -0.500000 0.000000 -0.000000 0.001639 0.999999 0.710735 0.977976 0 255 249
0.644867 -0.118138 -0.000626 -0.000000 0.001639 0.999999 0.495241 0.853097 50 57 77
-0.866025 -0.500000 0.000000 -0.000000 0.000000 1.000000 0.710735 0.000000 20 255 250
-0.433013 -0.500000 0.000000 -0.000000 0.000000 1.000000 0.710735 0.244494 0 255 249
-0.649519 -0.125000 0.000000 -0.000000 0.000000 1.000000 0.499125 0.122241 50 57 77
0.433013 -0.500000 0.000000 -0.000000 0.000000 1.000000 0.710735 0.733482 0 255 249
-0.465327 -0.111618 -0.002111 -0.004939 -0.036819 -0.999310 0.971211 0.250989 255 255 255
-0.018720 -0.171288 -0.002120 -0.004939 -0.036819 -0.999310 0.971211 0.505399 255 255 255
-0.440058 -0.115690 -0.002086 -0.004939 -0.036819 -0.999310 0.970822 0.265435 255 255 255
-0.679412 -0.112731 0.117779 0.057700 -0.997341 0.044524 0.787620 0.001392 116 89 61
-0.642679 -0.115957 -0.002086 0.057700 -0.997341 0.044524 0.854968 0.022118 116 89 61
-0.604777 -0.113764 -0.002086 0.057700 -0.997341 0.044524 0.854793 0.043504 116 89 61
0.197622 -0.092291 0.000000 -0.000000 0.000000 1.000000 0.480668 0.600566 38 103 117
0.239253 -0.077089 0.000000 -0.000000 0.000000 1.000000 0.472090 0.624072 50 57 77
-0.018720 -0.171288 0.000000 -0.000000 0.000000 1.000000 0.525245 0.478413 50 57 77
-0.000000 1.000000 0.000000 -0.017549 -0.010132 0.999795 0.894720 0.505399 0 255 249
0.144959 0.645991 -0.001043 -0.017549 -0.010132 0.999795 0.745276 0.661170 50 57 77
0.208143 0.639486 0.000000 -0.017549 -0.010132 0.999795 0.710735 0.651512 50 57 77
0.208143 0.639486 0.000000 0.102792 0.994392 -0.024858 0.860796 0.476620 116 89 61
0.144959 0.645991 -0.001043 0.102792 0.994392 -0.024858 0.859694 0.441145 116 89 61
0.192791 0.644161 0.123550 0.102792 0.994392 -0.024858 0.930286 0.467520 116 89 61
-0.465342 -0.111619 -0.002086 0.309753 -0.935206 0.171590 0.854571 0.122217 255 255 255
-0.465312 -0.111609 -0.002086 0.309753 -0.935206 0.171590 0.854570 0.122234 255 255 255
-0.506583 -0.112725 0.066330 0.309753 -0.935206 0.171590 0.816350 0.098957 255 255 255
-0.589668 -0.115454 -0.002087 -0.195736 -0.940252 0.278593 0.000000 0.000000 255 255 255
-0.589669 -0.115454 -0.002089 -0.195736 -0.940252 0.278593 0.000000 0.000000 255 255 255
-0.589666 -0.115454 -0.002086 -0.195736 -0.940252 0.278593 0.000000 0.000000 255 255 255
-0.465327 -0.111618 -0.002111 0.030837 -0.999523 0.001426 0.854585 0.122225 255 255 255
-0.465342 -0.111619 -0.002086 0.030837 -0.999523 0.001426 0.854571 0.122217 255 255 255
-0.589666 -0.115454 -0.002086 0.030837 -0.999523 0.001426 0.854906 0.052046 255 255 255
-0.410925 -0.077182 0.087456 -0.144046 -0.891200 0.430131 0.801931 0.152757 116 89 61
-0.465312 -0.111609 -0.002086 -0.144046 -0.891200 0.430131 0.854570 0.122234 116 89 61
-0.440058 -0.115690 -0.002086 -0.144046 -0.891200 0.430131 0.854849 0.136517 116 89 61
-0.589670 -0.115454 -0.002087 0.080555 -0.995947 0.040009 0.000000 0.000000 255 255 255
-0.589668 -0.115454 -0.002087 0.080555 -0.995947 0.040009 0.000000 0.000000 255 255 255
-0.589670 -0.115454 -0.002086 0.080555 -0.995947 0.040009 0.000000 0.000000 255 255 255
-0.465327 -0.111618 0.000000 -0.000000 0.000000 1.000000 0.491574 0.226242 50 57 77
-0.644285 -0.115934 0.000000 0.000000 0.000000 -1.000000 0.854374 0.835309 0 255 249
-0.642679 -0.115957 0.000000 0.000000 0.000000 -1.000000 0.854453 0.834406 0 255 249
-0.649519 -0.125000 0.000000 0.000000 0.000000 -1.000000 0.859265 0.838627 0 255 249
0.268420 -0.053516 0.000000 -0.000000 -0.000000 1.000000 0.458787 0.640541 50 57 77
-0.604777 -0.113764 0.000000 -0.000000 0.000000 -1.000000 0.854768 0.812971 0 255 249
-0.649519 -0.125000 0.000000 0.000000 0.000000 -1.000000 0.859265 0.838627 50 57 77
-0.589669 -0.115454 0.000000 0.000000 0.000000 -1.000000 0.856339 0.804532 50 57 77
-0.465327 -0.111618 0.000000 0.000000 0.000000 -1.000000 0.859265 0.734352 50 57 77
-0.604777 -0.113764 0.000000 0.000000 0.000000 -1.000000 0.854768 0.812971 50 57 77
-0.213408 0.630367 0.000000 0.120103 0.992652 -0.014768 0.858669 0.238608 116 89 61
-0.251447 0.637885 0.195998 0.120103 0.992652 -0.014768 0.968826 0.216456 116 89 61
-0.148812 0.622536 -0.001043 0.120103 0.992652 -0.014768 0.858634 0.274856 116 89 61
-0.148812 0.622536 -0.001043 -0.002083 -0.001943 0.999996 0.894720 0.734352 50 57 77
0.015288 0.625618 -0.000695 -0.002083 -0.001943 0.999996 0.809163 0.698739 50 57 77
-0.000000 1.000000 0.000000 -0.002083 -0.001943 0.999996 0.894720 0.505399 0 255 249
-0.148812 0.622536 -0.001043 0.015090 -0.008712 0.999848 0.860937 0.960799 50 57 77
-0.000000 1.000000 0.000000 0.015090 -0.008712 0.999848 0.894720 0.734352 25 213 208
-0.213408 0.630367 0.000000 0.015090 -0.008712 0.999848 0.894720 0.975234 50 57 77
-0.028084 0.608739 0.137877 -0.398572 0.917044 -0.013047 0.938010 0.341989 116 89 61
0.015288 0.625618 -0.000695 -0.398572 0.917044 -0.013047 0.859671 0.367495 116 89 61
-0.023994 0.608525 -0.002086 -0.398572 0.917044 -0.013047 0.859090 0.344920 116 89 61
-0.023994 0.608525 -0.002086 0.111564 0.993756 0.001741 0.859090 0.344920 116 89 61
-0.148812 0.622536 -0.001043 0.111564 0.993756 0.001741 0.858634 0.274856 116 89 61
-0.028084 0.608739 0.137877 0.111564 0.993756 0.001741 0.938010 0.341989 116 89 61
-0.589668 -0.115454 -0.002087 0.086420 -0.994382 0.061123 0.854907 0.052045 255 255 255
-0.620215 -0.105458 0.203976 0.086420 -0.994382 0.061123 0.738793 0.034794 255 255 255
-0.589670 -0.115454 -0.002086 0.086420 -0.994382 0.061123 0.854906 0.052044 255 255 255
-0.611122 -0.041621 0.202194 -0.296731 0.233985 0.925840 0.079360 0.731391 88 144 86
-0.517994 0.107756 0.178775 0.204871 -0.119144 0.971496 0.163046 0.677116 88 144 86
-0.612978 0.010182 0.199059 0.107852 0.033052 0.993591 0.108669 0.731852 88 144 86
-0.654683 -0.065952 0.192891 -0.278573 0.094974 0.955687 0.066308 0.756248 89 145 87
-0.544883 -0.065647 0.240610 -0.140751 -0.310556 0.940062 0.064302 0.694299 90 145 88
-0.039639 0.007315 0.313980 0.382924 -0.302847 0.872728 0.098322 0.408317 253 255 252
-0.058819 0.033216 0.331384 0.382924 -0.302847 0.872728 0.112809 0.418868 253 255 252
-0.084959 -0.023023 0.323338 0.382924 -0.302847 0.872728 0.081533 0.434251 253 255 252
-0.036491 -0.093833 0.252074 0.205473 -0.620783 0.756577 0.042439 0.407628 116 89 61
-0.084959 -0.023023 0.323338 0.205473 -0.620783 0.756577 0.081533 0.434251 253 255 252
-0.090183 -0.118123 0.246725 0.205473 -0.620783 0.756577 0.029446 0.438207 116 89 61
0.376979 -0.138666 0.092493 -0.619709 -0.611042 0.492477 0.968823 0.686786 88 144 86
0.250035 0.015953 0.073546 -0.112674 -0.639790 0.760216 0.980825 0.758404 88 144 86
0.268420 -0.053516 -0.002095 -0.288522 -0.848384 0.443831 0.932386 0.755342 88 144 86
0.581538 0.057648 0.198373 -0.081942 -0.103366 0.991241 0.121985 0.056987 88 144 86
0.472795 0.103630 0.196290 0.052065 -0.111850 0.992340 0.149195 0.117855 88 144 86
0.484166 -0.001160 0.181939 0.019959 -0.155950 0.987548 0.090228 0.112604 88 144 86
0.650176 -0.035574 0.195354 -0.151769 -0.256050 0.954650 0.068676 0.019286 88 144 86
0.529575 -0.097205 0.152881 0.052217 -0.427381 0.902554 0.036101 0.088027 89 145 87
-0.589668 -0.115454 -0.002087 0.088513 -0.994184 0.061350 0.854907 0.052045 116 89 61
-0.433650 -0.089361 0.195659 0.088513 -0.994184 0.061350 0.742209 0.140030 116 89 61
-0.620215 -0.105458 0.203976 0.088513 -0.994184 0.061350 0.738793 0.034794 116 89 61
-0.458071 -0.053268 0.227831 0.101291 -0.335948 0.936399 0.070558 0.645142 88 144 86
-0.368628 0.072012 0.211272 0.020051 0.043519 0.998840 0.140555 0.593225 88 144 86
-0.426719 0.077337 0.227780 0.077029 0.005066 0.997009 0.143890 0.625973 88 144 86
-0.510241 -0.026044 0.247360 -0.086795 0.076113 0.993286 0.086122 0.674303 88 144 86
-0.448478 0.082348 0.223999 -0.346355 0.286630 0.893216 0.147037 0.638197 88 144 86
-0.352885 0.203648 0.233637 -0.039064 0.025605 0.998901 0.214204 0.582874 88 144 86
-0.135905 0.564430 0.193166 0.193976 0.214698 0.957213 0.416098 0.456288 109 158 107
-0.238916 0.511357 0.198823 -0.012360 0.063478 0.997894 0.387206 0.515042 88 144 86
-0.372318 0.284623 0.207814 -0.311838 0.160558 0.936460 0.260616 0.592911 88 144 86
0.027223 0.271616 0.247495 -0.422486 0.266640 0.866261 0.247989 0.367541 116 89 61
-0.068227 0.250481 0.207448 -0.422486 0.266640 0.866261 0.237930 0.421629 116 89 61
-0.011097 0.180393 0.256885 -0.422486 0.266640 0.866261 0.196770 0.390208 116 89 61
-0.011455 0.323753 0.206034 -0.380688 0.035249 0.924009 0.278655 0.388754 88 144 86
0.027223 0.271616 0.247495 -0.045625 0.066683 0.996704 0.247989 0.367541 88 144 86
0.041877 0.424807 0.270359 -0.071749 0.209174 0.975219 0.333801 0.357563 88 144 86
-0.022260 0.379345 0.209209 -0.331156 0.031159 0.943052 0.310079 0.394231 88 144 86
-0.075661 0.516366 0.188305 0.090518 0.223121 0.970550 0.388397 0.422816 88 144 86
-0.155986 0.245559 0.222481 0.023408 0.202765 0.978942 0.235847 0.471239 88 144 86
-0.182289 -0.022329 0.265376 -0.100176 -0.288030 0.952367 0.084163 0.489140 116 89 61
-0.245993 0.042252 0.278207 -0.100176 -0.288030 0.952367 0.121065 0.524386 116 89 61
-0.386501 -0.084104 0.225213 -0.100176 -0.288030 0.952367 0.052405 0.605084 116 89 61
0.175595 0.466681 0.210000 -0.098056 0.319773 0.942381 0.357104 0.281554 89 144 87
0.114561 0.457910 0.214031 0.257851 0.291238 0.921232 0.352765 0.316111 88 144 86
0.155023 0.355593 0.197423 -0.264290 -0.084353 0.960723 0.294910 0.294408 88 144 86
0.209418 0.385961 0.283858 -0.815673 -0.138018 0.561808 0.309729 0.263430 116 89 61
0.155023 0.355593 0.197423 -0.815673 -0.138018 0.561808 0.294910 0.294408 116 89 61
0.185287 0.258898 0.217608 -0.815673 -0.138018 0.561808 0.239618 0.278429 116 89 61
0.155023 0.355593 0.197423 -0.857686 0.101768 0.504003 0.294910 0.294408 116 89 61
0.209418 0.385961 0.283858 -0.857686 0.101768 0.504003 0.309729 0.263430 116 89 61
0.175595 0.466681 0.210000 -0.857686 0.101768 0.504003 0.357104 0.281554 116 89 61
0.155709 0.057886 0.187082 0.547258 -0.187902 0.815577 0.127145 0.297365 88 144 86
0.108038 0.058620 0.206474 0.468764 -0.126255 0.874233 0.127716 0.324284 88 144 86
0.109969 -0.090280 0.167141 0.128269 -0.361980 0.923307 0.044462 0.324838 88 144 86
0.150255 -0.076010 0.159125 0.340644 -0.522636 0.781546 0.052216 0.301928 116 89 61
0.109969 -0.090280 0.167141 0.340644 -0.522636 0.781546 0.044462 0.324838 116 89 61
0.078506 -0.137466 0.149300 0.340644 -0.522636 0.781546 0.018546 0.343115 116 89 61
0.150255 -0.076010 0.159125 0.603687 -0.302866 0.737419 0.052216 0.301928 88 144 86
0.168637 -0.124758 0.107490 0.636952 -0.521256 0.567919 0.025521 0.292057 88 144 86
0.258623 0.459858 0.201593 0.128365 0.714087 0.688188 0.050543 0.772147 116 89 61
0.175595 0.466681 0.210000 0.128365 0.714087 0.688188 0.050543 0.819030 116 89 61
0.242261 0.377674 0.289922 0.128365 0.714087 0.688188 0.000000 0.788300 116 89 61
0.258623 0.459858 0.201593 0.770544 0.389145 0.504804 0.352483 0.234753 116 89 61
0.242261 0.377674 0.289922 0.770544 0.389145 0.504804 0.304564 0.244988 116 89 61
0.314856 0.252192 0.275843 0.770544 0.389145 0.504804 0.233227 0.205408 116 89 61
0.314856 0.252192 0.275843 0.663243 0.404691 0.629550 0.233227 0.205408 116 89 61
0.357812 0.273618 0.216816 0.663243 0.404691 0.629550 0.245992 0.180868 116 89 61
0.258623 0.459858 0.201593 0.663243 0.404691 0.629550 0.352483 0.234753 116 89 61
0.372353 0.065284 0.194329 -0.094607 -0.367931 0.925016 0.128733 0.174987 88 144 86
0.422639 -0.065157 0.185021 -0.276650 -0.292520 0.915342 0.054756 0.148060 88 144 86
0.160621 0.607358 0.147699 -0.278451 0.544542 0.791131 0.944638 0.448355 116 89 61
0.239138 0.629478 0.180997 -0.529283 0.563189 0.634541 0.963311 0.493041 120 94 66
0.192791 0.644161 0.123550 -0.173070 0.942198 0.286843 0.930286 0.467520 116 89 61
-0.503876 0.090214 0.179188 -0.277566 0.254311 0.926420 0.152981 0.669344 91 146 89
-0.385349 0.323910 0.200346 -0.137730 0.085726 0.986724 0.283074 0.599819 88 144 86
-0.465065 0.257137 0.198148 0.141667 -0.123508 0.982177 0.246345 0.645571 88 144 86
0.029961 0.051822 0.265884 0.545899 0.230705 0.805463 0.123593 0.368486 116 89 61
-0.011097 0.180393 0.256885 0.545899 0.230705 0.805463 0.196770 0.390208 116 89 61
-0.058819 0.033216 0.331384 0.545899 0.230705 0.805463 0.112809 0.418868 253 255 252
0.029961 0.051822 0.265884 0.603111 -0.086210 0.792985 0.123593 0.368486 116 89 61
-0.058819 0.033216 0.331384 0.603111 -0.086210 0.792985 0.112809 0.418868 253 255 252
-0.039639 0.007315 0.313980 0.603111 -0.086210 0.792985 0.098322 0.408317 253 255 252
-0.078378 0.039136 0.329267 -0.529460 0.264731 0.805971 0.116411 0.429841 253 255 252
-0.149065 0.079703 0.269506 -0.529460 0.264731 0.805971 0.141272 0.469239 116 89 61
-0.158369 0.034244 0.278325 -0.529460 0.264731 0.805971 0.115556 0.475010 116 89 61
-0.149065 0.079703 0.269506 -0.331706 0.550539 0.766079 0.141272 0.469239 116 89 61
-0.078378 0.039136 0.329267 -0.331706 0.550539 0.766079 0.116411 0.429841 253 255 252
-0.011097 0.180393 0.256885 -0.331706 0.550539 0.766079 0.196770 0.390208 116 89 61
-0.149065 0.079703 0.269506 -0.231923 0.427322 0.873846 0.141272 0.469239 116 89 61
-0.011097 0.180393 0.256885 -0.231923 0.427322 0.873846 0.196770 0.390208 116 89 61
-0.068227 0.250481 0.207448 -0.231923 0.427322 0.873846 0.237930 0.421629 116 89 61
-0.078378 0.039136 0.329267 -0.538349 0.034893 0.841999 0.116411 0.429841 253 255 252
-0.158369 0.034244 0.278325 -0.538349 0.034893 0.841999 0.115556 0.475010 116 89 61
-0.182289 -0.022329 0.265376 -0.538349 0.034893 0.841999 0.084163 0.489140 116 89 61
-0.084959 -0.023023 0.323338 -0.478628 -0.363198 0.799376 0.081533 0.434251 253 255 252
-0.182289 -0.022329 0.265376 -0.478628 -0.363198 0.799376 0.084163 0.489140 116 89 61
-0.213701 -0.121000 0.201737 -0.478628 -0.363198 0.799376 0.030102 0.507931 116 89 61
-0.213701 -0.121000 0.201737 -0.262350 -0.596594 0.758451 0.030102 0.507931 116 89 61
-0.090183 -0.118123 0.246725 -0.262350 -0.596594 0.758451 0.029446 0.438207 116 89 61
-0.084959 -0.023023 0.323338 -0.262350 -0.596594 0.758451 0.081533 0.434251 253 255 252
0.263180 0.228492 0.319070 -0.797950 -0.300288 0.522593 0.219589 0.234883 253 255 252
0.185287 0.258898 0.217608 -0.797950 -0.300288 0.522593 0.239618 0.278429 116 89 61
0.198302 0.153969 0.177187 -0.797950 -0.300288 0.522593 0.181068 0.272230 116 89 61
0.329155 0.094341 0.198976 -0.422529 -0.635273 0.646413 0.792046 0.767591 88 144 86
0.198302 0.153969 0.177187 0.119999 -0.517685 0.847072 0.728290 0.806474 88 144 86
0.250035 0.015953 0.073546 -0.112674 -0.639790 0.760216 0.710735 0.734352 88 144 86
0.198302 0.153969 0.177187 -0.418216 -0.711353 0.564864 0.728290 0.806474 116 89 61
0.329155 0.094341 0.198976 -0.418216 -0.711353 0.564864 0.792046 0.767591 116 89 61
0.263180 0.228492 0.319070 -0.418216 -0.711353 0.564864 0.808688 0.851677 253 255 252
0.214462 0.020493 0.100095 0.668813 -0.339488 0.661367 0.107098 0.264546 88 144 86
0.250035 0.015953 0.073546 -0.112674 -0.639790 0.760216 0.104657 0.244494 88 144 86
0.198302 0.153969 0.177187 0.119999 -0.517685 0.847072 0.181068 0.272230 88 144 86
0.214462 0.020493 0.100095 0.765710 -0.210627 0.607720 0.107098 0.264546 116 89 61
0.155709 0.057886 0.187082 0.765710 -0.210627 0.607720 0.127145 0.297365 116 89 61
0.168637 -0.124758 0.107490 0.765710 -0.210627 0.607720 0.025521 0.292057 116 89 61
0.239253 -0.077090 -0.002087 0.851314 -0.434767 0.293558 0.933328 0.771727 88 144 86
0.441856 0.303253 0.202164 0.163915 0.016816 0.986297 0.262051 0.133078 88 144 86
-0.620215 -0.105458 0.203976 -0.132847 -0.733970 0.666036 0.043412 0.737244 88 144 86
-0.365867 -0.011910 0.234032 -0.281289 0.204291 0.937590 0.092729 0.592631 88 144 86
-0.291888 0.127517 0.216927 -0.299844 0.235847 0.924345 0.170893 0.549284 88 144 86
-0.367546 -0.049597 0.238748 -0.131352 -0.150517 0.979827 0.071393 0.594007 88 144 86
-0.386501 -0.084104 0.225213 -0.138707 -0.669149 0.730064 0.052405 0.605084 88 144 86
-0.246226 0.233261 0.210957 0.163213 -0.022767 0.986297 0.230153 0.522310 88 144 86
-0.002358 0.501562 0.193582 -0.086398 0.431684 0.897855 0.379114 0.381606 88 144 86
-0.028084 0.608739 0.137877 0.073275 0.834010 0.546831 0.440967 0.394876 89 145 87
-0.218482 0.198012 0.226788 -0.353893 0.350719 0.867031 0.209643 0.507059 88 144 86
-0.068227 0.250481 0.207448 -0.079318 0.194403 0.977691 0.237930 0.421629 88 144 86
-0.155986 0.245559 0.222481 0.023408 0.202765 0.978942 0.235847 0.471239 89 145 87
-0.211652 0.118956 0.273179 -0.169866 0.285012 0.943327 0.164051 0.504131 88 144 86
-0.149065 0.079703 0.269506 0.077646 0.030565 0.996512 0.141272 0.469239 116 89 61
-0.211652 0.118956 0.273179 0.077646 0.030565 0.996512 0.164051 0.504131 116 89 61
-0.245993 0.042252 0.278207 0.077646 0.030565 0.996512 0.121065 0.524386 116 89 61
-0.245993 0.042252 0.278207 0.015791 0.187318 0.982172 0.121065 0.524386 116 89 61
-0.158369 0.034244 0.278325 0.015791 0.187318 0.982172 0.115556 0.475010 116 89 61
-0.149065 0.079703 0.269506 0.015791 0.187318 0.982172 0.141272 0.469239 116 89 61
-0.245993 0.042252 0.278207 -0.205573 0.015015 0.978515 0.121065 0.524386 94 148 92
0.008544 -0.168774 0.160345 -0.219014 -0.974371 -0.051327 0.767446 0.390165 116 89 61
-0.213701 -0.121000 0.201737 -0.219014 -0.974371 -0.051327 0.740957 0.264407 116 89 61
-0.099152 -0.140321 0.079754 -0.219014 -0.974371 -0.051327 0.810604 0.329165 116 89 61
-0.306332 -0.126767 0.154372 -0.042342 -0.997079 0.063557 0.767944 0.212129 116 89 61
-0.310616 -0.136550 -0.001957 -0.042342 -0.997079 0.063557 0.856204 0.209726 116 89 61
-0.099152 -0.140321 0.079754 -0.042342 -0.997079 0.063557 0.810604 0.329165 116 89 61
-0.213701 -0.121000 0.201737 -0.122373 -0.910829 0.394227 0.740957 0.264407 116 89 61
0.008544 -0.168774 0.160345 -0.122373 -0.910829 0.394227 0.767446 0.390165 116 89 61
-0.090183 -0.118123 0.246725 -0.122373 -0.910829 0.394227 0.715493 0.334141 116 89 61
-0.099152 -0.140321 0.079754 -0.114244 -0.961146 0.251292 0.810604 0.329165 116 89 61
-0.310616 -0.136550 -0.001957 -0.114244 -0.961146 0.251292 0.856204 0.209726 116 89 61
-0.018720 -0.171288 -0.002120 -0.114244 -0.961146 0.251292 0.858634 0.374742 116 89 61
-0.306332 -0.126767 0.154372 -0.329002 -0.928240 -0.173577 0.767944 0.212129 116 89 61
-0.433650 -0.089361 0.195659 -0.329002 -0.928240 -0.173577 0.742209 0.140030 116 89 61
-0.410925 -0.077182 0.087456 -0.329002 -0.928240 -0.173577 0.801931 0.152757 116 89 61
-0.310616 -0.136550 -0.001957 -0.144045 -0.891201 0.430131 0.856204 0.209726 116 89 61
-0.410925 -0.077182 0.087456 -0.144045 -0.891201 0.430131 0.801931 0.152757 116 89 61
-0.440058 -0.115690 -0.002086 -0.144045 -0.891201 0.430131 0.854849 0.136517 116 89 61
0.074220 0.359897 0.239884 0.504013 -0.118656 0.855495 0.297414 0.340010 88 144 86
0.080907 0.598071 0.133833 -0.022462 0.339061 0.940458 0.433798 0.333465 88 144 86
0.094582 0.504804 0.186841 -0.001129 0.521683 0.853114 0.379982 0.326839 88 144 86
0.027223 0.271616 0.247495 -0.045625 0.066683 0.996704 0.247989 0.367541 91 147 89
0.083292 0.181347 0.214086 0.517960 0.031983 0.854793 0.197086 0.336878 88 144 86
0.108038 0.058620 0.206474 0.468764 -0.126255 0.874233 0.127716 0.324284 102 154 100
0.104328 0.286026 0.200644 0.410260 -0.065035 0.909604 0.256170 0.323812 88 144 86
0.083292 0.181347 0.214086 0.596040 0.074318 0.799508 0.197086 0.336878 116 89 61
0.027223 0.271616 0.247495 0.596040 0.074318 0.799508 0.247989 0.367541 116 89 61
0.029961 0.051822 0.265884 0.596040 0.074318 0.799508 0.123593 0.368486 116 89 61
0.108038 0.058620 0.206474 0.593170 -0.306409 0.744488 0.127716 0.324284 116 89 61
0.029961 0.051822 0.265884 0.593170 -0.306409 0.744488 0.123593 0.368486 116 89 61
0.078506 -0.137466 0.149300 0.593170 -0.306409 0.744488 0.018546 0.343115 116 89 61
0.029961 0.051822 0.265884 0.600039 0.071574 0.796762 0.123593 0.368486 116 89 61
0.108038 0.058620 0.206474 0.600039 0.071574 0.796762 0.127716 0.324284 116 89 61
0.083292 0.181347 0.214086 0.600039 0.071574 0.796762 0.197086 0.336878 116 89 61
0.078506 -0.137466 0.149300 0.383633 -0.613898 0.689896 0.771360 0.429474 116 89 61
-0.036491 -0.093833 0.252074 0.383633 -0.613898 0.689896 0.710735 0.364310 116 89 61
0.008544 -0.168774 0.160345 0.383633 -0.613898 0.689896 0.767446 0.390165 116 89 61
0.008544 -0.168774 0.160345 0.378561 -0.781653 0.495692 0.767446 0.390165 116 89 61
0.212676 -0.172936 -0.002114 0.378561 -0.781653 0.495692 0.858634 0.505399 116 89 61
0.168637 -0.124758 0.107490 0.378561 -0.781653 0.495692 0.793824 0.480273 116 89 61
0.008544 -0.168774 0.160345 0.393395 -0.649570 0.650614 0.767446 0.390165 116 89 61
0.168637 -0.124758 0.107490 0.393395 -0.649570 0.650614 0.793824 0.480273 116 89 61
0.078506 -0.137466 0.149300 0.393395 -0.649570 0.650614 0.771360 0.429474 116 89 61
0.212676 -0.172936 -0.002114 -0.007122 -0.999836 0.016664 0.858634 0.505399 116 89 61
0.008544 -0.168774 0.160345 -0.007122 -0.999836 0.016664 0.767446 0.390165 116 89 61
-0.018720 -0.171288 -0.002120 -0.007122 -0.999836 0.016664 0.858634 0.374742 116 89 61
0.239138 0.629478 0.180997 -0.529283 0.563189 0.634541 0.448805 0.243826 88 144 86
0.160621 0.607358 0.147699 -0.278451 0.544542 0.791131 0.437866 0.288371 88 144 86
0.205794 0.556931 0.182706 -0.249031 0.241585 0.937864 0.408217 0.263467 88 144 86
0.267396 0.580819 0.204379 -0.081942 0.166417 0.982635 0.420573 0.228440 88 144 86
0.258623 0.459858 0.201593 0.010895 0.271554 0.962340 0.352483 0.234753 88 144 86
0.317779 0.472913 0.219760 0.070681 0.103732 0.992065 0.358824 0.201226 88 144 86
0.357812 0.273618 0.216816 0.445235 0.223670 0.867000 0.245992 0.180868 88 144 86
0.242261 0.377674 0.289922 -0.136866 0.171439 0.975641 0.304564 0.244988 116 89 61
0.209418 0.385961 0.283858 -0.136866 0.171439 0.975641 0.309729 0.263430 116 89 61
0.263180 0.228492 0.319070 -0.136866 0.171439 0.975641 0.219589 0.234883 253 255 252
0.263180 0.228492 0.319070 0.558506 0.233818 0.795865 0.219589 0.234883 253 255 252
0.314856 0.252192 0.275843 0.558506 0.233818 0.795865 0.233227 0.205408 116 89 61
0.242261 0.377674 0.289922 0.558506 0.233818 0.795865 0.304564 0.244988 116 89 61
0.209418 0.385961 0.283858 0.037714 0.683127 0.729325 0.309729 0.263430 116 89 61
0.242261 0.377674 0.289922 0.037714 0.683127 0.729325 0.304564 0.244988 116 89 61
0.175595 0.466681 0.210000 0.037714 0.683127 0.729325 0.357104 0.281554 116 89 61
0.263180 0.228492 0.319070 0.667901 -0.115210 0.735279 0.219589 0.234883 253 255 252
0.372353 0.065284 0.194329 0.667901 -0.115210 0.735279 0.128733 0.174987 116 89 61
0.314856 0.252192 0.275843 0.667901 -0.115210 0.735279 0.233227 0.205408 116 89 61
0.372353 0.065284 0.194329 -0.202658 -0.441130 0.874262 0.128733 0.174987 116 89 61
0.329155 0.094341 0.198976 -0.202658 -0.441130 0.874262 0.145522 0.199050 116 89 61
0.376979 -0.138666 0.092493 -0.202658 -0.441130 0.874262 0.015620 0.174587 116 89 61
0.430691 -0.151362 0.134757 -0.204566 -0.843410 0.496780 0.007019 0.144444 88 144 86
0.460483 -0.126737 0.160932 0.057283 -0.560686 0.826014 0.020061 0.127370 88 144 86
0.541365 -0.132641 0.126471 0.136967 -0.905393 0.401837 0.016495 0.081749 88 144 86
0.354719 -0.169437 -0.002093 0.169302 -0.984903 0.036096 0.916335 0.707872 116 89 61
0.541365 -0.132641 0.126471 0.169302 -0.984903 0.036096 0.973252 0.592069 116 89 61
0.430691 -0.151362 0.134757 0.169302 -0.984903 0.036096 0.986448 0.653114 116 89 61
0.314096 0.553447 0.197483 0.307382 0.260537 0.915189 0.404739 0.202380 88 144 86
0.339159 0.509122 0.199253 0.409589 0.254311 0.876095 0.379414 0.188732 88 144 86
0.365828 0.461896 0.199253 0.425733 0.226112 0.876125 0.352470 0.174208 88 144 86
0.672714 -0.078890 0.191816 -0.317789 -0.200079 0.926786 0.044053 0.007048 88 144 86
0.652028 -0.046115 0.192464 -0.210089 -0.232185 0.949675 0.062765 0.018357 88 144 86
0.239138 0.629478 0.180997 -0.529283 0.563189 0.634541 0.963311 0.493041 88 144 86
0.260423 0.641626 0.169665 -0.508225 0.860591 -0.032044 0.956738 0.505399 88 144 86
0.258095 0.644871 0.143239 -0.141972 0.969146 0.201392 0.941738 0.504286 88 144 86
0.192791 0.644161 0.123550 -0.030781 0.997334 0.066155 0.930286 0.467520 116 89 61
0.258095 0.644871 0.143239 -0.030781 0.997334 0.066155 0.941738 0.504286 116 89 61
0.255191 0.646470 0.117778 -0.030781 0.997334 0.066155 0.927321 0.502802 116 89 61
0.541365 -0.132641 0.126471 0.177567 -0.979391 0.096245 0.973252 0.592069 88 144 86
0.680288 -0.104769 0.153797 0.177567 -0.979391 0.096245 0.977858 0.512023 88 144 86
0.685620 -0.099843 0.194080 0.177567 -0.979391 0.096245 1.000000 0.505399 88 144 86
0.685620 -0.099843 0.194080 -0.181890 -0.674642 0.715354 0.032041 0.000000 88 144 86
-0.506583 -0.112725 0.066330 -0.202840 -0.937213 0.283705 0.816350 0.098957 116 89 61
-0.433650 -0.089361 0.195659 -0.202840 -0.937213 0.283705 0.742209 0.140030 116 89 61
-0.589668 -0.115454 -0.002087 -0.202840 -0.937213 0.283705 0.854907 0.052045 116 89 61
-0.028084 0.608739 0.137877 -0.153286 0.985458 0.073321 0.938010 0.341989 116 89 61
0.192791 0.644161 0.123550 -0.153286 0.985458 0.073321 0.930286 0.467520 116 89 61
0.144959 0.645991 -0.001043 -0.153286 0.985458 0.073321 0.859694 0.441145 116 89 61
-0.589669 -0.115454 -0.002089 0.080416 -0.994240 0.070849 0.000000 0.000000 255 255 255
-0.589668 -0.115454 -0.002087 0.080416 -0.994240 0.070849 0.000000 0.000000 255 255 255
-0.589670 -0.115454 -0.002087 0.080416 -0.994240 0.070849 0.000000 0.000000 255 255 255
-0.251447 0.637885 0.195998 0.264260 0.715415 0.646748 0.458787 0.520689 95 149 93
-0.261705 0.621778 0.207096 0.138798 0.064486 0.988189 0.449598 0.526671 88 144 86
-0.612978 0.010182 0.199059 0.165371 -0.095427 0.981604 0.108669 0.731852 88 144 86
-0.465065 0.257137 0.198148 0.165371 -0.095427 0.981604 0.246345 0.645571 88 144 86
-0.495284 0.216136 0.199253 0.165371 -0.095427 0.981604 0.223532 0.663092 88 144 86
-0.388198 0.402981 0.199253 0.014100 -0.014008 0.999786 0.327738 0.600536 88 144 86
-0.414970 0.356269 0.199253 0.161564 -0.092597 0.982508 0.301687 0.616175 88 144 86
-0.441741 0.309558 0.199253 0.161564 -0.092597 0.982508 0.275635 0.631814 88 144 86
-0.465065 0.257137 0.198148 0.161564 -0.092597 0.982508 0.246345 0.645571 88 144 86
-0.441741 0.309558 0.199253 0.161565 -0.092597 0.982508 0.275635 0.631814 88 144 86
-0.468512 0.262847 0.199253 0.161565 -0.092597 0.982508 0.249584 0.647453 88 144 86
-0.465065 0.257137 0.198148 0.161565 -0.092597 0.982508 0.246345 0.645571 88 144 86
-0.281700 0.588006 0.198721 -0.007019 -0.095737 0.995361 0.430935 0.538332 88 144 86
-0.306869 0.544671 0.196019 -0.036744 0.009156 0.999268 0.406823 0.553026 88 144 86
-0.334469 0.496726 0.197640 -0.019257 0.045167 0.998779 0.380053 0.569148 88 144 86
-0.361427 0.449692 0.199253 0.000397 0.006104 0.999969 0.353789 0.584897 88 144 86
-0.678761 -0.109221 0.147587 -0.049774 -0.991782 0.117862 0.770674 0.001747 116 89 61
-0.679412 -0.112731 0.117779 -0.049774 -0.991782 0.117862 0.787620 0.001392 116 89 61
-0.620215 -0.105458 0.203976 -0.049774 -0.991782 0.117862 0.738793 0.034794 116 89 61
-0.036491 -0.093833 0.252074 0.460739 -0.452841 0.763318 0.042439 0.407628 116 89 61
-0.039639 0.007315 0.313980 0.460739 -0.452841 0.763318 0.098322 0.408317 252 254 251
-0.084959 -0.023023 0.323338 0.460739 -0.452841 0.763318 0.081533 0.434251 253 255 252
0.008544 -0.168774 0.160345 0.243708 -0.689000 0.682558 0.767446 0.390165 116 89 61
-0.036491 -0.093833 0.252074 0.243708 -0.689000 0.682558 0.710735 0.364310 116 89 61
-0.090183 -0.118123 0.246725 0.243708 -0.689000 0.682558 0.715493 0.334141 116 89 61
-0.039639 0.007315 0.313980 0.499263 -0.440953 0.745853 0.098322 0.408317 253 255 252
-0.036491 -0.093833 0.252074 0.499263 -0.440953 0.745853 0.042439 0.407628 116 89 61
0.078506 -0.137466 0.149300 0.499263 -0.440953 0.745853 0.018546 0.343115 116 89 61
-0.039639 0.007315 0.313980 0.657290 -0.265778 0.705217 0.098322 0.408317 253 255 252
0.078506 -0.137466 0.149300 0.657290 -0.265778 0.705217 0.018546 0.343115 116 89 61
0.029961 0.051822 0.265884 0.657290 -0.265778 0.705217 0.123593 0.368486 116 89 61
0.376979 -0.138666 0.092493 -0.619709 -0.611042 0.492477 0.015620 0.174587 88 144 86
0.329155 0.094341 0.198976 -0.422529 -0.635273 0.646413 0.145522 0.199050 88 144 86
-0.589666 -0.115454 -0.002086 -0.193929 -0.942229 0.273124 0.000000 0.000000 255 255 255
-0.506583 -0.112725 0.066330 -0.193929 -0.942229 0.273124 0.000000 0.000000 255 255 255
-0.589668 -0.115454 -0.002087 -0.193929 -0.942229 0.273124 0.000000 0.000000 255 255 255
-0.465342 -0.111619 -0.002086 0.030837 -0.999521 0.002421 0.854571 0.122217 116 89 61
-0.506583 -0.112725 0.066330 0.030837 -0.999521 0.002421 0.816350 0.098957 116 89 61
-0.589666 -0.115454 -0.002086 0.030837 -0.999521 0.002421 0.854906 0.052046 116 89 61
-0.213701 -0.121000 0.201737 -0.001459 -0.541680 0.840584 0.030102 0.507931 116 89 61
-0.182289 -0.022329 0.265376 -0.001459 -0.541680 0.840584 0.084163 0.489140 116 89 61
-0.386501 -0.084104 0.225213 -0.001459 -0.541680 0.840584 0.052405 0.605084 116 89 61
-0.245993 0.042252 0.278207 -0.020938 -0.214656 0.976465 0.121065 0.524386 116 89 61
-0.182289 -0.022329 0.265376 -0.020938 -0.214656 0.976465 0.084163 0.489140 116 89 61
-0.158369 0.034244 0.278325 -0.020938 -0.214656 0.976465 0.115556 0.475010 116 89 61
-0.018720 -0.171288 -0.002120 -0.300136 -0.951673 0.065090 0.858634 0.374742 116 89 61
0.008544 -0.168774 0.160345 -0.300136 -0.951673 0.065090 0.767446 0.390165 116 89 61
-0.099152 -0.140321 0.079754 -0.300136 -0.951673 0.065090 0.810604 0.329165 116 89 61
0.263180 0.228492 0.319070 -0.805374 -0.146525 0.574372 0.219589 0.234883 253 255 252
0.209418 0.385961 0.283858 -0.805374 -0.146525 0.574372 0.309729 0.263430 116 89 61
0.185287 0.258898 0.217608 -0.805374 -0.146525 0.574372 0.239618 0.278429 116 89 61
0.168637 -0.124758 0.107490 0.407266 -0.587291 0.699445 0.025521 0.292057 116 89 61
0.150255 -0.076010 0.159125 0.407266 -0.587291 0.699445 0.052216 0.301928 116 89 61
0.078506 -0.137466 0.149300 0.407266 -0.587291 0.699445 0.018546 0.343115 116 89 61
-0.058819 0.033216 0.331384 0.036685 0.441825 0.896351 0.112809 0.418868 253 255 252
-0.011097 0.180393 0.256885 0.036685 0.441825 0.896351 0.196770 0.390208 116 89 61
-0.078378 0.039136 0.329267 0.036685 0.441825 0.896351 0.116411 0.429841 253 255 252
-0.011097 0.180393 0.256885 0.044348 0.083843 0.995492 0.196770 0.390208 116 89 61
0.029961 0.051822 0.265884 0.044348 0.083843 0.995492 0.123593 0.368486 116 89 61
0.027223 0.271616 0.247495 0.044348 0.083843 0.995492 0.247989 0.367541 116 89 61
-0.084959 -0.023023 0.323338 -0.511607 -0.027750 0.858771 0.081533 0.434251 253 255 252
-0.078378 0.039136 0.329267 -0.511607 -0.027750 0.858771 0.116411 0.429841 253 255 252
-0.182289 -0.022329 0.265376 -0.511607 -0.027750 0.858771 0.084163 0.489140 116 89 61
-0.078378 0.039136 0.329267 -0.131285 -0.080349 0.988083 0.116411 0.429841 253 255 252
-0.084959 -0.023023 0.323338 -0.131285 -0.080349 0.988083 0.081533 0.434251 253 255 252
-0.058819 0.033216 0.331384 -0.131285 -0.080349 0.988083 0.112809 0.418868 253 255 252
-0.028084 0.608739 0.137877 0.047303 0.106734 0.993162 0.440967 0.394876 116 89 61
0.080907 0.598071 0.133833 0.047303 0.106734 0.993162 0.433798 0.333465 116 89 61
0.192791 0.644161 0.123550 0.047303 0.106734 0.993162 0.458741 0.269776 116 89 61
0.185287 0.258898 0.217608 -0.616590 -0.028749 0.786759 0.239618 0.278429 88 144 86
0.155023 0.355593 0.197423 -0.616590 -0.028749 0.786759 0.294910 0.294408 88 144 86
0.155709 0.057886 0.187082 -0.616590 -0.028749 0.786759 0.127145 0.297365 88 144 86
0.185287 0.258898 0.217608 -0.702445 -0.148442 0.696066 0.239618 0.278429 88 144 86
0.214462 0.020493 0.100095 0.856631 -0.247197 0.452855 0.107098 0.264546 116 89 61
0.168637 -0.124758 0.107490 0.856631 -0.247197 0.452855 0.025521 0.292057 116 89 61
0.212676 -0.172936 -0.002114 0.856631 -0.247197 0.452855 0.000000 0.267648 116 89 61
0.214462 0.020493 0.100095 0.668813 -0.339488 0.661367 0.999025 0.775819 88 144 86
-0.465312 -0.111609 -0.002086 0.309629 -0.935261 0.171515 0.854570 0.122234 116 89 61
-0.410925 -0.077182 0.087456 0.309629 -0.935261 0.171515 0.801931 0.152757 116 89 61
-0.506583 -0.112725 0.066330 0.309629 -0.935261 0.171515 0.816350 0.098957 116 89 61
-0.458071 -0.053268 0.227831 0.101291 -0.335948 0.936399 0.721621 0.126032 88 144 86
-0.433650 -0.089361 0.195659 -0.076876 -0.936247 0.342784 0.742209 0.140030 88 144 86
-0.386501 -0.084104 0.225213 -0.138707 -0.669149 0.730064 0.725257 0.166627 88 144 86
-0.410925 -0.077182 0.087456 0.354107 -0.934696 -0.030833 0.801931 0.152757 116 89 61
-0.433650 -0.089361 0.195659 0.354107 -0.934696 -0.030833 0.742209 0.140030 116 89 61
-0.506583 -0.112725 0.066330 0.354107 -0.934696 -0.030833 0.816350 0.098957 116 89 61
-0.433650 -0.089361 0.195659 -0.076876 -0.936247 0.342784 0.050553 0.631736 88 144 86
-0.544883 -0.065647 0.240610 -0.140751 -0.310556 0.940062 0.715391 0.077096 90 145 88
-0.620215 -0.105458 0.203976 -0.132847 -0.733970 0.666036 0.738793 0.034794 88 144 86
-0.681914 -0.112572 0.194439 0.027772 -0.879055 0.475875 0.040283 0.772147 90 146 88
-0.149065 0.079703 0.269506 0.209199 0.244985 0.946688 0.141272 0.469239 116 89 61
-0.068227 0.250481 0.207448 0.209199 0.244985 0.946688 0.237930 0.421629 116 89 61
-0.211652 0.118956 0.273179 0.209199 0.244985 0.946688 0.164051 0.504131 116 89 61
-0.213701 -0.121000 0.201737 -0.012522 -0.989359 0.144953 0.740957 0.264407 116 89 61
-0.306332 -0.126767 0.154372 -0.012522 -0.989359 0.144953 0.767944 0.212129 116 89 61
-0.099152 -0.140321 0.079754 -0.012522 -0.989359 0.144953 0.810604 0.329165 116 89 61
-0.306332 -0.126767 0.154372 -0.141715 -0.910674 0.388059 0.767944 0.212129 116 89 61
-0.386501 -0.084104 0.225213 -0.141715 -0.910674 0.388059 0.725257 0.166627 116 89 61
-0.433650 -0.089361 0.195659 -0.141715 -0.910674 0.388059 0.742209 0.140030 116 89 61
-0.306332 -0.126767 0.154372 -0.462568 -0.883972 0.067995 0.767944 0.212129 116 89 61
-0.410925 -0.077182 0.087456 -0.462568 -0.883972 0.067995 0.801931 0.152757 116 89 61
-0.310616 -0.136550 -0.001957 -0.462568 -0.883972 0.067995 0.856204 0.209726 116 89 61
-0.386501 -0.084104 0.225213 -0.141724 -0.910676 0.388051 0.725257 0.166627 116 89 61
-0.306332 -0.126767 0.154372 -0.141724 -0.910676 0.388051 0.767944 0.212129 116 89 61
-0.213701 -0.121000 0.201737 -0.141724 -0.910676 0.388051 0.740957 0.264407 116 89 61
-0.002358 0.501562 0.193582 -0.086398 0.431684 0.897855 0.458787 0.772147 88 144 86
0.041877 0.424807 0.270359 -0.071749 0.209174 0.975219 0.458787 0.822956 88 144 86
0.094582 0.504804 0.186841 -0.001129 0.521683 0.853114 0.408278 0.793644 88 144 86
0.108038 0.058620 0.206474 0.427384 0.030137 0.903568 0.127716 0.324284 102 154 100
0.104328 0.286026 0.200644 0.427384 0.030137 0.903568 0.256170 0.323812 88 144 86
0.083292 0.181347 0.214086 0.427384 0.030137 0.903568 0.197086 0.336878 88 144 86
0.108038 0.058620 0.206474 -0.159895 -0.254049 0.953883 0.127716 0.324284 116 89 61
0.078506 -0.137466 0.149300 -0.159895 -0.254049 0.953883 0.018546 0.343115 116 89 61
0.109969 -0.090280 0.167141 -0.159895 -0.254049 0.953883 0.044462 0.324838 116 89 61
0.255143 0.647856 0.191421 -0.684011 0.553850 0.474685 0.458787 0.234592 88 144 86
0.175595 0.466681 0.210000 -0.098056 0.319773 0.942381 0.357104 0.281554 88 144 86
0.472795 0.103630 0.196290 0.121392 -0.365189 0.922985 0.149195 0.117855 116 89 61
0.314856 0.252192 0.275843 0.121392 -0.365189 0.922985 0.233227 0.205408 116 89 61
0.372353 0.065284 0.194329 0.121392 -0.365189 0.922985 0.128733 0.174987 116 89 61
0.314856 0.252192 0.275843 0.676161 0.381248 0.630441 0.233227 0.205408 116 89 61
0.472795 0.103630 0.196290 0.676161 0.381248 0.630441 0.149195 0.117855 116 89 61
0.357812 0.273618 0.216816 0.676161 0.381248 0.630441 0.245992 0.180868 116 89 61
0.372353 0.065284 0.194329 -0.417701 -0.711395 0.565194 0.808688 0.748931 116 89 61
0.263180 0.228492 0.319070 -0.417701 -0.711395 0.565194 0.808688 0.851677 253 255 252
0.329155 0.094341 0.198976 -0.417701 -0.711395 0.565194 0.792046 0.767591 116 89 61
0.422639 -0.065157 0.185021 -0.722120 -0.322072 0.612219 0.054756 0.148060 116 89 61
0.372353 0.065284 0.194329 -0.722120 -0.322072 0.612219 0.128733 0.174987 116 89 61
0.376979 -0.138666 0.092493 -0.722120 -0.322072 0.612219 0.015620 0.174587 116 89 61
0.430691 -0.151362 0.134757 -0.617488 -0.438453 0.653045 0.007019 0.144444 116 89 61
0.422639 -0.065157 0.185021 -0.617488 -0.438453 0.653045 0.054756 0.148060 116 89 61
0.376979 -0.138666 0.092493 -0.617488 -0.438453 0.653045 0.015620 0.174587 116 89 61
0.160621 0.607358 0.147699 -0.278451 0.544542 0.791131 0.437866 0.288371 116 89 61
0.192791 0.644161 0.123550 -0.173070 0.942198 0.286843 0.458741 0.269776 116 89 61
0.080907 0.598071 0.133833 -0.022462 0.339061 0.940458 0.433798 0.333465 116 89 61
0.460483 -0.126737 0.160932 0.057283 -0.560686 0.826014 1.000000 0.634019 88 144 86
0.430691 -0.151362 0.134757 -0.204566 -0.843410 0.496780 0.986448 0.653114 88 144 86
0.541365 -0.132641 0.126471 0.136967 -0.905393 0.401837 0.973252 0.592069 88 144 86
0.354719 -0.169437 -0.002093 -0.480156 -0.794624 0.371514 0.916335 0.707872 116 89 61
0.430691 -0.151362 0.134757 -0.480156 -0.794624 0.371514 0.986448 0.653114 116 89 61
0.376979 -0.138666 0.092493 -0.480156 -0.794624 0.371514 0.968823 0.686786 116 89 61
0.314096 0.553447 0.197483 0.307382 0.260537 0.915189 0.404739 0.202380 92 147 90
0.650176 -0.035574 0.195354 -0.182805 -0.289731 0.939488 0.068676 0.019286 88 144 86
0.529575 -0.097205 0.152881 -0.182805 -0.289731 0.939488 0.036101 0.088027 89 145 87
0.652028 -0.046115 0.192464 -0.182805 -0.289731 0.939488 0.062765 0.018357 88 144 86
0.258095 0.644871 0.143239 -0.141972 0.969146 0.201392 0.941738 0.504286 116 89 61
0.255143 0.647856 0.191421 -0.684011 0.553850 0.474685 0.968826 0.502477 88 144 86
0.680288 -0.104769 0.153797 0.174705 -0.978473 0.109860 0.977858 0.512023 116 89 61
0.541365 -0.132641 0.126471 0.174705 -0.978473 0.109860 0.973252 0.592069 116 89 61
0.679898 -0.108882 0.117778 0.174705 -0.978473 0.109860 0.957687 0.515503 116 89 61
0.268420 -0.053516 -0.002095 0.004470 0.003305 -0.999985 0.914896 0.000000 255 255 255
0.644867 -0.118138 -0.000626 0.004470 0.003305 -0.999985 0.914896 0.215665 255 255 255
0.354719 -0.169437 -0.002093 0.004470 0.003305 -0.999985 0.858634 0.059100 255 255 255
0.644867 -0.118138 -0.000626 0.173885 -0.984331 0.029278 0.894720 0.545734 116 89 61
0.541365 -0.132641 0.126471 0.173885 -0.984331 0.029278 0.973252 0.592069 116 89 61
0.354719 -0.169437 -0.002093 0.173885 -0.984331 0.029278 0.916335 0.707872 116 89 61
-0.148812 0.622536 -0.001043 0.126468 0.991905 -0.011395 0.858634 0.274856 116 89 61
-0.251447 0.637885 0.195998 0.126468 0.991905 -0.011395 0.968826 0.216456 116 89 61
-0.028084 0.608739 0.137877 0.126468 0.991905 -0.011395 0.938010 0.341989 116 89 61
-0.495284 0.216136 0.199253 0.161565 -0.092597 0.982508 0.223532 0.663092 88 144 86
-0.414970 0.356269 0.199253 0.161560 -0.092594 0.982509 0.301687 0.616175 88 144 86
-0.465065 0.257137 0.198148 0.161560 -0.092594 0.982509 0.246345 0.645571 88 144 86
-0.388198 0.402981 0.199253 0.161560 -0.092594 0.982509 0.327738 0.600536 88 144 86
-0.678761 -0.109221 0.147587 0.123844 -0.990332 -0.062492 0.770674 0.001747 116 89 61
-0.620215 -0.105458 0.203976 0.123844 -0.990332 -0.062492 0.738793 0.034794 116 89 61
-0.681914 -0.112572 0.194439 0.123844 -0.990332 -0.062492 0.744673 0.000000 116 89 61
-0.620215 -0.105458 0.203976 0.057700 -0.997341 0.044524 0.738793 0.034794 116 89 61
-0.018720 -0.171288 -0.002120 -0.004942 -0.036842 -0.999309 0.971211 0.505399 255 255 255
-0.310616 -0.136550 -0.001957 -0.004942 -0.036842 -0.999309 0.968826 0.339439 255 255 255
-0.440058 -0.115690 -0.002086 -0.004942 -0.036842 -0.999309 0.970822 0.265435 255 255 255
0.354719 -0.169437 -0.002093 -0.390790 -0.773186 -0.499405 0.916335 0.707872 88 144 86
-0.620215 -0.105458 0.203976 -0.111144 -0.993298 0.031711 0.738793 0.034794 116 89 61
-0.604777 -0.113764 -0.002086 -0.111144 -0.993298 0.031711 0.854793 0.043504 116 89 61
-0.589670 -0.115454 -0.002086 -0.111144 -0.993298 0.031711 0.854906 0.052044 116 89 61
0.239253 -0.077090 -0.002087 0.851314 -0.434767 0.293558 0.053774 0.251565 88 144 86
0.212676 -0.172936 -0.002114 0.610431 -0.669362 -0.423414 0.000000 0.267648 91 146 89
0.255191 0.646470 0.117778 -0.040898 0.998244 -0.042858 0.927321 0.502802 116 89 61
0.208143 0.639486 0.000000 -0.040898 0.998244 -0.042858 0.860796 0.476620 116 89 61
0.192791 0.644161 0.123550 -0.040898 0.998244 -0.042858 0.930286 0.467520 116 89 61
-0.018720 -0.171288 -0.002120 0.000031 0.000275 -1.000000 0.854374 0.734352 255 255 255
0.239253 -0.077090 -0.002087 0.000031 0.000275 -1.000000 0.854374 0.889419 255 255 255
0.212676 -0.172936 -0.002114 0.000031 0.000275 -1.000000 0.808688 0.856762 255 255 255
-0.465327 -0.111618 -0.002111 0.309792 -0.935326 0.170862 0.000000 0.000000 255 255 255
-0.465312 -0.111609 -0.002086 0.309792 -0.935326 0.170862 0.000000 0.000000 255 255 255
-0.465342 -0.111619 -0.002086 0.309792 -0.935326 0.170862 0.000000 0.000000 255 255 255
0.644867 -0.118138 -0.000626 0.001775 0.000654 0.999998 0.495241 0.853097 50 57 77
0.268420 -0.053516 0.000000 0.001775 0.000654 0.999998 0.458787 0.640541 50 57 77
0.433013 -0.500000 0.000000 0.001775 0.000654 0.999998 0.710735 0.733482 0 255 249
-0.589670 -0.115454 -0.002086 -0.111200 -0.993795 0.002546 0.000000 0.000000 255 255 255
-0.604777 -0.113764 -0.002086 -0.111200 -0.993795 0.002546 0.000000 0.000000 255 255 255
-0.589670 -0.115454 -0.002087 -0.111200 -0.993795 0.002546 0.000000 0.000000 255 255 255
-0.000000 1.000000 0.000000 0.002954 -0.001737 0.999994 0.894720 0.505399 0 255 249
0.015288 0.625618 -0.000695 0.002954 -0.001737 0.999994 0.809163 0.698739 50 57 77
0.144959 0.645991 -0.001043 0.002954 -0.001737 0.999994 0.745276 0.661170 50 57 77
-0.440058 -0.115690 -0.002086 -0.144059 -0.891278 0.429966 0.854849 0.136517 255 255 255
-0.465312 -0.111609 -0.002086 -0.144059 -0.891278 0.429966 0.854570 0.122234 255 255 255
-0.465327 -0.111618 -0.002111 -0.144059 -0.891278 0.429966 0.854585 0.122225 255 255 255
0.679898 -0.108882 0.117778 0.170593 -0.984985 0.026523 0.957687 0.515503 116 89 61
0.541365 -0.132641 0.126471 0.170593 -0.984985 0.026523 0.973252 0.592069 116 89 61
0.644867 -0.118138 -0.000626 0.170593 -0.984985 0.026523 0.894720 0.545734 116 89 61
-0.148812 0.622536 -0.001043 -0.000615 -0.079694 0.996819 0.894720 0.734352 116 89 61
-0.023994 0.608525 -0.002086 -0.000615 -0.079694 0.996819 0.826266 0.715825 116 89 61
0.015288 0.625618 -0.000695 -0.000615 -0.079694 0.996819 0.809163 0.698739 116 89 61
-0.589669 -0.115454 -0.002089 0.030838 -0.999515 0.004379 0.854908 0.052044 255 255 255
-0.465327 -0.111618 -0.002111 0.030838 -0.999515 0.004379 0.854585 0.122225 255 255 255
-0.589666 -0.115454 -0.002086 0.030838 -0.999515 0.004379 0.854906 0.052046 255 255 255
0.015288 0.625618 -0.000695 -0.154626 0.985373 0.071629 0.859671 0.367495 116 89 61
-0.028084 0.608739 0.137877 -0.154626 0.985373 0.071629 0.938010 0.341989 116 89 61
0.144959 0.645991 -0.001043 -0.154626 0.985373 0.071629 0.859694 0.441145 116 89 61
3 0 1 2
3 3 4 5
3 5 4 6
3 7 8 9
3 10 11 12
3 13 6 14
3 6 13 15
3 16 17 18
3 19 20 21
3 22 23 24
3 25 26 27
3 28 29 30
3 31 32 33
3 34 35 36
3 5 6 37
3 38 39 40
3 41 14 6
3 39 42 40
3 43 44 45
3 46 44 43
3 47 48 49
3 50 51 52
3 53 54 55
3 56 57 58
3 59 60 61
3 62 63 64
3 6 15 37
3 65 66 67
3 65 68 69
3 70 71 72
3 73 74 75
3 76 77 78
3 79 80 81
3 82 81 83
3 84 85 86
3 87 88 89
3 90 89 91
3 92 93 94
3 92 94 95
3 96 97 98
3 99 100 101
3 102 103 104
3 105 106 107
3 108 109 110
3 111 112 113
3 114 115 116
3 117 118 119
3 120 121 122
3 123 124 117
3 125 126 127
3 128 129 130
3 131 132 133
3 81 134 135
3 135 83 81
3 136 137 138
3 65 90 91
3 91 139 65
3 66 140 141
3 139 95 140
3 141 67 66
3 142 143 144
3 145 146 147
3 148 149 150
3 151 152 153
3 154 155 156
3 157 158 159
3 160 161 162
3 163 164 165
3 166 167 168
3 169 170 171
3 172 173 174
3 175 176 177
3 178 179 180
3 78 77 181
3 79 182 80
3 183 69 68
3 184 185 88
3 184 88 87
3 184 87 186
3 186 87 187
3 88 188 92
3 188 88 185
3 92 91 89
3 93 92 188
3 95 94 140
3 101 102 99
3 103 189 190
3 185 191 103
3 192 193 194
3 195 196 197
3 198 199 200
3 184 201 194
3 190 93 103
3 202 203 204
3 205 206 207
3 208 209 210
3 211 212 213
3 214 215 216
3 217 218 219
3 109 101 220
3 109 220 110
3 221 190 189
3 189 222 221
3 220 101 223
3 223 224 220
3 118 117 110
3 225 110 226
3 227 228 229
3 230 231 232
3 233 234 235
3 236 237 238
3 239 240 241
3 242 243 244
3 245 246 247
3 248 249 250
3 251 250 252
3 253 252 254
3 254 182 253
3 249 221 222
3 222 250 249
3 255 256 257
3 258 259 260
3 261 262 263
3 134 81 80
3 264 265 266
3 267 268 269
3 270 271 135
3 271 272 83
3 273 274 275
3 276 251 253
3 253 277 276
3 253 278 277
3 83 279 280
3 281 282 283
3 284 285 286
3 287 288 289
3 272 290 279
3 291 292 293
3 294 295 296
3 297 298 299
3 300 301 93
3 302 303 304
3 141 94 305
3 306 307 308
3 309 310 311
3 94 93 312
3 313 314 94
3 314 315 94
3 316 317 318
3 65 139 66
3 65 67 68
3 319 320 321
3 322 323 324
3 325 326 327
3 328 329 330
3 176 331 332
3 82 79 81
3 333 334 335
3 336 337 338
3 90 87 89
3 90 69 87
3 141 140 94
3 100 99 192
3 192 102 104
3 339 340 341
3 342 343 344
3 345 346 347
3 348 349 350
3 226 220 224
3 220 226 110
3 123 117 119
3 351 352 353
3 135 271 83
3 90 65 69
3 91 92 95
3 139 91 95
3 66 139 140
3 354 355 356
3 357 358 359
3 360 361 362
3 363 364 365
3 366 367 368
3 369 370 371
3 177 372 117
3 175 177 117
3 373 374 375
3 181 77 376
3 254 80 182
3 377 378 379
3 380 381 382
3 383 384 385
3 69 386 87
3 381 387 388
3 389 183 68
3 190 300 93
3 92 89 88
3 189 102 101
3 102 192 99
3 102 189 103
3 185 103 188
3 103 93 188
3 103 191 104
3 390 391 392
3 194 191 184
3 184 191 185
3 191 194 104
3 186 187 201
3 184 186 201
3 393 394 395
3 396 397 398
3 399 400 401
3 402 403 404
3 108 222 109
3 109 222 101
3 405 406 407
3 408 409 410
3 411 412 413
3 248 251 414
3 251 248 250
3 253 251 252
3 252 250 415
3 222 415 250
3 416 417 418
3 419 420 421
3 422 423 424
3 425 426 427
3 428 429 430
3 431 432 433
3 434 435 436
3 437 438 439
3 251 440 414
3 253 182 278
3 441 442 443
3 138 137 444
3 281 445 282
3 446 447 448
3 449 450 451
3 83 272 279
3 452 453 454
3 455 456 457
3 458 311 310
3 459 460 461
3 305 94 315
3 313 94 312
3 312 93 301
3 462 463 464
3 465 10 12
3 466 467 468
3 469 76 78
3 470 471 472
3 473 175 474
3 475 476 477
3 478 479 480
3 481 482 483
3 484 485 486
3 487 488 489
3 490 491 492
3 493 494 495
3 496 497 498
3 499 500 501
3 502 503 504
3 505 506 507
