ply
format ascii 1.0
comment Created by Blender 2.69 (sub 0) - www.blender.org, source file: 'world-unit-0002.blend'
element vertex 48
property float x
property float y
property float z
property float nx
property float ny
property float nz
property float s
property float t
property uchar red
property uchar green
property uchar blue
element face 18
property list uchar uint vertex_indices
end_header
0.151466 -0.238236 0.000109 -0.139978 -0.990148 0.003687 0.660399 0.389092 0 0 0
0.151555 -0.237500 0.201000 -0.139978 -0.990148 0.003687 0.747556 0.391420 0 150 17
-0.649519 -0.125000 0.000000 -0.139978 -0.990148 0.003687 0.651005 0.740053 0 0 0
0.151555 -0.237500 0.201000 0.866942 -0.498407 0.001443 0.563817 0.751954 48 215 85
0.151466 -0.238236 0.000109 0.866942 -0.498407 0.001443 0.651005 0.751714 1 4 2
0.281356 -0.012302 -0.000057 0.866942 -0.498407 0.001443 0.651005 0.864819 2 10 4
-0.705986 -0.114671 0.224061 0.024828 -0.014335 0.999589 1.000000 0.389092 0 150 17
0.151555 -0.237500 0.201000 0.024828 -0.014335 0.999589 0.651005 0.249171 0 150 17
-0.257727 0.661737 0.224061 0.024828 -0.014335 0.999589 1.000000 0.000000 0 150 17
-0.216506 0.625000 0.000000 0.787310 0.614985 0.044008 0.747556 0.415296 0 0 0
-0.257727 0.661737 0.224061 0.787310 0.614985 0.044008 0.844200 0.389092 0 150 17
-0.162570 0.555950 0.000000 0.787310 0.614985 0.044008 0.748581 0.453309 0 0 0
0.433013 -0.500000 0.000000 0.000000 0.000000 1.000000 0.651004 0.563785 0 255 255
0.866025 -0.500000 0.000000 0.000000 0.000000 1.000000 0.651004 0.751714 0 255 255
0.649519 -0.125000 0.000000 0.000000 0.000000 1.000000 0.488253 0.657750 25 215 215
-0.216506 0.625000 0.000000 0.000000 0.000000 1.000000 0.162751 0.281894 0 0 0
0.216506 0.625000 0.000000 0.000000 0.000000 1.000000 0.162751 0.469823 0 255 255
-0.000000 1.000000 0.000000 0.000000 0.000000 1.000000 0.000000 0.375859 0 255 255
-0.866025 -0.500000 0.000000 0.000000 0.000000 1.000000 0.651005 0.000000 25 215 215
-0.433013 -0.500000 0.000000 0.000000 0.000000 1.000000 0.651005 0.187928 25 215 215
-0.649519 -0.125000 0.000000 0.000000 0.000000 1.000000 0.488254 0.093965 0 0 0
-0.649519 -0.125000 0.000000 0.000000 0.000000 1.000000 0.488254 0.093965 0 2 2
0.433013 -0.500000 0.000000 0.000000 0.000000 1.000000 0.651004 0.563785 25 215 215
0.433013 -0.500000 0.000000 -0.000131 0.000076 1.000000 0.651004 0.563785 25 215 215
0.649519 -0.125000 0.000000 -0.000131 0.000076 1.000000 0.488253 0.657750 25 215 215
0.281356 -0.012302 -0.000057 -0.000131 0.000076 1.000000 0.439342 0.497967 0 0 0
0.649519 -0.125000 0.000000 -0.000239 -0.000276 1.000000 0.488253 0.657750 1 255 255
-0.216506 0.625000 0.000000 -0.000239 -0.000276 1.000000 0.162751 0.281894 0 0 0
0.281356 -0.012302 -0.000057 -0.000239 -0.000276 1.000000 0.439342 0.497967 0 0 0
-0.649519 -0.125000 0.000000 -0.000230 -0.000664 1.000000 0.488254 0.093965 0 0 0
0.433013 -0.500000 0.000000 -0.000230 -0.000664 1.000000 0.651004 0.563785 24 216 216
0.151466 -0.238236 0.000109 -0.000230 -0.000664 1.000000 0.537398 0.441594 0 0 0
0.151466 -0.238236 0.000109 0.000698 0.000334 1.000000 0.537398 0.441594 0 0 0
0.433013 -0.500000 0.000000 0.000698 0.000334 1.000000 0.651004 0.563785 25 215 215
0.281356 -0.012302 -0.000057 0.000698 0.000334 1.000000 0.439342 0.497967 0 0 0
0.151555 -0.237500 0.201000 -0.141517 -0.989886 0.009968 0.747556 0.391420 0 150 17
-0.705986 -0.114671 0.224061 -0.141517 -0.989886 0.009968 0.747556 0.767527 0 150 17
-0.649519 -0.125000 0.000000 -0.141517 -0.989886 0.009968 0.651005 0.740053 0 0 0
0.281458 -0.012500 0.201000 0.866025 -0.499999 -0.000932 0.563745 0.864711 48 215 85
0.151555 -0.237500 0.201000 0.866025 -0.499999 -0.000932 0.563817 0.751954 48 215 85
0.281356 -0.012302 -0.000057 0.866025 -0.499999 -0.000932 0.651005 0.864819 2 10 4
0.281458 -0.012500 0.201000 0.024828 -0.014335 0.999589 0.651005 0.136414 0 150 17
-0.257727 0.661737 0.224061 0.781061 0.623333 0.037413 0.844200 0.389092 0 150 17
0.281458 -0.012500 0.201000 0.781061 0.623333 0.037413 0.844200 0.763903 0 150 17
-0.162570 0.555950 0.000000 0.781061 0.623333 0.037413 0.748581 0.453309 0 0 0
0.281458 -0.012500 0.201000 0.788038 0.615626 0.000205 0.844200 0.763903 0 150 17
0.281356 -0.012302 -0.000057 0.788038 0.615626 0.000205 0.756991 0.766149 0 0 0
-0.162570 0.555950 0.000000 0.788038 0.615626 0.000205 0.748581 0.453309 0 0 0
3 0 1 2
3 3 4 5
3 6 7 8
3 9 10 11
3 12 13 14
3 15 16 17
3 18 19 20
3 21 19 22
3 15 14 16
3 23 24 25
3 26 27 28
3 29 30 31
3 32 33 34
3 35 36 37
3 38 39 40
3 7 41 8
3 42 43 44
3 45 46 47
