# Blender v2.69 (sub 0) OBJ File: 'world-unit-0001.blend'
# www.blender.org
o Circle.002_Circle.003
v 0.000000 0.000000 -1.000000
v -0.866025 0.000000 0.500000
v 0.866025 0.000000 0.500000
v 0.000000 0.000000 -1.000000
v -0.866025 0.000000 0.500000
v -0.216506 0.000000 -0.625000
v -0.649519 0.000000 0.125000
v -0.433013 0.000000 0.500000
v 0.433013 0.000000 0.500000
v 0.649519 0.000000 0.125000
v 0.216506 0.000000 -0.625000
vn 0.000000 -1.000000 0.000000
s off
f 11//1 6//1 1//1
f 8//1 2//1 7//1
f 3//1 9//1 10//1
f 9//1 11//1 10//1
f 9//1 8//1 11//1
f 8//1 7//1 6//1
f 11//1 8//1 6//1
