ply
format ascii 1.0
comment Created by Blender 2.69 (sub 0) - www.blender.org, source file: 'world-unit-0002.blend'
element vertex 48
property float x
property float y
property float z
property float nx
property float ny
property float nz
property float s
property float t
property uchar red
property uchar green
property uchar blue
element face 18
property list uchar uint vertex_indices
end_header
0.130585 0.250291 0.000109 0.927482 0.373849 0.003687 0.660399 0.389092 0 0 0
0.129904 0.250000 0.201000 0.927482 0.373849 0.003687 0.747555 0.391420 0 150 17
0.433013 -0.500000 0.000000 0.927482 0.373849 0.003687 0.651005 0.740053 0 0 0
0.129904 0.250000 0.201000 -0.001837 0.999997 0.001443 0.563817 0.751954 48 215 85
0.130585 0.250291 0.000109 -0.001837 0.999997 0.001443 0.651004 0.751714 1 4 2
-0.130024 0.249813 -0.000057 -0.001837 0.999997 0.001443 0.651004 0.864819 2 10 4
0.452301 -0.554067 0.224061 -0.000000 0.028669 0.999589 1.000000 0.389092 0 150 17
0.129904 0.250000 0.201000 -0.000000 0.028669 0.999589 0.651005 0.249171 0 150 17
-0.444218 -0.554067 0.224061 -0.000000 0.028669 0.999589 1.000000 0.000000 0 150 17
-0.433013 -0.500000 0.000000 -0.926247 0.374338 0.044008 0.747555 0.415296 0 0 0
-0.444218 -0.554067 0.224061 -0.926247 0.374338 0.044008 0.844200 0.389092 0 150 17
-0.400182 -0.418765 0.000000 -0.926247 0.374338 0.044008 0.748580 0.453309 0 0 0
0.216506 0.625000 0.000000 -0.000000 0.000000 1.000000 0.488253 0.093964 0 255 255
0.000000 1.000000 0.000000 -0.000000 0.000000 1.000000 0.651004 0.000000 0 255 255
-0.216506 0.625000 0.000000 -0.000000 0.000000 1.000000 0.651004 0.187928 25 215 215
-0.433013 -0.500000 0.000000 -0.000000 0.000000 1.000000 0.488253 0.657749 0 0 0
-0.649519 -0.125000 0.000000 -0.000000 0.000000 1.000000 0.651004 0.563785 0 255 255
-0.866025 -0.500000 0.000000 -0.000000 0.000000 1.000000 0.651005 0.751714 0 255 255
0.866025 -0.500000 0.000000 -0.000000 0.000000 1.000000 0.000000 0.375854 25 215 215
0.649519 -0.125000 0.000000 -0.000000 0.000000 1.000000 0.162751 0.281891 25 215 215
0.433013 -0.500000 0.000000 -0.000000 0.000000 1.000000 0.162751 0.469819 0 0 0
0.433013 -0.500000 0.000000 0.000000 0.000000 1.000000 0.162751 0.469819 0 2 2
0.216506 0.625000 0.000000 0.000000 0.000000 1.000000 0.488253 0.093964 25 215 215
0.216506 0.625000 0.000000 0.000000 -0.000152 1.000000 0.488253 0.093964 25 215 215
-0.216506 0.625000 0.000000 0.000000 -0.000152 1.000000 0.651004 0.187928 25 215 215
-0.130024 0.249813 -0.000057 0.000000 -0.000152 1.000000 0.537083 0.310178 0 0 0
-0.216506 0.625000 0.000000 0.000358 -0.000069 1.000000 0.651004 0.187928 1 255 255
-0.433013 -0.500000 0.000000 0.000358 -0.000069 1.000000 0.488253 0.657749 0 0 0
-0.130024 0.249813 -0.000057 0.000358 -0.000069 1.000000 0.537083 0.310178 0 0 0
0.433013 -0.500000 0.000000 0.000690 0.000133 1.000000 0.162751 0.469819 0 0 0
0.216506 0.625000 0.000000 0.000690 0.000133 1.000000 0.488253 0.093964 24 216 216
0.130585 0.250291 0.000109 0.000690 0.000133 1.000000 0.439235 0.253445 0 0 0
0.130585 0.250291 0.000109 -0.000638 0.000437 1.000000 0.439235 0.253445 0 0 0
0.216506 0.625000 0.000000 -0.000638 0.000437 1.000000 0.488253 0.093964 25 215 215
-0.130024 0.249813 -0.000057 -0.000638 0.000437 1.000000 0.537083 0.310178 0 0 0
0.129904 0.250000 0.201000 0.928025 0.372385 0.009968 0.747555 0.391420 0 150 17
0.452301 -0.554067 0.224061 0.928025 0.372385 0.009968 0.747555 0.767527 0 150 17
0.433013 -0.500000 0.000000 0.928025 0.372385 0.009968 0.651005 0.740053 0 0 0
-0.129904 0.250000 0.201000 -0.000000 1.000000 -0.000932 0.563745 0.864711 48 215 85
0.129904 0.250000 0.201000 -0.000000 1.000000 -0.000932 0.563817 0.751954 48 215 85
-0.130024 0.249813 -0.000057 -0.000000 1.000000 -0.000932 0.651004 0.864819 2 10 4
-0.129904 0.250000 0.201000 -0.000000 0.028669 0.999589 0.651005 0.136414 0 150 17
-0.444218 -0.554067 0.224061 -0.930353 0.364753 0.037413 0.844200 0.389092 0 150 17
-0.129904 0.250000 0.201000 -0.930353 0.364753 0.037413 0.844200 0.763903 0 150 17
-0.400182 -0.418765 0.000000 -0.930353 0.364753 0.037413 0.748580 0.453309 0 0 0
-0.129904 0.250000 0.201000 -0.927167 0.374648 0.000205 0.844200 0.763903 0 150 17
-0.130024 0.249813 -0.000057 -0.927167 0.374648 0.000205 0.756991 0.766149 0 0 0
-0.400182 -0.418765 0.000000 -0.927167 0.374648 0.000205 0.748580 0.453309 0 0 0
3 0 1 2
3 3 4 5
3 6 7 8
3 9 10 11
3 12 13 14
3 15 16 17
3 18 19 20
3 21 19 22
3 15 14 16
3 23 24 25
3 26 27 28
3 29 30 31
3 32 33 34
3 35 36 37
3 38 39 40
3 7 41 8
3 42 43 44
3 45 46 47
