# Blender v2.69 (sub 0) OBJ File: 'world-unit-0001.blend'
# www.blender.org
o Circle.003_Circle.004
v 0.000000 0.000000 -1.000000
v -0.866025 0.000000 0.500000
v 0.866025 0.000000 0.500000
v 0.000000 0.000000 -1.000000
v -0.866025 0.000000 0.500000
v -0.216506 0.000000 -0.625000
v -0.649519 0.000000 0.125000
v -0.433013 0.000000 0.500000
v 0.433013 0.000000 0.500000
v 0.649519 0.000000 0.125000
v 0.216506 0.000000 -0.625000
v -0.256162 0.236633 -0.739477
v -0.768487 0.236633 0.147896
v -0.512325 0.236633 0.591582
v 0.512325 0.236633 0.591582
v 0.768487 0.236633 0.147895
v 0.256162 0.236633 -0.739477
vn 0.000000 -1.000000 0.000000
vn -0.000000 0.360932 -0.932592
vn -0.807648 0.360932 0.466296
vn 0.000000 0.435491 0.900193
vn -0.779590 0.435492 -0.450096
vn 0.807648 0.360932 0.466296
vn 0.779590 0.435491 -0.450096
vn -0.779590 0.435491 -0.450096
vn 0.779590 0.435491 -0.450097
s off
f 11//1 6//1 1//1
f 8//1 2//1 7//1
f 3//1 9//1 10//1
f 9//2 8//2 15//2
f 11//3 10//3 17//3
f 12//1 17//1 13//1
f 6//4 11//4 12//4
f 10//5 9//5 16//5
f 7//6 6//6 13//6
f 8//7 7//7 14//7
f 8//2 14//2 15//2
f 10//3 16//3 17//3
f 17//1 16//1 13//1
f 16//1 15//1 13//1
f 15//1 14//1 13//1
f 11//4 17//4 12//4
f 9//8 15//8 16//8
f 6//6 12//6 13//6
f 7//9 13//9 14//9
