ply
format ascii 1.0
comment Created by Blender 2.69 (sub 0) - www.blender.org, source file: 'world-unit-0002.blend'
element vertex 27
property float x
property float y
property float z
property float nx
property float ny
property float nz
property float s
property float t
property uchar red
property uchar green
property uchar blue
element face 11
property list uchar uint vertex_indices
end_header
0.649519 -0.125000 0.000000 -0.000000 -0.997229 0.074394 0.660680 0.032338 0 0 0
0.705432 -0.108045 0.227276 -0.000000 -0.997229 0.074394 0.788678 0.000000 0 150 17
-0.649519 -0.125000 0.000000 -0.000000 -0.997229 0.074394 0.664958 0.764327 0 0 0
-0.649519 -0.125000 0.000000 0.000000 -0.000000 1.000000 0.449358 0.122007 0 0 0
-0.866026 -0.500000 0.000000 0.000000 -0.000000 1.000000 0.660680 0.000000 0 255 255
-0.433013 -0.500000 0.000000 0.000000 -0.000000 1.000000 0.660680 0.244013 0 255 255
0.649519 -0.125000 0.000000 0.000000 -0.000000 1.000000 0.449358 0.854047 0 0 0
0.433013 -0.500000 0.000000 0.000000 -0.000000 1.000000 0.660680 0.732040 0 255 255
0.866025 -0.500000 0.000000 0.000000 -0.000000 1.000000 0.660680 0.976053 0 255 255
0.000000 1.000000 0.000000 0.000000 -0.000000 1.000000 1.000000 0.000000 0 255 255
-0.216506 0.625000 0.000000 0.000000 -0.000000 1.000000 1.000000 0.244014 0 0 0
0.216506 0.625000 0.000000 0.000000 -0.000000 1.000000 0.788678 0.122007 0 0 0
-0.719770 -0.136546 0.219299 -0.005662 0.003269 0.999979 0.449358 0.000000 0 150 17
0.705432 -0.108045 0.227276 -0.005662 0.003269 0.999979 0.449358 0.803303 0 150 17
-0.253917 0.670335 0.219299 -0.005662 0.003269 0.999979 0.000000 0.271558 0 150 17
-0.216506 0.625000 0.000000 0.000000 0.979294 -0.202445 0.792711 0.263007 0 0 0
-0.253917 0.670335 0.219299 0.000000 0.979294 -0.202445 0.919236 0.244014 0 150 17
0.216506 0.625000 0.000000 0.000000 0.979294 -0.202445 0.788678 0.506987 0 1 0
0.705432 -0.108045 0.227276 0.020231 -0.998732 -0.046105 0.788678 0.000000 0 150 17
-0.719770 -0.136546 0.219299 0.020231 -0.998732 -0.046105 0.788678 0.803274 0 150 17
-0.649519 -0.125000 0.000000 0.020231 -0.998732 -0.046105 0.664958 0.764327 0 0 0
0.705432 -0.108045 0.227276 -0.015640 -0.009030 0.999837 0.449358 0.803303 0 150 17
0.254359 0.673237 0.227276 -0.015640 -0.009030 0.999837 0.004092 0.557966 0 150 17
-0.253917 0.670335 0.219299 -0.015640 -0.009030 0.999837 0.000000 0.271558 0 150 17
-0.253917 0.670335 0.219299 -0.002333 0.978287 -0.207243 0.919236 0.244014 0 150 17
0.254359 0.673237 0.227276 -0.002333 0.978287 -0.207243 0.919236 0.530479 0 150 17
0.216506 0.625000 0.000000 -0.002333 0.978287 -0.207243 0.788678 0.506987 0 1 0
3 0 1 2
3 3 4 5
3 6 7 8
3 9 10 11
3 6 5 7
3 3 5 6
3 12 13 14
3 15 16 17
3 18 19 20
3 21 22 23
3 24 25 26
