ply
format ascii 1.0
comment Created by Blender 2.69 (sub 0) - www.blender.org, source file: 'world-unit-mod.blend'
element vertex 33
property float x
property float y
property float z
property float nx
property float ny
property float nz
element face 11
property list uchar uint vertex_indices
end_header
-0.433013 -0.500000 0.000000 -0.866025 0.500000 0.000000
-0.433013 -0.500000 0.200000 -0.866025 0.500000 0.000000
0.216506 0.625000 0.200000 -0.866025 0.500000 0.000000
0.216506 0.625000 0.000000 -0.866025 0.500000 0.000000
0.216506 0.625000 0.000000 -0.000000 0.000000 1.000000
0.000000 1.000000 0.000000 -0.000000 0.000000 1.000000
-0.216506 0.625000 0.000000 -0.000000 0.000000 1.000000
-0.433013 -0.500000 0.000000 -0.000000 0.000000 1.000000
-0.649519 -0.125000 0.000000 -0.000000 0.000000 1.000000
-0.866025 -0.500000 0.000000 -0.000000 0.000000 1.000000
0.866025 -0.500000 0.000000 -0.000000 0.000000 1.000000
0.649519 -0.125000 0.000000 -0.000000 0.000000 1.000000
0.433013 -0.500000 0.000000 -0.000000 0.000000 1.000000
0.216506 0.625000 0.200000 0.000000 0.000000 1.000000
-0.433013 -0.500000 0.200000 0.000000 0.000000 1.000000
0.433013 -0.500000 0.200000 0.000000 0.000000 1.000000
0.649519 -0.125000 0.200000 0.000000 0.000000 1.000000
0.649519 -0.125000 0.000000 0.866025 -0.500000 0.000000
0.649519 -0.125000 0.200000 0.866025 -0.500000 0.000000
0.433013 -0.500000 0.200000 0.866025 -0.500000 0.000000
0.433013 -0.500000 0.000000 0.866025 -0.500000 0.000000
0.433013 -0.500000 0.000000 0.000000 -1.000000 0.000000
0.433013 -0.500000 0.200000 0.000000 -1.000000 0.000000
-0.433013 -0.500000 0.200000 0.000000 -1.000000 0.000000
-0.433013 -0.500000 0.000000 0.000000 -1.000000 0.000000
0.216506 0.625000 0.000000 0.866025 0.500000 0.000000
0.216506 0.625000 0.200000 0.866025 0.500000 0.000000
0.649519 -0.125000 0.200000 0.866025 0.500000 0.000000
0.649519 -0.125000 0.000000 0.866025 0.500000 0.000000
0.216506 0.625000 0.200000 0.000000 0.000000 1.000000
-0.433013 -0.500000 0.200000 0.000000 0.000000 1.000000
0.433013 -0.500000 0.200000 0.000000 0.000000 1.000000
0.649519 -0.125000 0.200000 0.000000 0.000000 1.000000
4 0 1 2 3
3 4 5 6
3 7 8 9
3 10 11 12
3 7 6 8
3 4 6 7
4 13 14 15 16
4 17 18 19 20
4 21 22 23 24
4 25 26 27 28
4 29 30 31 32
