ply
format ascii 1.0
comment Created by Blender 2.69 (sub 0) - www.blender.org, source file: 'world-unit-two.blend'
element vertex 9
property float x
property float y
property float z
property float nx
property float ny
property float nz
property float s
property float t
property uchar red
property uchar green
property uchar blue
element face 7
property list uchar uint vertex_indices
end_header
0.216506 0.625000 0.000000 -0.000000 0.000000 1.000000 0.216499 0.623271 0 255 249
0.000000 1.000000 0.000000 -0.000000 0.000000 1.000000 0.000000 0.498293 0 255 249
-0.216506 0.625000 0.000000 -0.000000 0.000000 1.000000 0.216499 0.373720 0 255 249
-0.433013 -0.500000 0.000000 -0.000000 0.000000 1.000000 0.865997 0.249551 0 255 249
-0.649519 -0.125000 0.000000 -0.000000 0.000000 1.000000 0.649498 0.124573 0 255 249
-0.866025 -0.500000 0.000000 -0.000000 0.000000 1.000000 0.865997 0.000000 0 255 249
0.866025 -0.500000 0.000000 -0.000000 0.000000 1.000000 0.865997 0.998206 20 255 250
0.649519 -0.125000 0.000000 -0.000000 0.000000 1.000000 0.649498 0.873228 0 255 249
0.433013 -0.500000 0.000000 -0.000000 0.000000 1.000000 0.865997 0.748654 0 255 249
3 0 1 2
3 3 4 5
3 6 7 8
3 8 7 0
3 8 0 3
3 3 2 4
3 0 2 3
