ply
format ascii 1.0
comment Created by Blender 2.69 (sub 0) - www.blender.org, source file: 'world-unit-two.blend'
element vertex 259
property float x
property float y
property float z
property float nx
property float ny
property float nz
property float s
property float t
property uchar red
property uchar green
property uchar blue
element face 159
property list uchar uint vertex_indices
end_header
0.000000 1.000000 0.000000 0.000000 -0.000000 1.000000 0.000000 0.371812 0 255 249
-0.216506 0.625000 0.000000 0.000000 -0.000000 1.000000 0.161982 0.278859 0 255 249
0.150040 0.625000 0.000000 0.000000 -0.000000 1.000000 0.161982 0.436832 50 59 79
-0.433013 -0.500000 0.000000 -0.000000 0.000000 1.000000 0.647926 0.186618 0 255 249
-0.649519 -0.125000 0.000000 -0.000000 0.000000 1.000000 0.485945 0.092953 0 255 249
-0.866026 -0.500000 0.000000 -0.000000 0.000000 1.000000 0.647926 0.000000 0 255 249
0.866025 -0.500000 0.000000 -0.000000 0.000000 1.000000 0.647926 0.746473 20 255 250
0.649519 -0.125000 0.000000 -0.000000 0.000000 1.000000 0.485945 0.652808 50 59 79
0.433013 -0.500000 0.000000 -0.000000 0.000000 1.000000 0.647927 0.559855 0 255 249
-0.033818 0.460505 0.000000 0.000000 0.000000 1.000000 0.233035 0.357749 50 59 79
-0.000522 0.573822 0.000000 0.000000 0.000000 1.000000 0.184088 0.371992 50 59 79
-0.133936 0.359066 0.000000 0.000000 0.000000 1.000000 0.276852 0.314697 50 59 79
0.358818 -0.114473 0.000000 0.000000 0.000000 1.000000 0.481398 0.527512 50 59 79
0.544114 -0.083439 0.000000 0.000000 0.000000 1.000000 0.467992 0.607341 50 59 79
0.187932 0.625000 0.000000 0.000000 0.000000 1.000000 0.161982 0.453162 0 255 249
0.216506 0.625000 0.000000 0.000000 0.000000 1.000000 0.161982 0.465477 0 255 249
0.175562 0.630928 0.000000 0.000000 0.000000 1.000000 0.159421 0.447826 0 254 249
0.216506 0.625000 0.000000 -0.000000 -0.000000 1.000000 0.161982 0.465477 49 63 82
0.175562 0.630928 0.000000 -0.000000 -0.000000 1.000000 0.159421 0.447826 50 59 79
0.336868 -0.118149 0.000000 -0.000000 0.000000 1.000000 0.482986 0.518056 50 59 79
0.260082 -0.112746 0.000000 -0.000000 0.000000 1.000000 0.480652 0.484958 50 60 80
0.229617 -0.124529 0.000000 -0.000000 0.000000 1.000000 0.485741 0.471839 50 59 79
-0.206002 -0.155467 0.000000 0.000000 0.000000 1.000000 0.499105 0.284127 50 59 79
-0.220718 -0.132295 0.000000 0.000000 0.000000 1.000000 0.489096 0.277763 50 59 79
0.196133 -0.149580 0.000000 0.000000 0.000000 1.000000 0.496562 0.457432 50 59 79
-0.183362 -0.189611 0.000000 0.000000 0.000000 1.000000 0.513853 0.293917 50 59 79
-0.148432 -0.223222 0.000000 0.000000 -0.000000 1.000000 0.528372 0.309003 50 59 79
0.087535 -0.205878 0.000000 0.000000 -0.000000 1.000000 0.520880 0.410683 50 59 79
0.023593 -0.228285 0.000000 0.000000 -0.000000 1.000000 0.530559 0.383146 50 59 79
-0.017583 -0.233557 0.000000 0.000000 -0.000000 1.000000 0.532836 0.365405 50 59 79
-0.188696 0.309743 0.000000 0.000000 -0.000000 1.000000 0.298157 0.291144 50 59 79
-0.153573 0.331826 0.000000 0.000000 -0.000000 1.000000 0.288619 0.306260 50 59 79
0.052550 0.602356 0.000000 -0.000000 0.000000 1.000000 0.171763 0.394838 0 254 248
0.150040 0.625000 0.000000 -0.000000 0.000000 1.000000 0.161982 0.436832 0 255 249
0.030079 0.601054 0.000000 -0.000000 0.000000 1.000000 0.172325 0.385154 0 254 248
-0.240773 -0.100716 0.000000 0.000000 0.000000 1.000000 0.475455 0.269090 50 59 79
-0.244729 -0.066816 0.000000 0.000000 0.000000 1.000000 0.460812 0.267353 50 59 79
-0.244861 -0.047891 0.000000 0.000000 0.000000 1.000000 0.452637 0.267278 50 59 79
-0.238094 0.229311 0.000000 0.000000 0.000000 1.000000 0.332900 0.269931 50 59 79
0.030079 0.601054 0.000000 -0.000000 -0.000000 1.000000 0.172325 0.385154 50 59 79
0.649519 -0.125000 0.000000 0.000000 0.000000 1.000000 0.485945 0.652808 0 255 249
0.562240 -0.081404 0.000000 0.000000 0.000000 1.000000 0.467113 0.615151 50 59 79
0.503039 -0.070568 0.071924 -0.131077 -0.896908 0.422285 0.681766 0.424835 85 160 82
0.626071 -0.002206 0.237317 -0.522202 -0.435804 0.733055 0.751858 0.412675 85 160 82
0.472739 -0.005458 0.128630 -0.217902 -0.641407 0.735557 0.707517 0.453986 85 160 82
0.187691 0.620161 0.037301 -0.161475 0.972756 0.166347 0.666923 0.572715 122 86 48
0.027346 0.597721 0.012875 -0.161475 0.972756 0.166347 0.705154 0.523795 122 86 48
0.158952 0.594881 0.157235 -0.161475 0.972756 0.166347 0.713448 0.600911 122 86 48
0.158952 0.594881 0.157235 -0.724621 0.183685 0.664217 0.676661 0.299669 122 86 48
0.027346 0.597721 0.012875 -0.724621 0.183685 0.664217 0.647927 0.245513 122 86 48
0.113964 0.502425 0.133724 -0.724621 0.183685 0.664217 0.702429 0.262829 122 86 48
0.030079 0.601054 0.000000 -0.056163 0.969381 0.239053 0.700122 0.520787 122 86 48
0.027346 0.597721 0.012875 -0.056163 0.969381 0.239053 0.705154 0.523795 122 86 48
0.052550 0.602356 0.000000 -0.056163 0.969381 0.239053 0.694169 0.526228 122 86 48
0.311315 0.233535 0.204386 -0.227943 -0.174383 0.957915 0.845492 0.284667 85 160 82
0.427736 0.220364 0.235448 -0.187628 -0.143803 0.971648 0.874592 0.327091 85 160 82
0.334425 0.440303 0.235972 -0.313425 -0.070406 0.946989 0.771824 0.337000 85 160 82
0.249824 0.339399 0.195288 -0.206091 0.040040 0.977691 0.792577 0.282842 85 160 82
0.192257 0.508895 0.156882 -0.385601 -0.025147 0.922300 0.716184 0.294587 85 160 82
0.113964 0.502425 0.133724 -0.578082 0.123692 0.806513 0.702429 0.262829 85 160 82
0.178848 0.360557 0.188579 -0.271065 0.084994 0.958770 0.769896 0.260094 85 160 82
0.218482 0.294140 0.197743 -0.244331 -0.103793 0.964110 0.803324 0.261756 85 160 82
0.340005 0.090891 0.178779 -0.090732 -0.319346 0.943266 0.905493 0.265330 85 160 82
0.387882 0.093137 0.171626 -0.129795 -0.396893 0.908628 0.914473 0.283673 85 160 82
0.388678 -0.015293 0.127730 -0.051820 -0.579485 0.813318 0.955661 0.260188 85 160 82
0.503039 -0.070568 0.071924 -0.131077 -0.896908 0.422285 1.000000 0.290218 85 160 82
0.472739 -0.005458 0.128630 -0.217902 -0.641407 0.735557 0.969241 0.294064 85 160 82
0.626071 -0.002206 0.237317 -0.522202 -0.435804 0.733055 1.000000 0.356482 85 160 82
0.264293 0.554147 0.208172 -0.496414 -0.233222 0.836146 0.714026 0.332909 85 160 82
0.452480 0.314861 0.245383 -0.127659 -0.072024 0.989196 0.843828 0.356225 85 160 82
0.187691 0.620161 0.037301 -0.273054 0.945273 0.178609 0.666923 0.572715 122 86 48
0.218618 0.622139 0.074111 -0.273054 0.945273 0.178609 0.669150 0.592209 122 86 48
0.209969 0.633644 0.000000 -0.273054 0.945273 0.178609 0.647927 0.567969 122 86 48
0.257046 0.648124 0.239002 -0.648152 0.122684 0.751518 0.676950 0.350535 90 163 87
0.158952 0.594881 0.157235 -0.618671 0.465773 0.632649 0.676661 0.299669 85 160 82
0.187691 0.620161 0.037301 0.350573 0.872090 -0.341405 0.189699 0.746473 255 255 255
0.240539 0.638817 0.139224 0.350573 0.872090 -0.341405 0.189699 0.788906 255 255 255
0.218618 0.622139 0.074111 0.350573 0.872090 -0.341405 0.184777 0.762686 255 255 255
0.687599 -0.108332 0.242606 -0.189962 -0.981721 -0.011800 0.751858 0.360055 122 86 49
0.503039 -0.070568 0.071924 -0.189962 -0.981721 -0.011800 0.681766 0.424835 122 86 48
0.559919 -0.080710 0.000000 -0.189962 -0.981721 -0.011800 0.649633 0.407824 122 86 48
-0.000522 0.573822 0.000000 -0.663882 0.746010 0.052242 0.713448 0.509211 122 86 48
0.027346 0.597721 0.012875 -0.663882 0.746010 0.052242 0.705154 0.523795 122 86 48
0.030079 0.601054 0.000000 -0.663882 0.746010 0.052242 0.700122 0.520787 122 86 48
-0.133936 0.359066 0.000000 -0.283630 0.279936 0.917164 0.705322 0.134952 122 86 48
0.000356 0.375334 0.036564 -0.283630 0.279936 0.917164 0.726940 0.190382 122 86 48
-0.033818 0.460505 0.000000 -0.283630 0.279936 0.917164 0.687407 0.193709 122 86 48
-0.033818 0.460505 0.000000 -0.519332 0.152595 0.840838 0.687407 0.193709 122 86 48
0.000356 0.375334 0.036564 -0.519332 0.152595 0.840838 0.726940 0.190382 122 86 48
0.027346 0.597721 0.012875 -0.519332 0.152595 0.840838 0.647927 0.245513 122 86 48
0.027346 0.597721 0.012875 -0.738560 0.159414 0.655069 0.647927 0.245513 122 86 48
0.000356 0.375334 0.036564 -0.738560 0.159414 0.655069 0.726940 0.190382 122 86 48
0.113964 0.502425 0.133724 -0.738560 0.159414 0.655069 0.702429 0.262829 122 86 48
0.026149 0.219979 0.058166 -0.283670 0.281381 0.916684 0.791353 0.168943 85 160 82
0.122915 0.341385 0.160741 -0.562365 -0.044130 0.825678 0.765553 0.234029 85 160 82
0.000356 0.375334 0.036564 -0.508835 0.136113 0.850002 0.726940 0.190382 85 160 82
-0.094523 0.305824 0.023208 -0.219428 0.283608 0.933470 0.733754 0.139717 85 160 82
-0.094523 0.305824 0.023208 -0.279991 0.201840 0.938545 0.733754 0.139717 122 86 48
0.000356 0.375334 0.036564 -0.279991 0.201840 0.938545 0.726940 0.190382 122 86 48
-0.133936 0.359066 0.000000 -0.279991 0.201840 0.938545 0.705322 0.134952 122 86 48
-0.155147 0.157385 0.063766 -0.520157 0.148717 0.840999 0.777813 0.087630 85 160 82
-0.078802 0.073370 0.132323 -0.498184 -0.098178 0.861446 0.825715 0.101595 85 160 82
-0.059413 0.129345 0.132251 -0.184301 0.322642 0.928373 0.808444 0.120440 85 160 82
0.103255 -0.160958 0.064343 0.410434 -0.791722 0.452459 0.746174 0.599452 122 86 48
0.039913 -0.224295 0.010972 0.410434 -0.791722 0.452459 0.725369 0.639156 122 86 48
0.087535 -0.205878 0.000000 0.410434 -0.791722 0.452459 0.719108 0.618277 122 86 48
-0.206002 -0.155467 0.000000 -0.830832 -0.527641 -0.176955 0.788063 0.584248 122 86 48
-0.191271 -0.187329 0.025843 -0.830832 -0.527641 -0.176955 0.776853 0.599049 122 86 48
-0.240773 -0.100716 0.000000 -0.830832 -0.527641 -0.176955 0.788089 0.556331 122 86 48
-0.244729 -0.066816 0.000000 -0.573226 -0.004006 0.819388 0.844292 0.005451 122 86 48
-0.195548 -0.036921 0.034552 -0.573226 -0.004006 0.819388 0.843196 0.031393 122 86 48
-0.244861 -0.047891 0.000000 -0.573226 -0.004006 0.819388 0.837075 0.009292 122 86 48
-0.046525 -0.053609 0.114538 -0.410565 -0.320658 0.853542 0.771609 0.416564 87 161 84
0.039913 -0.224295 0.010972 0.167272 -0.903073 0.395489 0.771609 0.509211 85 160 82
0.032905 -0.118733 0.112182 -0.092746 -0.517624 0.850551 0.751858 0.455036 85 160 82
-0.046525 -0.053609 0.114538 -0.410565 -0.320658 0.853542 0.708892 0.762363 87 161 84
-0.078802 0.073370 0.132323 -0.498184 -0.098178 0.861446 0.690530 0.713149 85 160 82
-0.155147 0.157385 0.063766 -0.520157 0.148717 0.840999 0.708892 0.659046 85 160 82
-0.195548 -0.036921 0.034552 -0.399274 0.003906 0.916807 0.843196 0.031393 88 162 85
-0.118893 -0.117629 0.045029 -0.204474 -0.268593 0.941282 0.889683 0.044177 85 160 82
-0.118893 -0.117629 0.045029 0.016709 -0.281454 0.959429 0.889683 0.044177 122 86 48
-0.191271 -0.187329 0.025843 0.016709 -0.281454 0.959429 0.901182 0.001793 122 86 48
0.039913 -0.224295 0.010972 0.016709 -0.281454 0.959429 0.962782 0.081208 122 86 48
-0.240773 -0.100716 0.000000 -0.876123 -0.473133 0.092486 0.788089 0.556331 122 86 48
-0.191271 -0.187329 0.025843 -0.876123 -0.473133 0.092486 0.776853 0.599049 122 86 48
-0.226397 -0.120576 0.034586 -0.876123 -0.473133 0.092486 0.773145 0.566928 122 86 48
-0.250556 -0.082599 0.000000 -0.651633 0.240592 0.719368 0.849087 0.000000 122 87 49
-0.226397 -0.120576 0.034586 -0.651633 0.240592 0.719368 0.868622 0.002517 122 86 48
-0.244729 -0.066816 0.000000 -0.651633 0.240592 0.719368 0.844292 0.005451 122 86 48
-0.118893 -0.117629 0.045029 -0.097613 0.036398 0.994559 0.889683 0.044177 122 86 48
-0.195548 -0.036921 0.034552 -0.097613 0.036398 0.994559 0.843196 0.031393 122 86 48
-0.226397 -0.120576 0.034586 -0.097613 0.036398 0.994559 0.868622 0.002517 122 86 48
0.316571 0.548706 0.241858 -0.505661 -0.184423 0.842769 0.726988 0.352729 85 160 82
0.194761 0.068117 0.127089 0.032868 -0.121220 0.992065 0.884033 0.203901 88 162 85
0.273610 0.043758 0.132806 -0.256630 -0.418348 0.871242 0.909548 0.228939 85 160 82
0.144739 0.172963 0.122418 -0.251289 -0.094668 0.963256 0.833883 0.206360 85 160 82
0.057843 0.049164 0.144764 0.031678 0.017457 0.999329 0.863101 0.148773 85 160 82
0.101846 0.198102 0.110803 -0.432295 -0.000427 0.901700 0.815455 0.194895 85 160 82
0.059326 0.123492 0.118992 -0.100436 0.375896 0.921171 0.835072 0.163737 85 160 82
-0.046525 -0.053609 0.114538 -0.410565 -0.320658 0.853542 0.880533 0.087102 87 161 84
0.023535 -0.052905 0.130950 -0.021332 -0.226173 0.973846 0.894757 0.114330 85 160 82
0.280532 -0.049916 0.077983 -0.018006 -0.641987 0.766472 0.946350 0.210434 86 161 83
0.172164 -0.027840 0.103516 0.224708 -0.367534 0.902432 0.915742 0.174816 85 160 82
0.206953 -0.104294 0.041179 0.349437 -0.647237 0.677450 0.951714 0.170146 85 160 82
0.032905 -0.118733 0.112182 -0.092746 -0.517624 0.850551 0.921623 0.103704 85 160 82
0.039913 -0.224295 0.010972 0.167272 -0.903073 0.395489 0.962782 0.081208 85 160 82
0.103255 -0.160958 0.064343 0.321482 -0.648518 0.689962 0.951971 0.120027 85 160 82
-0.017583 -0.233557 0.000000 -0.049089 -0.621523 0.781856 0.954417 0.057163 122 86 48
0.039913 -0.224295 0.010972 -0.049089 -0.621523 0.781856 0.962782 0.081208 122 86 48
-0.191271 -0.187329 0.025843 -0.049089 -0.621523 0.781856 0.901182 0.001793 122 86 48
0.544114 -0.083439 0.000000 0.159440 -0.951969 0.261407 0.744836 0.742227 122 86 48
0.503039 -0.070568 0.071924 0.159440 -0.951969 0.261407 0.713448 0.730821 122 86 48
0.336868 -0.118149 0.000000 0.159440 -0.951969 0.261407 0.744836 0.661640 122 86 48
0.336868 -0.118149 0.000000 -0.054227 -0.770566 0.635049 0.983577 0.215078 122 86 48
0.503039 -0.070568 0.071924 -0.054227 -0.770566 0.635049 1.000000 0.290218 122 86 48
0.280532 -0.049916 0.077983 -0.054227 -0.770566 0.635049 0.946350 0.210434 122 86 48
0.260082 -0.112746 0.000000 0.301511 -0.779546 0.548998 0.713448 0.534690 122 86 48
0.280532 -0.049916 0.077983 0.301511 -0.779546 0.548998 0.746174 0.509211 122 86 48
0.206953 -0.104294 0.041179 0.301511 -0.779546 0.548998 0.732785 0.549660 122 86 48
0.052550 0.602356 0.000000 -0.148067 0.986811 0.065421 0.694169 0.526228 122 86 48
0.027346 0.597721 0.012875 -0.148067 0.986811 0.065421 0.705154 0.523795 122 86 48
0.187691 0.620161 0.037301 -0.148067 0.986811 0.065421 0.666923 0.572715 122 86 48
0.387882 0.093137 0.171626 -0.129795 -0.396893 0.908628 0.728669 0.509211 85 160 82
0.539923 0.171491 0.238328 -0.041566 -0.036561 0.998444 0.916276 0.359613 85 160 82
0.257046 0.648124 0.239002 -0.512922 0.856498 0.057628 0.700940 0.659046 122 86 48
0.187691 0.620161 0.037301 -0.512922 0.856498 0.057628 0.666923 0.572715 122 86 48
0.158952 0.594881 0.157235 -0.512922 0.856498 0.057628 0.713448 0.600911 122 86 48
0.187691 0.620161 0.037301 -0.246134 0.967968 -0.049560 0.666923 0.572715 122 86 48
0.257046 0.648124 0.239002 -0.246134 0.967968 -0.049560 0.700940 0.659046 122 86 48
0.240539 0.638817 0.139224 -0.246134 0.967968 -0.049560 0.678680 0.621222 134 100 66
0.686768 -0.116132 0.139970 -0.343075 -0.936393 0.073943 0.707479 0.359613 122 86 48
0.687599 -0.108332 0.242606 -0.343075 -0.936393 0.073943 0.751858 0.360055 122 86 49
0.559919 -0.080710 0.000000 -0.343075 -0.936393 0.073943 0.649633 0.407824 122 86 48
0.687599 -0.108332 0.242606 -0.561296 -0.712027 0.421766 0.751858 0.360055 85 160 82
0.661290 -0.123734 0.000109 0.133593 -0.990597 0.029507 0.786256 0.419648 122 86 48
0.686768 -0.116132 0.139970 0.133593 -0.990597 0.029507 0.798244 0.359613 122 86 48
0.627640 -0.128275 0.000000 0.133593 -0.990597 0.029507 0.798244 0.424134 122 86 48
0.206953 -0.104294 0.041179 0.485432 -0.648825 0.585988 0.732785 0.549660 122 86 48
0.103255 -0.160958 0.064343 0.485432 -0.648825 0.585988 0.746174 0.599452 122 86 48
0.196133 -0.149580 0.000000 0.485432 -0.648825 0.585988 0.715555 0.566271 122 86 48
0.087535 -0.205878 0.000000 0.327106 -0.933466 -0.147117 0.719108 0.618277 122 86 48
0.039913 -0.224295 0.010972 0.327106 -0.933466 -0.147117 0.725369 0.639156 122 86 48
0.023593 -0.228285 0.000000 0.327106 -0.933466 -0.147117 0.721155 0.646103 122 86 48
-0.183362 -0.189611 0.000000 -0.816244 -0.541231 -0.202026 0.788052 0.601909 122 86 48
-0.191271 -0.187329 0.025843 -0.816244 -0.541231 -0.202026 0.776853 0.599049 122 86 48
-0.206002 -0.155467 0.000000 -0.816244 -0.541231 -0.202026 0.788063 0.584248 122 86 48
-0.244861 -0.047891 0.000000 -0.601372 0.014681 0.798834 0.837075 0.009292 122 86 48
-0.155147 0.157385 0.063766 -0.601372 0.014681 0.798834 0.777813 0.087630 122 87 49
-0.238094 0.229311 0.000000 -0.601372 0.014681 0.798834 0.733163 0.068843 122 86 48
-0.226397 -0.120576 0.034586 -0.090400 -0.175958 0.980238 0.868622 0.002517 122 86 48
-0.191271 -0.187329 0.025843 -0.090400 -0.175958 0.980238 0.901182 0.001793 122 86 48
-0.118893 -0.117629 0.045029 -0.090400 -0.175958 0.980238 0.889683 0.044177 122 86 48
-0.148432 -0.223222 0.000000 -0.685848 -0.712748 -0.146979 0.788107 0.622624 122 86 48
-0.191271 -0.187329 0.025843 -0.685848 -0.712748 -0.146979 0.776853 0.599049 122 86 48
-0.183362 -0.189611 0.000000 -0.685848 -0.712748 -0.146979 0.788052 0.601909 122 86 48
-0.238094 0.229311 0.000000 -0.432275 0.265487 0.861774 0.733163 0.068843 122 86 48
-0.155147 0.157385 0.063766 -0.432275 0.265487 0.861774 0.777813 0.087630 122 87 49
-0.188696 0.309743 0.000000 -0.432275 0.265487 0.861774 0.712782 0.104080 122 86 48
-0.188696 0.309743 0.000000 -0.212014 0.337206 0.917247 0.712782 0.104080 122 86 48
-0.155147 0.157385 0.063766 -0.212014 0.337206 0.917247 0.777813 0.087630 122 87 49
-0.094523 0.305824 0.023208 -0.212014 0.337206 0.917247 0.733754 0.139717 122 86 48
-0.046525 -0.053609 0.114538 -0.410565 -0.320658 0.853542 0.880533 0.087102 87 162 84
0.023593 -0.228285 0.000000 0.125166 -0.977587 0.169287 0.721155 0.646103 122 86 48
0.039913 -0.224295 0.010972 0.125166 -0.977587 0.169287 0.725369 0.639156 122 86 48
-0.017583 -0.233557 0.000000 0.125166 -0.977587 0.169287 0.722435 0.661640 122 86 48
-0.323306 -0.185303 -0.009687 -0.903749 -0.392710 0.170340 0.143024 0.772990 255 255 255
-0.322804 -0.187625 -0.012382 -0.903749 -0.392710 0.170340 0.143024 0.774474 255 255 255
-0.320986 -0.189133 -0.006210 -0.903749 -0.392710 0.170340 0.140582 0.773018 255 255 255
-0.314557 -0.192464 0.000156 0.262290 0.737893 -0.621867 0.509059 0.774717 255 255 255
-0.313663 -0.196385 -0.004119 0.262290 0.737893 -0.621867 0.507217 0.774606 255 255 255
-0.318444 -0.192760 -0.001835 0.262290 0.737893 -0.621867 0.509059 0.772907 255 255 255
-0.322804 -0.187625 -0.012382 0.903749 0.392710 -0.170340 0.773797 0.661640 127 169 141
-0.323306 -0.185303 -0.009687 0.903749 0.392710 -0.170340 0.772580 0.660930 133 173 146
-0.320986 -0.189133 -0.006210 0.903749 0.392710 -0.170340 0.773797 0.658816 117 162 131
-0.313663 -0.196385 -0.004119 -0.262290 -0.737893 0.621867 0.775003 0.661640 108 156 123
-0.314557 -0.192464 0.000156 -0.262290 -0.737893 0.621867 0.773797 0.660349 109 157 124
-0.318444 -0.192760 -0.001835 -0.262290 -0.737893 0.621867 0.775003 0.659088 111 158 125
0.175562 0.630928 0.000000 -0.075096 0.951290 0.299012 0.657188 0.559520 122 86 48
0.187691 0.620161 0.037301 -0.075096 0.951290 0.299012 0.666923 0.572715 122 86 48
0.209969 0.633644 0.000000 -0.075096 0.951290 0.299012 0.647927 0.567969 122 86 48
0.686768 -0.116132 0.139970 -0.555366 -0.774896 0.301835 0.707479 0.359613 122 86 48
0.562240 -0.081404 0.000000 -0.555366 -0.774896 0.301835 0.649586 0.406976 122 86 48
0.627640 -0.128275 0.000000 -0.555366 -0.774896 0.301835 0.647927 0.373736 122 86 48
-0.000522 0.573822 0.000000 -0.519332 0.152595 0.840838 0.651217 0.229611 122 86 48
-0.153573 0.331826 0.000000 -0.279991 0.201839 0.938545 0.711626 0.121917 122 86 49
-0.094523 0.305824 0.023208 -0.279991 0.201839 0.938545 0.733754 0.139717 122 86 48
-0.133936 0.359066 0.000000 -0.279991 0.201839 0.938545 0.705322 0.134952 122 86 48
0.196133 -0.149580 0.000000 0.410434 -0.791723 0.452460 0.715555 0.566271 122 86 48
0.103255 -0.160958 0.064343 0.410434 -0.791723 0.452460 0.746174 0.599452 122 86 48
0.087535 -0.205878 0.000000 0.410434 -0.791723 0.452460 0.719108 0.618277 122 86 48
0.503039 -0.070568 0.071924 0.164130 -0.950504 0.263824 0.713448 0.730821 122 86 48
0.544114 -0.083439 0.000000 0.164130 -0.950504 0.263824 0.744836 0.742227 122 86 48
0.559919 -0.080710 0.000000 0.164130 -0.950504 0.263824 0.744834 0.748394 122 86 48
-0.250556 -0.082599 0.000000 -0.876123 -0.473132 0.092486 0.788107 0.547547 123 87 49
-0.240773 -0.100716 0.000000 -0.876123 -0.473132 0.092486 0.788089 0.556331 122 86 48
-0.226397 -0.120576 0.034586 -0.876123 -0.473132 0.092486 0.773145 0.566928 122 86 48
-0.226397 -0.120576 0.034586 -0.651633 0.240591 0.719368 0.868622 0.002517 122 86 48
-0.195548 -0.036921 0.034552 -0.651633 0.240591 0.719368 0.843196 0.031393 122 86 48
-0.244729 -0.066816 0.000000 -0.651633 0.240591 0.719368 0.844292 0.005451 122 86 48
-0.148432 -0.223222 0.000000 -0.049089 -0.621523 0.781856 0.923542 0.009752 122 86 48
0.260082 -0.112746 0.000000 -0.054227 -0.770566 0.635049 0.965710 0.187119 122 86 48
0.229617 -0.124529 0.000000 0.301511 -0.779547 0.548998 0.714427 0.548235 122 86 48
0.260082 -0.112746 0.000000 0.301511 -0.779547 0.548998 0.713448 0.534690 122 86 48
0.206953 -0.104294 0.041179 0.301511 -0.779547 0.548998 0.732785 0.549660 122 86 48
0.175562 0.630928 0.000000 -0.213226 0.918020 0.334326 0.657188 0.559520 122 86 48
0.052550 0.602356 0.000000 -0.213226 0.918020 0.334326 0.694169 0.526228 122 86 48
0.187691 0.620161 0.037301 -0.213226 0.918020 0.334326 0.666923 0.572715 122 86 48
0.562240 -0.081404 0.000000 -0.286321 -0.957982 0.017046 0.649586 0.406976 122 86 48
0.686768 -0.116132 0.139970 -0.286321 -0.957982 0.017046 0.707479 0.359613 122 86 48
0.559919 -0.080710 0.000000 -0.286321 -0.957982 0.017046 0.649633 0.407824 122 86 48
0.229617 -0.124529 0.000000 0.485433 -0.648825 0.585987 0.714427 0.548235 122 86 48
0.206953 -0.104294 0.041179 0.485433 -0.648825 0.585987 0.732785 0.549660 122 86 48
0.196133 -0.149580 0.000000 0.485433 -0.648825 0.585987 0.715555 0.566271 122 86 48
-0.153573 0.331826 0.000000 -0.212014 0.337207 0.917247 0.711626 0.121917 122 86 49
-0.188696 0.309743 0.000000 -0.212014 0.337207 0.917247 0.712782 0.104080 122 86 48
-0.094523 0.305824 0.023208 -0.212014 0.337207 0.917247 0.733754 0.139717 122 86 48
-0.195548 -0.036921 0.034552 -0.573226 -0.004005 0.819388 0.843196 0.031393 122 86 48
-0.155147 0.157385 0.063766 -0.573226 -0.004005 0.819388 0.777813 0.087630 122 87 49
-0.244861 -0.047891 0.000000 -0.573226 -0.004005 0.819388 0.837075 0.009292 122 86 48
3 0 1 2
3 3 4 5
3 6 7 8
3 3 1 4
3 9 10 1
3 11 9 1
3 12 8 13
3 14 15 16
3 17 0 18
3 0 2 18
3 19 20 21
3 3 22 23
3 19 21 24
3 19 24 8
3 3 25 22
3 12 19 8
3 8 7 13
3 25 3 26
3 27 28 8
3 26 3 29
3 28 29 8
3 11 30 31
3 32 33 34
3 3 23 35
3 30 11 1
3 3 35 36
3 3 36 37
3 3 37 38
3 1 3 38
3 1 38 30
3 2 1 39
3 1 10 39
3 29 3 8
3 13 40 41
3 24 27 8
3 42 43 44
3 45 46 47
3 48 49 50
3 51 52 53
3 54 55 56
3 57 56 58
3 58 59 60
3 57 61 54
3 54 62 63
3 62 64 63
3 64 65 66
3 54 63 67
3 54 67 55
3 68 58 56
3 55 69 56
3 70 71 72
3 73 74 58
3 75 76 77
3 78 79 80
3 81 82 83
3 84 85 86
3 87 88 89
3 90 91 92
3 93 94 95
3 95 96 93
3 97 98 99
3 100 101 102
3 103 104 105
3 106 107 108
3 109 110 111
3 112 113 114
3 115 116 117
3 100 118 119
3 120 121 122
3 123 124 125
3 126 127 128
3 129 130 131
3 132 68 56
3 69 132 56
3 133 134 135
3 133 135 136
3 137 93 138
3 138 136 135
3 137 135 61
3 94 60 59
3 101 139 140
3 138 93 102
3 141 133 142
3 142 143 141
3 64 62 134
3 62 61 135
3 144 145 146
3 136 140 133
3 140 144 142
3 147 148 149
3 150 151 152
3 153 154 155
3 156 157 158
3 58 74 59
3 159 160 161
3 57 54 56
3 57 58 60
3 61 57 60
3 62 54 61
3 63 64 66
3 43 162 44
3 69 55 163
3 163 55 67
3 164 165 166
3 68 73 58
3 167 168 169
3 170 171 172
3 42 173 43
3 174 175 176
3 96 100 102
3 177 178 179
3 180 181 182
3 183 184 185
3 186 187 188
3 119 145 139
3 119 139 100
3 189 190 191
3 192 193 194
3 132 73 68
3 195 196 197
3 198 199 200
3 144 140 201
3 93 137 94
3 135 137 138
3 94 61 60
3 61 94 137
3 94 59 95
3 102 101 136
3 136 101 140
3 138 102 136
3 96 102 93
3 141 134 133
3 141 64 134
3 141 65 64
3 134 62 135
3 146 142 144
3 143 142 146
3 133 140 142
3 202 203 204
3 205 206 207
3 208 209 210
3 211 212 213
3 214 215 216
3 217 218 219
3 220 221 222
3 223 87 89
3 224 225 226
3 227 228 229
3 230 231 232
3 233 234 235
3 236 237 238
3 239 147 149
3 240 153 155
3 241 242 243
3 244 245 246
3 247 248 249
3 250 251 252
3 253 254 255
3 256 257 258
