ply
format ascii 1.0
comment Created by Blender 2.69 (sub 0) - www.blender.org, source file: 'world-unit-two-v3.blend'
element vertex 342
property float x
property float y
property float z
property float nx
property float ny
property float nz
property float s
property float t
property uchar red
property uchar green
property uchar blue
element face 254
property list uchar uint vertex_indices
end_header
0.468869 -0.535871 0.223212 0.801118 -0.544524 -0.248402 0.014339 0.859343 135 122 109
0.435292 -0.479695 -0.008220 0.801118 -0.544524 -0.248402 0.012777 0.639795 135 122 109
0.460062 -0.438029 -0.019671 0.801118 -0.544524 -0.248402 0.031507 0.625019 135 122 109
0.380492 -0.513482 0.200409 -0.213172 -0.210608 0.954009 0.242872 0.870155 68 121 65
0.455294 -0.562918 0.206703 0.578539 -0.524613 0.624531 0.269226 0.901591 84 118 83
0.468869 -0.535871 0.223212 0.599261 -0.374920 0.707297 0.252906 0.908390 81 119 80
0.292086 -0.484018 0.183696 0.080386 -0.342448 0.936064 0.071762 0.443711 68 121 65
0.380492 -0.513482 0.200409 -0.213172 -0.210608 0.954009 0.029280 0.435189 68 121 65
0.308677 -0.457816 0.209282 0.001282 -0.332133 0.943205 0.078920 0.418912 68 121 65
0.468869 -0.535871 0.223212 0.599261 -0.374920 0.707297 0.000000 0.414073 81 119 80
0.698982 -0.134516 0.223581 0.312815 -0.501419 0.806665 0.921480 0.741056 135 122 109
0.643163 -0.173624 0.221982 0.384289 -0.557298 0.736015 0.893894 0.734520 135 122 109
0.641458 -0.126871 -0.006222 0.785516 -0.612323 -0.089297 0.921480 0.522819 135 122 109
0.641458 -0.126871 -0.006222 0.806642 -0.577800 -0.124400 0.181855 0.619448 135 122 109
0.643163 -0.173624 0.221982 0.806642 -0.577800 -0.124400 0.181855 0.837370 135 122 109
0.571210 -0.233997 0.035838 0.806642 -0.577800 -0.124400 0.133115 0.657709 135 122 109
0.571210 -0.233997 0.035838 0.848928 -0.520335 0.092589 0.133115 0.657709 135 122 109
0.615546 -0.169418 -0.007741 0.848928 -0.520335 0.092589 0.159591 0.604674 135 122 109
0.641458 -0.126871 -0.006222 0.848928 -0.520335 0.092589 0.181855 0.619448 135 122 109
0.698982 -0.134516 0.223581 0.312815 -0.501419 0.806665 0.254091 0.809624 71 120 68
0.673025 -0.084196 0.215143 -0.137913 0.043092 0.989471 0.242944 0.796322 68 121 65
0.651677 -0.094700 0.212625 -0.030030 0.003784 0.999512 0.254091 0.783814 68 121 65
-0.621778 -0.044281 0.215339 -0.234535 0.016785 0.971954 0.511296 0.456138 68 121 65
-0.593662 -0.086390 0.222125 -0.053316 -0.064638 0.996460 0.490529 0.465864 68 123 67
-0.597493 0.015153 0.231253 -0.227180 -0.008026 0.973815 0.511696 0.427133 69 121 66
0.612262 0.010048 0.237655 0.380413 0.065340 0.922483 0.056927 0.172715 68 121 65
0.557129 -0.006139 0.234596 0.028077 -0.134373 0.990509 0.072313 0.189952 68 121 65
0.651677 -0.094700 0.212625 -0.030030 0.003784 0.999512 0.020888 0.207334 68 121 65
0.005767 0.600261 -0.012615 -0.000098 0.243005 -0.970025 0.893894 0.833873 255 255 255
-0.216506 0.650526 0.000000 -0.000098 0.243005 -0.970025 0.908170 0.741056 254 254 254
0.216506 0.650701 0.000000 -0.000098 0.243005 -0.970025 0.908170 0.921207 253 253 253
-0.633598 -0.204911 0.207116 -0.190344 -0.397229 0.897732 0.243204 0.643107 68 121 65
-0.710285 -0.131212 0.225437 -0.720420 -0.268288 0.639515 0.254091 0.601911 69 120 66
-0.477044 -0.506035 0.156474 -0.874508 -0.484359 -0.024659 0.254091 0.783814 83 118 82
0.534685 -0.309028 -0.002001 0.806141 -0.385779 0.448676 0.091640 0.601911 68 121 65
0.531492 -0.292941 0.017569 0.806141 -0.385779 0.448676 0.100326 0.621820 68 121 65
0.498230 -0.356919 0.022322 0.806141 -0.385779 0.448676 0.072666 0.650873 68 121 65
0.615546 -0.169418 -0.007741 0.827713 -0.561050 0.010671 0.159591 0.604674 68 121 65
0.571210 -0.233997 0.035838 0.827713 -0.561050 0.010671 0.133115 0.657709 68 121 65
0.531492 -0.292941 0.017569 0.827713 -0.561050 0.010671 0.100326 0.621820 68 121 65
0.335586 -0.275222 0.202567 0.360515 0.425459 0.830042 0.109093 0.343777 72 139 73
0.217429 -0.256092 0.225808 0.262062 0.254067 0.930998 0.152367 0.359706 75 153 79
0.265125 -0.360542 0.240388 0.156743 -0.045076 0.986602 0.109500 0.388634 73 148 77
-0.684386 -0.143853 0.233635 -0.253212 -0.255745 0.932981 0.509698 0.506177 68 121 65
-0.710285 -0.131212 0.225437 -0.944473 -0.203997 -0.257595 0.529332 0.371519 135 122 109
-0.651071 -0.104360 -0.012935 -0.944473 -0.203997 -0.257595 0.752598 0.355767 135 122 109
-0.642637 -0.144386 -0.012163 -0.944473 -0.203997 -0.257595 0.752166 0.372784 135 122 109
-0.710285 -0.131212 0.225437 -0.852690 -0.517652 -0.070393 0.529332 0.371519 135 122 109
-0.475848 -0.485094 -0.012003 -0.852690 -0.517652 -0.070393 0.755947 0.512859 135 122 109
-0.477044 -0.506035 0.156474 -0.852690 -0.517652 -0.070393 0.598783 0.522819 135 122 109
-0.454597 -0.534469 0.223290 -0.195318 0.017396 0.980560 0.755947 0.379030 85 118 84
-0.447621 -0.486050 0.207631 0.067843 0.148045 0.986633 0.768321 0.367299 85 118 83
-0.493476 -0.495572 0.216027 -0.757225 -0.199683 0.621845 0.768321 0.389480 85 118 84
-0.493476 -0.495572 0.216027 -0.757225 -0.199683 0.621845 0.755947 0.498280 135 122 109
-0.494550 -0.434038 0.207080 -0.497208 -0.221961 0.838740 0.773655 0.476611 135 122 109
-0.477044 -0.506035 0.156474 -0.874508 -0.484359 -0.024659 0.806262 0.522819 135 122 109
0.150613 -0.336491 0.245668 0.064852 -0.040437 0.997070 0.156092 0.403177 75 153 79
0.232545 -0.505127 0.196615 0.095706 -0.090915 0.991241 0.086789 0.463430 68 121 65
0.344098 -0.347089 0.213704 0.155828 0.048830 0.986572 0.923658 0.156125 68 122 65
0.265125 -0.360542 0.240388 0.156743 -0.045076 0.986602 0.896088 0.145110 73 148 77
0.308677 -0.457816 0.209282 0.001282 -0.332133 0.943205 0.923658 0.105252 68 121 65
-0.109585 -0.361005 0.227749 -0.071108 -0.173742 0.982208 0.251169 0.468655 72 141 73
0.101293 -0.505137 0.236505 0.091433 -0.593371 0.799707 0.140416 0.478812 74 148 77
-0.082723 -0.076052 0.243122 -0.020692 0.034516 0.999176 0.298660 0.352767 68 121 65
0.112248 -0.121593 0.233597 0.326243 0.401502 0.855739 0.218464 0.329802 75 153 79
-0.107623 0.009853 0.240848 0.162664 0.170782 0.971770 0.326631 0.325270 68 121 65
0.102727 -0.197447 0.250131 0.113132 0.076907 0.990570 0.202540 0.359695 75 153 79
-0.202921 -0.172139 0.235777 0.020875 -0.038697 0.999023 0.324374 0.415415 68 121 65
0.217429 -0.256092 0.225808 0.262062 0.254067 0.930998 0.189557 0.896068 75 153 79
0.314291 -0.186419 0.157373 0.187262 0.026978 0.981933 0.242652 0.843624 75 152 79
0.202384 -0.111520 0.167147 0.164281 0.090213 0.982269 0.242652 0.895421 75 153 79
0.335586 -0.275222 0.202567 0.360515 0.425459 0.830042 0.200597 0.840563 72 139 73
0.335586 -0.275222 0.202567 0.360515 0.425459 0.830042 0.029147 0.859343 72 139 73
0.398406 -0.262093 0.127123 0.622181 0.354839 0.697806 0.029147 0.931998 69 125 66
0.314291 -0.186419 0.157373 0.187262 0.026978 0.981933 0.000000 0.905708 75 152 79
0.310052 -0.108194 0.180106 -0.180548 -0.385144 0.904996 0.788512 0.177269 73 143 74
0.314291 -0.186419 0.157373 0.187262 0.026978 0.981933 0.755947 0.169160 75 152 79
0.513741 -0.154908 0.209600 -0.170751 -0.400830 0.900082 0.799386 0.082403 68 121 65
0.465679 -0.058720 0.233701 -0.032472 -0.226844 0.973357 0.833154 0.110427 70 130 68
-0.316774 -0.258603 0.240889 -0.114078 -0.121830 0.985961 0.347262 0.472160 73 145 75
-0.328209 -0.138339 0.247211 -0.054445 0.072085 0.995880 0.375800 0.428060 68 123 65
-0.427490 -0.236329 0.216198 -0.132817 -0.093020 0.986755 0.398115 0.488700 75 153 79
-0.351327 -0.061229 0.227691 0.092044 0.107486 0.989929 0.404720 0.404773 75 153 79
-0.441074 -0.136689 0.231413 -0.108249 -0.122898 0.986480 0.421271 0.452323 75 153 79
-0.238800 -0.058412 0.219132 -0.074129 0.184881 0.979949 0.365239 0.380589 68 123 65
0.018379 0.076568 0.173706 0.005524 -0.267190 0.963591 0.850828 0.459434 75 153 79
-0.001962 0.168321 0.212436 0.006043 -0.140446 0.990051 0.888373 0.477140 75 153 79
-0.109628 0.091705 0.215422 0.254585 0.107578 0.961028 0.877092 0.522819 70 137 72
-0.213952 -0.282151 0.243180 -0.033509 -0.102145 0.994201 0.303592 0.459354 68 121 65
-0.352030 -0.365562 0.210726 -0.047914 -0.127995 0.990600 0.343712 0.522686 75 153 79
-0.274899 -0.458043 0.199643 -0.028138 -0.013855 0.999481 0.284717 0.552100 72 141 73
0.018379 0.076568 0.173706 0.005524 -0.267190 0.963591 0.822979 0.322429 75 153 79
-0.109628 0.091705 0.215422 0.254585 0.107578 0.961028 0.812344 0.367299 70 137 72
-0.006609 0.015701 0.170970 0.306925 0.256203 0.916562 0.794104 0.324346 71 134 71
-0.328835 0.021288 0.211920 0.151708 -0.083193 0.984893 0.417087 0.369541 75 153 79
-0.167713 0.223622 0.210075 0.118107 0.000763 0.992981 0.400609 0.258224 75 153 79
-0.271392 0.153950 0.240359 0.169530 -0.054781 0.983978 0.418206 0.304618 75 153 79
-0.109628 0.091705 0.215422 0.254585 0.107578 0.961028 0.349907 0.296136 70 137 72
-0.243073 0.290419 0.234605 0.159246 0.066164 0.985015 0.437856 0.246787 75 153 79
-0.350558 0.212815 0.262027 -0.028871 0.110172 0.993469 0.455759 0.297223 69 125 67
-0.448951 0.041994 0.260132 -0.004578 -0.037599 0.999268 0.456385 0.383516 73 142 76
-0.328835 0.021288 0.211920 0.151708 -0.083193 0.984893 0.806262 0.482597 75 153 79
-0.448951 0.041994 0.260132 -0.004578 -0.037599 0.999268 0.850828 0.500201 73 142 76
-0.351327 -0.061229 0.227691 0.092044 0.107486 0.989929 0.808170 0.522819 75 153 79
0.232247 0.298179 0.234459 0.024140 0.062502 0.997742 0.262939 0.143674 75 153 79
0.305917 0.096408 0.250695 -0.026276 -0.077151 0.996643 0.189401 0.204289 75 153 79
0.360732 0.321244 0.236367 0.022401 0.053499 0.998291 0.214421 0.105780 68 121 65
0.171477 0.230720 0.243937 -0.062044 -0.007202 0.998016 0.269264 0.181648 75 153 79
0.087277 0.180012 0.215215 -0.165746 -0.160741 0.972961 0.295565 0.220838 75 153 79
-0.001962 0.168321 0.212436 0.006043 -0.140446 0.990051 0.326796 0.244315 75 153 79
0.103829 0.092573 0.205290 -0.295480 -0.295816 0.908383 0.272831 0.251542 75 153 79
0.206670 0.089425 0.253798 -0.164800 -0.252998 0.953307 0.224163 0.227656 74 151 78
0.206670 0.089425 0.253798 -0.164800 -0.252998 0.953307 0.302817 0.854011 74 151 78
0.103829 0.092573 0.205290 -0.295480 -0.295816 0.908383 0.302817 0.917627 75 153 79
0.221111 0.015746 0.213628 -0.234443 -0.356426 0.904416 0.269226 0.878288 75 152 78
0.305917 0.096408 0.250695 -0.026276 -0.077151 0.996643 0.270359 0.824949 75 153 79
0.221111 0.015746 0.213628 -0.234443 -0.356426 0.904416 0.828237 0.223727 75 152 78
0.202384 -0.111520 0.167147 0.164281 0.090213 0.982269 0.771255 0.222848 75 153 79
-0.006609 0.015701 0.170970 0.306925 0.256203 0.916562 0.181855 0.651629 71 134 71
-0.107623 0.009853 0.240848 0.162664 0.170782 0.971770 0.242652 0.601911 68 121 65
0.202384 -0.111520 0.167147 0.164281 0.090213 0.982269 0.184671 0.746237 75 153 79
0.022351 0.435988 0.243174 -0.024354 0.191961 0.981079 0.368458 0.134500 75 153 79
0.178712 0.442788 0.222774 -0.013459 0.157018 0.987487 0.315928 0.100390 75 153 79
0.154152 0.480260 0.212187 -0.002014 0.190466 0.981689 0.335155 0.091959 75 153 79
0.221111 0.015746 0.213628 -0.234443 -0.356426 0.904416 0.189205 0.746237 75 152 78
0.310052 -0.108194 0.180106 -0.180548 -0.385144 0.904996 0.242652 0.754724 73 143 74
0.337207 -0.047531 0.234562 -0.161931 -0.393384 0.904996 0.207318 0.796653 70 132 70
0.337207 -0.047531 0.234562 -0.161931 -0.393384 0.904996 0.150434 0.253967 70 132 70
0.465679 -0.058720 0.233701 -0.032472 -0.226844 0.973357 0.100498 0.231244 70 130 68
0.393569 0.127054 0.250952 0.018555 0.001679 0.999817 0.163298 0.174064 75 153 79
-0.016370 0.377597 0.246406 -0.141820 -0.001617 0.989868 0.369779 0.164796 75 153 79
0.117317 0.349082 0.243892 0.060335 0.051912 0.996826 0.314556 0.147727 75 153 79
0.021574 0.290346 0.237521 -0.085147 -0.147923 0.985321 0.338928 0.190847 75 153 79
0.300899 0.453324 0.236367 0.006897 0.154424 0.987976 0.264821 0.067830 68 121 65
0.203064 0.565880 0.207353 0.065767 0.225745 0.971954 0.336375 0.049275 73 144 74
0.430607 -0.230691 0.092265 0.623524 -0.451460 0.638234 0.986045 0.251698 68 122 65
0.470461 -0.226674 0.078914 0.000702 -0.711203 0.702933 0.976767 0.270860 68 121 65
0.443844 -0.202511 0.117384 0.074282 -0.788629 0.610309 0.968950 0.232951 69 120 66
-0.147062 0.340471 0.211971 -0.009430 0.006623 0.999908 0.417393 0.208983 75 153 79
-0.107749 0.474062 0.209252 -0.029817 0.068422 0.997192 0.431734 0.149723 75 153 79
-0.262151 0.390209 0.225981 0.115757 -0.040223 0.992431 0.467897 0.213193 75 153 79
-0.262157 0.509168 0.241953 -0.008637 0.193121 0.981109 0.489964 0.166503 70 132 69
-0.187556 0.648219 0.211376 -0.108371 0.160009 0.981140 0.181855 0.787841 82 118 81
-0.105212 0.661616 0.211085 0.015076 0.429792 0.902768 0.188959 0.746237 75 150 78
-0.205201 0.668543 0.203077 -0.451552 0.734153 0.507035 0.188959 0.795753 86 119 85
0.441003 -0.264956 0.078057 0.562700 0.304209 0.768609 0.181453 0.906182 68 121 65
0.470461 -0.226674 0.078914 0.000702 -0.711203 0.702933 0.162331 0.906822 68 121 65
0.430607 -0.230691 0.092265 0.623524 -0.451460 0.638234 0.167073 0.893212 68 122 65
-0.105212 0.661616 0.211085 0.015076 0.429792 0.902768 0.470400 0.076978 75 150 78
0.122938 0.686439 0.178888 0.003204 0.858791 0.512284 0.387579 0.017462 68 121 65
-0.205201 0.668543 0.203077 -0.451552 0.734153 0.507035 0.516587 0.087519 86 119 85
0.565679 -0.225733 0.189755 -0.057497 -0.794580 0.604419 0.890032 0.201509 68 121 65
0.513741 -0.154908 0.209600 -0.170751 -0.400830 0.900082 0.899300 0.171175 68 121 65
0.398406 -0.262093 0.127123 0.622181 0.354839 0.697806 0.896088 0.080938 69 125 66
0.335586 -0.275222 0.202567 0.360515 0.425459 0.830042 0.896088 0.156125 72 139 73
0.421329 -0.339963 0.210370 0.253273 0.378399 0.890286 0.857432 0.147780 68 121 65
0.651677 -0.094700 0.212625 -0.030030 0.003784 0.999512 0.842946 0.027883 68 121 65
0.441003 -0.264956 0.078057 0.562700 0.304209 0.768609 0.895201 0.031477 68 121 65
0.478226 -0.336820 0.184566 0.548875 0.590716 0.591388 0.842946 0.116456 68 121 65
0.478226 -0.336820 0.184566 0.548875 0.590716 0.591388 0.046637 0.338587 68 121 65
0.465873 -0.410184 0.207149 0.032685 0.122074 0.991974 0.031073 0.367697 68 121 65
0.492400 -0.376394 0.202678 0.656667 0.202887 0.726341 0.029303 0.349480 68 121 65
0.421329 -0.339963 0.210370 0.253273 0.378399 0.890286 0.061900 0.349958 68 121 65
0.344098 -0.347089 0.213704 0.155828 0.048830 0.986572 0.088405 0.368725 68 122 65
0.482091 -0.271579 0.053468 0.600421 -0.185095 0.777947 0.181855 0.933815 68 121 65
-0.596513 -0.231142 0.207441 -0.011780 -0.063662 0.997894 0.463782 0.522944 68 121 65
-0.494550 -0.434038 0.207080 -0.497208 -0.221961 0.838740 0.382842 0.579200 71 120 68
-0.493476 -0.495572 0.216027 -0.757225 -0.199683 0.621845 0.367556 0.601911 85 118 84
-0.447621 -0.486050 0.207631 0.067843 0.148045 0.986633 0.341322 0.598657 85 118 83
-0.507584 -0.169626 0.210856 -0.091800 -0.122776 0.988159 0.443129 0.480404 75 153 79
-0.505459 -0.034738 0.245101 -0.090487 -0.146641 0.985015 0.464102 0.425874 75 151 78
0.528303 -0.255603 0.047941 0.293432 -0.588047 0.753723 0.974146 0.318164 68 121 65
0.482091 -0.271579 0.053468 0.293432 -0.588047 0.753723 0.986675 0.299152 68 121 65
0.531492 -0.292941 0.017569 0.293432 -0.588047 0.753723 1.000000 0.367299 68 121 65
-0.596513 -0.231142 0.207441 -0.011780 -0.063662 0.997894 0.900322 0.054025 68 121 65
-0.684386 -0.143853 0.233635 -0.253212 -0.255745 0.932981 0.896088 0.006067 68 121 65
-0.633598 -0.204911 0.207116 -0.190344 -0.397229 0.897732 0.907982 0.039587 68 121 65
0.531492 -0.292941 0.017569 0.515339 -0.206130 0.831827 0.100326 0.621820 68 121 65
0.482091 -0.271579 0.053468 0.515339 -0.206130 0.831827 0.111706 0.687492 68 121 65
0.498230 -0.356919 0.022322 0.515339 -0.206130 0.831827 0.072666 0.650873 68 121 65
0.273791 0.580313 0.190141 0.038270 0.134129 0.990204 0.813887 0.398671 69 120 67
0.232907 0.675779 0.192652 -0.172369 0.462172 0.869839 0.842045 0.432135 68 121 65
0.250562 0.581312 0.190904 0.114017 0.207984 0.971435 0.806262 0.416026 68 122 66
0.468869 -0.535871 0.223212 0.599261 -0.374920 0.707297 0.014339 0.859343 135 122 109
0.460062 -0.438029 -0.019671 0.900021 -0.425764 -0.092959 0.031507 0.625019 135 122 109
0.492400 -0.376394 0.202678 0.656667 0.202887 0.726341 0.082548 0.833317 135 122 109
0.528303 -0.255603 0.047941 0.379040 -0.793390 0.476241 0.974146 0.318164 68 121 65
0.526086 -0.246401 0.078853 -0.110721 -0.919340 0.377483 0.956014 0.283796 68 121 65
0.482091 -0.271579 0.053468 0.600421 -0.185095 0.777947 0.986675 0.299152 68 121 65
0.580744 -0.229439 0.161491 0.406446 -0.904599 0.128330 0.897176 0.227774 68 121 65
0.482091 -0.271579 0.053468 0.600421 -0.185095 0.777947 0.111706 0.687492 135 122 109
0.498230 -0.356919 0.022322 0.915738 -0.332987 0.224677 0.072666 0.650873 135 122 109
-0.227416 0.635790 0.181989 -0.814081 0.427869 0.392590 0.507879 0.601911 135 122 109
-0.205201 0.668543 0.203077 -0.451552 0.734153 0.507035 0.523662 0.612501 135 122 109
-0.216506 0.650526 0.000000 -0.093600 0.926969 0.363231 0.307333 0.614610 135 122 109
-0.227416 0.635790 0.181989 -0.814081 0.427869 0.392590 0.523662 0.104025 81 118 79
-0.293864 0.505751 0.235718 -0.205115 0.179754 0.962066 0.502276 0.174932 68 123 65
-0.219605 0.581078 0.211458 -0.090304 0.258766 0.961699 0.497939 0.127953 68 124 67
0.324382 0.521094 0.200406 0.334819 0.574328 0.747002 0.893453 0.403614 70 120 67
0.273791 0.580313 0.190141 0.038270 0.134129 0.990204 0.884893 0.426887 69 120 67
0.250562 0.581312 0.190904 0.114017 0.207984 0.971435 0.864198 0.423438 68 122 66
-0.418384 0.324800 0.214588 -0.226722 0.159703 0.960753 0.514338 0.271969 69 122 67
0.300899 0.453324 0.236367 0.006897 0.154424 0.987976 0.842946 0.374501 68 121 65
0.353792 0.468600 0.228998 0.093844 0.253914 0.962645 0.870497 0.367299 71 120 68
0.250562 0.581312 0.190904 0.114017 0.207984 0.971435 0.321407 0.033147 68 122 66
0.195054 0.683215 0.179474 0.068880 0.847316 0.526597 0.358877 0.003602 68 121 65
-0.357252 0.312109 0.228441 -0.101413 0.172399 0.979766 0.486132 0.262971 74 151 78
0.469507 0.326765 0.224790 0.207556 0.178686 0.961760 0.298512 0.767402 72 120 69
0.377525 0.481276 0.223093 0.091372 0.277200 0.956450 0.302817 0.824949 79 119 76
0.427673 0.338750 0.231592 0.122166 0.109745 0.986419 0.275705 0.770752 69 121 66
0.427673 0.338750 0.231592 0.122166 0.109745 0.986419 0.196604 0.086135 69 121 66
0.353792 0.468600 0.228998 0.093844 0.253914 0.962645 0.252179 0.052149 71 120 68
0.523779 0.216102 0.235465 0.374615 0.280282 0.883785 0.285959 0.725971 73 123 70
0.377525 0.481276 0.223093 0.091372 0.277200 0.956450 0.893453 0.372678 79 119 76
0.472991 0.140291 0.246654 -0.007324 -0.005737 0.999939 0.132248 0.150737 69 130 69
0.530901 0.156623 0.251735 0.329936 0.130406 0.934935 0.115471 0.132723 68 121 65
0.623929 0.014812 0.223457 0.686300 0.297311 0.663717 0.294500 0.647881 68 121 65
0.568314 0.107729 0.230468 0.771081 0.372265 0.516526 0.288206 0.683270 68 121 65
0.612262 0.010048 0.237655 0.380413 0.065340 0.922483 0.264771 0.647459 68 121 65
0.568314 0.107729 0.230468 0.771081 0.372265 0.516526 0.288206 0.683270 69 122 66
0.530901 0.156623 0.251735 0.329936 0.130406 0.934935 0.254091 0.703945 71 123 68
0.232545 -0.505127 0.196615 0.095706 -0.090915 0.991241 0.690834 0.903224 68 121 65
0.280816 -0.546071 0.201317 0.011170 0.231147 0.972839 0.723810 0.907622 68 121 65
0.292086 -0.484018 0.183696 0.080386 -0.342448 0.936064 0.713891 0.919554 68 121 65
-0.237650 -0.553003 0.212104 -0.026093 0.074923 0.996826 0.595431 0.719828 68 121 65
-0.447621 -0.486050 0.207631 0.067843 0.148045 0.986633 0.523662 0.656012 85 118 83
-0.454597 -0.534469 0.223290 -0.195318 0.017396 0.980560 0.535530 0.645050 85 118 84
-0.237650 -0.553003 0.212104 -0.026093 0.074923 0.996826 0.261093 0.570283 68 121 65
-0.073220 -0.529626 0.198434 0.171941 -0.685751 0.707175 0.194814 0.537110 75 147 78
0.216506 0.650701 0.000000 -0.000000 0.000000 1.000000 0.731342 0.798763 70 131 68
0.000000 1.000000 0.000000 -0.000000 0.000000 1.000000 0.888961 0.715940 0 255 249
-0.216506 0.650526 0.000000 -0.000000 0.000000 1.000000 0.888961 0.895521 68 122 65
-0.648562 -0.123342 0.000000 0.000000 -0.000000 1.000000 0.523662 0.821844 0 255 249
-0.649519 -0.125000 0.000000 0.000000 -0.000000 1.000000 0.523662 0.822681 0 255 249
-0.646647 -0.132672 0.000000 0.000000 -0.000000 1.000000 0.520955 0.825004 0 255 249
0.468869 -0.535871 0.223212 0.919163 -0.330885 -0.213670 0.014339 0.859343 135 122 109
0.455294 -0.562918 0.206703 0.919163 -0.330885 -0.213670 0.000000 0.845528 153 142 130
0.435292 -0.479695 -0.008220 0.919163 -0.330885 -0.213670 0.012777 0.639795 135 122 109
0.382518 -0.555524 0.208617 0.000885 0.191656 0.981445 0.265352 0.869835 69 121 66
0.280816 -0.546071 0.201317 0.011170 0.231147 0.972839 0.269226 0.824949 68 121 65
0.673025 -0.084196 0.215143 -0.137913 0.043092 0.989471 0.300558 0.606699 68 121 65
0.654538 -0.041611 0.212833 0.421796 0.000183 0.906674 0.302817 0.625665 68 121 65
0.651677 -0.094700 0.212625 -0.030030 0.003784 0.999512 0.285713 0.601911 68 121 65
-0.633598 -0.204911 0.207116 -0.190344 -0.397229 0.897732 0.806262 0.389610 68 121 65
-0.477044 -0.506035 0.156474 -0.874508 -0.484359 -0.024659 0.806262 0.522819 130 122 105
-0.494550 -0.434038 0.207080 -0.497208 -0.221961 0.838740 0.773655 0.476611 80 122 74
-0.633598 -0.204911 0.207116 -0.190344 -0.397229 0.897732 0.483202 0.520734 68 121 65
0.534685 -0.309028 -0.002001 0.769443 -0.426088 0.475821 0.091640 0.601911 68 121 65
0.615546 -0.169418 -0.007741 0.769443 -0.426088 0.475821 0.159591 0.604674 68 121 65
0.531492 -0.292941 0.017569 0.769443 -0.426088 0.475821 0.100326 0.621820 68 121 65
0.534685 -0.309028 -0.002001 0.827221 -0.510634 0.234431 0.091640 0.601911 68 121 65
0.498230 -0.356919 0.022322 0.827221 -0.510634 0.234431 0.072666 0.650873 68 121 65
0.460062 -0.438029 -0.019671 0.827221 -0.510634 0.234431 0.031507 0.625019 68 121 65
0.498230 -0.356919 0.022322 0.907857 -0.418978 -0.015896 0.072666 0.650873 135 122 109
0.492400 -0.376394 0.202678 0.907857 -0.418978 -0.015896 0.082548 0.833317 135 122 109
0.460062 -0.438029 -0.019671 0.907857 -0.418978 -0.015896 0.031507 0.625019 135 122 109
0.455294 -0.562918 0.206703 0.656942 -0.680470 -0.324634 0.000000 0.845528 153 142 130
0.410716 -0.502202 -0.010775 0.656942 -0.680470 -0.324634 0.000920 0.641009 135 122 109
0.435292 -0.479695 -0.008220 0.656942 -0.680470 -0.324634 0.012777 0.639795 135 122 109
-0.710285 -0.131212 0.225437 -0.720420 -0.268288 0.639515 0.523662 0.507370 69 120 66
-0.642637 -0.144386 -0.012163 -0.875007 -0.428452 -0.225371 0.752166 0.372784 135 122 109
-0.475848 -0.485094 -0.012003 -0.875007 -0.428452 -0.225371 0.755947 0.512859 135 122 109
-0.710285 -0.131212 0.225437 -0.875007 -0.428452 -0.225371 0.529332 0.371519 135 122 109
-0.477044 -0.506035 0.156474 -0.874508 -0.484359 -0.024659 0.581693 0.604587 135 122 109
-0.454597 -0.534469 0.223290 -0.195318 0.017396 0.980560 0.535530 0.645050 157 146 135
-0.493476 -0.495572 0.216027 -0.757225 -0.199683 0.621845 0.530548 0.627972 135 122 109
0.030495 0.533268 0.214874 0.021302 0.171880 0.984863 0.391823 0.097521 75 153 79
0.478226 -0.336820 0.184566 0.548875 0.590716 0.591388 0.077753 0.898093 68 121 65
0.421329 -0.339963 0.210370 0.253273 0.378399 0.890286 0.059998 0.878799 68 121 65
0.465873 -0.410184 0.207149 0.032685 0.122074 0.991974 0.077753 0.859343 68 121 65
0.571210 -0.233997 0.035838 0.732536 -0.678304 0.057131 0.964166 0.338735 68 121 65
0.643163 -0.173624 0.221982 0.384289 -0.557298 0.736015 0.842946 0.192298 68 121 65
-0.205201 0.668543 0.203077 -0.451552 0.734153 0.507035 0.124128 0.903867 86 119 85
-0.227416 0.635790 0.181989 -0.814081 0.427869 0.392590 0.108468 0.891890 81 118 79
-0.219605 0.581078 0.211458 -0.090304 0.258766 0.961699 0.124128 0.859343 68 124 67
0.195054 0.683215 0.179474 0.239193 0.960034 -0.145335 0.523662 0.795292 135 122 109
0.232907 0.675779 0.192652 0.239193 0.960034 -0.145335 0.515325 0.810010 135 122 109
0.216506 0.650701 0.000000 0.239193 0.960034 -0.145335 0.304889 0.793869 138 125 113
0.122938 0.686439 0.178888 0.045379 0.983906 -0.172826 0.507193 0.766265 135 122 109
0.195054 0.683215 0.179474 0.045379 0.983906 -0.172826 0.523662 0.795292 135 122 109
0.216506 0.650701 0.000000 0.045379 0.983906 -0.172826 0.304889 0.793869 138 125 113
0.122938 0.686439 0.178888 -0.069920 0.970564 -0.230469 0.507193 0.766265 135 122 109
0.216506 0.650701 0.000000 -0.069920 0.970564 -0.230469 0.304889 0.793869 138 125 113
-0.205201 0.668543 0.203077 -0.069920 0.970564 -0.230469 0.523662 0.612501 135 122 109
-0.216506 0.650526 0.000000 -0.000403 0.996089 -0.088352 0.307333 0.614610 135 122 109
-0.205201 0.668543 0.203077 -0.000403 0.996089 -0.088352 0.523662 0.612501 135 122 109
0.216506 0.650701 0.000000 -0.000403 0.996089 -0.088352 0.304889 0.793869 138 125 113
-0.073220 -0.529626 0.198434 0.171941 -0.685751 0.707175 0.619583 0.789741 87 157 90
0.000033 -0.565286 0.187509 0.036683 -0.177343 0.983459 0.670424 0.795891 88 161 92
0.000033 -0.565286 0.187509 0.036683 -0.177343 0.983459 0.670424 0.795891 76 149 79
0.212320 -0.555733 0.205052 -0.047334 0.182623 0.982025 0.705410 0.883732 69 121 66
0.000033 -0.565286 0.187509 0.036683 -0.177343 0.983459 0.670424 0.795891 207 221 207
-0.073220 -0.529626 0.198434 0.171941 -0.685751 0.707175 0.619583 0.789741 144 175 143
-0.081449 -0.560466 0.201496 0.114872 0.067721 0.991058 0.640315 0.772558 151 180 149
0.280816 -0.546071 0.201317 0.011170 0.231147 0.972839 0.072118 0.459148 68 121 65
0.698982 -0.134516 0.223581 0.312815 -0.501419 0.806665 0.830490 0.000000 71 120 68
0.643163 -0.173624 0.221982 0.384289 -0.557298 0.736015 0.808513 0.021799 68 121 65
0.651677 -0.094700 0.212625 -0.030030 0.003784 0.999512 0.919475 0.522819 68 121 65
0.557129 -0.006139 0.234596 0.028077 -0.134373 0.990509 0.888373 0.474734 68 121 65
0.465679 -0.058720 0.233701 -0.032472 -0.226844 0.973357 0.919475 0.437560 70 130 68
-0.710285 -0.131212 0.225437 -0.720420 -0.268288 0.639515 0.907982 0.000000 69 120 66
-0.187556 0.648219 0.211376 -0.108371 0.160009 0.981140 0.503261 0.091866 82 118 81
0.398406 -0.262093 0.127123 0.622181 0.354839 0.697806 0.181855 0.859343 69 125 66
0.398406 -0.262093 0.127123 0.622181 0.354839 0.697806 0.181855 0.859343 68 121 65
0.430607 -0.230691 0.092265 0.623524 -0.451460 0.638234 0.167073 0.893212 68 121 65
0.443844 -0.202511 0.117384 0.074282 -0.788629 0.610309 0.152640 0.870642 70 123 67
0.482091 -0.271579 0.053468 0.600421 -0.185095 0.777947 0.887951 0.000000 68 121 65
0.492400 -0.376394 0.202678 0.656667 0.202887 0.726341 0.082548 0.833317 68 121 65
0.482091 -0.271579 0.053468 0.600421 -0.185095 0.777947 0.111706 0.687492 68 121 65
0.478226 -0.336820 0.184566 0.548875 0.590716 0.591388 0.096434 0.815439 68 121 65
0.530901 0.156623 0.251735 0.329936 0.130406 0.934935 0.254091 0.703945 68 121 65
0.232545 -0.505127 0.196615 0.095706 -0.090915 0.991241 0.901422 0.066409 68 121 65
0.112248 -0.121593 0.233597 0.326243 0.401502 0.855739 0.242652 0.701653 75 153 79
0.217429 -0.256092 0.225808 0.262062 0.254067 0.930998 0.368060 0.870863 75 153 79
0.202384 -0.111520 0.167147 0.164281 0.090213 0.982269 0.302817 0.823050 75 153 79
0.112248 -0.121593 0.233597 0.326243 0.401502 0.855739 0.368060 0.821844 75 153 79
0.398406 -0.262093 0.127123 0.622181 0.354839 0.697806 0.059998 0.902697 69 125 66
0.443844 -0.202511 0.117384 0.074282 -0.788629 0.610309 0.029147 0.895039 69 120 66
0.314291 -0.186419 0.157373 0.187262 0.026978 0.981933 0.059998 0.859343 75 152 79
0.465679 -0.058720 0.233701 -0.032472 -0.226844 0.973357 0.242652 0.840563 70 130 68
-0.109628 0.091705 0.215422 0.254585 0.107578 0.961028 0.893453 0.396233 70 137 72
-0.107623 0.009853 0.240848 0.162664 0.170782 0.971770 0.923795 0.367299 68 121 65
-0.006609 0.015701 0.170970 0.306925 0.256203 0.916562 0.923795 0.435818 71 134 71
-0.271392 0.153950 0.240359 0.169530 -0.054781 0.983978 0.850828 0.432135 75 153 79
0.103829 0.092573 0.205290 -0.295480 -0.295816 0.908383 0.888373 0.429458 75 153 79
0.103829 0.092573 0.205290 -0.295480 -0.295816 0.908383 0.842946 0.283676 75 153 79
0.221111 0.015746 0.213628 -0.234443 -0.356426 0.904416 0.211243 0.255669 75 152 78
0.565679 -0.225733 0.189755 -0.057497 -0.794580 0.604419 0.776821 0.055552 68 121 65
0.571210 -0.233997 0.035838 0.467465 -0.533472 0.704900 0.964166 0.338735 68 121 65
0.528303 -0.255603 0.047941 0.467465 -0.533472 0.704900 0.974146 0.318164 68 121 65
0.531492 -0.292941 0.017569 0.467465 -0.533472 0.704900 1.000000 0.367299 68 121 65
0.232907 0.675779 0.192652 -0.172369 0.462172 0.869839 0.346588 0.000000 68 121 65
0.353792 0.468600 0.228998 0.093844 0.253914 0.962645 0.280179 0.819354 71 120 68
-0.073220 -0.529626 0.198434 0.171941 -0.685751 0.707175 0.619583 0.789741 145 176 143
-0.237650 -0.553003 0.212104 -0.026093 0.074923 0.996826 0.595431 0.719828 70 122 67
-0.866025 -0.500000 0.000000 0.000000 0.000000 1.000000 0.000000 0.000000 255 255 255
-0.462285 -0.500000 0.000000 0.000000 0.000000 1.000000 0.000000 0.000000 255 255 255
-0.648562 -0.123342 0.000000 0.000000 0.000000 1.000000 0.000000 0.000000 255 255 255
0.314291 -0.186419 0.157373 0.187262 0.026978 0.981933 1.000000 0.172125 75 152 79
0.866026 -0.500000 -0.000000 -0.004308 0.000354 -0.999991 0.000000 0.000000 255 255 255
0.410839 -0.500000 0.001961 -0.004308 0.000354 -0.999991 0.000000 0.000000 255 255 255
0.643345 -0.114307 0.001096 -0.004308 0.000354 -0.999991 0.000000 0.000000 255 255 255
3 0 1 2
3 3 4 5
3 6 7 8
3 7 9 8
3 10 11 12
3 13 14 15
3 16 17 18
3 19 20 21
3 22 23 24
3 25 26 27
3 28 29 30
3 31 32 33
3 34 35 36
3 37 38 39
3 40 41 42
3 43 23 22
3 44 45 46
3 47 48 49
3 50 51 52
3 53 54 55
3 41 56 42
3 42 56 57
3 58 59 60
3 56 61 62
3 63 64 65
3 56 66 67
3 66 64 63
3 66 41 64
3 68 69 70
3 71 69 68
3 72 73 74
3 75 76 77
3 75 77 78
3 79 80 81
3 63 80 67
3 80 82 83
3 63 84 80
3 80 84 82
3 85 86 87
3 88 61 56
3 61 89 90
3 88 79 89
3 79 81 89
3 91 92 93
3 65 94 84
3 95 96 97
3 98 96 95
3 65 84 63
3 96 99 100
3 101 102 103
3 104 105 106
3 107 105 104
3 108 109 110
3 108 110 111
3 112 113 114
3 112 114 115
3 116 91 117
3 118 119 120
3 121 122 123
3 124 125 126
3 127 128 129
3 130 131 121
3 132 107 131
3 122 104 133
3 123 122 134
3 95 108 132
3 135 136 137
3 95 138 98
3 121 139 130
3 130 139 138
3 140 139 141
3 142 143 144
3 145 146 147
3 148 149 150
3 137 151 152
3 153 154 155
3 77 156 78
3 157 155 158
3 159 160 161
3 162 163 160
3 163 8 160
3 145 164 146
3 43 165 23
3 160 9 161
3 166 89 81
3 167 168 166
3 165 81 169
3 168 90 89
3 169 83 170
3 169 81 83
3 171 172 173
3 174 175 176
3 177 178 179
3 180 181 182
3 183 184 185
3 186 187 188
3 189 151 187
3 190 185 191
3 192 193 194
3 195 196 197
3 198 199 200
3 99 201 100
3 200 202 203
3 204 205 134
3 205 149 134
3 201 206 196
3 207 208 209
3 99 98 206
3 206 98 140
3 210 211 106
3 212 207 209
3 213 198 203
3 214 215 210
3 216 217 218
3 219 220 218
3 25 215 26
3 26 129 128
3 221 222 223
3 6 8 57
3 224 225 226
3 62 227 228
3 62 90 227
3 229 230 231
3 232 233 234
3 235 236 237
3 238 3 239
3 240 241 242
3 243 244 245
3 165 246 166
3 247 248 249
3 250 251 252
3 253 254 255
3 256 257 258
3 259 43 22
3 260 261 262
3 263 264 265
3 56 67 88
3 97 96 65
3 140 138 139
3 148 197 139
3 149 266 134
3 267 268 269
3 160 8 9
3 166 168 89
3 189 186 270
3 189 270 271
3 151 189 271
3 272 273 274
3 197 196 141
3 275 276 277
3 278 279 280
3 281 282 283
3 284 285 286
3 206 201 99
3 287 288 221
3 62 228 57
3 289 290 221
3 290 222 221
3 291 292 293
3 242 241 218
3 238 4 3
3 294 7 6
3 295 156 296
3 297 298 299
3 175 300 176
3 56 41 66
3 88 67 79
3 67 66 63
3 67 80 79
3 61 90 62
3 89 61 88
3 108 95 109
3 65 96 94
3 98 99 96
3 132 108 107
3 107 111 105
3 105 127 129
3 91 93 117
3 130 132 131
3 121 131 122
3 131 107 104
3 122 131 104
3 138 132 130
3 98 138 140
3 139 121 266
3 266 148 139
3 148 301 197
3 139 197 141
3 149 148 266
3 134 266 123
3 302 145 147
3 303 304 305
3 77 296 156
3 157 153 155
3 306 157 158
3 307 308 309
3 136 187 151
3 81 165 166
3 301 150 197
3 133 204 134
3 100 24 170
3 141 206 140
3 217 212 310
3 214 106 129
3 26 214 129
3 227 90 168
3 189 187 186
3 23 170 24
3 163 40 42
3 56 62 57
3 59 311 60
3 312 120 119
3 313 314 315
3 76 75 117
3 316 317 318
3 126 125 319
3 80 83 81
3 82 170 83
3 109 95 97
3 320 321 322
3 94 82 84
3 101 323 102
3 100 170 82
3 105 129 106
3 86 85 324
3 107 108 111
3 325 91 116
3 326 127 105
3 75 116 117
3 266 121 123
3 104 106 133
3 122 133 134
3 138 95 132
3 327 296 77
3 40 163 162
3 188 187 136
3 165 169 23
3 23 169 170
3 328 329 330
3 331 205 204
3 203 198 200
3 201 24 100
3 206 141 196
3 208 332 209
3 211 133 106
3 310 212 209
3 106 214 210
3 215 214 26
3 293 333 334
3 335 336 337
3 136 151 137
3 338 137 152
3 339 340 341
3 241 216 218
