ply
format ascii 1.0
comment Created by Blender 2.69 (sub 0) - www.blender.org, source file: 'world-unit-0002.blend'
element vertex 9
property float x
property float y
property float z
property float nx
property float ny
property float nz
property float s
property float t
property uchar red
property uchar green
property uchar blue
element face 7
property list uchar uint vertex_indices
end_header
0.216506 0.625000 0.000000 -0.000000 0.000000 1.000000 0.750000 0.144338 0 255 255
0.000000 1.000000 0.000000 -0.000000 0.000000 1.000000 1.000000 0.000000 0 255 255
-0.216506 0.625000 0.000000 -0.000000 0.000000 1.000000 1.000000 0.288675 7 255 255
-0.433013 -0.500000 0.000000 -0.000000 0.000000 1.000000 0.750000 1.010363 0 255 255
-0.649519 -0.125000 0.000000 -0.000000 0.000000 1.000000 1.000000 0.866025 0 255 255
-0.866025 -0.500000 0.000000 -0.000000 0.000000 1.000000 1.000000 1.154701 0 255 255
0.866025 -0.500000 0.000000 -0.000000 0.000000 1.000000 0.000000 0.577350 3 255 255
0.649519 -0.125000 0.000000 -0.000000 0.000000 1.000000 0.250000 0.433013 0 255 255
0.433013 -0.500000 0.000000 -0.000000 0.000000 1.000000 0.250000 0.721688 0 255 255
3 0 1 2
3 3 4 5
3 6 7 8
3 8 7 0
3 8 0 3
3 3 2 4
3 0 2 3
