<?xml version="1.0" standalone="no"?>
 <!DOCTYPE svg PUBLIC "-//W3C//DTD SVG 1.1//EN" 
 "http://www.w3.org/Graphics/SVG/1.1/DTD/svg11.dtd"> 
<svg xmlns="http://www.w3.org/2000/svg" version="1.1" 
    width="7.62cm" height="8.01878cm" viewBox="0 0 30000 31570 ">
<title>SVG Picture created as virus-brd.svg date 2018/07/13 14:20:03 </title>
  <desc>Picture generated by PCBNEW </desc>
<g style="fill:#000000; fill-opacity:1;stroke:#000000; stroke-opacity:1;
stroke-linecap:round; stroke-linejoin:round; "
 transform="translate(0 0) scale(1 1)">
</g>
<g style="fill:#000000; fill-opacity:0.0; 
stroke:#000000; stroke-width:-0.000393701; stroke-opacity:1; 
stroke-linecap:round; stroke-linejoin:round;">
</g>
<g style="fill:#840084; fill-opacity:0.0; 
stroke:#840084; stroke-width:-0.000393701; stroke-opacity:1; 
stroke-linecap:round; stroke-linejoin:round;">
</g>
<g style="fill:#840084; fill-opacity:0.0; 
stroke:#840084; stroke-width:118.11; stroke-opacity:1; 
stroke-linecap:round; stroke-linejoin:round;">
<path d="M10858 18092
L11324 17679
L11199 18289
" />
<path d="M11665 17876
L11468 18217
" />
<path d="M11369 18387
L11359 18349
L11397 18338
L11408 18377
L11369 18387
L11397 18338
" />
<path d="M11908 18016
L11711 18357
" />
<path d="M11768 18260
L11764 18322
L11774 18361
L11809 18413
L11857 18441
" />
<path d="M12247 18666
L12444 18326
" />
<path d="M12028 18540
L12183 18272
L12235 18237
L12298 18241
L12371 18283
L12406 18336
L12416 18374
" />
<path d="M12649 18476
L12712 18480
L12809 18536
L12844 18589
L12840 18652
L12826 18676
L12774 18711
L12711 18707
L12638 18665
L12575 18661
L12523 18696
L12508 18720
L12505 18783
L12539 18835
L12612 18877
L12675 18881
" />
<path d="M13307 18856
L13272 18804
L13175 18747
L13112 18744
L13073 18754
L13021 18789
L12937 18935
L12933 18997
L12943 19036
L12978 19088
L13075 19145
L13138 19148
" />
<path d="M13540 18958
L13343 19299
" />
<path d="M13399 19202
L13395 19265
L13406 19303
L13440 19355
L13489 19384
" />
<path d="M14076 19268
L13921 19535
L13868 19570
L13806 19566
L13708 19510
L13674 19458
" />
<path d="M14062 19292
L14027 19239
L13905 19169
L13842 19165
L13790 19200
L13762 19249
L13758 19312
L13793 19364
L13914 19434
L13949 19487
" />
<path d="M14049 19707
L14244 19819
" />
<path d="M14319 19408
L14066 19847
L14062 19909
L14097 19962
L14146 19990
" />
<path d="M14342 19876
L14536 19988
" />
<path d="M14316 20088
L14569 19650
L14622 19615
L14684 19619
L14733 19647
" />
<path d="M15293 19971
L14998 20482
L15193 20595
L15256 20598
L15294 20588
L15347 20553
L15389 20480
L15392 20418
L15382 20379
L15348 20327
L15153 20214
" />
<path d="M15805 20266
L15509 20777
" />
<path d="M16024 20392
L15869 20660
L15817 20695
L15754 20691
L15681 20649
L15646 20597
L15636 20558
" />
<path d="M16341 20575
L16278 20571
L16239 20582
L16187 20616
L16103 20763
L16099 20825
L16109 20864
L16144 20916
L16217 20958
L16280 20962
L16318 20952
L16370 20917
L16455 20771
L16459 20708
L16448 20670
L16414 20617
L16341 20575
" />
<path d="M16460 21099
L16655 21211
" />
<path d="M16435 21312
L16688 20873
L16741 20839
L16803 20842
L16852 20871
" />
<path d="M17096 21011
L17033 21007
L16994 21018
L16942 21052
L16858 21198
L16854 21261
L16864 21300
L16899 21352
L16972 21394
L17035 21398
L17073 21388
L17125 21353
L17210 21207
L17214 21144
L17203 21106
L17169 21053
L17096 21011
" />
<path d="M17447 21246
L17510 21250
L17607 21306
L17642 21359
L17638 21422
L17624 21446
L17571 21481
L17509 21477
L17435 21435
L17373 21431
L17320 21466
L17306 21490
L17302 21553
L17337 21605
L17410 21647
L17473 21651
" />
<path d="M18080 21612
L18045 21559
L17948 21503
L17885 21499
L17833 21534
L17720 21729
L17716 21792
L17751 21844
L17848 21900
L17911 21904
L17964 21870
L17992 21821
L17776 21632
" />
<path d="M18141 22069
L18338 21728
" />
<path d="M18169 22020
L18179 22059
L18214 22111
L18287 22154
L18350 22157
L18402 22123
L18557 21855
" />
<path d="M18762 22006
L18825 22009
L18922 22066
L18957 22118
L18953 22181
L18939 22205
L18886 22240
L18824 22236
L18751 22194
L18688 22190
L18635 22225
L18621 22249
L18618 22312
L18652 22364
L18725 22407
L18788 22410
" />
<path d="M19287 22277
L19225 22273
L19186 22283
L19134 22318
L19049 22464
L19046 22527
L19056 22565
L19091 22618
L19164 22660
L19226 22663
L19265 22653
L19317 22619
L19402 22472
L19405 22410
L19395 22371
L19360 22319
L19287 22277
" />
<path d="M19677 22502
L19480 22843
" />
<path d="M19536 22745
L19533 22808
L19543 22846
L19578 22899
L19626 22927
" />
<path d="M20015 23379
L20481 22966
L20356 23575
" />
<path d="M21090 23317
L20797 23148
" />
<path d="M20943 23233
L20648 23744
L20642 23643
L20621 23566
L20586 23514
" />
<path d="M21281 23492
L21319 23482
L21309 23444
L21270 23454
L21281 23492
L21309 23444
" />
<path d="M21820 23739
L21528 23570
" />
<path d="M21674 23655
L21379 24166
L21372 24065
L21352 23988
L21317 23935
" />
</g>
<g style="fill:#840084; fill-opacity:0.0; 
stroke:#840084; stroke-width:39.3701; stroke-opacity:1; 
stroke-linecap:round; stroke-linejoin:round;">
<path d="M9125 16911
L9219 16966
" />
<path d="M9257 16872
L9276 16938
" />
<path d="M9219 16966
L9257 16872
" />
<path d="M9873 17169
L9896 17122
" />
<path d="M10335 16720
L9963 17641
" />
<path d="M9219 16966
L9219 16966
" />
<path d="M9782 17252
L9831 17223
" />
<path d="M9729 17258
L9782 17252
" />
<path d="M9676 17240
L9729 17258
" />
<path d="M9632 17205
L9676 17240
" />
<path d="M8709 16621
L8751 16683
" />
<path d="M9342 16372
L9125 16911
" />
<path d="M9436 16426
L9342 16372
" />
<path d="M9298 16768
L9436 16426
" />
<path d="M9598 17157
L9632 17205
" />
<path d="M9572 17095
L9598 17157
" />
<path d="M9276 16938
L9303 16993
" />
<path d="M9303 16993
L9336 17036
" />
<path d="M9820 17559
L9788 17638
" />
<path d="M9963 17641
L9820 17559
" />
<path d="M9831 17223
L9873 17169
" />
<path d="M9788 17638
L10023 17773
" />
<path d="M10193 16638
L10335 16720
" />
<path d="M10226 16557
L10193 16638
" />
<path d="M10459 16692
L10226 16557
" />
<path d="M10023 17773
L10459 16692
" />
<path d="M10226 16557
L10226 16557
" />
<path d="M7782 16451
L7808 16478
" />
<path d="M7808 16478
L7843 16502
" />
<path d="M8203 16368
L8238 16410
" />
<path d="M8164 16258
L8178 16318
" />
<path d="M8178 16318
L8203 16368
" />
<path d="M8271 16283
L8267 16240
" />
<path d="M8189 16067
L8169 16131
" />
<path d="M8169 16131
L8161 16195
" />
<path d="M8283 16319
L8271 16283
" />
<path d="M7876 16316
L7884 16289
" />
<path d="M7779 16250
L7756 16327
" />
<path d="M7868 16371
L7867 16357
" />
<path d="M7880 16395
L7868 16371
" />
<path d="M7870 16338
L7876 16316
" />
<path d="M7867 16357
L7870 16338
" />
<path d="M7998 16450
L7942 16432
" />
<path d="M7906 16416
L7880 16395
" />
<path d="M7942 16432
L7906 16416
" />
<path d="M7968 16545
L7998 16450
" />
<path d="M7871 16515
L7913 16528
" />
<path d="M7843 16502
L7871 16515
" />
<path d="M7957 16541
L7968 16545
" />
<path d="M7913 16528
L7957 16541
" />
<path d="M7937 16144
L7937 16144
" />
<path d="M7809 16169
L7779 16250
" />
<path d="M7907 16226
L8018 16290
" />
<path d="M8018 16290
L8048 16208
" />
<path d="M7884 16289
L7907 16226
" />
<path d="M8048 16208
L7937 16144
" />
<path d="M8656 16136
L8653 16073
" />
<path d="M8647 16201
L8656 16136
" />
<path d="M8546 16138
L8536 16186
" />
<path d="M8548 16092
L8546 16138
" />
<path d="M8543 16051
L8548 16092
" />
<path d="M8536 16186
L8519 16234
" />
<path d="M8283 16443
L8325 16463
" />
<path d="M8409 16472
L8452 16462
" />
<path d="M8367 16472
L8409 16472
" />
<path d="M8325 16463
L8367 16472
" />
<path d="M8456 16336
L8412 16369
" />
<path d="M8390 16377
L8368 16380
" />
<path d="M8267 16240
L8281 16144
" />
<path d="M8161 16195
L8164 16258
" />
<path d="M8281 16144
L8322 16048
" />
<path d="M8283 16443
L8283 16443
" />
<path d="M8238 16410
L8283 16443
" />
<path d="M8301 16348
L8283 16319
" />
<path d="M8326 16368
L8326 16368
" />
<path d="M8347 16377
L8326 16368
" />
<path d="M8326 16368
L8301 16348
" />
<path d="M8368 16380
L8347 16377
" />
<path d="M8626 16267
L8647 16201
" />
<path d="M8563 16379
L8593 16335
" />
<path d="M8593 16335
L8626 16267
" />
<path d="M8519 16234
L8494 16284
" />
<path d="M8494 16284
L8456 16336
" />
<path d="M8529 16415
L8563 16379
" />
<path d="M8492 16443
L8529 16415
" />
<path d="M8452 16462
L8492 16443
" />
<path d="M8412 16369
L8390 16377
" />
<path d="M8935 16144
L8897 16146
" />
<path d="M8972 16151
L8935 16144
" />
<path d="M8696 16338
L8677 16410
" />
<path d="M8785 16199
L8729 16268
" />
<path d="M8677 16410
L8673 16481
" />
<path d="M8897 16146
L8857 16156
" />
<path d="M8783 16530
L8783 16430
" />
<path d="M8673 16481
L8684 16552
" />
<path d="M8798 16579
L8783 16530
" />
<path d="M8684 16552
L8709 16621
" />
<path d="M8080 15423
L8066 15469
" />
<path d="M8070 15367
L8081 15391
" />
<path d="M8081 15391
L8080 15423
" />
<path d="M8174 15495
L8193 15420
" />
<path d="M8193 15420
L8190 15361
" />
<path d="M8164 15313
L8114 15273
" />
<path d="M8114 15273
L8054 15243
" />
<path d="M8045 15346
L8070 15367
" />
<path d="M7986 15217
L7956 15311
" />
<path d="M8190 15361
L8164 15313
" />
<path d="M8009 15330
L8045 15346
" />
<path d="M8402 15968
L8424 15960
" />
<path d="M8424 15960
L8446 15957
" />
<path d="M8446 15957
L8466 15960
" />
<path d="M8466 15960
L8486 15968
" />
<path d="M8406 15858
L8364 15868
" />
<path d="M8324 15888
L8286 15916
" />
<path d="M8322 16048
L8359 15999
" />
<path d="M8359 15999
L8402 15968
" />
<path d="M8364 15868
L8324 15888
" />
<path d="M8449 15858
L8406 15858
" />
<path d="M8286 15916
L8252 15955
" />
<path d="M8252 15955
L8220 16002
" />
<path d="M7845 15274
L7867 15221
" />
<path d="M7420 15852
L7576 15943
" />
<path d="M7711 15131
L7420 15852
" />
<path d="M7867 15221
L7711 15131
" />
<path d="M8054 15243
L7986 15217
" />
<path d="M8066 15469
L7839 16087
" />
<path d="M7839 16087
L7730 16024
" />
<path d="M7730 16024
L7699 16106
" />
<path d="M7956 15311
L8009 15330
" />
<path d="M8512 15988
L8531 16016
" />
<path d="M8580 15922
L8535 15889
" />
<path d="M8615 15963
L8580 15922
" />
<path d="M8639 16014
L8615 15963
" />
<path d="M8653 16073
L8639 16014
" />
<path d="M8535 15889
L8492 15868
" />
<path d="M8531 16016
L8543 16051
" />
<path d="M7753 16385
L7763 16420
" />
<path d="M7756 16327
L7753 16385
" />
<path d="M7699 16106
L7809 16169
" />
<path d="M7763 16420
L7782 16451
" />
<path d="M7937 16144
L8174 15495
" />
<path d="M8492 15868
L8449 15858
" />
<path d="M8220 16002
L8189 16067
" />
<path d="M8486 15968
L8512 15988
" />
<path d="M7576 15943
L7576 15943
" />
<path d="M7598 15890
L7502 15834
" />
<path d="M7751 15219
L7845 15274
" />
<path d="M7502 15834
L7751 15219
" />
<path d="M7576 15943
L7598 15890
" />
<path d="M9555 17019
L9572 17095
" />
<path d="M9609 17006
L9603 16982
" />
<path d="M9623 17053
L9609 17006
" />
<path d="M9469 17083
L9513 17061
" />
<path d="M9513 17061
L9555 17019
" />
<path d="M9603 16982
L9599 16963
" />
<path d="M9599 16963
L9597 16949
" />
<path d="M9740 17152
L9715 17156
" />
<path d="M9649 17107
L9636 17084
" />
<path d="M9662 17124
L9649 17107
" />
<path d="M9689 17147
L9662 17124
" />
<path d="M9715 17156
L9689 17147
" />
<path d="M9763 17135
L9740 17152
" />
<path d="M9636 17084
L9623 17053
" />
<path d="M9942 16719
L9800 17072
" />
<path d="M9800 17072
L9785 17105
" />
<path d="M9785 17105
L9763 17135
" />
<path d="M10036 16773
L9942 16719
" />
<path d="M9896 17122
L10036 16773
" />
<path d="M9642 16545
L9505 16886
" />
<path d="M9597 16949
L9598 16941
" />
<path d="M9736 16600
L9642 16545
" />
<path d="M9598 16941
L9736 16600
" />
<path d="M9382 16970
L9348 16933
" />
<path d="M9423 17085
L9469 17083
" />
<path d="M9376 17067
L9423 17085
" />
<path d="M9336 17036
L9376 17067
" />
<path d="M9411 16980
L9382 16970
" />
<path d="M9348 16933
L9319 16864
" />
<path d="M9319 16864
L9308 16827
" />
<path d="M9484 16930
L9462 16960
" />
<path d="M9505 16886
L9484 16930
" />
<path d="M9462 16960
L9437 16977
" />
<path d="M9437 16977
L9411 16980
" />
<path d="M9005 16840
L9222 16303
" />
<path d="M9064 16381
L9066 16394
" />
<path d="M9066 16402
L8941 16714
" />
<path d="M9066 16402
L9066 16402
" />
<path d="M9298 16779
L9298 16768
" />
<path d="M8857 16156
L8785 16199
" />
<path d="M8783 16430
L8817 16338
" />
<path d="M8729 16268
L8696 16338
" />
<path d="M8926 16248
L8949 16246
" />
<path d="M8901 16256
L8926 16248
" />
<path d="M8855 16288
L8901 16256
" />
<path d="M8817 16338
L8855 16288
" />
<path d="M9010 16271
L9025 16288
" />
<path d="M9007 16166
L8972 16151
" />
<path d="M9065 16222
L9007 16166
" />
<path d="M8994 16259
L9010 16271
" />
<path d="M8972 16249
L8994 16259
" />
<path d="M8949 16246
L8972 16249
" />
<path d="M9103 16311
L9065 16222
" />
<path d="M9104 16308
L9103 16311
" />
<path d="M9128 16249
L9104 16308
" />
<path d="M9222 16303
L9128 16249
" />
<path d="M8879 16787
L8943 16819
" />
<path d="M8807 16738
L8879 16787
" />
<path d="M8861 16664
L8824 16624
" />
<path d="M8751 16683
L8807 16738
" />
<path d="M8911 16698
L8861 16664
" />
<path d="M8824 16624
L8798 16579
" />
<path d="M9049 16335
L9058 16361
" />
<path d="M9066 16394
L9066 16402
" />
<path d="M9058 16361
L9064 16381
" />
<path d="M9038 16309
L9049 16335
" />
<path d="M9025 16288
L9038 16309
" />
<path d="M9308 16827
L9301 16798
" />
<path d="M9005 16840
L9005 16840
" />
<path d="M8943 16819
L9005 16840
" />
<path d="M8941 16714
L8911 16698
" />
<path d="M9301 16798
L9298 16779
" />
</g>
<g style="fill:#840084; fill-opacity:0.0; 
stroke:#840084; stroke-width:59.0551; stroke-opacity:1; 
stroke-linecap:round; stroke-linejoin:round;">
<path d="M25826 12244
L25826 13818
" />
<path d="M28582 12244
L25826 12244
" />
<path d="M28582 13818
L28582 12244
" />
<path d="M25826 13818
L28582 13818
" />
</g>
<g style="fill:#840084; fill-opacity:0.0; 
stroke:#840084; stroke-width:47.2441; stroke-opacity:1; 
stroke-linecap:round; stroke-linejoin:round;">
<path d="M16375 17326
L17423 17326
" />
<path d="M16375 12279
L17423 12279
" />
<path d="M17423 17326
L17423 16102
" />
<path d="M16375 17102
L15777 17102
" />
<path d="M16375 17326
L16375 17102
" />
<path d="M17423 12503
L17423 12279
" />
<path d="M17423 15503
L17423 14102
" />
<path d="M17423 13503
L17423 12279
" />
<path d="M16375 16503
L16375 15102
" />
<path d="M16375 14503
L16375 13102
" />
</g>
<g style="fill:#840084; fill-opacity:0.0; 
stroke:#840084; stroke-width:59.0551; stroke-opacity:1; 
stroke-linecap:round; stroke-linejoin:round;">
<path d="M25826 15787
L25826 17362
" />
<path d="M28582 15787
L25826 15787
" />
<path d="M28582 17362
L28582 15787
" />
<path d="M25826 17362
L28582 17362
" />
<path d="M25783 19342
L25783 20917
" />
<path d="M28539 19342
L25783 19342
" />
<path d="M28539 20917
L28539 19342
" />
<path d="M25783 20917
L28539 20917
" />
</g>
<g style="fill:#840000; fill-opacity:0.0; 
stroke:#840000; stroke-width:59.0551; stroke-opacity:1; 
stroke-linecap:round; stroke-linejoin:round;">
<path d="M26351 13997
L26351 14278
L26370 14334
L26407 14371
L26464 14390
L26501 14390
" />
<path d="M25995 14128
L25995 14390
" />
<path d="M26089 13978
L26182 14259
L25939 14259
" />
<path d="M17030 17504
L17030 17786
L17049 17842
L17087 17879
L17143 17898
L17180 17898
" />
<path d="M16637 17898
L16862 17898
" />
<path d="M16749 17898
L16749 17504
L16787 17561
L16824 17598
L16862 17617
" />
<path d="M26351 17540
L26351 17821
L26370 17877
L26407 17915
L26464 17934
L26501 17934
" />
<path d="M26182 17577
L26164 17559
L26126 17540
L26032 17540
L25995 17559
L25976 17577
L25958 17615
L25958 17652
L25976 17709
L26201 17934
L25958 17934
" />
<path d="M26308 21095
L26308 21376
L26327 21432
L26364 21470
L26420 21489
L26458 21489
" />
<path d="M26158 21095
L25914 21095
L26045 21245
L25989 21245
L25952 21264
L25933 21282
L25914 21320
L25914 21414
L25933 21451
L25952 21470
L25989 21489
L26102 21489
L26139 21470
L26158 21451
" />
</g>
<g style="fill:#000000; fill-opacity:0.0; 
stroke:#000000; stroke-width:59.0551; stroke-opacity:1; 
stroke-linecap:round; stroke-linejoin:round;">
</g>
<g style="fill:#008400; fill-opacity:0.0; 
stroke:#008400; stroke-width:59.0551; stroke-opacity:1; 
stroke-linecap:round; stroke-linejoin:round;">
</g>
<g style="fill:#008400; fill-opacity:0.0; 
stroke:#008400; stroke-width:0; stroke-opacity:1; 
stroke-linecap:round; stroke-linejoin:round;">
</g>
<g style="fill:#008400; fill-opacity:1.0; 
stroke:#008400; stroke-width:0; stroke-opacity:1; 
stroke-linecap:round; stroke-linejoin:round;">
<polyline style="fill-rule:evenodd;"
points="26122,13425
26122,12637
26318,12637
26318,13425
26122,13425
" /> 
<polyline style="fill-rule:evenodd;"
points="26622,13425
26622,12637
26818,12637
26818,13425
26622,13425
" /> 
<polyline style="fill-rule:evenodd;"
points="27622,13425
27622,12637
27818,12637
27818,13425
27622,13425
" /> 
<polyline style="fill-rule:evenodd;"
points="28122,13425
28122,12637
28318,12637
28318,13425
28122,13425
" /> 
<polyline style="fill-rule:evenodd;"
points="15753,17000
15753,16606
16742,16606
16742,17000
15753,17000
" /> 
<polyline style="fill-rule:evenodd;"
points="15753,15000
15753,14606
16742,14606
16742,15000
15753,15000
" /> 
<polyline style="fill-rule:evenodd;"
points="15753,13000
15753,12606
16742,12606
16742,13000
15753,13000
" /> 
<polyline style="fill-rule:evenodd;"
points="17057,16000
17057,15606
18045,15606
18045,16000
17057,16000
" /> 
<polyline style="fill-rule:evenodd;"
points="17057,14000
17057,13606
18045,13606
18045,14000
17057,14000
" /> 
<polyline style="fill-rule:evenodd;"
points="26122,16968
26122,16181
26318,16181
26318,16968
26122,16968
" /> 
<polyline style="fill-rule:evenodd;"
points="26622,16968
26622,16181
26818,16181
26818,16968
26622,16968
" /> 
<polyline style="fill-rule:evenodd;"
points="27622,16968
27622,16181
27818,16181
27818,16968
27622,16968
" /> 
<polyline style="fill-rule:evenodd;"
points="28122,16968
28122,16181
28318,16181
28318,16968
28122,16968
" /> 
<polyline style="fill-rule:evenodd;"
points="26078,20523
26078,19736
26275,19736
26275,20523
26078,20523
" /> 
<polyline style="fill-rule:evenodd;"
points="26578,20523
26578,19736
26775,19736
26775,20523
26578,20523
" /> 
<polyline style="fill-rule:evenodd;"
points="27578,20523
27578,19736
27775,19736
27775,20523
27578,20523
" /> 
<polyline style="fill-rule:evenodd;"
points="28078,20523
28078,19736
28275,19736
28275,20523
28078,20523
" /> 
</g>
<g style="fill:#000000; fill-opacity:1.0; 
stroke:#000000; stroke-width:0; stroke-opacity:1; 
stroke-linecap:round; stroke-linejoin:round;">
</g>
<g style="fill:#008400; fill-opacity:1.0; 
stroke:#008400; stroke-width:0; stroke-opacity:1; 
stroke-linecap:round; stroke-linejoin:round;">
<polyline style="fill-rule:evenodd;"
points="26043,13503
26043,12559
26397,12559
26397,13503
26043,13503
" /> 
<polyline style="fill-rule:evenodd;"
points="26543,13503
26543,12559
26897,12559
26897,13503
26543,13503
" /> 
<polyline style="fill-rule:evenodd;"
points="27543,13503
27543,12559
27897,12559
27897,13503
27543,13503
" /> 
<polyline style="fill-rule:evenodd;"
points="28043,13503
28043,12559
28397,12559
28397,13503
28043,13503
" /> 
<polyline style="fill-rule:evenodd;"
points="15675,17078
15675,16527
16820,16527
16820,17078
15675,17078
" /> 
<polyline style="fill-rule:evenodd;"
points="15675,15078
15675,14527
16820,14527
16820,15078
15675,15078
" /> 
<polyline style="fill-rule:evenodd;"
points="15675,13078
15675,12527
16820,12527
16820,13078
15675,13078
" /> 
<polyline style="fill-rule:evenodd;"
points="16978,16078
16978,15527
18124,15527
18124,16078
16978,16078
" /> 
<polyline style="fill-rule:evenodd;"
points="16978,14078
16978,13527
18124,13527
18124,14078
16978,14078
" /> 
<polyline style="fill-rule:evenodd;"
points="26043,17047
26043,16102
26397,16102
26397,17047
26043,17047
" /> 
<polyline style="fill-rule:evenodd;"
points="26543,17047
26543,16102
26897,16102
26897,17047
26543,17047
" /> 
<polyline style="fill-rule:evenodd;"
points="27543,17047
27543,16102
27897,16102
27897,17047
27543,17047
" /> 
<polyline style="fill-rule:evenodd;"
points="28043,17047
28043,16102
28397,16102
28397,17047
28043,17047
" /> 
<polyline style="fill-rule:evenodd;"
points="26000,20602
26000,19657
26354,19657
26354,20602
26000,20602
" /> 
<polyline style="fill-rule:evenodd;"
points="26500,20602
26500,19657
26854,19657
26854,20602
26500,20602
" /> 
<polyline style="fill-rule:evenodd;"
points="27500,20602
27500,19657
27854,19657
27854,20602
27500,20602
" /> 
<polyline style="fill-rule:evenodd;"
points="28000,20602
28000,19657
28354,19657
28354,20602
28000,20602
" /> 
</g>
<g style="fill:#000000; fill-opacity:1.0; 
stroke:#000000; stroke-width:0; stroke-opacity:1; 
stroke-linecap:round; stroke-linejoin:round;">
</g>
<g style="fill:#008400; fill-opacity:1.0; 
stroke:#008400; stroke-width:0; stroke-opacity:1; 
stroke-linecap:round; stroke-linejoin:round;">
<polyline style="fill-rule:evenodd;"
points="26122,13425
26122,12637
26318,12637
26318,13425
26122,13425
" /> 
<polyline style="fill-rule:evenodd;"
points="26622,13425
26622,12637
26818,12637
26818,13425
26622,13425
" /> 
<polyline style="fill-rule:evenodd;"
points="27622,13425
27622,12637
27818,12637
27818,13425
27622,13425
" /> 
<polyline style="fill-rule:evenodd;"
points="28122,13425
28122,12637
28318,12637
28318,13425
28122,13425
" /> 
<polyline style="fill-rule:evenodd;"
points="15753,17000
15753,16606
16742,16606
16742,17000
15753,17000
" /> 
<polyline style="fill-rule:evenodd;"
points="15753,15000
15753,14606
16742,14606
16742,15000
15753,15000
" /> 
<polyline style="fill-rule:evenodd;"
points="15753,13000
15753,12606
16742,12606
16742,13000
15753,13000
" /> 
<polyline style="fill-rule:evenodd;"
points="17057,16000
17057,15606
18045,15606
18045,16000
17057,16000
" /> 
<polyline style="fill-rule:evenodd;"
points="17057,14000
17057,13606
18045,13606
18045,14000
17057,14000
" /> 
<polyline style="fill-rule:evenodd;"
points="26122,16968
26122,16181
26318,16181
26318,16968
26122,16968
" /> 
<polyline style="fill-rule:evenodd;"
points="26622,16968
26622,16181
26818,16181
26818,16968
26622,16968
" /> 
<polyline style="fill-rule:evenodd;"
points="27622,16968
27622,16181
27818,16181
27818,16968
27622,16968
" /> 
<polyline style="fill-rule:evenodd;"
points="28122,16968
28122,16181
28318,16181
28318,16968
28122,16968
" /> 
<polyline style="fill-rule:evenodd;"
points="26078,20523
26078,19736
26275,19736
26275,20523
26078,20523
" /> 
<polyline style="fill-rule:evenodd;"
points="26578,20523
26578,19736
26775,19736
26775,20523
26578,20523
" /> 
<polyline style="fill-rule:evenodd;"
points="27578,20523
27578,19736
27775,19736
27775,20523
27578,20523
" /> 
<polyline style="fill-rule:evenodd;"
points="28078,20523
28078,19736
28275,19736
28275,20523
28078,20523
" /> 
</g>
<g style="fill:#008400; fill-opacity:1.0; 
stroke:#008400; stroke-width:98.4252; stroke-opacity:1; 
stroke-linecap:round; stroke-linejoin:round;">
</g>
<g style="fill:#008400; fill-opacity:0.0; 
stroke:#008400; stroke-width:98.4252; stroke-opacity:1; 
stroke-linecap:round; stroke-linejoin:round;">
<path d="M26677 20425
L26677 20129
" />
<path d="M26450 20651
L26677 20425
" />
<path d="M19801 20651
L26450 20651
" />
<path d="M16248 17098
L19801 20651
" />
<path d="M16248 16803
L16248 17098
" />
<path d="M25433 19527
L26370 19527
" />
<path d="M26370 19527
L26677 19834
" />
<path d="M26677 19834
L26677 20129
" />
<path d="M25433 17362
L25433 19527
" />
<path d="M25629 17165
L25433 17362
" />
<path d="M26622 17165
L25629 17165
" />
<path d="M26720 16574
L26720 17066
" />
<path d="M26720 17066
L26622 17165
" />
<path d="M25629 13622
L26380 13622
" />
<path d="M26380 13622
L26793 13208
" />
<path d="M25433 13818
L25629 13622
" />
<path d="M25433 15787
L25433 13818
" />
<path d="M25629 15984
L25433 15787
" />
<path d="M26622 15984
L25629 15984
" />
<path d="M26720 16574
L26720 16082
" />
<path d="M26720 16082
L26622 15984
" />
<path d="M16141 16771
L16437 16771
" />
<path d="M28177 20129
L28964 20129
" />
<path d="M28964 20129
L29282 19812
" />
<path d="M29282 19812
L29282 17274
" />
<path d="M29282 17274
L27697 17274
" />
<path d="M28220 16279
L28220 16574
" />
<path d="M27697 17274
L27494 17070
" />
<path d="M27994 16053
L28220 16279
" />
<path d="M27494 17070
L27494 16078
" />
<path d="M27494 16078
L27519 16053
" />
<path d="M27519 16053
L27994 16053
" />
<path d="M26220 13031
L26220 12736
" />
<path d="M26220 12736
L26447 12509
" />
<path d="M26447 12509
L26920 12509
" />
<path d="M26920 12509
L27300 12888
" />
<path d="M27300 12888
L27300 13400
" />
<path d="M28220 13326
L28220 13031
" />
<path d="M27300 13400
L27538 13639
" />
<path d="M27538 13639
L27908 13639
" />
<path d="M27908 13639
L28220 13326
" />
<path d="M26177 20129
L26177 19834
" />
<path d="M28177 19834
L28177 20129
" />
<path d="M25236 16574
L25236 13031
" />
<path d="M25236 16574
L26220 16574
" />
<path d="M25236 20129
L25236 16574
" />
<path d="M25236 13031
L26220 13031
" />
<path d="M25236 20129
L25980 20129
" />
<path d="M21582 20129
L25236 20129
" />
<path d="M17551 15803
L17551 16098
" />
<path d="M17551 16098
L21582 20129
" />
<path d="M25980 20129
L26177 20129
" />
<path d="M26177 20129
L26232 20185
" />
<path d="M27720 12853
L27720 13031
" />
<path d="M16248 14803
L16248 14185
" />
<path d="M16248 14185
L18101 12332
" />
<path d="M18101 12332
L27198 12332
" />
<path d="M27198 12332
L27720 12853
" />
<path d="M27480 20129
L27677 20129
" />
<path d="M19352 20828
L26781 20828
" />
<path d="M15625 17102
L19352 20828
" />
<path d="M17551 13803
L17551 14578
" />
<path d="M15625 16503
L15625 17102
" />
<path d="M26781 20828
L27480 20129
" />
<path d="M17551 14578
L15625 16503
" />
<path d="M16248 12803
L16545 12803
" />
<path d="M28663 9930
L29568 10836
" />
<path d="M28421 17096
L28019 17096
" />
<path d="M16545 12803
L19417 9930
" />
<path d="M29568 16179
L28652 17095
" />
<path d="M28019 17096
L28018 17095
" />
<path d="M19417 9930
L28663 9930
" />
<path d="M27946 17095
L27720 16870
" />
<path d="M29568 10836
L29568 16179
" />
<path d="M28652 17095
L28421 17095
" />
<path d="M28421 17095
L28421 17096
" />
<path d="M28018 17095
L27946 17095
" />
<path d="M27720 16870
L27720 16574
" />
<path d="M27720 16275
L27720 16574
" />
</g>
<g style="fill:#008400; fill-opacity:1.0; 
stroke:#008400; stroke-width:100; stroke-opacity:1; 
stroke-linecap:round; stroke-linejoin:round;">
<polyline style="fill-rule:evenodd;"
points="29516,2182
29516,10361
28874,9719
28777,9654
28663,9631
19417,9631
19303,9654
19205,9719
16573,12351
15753,12351
15661,12368
15576,12423
15519,12507
15499,12606
15499,13000
15516,13092
15571,13177
15654,13234
15753,13254
16742,13254
16758,13251
16036,13973
15971,14070
15948,14185
15948,14351
15753,14351
15661,14368
15576,14423
15519,14507
15499,14606
15499,15000
15516,15092
15571,15177
15654,15234
15753,15254
16451,15254
15414,16292
15349,16389
15326,16503
15326,17102
15349,17216
15414,17313
19140,21040
19237,21105
19352,21127
26781,21127
26895,21105
26993,21040
27370,20662
27396,20701
27479,20758
27578,20778
27775,20778
27868,20761
27925,20724
27937,20735
28029,20773
28065,20773
28127,20711
28127,20179
28226,20179
28226,20711
28288,20773
28325,20773
28417,20735
28487,20665
28525,20573
28525,20242
28463,20179
28226,20179
28127,20179
28119,20179
28119,20079
28127,20079
28127,20072
28226,20072
28226,20079
28463,20079
28525,20017
28525,19686
28494,19610
28779,19610
28886,19588
28977,19528
29037,19437
29059,19330
29059,17362
29037,17255
28988,17182
29516,16654
29516,27521
28581,28082
6585,15709
6585,13857
12595,10387
28383,1427
29516,2182
" /> 
<polyline style="fill-rule:evenodd;"
points="25872,12918
25934,12981
26171,12981
26171,12973
26269,12973
26269,12981
26278,12981
26278,13081
26269,13081
26269,13089
26171,13089
26171,13081
25934,13081
25872,13143
25872,13322
25629,13322
25515,13345
25418,13410
25221,13607
25156,13704
25133,13818
25133,15787
25156,15901
25221,15998
25418,16195
25515,16260
25629,16283
25872,16283
25872,16462
25934,16524
26171,16524
26171,16516
26269,16516
26269,16524
26278,16524
26278,16624
26269,16624
26269,16632
26171,16632
26171,16624
25934,16624
25872,16687
25872,16866
25629,16866
25515,16888
25418,16953
25221,17150
25156,17247
25133,17362
25133,19527
25156,19642
25221,19739
25318,19803
25433,19826
25828,19826
25828,20017
25891,20079
26127,20079
26127,20072
26226,20072
26226,20079
26235,20079
26235,20179
26226,20179
26226,20187
26127,20187
26127,20179
25891,20179
25828,20242
25828,20352
19925,20352
16814,17241
16834,17237
16919,17182
16976,17099
16997,17000
16997,16606
16979,16513
16924,16428
16841,16371
16742,16351
16201,16351
16637,15915
16807,15915
16807,16049
16845,16141
16915,16211
17007,16250
17438,16250
17501,16187
17501,15853
17601,15853
17601,16187
17663,16250
18095,16250
18186,16211
18257,16141
18295,16049
18295,15915
18232,15853
17601,15853
17501,15853
16869,15853
16807,15915
16637,15915
16834,15718
16869,15753
17501,15753
17501,15418
17601,15418
17601,15753
18232,15753
18295,15690
18295,15556
18257,15464
18186,15394
18095,15356
17663,15356
17601,15418
17501,15418
17438,15356
17196,15356
17762,14790
17827,14693
17850,14578
17850,14254
18045,14254
18137,14237
18223,14182
18280,14099
18300,14000
18300,13606
18282,13513
18227,13428
18144,13371
18045,13351
17504,13351
18224,12631
25872,12631
25872,12918
" /> 
<polyline style="fill-rule:evenodd;"
points="29269,10960
29269,16055
28568,16755
28568,16687
28506,16624
28269,16624
28269,16632
28171,16632
28171,16624
28162,16624
28162,16524
28171,16524
28171,16516
28269,16516
28269,16524
28506,16524
28568,16462
28568,16131
28542,16066
28779,16066
28886,16045
28977,15985
29037,15894
29059,15787
29059,13818
29037,13711
28977,13621
28886,13560
28779,13539
28542,13539
28568,13474
28568,13143
28506,13081
28269,13081
28269,13089
28171,13089
28171,13081
28162,13081
28162,12981
28171,12981
28171,12973
28269,12973
28269,12981
28506,12981
28568,12918
28568,12588
28542,12523
28779,12523
28886,12502
28977,12441
29037,12351
29059,12244
29059,10750
29269,10960
" /> 
<polyline style="fill-rule:evenodd;"
points="27367,12923
27367,13425
27384,13517
27398,13539
27043,13539
27053,13524
27073,13425
27073,13305
27093,13208
27073,13111
27073,12637
27072,12631
27074,12631
27367,12923
" /> 
</g>
<g style="fill:#FFFFFF; fill-opacity:1.0; 
stroke:#FFFFFF; stroke-width:100; stroke-opacity:1; 
stroke-linecap:round; stroke-linejoin:round;">
</g>
<g style="fill:#000000; fill-opacity:1.0; 
stroke:#000000; stroke-width:100; stroke-opacity:1; 
stroke-linecap:round; stroke-linejoin:round;">
</g>
<g style="fill:#840000; fill-opacity:1.0; 
stroke:#840000; stroke-width:100; stroke-opacity:1; 
stroke-linecap:round; stroke-linejoin:round;">
</g>
<g style="fill:#840000; fill-opacity:1.0; 
stroke:#840000; stroke-width:98.4252; stroke-opacity:1; 
stroke-linecap:round; stroke-linejoin:round;">
</g>
<g style="fill:#840000; fill-opacity:0.0; 
stroke:#840000; stroke-width:98.4252; stroke-opacity:1; 
stroke-linecap:round; stroke-linejoin:round;">
<path d="M26114 18897
L26153 18937
" />
<path d="M26153 14909
L26114 14948
" />
</g>
<g style="fill:#FFFFFF; fill-opacity:0.0; 
stroke:#FFFFFF; stroke-width:98.4252; stroke-opacity:1; 
stroke-linecap:round; stroke-linejoin:round;">
</g>
<g style="fill:#000000; fill-opacity:0.0; 
stroke:#000000; stroke-width:98.4252; stroke-opacity:1; 
stroke-linecap:round; stroke-linejoin:round;">
</g>
<g style="fill:#008484; fill-opacity:0.0; 
stroke:#008484; stroke-width:98.4252; stroke-opacity:1; 
stroke-linecap:round; stroke-linejoin:round;">
</g>
<g style="fill:#008484; fill-opacity:0.0; 
stroke:#008484; stroke-width:118.11; stroke-opacity:1; 
stroke-linecap:round; stroke-linejoin:round;">
<path d="M7244 15169
L7119 15779
L7585 15366
" />
<path d="M7460 15976
L7657 15635
" />
<path d="M7756 15465
L7717 15475
L7728 15513
L7766 15503
L7756 15465
L7728 15513
" />
<path d="M7704 16117
L7901 15776
" />
<path d="M7845 15873
L7897 15839
L7935 15828
L7998 15832
L8047 15860
" />
<path d="M8437 16085
L8240 16426
" />
<path d="M8217 15959
L8063 16226
L8059 16289
L8094 16342
L8167 16384
L8229 16388
L8268 16377
" />
<path d="M8473 16528
L8508 16581
L8605 16637
L8668 16641
L8720 16606
L8734 16582
L8738 16519
L8703 16466
L8630 16424
L8596 16372
L8600 16309
L8614 16285
L8666 16250
L8729 16254
L8802 16296
L8837 16348
" />
<path d="M9131 16908
L9068 16904
L8970 16848
L8936 16795
L8925 16757
L8929 16694
L9014 16548
L9066 16513
L9104 16503
L9167 16507
L9265 16563
L9299 16616
" />
<path d="M9336 17059
L9533 16718
" />
<path d="M9476 16815
L9529 16781
L9567 16770
L9630 16774
L9679 16802
" />
<path d="M9871 17368
L10026 17100
L10030 17037
L9995 16985
L9898 16929
L9835 16925
" />
<path d="M9886 17344
L9823 17340
L9701 17270
L9666 17217
L9670 17154
L9698 17106
L9751 17071
L9813 17075
L9935 17145
L9998 17149
" />
<path d="M10239 17126
L10434 17238
" />
<path d="M10115 17509
L10368 17070
L10421 17036
L10483 17039
L10532 17068
" />
<path d="M10531 17294
L10726 17407
" />
<path d="M10703 17166
L10449 17604
L10446 17667
L10480 17720
L10529 17748
" />
<path d="M11089 18071
L11384 17560
L11579 17672
L11614 17725
L11624 17763
L11620 17826
L11578 17899
L11526 17934
L11487 17944
L11425 17940
L11230 17828
" />
<path d="M11601 18366
L11896 17855
" />
<path d="M11820 18493
L11974 18225
L11978 18162
L11944 18110
L11871 18068
L11808 18064
L11769 18074
" />
<path d="M12136 18676
L12102 18623
L12091 18585
L12095 18522
L12180 18376
L12232 18341
L12270 18331
L12333 18335
L12406 18377
L12441 18429
L12451 18468
L12447 18531
L12363 18677
L12311 18711
L12272 18722
L12209 18718
L12136 18676
" />
<path d="M12650 18518
L12845 18630
" />
<path d="M12821 18389
L12568 18828
L12564 18890
L12599 18943
L12648 18971
" />
<path d="M12891 19112
L12857 19059
L12846 19021
L12850 18958
L12935 18812
L12987 18777
L13025 18767
L13088 18771
L13161 18813
L13196 18865
L13206 18904
L13202 18967
L13118 19113
L13066 19147
L13027 19158
L12964 19154
L12891 19112
" />
<path d="M13271 19298
L13305 19351
L13403 19407
L13466 19411
L13518 19376
L13532 19352
L13536 19289
L13501 19236
L13428 19194
L13394 19142
L13397 19079
L13411 19055
L13464 19020
L13527 19024
L13600 19066
L13634 19118
" />
<path d="M13904 19664
L13841 19660
L13744 19604
L13709 19551
L13713 19489
L13825 19294
L13878 19259
L13941 19263
L14038 19319
L14073 19372
L14069 19434
L14041 19483
L13769 19391
" />
<path d="M14330 19488
L14133 19829
" />
<path d="M14302 19536
L14341 19526
L14403 19530
L14476 19572
L14511 19625
L14507 19687
L14353 19955
" />
<path d="M14586 20057
L14620 20110
L14718 20166
L14781 20170
L14833 20135
L14847 20111
L14851 20048
L14816 19996
L14743 19954
L14709 19901
L14712 19838
L14726 19814
L14779 19779
L14842 19783
L14915 19825
L14949 19878
" />
<path d="M15083 20377
L15049 20325
L15038 20286
L15042 20223
L15126 20077
L15179 20043
L15217 20032
L15280 20036
L15353 20078
L15388 20131
L15398 20169
L15394 20232
L15310 20378
L15257 20413
L15219 20423
L15156 20419
L15083 20377
" />
<path d="M15473 20602
L15670 20261
" />
<path d="M15613 20359
L15666 20324
L15704 20314
L15767 20317
L15816 20345
" />
<path d="M16401 20456
L16277 21066
L16742 20653
" />
<path d="M16885 21418
L16593 21249
" />
<path d="M16739 21333
L17035 20822
L16944 20867
L16867 20887
L16804 20884
" />
<path d="M17133 21495
L17143 21534
L17105 21544
L17094 21506
L17133 21495
L17105 21544
" />
<path d="M17616 21839
L17324 21671
" />
<path d="M17470 21755
L17765 21244
L17674 21289
L17597 21309
L17535 21305
" />
</g>
<g style="fill:#008484; fill-opacity:0.0; 
stroke:#008484; stroke-width:39.3701; stroke-opacity:1; 
stroke-linecap:round; stroke-linejoin:round;">
<path d="M8656 13560
L8653 13624
" />
<path d="M8647 13495
L8656 13560
" />
<path d="M8626 13429
L8647 13495
" />
<path d="M8593 13362
L8626 13429
" />
<path d="M7937 13553
L7937 13553
" />
<path d="M8048 13489
L7937 13553
" />
<path d="M8018 13407
L8048 13489
" />
<path d="M7998 13246
L7942 13265
" />
<path d="M7968 13152
L7998 13246
" />
<path d="M7957 13155
L7968 13152
" />
<path d="M7576 13754
L7576 13754
" />
<path d="M7808 13219
L7843 13195
" />
<path d="M7782 13246
L7808 13219
" />
<path d="M7763 13277
L7782 13246
" />
<path d="M7937 13553
L8174 14202
" />
<path d="M9049 13361
L9058 13336
" />
<path d="M9038 13388
L9049 13361
" />
<path d="M9025 13409
L9038 13388
" />
<path d="M9010 13426
L9025 13409
" />
<path d="M8994 13438
L9010 13426
" />
<path d="M8972 13448
L8994 13438
" />
<path d="M7845 14423
L7867 14476
" />
<path d="M8406 13839
L8364 13829
" />
<path d="M8449 13838
L8406 13839
" />
<path d="M8492 13828
L8449 13838
" />
<path d="M8535 13808
L8492 13828
" />
<path d="M9219 12731
L9219 12731
" />
<path d="M9125 12785
L9219 12731
" />
<path d="M7420 13844
L7576 13754
" />
<path d="M7809 13527
L7779 13447
" />
<path d="M7699 13591
L7809 13527
" />
<path d="M7730 13673
L7699 13591
" />
<path d="M8054 14453
L7986 14480
" />
<path d="M8114 14423
L8054 14453
" />
<path d="M8164 14383
L8114 14423
" />
<path d="M9740 12545
L9715 12541
" />
<path d="M9763 12562
L9740 12545
" />
<path d="M9785 12592
L9763 12562
" />
<path d="M9800 12625
L9785 12592
" />
<path d="M9942 12978
L9800 12625
" />
<path d="M10036 12924
L9942 12978
" />
<path d="M9896 12575
L10036 12924
" />
<path d="M9873 12528
L9896 12575
" />
<path d="M9820 12138
L9788 12059
" />
<path d="M9963 12055
L9820 12138
" />
<path d="M10335 12977
L9963 12055
" />
<path d="M10193 13059
L10335 12977
" />
<path d="M10226 13140
L10193 13059
" />
<path d="M9103 13386
L9065 13475
" />
<path d="M9104 13388
L9103 13386
" />
<path d="M9128 13448
L9104 13388
" />
<path d="M9222 13394
L9128 13448
" />
<path d="M9005 12857
L9222 13394
" />
<path d="M8283 13253
L8325 13234
" />
<path d="M9066 13295
L8941 12983
" />
<path d="M7751 14478
L7845 14423
" />
<path d="M7913 13169
L7957 13155
" />
<path d="M7871 13182
L7913 13169
" />
<path d="M7843 13195
L7871 13182
" />
<path d="M7839 13610
L7730 13673
" />
<path d="M8066 14228
L7839 13610
" />
<path d="M8080 14274
L8066 14228
" />
<path d="M8409 13225
L8452 13235
" />
<path d="M8367 13224
L8409 13225
" />
<path d="M8563 13317
L8593 13362
" />
<path d="M8529 13281
L8563 13317
" />
<path d="M8492 13254
L8529 13281
" />
<path d="M8452 13235
L8492 13254
" />
<path d="M9831 12474
L9873 12528
" />
<path d="M9782 12444
L9831 12474
" />
<path d="M9729 12439
L9782 12444
" />
<path d="M9676 12457
L9729 12439
" />
<path d="M9632 12492
L9676 12457
" />
<path d="M9598 12540
L9632 12492
" />
<path d="M9572 12602
L9598 12540
" />
<path d="M9555 12677
L9572 12602
" />
<path d="M9342 13325
L9125 12785
" />
<path d="M9436 13270
L9342 13325
" />
<path d="M9298 12929
L9436 13270
" />
<path d="M9298 12918
L9298 12929
" />
<path d="M9301 12899
L9298 12918
" />
<path d="M9308 12870
L9301 12899
" />
<path d="M9319 12832
L9308 12870
" />
<path d="M9348 12764
L9319 12832
" />
<path d="M9382 12727
L9348 12764
" />
<path d="M7711 14566
L7420 13844
" />
<path d="M8238 13287
L8283 13253
" />
<path d="M8203 13329
L8238 13287
" />
<path d="M8178 13379
L8203 13329
" />
<path d="M8164 13438
L8178 13379
" />
<path d="M8325 13234
L8367 13224
" />
<path d="M10226 13140
L10226 13140
" />
<path d="M10459 13005
L10226 13140
" />
<path d="M10023 11923
L10459 13005
" />
<path d="M9788 12059
L10023 11923
" />
<path d="M8519 13463
L8494 13413
" />
<path d="M8536 13511
L8519 13463
" />
<path d="M8546 13558
L8536 13511
" />
<path d="M8548 13604
L8546 13558
" />
<path d="M8543 13646
L8548 13604
" />
<path d="M8283 13253
L8283 13253
" />
<path d="M8949 13451
L8972 13448
" />
<path d="M8926 13449
L8949 13451
" />
<path d="M8901 13441
L8926 13449
" />
<path d="M8855 13409
L8901 13441
" />
<path d="M8817 13358
L8855 13409
" />
<path d="M8783 13267
L8817 13358
" />
<path d="M9513 12636
L9555 12677
" />
<path d="M9469 12614
L9513 12636
" />
<path d="M9423 12612
L9469 12614
" />
<path d="M9376 12630
L9423 12612
" />
<path d="M9336 12661
L9376 12630
" />
<path d="M9303 12704
L9336 12661
" />
<path d="M9276 12758
L9303 12704
" />
<path d="M9257 12825
L9276 12758
" />
<path d="M9599 12734
L9597 12747
" />
<path d="M9603 12715
L9599 12734
" />
<path d="M9609 12691
L9603 12715
" />
<path d="M9623 12644
L9609 12691
" />
<path d="M9636 12612
L9623 12644
" />
<path d="M9649 12590
L9636 12612
" />
<path d="M9662 12573
L9649 12590
" />
<path d="M9689 12550
L9662 12573
" />
<path d="M9715 12541
L9689 12550
" />
<path d="M7598 13807
L7502 13862
" />
<path d="M8081 14306
L8080 14274
" />
<path d="M8070 14330
L8081 14306
" />
<path d="M8045 14350
L8070 14330
" />
<path d="M8857 13540
L8785 13498
" />
<path d="M8897 13551
L8857 13540
" />
<path d="M8935 13553
L8897 13551
" />
<path d="M8972 13546
L8935 13553
" />
<path d="M9007 13531
L8972 13546
" />
<path d="M9065 13475
L9007 13531
" />
<path d="M9066 13295
L9066 13295
" />
<path d="M9066 13302
L9066 13295
" />
<path d="M9064 13316
L9066 13302
" />
<path d="M9058 13336
L9064 13316
" />
<path d="M7753 13312
L7763 13277
" />
<path d="M7756 13370
L7753 13312
" />
<path d="M7779 13447
L7756 13370
" />
<path d="M8531 13681
L8543 13646
" />
<path d="M8512 13708
L8531 13681
" />
<path d="M8486 13729
L8512 13708
" />
<path d="M8466 13737
L8486 13729
" />
<path d="M8446 13740
L8466 13737
" />
<path d="M8267 13457
L8281 13553
" />
<path d="M8271 13413
L8267 13457
" />
<path d="M8283 13377
L8271 13413
" />
<path d="M8301 13349
L8283 13377
" />
<path d="M8326 13328
L8301 13349
" />
<path d="M7867 14476
L7711 14566
" />
<path d="M9411 12716
L9382 12727
" />
<path d="M9437 12720
L9411 12716
" />
<path d="M9462 12737
L9437 12720
" />
<path d="M9484 12767
L9462 12737
" />
<path d="M9505 12811
L9484 12767
" />
<path d="M9642 13151
L9505 12811
" />
<path d="M9736 13097
L9642 13151
" />
<path d="M9598 12755
L9736 13097
" />
<path d="M9597 12747
L9598 12755
" />
<path d="M8161 13502
L8164 13438
" />
<path d="M8169 13566
L8161 13502
" />
<path d="M8189 13630
L8169 13566
" />
<path d="M8220 13695
L8189 13630
" />
<path d="M8252 13742
L8220 13695
" />
<path d="M8286 13780
L8252 13742
" />
<path d="M8324 13809
L8286 13780
" />
<path d="M8364 13829
L8324 13809
" />
<path d="M9005 12857
L9005 12857
" />
<path d="M8943 12877
L9005 12857
" />
<path d="M8879 12909
L8943 12877
" />
<path d="M8807 12959
L8879 12909
" />
<path d="M8751 13014
L8807 12959
" />
<path d="M8709 13076
L8751 13014
" />
<path d="M7502 13862
L7751 14478
" />
<path d="M7907 13470
L8018 13407
" />
<path d="M7884 13407
L7907 13470
" />
<path d="M7876 13381
L7884 13407
" />
<path d="M8368 13317
L8347 13320
" />
<path d="M8390 13320
L8368 13317
" />
<path d="M8412 13328
L8390 13320
" />
<path d="M8456 13361
L8412 13328
" />
<path d="M8494 13413
L8456 13361
" />
<path d="M8783 13167
L8783 13267
" />
<path d="M8798 13117
L8783 13167
" />
<path d="M8824 13073
L8798 13117
" />
<path d="M8861 13033
L8824 13073
" />
<path d="M8911 12999
L8861 13033
" />
<path d="M8941 12983
L8911 12999
" />
<path d="M8580 13775
L8535 13808
" />
<path d="M8615 13733
L8580 13775
" />
<path d="M8639 13683
L8615 13733
" />
<path d="M8653 13624
L8639 13683
" />
<path d="M8326 13328
L8326 13328
" />
<path d="M8347 13320
L8326 13328
" />
<path d="M9219 12731
L9257 12825
" />
<path d="M8009 14367
L8045 14350
" />
<path d="M7956 14385
L8009 14367
" />
<path d="M7986 14480
L7956 14385
" />
<path d="M7576 13754
L7598 13807
" />
<path d="M8190 14336
L8164 14383
" />
<path d="M8193 14277
L8190 14336
" />
<path d="M8174 14202
L8193 14277
" />
<path d="M7870 13358
L7876 13381
" />
<path d="M7867 13340
L7870 13358
" />
<path d="M7868 13326
L7867 13340
" />
<path d="M8424 13737
L8446 13740
" />
<path d="M8402 13729
L8424 13737
" />
<path d="M8359 13698
L8402 13729
" />
<path d="M8322 13649
L8359 13698
" />
<path d="M8281 13553
L8322 13649
" />
<path d="M8684 13145
L8709 13076
" />
<path d="M8673 13216
L8684 13145
" />
<path d="M8677 13287
L8673 13216
" />
<path d="M8696 13358
L8677 13287
" />
<path d="M8729 13429
L8696 13358
" />
<path d="M8785 13498
L8729 13429
" />
<path d="M7880 13302
L7868 13326
" />
<path d="M7906 13281
L7880 13302
" />
<path d="M7942 13265
L7906 13281
" />
</g>
<g style="fill:#008484; fill-opacity:0.0; 
stroke:#008484; stroke-width:78.7402; stroke-opacity:1; 
stroke-linecap:round; stroke-linejoin:round;">
<path d="M17559 8086
L29960 29566
" />
<path d="M29960 39
L17559 21519
" />
<path d="M4370 14803
L29173 14803
" />
<circle cx="21437" cy="14803.1" r="3174.12" /> 
</g>
<g style="fill:#000000; fill-opacity:0.0; 
stroke:#000000; stroke-width:78.7402; stroke-opacity:1; 
stroke-linecap:round; stroke-linejoin:round;">
</g>
<g style="fill:#008400; fill-opacity:0.0; 
stroke:#008400; stroke-width:78.7402; stroke-opacity:1; 
stroke-linecap:round; stroke-linejoin:round;">
<path d="M29960 29566
L4389 14803
" />
<path d="M433 17755
L39 17755
" />
<path d="M29960 31535
L29960 31141
" />
<path d="M29960 30748
L29960 31535
" />
<path d="M29960 25629
L29960 30748
" />
<path d="M29960 25629
L29960 39
" />
</g>
<g style="fill:#000000; fill-opacity:0.0; 
stroke:#000000; stroke-width:78.7402; stroke-opacity:1; 
stroke-linecap:round; stroke-linejoin:round;">
</g>
<g style="fill:#C2C200; fill-opacity:0.0; 
stroke:#C2C200; stroke-width:78.7402; stroke-opacity:1; 
stroke-linecap:round; stroke-linejoin:round;">
</g>
<g style="fill:#C2C200; fill-opacity:0.0; 
stroke:#C2C200; stroke-width:59.0551; stroke-opacity:1; 
stroke-linecap:round; stroke-linejoin:round;">
<path d="M25629 10275
L28779 10275
" />
<path d="M25629 12244
L28779 12244
" />
<path d="M28779 12244
L28779 10275
" />
<path d="M25629 12244
L25629 10275
" />
<path d="M28779 19330
L25629 19330
" />
<path d="M28779 17362
L25629 17362
" />
<path d="M28779 19330
L28779 17362
" />
<path d="M25629 19330
L25629 17362
" />
<path d="M25629 13818
L28779 13818
" />
<path d="M25629 15787
L25629 13818
" />
<path d="M28779 15787
L25629 15787
" />
<path d="M28779 13818
L28779 15787
" />
<path d="M4728 14607
L4389 14803
" />
<path d="M29960 39
L4728 14607
" />
<path d="M29960 29566
L4389 14803
" />
<path d="M29960 39
L29960 29566
" />
</g> 
</svg>
